<svg width="24" height="24" viewBox="0 0 24 24" fill="none" xmlns="http://www.w3.org/2000/svg">
<g clip-path="url(#clip0_832_21007)">
<path d="M3.36958 19.5773C-0.691999 15.4593 -0.609006 8.39951 3.88043 3.91007C7.33922 0.451281 13.2068 -0.618575 17.5089 1.92228M6.41585 22.0169C10.7006 24.5195 16.4951 23.8108 20.1381 20.1678C24.4821 15.8238 24.6229 8.86843 20.5605 4.35521" stroke="#333333" stroke-linecap="round"/>
<path fill-rule="evenodd" clip-rule="evenodd" d="M18.0113 15.4992C18.0117 15.7754 17.7882 15.9996 17.512 16C17.2359 16.0004 17.0117 15.7769 17.0113 15.5007L17.0007 8.50075C17.0003 8.22461 17.2238 8.00042 17.5 8C17.7761 7.99959 18.0003 8.22311 18.0007 8.49925L18.0017 9.1421L18.0017 9.14794L18.0051 11.4278L18.0052 11.44L18.0069 12.5684L18.0113 15.4992ZM5.48755 15.5925C5.40905 15.8573 5.1308 16.0083 4.86605 15.9298C4.6013 15.8513 4.45032 15.573 4.52882 15.3083L6.52118 8.58879C6.61356 8.27723 6.88306 8.05844 7.19594 8.02325L7.201 8.01946C7.23359 8.01711 7.26593 8.01678 7.2979 8.01837C7.31736 8.01869 7.33692 8.01972 7.35656 8.02148L7.35984 8.0239C7.66595 8.06341 7.92762 8.27962 8.01812 8.58484L10.0153 15.3207C10.0938 15.5854 9.94284 15.8637 9.6781 15.9422C9.41335 16.0207 9.13509 15.8697 9.05659 15.6049L8.56976 13.9631L7.29633 13.9631L6.73356 13.9631H6.72747H5.9707L5.48755 15.5925ZM6.26721 12.9631L7.27023 9.58026L8.27326 12.9631H6.26721ZM11 8.5C11 8.22363 11.2239 8 11.5 8H13.5C13.9953 8 14.4869 8.15144 14.8955 8.42676C15.5715 8.87743 16 9.68357 16 10.5C16 11.1554 15.7328 11.8022 15.2678 12.2676C14.8033 12.7326 14.1565 13 13.5 13H12V15.5C12 15.7764 11.7761 16 11.5 16C11.2239 16 11 15.7764 11 15.5V12.5V8.5ZM12 9H13.5C13.7864 9 14.071 9.08401 14.3103 9.23731C14.5661 9.40323 14.7695 9.64498 14.8857 9.92578C14.9612 10.1084 15 10.3027 15 10.5C15 10.8935 14.8401 11.2805 14.5605 11.5605C14.2824 11.8397 13.8943 12 13.5 12H12V9Z" fill="#FF6F3D"/>
<path d="M3.93392 17.7483L1.61846 20.048L4.76781 20.9034L3.93392 17.7483Z" fill="#333333"/>
<path d="M19.3714 3.23521L22.5051 4.14624L20.1492 6.40459L19.3714 3.23521Z" fill="#333333"/>
</g>
<defs>
<clipPath id="clip0_832_21007">
<rect width="24" height="24" fill="white"/>
</clipPath>
</defs>
</svg>
