<svg width="24" height="24" viewBox="0 0 24 24" fill="none" xmlns="http://www.w3.org/2000/svg">
<g clip-path="url(#clip0_832_21012)">
<path fill-rule="evenodd" clip-rule="evenodd" d="M21.7112 5.81889C21.9503 5.68082 22.2561 5.76276 22.3942 6.0019C25.7079 11.7414 23.7414 19.0805 18.0019 22.3942C12.2624 25.7079 4.9233 23.7414 1.6096 18.0019C-1.70411 12.2624 0.262394 4.9233 6.00191 1.6096C8.66329 0.0730491 11.6698 -0.32814 14.4581 0.255843C15.8837 0.554427 17.2528 1.1106 18.4904 1.90454C19.2358 2.38267 19.9334 2.94702 20.567 3.59319C20.7603 3.79037 20.7572 4.10694 20.56 4.30026C20.3628 4.49358 20.0462 4.49045 19.8529 4.29327C19.2726 3.70139 18.6335 3.18438 17.9505 2.74624C16.8162 2.01861 15.5607 1.50849 14.2531 1.23461C11.6963 0.699114 8.94204 1.06681 6.50191 2.47562C1.24069 5.51319 -0.561942 12.2407 2.47562 17.5019C5.51319 22.7631 12.2407 24.5657 17.5019 21.5282C22.7631 18.4906 24.5657 11.7631 21.5282 6.5019C21.3901 6.26276 21.472 5.95696 21.7112 5.81889Z" fill="#333333"/>
<path fill-rule="evenodd" clip-rule="evenodd" d="M13.6989 8.04251C13.9527 8.15129 14.0703 8.44523 13.9615 8.69904L10.9615 15.699C10.8528 15.9529 10.5588 16.0704 10.305 15.9617C10.0512 15.8529 9.93362 15.5589 10.0424 15.3051L13.0424 8.30512C13.1512 8.05131 13.4451 7.93373 13.6989 8.04251ZM15.1257 8.17283C15.3075 7.96501 15.6234 7.94395 15.8312 8.12579L19.8312 11.6258L20.2613 12.0021L19.8312 12.3784L15.8312 15.8784C15.6234 16.0602 15.3075 16.0392 15.1257 15.8313C14.9438 15.6235 14.9649 15.3076 15.1727 15.1258L18.7427 12.0021L15.1727 8.87837C14.9649 8.69653 14.9438 8.38065 15.1257 8.17283ZM8.17272 8.12579C8.38054 7.94395 8.69642 7.96501 8.87826 8.17283C9.0601 8.38065 9.03904 8.69653 8.83122 8.87837L5.26127 12.0021L8.83122 15.1258C9.03904 15.3076 9.0601 15.6235 8.87826 15.8313C8.69642 16.0392 8.38054 16.0602 8.17272 15.8784L4.17272 12.3784L3.74268 12.0021L4.17272 11.6258L8.17272 8.12579Z" fill="#FF6F3D"/>
</g>
<defs>
<clipPath id="clip0_832_21012">
<rect width="24" height="24" fill="white"/>
</clipPath>
</defs>
</svg>
