<svg width="24" height="24" viewBox="0 0 24 24" fill="none" xmlns="http://www.w3.org/2000/svg">
<path fill-rule="evenodd" clip-rule="evenodd" d="M9.52006 3.99874C9.76894 1.75061 11.6777 0.00201416 13.9955 0.00201416C16.3133 0.00201416 18.2221 1.75061 18.4709 3.99874L21.0001 3.99874C21.2764 3.99874 21.5004 4.22242 21.5004 4.49833C21.5004 4.77425 21.2764 4.99792 21.0001 4.99792L17.4978 4.99792V4.49833C17.4978 2.56692 15.9298 1.0012 13.9955 1.0012C12.0612 1.0012 10.4932 2.56692 10.4932 4.49833V4.99792L6.50624 4.99792C5.67727 4.99792 5.00526 5.66895 5.00526 6.4967L5.00527 10.4974H4.50494C2.57069 10.4974 1.00266 12.0632 1.00266 13.9946C1.00266 15.926 2.57069 17.4917 4.50494 17.4917H5.00527L5.00527 21.5041C5.00527 22.3318 5.67728 23.0028 6.50624 23.0028H10.4932V21.5041C10.4932 19.5726 12.0612 18.0069 13.9955 18.0069C15.9298 18.0069 17.4978 19.5726 17.4978 21.5041V23.0028H21.5004C22.3294 23.0028 23.0014 22.3318 23.0014 21.5041L23.0014 17.4917H21.5004C19.5661 17.4917 17.9981 15.926 17.9981 13.9946C17.9981 12.0632 19.5661 10.4974 21.5004 10.4974H23.0014V7.48807C23.0014 7.21215 23.2254 6.98848 23.5017 6.98848C23.778 6.98848 24.002 7.21215 24.002 7.48807L24.002 11.4966H21.5004C20.1188 11.4966 18.9988 12.615 18.9988 13.9946C18.9988 15.3742 20.1188 16.4925 21.5004 16.4925H24.002L24.002 21.5041C24.002 22.8836 22.882 24.002 21.5004 24.002H16.4971V21.5041C16.4971 20.1245 15.3771 19.0061 13.9955 19.0061C12.6139 19.0061 11.4939 20.1245 11.4939 21.5041V24.002L6.50624 24.002C5.12463 24.002 4.00462 22.8836 4.00462 21.5041L4.00462 18.4635C1.75318 18.2149 0.00201416 16.309 0.00201416 13.9946C0.00201416 11.6802 1.75318 9.77423 4.00462 9.52571L4.00461 6.4967C4.00461 5.11711 5.12463 3.99874 6.50624 3.99874L9.52006 3.99874Z" fill="#FF6F3D"/>
</svg>
