<svg width="24" height="24" viewBox="0 0 24 24" fill="none" xmlns="http://www.w3.org/2000/svg">
<path fill-rule="evenodd" clip-rule="evenodd" d="M9.51999 3.99868C9.76888 1.75055 11.6777 0.00195312 13.9954 0.00195312C16.3132 0.00195312 18.222 1.75055 18.4709 3.99868L21 3.99868C21.2763 3.99868 21.5003 4.22235 21.5003 4.49827C21.5003 4.77419 21.2763 4.99786 21 4.99786L17.4977 4.99786V4.49827C17.4977 2.56686 15.9297 1.00113 13.9954 1.00113C12.0612 1.00113 10.4932 2.56686 10.4932 4.49827V4.99786L6.50618 4.99786C5.67721 4.99786 5.0052 5.66889 5.0052 6.49664L5.00521 10.4974H4.50488C2.57063 10.4974 1.0026 12.0631 1.0026 13.9945C1.0026 15.9259 2.57063 17.4917 4.50488 17.4917H5.0052L5.00521 21.504C5.00521 22.3317 5.67722 23.0028 6.50618 23.0028H10.4932V21.504C10.4932 19.5726 12.0612 18.0069 13.9954 18.0069C15.9297 18.0069 17.4977 19.5726 17.4977 21.504V23.0028H21.5003C22.3293 23.0028 23.0013 22.3317 23.0013 21.504L23.0013 17.4917H21.5003C19.5661 17.4917 17.998 15.9259 17.998 13.9945C17.998 12.0631 19.5661 10.4974 21.5003 10.4974H23.0013V7.48801C23.0013 7.21209 23.2253 6.98842 23.5016 6.98842C23.7779 6.98842 24.002 7.21209 24.002 7.48801L24.002 11.4966H21.5003C20.1187 11.4966 18.9987 12.6149 18.9987 13.9945C18.9987 15.3741 20.1187 16.4925 21.5003 16.4925H24.002L24.002 21.504C24.002 22.8836 22.8819 24.002 21.5003 24.002H16.4971V21.504C16.4971 20.1244 15.3771 19.006 13.9954 19.006C12.6138 19.006 11.4938 20.1244 11.4938 21.504V24.002L6.50618 24.002C5.12457 24.002 4.00456 22.8836 4.00456 21.504L4.00455 18.4634C1.75312 18.2149 0.00195313 16.3089 0.00195313 13.9945C0.00195313 11.6801 1.75312 9.77416 4.00455 9.52565L4.00455 6.49664C4.00455 5.11705 5.12457 3.99868 6.50618 3.99868L9.51999 3.99868Z" fill="#FF6F3D"/>
</svg>
