<svg width="24" height="24" viewBox="0 0 24 24" fill="none" xmlns="http://www.w3.org/2000/svg">
<path fill-rule="evenodd" clip-rule="evenodd" d="M9.51999 3.99874C9.76888 1.75061 11.6777 0.00201416 13.9954 0.00201416C16.3132 0.00201416 18.222 1.75061 18.4709 3.99874L21 3.99874C21.2763 3.99874 21.5003 4.22242 21.5003 4.49833C21.5003 4.77425 21.2763 4.99792 21 4.99792L17.4977 4.99792V4.49833C17.4977 2.56692 15.9297 1.0012 13.9954 1.0012C12.0612 1.0012 10.4932 2.56692 10.4932 4.49833V4.99792L6.50618 4.99792C5.67721 4.99792 5.0052 5.66895 5.0052 6.4967L5.00521 10.4974H4.50488C2.57063 10.4974 1.0026 12.0632 1.0026 13.9946C1.0026 15.926 2.57063 17.4917 4.50488 17.4917H5.0052L5.00521 21.5041C5.00521 22.3318 5.67722 23.0028 6.50618 23.0028H10.4932V21.5041C10.4932 19.5726 12.0612 18.0069 13.9954 18.0069C15.9297 18.0069 17.4977 19.5726 17.4977 21.5041V23.0028H21.5003C22.3293 23.0028 23.0013 22.3318 23.0013 21.5041L23.0013 17.4917H21.5003C19.5661 17.4917 17.998 15.926 17.998 13.9946C17.998 12.0632 19.5661 10.4974 21.5003 10.4974H23.0013V7.48807C23.0013 7.21215 23.2253 6.98848 23.5016 6.98848C23.7779 6.98848 24.002 7.21215 24.002 7.48807L24.002 11.4966H21.5003C20.1187 11.4966 18.9987 12.615 18.9987 13.9946C18.9987 15.3742 20.1187 16.4925 21.5003 16.4925H24.002L24.002 21.5041C24.002 22.8836 22.8819 24.002 21.5003 24.002H16.4971V21.5041C16.4971 20.1245 15.3771 19.0061 13.9954 19.0061C12.6138 19.0061 11.4938 20.1245 11.4938 21.5041V24.002L6.50618 24.002C5.12457 24.002 4.00456 22.8836 4.00456 21.5041L4.00455 18.4635C1.75312 18.2149 0.00195313 16.309 0.00195313 13.9946C0.00195313 11.6802 1.75312 9.77423 4.00455 9.52571L4.00455 6.4967C4.00455 5.11711 5.12457 3.99874 6.50618 3.99874L9.51999 3.99874Z" fill="#FF6F3D"/>
</svg>
