<svg version="1.1" viewBox="0 0 24 24" xmlns="http://www.w3.org/2000/svg">
  <path d="m17 14.5c0 0.2761 0.2239 0.5 0.5 0.5s0.5-0.2239 0.5-0.5v-6c0-1.3807-1.1193-2.5-2.5-2.5h-6c-0.2761 0-0.5 0.2239-0.5 0.5s0.2239 0.5 0.5 0.5h6c0.8284 0 1.5 0.6716 1.5 1.5zm-3-5.5h-6c-0.5523 0-1 0.4477-1 1v6c0 0.5523 0.4477 1 1 1h6c0.5523 0 1-0.4477 1-1v-6c0-0.5523-0.4477-1-1-1zm-6-1c-1.1046 0-2 0.8954-2 2v6c0 1.1046 0.8954 2 2 2h6c1.1046 0 2-0.8954 2-2v-6c0-1.1046-0.8954-2-2-2z" clip-rule="evenodd" fill="currentColor" fill-rule="evenodd" />
</svg>
