<svg width="254" height="120" viewBox="0 0 254 120" fill="none" xmlns="http://www.w3.org/2000/svg">
<path d="M181.416 45.1138C180.69 45.1138 179.965 45.1603 179.239 45.2533L177.244 42.2304L173.254 43.5791L173.344 47.2065C172.029 47.9506 170.851 48.8342 169.808 49.8573L166.452 48.6482L163.913 52.1361L166.089 55.0194C165.454 56.3681 165.001 57.8098 164.729 59.2979L161.328 60.3211L161.328 64.6461L164.729 65.6692C165.001 67.1574 165.454 68.599 166.089 69.9477L163.913 72.8775L166.407 76.3654L169.762 75.1563C170.805 76.1794 172.029 77.1095 173.299 77.8071L173.208 81.4345L177.199 82.7832L179.194 79.7603C179.919 79.8534 180.645 79.8999 181.37 79.8999C182.096 79.8999 182.867 79.8534 183.592 79.7603L185.588 82.7832L189.578 81.4345L189.487 77.8071C190.757 77.063 191.981 76.1794 193.024 75.1563L196.38 76.3654L198.874 72.8775L196.697 69.9942C197.332 68.6455 197.785 67.2039 198.057 65.7157L201.504 64.6926L201.504 60.3676L198.057 59.3444C197.785 57.8563 197.332 56.4146 196.697 55.0659L198.874 52.1826L196.38 48.6947L193.024 49.9038C191.981 48.8807 190.757 47.9971 189.487 47.253L189.578 43.6256L185.588 42.2769L183.592 45.2998C182.867 45.1603 182.141 45.1138 181.416 45.1138Z" stroke="#CCCCCC" stroke-miterlimit="10" stroke-linecap="round" stroke-linejoin="round"/>
<path d="M194.974 62.5065C194.974 54.8269 188.903 48.6014 181.415 48.6014C173.928 48.6014 167.857 54.8269 167.857 62.5065C167.857 70.1861 173.928 76.4116 181.415 76.4116C188.903 76.4116 194.974 70.1861 194.974 62.5065Z" stroke="#CCCCCC" stroke-miterlimit="10" stroke-linecap="round" stroke-linejoin="round"/>
<path d="M192.118 62.5067C192.118 56.4452 187.326 51.5314 181.416 51.5314C175.506 51.5314 170.715 56.4452 170.715 62.5067C170.715 68.5681 175.506 73.482 181.416 73.482C187.326 73.482 192.118 68.5681 192.118 62.5067Z" stroke="#CCCCCC" stroke-miterlimit="10" stroke-linecap="round" stroke-linejoin="round"/>
<path d="M158.654 27.7209C158.245 27.7209 157.792 27.7674 157.384 27.8139L156.205 26.0467L153.892 26.8373L153.938 28.93C153.167 29.3486 152.487 29.8601 151.852 30.4647L149.902 29.7671L148.496 31.8134L149.766 33.4876C149.403 34.2782 149.131 35.1153 148.995 35.9989L147 36.5569L147 39.0682L148.95 39.6728C149.086 40.5564 149.358 41.3935 149.721 42.1841L148.496 43.8583L149.947 45.858L151.897 45.1604C152.532 45.765 153.212 46.2766 153.983 46.6951L153.938 48.7879L156.205 49.5785L157.384 47.8112C157.792 47.8578 158.2 47.9043 158.654 47.9043C159.107 47.9043 159.515 47.8578 159.923 47.8112L161.102 49.5785L163.415 48.7879L163.369 46.6486C164.14 46.2301 164.82 45.7185 165.41 45.1139L167.36 45.858L168.811 43.8118L167.541 42.1376C167.904 41.347 168.176 40.5099 168.312 39.6728L170.307 39.0682L170.307 36.5569L168.312 35.9523C168.176 35.0687 167.904 34.2316 167.541 33.4876L168.811 31.8134L167.36 29.7671L165.41 30.4647C164.775 29.8601 164.095 29.3486 163.369 28.93L163.415 26.7908L161.102 26.0002L159.923 27.7674C159.515 27.7674 159.062 27.7209 158.654 27.7209Z" stroke="#CCCCCC" stroke-miterlimit="10" stroke-linecap="round" stroke-linejoin="round"/>
<path d="M164.866 37.8125C164.866 34.2937 162.085 31.4412 158.654 31.4412C155.223 31.4412 152.441 34.2937 152.441 37.8125C152.441 41.3312 155.223 44.1837 158.654 44.1837C162.085 44.1837 164.866 41.3312 164.866 37.8125Z" stroke="#CCCCCC" stroke-miterlimit="10" stroke-linecap="round" stroke-linejoin="round"/>
<g filter="url(#filter0_d_126_4248)">
<path d="M76 47C76 45.3431 77.3431 44 79 44H175C176.657 44 178 45.3431 178 47V75C178 76.6569 176.657 78 175 78H79C77.3431 78 76 76.6569 76 75V47Z" fill="#F9F9F9"/>
<path fill-rule="evenodd" clip-rule="evenodd" d="M97 44H79C77.3431 44 76 45.3431 76 47V75C76 76.6569 77.3431 78 79 78H97V77H79C77.8954 77 77 76.1046 77 75V47C77 45.8954 77.8954 45 79 45H97V44ZM106 77H175C176.105 77 177 76.1046 177 75V47C177 45.8954 176.105 45 175 45H106V44H175C176.657 44 178 45.3431 178 47V75C178 76.6569 176.657 78 175 78H106V77Z" fill="#CCCCCC"/>
</g>
<path fill-rule="evenodd" clip-rule="evenodd" d="M108.607 37C109.968 37 111.071 38.1033 111.071 39.4643C111.071 40.8253 109.968 41.9286 108.607 41.9286H104.5V80H108.607C109.968 80 111.071 81.1033 111.071 82.4643C111.071 83.8253 109.968 84.9286 108.607 84.9286L95.4643 84.9286C94.1033 84.9286 93 83.8253 93 82.4643C93 81.1033 94.1033 80 95.4643 80H99.5714V41.9286H95.4643C94.1033 41.9286 93 40.8253 93 39.4643C93 38.1033 94.1033 37 95.4643 37H108.607Z" fill="#808080"/>
<rect x="62" y="49" width="24" height="24" rx="3" fill="#FF6F3D"/>
<path d="M67 59H81V63H67V59Z" fill="white"/>
<path d="M76 54V68H72L72 54H76Z" fill="white"/>
<defs>
<filter id="filter0_d_126_4248" x="61" y="36" width="132" height="64" filterUnits="userSpaceOnUse" color-interpolation-filters="sRGB">
<feFlood flood-opacity="0" result="BackgroundImageFix"/>
<feColorMatrix in="SourceAlpha" type="matrix" values="0 0 0 0 0 0 0 0 0 0 0 0 0 0 0 0 0 0 127 0" result="hardAlpha"/>
<feOffset dy="7"/>
<feGaussianBlur stdDeviation="7.5"/>
<feColorMatrix type="matrix" values="0 0 0 0 0.333333 0 0 0 0 0.333333 0 0 0 0 0.333333 0 0 0 0.1 0"/>
<feBlend mode="normal" in2="BackgroundImageFix" result="effect1_dropShadow_126_4248"/>
<feBlend mode="normal" in="SourceGraphic" in2="effect1_dropShadow_126_4248" result="shape"/>
</filter>
</defs>
</svg>
