<svg width="142" height="75" viewBox="0 0 142 75" fill="none" xmlns="http://www.w3.org/2000/svg">
<path d="M120.417 20.1138C119.691 20.1138 118.966 20.1603 118.24 20.2533L116.245 17.2304L112.255 18.5791L112.345 22.2065C111.03 22.9506 109.851 23.8342 108.809 24.8573L105.453 23.6482L102.914 27.1361L105.09 30.0194C104.455 31.3681 104.002 32.8098 103.73 34.2979L100.329 35.3211L100.329 39.6461L103.73 40.6692C104.002 42.1574 104.455 43.599 105.09 44.9477L102.914 47.8775L105.408 51.3654L108.763 50.1563C109.806 51.1794 111.03 52.1095 112.3 52.8071L112.209 56.4345L116.2 57.7832L118.195 54.7603C118.92 54.8534 119.646 54.8999 120.371 54.8999C121.097 54.8999 121.868 54.8534 122.593 54.7603L124.589 57.7832L128.579 56.4345L128.488 52.8071C129.758 52.063 130.982 51.1794 132.025 50.1563L135.381 51.3654L137.875 47.8775L135.698 44.9942C136.333 43.6455 136.786 42.2039 137.058 40.7157L140.505 39.6926L140.505 35.3676L137.058 34.3444C136.786 32.8563 136.333 31.4146 135.698 30.0659L137.875 27.1826L135.381 23.6947L132.025 24.9038C130.982 23.8807 129.758 22.9971 128.488 22.253L128.579 18.6256L124.589 17.2769L122.593 20.2998C121.868 20.1603 121.142 20.1138 120.417 20.1138Z" stroke="#CCCCCC" stroke-miterlimit="10" stroke-linecap="round" stroke-linejoin="round"/>
<path d="M133.975 37.5065C133.975 29.8269 127.905 23.6013 120.417 23.6013C112.929 23.6013 106.859 29.8269 106.859 37.5065C106.859 45.1861 112.929 51.4116 120.417 51.4116C127.905 51.4116 133.975 45.1861 133.975 37.5065Z" stroke="#CCCCCC" stroke-miterlimit="10" stroke-linecap="round" stroke-linejoin="round"/>
<path d="M131.118 37.5066C131.118 31.4451 126.327 26.5313 120.417 26.5313C114.507 26.5313 109.716 31.4451 109.716 37.5066C109.716 43.5681 114.507 48.4819 120.417 48.4819C126.327 48.4819 131.118 43.5681 131.118 37.5066Z" stroke="#CCCCCC" stroke-miterlimit="10" stroke-linecap="round" stroke-linejoin="round"/>
<path d="M97.6536 2.72085C97.2455 2.72085 96.792 2.76736 96.3839 2.81386L95.205 1.04666L92.8924 1.83725L92.9377 3.92999C92.1669 4.34854 91.4867 4.86011 90.8519 5.46468L88.9021 4.76709L87.4964 6.81334L88.766 8.48753C88.4033 9.27813 88.1312 10.1152 87.9952 10.9988L86 11.5569L86 14.0682L87.9498 14.6728C88.0859 15.5564 88.3579 16.3935 88.7207 17.1841L87.4964 18.8583L88.9474 20.858L90.8972 20.1604C91.5321 20.765 92.2122 21.2765 92.9831 21.6951L92.9377 23.7878L95.205 24.5784L96.3839 22.8112C96.792 22.8577 97.2001 22.9042 97.6536 22.9042C98.107 22.9042 98.5151 22.8577 98.9232 22.8112L100.102 24.5784L102.415 23.7878L102.369 21.6486C103.14 21.23 103.82 20.7185 104.41 20.1139L106.36 20.858L107.811 18.8117L106.541 17.1376C106.904 16.347 107.176 15.5099 107.312 14.6728L109.307 14.0682L109.307 11.5569L107.312 10.9523C107.176 10.0687 106.904 9.23162 106.541 8.48753L107.811 6.81334L106.36 4.76709L104.41 5.46468C103.775 4.8601 103.095 4.34854 102.369 3.92999L102.415 1.79074L100.102 1.00015L98.9232 2.76736C98.5151 2.76736 98.0617 2.72085 97.6536 2.72085Z" stroke="#CCCCCC" stroke-miterlimit="10" stroke-linecap="round" stroke-linejoin="round"/>
<path d="M103.866 12.8124C103.866 9.29366 101.085 6.44115 97.6536 6.44115C94.2227 6.44115 91.4414 9.29366 91.4414 12.8124C91.4414 16.3311 94.2227 19.1837 97.6536 19.1837C101.085 19.1837 103.866 16.3311 103.866 12.8124Z" stroke="#CCCCCC" stroke-miterlimit="10" stroke-linecap="round" stroke-linejoin="round"/>
<g filter="url(#filter0_d)">
<path d="M15 22C15 20.3431 16.3431 19 18 19H114C115.657 19 117 20.3431 117 22V50C117 51.6569 115.657 53 114 53H18C16.3431 53 15 51.6569 15 50V22Z" fill="#F9F9F9"/>
<path fill-rule="evenodd" clip-rule="evenodd" d="M36 19H18C16.3431 19 15 20.3431 15 22V50C15 51.6569 16.3431 53 18 53H36V52H18C16.8954 52 16 51.1046 16 50V22C16 20.8954 16.8954 20 18 20H36V19ZM45 52H114C115.105 52 116 51.1046 116 50V22C116 20.8954 115.105 20 114 20H45V19H114C115.657 19 117 20.3431 117 22V50C117 51.6569 115.657 53 114 53H45V52Z" fill="#CCCCCC"/>
</g>
<path fill-rule="evenodd" clip-rule="evenodd" d="M47.6071 12C48.9681 12 50.0714 13.1033 50.0714 14.4643C50.0714 15.8253 48.9681 16.9286 47.6071 16.9286H43.5V55H47.6071C48.9681 55 50.0714 56.1033 50.0714 57.4643C50.0714 58.8253 48.9681 59.9286 47.6071 59.9286L34.4643 59.9286C33.1033 59.9286 32 58.8253 32 57.4643C32 56.1033 33.1033 55 34.4643 55H38.5714V16.9286H34.4643C33.1033 16.9286 32 15.8253 32 14.4643C32 13.1033 33.1033 12 34.4643 12H47.6071Z" fill="#444444"/>
<rect x="1" y="24" width="24" height="24" rx="3" fill="#FF6F3D"/>
<path d="M6 34H20V38H6V34Z" fill="white"/>
<path d="M15 29V43H11L11 29H15Z" fill="white"/>
<defs>
<filter id="filter0_d" x="0" y="11" width="132" height="64" filterUnits="userSpaceOnUse" color-interpolation-filters="sRGB">
<feFlood flood-opacity="0" result="BackgroundImageFix"/>
<feColorMatrix in="SourceAlpha" type="matrix" values="0 0 0 0 0 0 0 0 0 0 0 0 0 0 0 0 0 0 127 0"/>
<feOffset dy="7"/>
<feGaussianBlur stdDeviation="7.5"/>
<feColorMatrix type="matrix" values="0 0 0 0 0.333333 0 0 0 0 0.333333 0 0 0 0 0.333333 0 0 0 0.1 0"/>
<feBlend mode="normal" in2="BackgroundImageFix" result="effect1_dropShadow"/>
<feBlend mode="normal" in="SourceGraphic" in2="effect1_dropShadow" result="shape"/>
</filter>
</defs>
</svg>
