<svg width="254" height="120" viewBox="0 0 254 120" fill="none" xmlns="http://www.w3.org/2000/svg">
<g clip-path="url(#clip0_125_4040)">
<path fill-rule="evenodd" clip-rule="evenodd" d="M161 51V19H163V51H161Z" fill="#808080"/>
<path d="M107.717 48H104.201V38.3467H94.3281V48H90.8271V26.584H94.3281V35.3438H104.201V26.584H107.717V48Z" fill="#FF6F3D"/>
<path d="M119.465 48.293C116.946 48.293 114.973 47.5605 113.547 46.0957C112.131 44.6211 111.423 42.5947 111.423 40.0166C111.423 37.3701 112.083 35.29 113.401 33.7764C114.719 32.2627 116.531 31.5059 118.836 31.5059C120.974 31.5059 122.664 32.1553 123.904 33.4541C125.144 34.7529 125.764 36.54 125.764 38.8154V40.6758H114.968C115.017 42.248 115.442 43.459 116.243 44.3086C117.044 45.1484 118.171 45.5684 119.627 45.5684C120.584 45.5684 121.472 45.4805 122.293 45.3047C123.123 45.1191 124.011 44.8164 124.959 44.3965V47.1943C124.119 47.5947 123.269 47.8779 122.41 48.0439C121.55 48.21 120.569 48.293 119.465 48.293ZM118.836 34.1133C117.742 34.1133 116.863 34.46 116.199 35.1533C115.545 35.8467 115.154 36.8574 115.027 38.1855H122.38C122.361 36.8477 122.039 35.8369 121.414 35.1533C120.789 34.46 119.929 34.1133 118.836 34.1133Z" fill="#FF6F3D"/>
<path d="M132.518 48H129.075V25.207H132.518V48Z" fill="#FF6F3D"/>
<path d="M140.297 48H136.854V25.207H140.297V48Z" fill="#FF6F3D"/>
<path d="M159.004 39.8701C159.004 42.5166 158.325 44.582 156.967 46.0664C155.61 47.5508 153.72 48.293 151.298 48.293C149.785 48.293 148.447 47.9512 147.285 47.2676C146.123 46.584 145.229 45.6025 144.604 44.3232C143.979 43.0439 143.667 41.5596 143.667 39.8701C143.667 37.2432 144.34 35.1924 145.688 33.7178C147.036 32.2432 148.935 31.5059 151.386 31.5059C153.73 31.5059 155.586 32.2627 156.953 33.7764C158.32 35.2803 159.004 37.3115 159.004 39.8701ZM147.212 39.8701C147.212 43.6104 148.593 45.4805 151.357 45.4805C154.091 45.4805 155.459 43.6104 155.459 39.8701C155.459 36.1689 154.082 34.3184 151.328 34.3184C149.882 34.3184 148.833 34.7969 148.178 35.7539C147.534 36.7109 147.212 38.083 147.212 39.8701Z" fill="#FF6F3D"/>
<g filter="url(#filter0_d_125_4040)">
<path d="M81 63C81 62.4477 81.4477 62 82 62H174C174.552 62 175 62.4477 175 63V98C175 98.5523 174.552 99 174 99H82C81.4477 99 81 98.5523 81 98V63Z" fill="white"/>
</g>
<g filter="url(#filter1_d_125_4040)">
<path fill-rule="evenodd" clip-rule="evenodd" d="M174 64C174 63.4477 173.552 63 173 63H83C82.4477 63 82 63.4477 82 64V97C82 97.5523 82.4477 98 83 98H173C173.552 98 174 97.5523 174 97V64ZM82 62C81.4477 62 81 62.4477 81 63V98C81 98.5523 81.4477 99 82 99H174C174.552 99 175 98.5523 175 98V63C175 62.4477 174.552 62 174 62H82Z" fill="#CCCCCC"/>
</g>
<path fill-rule="evenodd" clip-rule="evenodd" d="M150.295 74.2944C149.904 74.685 149.901 75.3218 150.291 75.7123L155.579 81L155.579 81L150.291 86.2876C149.901 86.6781 149.904 87.315 150.295 87.7055C150.685 88.096 151.322 88.0997 151.713 87.7092L157 82.4216L162.288 87.7092C162.678 88.0997 163.315 88.096 163.706 87.7055C164.096 87.315 164.1 86.6781 163.71 86.2876L158.422 81L158.422 81L163.71 75.7123C164.1 75.3218 164.096 74.685 163.706 74.2944C163.315 73.9039 162.679 73.9002 162.288 74.2908L157 79.5784L157 79.5784L157 79.5784L151.713 74.2908C151.322 73.9002 150.685 73.9039 150.295 74.2944Z" fill="#808080"/>
<path d="M106.803 87H105.143V80.2812H97.623V87H95.9629V72.7227H97.623V78.7969H105.143V72.7227H106.803V87Z" fill="#808080"/>
<path d="M114.606 87.1953C113.024 87.1953 111.774 86.7135 110.856 85.75C109.944 84.7865 109.489 83.4486 109.489 81.7363C109.489 80.0111 109.912 78.6406 110.758 77.625C111.611 76.6094 112.754 76.1016 114.186 76.1016C115.527 76.1016 116.588 76.5443 117.37 77.4297C118.151 78.3086 118.541 79.4707 118.541 80.916V81.9414H111.168C111.201 83.1979 111.517 84.1517 112.116 84.8027C112.721 85.4538 113.571 85.7793 114.664 85.7793C115.817 85.7793 116.956 85.5384 118.082 85.0566V86.502C117.51 86.7493 116.966 86.9251 116.452 87.0293C115.944 87.14 115.329 87.1953 114.606 87.1953ZM114.166 77.459C113.307 77.459 112.62 77.7389 112.106 78.2988C111.598 78.8587 111.299 79.6335 111.207 80.623H116.803C116.803 79.6009 116.575 78.8197 116.12 78.2793C115.664 77.7324 115.013 77.459 114.166 77.459Z" fill="#808080"/>
<path d="M122.536 87H120.915V71.8047H122.536V87Z" fill="#808080"/>
<path d="M127.195 87H125.573V71.8047H127.195V87Z" fill="#808080"/>
<path d="M139.47 81.6387C139.47 83.3835 139.031 84.7474 138.152 85.7305C137.273 86.707 136.059 87.1953 134.509 87.1953C133.552 87.1953 132.703 86.9707 131.961 86.5215C131.218 86.0723 130.645 85.4277 130.242 84.5879C129.838 83.748 129.636 82.765 129.636 81.6387C129.636 79.8939 130.073 78.5365 130.945 77.5664C131.817 76.5898 133.028 76.1016 134.578 76.1016C136.075 76.1016 137.263 76.5996 138.142 77.5957C139.028 78.5918 139.47 79.9395 139.47 81.6387ZM131.316 81.6387C131.316 83.0059 131.589 84.0475 132.136 84.7637C132.683 85.4798 133.487 85.8379 134.548 85.8379C135.61 85.8379 136.414 85.4831 136.961 84.7734C137.514 84.0573 137.791 83.0124 137.791 81.6387C137.791 80.278 137.514 79.2461 136.961 78.543C136.414 77.8333 135.603 77.4785 134.529 77.4785C133.468 77.4785 132.667 77.8268 132.127 78.5234C131.586 79.2201 131.316 80.2585 131.316 81.6387Z" fill="#808080"/>
</g>
<defs>
<filter id="filter0_d_125_4040" x="66" y="54" width="124" height="67" filterUnits="userSpaceOnUse" color-interpolation-filters="sRGB">
<feFlood flood-opacity="0" result="BackgroundImageFix"/>
<feColorMatrix in="SourceAlpha" type="matrix" values="0 0 0 0 0 0 0 0 0 0 0 0 0 0 0 0 0 0 127 0" result="hardAlpha"/>
<feOffset dy="7"/>
<feGaussianBlur stdDeviation="7.5"/>
<feColorMatrix type="matrix" values="0 0 0 0 0.333333 0 0 0 0 0.333333 0 0 0 0 0.333333 0 0 0 0.1 0"/>
<feBlend mode="normal" in2="BackgroundImageFix" result="effect1_dropShadow_125_4040"/>
<feBlend mode="normal" in="SourceGraphic" in2="effect1_dropShadow_125_4040" result="shape"/>
</filter>
<filter id="filter1_d_125_4040" x="66" y="54" width="124" height="67" filterUnits="userSpaceOnUse" color-interpolation-filters="sRGB">
<feFlood flood-opacity="0" result="BackgroundImageFix"/>
<feColorMatrix in="SourceAlpha" type="matrix" values="0 0 0 0 0 0 0 0 0 0 0 0 0 0 0 0 0 0 127 0" result="hardAlpha"/>
<feOffset dy="7"/>
<feGaussianBlur stdDeviation="7.5"/>
<feColorMatrix type="matrix" values="0 0 0 0 0.333333 0 0 0 0 0.333333 0 0 0 0 0.333333 0 0 0 0.1 0"/>
<feBlend mode="normal" in2="BackgroundImageFix" result="effect1_dropShadow_125_4040"/>
<feBlend mode="normal" in="SourceGraphic" in2="effect1_dropShadow_125_4040" result="shape"/>
</filter>
<clipPath id="clip0_125_4040">
<rect width="254" height="120" rx="3" fill="white"/>
</clipPath>
</defs>
</svg>
