<svg width="64" height="64" viewBox="0 0 64 64" fill="none" xmlns="http://www.w3.org/2000/svg">
<path fill-rule="evenodd" clip-rule="evenodd" d="M45.8415 16.7834L42.0573 20.5677H54.3649V8.26003L50.6943 11.9307C45.7954 7.36488 39.2229 4.57141 31.9979 4.57141C16.8495 4.57141 4.56934 16.8516 4.56934 32H11.4265C11.4265 20.6387 20.6366 11.4286 31.9979 11.4286C37.3293 11.4286 42.187 13.4567 45.8415 16.7834Z" fill="#444444"/>
<path fill-rule="evenodd" clip-rule="evenodd" d="M18.1604 47.2165L21.9447 43.4322H9.63703V55.7399L13.3077 52.0692C18.2066 56.635 24.7791 59.4285 32.004 59.4285C47.1524 59.4285 59.4326 47.1483 59.4326 31.9999H52.5755C52.5755 43.3612 43.3653 52.5713 32.004 52.5713C26.6727 52.5713 21.815 50.5432 18.1604 47.2165Z" fill="#444444"/>
<path d="M33.9364 36.7478C33.9364 36.0282 33.7456 35.4635 33.364 35.0536C32.9824 34.6437 32.3121 34.2566 31.3532 33.8923C30.3943 33.5279 29.5088 33.159 28.6967 32.7856C27.8845 32.4122 27.1849 31.9795 26.5978 31.4877C26.0108 30.9958 25.5607 30.4265 25.2476 29.7798C24.9344 29.1331 24.7779 28.3498 24.7779 27.4298C24.7779 25.8905 25.3356 24.6245 26.4511 23.6316C27.5665 22.6297 29.0538 22.0468 30.9129 21.8828V19H33.2466V21.9375C35.0372 22.1834 36.4413 22.8711 37.4589 24.0005C38.4863 25.1209 39 26.5463 39 28.2769H34.0391C34.0391 27.3297 33.8434 26.601 33.4521 26.0909C33.0607 25.5808 32.5029 25.3258 31.7789 25.3258C31.1331 25.3258 30.6292 25.5171 30.2671 25.8996C29.9149 26.2731 29.7387 26.7923 29.7387 27.4572C29.7387 28.1312 29.9442 28.6686 30.3552 29.0694C30.7661 29.461 31.4266 29.839 32.3366 30.2034C33.2466 30.5586 34.1027 30.932 34.9051 31.3237C35.7172 31.7063 36.4168 32.1435 37.0039 32.6353C37.591 33.1272 38.0509 33.701 38.3836 34.3568C38.7162 35.0126 38.8826 35.8005 38.8826 36.7204C38.8826 38.278 38.3493 39.5486 37.2828 40.5323C36.226 41.516 34.7828 42.0899 32.953 42.2538V45H30.6194V42.2401C28.4863 42.0307 26.8474 41.3521 25.7025 40.2044C24.5675 39.0476 24 37.5265 24 35.6411H28.9462C28.9462 36.6795 29.1908 37.4719 29.68 38.0184C30.1791 38.5558 30.8836 38.8245 31.7935 38.8245C32.4589 38.8245 32.9824 38.6423 33.364 38.278C33.7456 37.9045 33.9364 37.3945 33.9364 36.7478Z" fill="#FF6F3D"/>
</svg>
