<svg width="254" height="120" viewBox="0 0 254 120" fill="none" xmlns="http://www.w3.org/2000/svg">
<g clip-path="url(#clip0_126_4319)">
<path d="M119.644 48.75H119.125C118.504 48.75 118 49.2534 118 49.875C118 50.4966 118.504 51 119.125 51H134.875C135.497 51 136 50.4966 136 49.875C136 49.2534 135.497 48.75 134.875 48.75H134.356L136.747 43.3711C137.74 41.1326 136.099 38.625 133.663 38.625H130.375V35.25H131.5C133.361 35.25 134.875 33.7355 134.875 31.875C134.875 30.0145 133.361 28.5 131.5 28.5H130.375V27.375C130.375 25.5145 128.861 24 127 24C125.14 24 123.625 25.5145 123.625 27.375V28.5H122.5C120.64 28.5 119.125 30.0145 119.125 31.875C119.125 33.7355 120.64 35.25 122.5 35.25H123.625V38.625H120.337C117.898 38.625 116.261 41.1356 117.253 43.3711L119.644 48.75Z" fill="#FF6F3D"/>
<path d="M132.625 60C134.485 60 136 58.4855 136 56.625C136 54.7645 134.485 53.25 132.625 53.25H121.375C119.515 53.25 118 54.7645 118 56.625C118 58.4855 119.515 60 121.375 60H132.625Z" fill="#FF6F3D"/>
<path d="M115.803 78.0001H138.197C138.506 78.0001 138.71 77.6786 138.578 77.3993C135.701 71.2839 134.932 66.4798 134.317 62.4721C134.28 62.2288 134.044 62.0741 133.803 62.1259C133.423 62.2076 133.029 62.2502 132.625 62.2502C122.36 62.2502 121.03 62.316 120.187 62.1305C119.95 62.0782 119.719 62.2385 119.682 62.4789C119.164 65.9118 118.442 70.9715 115.421 77.3989C115.29 77.6783 115.494 78.0001 115.803 78.0001V78.0001Z" fill="#FF6F3D"/>
<path d="M141.159 64.8498C140.739 67.6195 140.113 70.3588 139.283 73.0505C139.255 73.1403 139.258 73.2369 139.291 73.3247C139.57 74.0566 139.868 74.7816 140.186 75.4993C140.254 75.6517 140.406 75.7498 140.573 75.7498H155.523C155.815 75.7498 156.017 75.4615 155.92 75.1863C154.737 71.8287 153.874 68.3706 153.341 64.8495C153.309 64.6418 153.132 64.4887 152.922 64.4906C151.126 64.5074 143.375 64.5078 141.577 64.4908C141.367 64.4889 141.19 64.6421 141.159 64.8498V64.8498Z" fill="#808080"/>
<path d="M108.497 93.7131C108.277 93.6979 108.13 93.9271 108.228 94.1242C108.781 95.2346 109.928 96.0001 111.251 96.0001H142.751C144.073 96.0001 145.221 95.2349 145.774 94.1241C145.877 93.9174 145.71 93.689 145.481 93.7162C144.315 93.8548 109.634 93.7918 108.497 93.7131Z" fill="#FF6F3D"/>
<path d="M162.689 85.0988C162.615 85.0149 162.628 85.0331 160.75 83.625C159.346 82.5713 158.506 80.8976 158.5 79.1438C158.498 78.5151 158.003 78 157.375 78H141.383L141.384 78.0014C141.429 78.0897 141.508 78.1541 141.602 78.1865C142.942 78.6488 143.875 79.9233 143.875 81.375C143.875 83.4204 144.708 85.3066 146.068 86.6709L146.274 86.8764C146.353 86.9556 146.46 87 146.572 87H161.875C162.868 87 163.365 85.806 162.689 85.0988Z" fill="#808080"/>
<path d="M145.947 89.7703C145.435 88.9508 141.624 86.6095 141.624 81.375C141.624 80.7534 141.121 80.25 140.499 80.25H113.499C112.877 80.25 112.374 80.7534 112.374 81.375C112.374 83.6405 111.509 85.3755 111.498 85.4095C110.011 88.6806 107.76 89.2049 107.88 90.4853C107.895 90.6395 107.949 90.8154 108.044 90.9668C108.173 91.1754 108.318 91.2652 108.376 91.3116C108.772 91.5751 108.024 91.5 121.374 91.5C146.485 91.5 145.185 91.565 145.535 91.3636C145.835 91.2399 146.176 90.7633 146.119 90.2639C146.118 90.0666 145.978 89.8125 145.947 89.7703V89.7703Z" fill="#FF6F3D"/>
<path d="M141.625 62.25H152.875C154.735 62.25 156.25 60.7355 156.25 58.875C156.25 57.0145 154.735 55.5 152.875 55.5H151.302C153.591 54.1209 155.125 51.6117 155.125 48.75C155.125 44.4075 151.593 40.875 147.25 40.875C142.908 40.875 139.375 44.4075 139.375 48.75C139.375 51.6117 140.91 54.1209 143.198 55.5H141.625C139.765 55.5 138.25 57.0145 138.25 58.875C138.25 60.7355 139.765 62.25 141.625 62.25Z" fill="#808080"/>
<path d="M100.658 64.8493C100.142 68.2585 99.2958 71.7259 98.0773 75.1863C97.9804 75.4613 98.1822 75.7497 98.4738 75.7497H113.424C113.591 75.7497 113.743 75.6514 113.811 75.4987C114.128 74.7821 114.427 74.0568 114.706 73.3263C114.74 73.2383 114.742 73.1416 114.715 73.0514C113.888 70.3684 113.261 67.6294 112.84 64.8498C112.809 64.6421 112.632 64.4889 112.421 64.4909C110.624 64.5079 102.874 64.5075 101.077 64.4907C100.867 64.4888 100.689 64.6416 100.658 64.8493V64.8493Z" fill="#808080"/>
<path d="M112.617 78H96.6247C95.9967 78 95.5015 78.514 95.4997 79.1419C95.4943 80.9091 94.653 82.5712 93.2497 83.625C91.2905 85.094 91.42 84.9923 91.347 85.0622C91.2321 85.1643 91.1068 85.3484 91.0461 85.5559C90.8319 86.3029 91.3933 87 92.1247 87H107.426C107.539 87 107.647 86.9549 107.726 86.8746C108.844 85.7385 109.173 85.1411 109.552 84.2478C110.387 82.2331 109.916 81.3674 110.319 80.2499C110.66 79.2863 111.428 78.5216 112.396 78.1869C112.49 78.1541 112.571 78.0892 112.617 78V78Z" fill="#808080"/>
<path d="M105.441 89.2499C94.6117 89.2506 92.3601 89.2828 91.6325 89.2139C91.4089 89.1928 91.2531 89.4232 91.3532 89.6243C91.906 90.7345 93.053 91.4999 94.3755 91.4999H105.443C105.622 91.4999 105.759 91.3329 105.717 91.1581C105.593 90.6402 105.594 90.108 105.713 89.6022C105.755 89.4229 105.625 89.2499 105.441 89.2499V89.2499Z" fill="#808080"/>
<path d="M101.125 62.25H112.375C114.235 62.25 115.75 60.7355 115.75 58.875C115.75 57.0145 114.235 55.5 112.375 55.5H110.802C113.091 54.1209 114.625 51.6117 114.625 48.75C114.625 44.4075 111.092 40.875 106.75 40.875C102.408 40.875 98.875 44.4075 98.875 48.75C98.875 51.6117 100.409 54.1209 102.698 55.5H101.125C99.2645 55.5 97.75 57.0145 97.75 58.875C97.75 60.7355 99.2645 62.25 101.125 62.25V62.25Z" fill="#808080"/>
<path d="M148.553 89.2499C159.382 89.2506 161.634 89.2828 162.362 89.2139C162.585 89.1928 162.741 89.4232 162.641 89.6243C162.088 90.7345 160.941 91.4999 159.619 91.4999H148.551C148.372 91.4999 148.235 91.3329 148.277 91.1581C148.401 90.6402 148.4 90.108 148.281 89.6022C148.239 89.4229 148.369 89.2499 148.553 89.2499V89.2499Z" fill="#808080"/>
</g>
<defs>
<clipPath id="clip0_126_4319">
<rect width="72" height="72" fill="white" transform="translate(91 24)"/>
</clipPath>
</defs>
</svg>
