<svg width="72" height="72" viewBox="0 0 72 72" fill="none" xmlns="http://www.w3.org/2000/svg">
<path d="M28.6435 24.75H28.1246C27.5031 24.75 26.9996 25.2534 26.9996 25.875C26.9996 26.4966 27.5031 27 28.1246 27H43.8746C44.4962 27 44.9996 26.4966 44.9996 25.875C44.9996 25.2534 44.4962 24.75 43.8746 24.75H43.3557L45.7463 19.3711C46.7396 17.1326 45.0988 14.625 42.6624 14.625H39.3746V11.25H40.4996C42.3601 11.25 43.8746 9.73547 43.8746 7.875C43.8746 6.01453 42.3601 4.5 40.4996 4.5H39.3746V3.375C39.3746 1.51453 37.8601 0 35.9996 0C34.1392 0 32.6246 1.51453 32.6246 3.375V4.5H31.4996C29.6392 4.5 28.1246 6.01453 28.1246 7.875C28.1246 9.73547 29.6392 11.25 31.4996 11.25H32.6246V14.625H29.3368C26.8977 14.625 25.2609 17.1356 26.2529 19.3711L28.6435 24.75Z" fill="#FF6F3D"/>
<path d="M41.6245 36C43.485 36 44.9995 34.4855 44.9995 32.625C44.9995 30.7645 43.485 29.25 41.6245 29.25H30.3745C28.514 29.25 26.9995 30.7645 26.9995 32.625C26.9995 34.4855 28.514 36 30.3745 36H41.6245Z" fill="#FF6F3D"/>
<path d="M24.8022 54H47.1963C47.505 54 47.7092 53.6786 47.5779 53.3993C44.7005 47.2839 43.9319 42.4798 43.3165 38.4721C43.2791 38.2288 43.0433 38.0741 42.8025 38.1259C42.4227 38.2076 42.0285 38.2502 41.6244 38.2502C31.36 38.2502 30.0295 38.316 29.1866 38.1305C28.9493 38.0782 28.7181 38.2385 28.6818 38.4788C28.1633 41.9118 27.4416 46.9715 24.4209 53.3989C24.2897 53.6783 24.4933 54 24.8022 54Z" fill="#FF6F3D"/>
<path d="M50.1585 40.8498C49.7394 43.6196 49.1132 46.3588 48.2826 49.0505C48.2549 49.1404 48.2575 49.237 48.2911 49.3247C48.5703 50.0567 48.8678 50.7816 49.1864 51.4993C49.254 51.6518 49.406 51.7498 49.5728 51.7498H64.5231C64.8147 51.7498 65.0167 51.4615 64.9198 51.1863C63.7371 47.8287 62.8741 44.3706 62.3407 40.8495C62.3092 40.6418 62.132 40.4887 61.9219 40.4906C60.1256 40.5074 52.3749 40.5078 50.5774 40.4908C50.3672 40.489 50.1899 40.6421 50.1585 40.8498Z" fill="#444444"/>
<path d="M17.4958 69.713C17.2762 69.6979 17.1292 69.9271 17.2273 70.1242C17.7799 71.2346 18.9268 72 20.2496 72H51.7496C53.0719 72 54.2197 71.2349 54.7729 70.1241C54.8758 69.9174 54.7094 69.689 54.4802 69.7161C53.3143 69.8548 18.6335 69.7918 17.4958 69.713Z" fill="#FF6F3D"/>
<path d="M71.6889 61.0988C71.6151 61.0149 71.6279 61.0331 69.7497 59.625C68.3457 58.5713 67.5057 56.8976 67.4997 55.1438C67.4976 54.5151 67.0034 54 66.3747 54H50.3828L50.3835 54.0014C50.4289 54.0897 50.5084 54.1541 50.6023 54.1865C51.9421 54.6488 52.8747 55.9233 52.8747 57.375C52.8747 59.4204 53.7076 61.3066 55.0684 62.6709L55.2739 62.8764C55.3531 62.9556 55.4604 63 55.5722 63H70.8746C71.8679 63 72.3655 61.806 71.6889 61.0988Z" fill="#444444"/>
<path d="M54.9475 65.7703C54.4352 64.9508 50.6247 62.6095 50.6247 57.375C50.6247 56.7534 50.1213 56.25 49.4997 56.25H22.4997C21.8782 56.25 21.3747 56.7534 21.3747 57.375C21.3747 59.6405 20.5099 61.3755 20.4986 61.4095C19.0121 64.6806 16.7603 65.2049 16.8803 66.4853C16.8954 66.6395 16.9498 66.8154 17.0443 66.9668C17.174 67.1754 17.3187 67.2652 17.3769 67.3116C17.7725 67.5751 17.025 67.5 30.3749 67.5C55.4857 67.5 54.1853 67.565 54.5356 67.3636C54.8362 67.2399 55.1769 66.7633 55.1192 66.2639C55.1191 66.0666 54.9792 65.8125 54.9475 65.7703Z" fill="#FF6F3D"/>
<path d="M50.6245 38.25H61.8745C63.735 38.25 65.2495 36.7355 65.2495 34.875C65.2495 33.0145 63.735 31.5 61.8745 31.5H60.3011C62.59 30.1209 64.1245 27.6117 64.1245 24.75C64.1245 20.4075 60.592 16.875 56.2495 16.875C51.907 16.875 48.3745 20.4075 48.3745 24.75C48.3745 27.6117 49.909 30.1209 52.198 31.5H50.6245C48.764 31.5 47.2495 33.0145 47.2495 34.875C47.2495 36.7355 48.764 38.25 50.6245 38.25Z" fill="#444444"/>
<path d="M9.65862 40.8493C9.14281 44.2585 8.29653 47.7259 7.07802 51.1863C6.98113 51.4613 7.18292 51.7497 7.47458 51.7497H22.4244C22.5915 51.7497 22.7439 51.6514 22.8116 51.4987C23.1291 50.7821 23.4275 50.0568 23.7066 49.3263C23.7402 49.2383 23.7431 49.1416 23.7154 49.0514C22.8886 46.3684 22.2619 43.6294 21.841 40.8498C21.8095 40.6421 21.6323 40.4889 21.4222 40.4909C19.6249 40.5079 11.8743 40.5075 10.0777 40.4907C9.86731 40.4888 9.68998 40.6416 9.65862 40.8493Z" fill="#444444"/>
<path d="M21.6166 54H5.62469C4.99666 54 4.50152 54.514 4.49969 55.1419C4.49435 56.9091 3.65299 58.5712 2.24969 59.625C0.290504 61.094 0.420019 60.9923 0.347035 61.0622C0.232144 61.1643 0.106848 61.3484 0.0460975 61.5559C-0.168074 62.3029 0.393301 63 1.12469 63H16.426C16.5386 63 16.6473 62.9549 16.7263 62.8746C17.8443 61.7385 18.1725 61.1411 18.5523 60.2478C19.3872 58.2331 18.9164 57.3674 19.3188 56.2499C19.6601 55.2863 20.4279 54.5216 21.3956 54.1869C21.4904 54.1541 21.5706 54.0892 21.6166 54Z" fill="#444444"/>
<path d="M14.4398 65.2499C3.61067 65.2506 1.35913 65.2828 0.631534 65.2139C0.40794 65.1928 0.252128 65.4232 0.352253 65.6243C0.90505 66.7345 2.05199 67.4999 3.37457 67.4999H14.4418C14.6215 67.4999 14.7579 67.3329 14.716 67.1581C14.5917 66.6402 14.5935 66.108 14.7125 65.6022C14.7545 65.4229 14.624 65.2499 14.4398 65.2499Z" fill="#444444"/>
<path d="M10.1248 38.25H21.3748C23.2352 38.25 24.7498 36.7355 24.7498 34.875C24.7498 33.0145 23.2352 31.5 21.3748 31.5H19.8013C22.0903 30.1209 23.6248 27.6117 23.6248 24.75C23.6248 20.4075 20.0923 16.875 15.7498 16.875C11.4073 16.875 7.87476 20.4075 7.87476 24.75C7.87476 27.6117 9.40926 30.1209 11.6982 31.5H10.1248C8.26429 31.5 6.74976 33.0145 6.74976 34.875C6.74976 36.7355 8.26429 38.25 10.1248 38.25Z" fill="#444444"/>
<path d="M57.5541 65.2499C68.3832 65.2506 70.6347 65.2828 71.3623 65.2139C71.5859 65.1928 71.7417 65.4232 71.6416 65.6243C71.0889 66.7345 69.942 67.4999 68.6193 67.4999H57.5521C57.3724 67.4999 57.236 67.3329 57.2779 67.1581C57.4022 66.6402 57.4004 66.108 57.2814 65.6022C57.2394 65.4229 57.3699 65.2499 57.5541 65.2499Z" fill="#444444"/>
</svg>
