<svg width="254" height="120" viewBox="0 0 254 120" fill="none" xmlns="http://www.w3.org/2000/svg">
<g clip-path="url(#clip0_126_4182)">
<path d="M46 20.5H208C209.381 20.5 210.5 21.6193 210.5 23V97C210.5 98.3807 209.381 99.5 208 99.5H46C44.6193 99.5 43.5 98.3807 43.5 97V23C43.5 21.6193 44.6193 20.5 46 20.5Z" fill="white" stroke="#CCCCCC"/>
<path d="M44 36H210V29H44V36Z" fill="#F2F2F2"/>
<path d="M44 23C44 21.8954 44.8954 21 46 21H208C209.105 21 210 21.8954 210 23V29H44V23Z" fill="#40865C"/>
<path fill-rule="evenodd" clip-rule="evenodd" d="M210 53H44V52H210V53Z" fill="#CCCCCC"/>
<path fill-rule="evenodd" clip-rule="evenodd" d="M210 93H44V92H210V93Z" fill="#CCCCCC"/>
<path fill-rule="evenodd" clip-rule="evenodd" d="M210 69H44V68H210V69Z" fill="#CCCCCC"/>
<path fill-rule="evenodd" clip-rule="evenodd" d="M210 45H44V44H210V45Z" fill="#CCCCCC"/>
<path fill-rule="evenodd" clip-rule="evenodd" d="M210 85H44V84H210V85Z" fill="#CCCCCC"/>
<path fill-rule="evenodd" clip-rule="evenodd" d="M210 61H44V60H210V61Z" fill="#CCCCCC"/>
<path fill-rule="evenodd" clip-rule="evenodd" d="M210 77H44V76H210V77Z" fill="#CCCCCC"/>
<path fill-rule="evenodd" clip-rule="evenodd" d="M210 37H44V36H210V37Z" fill="#CCCCCC"/>
<path fill-rule="evenodd" clip-rule="evenodd" d="M167 100L167 36L168 36L168 100L167 100Z" fill="#CCCCCC"/>
<path fill-rule="evenodd" clip-rule="evenodd" d="M62 100L62 36L63 36L63 100L62 100Z" fill="#CCCCCC"/>
<path fill-rule="evenodd" clip-rule="evenodd" d="M125 100L125 36L126 36L126 100L125 100Z" fill="#CCCCCC"/>
<path fill-rule="evenodd" clip-rule="evenodd" d="M188 100L188 36L189 36L189 100L188 100Z" fill="#CCCCCC"/>
<path fill-rule="evenodd" clip-rule="evenodd" d="M83 100L83 36L84 36L84 100L83 100Z" fill="#CCCCCC"/>
<path fill-rule="evenodd" clip-rule="evenodd" d="M146 100L146 36L147 36L147 100L146 100Z" fill="#CCCCCC"/>
<path fill-rule="evenodd" clip-rule="evenodd" d="M104 100L104 36L105 36L105 100L104 100Z" fill="#CCCCCC"/>
<g filter="url(#filter0_d_126_4182)">
<path d="M144.508 59.8165H144.304L144.158 59.959L138.701 65.2952L138.701 65.2952L138.697 65.2993C138.361 65.6361 137.864 65.8168 137.366 65.804C136.871 65.7913 136.424 65.5895 136.151 65.2259L136.138 65.2077L136.123 65.1909L131.427 59.9817L131.278 59.8165H131.056H121.665C120.349 59.8165 119.5 58.9596 119.5 58.0295V35.414C119.5 34.4797 120.481 33.5 121.792 33.5H165.066C166.382 33.5 167.231 34.3568 167.231 35.287V57.9775C167.006 58.9901 166.081 59.8165 164.812 59.8165H144.508Z" fill="white" stroke="#808080"/>
<path d="M125 41.2703C125 40.635 125.508 39.9998 126.269 39.9998H135.533C136.168 39.9998 136.802 40.508 136.802 41.2703V50.4182C136.802 51.0534 136.294 51.6887 135.533 51.6887H126.269C125.635 51.6887 125 51.1805 125 50.4182V41.2703Z" fill="#FF6F3D"/>
<path d="M160.363 41.9998H141.637C141.255 41.9998 141 41.7998 141 41.4998C141 41.1998 141.255 40.9998 141.637 40.9998H160.363C160.745 40.9998 161 41.1998 161 41.4998C161 41.7998 160.745 41.9998 160.363 41.9998Z" fill="#808080"/>
<path d="M160.363 44.9998H141.637C141.255 44.9998 141 44.7998 141 44.4998C141 44.1998 141.255 43.9998 141.637 43.9998H160.363C160.745 43.9998 161 44.1998 161 44.4998C161 44.7998 160.745 44.9998 160.363 44.9998Z" fill="#808080"/>
<path d="M160.363 47.9998H141.637C141.255 47.9998 141 47.7998 141 47.4998C141 47.1998 141.255 46.9998 141.637 46.9998H160.363C160.745 46.9998 161 47.1998 161 47.4998C161 47.7998 160.745 47.9998 160.363 47.9998Z" fill="#808080"/>
<path d="M153.563 50.9998H141.635C141.254 50.9998 141 50.7998 141 50.4998C141 50.1998 141.254 49.9998 141.635 49.9998H153.563C153.944 49.9998 154.198 50.1998 154.198 50.4998C154.198 50.7998 153.817 50.9998 153.563 50.9998Z" fill="#808080"/>
</g>
<rect x="92" y="53" width="24" height="24" rx="3" fill="#FF6F3D"/>
<path d="M97 63H111V67H97V63Z" fill="white"/>
<path d="M106 58V72H102L102 58H106Z" fill="white"/>
</g>
<defs>
<filter id="filter0_d_126_4182" x="104" y="25" width="78.7305" height="63.3046" filterUnits="userSpaceOnUse" color-interpolation-filters="sRGB">
<feFlood flood-opacity="0" result="BackgroundImageFix"/>
<feColorMatrix in="SourceAlpha" type="matrix" values="0 0 0 0 0 0 0 0 0 0 0 0 0 0 0 0 0 0 127 0" result="hardAlpha"/>
<feOffset dy="7"/>
<feGaussianBlur stdDeviation="7.5"/>
<feColorMatrix type="matrix" values="0 0 0 0 0.333333 0 0 0 0 0.333333 0 0 0 0 0.333333 0 0 0 0.1 0"/>
<feBlend mode="normal" in2="BackgroundImageFix" result="effect1_dropShadow_126_4182"/>
<feBlend mode="normal" in="SourceGraphic" in2="effect1_dropShadow_126_4182" result="shape"/>
</filter>
<clipPath id="clip0_126_4182">
<rect width="168" height="80" fill="white" transform="translate(43 20)"/>
</clipPath>
</defs>
</svg>
