<svg width="168" height="80" viewBox="0 0 168 80" fill="none" xmlns="http://www.w3.org/2000/svg">
<g clip-path="url(#clip0)">
<rect width="168" height="80" fill="white"/>
<path d="M0.5 3C0.5 1.61929 1.61929 0.5 3 0.5H165C166.381 0.5 167.5 1.61929 167.5 3V77C167.5 78.3807 166.381 79.5 165 79.5H3C1.61929 79.5 0.5 78.3807 0.5 77V3Z" fill="white" stroke="#CCCCCC"/>
<path d="M1 16H167V9H1V16Z" fill="#F2F2F2"/>
<path d="M1 3C1 1.89543 1.89543 1 3 1H165C166.105 1 167 1.89543 167 3V9H1V3Z" fill="#40865C"/>
<path fill-rule="evenodd" clip-rule="evenodd" d="M167 33H1V32H167V33Z" fill="#CCCCCC"/>
<path fill-rule="evenodd" clip-rule="evenodd" d="M167 73H1V72H167V73Z" fill="#CCCCCC"/>
<path fill-rule="evenodd" clip-rule="evenodd" d="M167 49H1V48H167V49Z" fill="#CCCCCC"/>
<path fill-rule="evenodd" clip-rule="evenodd" d="M167 25H1V24H167V25Z" fill="#CCCCCC"/>
<path fill-rule="evenodd" clip-rule="evenodd" d="M167 65H1V64H167V65Z" fill="#CCCCCC"/>
<path fill-rule="evenodd" clip-rule="evenodd" d="M167 41H1V40H167V41Z" fill="#CCCCCC"/>
<path fill-rule="evenodd" clip-rule="evenodd" d="M167 57H1V56H167V57Z" fill="#CCCCCC"/>
<path fill-rule="evenodd" clip-rule="evenodd" d="M167 17H1V16H167V17Z" fill="#CCCCCC"/>
<path fill-rule="evenodd" clip-rule="evenodd" d="M124 80L124 16L125 16L125 80L124 80Z" fill="#CCCCCC"/>
<path fill-rule="evenodd" clip-rule="evenodd" d="M19 80L19 16L20 16L20 80L19 80Z" fill="#CCCCCC"/>
<path fill-rule="evenodd" clip-rule="evenodd" d="M82 80L82 16L83 16L83 80L82 80Z" fill="#CCCCCC"/>
<path fill-rule="evenodd" clip-rule="evenodd" d="M145 80L145 16L146 16L146 80L145 80Z" fill="#CCCCCC"/>
<path fill-rule="evenodd" clip-rule="evenodd" d="M40 80L40 16L41 16L41 80L40 80Z" fill="#CCCCCC"/>
<path fill-rule="evenodd" clip-rule="evenodd" d="M103 80L103 16L104 16L104 80L103 80Z" fill="#CCCCCC"/>
<path fill-rule="evenodd" clip-rule="evenodd" d="M61 80L61 16L62 16L62 80L61 80Z" fill="#CCCCCC"/>
<g filter="url(#filter0_d)">
<path d="M101.508 39.8165H101.304L101.158 39.959L95.7012 45.2952L95.7012 45.2952L95.697 45.2993C95.3607 45.6361 94.864 45.8168 94.3663 45.804C93.8706 45.7913 93.4239 45.5895 93.1514 45.2259L93.1378 45.2077L93.1227 45.1909L88.4272 39.9817L88.2783 39.8165H88.0558H78.665C77.3493 39.8165 76.5 38.9596 76.5 38.0295V15.414C76.5 14.4797 77.481 13.5 78.7919 13.5H122.066C123.382 13.5 124.231 14.3568 124.231 15.287V37.9775C124.006 38.9901 123.081 39.8165 121.812 39.8165H101.508Z" fill="white" stroke="#808080"/>
<path d="M82 21.2703C82 20.635 82.5076 19.9998 83.269 19.9998H92.533C93.1675 19.9998 93.802 20.508 93.802 21.2703V30.4181C93.802 31.0534 93.2944 31.6887 92.533 31.6887H83.269C82.6345 31.6887 82 31.1805 82 30.4181V21.2703Z" fill="#FF6F3D"/>
<path d="M117.363 21.9998H98.6369C98.2548 21.9998 98 21.7998 98 21.4998C98 21.1998 98.2548 20.9998 98.6369 20.9998H117.363C117.745 20.9998 118 21.1998 118 21.4998C118 21.7998 117.745 21.9998 117.363 21.9998Z" fill="#808080"/>
<path d="M117.363 24.9998H98.6369C98.2548 24.9998 98 24.7998 98 24.4998C98 24.1998 98.2548 23.9998 98.6369 23.9998H117.363C117.745 23.9998 118 24.1998 118 24.4998C118 24.7998 117.745 24.9998 117.363 24.9998Z" fill="#808080"/>
<path d="M117.363 27.9998H98.6369C98.2548 27.9998 98 27.7998 98 27.4998C98 27.1998 98.2548 26.9998 98.6369 26.9998H117.363C117.745 26.9998 118 27.1998 118 27.4998C118 27.7998 117.745 27.9998 117.363 27.9998Z" fill="#808080"/>
<path d="M110.563 30.9998H98.6345C98.2538 30.9998 98 30.7998 98 30.4998C98 30.1998 98.2538 29.9998 98.6345 29.9998H110.563C110.944 29.9998 111.198 30.1998 111.198 30.4998C111.198 30.7998 110.817 30.9998 110.563 30.9998Z" fill="#808080"/>
</g>
<rect x="49" y="33" width="24" height="24" rx="3" fill="#FF6F3D"/>
<path d="M54 43H68V47H54V43Z" fill="white"/>
<path d="M63 38V52H59L59 38H63Z" fill="white"/>
</g>
<defs>
<filter id="filter0_d" x="61" y="5" width="78.731" height="63.3046" filterUnits="userSpaceOnUse" color-interpolation-filters="sRGB">
<feFlood flood-opacity="0" result="BackgroundImageFix"/>
<feColorMatrix in="SourceAlpha" type="matrix" values="0 0 0 0 0 0 0 0 0 0 0 0 0 0 0 0 0 0 127 0"/>
<feOffset dy="7"/>
<feGaussianBlur stdDeviation="7.5"/>
<feColorMatrix type="matrix" values="0 0 0 0 0.333333 0 0 0 0 0.333333 0 0 0 0 0.333333 0 0 0 0.1 0"/>
<feBlend mode="normal" in2="BackgroundImageFix" result="effect1_dropShadow"/>
<feBlend mode="normal" in="SourceGraphic" in2="effect1_dropShadow" result="shape"/>
</filter>
<clipPath id="clip0">
<rect width="168" height="80" fill="white"/>
</clipPath>
</defs>
</svg>
