<svg width="254" height="120" viewBox="0 0 254 120" fill="none" xmlns="http://www.w3.org/2000/svg">
<rect x="60" y="38" width="152" height="45" rx="1" stroke="#AAAAAA" stroke-linecap="round"/>
<rect width="18" height="27" rx="1" transform="matrix(-1 0 0 1 60 38)" fill="#EFEFEF" stroke="#AAAAAA" stroke-linecap="round"/>
<circle cx="47.5" cy="44.5" r="1.5" fill="#AAAAAA"/>
<circle cx="47.5" cy="51.5" r="1.5" fill="#AAAAAA"/>
<circle cx="47.5" cy="58.5" r="1.5" fill="#AAAAAA"/>
<circle cx="54.5" cy="44.5" r="1.5" fill="#AAAAAA"/>
<circle cx="54.5" cy="51.5" r="1.5" fill="#AAAAAA"/>
<circle cx="54.5" cy="58.5" r="1.5" fill="#AAAAAA"/>
<path d="M89.3494 56H86.9275V46.5938H83.8259V44.5781H92.4509V46.5938H89.3494V56ZM97.3184 48.7969C96.8132 48.7969 96.4174 48.9583 96.1309 49.2812C95.8445 49.599 95.6804 50.0521 95.6388 50.6406H98.9825C98.9721 50.0521 98.8184 49.599 98.5216 49.2812C98.2247 48.9583 97.8236 48.7969 97.3184 48.7969ZM97.6544 56.1562C96.2481 56.1562 95.1492 55.7682 94.3575 54.9922C93.5658 54.2161 93.17 53.1172 93.17 51.6953C93.17 50.2318 93.5346 49.1016 94.2638 48.3047C94.9981 47.5026 96.0111 47.1016 97.3028 47.1016C98.5372 47.1016 99.4981 47.4531 100.186 48.1562C100.873 48.8594 101.217 49.8307 101.217 51.0703V52.2266H95.5841C95.6101 52.9036 95.8106 53.4323 96.1856 53.8125C96.5606 54.1927 97.0867 54.3828 97.7638 54.3828C98.2898 54.3828 98.7872 54.3281 99.2559 54.2188C99.7247 54.1094 100.214 53.9349 100.725 53.6953V55.5391C100.308 55.7474 99.8627 55.901 99.3888 56C98.9148 56.1042 98.3367 56.1562 97.6544 56.1562ZM108.928 53.4062C108.928 54.3021 108.616 54.9844 107.991 55.4531C107.371 55.9219 106.441 56.1562 105.202 56.1562C104.566 56.1562 104.024 56.112 103.577 56.0234C103.129 55.9401 102.709 55.8151 102.319 55.6484V53.6797C102.761 53.888 103.259 54.0625 103.811 54.2031C104.368 54.3438 104.858 54.4141 105.28 54.4141C106.144 54.4141 106.577 54.1641 106.577 53.6641C106.577 53.4766 106.519 53.3255 106.405 53.2109C106.29 53.0911 106.092 52.9583 105.811 52.8125C105.53 52.6615 105.155 52.487 104.686 52.2891C104.014 52.0078 103.519 51.7474 103.202 51.5078C102.889 51.2682 102.66 50.9948 102.514 50.6875C102.373 50.375 102.303 49.9922 102.303 49.5391C102.303 48.763 102.603 48.1641 103.202 47.7422C103.806 47.3151 104.66 47.1016 105.764 47.1016C106.816 47.1016 107.84 47.3307 108.834 47.7891L108.116 49.5078C107.678 49.3203 107.269 49.1667 106.889 49.0469C106.509 48.9271 106.121 48.8672 105.725 48.8672C105.022 48.8672 104.67 49.0573 104.67 49.4375C104.67 49.651 104.782 49.8359 105.006 49.9922C105.235 50.1484 105.733 50.3802 106.498 50.6875C107.181 50.9635 107.681 51.2214 107.998 51.4609C108.316 51.7005 108.551 51.9766 108.702 52.2891C108.853 52.6016 108.928 52.974 108.928 53.4062ZM114.147 54.2578C114.564 54.2578 115.064 54.1667 115.647 53.9844V55.7578C115.053 56.0234 114.324 56.1562 113.46 56.1562C112.507 56.1562 111.811 55.9167 111.374 55.4375C110.941 54.9531 110.725 54.2292 110.725 53.2656V49.0547H109.585V48.0469L110.897 47.25L111.585 45.4062H113.108V47.2656H115.553V49.0547H113.108V53.2656C113.108 53.6042 113.202 53.8542 113.389 54.0156C113.582 54.1771 113.835 54.2578 114.147 54.2578ZM125.734 56.1562C124.708 56.1562 123.903 55.7839 123.32 55.0391H123.195C123.278 55.7682 123.32 56.1901 123.32 56.3047V59.8438H120.937V47.2656H122.874L123.21 48.3984H123.32C123.877 47.5339 124.703 47.1016 125.796 47.1016C126.828 47.1016 127.635 47.5 128.218 48.2969C128.801 49.0938 129.093 50.2005 129.093 51.6172C129.093 52.5495 128.955 53.3594 128.679 54.0469C128.408 54.7344 128.02 55.2578 127.515 55.6172C127.01 55.9766 126.416 56.1562 125.734 56.1562ZM125.031 49.0078C124.442 49.0078 124.012 49.1901 123.742 49.5547C123.471 49.9141 123.33 50.5104 123.32 51.3438V51.6016C123.32 52.5391 123.458 53.2109 123.734 53.6172C124.015 54.0234 124.458 54.2266 125.062 54.2266C126.13 54.2266 126.663 53.3464 126.663 51.5859C126.663 50.7266 126.531 50.0833 126.265 49.6562C126.005 49.224 125.593 49.0078 125.031 49.0078ZM136.289 56L135.828 54.8125H135.765C135.364 55.3177 134.95 55.6693 134.523 55.8672C134.101 56.0599 133.549 56.1562 132.867 56.1562C132.028 56.1562 131.367 55.9167 130.883 55.4375C130.403 54.9583 130.164 54.276 130.164 53.3906C130.164 52.4635 130.487 51.7812 131.133 51.3438C131.784 50.901 132.763 50.6562 134.07 50.6094L135.586 50.5625V50.1797C135.586 49.2943 135.133 48.8516 134.226 48.8516C133.528 48.8516 132.708 49.0625 131.765 49.4844L130.976 47.875C131.981 47.349 133.096 47.0859 134.32 47.0859C135.492 47.0859 136.39 47.3411 137.015 47.8516C137.64 48.362 137.953 49.138 137.953 50.1797V56H136.289ZM135.586 51.9531L134.664 51.9844C133.971 52.0052 133.455 52.1302 133.117 52.3594C132.778 52.5885 132.609 52.9375 132.609 53.4062C132.609 54.0781 132.994 54.4141 133.765 54.4141C134.317 54.4141 134.758 54.2552 135.086 53.9375C135.419 53.6198 135.586 53.1979 135.586 52.6719V51.9531ZM146.188 53.4062C146.188 54.3021 145.875 54.9844 145.25 55.4531C144.63 55.9219 143.701 56.1562 142.461 56.1562C141.826 56.1562 141.284 56.112 140.836 56.0234C140.388 55.9401 139.969 55.8151 139.578 55.6484V53.6797C140.021 53.888 140.518 54.0625 141.07 54.2031C141.628 54.3438 142.117 54.4141 142.539 54.4141C143.404 54.4141 143.836 54.1641 143.836 53.6641C143.836 53.4766 143.779 53.3255 143.664 53.2109C143.549 53.0911 143.352 52.9583 143.07 52.8125C142.789 52.6615 142.414 52.487 141.945 52.2891C141.273 52.0078 140.779 51.7474 140.461 51.5078C140.148 51.2682 139.919 50.9948 139.773 50.6875C139.633 50.375 139.562 49.9922 139.562 49.5391C139.562 48.763 139.862 48.1641 140.461 47.7422C141.065 47.3151 141.919 47.1016 143.023 47.1016C144.076 47.1016 145.099 47.3307 146.094 47.7891L145.375 49.5078C144.938 49.3203 144.529 49.1667 144.148 49.0469C143.768 48.9271 143.38 48.8672 142.984 48.8672C142.281 48.8672 141.93 49.0573 141.93 49.4375C141.93 49.651 142.042 49.8359 142.266 49.9922C142.495 50.1484 142.992 50.3802 143.758 50.6875C144.44 50.9635 144.94 51.2214 145.258 51.4609C145.576 51.7005 145.81 51.9766 145.961 52.2891C146.112 52.6016 146.188 52.974 146.188 53.4062ZM151.407 54.2578C151.823 54.2578 152.323 54.1667 152.907 53.9844V55.7578C152.313 56.0234 151.584 56.1562 150.719 56.1562C149.766 56.1562 149.071 55.9167 148.633 55.4375C148.201 54.9531 147.985 54.2292 147.985 53.2656V49.0547H146.844V48.0469L148.157 47.25L148.844 45.4062H150.368V47.2656H152.813V49.0547H150.368V53.2656C150.368 53.6042 150.461 53.8542 150.649 54.0156C150.841 54.1771 151.094 54.2578 151.407 54.2578ZM157.977 48.7969C157.472 48.7969 157.076 48.9583 156.79 49.2812C156.503 49.599 156.339 50.0521 156.298 50.6406H159.641C159.631 50.0521 159.477 49.599 159.18 49.2812C158.883 48.9583 158.482 48.7969 157.977 48.7969ZM158.313 56.1562C156.907 56.1562 155.808 55.7682 155.016 54.9922C154.225 54.2161 153.829 53.1172 153.829 51.6953C153.829 50.2318 154.193 49.1016 154.923 48.3047C155.657 47.5026 156.67 47.1016 157.962 47.1016C159.196 47.1016 160.157 47.4531 160.844 48.1562C161.532 48.8594 161.876 49.8307 161.876 51.0703V52.2266H156.243C156.269 52.9036 156.469 53.4323 156.844 53.8125C157.219 54.1927 157.745 54.3828 158.423 54.3828C158.949 54.3828 159.446 54.3281 159.915 54.2188C160.383 54.1094 160.873 53.9349 161.383 53.6953V55.5391C160.967 55.7474 160.521 55.901 160.048 56C159.574 56.1042 158.995 56.1562 158.313 56.1562ZM172.158 49.0547H170.095V56H167.712V49.0547H166.4V47.9062L167.712 47.2656V46.625C167.712 45.6302 167.957 44.9036 168.447 44.4453C168.936 43.987 169.72 43.7578 170.798 43.7578C171.621 43.7578 172.353 43.8802 172.993 44.125L172.384 45.875C171.905 45.724 171.462 45.6484 171.056 45.6484C170.717 45.6484 170.473 45.75 170.322 45.9531C170.171 46.151 170.095 46.4062 170.095 46.7188V47.2656H172.158V49.0547ZM175.111 51.6172C175.111 52.4818 175.252 53.1354 175.533 53.5781C175.819 54.0208 176.283 54.2422 176.923 54.2422C177.559 54.2422 178.015 54.0234 178.291 53.5859C178.572 53.1432 178.713 52.487 178.713 51.6172C178.713 50.7526 178.572 50.1042 178.291 49.6719C178.009 49.2396 177.548 49.0234 176.908 49.0234C176.272 49.0234 175.814 49.2396 175.533 49.6719C175.252 50.099 175.111 50.7474 175.111 51.6172ZM181.15 51.6172C181.15 53.0391 180.775 54.151 180.025 54.9531C179.275 55.7552 178.231 56.1562 176.892 56.1562C176.054 56.1562 175.314 55.974 174.673 55.6094C174.033 55.2396 173.541 54.7109 173.197 54.0234C172.853 53.3359 172.681 52.5339 172.681 51.6172C172.681 50.1901 173.054 49.0807 173.798 48.2891C174.543 47.4974 175.59 47.1016 176.939 47.1016C177.778 47.1016 178.517 47.2839 179.158 47.6484C179.798 48.013 180.291 48.5365 180.634 49.2188C180.978 49.901 181.15 50.7005 181.15 51.6172ZM187.674 47.1016C187.997 47.1016 188.265 47.125 188.478 47.1719L188.299 49.4062C188.106 49.3542 187.872 49.3281 187.596 49.3281C186.835 49.3281 186.241 49.5234 185.814 49.9141C185.393 50.3047 185.182 50.8516 185.182 51.5547V56H182.799V47.2656H184.603L184.955 48.7344H185.072C185.343 48.2448 185.708 47.8516 186.166 47.5547C186.629 47.2526 187.132 47.1016 187.674 47.1016ZM100.425 77.1562C99.3986 77.1562 98.5914 76.7578 98.0028 75.9609C97.4195 75.1641 97.1278 74.0599 97.1278 72.6484C97.1278 71.2161 97.4247 70.1016 98.0184 69.3047C98.6174 68.5026 99.4403 68.1016 100.487 68.1016C101.586 68.1016 102.425 68.5286 103.003 69.3828H103.081C102.961 68.7318 102.901 68.151 102.901 67.6406V64.8438H105.292V77H103.464L103.003 75.8672H102.901C102.36 76.7266 101.534 77.1562 100.425 77.1562ZM101.261 75.2578C101.87 75.2578 102.315 75.0807 102.597 74.7266C102.883 74.3724 103.039 73.7708 103.065 72.9219V72.6641C103.065 71.7266 102.919 71.0547 102.628 70.6484C102.341 70.2422 101.873 70.0391 101.222 70.0391C100.69 70.0391 100.276 70.2656 99.9794 70.7188C99.6877 71.1667 99.5419 71.8203 99.5419 72.6797C99.5419 73.5391 99.6903 74.1849 99.9872 74.6172C100.284 75.0443 100.709 75.2578 101.261 75.2578ZM109.362 72.6172C109.362 73.4818 109.503 74.1354 109.784 74.5781C110.071 75.0208 110.534 75.2422 111.175 75.2422C111.81 75.2422 112.266 75.0234 112.542 74.5859C112.823 74.1432 112.964 73.487 112.964 72.6172C112.964 71.7526 112.823 71.1042 112.542 70.6719C112.261 70.2396 111.8 70.0234 111.159 70.0234C110.524 70.0234 110.066 70.2396 109.784 70.6719C109.503 71.099 109.362 71.7474 109.362 72.6172ZM115.402 72.6172C115.402 74.0391 115.027 75.151 114.277 75.9531C113.527 76.7552 112.482 77.1562 111.144 77.1562C110.305 77.1562 109.566 76.974 108.925 76.6094C108.284 76.2396 107.792 75.7109 107.448 75.0234C107.105 74.3359 106.933 73.5339 106.933 72.6172C106.933 71.1901 107.305 70.0807 108.05 69.2891C108.795 68.4974 109.842 68.1016 111.191 68.1016C112.029 68.1016 112.769 68.2839 113.409 68.6484C114.05 69.013 114.542 69.5365 114.886 70.2188C115.23 70.901 115.402 71.7005 115.402 72.6172ZM120.597 77.1562C117.878 77.1562 116.519 75.6641 116.519 72.6797C116.519 71.1953 116.889 70.0625 117.628 69.2812C118.368 68.4948 119.428 68.1016 120.808 68.1016C121.819 68.1016 122.725 68.2995 123.527 68.6953L122.824 70.5391C122.449 70.388 122.1 70.2656 121.777 70.1719C121.454 70.0729 121.131 70.0234 120.808 70.0234C119.569 70.0234 118.949 70.9036 118.949 72.6641C118.949 74.3724 119.569 75.2266 120.808 75.2266C121.266 75.2266 121.691 75.1667 122.082 75.0469C122.472 74.9219 122.863 74.7292 123.253 74.4688V76.5078C122.868 76.7526 122.477 76.9219 122.082 77.0156C121.691 77.1094 121.196 77.1562 120.597 77.1562ZM131.152 77L130.832 75.8828H130.707C130.452 76.2891 130.09 76.6042 129.621 76.8281C129.152 77.0469 128.618 77.1562 128.019 77.1562C126.993 77.1562 126.22 76.8828 125.699 76.3359C125.178 75.7839 124.918 74.9922 124.918 73.9609V68.2656H127.301V73.3672C127.301 73.9974 127.413 74.4714 127.637 74.7891C127.861 75.1016 128.217 75.2578 128.707 75.2578C129.374 75.2578 129.855 75.0365 130.152 74.5938C130.449 74.1458 130.597 73.4062 130.597 72.375V68.2656H132.98V77H131.152ZM142.981 77H140.598V71.8984C140.598 71.2682 140.491 70.7969 140.277 70.4844C140.069 70.1667 139.738 70.0078 139.285 70.0078C138.676 70.0078 138.233 70.2318 137.957 70.6797C137.681 71.1276 137.543 71.8646 137.543 72.8906V77H135.16V68.2656H136.981L137.301 69.3828H137.434C137.668 68.9818 138.007 68.6693 138.449 68.4453C138.892 68.2161 139.4 68.1016 139.973 68.1016C141.28 68.1016 142.166 68.5286 142.629 69.3828H142.84C143.074 68.9766 143.418 68.6615 143.871 68.4375C144.33 68.2135 144.845 68.1016 145.418 68.1016C146.408 68.1016 147.155 68.3568 147.66 68.8672C148.171 69.3724 148.426 70.1849 148.426 71.3047V77H146.035V71.8984C146.035 71.2682 145.929 70.7969 145.715 70.4844C145.507 70.1667 145.176 70.0078 144.723 70.0078C144.139 70.0078 143.702 70.2161 143.41 70.6328C143.124 71.0495 142.981 71.7109 142.981 72.6172V77ZM154.176 69.7969C153.671 69.7969 153.275 69.9583 152.989 70.2812C152.702 70.599 152.538 71.0521 152.497 71.6406H155.84C155.83 71.0521 155.676 70.599 155.379 70.2812C155.083 69.9583 154.681 69.7969 154.176 69.7969ZM154.512 77.1562C153.106 77.1562 152.007 76.7682 151.215 75.9922C150.424 75.2161 150.028 74.1172 150.028 72.6953C150.028 71.2318 150.392 70.1016 151.122 69.3047C151.856 68.5026 152.869 68.1016 154.161 68.1016C155.395 68.1016 156.356 68.4531 157.043 69.1562C157.731 69.8594 158.075 70.8307 158.075 72.0703V73.2266H152.442C152.468 73.9036 152.668 74.4323 153.043 74.8125C153.418 75.1927 153.944 75.3828 154.622 75.3828C155.148 75.3828 155.645 75.3281 156.114 75.2188C156.583 75.1094 157.072 74.9349 157.583 74.6953V76.5391C157.166 76.7474 156.721 76.901 156.247 77C155.773 77.1042 155.194 77.1562 154.512 77.1562ZM167.755 77H165.372V71.8984C165.372 71.2682 165.26 70.7969 165.036 70.4844C164.812 70.1667 164.455 70.0078 163.966 70.0078C163.299 70.0078 162.817 70.2318 162.52 70.6797C162.223 71.1224 162.075 71.8594 162.075 72.8906V77H159.692V68.2656H161.512L161.833 69.3828H161.966C162.231 68.9609 162.596 68.6432 163.059 68.4297C163.528 68.2109 164.059 68.1016 164.653 68.1016C165.669 68.1016 166.44 68.3776 166.966 68.9297C167.492 69.4766 167.755 70.2682 167.755 71.3047V77ZM173.568 75.2578C173.984 75.2578 174.484 75.1667 175.068 74.9844V76.7578C174.474 77.0234 173.745 77.1562 172.88 77.1562C171.927 77.1562 171.232 76.9167 170.794 76.4375C170.362 75.9531 170.146 75.2292 170.146 74.2656V70.0547H169.005V69.0469L170.318 68.25L171.005 66.4062H172.528V68.2656H174.974V70.0547H172.528V74.2656C172.528 74.6042 172.622 74.8542 172.81 75.0156C173.002 75.1771 173.255 75.2578 173.568 75.2578Z" fill="#FF6F3D"/>
<path d="M211.194 66.0967C211.594 65.5528 212.406 65.5528 212.806 66.0967L216.892 71.6579C217.378 72.3183 216.906 73.25 216.086 73.25H207.914C207.094 73.25 206.622 72.3183 207.108 71.6579L211.194 66.0967Z" fill="#808080"/>
<path d="M226.903 80.1246C227.447 80.5242 227.447 81.3367 226.903 81.7363L221.342 85.8227C220.682 86.308 219.75 85.8364 219.75 85.0168V76.844C219.75 76.0245 220.682 75.5529 221.342 76.0382L226.903 80.1246Z" fill="#808080"/>
<path d="M212.806 95.9033C212.406 96.4472 211.594 96.4472 211.194 95.9033L207.108 90.3421C206.622 89.6817 207.094 88.75 207.914 88.75L216.086 88.75C216.906 88.75 217.378 89.6817 216.892 90.3421L212.806 95.9033Z" fill="#808080"/>
<path d="M197.097 82.6198C196.553 82.2202 196.553 81.4077 197.097 81.0081L202.658 76.9217C203.318 76.4364 204.25 76.908 204.25 77.7275V85.9004C204.25 86.7199 203.318 87.1915 202.658 86.7062L197.097 82.6198Z" fill="#808080"/>
<rect x="210.139" y="73.186" width="4" height="16" fill="#808080"/>
<rect x="204.186" y="83.6049" width="4" height="16" transform="rotate(-90 204.186 83.6049)" fill="#808080"/>
</svg>
