<svg width="254" height="120" viewBox="0 0 254 120" fill="none" xmlns="http://www.w3.org/2000/svg">
<rect x="60" y="38" width="152" height="45" rx="1" stroke="#AAAAAA" stroke-linecap="round"/>
<rect width="18" height="27" rx="1" transform="matrix(-1 0 0 1 60 38)" fill="#EFEFEF" stroke="#AAAAAA" stroke-linecap="round"/>
<circle cx="47.5" cy="44.5" r="1.5" fill="#AAAAAA"/>
<circle cx="47.5" cy="51.5" r="1.5" fill="#AAAAAA"/>
<circle cx="47.5" cy="58.5" r="1.5" fill="#AAAAAA"/>
<circle cx="54.5" cy="44.5" r="1.5" fill="#AAAAAA"/>
<circle cx="54.5" cy="51.5" r="1.5" fill="#AAAAAA"/>
<circle cx="54.5" cy="58.5" r="1.5" fill="#AAAAAA"/>
<path d="M90.3613 67H87.6034L86.0566 61C85.9993 60.7865 85.9003 60.3464 85.7597 59.6797C85.6243 59.0078 85.5461 58.5573 85.5253 58.3281C85.4941 58.6094 85.4159 59.0625 85.2909 59.6875C85.1659 60.3073 85.0696 60.75 85.0019 61.0156L83.4628 67H80.7128L77.7988 55.5781H80.1816L81.6425 61.8125C81.8977 62.9635 82.0826 63.9609 82.1972 64.8047C82.2284 64.5078 82.2988 64.0495 82.4081 63.4297C82.5227 62.8047 82.6295 62.3203 82.7284 61.9766L84.3925 55.5781H86.6816L88.3456 61.9766C88.4185 62.263 88.5097 62.7005 88.6191 63.2891C88.7284 63.8776 88.8118 64.3828 88.8691 64.8047C88.9211 64.3984 89.0045 63.8932 89.1191 63.2891C89.2336 62.6797 89.3378 62.1875 89.4316 61.8125L90.8847 55.5781H93.2675L90.3613 67ZM96.0959 62.6172C96.0959 63.4818 96.2366 64.1354 96.5178 64.5781C96.8043 65.0208 97.2678 65.2422 97.9084 65.2422C98.5439 65.2422 98.9996 65.0234 99.2756 64.5859C99.5569 64.1432 99.6975 63.487 99.6975 62.6172C99.6975 61.7526 99.5569 61.1042 99.2756 60.6719C98.9944 60.2396 98.5334 60.0234 97.8928 60.0234C97.2574 60.0234 96.7991 60.2396 96.5178 60.6719C96.2366 61.099 96.0959 61.7474 96.0959 62.6172ZM102.135 62.6172C102.135 64.0391 101.76 65.151 101.01 65.9531C100.26 66.7552 99.2157 67.1562 97.8772 67.1562C97.0386 67.1562 96.2991 66.974 95.6584 66.6094C95.0178 66.2396 94.5256 65.7109 94.1819 65.0234C93.8381 64.3359 93.6663 63.5339 93.6663 62.6172C93.6663 61.1901 94.0386 60.0807 94.7834 59.2891C95.5282 58.4974 96.5751 58.1016 97.9241 58.1016C98.7626 58.1016 99.5022 58.2839 100.143 58.6484C100.783 59.013 101.276 59.5365 101.619 60.2188C101.963 60.901 102.135 61.7005 102.135 62.6172ZM108.659 58.1016C108.982 58.1016 109.25 58.125 109.463 58.1719L109.284 60.4062C109.091 60.3542 108.857 60.3281 108.581 60.3281C107.82 60.3281 107.226 60.5234 106.799 60.9141C106.378 61.3047 106.167 61.8516 106.167 62.5547V67H103.784V58.2656H105.588L105.94 59.7344H106.057C106.328 59.2448 106.693 58.8516 107.151 58.5547C107.614 58.2526 108.117 58.1016 108.659 58.1016ZM113.018 62.25L114.058 60.9219L116.503 58.2656H119.19L115.722 62.0547L119.401 67H116.651L114.136 63.4609L113.112 64.2812V67H110.729V54.8438H113.112V60.2656L112.987 62.25H113.018ZM131.347 67L130.675 63.9453L129.769 60.0859H129.714L128.121 67H125.558L123.074 58.2656H125.449L126.457 62.1328C126.618 62.8255 126.782 63.7812 126.949 65H126.996C127.016 64.6042 127.108 63.9766 127.269 63.1172L127.394 62.4531L128.472 58.2656H131.097L132.121 62.4531C132.141 62.5677 132.173 62.737 132.214 62.9609C132.261 63.1849 132.306 63.4245 132.347 63.6797C132.389 63.9297 132.425 64.1771 132.457 64.4219C132.493 64.6615 132.514 64.8542 132.519 65H132.566C132.613 64.625 132.696 64.112 132.816 63.4609C132.936 62.8047 133.022 62.362 133.074 62.1328L134.121 58.2656H136.457L133.941 67H131.347ZM137.449 56.0078C137.449 55.2318 137.881 54.8438 138.746 54.8438C139.611 54.8438 140.043 55.2318 140.043 56.0078C140.043 56.3776 139.933 56.6667 139.715 56.875C139.501 57.0781 139.178 57.1797 138.746 57.1797C137.881 57.1797 137.449 56.7891 137.449 56.0078ZM139.933 67H137.551V58.2656H139.933V67ZM145.801 65.2578C146.218 65.2578 146.718 65.1667 147.301 64.9844V66.7578C146.707 67.0234 145.978 67.1562 145.113 67.1562C144.16 67.1562 143.465 66.9167 143.027 66.4375C142.595 65.9531 142.379 65.2292 142.379 64.2656V60.0547H141.238V59.0469L142.551 58.25L143.238 56.4062H144.762V58.2656H147.207V60.0547H144.762V64.2656C144.762 64.6042 144.856 64.8542 145.043 65.0156C145.236 65.1771 145.488 65.2578 145.801 65.2578ZM156.817 67H154.434V61.8984C154.434 60.638 153.965 60.0078 153.028 60.0078C152.361 60.0078 151.879 60.2344 151.583 60.6875C151.286 61.1406 151.137 61.875 151.137 62.8906V67H148.754V54.8438H151.137V57.3203C151.137 57.513 151.119 57.9661 151.083 58.6797L151.028 59.3828H151.153C151.684 58.5286 152.528 58.1016 153.684 58.1016C154.71 58.1016 155.489 58.3776 156.02 58.9297C156.551 59.4818 156.817 60.2734 156.817 61.3047V67ZM166.466 65.2578C166.883 65.2578 167.383 65.1667 167.966 64.9844V66.7578C167.372 67.0234 166.643 67.1562 165.778 67.1562C164.825 67.1562 164.13 66.9167 163.693 66.4375C163.26 65.9531 163.044 65.2292 163.044 64.2656V60.0547H161.903V59.0469L163.216 58.25L163.903 56.4062H165.427V58.2656H167.872V60.0547H165.427V64.2656C165.427 64.6042 165.521 64.8542 165.708 65.0156C165.901 65.1771 166.153 65.2578 166.466 65.2578ZM174.966 67L174.505 65.8125H174.443C174.042 66.3177 173.628 66.6693 173.201 66.8672C172.779 67.0599 172.227 67.1562 171.544 67.1562C170.706 67.1562 170.044 66.9167 169.56 66.4375C169.081 65.9583 168.841 65.276 168.841 64.3906C168.841 63.4635 169.164 62.7812 169.81 62.3438C170.461 61.901 171.44 61.6562 172.748 61.6094L174.263 61.5625V61.1797C174.263 60.2943 173.81 59.8516 172.904 59.8516C172.206 59.8516 171.386 60.0625 170.443 60.4844L169.654 58.875C170.659 58.349 171.774 58.0859 172.998 58.0859C174.169 58.0859 175.068 58.3411 175.693 58.8516C176.318 59.362 176.63 60.138 176.63 61.1797V67H174.966ZM174.263 62.9531L173.341 62.9844C172.649 63.0052 172.133 63.1302 171.794 63.3594C171.456 63.5885 171.287 63.9375 171.287 64.4062C171.287 65.0781 171.672 65.4141 172.443 65.4141C172.995 65.4141 173.435 65.2552 173.763 64.9375C174.096 64.6198 174.263 64.1979 174.263 63.6719V62.9531ZM186.373 58.2656V59.4766L185.006 59.8281C185.256 60.2188 185.381 60.6562 185.381 61.1406C185.381 62.0781 185.053 62.8099 184.396 63.3359C183.745 63.8568 182.839 64.1172 181.678 64.1172L181.248 64.0938L180.896 64.0547C180.651 64.2422 180.529 64.4505 180.529 64.6797C180.529 65.0234 180.967 65.1953 181.842 65.1953H183.326C184.284 65.1953 185.013 65.401 185.513 65.8125C186.019 66.224 186.271 66.8281 186.271 67.625C186.271 68.6458 185.844 69.4375 184.99 70C184.141 70.5625 182.92 70.8438 181.326 70.8438C180.107 70.8438 179.175 70.6302 178.529 70.2031C177.888 69.7812 177.568 69.1875 177.568 68.4219C177.568 67.8958 177.732 67.4557 178.06 67.1016C178.388 66.7474 178.87 66.4948 179.506 66.3438C179.261 66.2396 179.047 66.0703 178.865 65.8359C178.683 65.5964 178.592 65.3438 178.592 65.0781C178.592 64.7448 178.688 64.4688 178.881 64.25C179.073 64.026 179.352 63.8073 179.717 63.5938C179.258 63.3958 178.894 63.0781 178.623 62.6406C178.357 62.2031 178.224 61.6875 178.224 61.0938C178.224 60.1406 178.534 59.4036 179.154 58.8828C179.774 58.362 180.659 58.1016 181.81 58.1016C182.055 58.1016 182.344 58.125 182.678 58.1719C183.016 58.2135 183.232 58.2448 183.326 58.2656H186.373ZM179.631 68.2344C179.631 68.5625 179.787 68.8203 180.099 69.0078C180.417 69.1953 180.86 69.2891 181.428 69.2891C182.282 69.2891 182.951 69.1719 183.435 68.9375C183.92 68.7031 184.162 68.3828 184.162 67.9766C184.162 67.6484 184.019 67.4219 183.732 67.2969C183.446 67.1719 183.003 67.1094 182.404 67.1094H181.17C180.732 67.1094 180.365 67.2109 180.068 67.4141C179.776 67.6224 179.631 67.8958 179.631 68.2344ZM180.498 61.125C180.498 61.599 180.605 61.974 180.818 62.25C181.037 62.526 181.368 62.6641 181.81 62.6641C182.258 62.6641 182.586 62.526 182.795 62.25C183.003 61.974 183.107 61.599 183.107 61.125C183.107 60.0729 182.675 59.5469 181.81 59.5469C180.935 59.5469 180.498 60.0729 180.498 61.125ZM193.592 64.4062C193.592 65.3021 193.279 65.9844 192.654 66.4531C192.035 66.9219 191.105 67.1562 189.865 67.1562C189.23 67.1562 188.688 67.112 188.24 67.0234C187.792 66.9401 187.373 66.8151 186.982 66.6484V64.6797C187.425 64.888 187.923 65.0625 188.475 65.2031C189.032 65.3438 189.522 65.4141 189.943 65.4141C190.808 65.4141 191.24 65.1641 191.24 64.6641C191.24 64.4766 191.183 64.3255 191.068 64.2109C190.954 64.0911 190.756 63.9583 190.475 63.8125C190.193 63.6615 189.818 63.487 189.35 63.2891C188.678 63.0078 188.183 62.7474 187.865 62.5078C187.553 62.2682 187.324 61.9948 187.178 61.6875C187.037 61.375 186.967 60.9922 186.967 60.5391C186.967 59.763 187.266 59.1641 187.865 58.7422C188.469 58.3151 189.324 58.1016 190.428 58.1016C191.48 58.1016 192.503 58.3307 193.498 58.7891L192.779 60.5078C192.342 60.3203 191.933 60.1667 191.553 60.0469C191.173 59.9271 190.785 59.8672 190.389 59.8672C189.686 59.8672 189.334 60.0573 189.334 60.4375C189.334 60.651 189.446 60.8359 189.67 60.9922C189.899 61.1484 190.397 61.3802 191.162 61.6875C191.844 61.9635 192.344 62.2214 192.662 62.4609C192.98 62.7005 193.214 62.9766 193.365 63.2891C193.516 63.6016 193.592 63.974 193.592 64.4062Z" fill="#FF6F3D"/>
<path fill-rule="evenodd" clip-rule="evenodd" d="M183.722 78.6533C183.16 78.1185 183.392 77.1941 184.141 76.9893L201.828 72.1517C202.015 72.1007 202.199 72.1039 202.366 72.1488L202.366 72.1487L226.61 78.2499C227.146 78.3847 227.471 78.9281 227.336 79.4637L222.943 96.9194C222.809 97.455 222.265 97.7799 221.73 97.6452L197.485 91.544L197.485 91.5439C197.316 91.504 197.153 91.4199 197.013 91.2867L183.722 78.6533ZM192 82C193.104 82 194 81.1046 194 80C194 78.8954 193.104 78 192 78C190.895 78 190 78.8954 190 80C190 81.1046 190.895 82 192 82Z" fill="#808080"/>
</svg>
