<svg width="172" height="47" viewBox="0 0 172 47" fill="none" xmlns="http://www.w3.org/2000/svg">
<rect x="19" y="1" width="152" height="45" rx="1" stroke="#AAAAAA" stroke-linecap="round"/>
<rect width="18" height="27" rx="1" transform="matrix(-1 0 0 1 19 1)" fill="#EFEFEF" stroke="#AAAAAA" stroke-linecap="round"/>
<circle cx="6.5" cy="7.5" r="1.5" fill="#AAAAAA"/>
<circle cx="6.5" cy="14.5" r="1.5" fill="#AAAAAA"/>
<circle cx="6.5" cy="21.5" r="1.5" fill="#AAAAAA"/>
<circle cx="13.5" cy="7.5" r="1.5" fill="#AAAAAA"/>
<circle cx="13.5" cy="14.5" r="1.5" fill="#AAAAAA"/>
<circle cx="13.5" cy="21.5" r="1.5" fill="#AAAAAA"/>
<path d="M36.5484 20.4297C35.637 20.4297 34.9313 20.7734 34.4313 21.4609C33.9313 22.1432 33.6813 23.0964 33.6813 24.3203C33.6813 26.8672 34.637 28.1406 36.5484 28.1406C37.3505 28.1406 38.3219 27.9401 39.4625 27.5391V29.5703C38.525 29.9609 37.4781 30.1562 36.3219 30.1562C34.6604 30.1562 33.3896 29.6536 32.5094 28.6484C31.6292 27.638 31.1891 26.1901 31.1891 24.3047C31.1891 23.1172 31.4052 22.0781 31.8375 21.1875C32.2698 20.2917 32.8896 19.6068 33.6969 19.1328C34.5094 18.6536 35.4599 18.4141 36.5484 18.4141C37.6578 18.4141 38.7724 18.6823 39.8922 19.2188L39.1109 21.1875C38.6839 20.9844 38.2542 20.8073 37.8219 20.6562C37.3896 20.5052 36.9651 20.4297 36.5484 20.4297ZM43.2909 25.6172C43.2909 26.4818 43.4316 27.1354 43.7128 27.5781C43.9993 28.0208 44.4628 28.2422 45.1034 28.2422C45.7389 28.2422 46.1946 28.0234 46.4706 27.5859C46.7519 27.1432 46.8925 26.487 46.8925 25.6172C46.8925 24.7526 46.7519 24.1042 46.4706 23.6719C46.1894 23.2396 45.7284 23.0234 45.0878 23.0234C44.4524 23.0234 43.9941 23.2396 43.7128 23.6719C43.4316 24.099 43.2909 24.7474 43.2909 25.6172ZM49.33 25.6172C49.33 27.0391 48.955 28.151 48.205 28.9531C47.455 29.7552 46.4107 30.1562 45.0722 30.1562C44.2336 30.1562 43.4941 29.974 42.8534 29.6094C42.2128 29.2396 41.7206 28.7109 41.3769 28.0234C41.0331 27.3359 40.8613 26.5339 40.8613 25.6172C40.8613 24.1901 41.2336 23.0807 41.9784 22.2891C42.7232 21.4974 43.7701 21.1016 45.1191 21.1016C45.9576 21.1016 46.6972 21.2839 47.3378 21.6484C47.9784 22.013 48.4706 22.5365 48.8144 23.2188C49.1581 23.901 49.33 24.7005 49.33 25.6172ZM59.0413 30H56.6584V24.8984C56.6584 24.2682 56.5465 23.7969 56.3225 23.4844C56.0985 23.1667 55.7418 23.0078 55.2522 23.0078C54.5855 23.0078 54.1038 23.2318 53.8069 23.6797C53.51 24.1224 53.3616 24.8594 53.3616 25.8906V30H50.9788V21.2656H52.7991L53.1194 22.3828H53.2522C53.5178 21.9609 53.8824 21.6432 54.3459 21.4297C54.8147 21.2109 55.3459 21.1016 55.9397 21.1016C56.9553 21.1016 57.7261 21.3776 58.2522 21.9297C58.7782 22.4766 59.0413 23.2682 59.0413 24.3047V30ZM64.8541 28.2578C65.2707 28.2578 65.7707 28.1667 66.3541 27.9844V29.7578C65.7603 30.0234 65.0311 30.1562 64.1666 30.1562C63.2134 30.1562 62.5181 29.9167 62.0806 29.4375C61.6483 28.9531 61.4322 28.2292 61.4322 27.2656V23.0547H60.2916V22.0469L61.6041 21.25L62.2916 19.4062H63.815V21.2656H66.2603V23.0547H63.815V27.2656C63.815 27.6042 63.9088 27.8542 64.0963 28.0156C64.289 28.1771 64.5416 28.2578 64.8541 28.2578ZM71.4247 22.7969C70.9195 22.7969 70.5236 22.9583 70.2372 23.2812C69.9507 23.599 69.7867 24.0521 69.745 24.6406H73.0888C73.0783 24.0521 72.9247 23.599 72.6278 23.2812C72.3309 22.9583 71.9299 22.7969 71.4247 22.7969ZM71.7606 30.1562C70.3544 30.1562 69.2554 29.7682 68.4638 28.9922C67.6721 28.2161 67.2763 27.1172 67.2763 25.6953C67.2763 24.2318 67.6408 23.1016 68.37 22.3047C69.1044 21.5026 70.1174 21.1016 71.4091 21.1016C72.6434 21.1016 73.6044 21.4531 74.2919 22.1562C74.9794 22.8594 75.3231 23.8307 75.3231 25.0703V26.2266H69.6903C69.7164 26.9036 69.9169 27.4323 70.2919 27.8125C70.6669 28.1927 71.1929 28.3828 71.87 28.3828C72.396 28.3828 72.8934 28.3281 73.3622 28.2188C73.8309 28.1094 74.3205 27.9349 74.8309 27.6953V29.5391C74.4143 29.7474 73.969 29.901 73.495 30C73.021 30.1042 72.4429 30.1562 71.7606 30.1562ZM85.0031 30H82.6203V24.8984C82.6203 24.2682 82.5083 23.7969 82.2844 23.4844C82.0604 23.1667 81.7036 23.0078 81.2141 23.0078C80.5474 23.0078 80.0656 23.2318 79.7688 23.6797C79.4719 24.1224 79.3234 24.8594 79.3234 25.8906V30H76.9406V21.2656H78.7609L79.0813 22.3828H79.2141C79.4797 21.9609 79.8443 21.6432 80.3078 21.4297C80.7766 21.2109 81.3078 21.1016 81.9016 21.1016C82.9172 21.1016 83.688 21.3776 84.2141 21.9297C84.7401 22.4766 85.0031 23.2682 85.0031 24.3047V30ZM90.8159 28.2578C91.2326 28.2578 91.7326 28.1667 92.3159 27.9844V29.7578C91.7222 30.0234 90.993 30.1562 90.1284 30.1562C89.1753 30.1562 88.48 29.9167 88.0425 29.4375C87.6102 28.9531 87.3941 28.2292 87.3941 27.2656V23.0547H86.2534V22.0469L87.5659 21.25L88.2534 19.4062H89.7769V21.2656H92.2222V23.0547H89.7769V27.2656C89.7769 27.6042 89.8706 27.8542 90.0581 28.0156C90.2508 28.1771 90.5034 28.2578 90.8159 28.2578ZM101.153 30.1562C98.4338 30.1562 97.0744 28.6641 97.0744 25.6797C97.0744 24.1953 97.4442 23.0625 98.1838 22.2812C98.9233 21.4948 99.9832 21.1016 101.363 21.1016C102.374 21.1016 103.28 21.2995 104.082 21.6953L103.379 23.5391C103.004 23.388 102.655 23.2656 102.332 23.1719C102.009 23.0729 101.686 23.0234 101.363 23.0234C100.124 23.0234 99.5041 23.9036 99.5041 25.6641C99.5041 27.3724 100.124 28.2266 101.363 28.2266C101.822 28.2266 102.246 28.1667 102.637 28.0469C103.028 27.9219 103.418 27.7292 103.809 27.4688V29.5078C103.423 29.7526 103.033 29.9219 102.637 30.0156C102.246 30.1094 101.751 30.1562 101.153 30.1562ZM107.418 25.6172C107.418 26.4818 107.559 27.1354 107.84 27.5781C108.127 28.0208 108.59 28.2422 109.231 28.2422C109.866 28.2422 110.322 28.0234 110.598 27.5859C110.879 27.1432 111.02 26.487 111.02 25.6172C111.02 24.7526 110.879 24.1042 110.598 23.6719C110.317 23.2396 109.856 23.0234 109.215 23.0234C108.58 23.0234 108.122 23.2396 107.84 23.6719C107.559 24.099 107.418 24.7474 107.418 25.6172ZM113.458 25.6172C113.458 27.0391 113.083 28.151 112.333 28.9531C111.583 29.7552 110.538 30.1562 109.2 30.1562C108.361 30.1562 107.622 29.974 106.981 29.6094C106.34 29.2396 105.848 28.7109 105.504 28.0234C105.161 27.3359 104.989 26.5339 104.989 25.6172C104.989 24.1901 105.361 23.0807 106.106 22.2891C106.851 21.4974 107.898 21.1016 109.247 21.1016C110.085 21.1016 110.825 21.2839 111.465 21.6484C112.106 22.013 112.598 22.5365 112.942 23.2188C113.286 23.901 113.458 24.7005 113.458 25.6172ZM123.169 30H120.786V24.8984C120.786 24.2682 120.674 23.7969 120.45 23.4844C120.226 23.1667 119.869 23.0078 119.38 23.0078C118.713 23.0078 118.231 23.2318 117.934 23.6797C117.638 24.1224 117.489 24.8594 117.489 25.8906V30H115.106V21.2656H116.927L117.247 22.3828H117.38C117.645 21.9609 118.01 21.6432 118.473 21.4297C118.942 21.2109 119.473 21.1016 120.067 21.1016C121.083 21.1016 121.854 21.3776 122.38 21.9297C122.906 22.4766 123.169 23.2682 123.169 24.3047V30ZM128.982 28.2578C129.398 28.2578 129.898 28.1667 130.482 27.9844V29.7578C129.888 30.0234 129.159 30.1562 128.294 30.1562C127.341 30.1562 126.646 29.9167 126.208 29.4375C125.776 28.9531 125.56 28.2292 125.56 27.2656V23.0547H124.419V22.0469L125.732 21.25L126.419 19.4062H127.943V21.2656H130.388V23.0547H127.943V27.2656C127.943 27.6042 128.036 27.8542 128.224 28.0156C128.416 28.1771 128.669 28.2578 128.982 28.2578ZM136.81 21.1016C137.133 21.1016 137.401 21.125 137.615 21.1719L137.435 23.4062C137.242 23.3542 137.008 23.3281 136.732 23.3281C135.971 23.3281 135.378 23.5234 134.951 23.9141C134.529 24.3047 134.318 24.8516 134.318 25.5547V30H131.935V21.2656H133.74L134.091 22.7344H134.208C134.479 22.2448 134.844 21.8516 135.302 21.5547C135.766 21.2526 136.268 21.1016 136.81 21.1016ZM140.779 25.6172C140.779 26.4818 140.92 27.1354 141.201 27.5781C141.487 28.0208 141.951 28.2422 142.592 28.2422C143.227 28.2422 143.683 28.0234 143.959 27.5859C144.24 27.1432 144.381 26.487 144.381 25.6172C144.381 24.7526 144.24 24.1042 143.959 23.6719C143.677 23.2396 143.217 23.0234 142.576 23.0234C141.941 23.0234 141.482 23.2396 141.201 23.6719C140.92 24.099 140.779 24.7474 140.779 25.6172ZM146.818 25.6172C146.818 27.0391 146.443 28.151 145.693 28.9531C144.943 29.7552 143.899 30.1562 142.56 30.1562C141.722 30.1562 140.982 29.974 140.342 29.6094C139.701 29.2396 139.209 28.7109 138.865 28.0234C138.521 27.3359 138.349 26.5339 138.349 25.6172C138.349 24.1901 138.722 23.0807 139.467 22.2891C140.211 21.4974 141.258 21.1016 142.607 21.1016C143.446 21.1016 144.185 21.2839 144.826 21.6484C145.467 22.013 145.959 22.5365 146.302 23.2188C146.646 23.901 146.818 24.7005 146.818 25.6172ZM150.85 30H148.467V17.8438H150.85V30ZM159.131 27.4062C159.131 28.3021 158.819 28.9844 158.194 29.4531C157.574 29.9219 156.644 30.1562 155.405 30.1562C154.769 30.1562 154.228 30.112 153.78 30.0234C153.332 29.9401 152.913 29.8151 152.522 29.6484V27.6797C152.965 27.888 153.462 28.0625 154.014 28.2031C154.571 28.3438 155.061 28.4141 155.483 28.4141C156.347 28.4141 156.78 28.1641 156.78 27.6641C156.78 27.4766 156.722 27.3255 156.608 27.2109C156.493 27.0911 156.295 26.9583 156.014 26.8125C155.733 26.6615 155.358 26.487 154.889 26.2891C154.217 26.0078 153.722 25.7474 153.405 25.5078C153.092 25.2682 152.863 24.9948 152.717 24.6875C152.577 24.375 152.506 23.9922 152.506 23.5391C152.506 22.763 152.806 22.1641 153.405 21.7422C154.009 21.3151 154.863 21.1016 155.967 21.1016C157.019 21.1016 158.043 21.3307 159.038 21.7891L158.319 23.5078C157.881 23.3203 157.472 23.1667 157.092 23.0469C156.712 22.9271 156.324 22.8672 155.928 22.8672C155.225 22.8672 154.873 23.0573 154.873 23.4375C154.873 23.651 154.985 23.8359 155.209 23.9922C155.439 24.1484 155.936 24.3802 156.702 24.6875C157.384 24.9635 157.884 25.2214 158.202 25.4609C158.519 25.7005 158.754 25.9766 158.905 26.2891C159.056 26.6016 159.131 26.974 159.131 27.4062Z" fill="#FF6F3D"/>
</svg>
