<svg width="254" height="120" viewBox="0 0 254 120" fill="none" xmlns="http://www.w3.org/2000/svg">
<rect x="60" y="38" width="152" height="45" rx="1" stroke="#AAAAAA" stroke-linecap="round"/>
<rect width="18" height="27" rx="1" transform="matrix(-1 0 0 1 60 38)" fill="#EFEFEF" stroke="#AAAAAA" stroke-linecap="round"/>
<circle cx="47.5" cy="44.5" r="1.5" fill="#AAAAAA"/>
<circle cx="47.5" cy="51.5" r="1.5" fill="#AAAAAA"/>
<circle cx="47.5" cy="58.5" r="1.5" fill="#AAAAAA"/>
<circle cx="54.5" cy="44.5" r="1.5" fill="#AAAAAA"/>
<circle cx="54.5" cy="51.5" r="1.5" fill="#AAAAAA"/>
<circle cx="54.5" cy="58.5" r="1.5" fill="#AAAAAA"/>
<path d="M77.5484 57.4297C76.637 57.4297 75.9313 57.7734 75.4313 58.4609C74.9313 59.1432 74.6813 60.0964 74.6813 61.3203C74.6813 63.8672 75.637 65.1406 77.5484 65.1406C78.3505 65.1406 79.3219 64.9401 80.4625 64.5391V66.5703C79.525 66.9609 78.4781 67.1562 77.3219 67.1562C75.6604 67.1562 74.3896 66.6536 73.5094 65.6484C72.6292 64.638 72.1891 63.1901 72.1891 61.3047C72.1891 60.1172 72.4052 59.0781 72.8375 58.1875C73.2698 57.2917 73.8896 56.6068 74.6969 56.1328C75.5094 55.6536 76.4599 55.4141 77.5484 55.4141C78.6578 55.4141 79.7724 55.6823 80.8922 56.2188L80.1109 58.1875C79.6839 57.9844 79.2542 57.8073 78.8219 57.6562C78.3896 57.5052 77.9651 57.4297 77.5484 57.4297ZM84.2909 62.6172C84.2909 63.4818 84.4316 64.1354 84.7128 64.5781C84.9993 65.0208 85.4628 65.2422 86.1034 65.2422C86.7389 65.2422 87.1946 65.0234 87.4706 64.5859C87.7519 64.1432 87.8925 63.487 87.8925 62.6172C87.8925 61.7526 87.7519 61.1042 87.4706 60.6719C87.1894 60.2396 86.7284 60.0234 86.0878 60.0234C85.4524 60.0234 84.9941 60.2396 84.7128 60.6719C84.4316 61.099 84.2909 61.7474 84.2909 62.6172ZM90.33 62.6172C90.33 64.0391 89.955 65.151 89.205 65.9531C88.455 66.7552 87.4107 67.1562 86.0722 67.1562C85.2336 67.1562 84.4941 66.974 83.8534 66.6094C83.2128 66.2396 82.7206 65.7109 82.3769 65.0234C82.0331 64.3359 81.8613 63.5339 81.8613 62.6172C81.8613 61.1901 82.2336 60.0807 82.9784 59.2891C83.7232 58.4974 84.7701 58.1016 86.1191 58.1016C86.9576 58.1016 87.6972 58.2839 88.3378 58.6484C88.9784 59.013 89.4706 59.5365 89.8144 60.2188C90.1581 60.901 90.33 61.7005 90.33 62.6172ZM100.041 67H97.6584V61.8984C97.6584 61.2682 97.5465 60.7969 97.3225 60.4844C97.0985 60.1667 96.7418 60.0078 96.2522 60.0078C95.5855 60.0078 95.1038 60.2318 94.8069 60.6797C94.51 61.1224 94.3616 61.8594 94.3616 62.8906V67H91.9788V58.2656H93.7991L94.1194 59.3828H94.2522C94.5178 58.9609 94.8824 58.6432 95.3459 58.4297C95.8147 58.2109 96.3459 58.1016 96.9397 58.1016C97.9553 58.1016 98.7261 58.3776 99.2522 58.9297C99.7782 59.4766 100.041 60.2682 100.041 61.3047V67ZM105.854 65.2578C106.271 65.2578 106.771 65.1667 107.354 64.9844V66.7578C106.76 67.0234 106.031 67.1562 105.167 67.1562C104.213 67.1562 103.518 66.9167 103.081 66.4375C102.648 65.9531 102.432 65.2292 102.432 64.2656V60.0547H101.292V59.0469L102.604 58.25L103.292 56.4062H104.815V58.2656H107.26V60.0547H104.815V64.2656C104.815 64.6042 104.909 64.8542 105.096 65.0156C105.289 65.1771 105.542 65.2578 105.854 65.2578ZM112.425 59.7969C111.919 59.7969 111.524 59.9583 111.237 60.2812C110.951 60.599 110.787 61.0521 110.745 61.6406H114.089C114.078 61.0521 113.925 60.599 113.628 60.2812C113.331 59.9583 112.93 59.7969 112.425 59.7969ZM112.761 67.1562C111.354 67.1562 110.255 66.7682 109.464 65.9922C108.672 65.2161 108.276 64.1172 108.276 62.6953C108.276 61.2318 108.641 60.1016 109.37 59.3047C110.104 58.5026 111.117 58.1016 112.409 58.1016C113.643 58.1016 114.604 58.4531 115.292 59.1562C115.979 59.8594 116.323 60.8307 116.323 62.0703V63.2266H110.69C110.716 63.9036 110.917 64.4323 111.292 64.8125C111.667 65.1927 112.193 65.3828 112.87 65.3828C113.396 65.3828 113.893 65.3281 114.362 65.2188C114.831 65.1094 115.321 64.9349 115.831 64.6953V66.5391C115.414 66.7474 114.969 66.901 114.495 67C114.021 67.1042 113.443 67.1562 112.761 67.1562ZM126.003 67H123.62V61.8984C123.62 61.2682 123.508 60.7969 123.284 60.4844C123.06 60.1667 122.704 60.0078 122.214 60.0078C121.547 60.0078 121.066 60.2318 120.769 60.6797C120.472 61.1224 120.323 61.8594 120.323 62.8906V67H117.941V58.2656H119.761L120.081 59.3828H120.214C120.48 58.9609 120.844 58.6432 121.308 58.4297C121.777 58.2109 122.308 58.1016 122.902 58.1016C123.917 58.1016 124.688 58.3776 125.214 58.9297C125.74 59.4766 126.003 60.2682 126.003 61.3047V67ZM131.816 65.2578C132.233 65.2578 132.733 65.1667 133.316 64.9844V66.7578C132.722 67.0234 131.993 67.1562 131.128 67.1562C130.175 67.1562 129.48 66.9167 129.043 66.4375C128.61 65.9531 128.394 65.2292 128.394 64.2656V60.0547H127.253V59.0469L128.566 58.25L129.253 56.4062H130.777V58.2656H133.222V60.0547H130.777V64.2656C130.777 64.6042 130.871 64.8542 131.058 65.0156C131.251 65.1771 131.503 65.2578 131.816 65.2578ZM142.153 67.1562C139.434 67.1562 138.074 65.6641 138.074 62.6797C138.074 61.1953 138.444 60.0625 139.184 59.2812C139.923 58.4948 140.983 58.1016 142.363 58.1016C143.374 58.1016 144.28 58.2995 145.082 58.6953L144.379 60.5391C144.004 60.388 143.655 60.2656 143.332 60.1719C143.009 60.0729 142.686 60.0234 142.363 60.0234C141.124 60.0234 140.504 60.9036 140.504 62.6641C140.504 64.3724 141.124 65.2266 142.363 65.2266C142.822 65.2266 143.246 65.1667 143.637 65.0469C144.028 64.9219 144.418 64.7292 144.809 64.4688V66.5078C144.423 66.7526 144.033 66.9219 143.637 67.0156C143.246 67.1094 142.751 67.1562 142.153 67.1562ZM148.418 62.6172C148.418 63.4818 148.559 64.1354 148.84 64.5781C149.127 65.0208 149.59 65.2422 150.231 65.2422C150.866 65.2422 151.322 65.0234 151.598 64.5859C151.879 64.1432 152.02 63.487 152.02 62.6172C152.02 61.7526 151.879 61.1042 151.598 60.6719C151.317 60.2396 150.856 60.0234 150.215 60.0234C149.58 60.0234 149.122 60.2396 148.84 60.6719C148.559 61.099 148.418 61.7474 148.418 62.6172ZM154.458 62.6172C154.458 64.0391 154.083 65.151 153.333 65.9531C152.583 66.7552 151.538 67.1562 150.2 67.1562C149.361 67.1562 148.622 66.974 147.981 66.6094C147.34 66.2396 146.848 65.7109 146.504 65.0234C146.161 64.3359 145.989 63.5339 145.989 62.6172C145.989 61.1901 146.361 60.0807 147.106 59.2891C147.851 58.4974 148.898 58.1016 150.247 58.1016C151.085 58.1016 151.825 58.2839 152.465 58.6484C153.106 59.013 153.598 59.5365 153.942 60.2188C154.286 60.901 154.458 61.7005 154.458 62.6172ZM164.169 67H161.786V61.8984C161.786 61.2682 161.674 60.7969 161.45 60.4844C161.226 60.1667 160.869 60.0078 160.38 60.0078C159.713 60.0078 159.231 60.2318 158.934 60.6797C158.638 61.1224 158.489 61.8594 158.489 62.8906V67H156.106V58.2656H157.927L158.247 59.3828H158.38C158.645 58.9609 159.01 58.6432 159.473 58.4297C159.942 58.2109 160.473 58.1016 161.067 58.1016C162.083 58.1016 162.854 58.3776 163.38 58.9297C163.906 59.4766 164.169 60.2682 164.169 61.3047V67ZM169.982 65.2578C170.398 65.2578 170.898 65.1667 171.482 64.9844V66.7578C170.888 67.0234 170.159 67.1562 169.294 67.1562C168.341 67.1562 167.646 66.9167 167.208 66.4375C166.776 65.9531 166.56 65.2292 166.56 64.2656V60.0547H165.419V59.0469L166.732 58.25L167.419 56.4062H168.943V58.2656H171.388V60.0547H168.943V64.2656C168.943 64.6042 169.036 64.8542 169.224 65.0156C169.416 65.1771 169.669 65.2578 169.982 65.2578ZM177.81 58.1016C178.133 58.1016 178.401 58.125 178.615 58.1719L178.435 60.4062C178.242 60.3542 178.008 60.3281 177.732 60.3281C176.971 60.3281 176.378 60.5234 175.951 60.9141C175.529 61.3047 175.318 61.8516 175.318 62.5547V67H172.935V58.2656H174.74L175.091 59.7344H175.208C175.479 59.2448 175.844 58.8516 176.302 58.5547C176.766 58.2526 177.268 58.1016 177.81 58.1016ZM181.779 62.6172C181.779 63.4818 181.92 64.1354 182.201 64.5781C182.487 65.0208 182.951 65.2422 183.592 65.2422C184.227 65.2422 184.683 65.0234 184.959 64.5859C185.24 64.1432 185.381 63.487 185.381 62.6172C185.381 61.7526 185.24 61.1042 184.959 60.6719C184.677 60.2396 184.217 60.0234 183.576 60.0234C182.941 60.0234 182.482 60.2396 182.201 60.6719C181.92 61.099 181.779 61.7474 181.779 62.6172ZM187.818 62.6172C187.818 64.0391 187.443 65.151 186.693 65.9531C185.943 66.7552 184.899 67.1562 183.56 67.1562C182.722 67.1562 181.982 66.974 181.342 66.6094C180.701 66.2396 180.209 65.7109 179.865 65.0234C179.521 64.3359 179.349 63.5339 179.349 62.6172C179.349 61.1901 179.722 60.0807 180.467 59.2891C181.211 58.4974 182.258 58.1016 183.607 58.1016C184.446 58.1016 185.185 58.2839 185.826 58.6484C186.467 59.013 186.959 59.5365 187.302 60.2188C187.646 60.901 187.818 61.7005 187.818 62.6172ZM191.85 67H189.467V54.8438H191.85V67ZM200.131 64.4062C200.131 65.3021 199.819 65.9844 199.194 66.4531C198.574 66.9219 197.644 67.1562 196.405 67.1562C195.769 67.1562 195.228 67.112 194.78 67.0234C194.332 66.9401 193.913 66.8151 193.522 66.6484V64.6797C193.965 64.888 194.462 65.0625 195.014 65.2031C195.571 65.3438 196.061 65.4141 196.483 65.4141C197.347 65.4141 197.78 65.1641 197.78 64.6641C197.78 64.4766 197.722 64.3255 197.608 64.2109C197.493 64.0911 197.295 63.9583 197.014 63.8125C196.733 63.6615 196.358 63.487 195.889 63.2891C195.217 63.0078 194.722 62.7474 194.405 62.5078C194.092 62.2682 193.863 61.9948 193.717 61.6875C193.577 61.375 193.506 60.9922 193.506 60.5391C193.506 59.763 193.806 59.1641 194.405 58.7422C195.009 58.3151 195.863 58.1016 196.967 58.1016C198.019 58.1016 199.043 58.3307 200.038 58.7891L199.319 60.5078C198.881 60.3203 198.472 60.1667 198.092 60.0469C197.712 59.9271 197.324 59.8672 196.928 59.8672C196.225 59.8672 195.873 60.0573 195.873 60.4375C195.873 60.651 195.985 60.8359 196.209 60.9922C196.439 61.1484 196.936 61.3802 197.702 61.6875C198.384 61.9635 198.884 62.2214 199.202 62.4609C199.519 62.7005 199.754 62.9766 199.905 63.2891C200.056 63.6016 200.131 63.974 200.131 64.4062Z" fill="#FF6F3D"/>
</svg>
