<svg width="208" height="80" viewBox="0 0 208 80" fill="none" xmlns="http://www.w3.org/2000/svg"><g clip-path="url(#clip0_3243_1879)"><rect width="208" height="80" rx="1" fill="#F9F9F9"/><rect x=".5" y="-.5" width="82" height="51" rx="3.5" transform="matrix(1 0 0 -1 -46 43)" fill="#fff" stroke="#E2E2E2"/><path fill="#E2E2E2" d="M-46 15h82v-1h-82z"/><rect x="39.5" y="14.5" width="82" height="57" rx="3.5" fill="#fff" stroke="#E2E2E2"/><path fill="#E2E2E2" d="M39 43h86v1H39z"/><circle cx="57.5" cy="29.5" r="8.5" fill="#FF6F3D"/><path d="M58.7832 34h-2.1123v-5.7832l.0205-.9502.0342-1.0391c-.3509.351-.5947.5811-.7315.6905l-1.1484.9228-1.0186-1.2715 3.2198-2.5634h1.7363V34z" fill="#fff"/><circle cx="57.5" cy="57.5" r="8.5" fill="#FF6F3D"/><path d="M60.5469 62h-6.9864v-1.4697l2.5088-2.5362c.7429-.761 1.2282-1.2874 1.4561-1.5791.2279-.2962.3919-.5696.4922-.8203.1002-.2506.1504-.5104.1504-.7793 0-.401-.1117-.6995-.335-.8955-.2187-.1959-.5127-.2939-.8818-.2939-.3874 0-.7634.0888-1.128.2666-.3645.1777-.7451.4306-1.1416.7588l-1.1484-1.3604c.4922-.4193.9001-.7155 1.2236-.8887.3236-.1731.6768-.3053 1.0596-.3964.3828-.0957.8112-.1436 1.2852-.1436.6243 0 1.1757.1139 1.6543.3418.4785.2279.8499.5469 1.1142.957.2643.4102.3965.8796.3965 1.4082 0 .4603-.082.8933-.2461 1.2989-.1595.401-.4101.8134-.7519 1.2373-.3373.4238-.9343 1.0276-1.7911 1.8115l-1.2851 1.21v.0957h4.3545V62z" fill="#fff"/><path fill-rule="evenodd" clip-rule="evenodd" d="M197 38l-12-12v16.5l3.5-3L191 45l4.5-2-2.5-5h4zm-2.862 4.5112L191.382 37h3.204L186 28.4142v11.9116l2.86-2.4512 2.64 5.8088 2.638-1.1722z" fill="#AAA"/><path d="M129.5 51c2.833 3.8333 11 1.5903 14.5 18.5903 1.787 8.678 46.016-6.8949 21.5-21-36.5-21 46-31 9-34s-51 5.5-38.5 24 33 29.5 47.5 29.5c5.769 0 17-6.4999 10.5-22.5" stroke="#CCC" stroke-linejoin="round" stroke-dasharray="2 4"/><circle cx="143.5" cy="15.5" r="1.5" fill="gray"/><circle cx="157.5" cy="33.5" r="1.5" fill="gray"/><circle cx="144.5" cy="72.5" r="1.5" fill="gray"/><circle cx="194.5" cy="46.5" r="1.5" fill="gray"/><circle cx="165.5" cy="63.5" r="1.5" fill="gray"/><path d="M25.2929 29.7071c.3905-.3905.3905-1.0237 0-1.4142l-2.5858-2.5858c-.63-.63-1.7071-.1838-1.7071.7071v5.1716c0 .8909 1.0771 1.3371 1.7071.7071l2.5858-2.5858z" fill="gray"/><path fill="#fff" d="M88.5 25.5h46v31h-46z"/><path fill-rule="evenodd" clip-rule="evenodd" d="M111.5 31.5c-6.05 0-11.5369 3.3318-15.5855 8.7437-.3303.4433-.3303 1.0628 0 1.5061C99.9631 47.1682 105.45 50.5 111.5 50.5c6.05 0 11.537-3.3318 15.586-8.7437.33-.4433.33-1.0628 0-1.5061C123.037 34.8318 117.55 31.5 111.5 31.5zm.413 15.8204c-3.82.2403-6.974-2.9076-6.733-6.7331.197-3.1541 2.753-5.7106 5.907-5.9077 3.82-.2403 6.974 2.9076 6.734 6.7331-.204 3.1479-2.76 5.7044-5.908 5.9077zm-.21-3.1602c-1.91.1201-3.488-1.4528-3.363-3.3633.098-1.5786 1.379-2.8542 2.957-2.9571 1.91-.1201 3.489 1.4528 3.363 3.3633-.103 1.5844-1.384 2.8599-2.957 2.9571z" fill="#444"/><path stroke="#444" d="M88.5 25.5h46v31h-46z"/><circle cx="88.5" cy="56.5" r="1.5" fill="#444"/><circle cx="88.5" cy="25.5" r="1.5" fill="#444"/><circle cx="134.5" cy="56.5" r="1.5" fill="#444"/><circle cx="134.5" cy="25.5" r="1.5" fill="#444"/></g><rect x=".5" y=".5" width="207" height="79" rx=".5" stroke="#E2E2E2"/><defs><clipPath id="clip0_3243_1879"><rect width="208" height="80" rx="1" fill="#fff"/></clipPath></defs></svg>