<svg width="254" height="120" viewBox="0 0 254 120" fill="none" xmlns="http://www.w3.org/2000/svg">
<path d="M96.572 87.8833C94.8243 87.8833 93.4945 87.3663 92.5823 86.3323C91.6772 85.2912 91.2246 83.8004 91.2246 81.8599C91.2246 79.884 91.6981 78.3649 92.645 77.3026C93.5989 76.2403 94.974 75.7091 96.7704 75.7091C97.9889 75.7091 99.0855 75.9393 100.06 76.3996L99.3188 78.4074C98.2813 77.9966 97.4249 77.7913 96.7495 77.7913C94.7512 77.7913 93.7521 79.1404 93.7521 81.8387C93.7521 83.156 93.9993 84.1475 94.4936 84.8132C94.9949 85.4718 95.726 85.8011 96.6869 85.8011C97.78 85.8011 98.814 85.5249 99.7888 84.9725V87.1503C99.3501 87.4123 98.8801 87.6 98.3788 87.7133C97.8845 87.8266 97.2822 87.8833 96.572 87.8833Z" fill="#808080"/>
<path d="M111.894 81.775C111.894 83.6942 111.41 85.1921 110.443 86.2686C109.475 87.345 108.127 87.8833 106.401 87.8833C105.322 87.8833 104.368 87.6354 103.539 87.1397C102.71 86.6439 102.073 85.9322 101.628 85.0044C101.182 84.0766 100.959 83.0002 100.959 81.775C100.959 79.8699 101.44 78.3826 102.401 77.3132C103.361 76.2438 104.716 75.7091 106.463 75.7091C108.134 75.7091 109.457 76.258 110.432 77.3557C111.407 78.4464 111.894 79.9194 111.894 81.775ZM103.487 81.775C103.487 84.4874 104.472 85.8436 106.443 85.8436C108.392 85.8436 109.367 84.4874 109.367 81.775C109.367 79.0908 108.385 77.7488 106.422 77.7488C105.391 77.7488 104.643 78.0958 104.176 78.7898C103.717 79.4839 103.487 80.4789 103.487 81.775Z" fill="#808080"/>
<path d="M122.015 87.6708L121.671 86.1305H121.546C121.204 86.6758 120.717 87.1042 120.083 87.4159C119.457 87.7275 118.74 87.8833 117.932 87.8833C116.532 87.8833 115.488 87.5292 114.799 86.821C114.109 86.1127 113.765 85.0398 113.765 83.6021V75.9216H116.24V83.1666C116.24 84.066 116.421 84.7424 116.783 85.1956C117.145 85.6418 117.713 85.8649 118.485 85.8649C119.516 85.8649 120.271 85.5533 120.752 84.93C121.239 84.2997 121.483 83.248 121.483 81.775V75.9216H123.948V87.6708H122.015Z" fill="#808080"/>
<path d="M136.753 87.6708H134.288V80.4471C134.288 79.5405 134.107 78.8642 133.745 78.418C133.39 77.9719 132.822 77.7488 132.043 77.7488C131.005 77.7488 130.246 78.0604 129.766 78.6836C129.285 79.3068 129.045 80.3514 129.045 81.8174V87.6708H126.591V75.9216H128.513L128.857 77.4619H128.983C129.331 76.9025 129.825 76.4705 130.466 76.1659C131.106 75.8614 131.816 75.7091 132.596 75.7091C135.367 75.7091 136.753 77.1433 136.753 80.0115V87.6708Z" fill="#808080"/>
<path d="M143.616 85.8649C144.214 85.8649 144.813 85.7693 145.412 85.578V87.4583C145.14 87.5787 144.789 87.6779 144.357 87.7558C143.932 87.8408 143.49 87.8833 143.031 87.8833C140.705 87.8833 139.542 86.6368 139.542 84.1439V77.8125H137.965V76.7077L139.657 75.7941L140.493 73.3083H142.007V75.9216H145.297V77.8125H142.007V84.1014C142.007 84.7034 142.153 85.1496 142.446 85.4399C142.745 85.7232 143.135 85.8649 143.616 85.8649Z" fill="#808080"/>
<path d="M151.919 87.8833C150.123 87.8833 148.717 87.3521 147.7 86.2898C146.69 85.2204 146.186 83.7509 146.186 81.8812C146.186 79.9619 146.656 78.4534 147.596 77.3557C148.536 76.258 149.827 75.7091 151.47 75.7091C152.995 75.7091 154.2 76.1801 155.084 77.122C155.968 78.0639 156.41 79.36 156.41 81.0101V82.3592H148.713C148.748 83.4994 149.051 84.3776 149.622 84.9938C150.193 85.6028 150.997 85.9074 152.034 85.9074C152.717 85.9074 153.35 85.8436 153.935 85.7161C154.527 85.5816 155.161 85.362 155.836 85.0575V87.0865C155.237 87.3769 154.631 87.5823 154.019 87.7027C153.406 87.8231 152.706 87.8833 151.919 87.8833ZM151.47 77.6C150.691 77.6 150.064 77.8515 149.59 78.3543C149.124 78.8571 148.845 79.5901 148.755 80.5533H153.998C153.984 79.583 153.754 78.85 153.309 78.3543C152.863 77.8515 152.25 77.6 151.47 77.6Z" fill="#808080"/>
<path d="M164.203 75.7091C164.697 75.7091 165.104 75.7445 165.425 75.8154L165.184 78.1418C164.836 78.0568 164.474 78.0144 164.098 78.0144C163.116 78.0144 162.319 78.3401 161.706 78.9917C161.101 79.6432 160.798 80.4895 160.798 81.5306V87.6708H158.343V75.9216H160.265L160.589 77.9931H160.714C161.097 77.292 161.595 76.736 162.208 76.3253C162.827 75.9145 163.492 75.7091 164.203 75.7091Z" fill="#808080"/>
<path fill-rule="evenodd" clip-rule="evenodd" d="M105.286 33C104.733 33 104.286 33.4477 104.286 34V63.8C104.286 64.3523 104.733 64.8 105.286 64.8H127.514C128.067 64.8 128.514 64.3523 128.514 63.8V34C128.514 33.4477 128.067 33 127.514 33H105.286ZM75 33C74.4477 33 74 33.4477 74 34V63.8C74 64.3523 74.4477 64.8 75 64.8H101.771C102.324 64.8 102.771 64.3523 102.771 63.8V34C102.771 33.4477 102.324 33 101.771 33H75ZM130.029 34C130.029 33.4477 130.477 33 131.029 33H153.257C153.81 33 154.257 33.4477 154.257 34V63.8C154.257 64.3523 153.81 64.8 153.257 64.8H131.029C130.477 64.8 130.029 64.3523 130.029 63.8V34ZM156.771 33C156.219 33 155.771 33.4477 155.771 34V63.8C155.771 64.3523 156.219 64.8 156.771 64.8H179C179.552 64.8 180 64.3523 180 63.8V34C180 33.4477 179.552 33 179 33H156.771Z" fill="url(#paint0_linear_126_4145)"/>
<path d="M125.218 48.9874C125.218 52.2082 124.419 54.6837 122.822 56.4139C121.225 58.1441 118.936 59.0092 115.955 59.0092C112.973 59.0092 110.684 58.1441 109.087 56.4139C107.49 54.6837 106.691 52.1994 106.691 48.9608C106.691 45.7222 107.49 43.2512 109.087 41.5476C110.693 39.8352 112.991 38.9789 115.981 38.9789C118.971 38.9789 121.256 39.8396 122.835 41.5609C124.424 43.2822 125.218 45.7577 125.218 48.9874ZM111.017 48.9874C111.017 51.1612 111.429 52.7983 112.255 53.8985C113.08 54.9987 114.313 55.5488 115.955 55.5488C119.246 55.5488 120.892 53.3617 120.892 48.9874C120.892 44.6043 119.255 42.4127 115.981 42.4127C114.34 42.4127 113.102 42.9672 112.268 44.0763C111.434 45.1766 111.017 46.8136 111.017 48.9874Z" fill="white"/>
<path d="M176.828 48.8276C176.828 52.0307 175.914 54.484 174.086 56.1875C172.267 57.8911 169.636 58.7429 166.194 58.7429H161.684C161.131 58.7429 160.684 58.2952 160.684 57.7429V40.2849C160.684 39.7327 161.131 39.2849 161.684 39.2849H166.792C169.969 39.2849 172.436 40.1234 174.192 41.8004C175.949 43.4773 176.828 45.8197 176.828 48.8276ZM172.542 48.9341C172.542 44.755 170.697 42.6655 167.005 42.6655H165.809C165.257 42.6655 164.809 43.1132 164.809 43.6655V54.3358C164.809 54.888 165.257 55.3358 165.809 55.3358H166.58C170.555 55.3358 172.542 53.2019 172.542 48.9341Z" fill="white"/>
<path d="M139.645 46.9226C139.645 47.4749 140.093 47.9226 140.645 47.9226H140.976C142.281 47.9226 143.243 47.7052 143.864 47.2704C144.485 46.8357 144.796 46.1525 144.796 45.2208C144.796 44.2981 144.477 43.6415 143.838 43.2511C143.208 42.8607 142.227 42.6655 140.896 42.6655H140.645C140.093 42.6655 139.645 43.1132 139.645 43.6655V46.9226ZM140.645 51.2765C140.093 51.2765 139.645 51.7242 139.645 52.2765V57.7429C139.645 58.2952 139.198 58.7429 138.645 58.7429H136.52C135.967 58.7429 135.52 58.2952 135.52 57.7429V40.2849C135.52 39.7327 135.967 39.2849 136.52 39.2849H141.189C143.833 39.2849 145.79 39.7685 147.059 40.7356C148.327 41.6939 148.962 43.1535 148.962 45.1143C148.962 46.2589 148.647 47.2793 148.017 48.1754C147.594 48.7709 147.053 49.2805 146.395 49.7041C145.871 50.0409 145.66 50.7412 146.007 51.2585C147.726 53.8247 149.052 55.7941 149.985 57.1666C150.439 57.8343 149.96 58.7429 149.153 58.7429H147.042C146.696 58.7429 146.375 58.5645 146.193 58.2711L142.135 51.7482C141.952 51.4549 141.631 51.2765 141.286 51.2765H140.645Z" fill="white"/>
<path d="M96.8836 56.4627C96.5423 57.804 95.3346 58.7429 93.9505 58.7429V58.7429C92.57 58.7429 91.3645 57.8087 91.0198 56.4719L88.9701 48.5215C88.8725 48.1577 88.7039 47.408 88.4644 46.2722V46.2722C88.4081 45.9932 87.7216 46.0065 87.6658 46.2855V46.2855C87.4529 47.3414 87.2887 48.0956 87.1734 48.5481L85.1343 56.4766C84.7913 57.8105 83.5887 58.7429 82.2114 58.7429V58.7429C80.8319 58.7429 79.628 57.8076 79.287 56.4709L75.5234 41.7191C75.2085 40.485 76.1409 39.2849 77.4144 39.2849V39.2849C78.3208 39.2849 79.1078 39.9089 79.3146 40.7913L81.4504 49.9056C81.6689 50.8911 81.8572 51.8105 82.0152 52.6638C82.0767 52.9959 82.696 52.9932 82.7547 52.6606V52.6606C82.9499 51.5959 83.1318 50.7707 83.3004 50.1851L85.6445 41.172C85.9335 40.0607 86.9368 39.2849 88.085 39.2849V39.2849C89.2333 39.2849 90.2366 40.0607 90.5256 41.172L92.8697 50.1851C92.9939 50.6731 93.1492 51.4184 93.3355 52.4211V52.4211C93.4093 52.8181 94.112 52.8178 94.1873 52.4211V52.4211C94.3825 51.3829 94.5599 50.5445 94.7197 49.9056L96.8435 40.7935C97.0495 39.91 97.837 39.2849 98.7441 39.2849V39.2849C100.017 39.2849 100.949 40.484 100.635 41.7177L96.8836 56.4627Z" fill="white"/>
<defs>
<linearGradient id="paint0_linear_126_4145" x1="74.0002" y1="31.7578" x2="90.9624" y2="90.5072" gradientUnits="userSpaceOnUse">
<stop stop-color="#FFC671"/>
<stop offset="0.59375" stop-color="#FF7541"/>
<stop offset="1" stop-color="#FF6F3D"/>
</linearGradient>
</defs>
</svg>
