<svg width="106" height="55" viewBox="0 0 106 55" fill="none" xmlns="http://www.w3.org/2000/svg">
<path d="M22.5722 54.8832C20.8246 54.8832 19.4947 54.3662 18.5826 53.3322C17.6774 52.2912 17.2249 50.8004 17.2249 48.8599C17.2249 46.884 17.6983 45.3649 18.6453 44.3025C19.5991 43.2402 20.9743 42.7091 22.7707 42.7091C23.9892 42.7091 25.0858 42.9392 26.0606 43.3996L25.319 45.4073C24.2816 44.9966 23.4252 44.7912 22.7498 44.7912C20.7515 44.7912 19.7523 46.1403 19.7523 48.8386C19.7523 50.1559 19.9995 51.1474 20.4939 51.8131C20.9952 52.4718 21.7263 52.8011 22.6871 52.8011C23.7803 52.8011 24.8142 52.5249 25.789 51.9725V54.1502C25.3504 54.4123 24.8804 54.5999 24.3791 54.7132C23.8847 54.8266 23.2824 54.8832 22.5722 54.8832Z" fill="#333333"/>
<path d="M37.8946 48.7749C37.8946 50.6941 37.4107 52.192 36.4428 53.2685C35.475 54.345 34.1277 54.8832 32.401 54.8832C31.3217 54.8832 30.3679 54.6353 29.5393 54.1396C28.7107 53.6438 28.0736 52.9321 27.628 52.0043C27.1824 51.0766 26.9596 50.0001 26.9596 48.7749C26.9596 46.8698 27.44 45.3826 28.4009 44.3132C29.3617 43.2438 30.716 42.7091 32.4636 42.7091C34.1347 42.7091 35.4576 43.2579 36.4324 44.3557C37.4072 45.4463 37.8946 46.9194 37.8946 48.7749ZM29.4871 48.7749C29.4871 51.4873 30.4723 52.8436 32.4427 52.8436C34.3923 52.8436 35.3671 51.4873 35.3671 48.7749C35.3671 46.0908 34.3854 44.7487 32.4219 44.7487C31.3914 44.7487 30.6429 45.0957 30.1764 45.7898C29.7168 46.4838 29.4871 47.4789 29.4871 48.7749Z" fill="#333333"/>
<path d="M48.0157 54.6707L47.6711 53.1304H47.5458C47.2046 53.6757 46.7172 54.1042 46.0836 54.4158C45.4569 54.7274 44.7398 54.8832 43.9321 54.8832C42.5326 54.8832 41.4882 54.5291 40.7989 53.8209C40.1096 53.1127 39.7649 52.0397 39.7649 50.6021V42.9215H42.2402V50.1665C42.2402 51.066 42.4212 51.7423 42.7832 52.1956C43.1453 52.6417 43.7128 52.8648 44.4856 52.8648C45.5161 52.8648 46.2716 52.5532 46.752 51.93C47.2394 51.2997 47.4831 50.248 47.4831 48.7749V42.9215H49.9479V54.6707H48.0157Z" fill="#333333"/>
<path d="M62.7532 54.6707H60.2884V47.447C60.2884 46.5405 60.1074 45.8641 59.7453 45.418C59.3902 44.9718 58.8227 44.7487 58.0429 44.7487C57.0055 44.7487 56.2465 45.0603 55.7661 45.6836C55.2857 46.3068 55.0455 47.3514 55.0455 48.8174V54.6707H52.5911V42.9215H54.5128L54.8575 44.4619H54.9828C55.3309 43.9024 55.8253 43.4704 56.4659 43.1659C57.1064 42.8613 57.8166 42.7091 58.5965 42.7091C61.3676 42.7091 62.7532 44.1432 62.7532 47.0114V54.6707Z" fill="#333333"/>
<path d="M69.6158 52.8648C70.2146 52.8648 70.8134 52.7692 71.4122 52.578V54.4583C71.1407 54.5787 70.789 54.6778 70.3573 54.7557C69.9326 54.8407 69.4905 54.8832 69.0309 54.8832C66.7054 54.8832 65.5426 53.6368 65.5426 51.1439V44.8125H63.9656V43.7076L65.6575 42.794L66.493 40.3082H68.0074V42.9215H71.2973V44.8125H68.0074V51.1014C68.0074 51.7033 68.1536 52.1495 68.4461 52.4399C68.7455 52.7232 69.1354 52.8648 69.6158 52.8648Z" fill="#333333"/>
<path d="M77.9197 54.8832C76.1233 54.8832 74.7169 54.3521 73.7003 53.2897C72.6907 52.2203 72.1859 50.7508 72.1859 48.8811C72.1859 46.9619 72.6559 45.4534 73.5959 44.3557C74.5358 43.2579 75.8274 42.7091 77.4706 42.7091C78.9955 42.7091 80.2 43.18 81.0843 44.1219C81.9686 45.0639 82.4107 46.3599 82.4107 48.01V49.3592H74.7134C74.7482 50.4994 75.0511 51.3776 75.622 51.9937C76.193 52.6028 76.9972 52.9073 78.0346 52.9073C78.7169 52.9073 79.3506 52.8436 79.9354 52.7161C80.5273 52.5815 81.1609 52.362 81.8363 52.0575V54.0865C81.2375 54.3768 80.6317 54.5822 80.019 54.7026C79.4063 54.823 78.7065 54.8832 77.9197 54.8832ZM77.4706 44.6C76.6908 44.6 76.0641 44.8514 75.5907 45.3542C75.1242 45.8571 74.8457 46.5901 74.7552 47.5532H79.9981C79.9842 46.583 79.7544 45.85 79.3088 45.3542C78.8632 44.8514 78.2504 44.6 77.4706 44.6Z" fill="#333333"/>
<path d="M90.2028 42.7091C90.6972 42.7091 91.1045 42.7445 91.4248 42.8153L91.1846 45.1418C90.8364 45.0568 90.4744 45.0143 90.0984 45.0143C89.1166 45.0143 88.3194 45.3401 87.7067 45.9916C87.1009 46.6432 86.798 47.4895 86.798 48.5306V54.6707H84.3437V42.9215H86.2654L86.5892 44.993H86.7145C87.0974 44.2919 87.5953 43.736 88.208 43.3252C88.8277 42.9144 89.4926 42.7091 90.2028 42.7091Z" fill="#333333"/>
<path fill-rule="evenodd" clip-rule="evenodd" d="M31.2857 0C30.7334 0 30.2857 0.447715 30.2857 1V30.8C30.2857 31.3523 30.7334 31.8 31.2857 31.8H53.5143C54.0665 31.8 54.5143 31.3523 54.5143 30.8V1C54.5143 0.447715 54.0665 0 53.5143 0H31.2857ZM1 3.15132e-05C0.447715 3.15132e-05 0 0.447747 0 1.00003V30.8C0 31.3523 0.447715 31.8 0.999999 31.8H27.7714C28.3237 31.8 28.7714 31.3523 28.7714 30.8V1.00003C28.7714 0.447747 28.3237 3.15132e-05 27.7714 3.15132e-05H1ZM56.0288 1C56.0288 0.447715 56.4765 0 57.0288 0H79.2573C79.8096 0 80.2573 0.447715 80.2573 1V30.8C80.2573 31.3523 79.8096 31.8 79.2573 31.8H57.0288C56.4765 31.8 56.0288 31.3523 56.0288 30.8V1ZM82.7714 0C82.2191 0 81.7714 0.447715 81.7714 1V30.8C81.7714 31.3523 82.2191 31.8 82.7714 31.8H105C105.552 31.8 106 31.3523 106 30.8V1C106 0.447715 105.552 0 105 0H82.7714Z" fill="url(#paint0_linear)"/>
<path d="M51.2172 15.9875C51.2172 19.2083 50.4187 21.6838 48.8216 23.414C47.2245 25.1442 44.9353 26.0093 41.9541 26.0093C38.9728 26.0093 36.6837 25.1442 35.0866 23.414C33.4895 21.6838 32.6909 19.1994 32.6909 15.9609C32.6909 12.7223 33.4895 10.2512 35.0866 8.54767C36.6925 6.83523 38.9906 5.979 41.9807 5.979C44.9708 5.979 47.2556 6.83966 48.8349 8.56098C50.4231 10.2823 51.2172 12.7578 51.2172 15.9875ZM37.0164 15.9875C37.0164 18.1613 37.429 19.7983 38.2541 20.8985C39.0793 21.9988 40.3126 22.5489 41.9541 22.5489C45.2459 22.5489 46.8918 20.3617 46.8918 15.9875C46.8918 11.6043 45.2547 9.41276 41.9807 9.41276C40.3392 9.41276 39.1015 9.96731 38.2674 11.0764C37.4334 12.1766 37.0164 13.8136 37.0164 15.9875Z" fill="white"/>
<path d="M102.828 15.8276C102.828 19.0306 101.914 21.4839 100.086 23.1875C98.2672 24.8911 95.6364 25.7429 92.1938 25.7429H87.6838C87.1316 25.7429 86.6838 25.2952 86.6838 24.7429V7.28491C86.6838 6.73263 87.1316 6.28491 87.6838 6.28491H92.7927C95.9692 6.28491 98.4358 7.12339 100.193 8.80034C101.949 10.4773 102.828 12.8197 102.828 15.8276ZM98.5423 15.934C98.5423 11.755 96.6968 9.66543 93.0057 9.66543H91.8097C91.2574 9.66543 90.8097 10.1131 90.8097 10.6654V21.3357C90.8097 21.888 91.2574 22.3357 91.8097 22.3357H92.5798C96.5548 22.3357 98.5423 20.2018 98.5423 15.934Z" fill="white"/>
<path d="M65.6446 13.9225C65.6446 14.4748 66.0923 14.9225 66.6446 14.9225H66.9755C68.2798 14.9225 69.2425 14.7052 69.8636 14.2704C70.4847 13.8356 70.7953 13.1524 70.7953 12.2208C70.7953 11.298 70.4758 10.6414 69.837 10.251C69.207 9.86063 68.2266 9.66543 66.8957 9.66543H66.6446C66.0923 9.66543 65.6446 10.1131 65.6446 10.6654V13.9225ZM66.6446 18.2764C66.0923 18.2764 65.6446 18.7242 65.6446 19.2764V24.7429C65.6446 25.2952 65.1969 25.7429 64.6446 25.7429H62.5188C61.9665 25.7429 61.5188 25.2952 61.5188 24.7429V7.28491C61.5188 6.73263 61.9665 6.28491 62.5188 6.28491H67.1885C69.8326 6.28491 71.789 6.76848 73.0578 7.73561C74.3266 8.69387 74.961 10.1534 74.961 12.1143C74.961 13.2589 74.646 14.2793 74.0161 15.1754C73.5933 15.7709 73.0526 16.2804 72.3941 16.7041C71.8704 17.0409 71.6597 17.7412 72.0062 18.2584C73.7256 20.8247 75.0515 22.794 75.9841 24.1665C76.4379 24.8343 75.9593 25.7429 75.1519 25.7429H73.0411C72.6956 25.7429 72.3746 25.5645 72.192 25.2711L68.1341 18.7482C67.9516 18.4548 67.6306 18.2764 67.285 18.2764H66.6446Z" fill="white"/>
<path d="M22.8834 23.4626C22.5421 24.804 21.3344 25.7429 19.9503 25.7429C18.5698 25.7429 17.3642 24.8087 17.0196 23.4719L14.9699 15.5215C14.8723 15.1577 14.7037 14.4079 14.4641 13.2722C14.4079 12.9932 13.7214 13.0064 13.6656 13.2855C13.4526 14.3414 13.2885 15.0956 13.1731 15.5481L11.1341 23.4765C10.791 24.8104 9.58844 25.7429 8.21114 25.7429C6.83168 25.7429 5.62778 24.8076 5.28676 23.4709L1.52312 8.71904C1.20828 7.48499 2.14062 6.28491 3.4142 6.28491C4.32053 6.28491 5.1076 6.90886 5.31438 7.79129L7.4502 16.9056C7.6687 17.8911 7.85695 18.8105 8.01495 19.6638C8.07643 19.9958 8.69581 19.9932 8.75449 19.6606C8.94969 18.5959 9.13158 17.7707 9.30017 17.1851L11.6442 8.17193C11.9333 7.06064 12.9365 6.28491 14.0848 6.28491C15.2331 6.28491 16.2363 7.06064 16.5254 8.17193L18.8694 17.1851C18.9937 17.6731 19.1489 18.4184 19.3353 19.421C19.409 19.818 20.1118 19.8178 20.187 19.421C20.3822 18.3829 20.5597 17.5444 20.7194 16.9056L22.8433 7.79347C23.0492 6.91 23.8367 6.28491 24.7439 6.28491C26.0169 6.28491 26.9491 7.48401 26.6352 8.71769L22.8834 23.4626Z" fill="white"/>
<defs>
<linearGradient id="paint0_linear" x1="0.000204083" y1="-1.24219" x2="16.9624" y2="57.5072" gradientUnits="userSpaceOnUse">
<stop stop-color="#FFC671"/>
<stop offset="0.59375" stop-color="#FF7541"/>
<stop offset="1" stop-color="#FF6F3D"/>
</linearGradient>
</defs>
</svg>
