<svg width="120" height="76" viewBox="0 0 120 76" fill="none" xmlns="http://www.w3.org/2000/svg">
<path d="M61.5 67.5888H61.2953L61.1494 67.7323L53.9827 74.7822L53.9827 74.7822L53.9785 74.7864C53.5028 75.2655 52.8077 75.5169 52.1171 75.4991C51.4286 75.4813 50.7932 75.1988 50.401 74.6722L50.3875 74.654L50.3724 74.6372L44.2057 67.7551L44.0567 67.5888H43.8333H31.5C29.7101 67.5888 28.5 66.4081 28.5 65.0674V35.1892C28.5 33.8444 29.8815 32.5 31.6667 32.5H88.5C90.2899 32.5 91.5 33.6807 91.5 35.0214V65.0164C91.1952 66.4383 89.9105 67.5888 88.1667 67.5888H61.5Z" fill="white" stroke="#808080"/>
<path d="M36 42.7391C36 41.8696 36.6882 41 37.7204 41H50.2796C51.1398 41 52 41.6957 52 42.7391V55.2609C52 56.1304 51.3118 57 50.2796 57H37.7204C36.8602 57 36 56.3043 36 55.2609V42.7391Z" fill="#FF6F3D"/>
<path d="M82.172 44H57.828C57.3312 44 57 43.8 57 43.5C57 43.2 57.3312 43 57.828 43H82.172C82.6688 43 83 43.2 83 43.5C83 43.8 82.6688 44 82.172 44Z" fill="#808080"/>
<path d="M82.172 47H57.828C57.3312 47 57 46.8 57 46.5C57 46.2 57.3312 46 57.828 46H82.172C82.6688 46 83 46.2 83 46.5C83 46.8 82.6688 47 82.172 47Z" fill="#808080"/>
<path d="M82.172 50H57.828C57.3312 50 57 49.8 57 49.5C57 49.2 57.3312 49 57.828 49H82.172C82.6688 49 83 49.2 83 49.5C83 49.8 82.6688 50 82.172 50Z" fill="#808080"/>
<path d="M82.172 53H57.828C57.3312 53 57 52.8 57 52.5C57 52.2 57.3312 52 57.828 52H82.172C82.6688 52 83 52.2 83 52.5C83 52.8 82.6688 53 82.172 53Z" fill="#808080"/>
<path d="M73.1827 56H57.8173C57.3269 56 57 55.8 57 55.5C57 55.2 57.3269 55 57.8173 55H73.1827C73.6731 55 74 55.2 74 55.5C74 55.8 73.5096 56 73.1827 56Z" fill="#808080"/>
<circle cx="76" cy="12" r="12" fill="#444444"/>
<path d="M72.3222 7.22807C72.0197 6.92398 71.5293 6.92398 71.2269 7.22807C70.9244 7.53216 70.9244 8.02519 71.2269 8.32928L74.9047 12.0269L71.2803 15.6707C70.9778 15.9748 70.9778 16.4678 71.2803 16.7719C71.5827 17.076 72.0731 17.076 72.3756 16.7719L76 13.1281L79.6244 16.7719C79.9269 17.076 80.4173 17.076 80.7197 16.7719C81.0222 16.4678 81.0222 15.9748 80.7197 15.6707L77.0953 12.0269L80.7732 8.32928C81.0756 8.02519 81.0756 7.53216 80.7732 7.22807C80.4707 6.92398 79.9803 6.92398 79.6778 7.22807L76 10.9256L72.3222 7.22807Z" fill="white"/>
<circle cx="44" cy="12" r="12" fill="#444444"/>
<path fill-rule="evenodd" clip-rule="evenodd" d="M39.7419 7.16129C39.4213 7.16129 39.1613 7.42125 39.1613 7.74194V16.2581C39.1613 16.5787 39.4213 16.8387 39.7419 16.8387H48.2581C48.5787 16.8387 48.8387 16.5787 48.8387 16.2581V12C48.8387 11.6793 49.0987 11.4194 49.4194 11.4194C49.74 11.4194 50 11.6793 50 12V16.2581C50 17.2201 49.2201 18 48.2581 18H39.7419C38.7799 18 38 17.2201 38 16.2581V7.74194C38 6.77989 38.7799 6 39.7419 6H44C44.3207 6 44.5806 6.25996 44.5806 6.58065C44.5806 6.90133 44.3207 7.16129 44 7.16129H39.7419Z" fill="white"/>
<path fill-rule="evenodd" clip-rule="evenodd" d="M47.67 6.3332L49.6695 8.33802L45.6678 12.3407L43.6671 10.3389L47.67 6.3332ZM50.8528 5.93348L50.1226 5.19928C49.8404 4.91554 49.0757 4.91554 48.6675 5.32457L48.333 5.65887L50.3482 7.66918L50.6793 7.33547C51.0717 6.94087 51.0717 6.15355 50.8528 5.93348ZM43 12.7782C43.0045 12.9206 43.0804 12.9998 43.2286 12.9998H45.001L43.0045 11.0008L43 12.7782Z" fill="white"/>
<circle cx="12" cy="12" r="12" fill="#444444"/>
<path fill-rule="evenodd" clip-rule="evenodd" d="M6 9.52061C6 8.78118 6.59942 8.18176 7.33884 8.18176H14.4793C15.2188 8.18176 15.8182 8.78118 15.8182 9.52061V16.6611C15.8182 17.4005 15.2188 17.9999 14.4793 17.9999H7.33884C6.59942 17.9999 6 17.4005 6 16.6611V9.52061ZM7.33884 9.07432C7.09237 9.07432 6.89256 9.27413 6.89256 9.52061V16.6611C6.89256 16.9076 7.09237 17.1074 7.33884 17.1074H14.4793C14.7258 17.1074 14.9256 16.9076 14.9256 16.6611V9.52061C14.9256 9.27413 14.7258 9.07432 14.4793 9.07432H7.33884Z" fill="white"/>
<path fill-rule="evenodd" clip-rule="evenodd" d="M9.27271 6.48485C9.27271 6.21707 9.48978 6 9.75755 6H16.5454C17.3488 6 18 6.65122 18 7.45455V14.2424C18 14.5102 17.7829 14.7273 17.5151 14.7273C17.2474 14.7273 17.0303 14.5102 17.0303 14.2424V7.45455C17.0303 7.18677 16.8132 6.9697 16.5454 6.9697H9.75755C9.48978 6.9697 9.27271 6.75262 9.27271 6.48485Z" fill="white"/>
<circle cx="108" cy="12" r="12" fill="#444444"/>
<path d="M110.004 14V17L116.004 12L110.004 7V10C104.574 9.92936 100.004 11.5 100.004 17C100.004 17 99.5038 13.5 110.004 14Z" fill="white"/>
</svg>
