<svg width="64" height="64" viewBox="0 0 64 64" fill="none" xmlns="http://www.w3.org/2000/svg">
<path d="M33.9592 58.7755L31.3469 48.3265H43.102L33.9592 58.7755Z" fill="#4352B8"/>
<path d="M33.2073 15.6735H54.8572C57.0213 15.6735 58.7756 17.4278 58.7756 19.5918V54.8571C58.7756 57.0212 57.0213 58.7755 54.8572 58.7755H33.9593L43.1021 48.3265L33.2073 15.6735Z" fill="#DBDBDB"/>
<path d="M41.8929 44.3357C42.8584 43.3916 44.0634 42.197 44.8877 41.3225C46.4759 43.0444 48.5254 45.115 51.1759 47.5826L52.8981 45.8606C50.0599 43.2858 47.9781 41.2421 46.449 39.6006C48.4942 37.1812 50.5714 34.1368 51.0174 31.3469H56.1634V28.7347H45.7144V24.8163H41.7961V28.7347H37.1653L37.9569 31.3469H48.554C47.8656 33.7615 46.3499 36.0418 44.8716 37.8143C42.248 34.7084 42.2373 33.7 42.2373 33.7H39.5117C39.5117 33.7 39.6244 35.2127 43.305 39.5255C42.7637 40.0788 41.8687 40.8635 41.0508 41.5569L41.8929 44.3357Z" fill="#607988"/>
<path fill-rule="evenodd" clip-rule="evenodd" d="M9.14298 5.22449C6.97892 5.22449 5.22461 6.9788 5.22461 9.14285V44.4082C5.22461 46.5722 6.97892 48.3265 9.14298 48.3265H43.1022L30.0409 5.22449H9.14298ZM26.2482 20.7724C24.7989 19.3231 22.8742 18.447 20.8294 18.3059C18.7846 18.1648 16.7578 18.7682 15.1231 20.0048C13.4885 21.2414 12.3565 23.0276 11.9359 25.0337C11.5153 27.0398 11.8347 29.1302 12.8351 30.9191C13.8355 32.7081 15.4493 34.0748 17.3785 34.7668C19.3079 35.4589 21.4223 35.4296 23.3318 34.6844C25.2412 33.9392 26.8165 32.5283 27.7669 30.7123C28.0969 30.0818 28.3439 29.4171 28.5057 28.7348C28.6497 28.1274 28.7264 27.5058 28.7342 26.8816C28.7345 26.8554 28.7348 26.8293 28.7348 26.803V26.7475C28.7329 26.1606 28.6701 25.5721 28.5453 24.9914C28.5319 24.9289 28.5177 24.8666 28.5029 24.8043L28.4522 24.8164H20.8981V28.7348H24.3791C24.3533 28.7893 24.3264 28.8433 24.2983 28.8969C23.7862 29.8755 22.9372 30.6357 21.9083 31.0372C20.8795 31.4388 19.7401 31.4546 18.7004 31.0817C17.6609 30.7088 16.7911 29.9723 16.2522 29.0083C15.7132 28.0444 15.541 26.9179 15.7675 25.837C15.9943 24.756 16.6043 23.7934 17.485 23.1271C18.3659 22.4608 19.4581 22.1356 20.5599 22.2116C21.6618 22.2877 22.699 22.7598 23.4799 23.5407L26.2482 20.7724Z" fill="#4285F4"/>
<path d="M20.8293 18.3059C22.8741 18.447 24.7988 19.3231 26.2481 20.7724L23.4798 23.5408C22.6989 22.7598 21.6617 22.2877 20.5598 22.2117C19.458 22.1356 18.3658 22.4609 17.4849 23.1272C16.6042 23.7935 15.9942 24.756 15.7674 25.837C15.5409 26.918 15.7131 28.0444 16.2521 29.0084C16.791 29.9724 17.6608 30.7088 18.7003 31.0817C19.74 31.4547 20.8794 31.4389 21.9082 31.0373C22.9371 30.6358 23.7861 29.8756 24.2982 28.897C24.3263 28.8434 24.3532 28.7893 24.379 28.7348H20.898V24.8164H28.4521L28.5028 24.8043C28.5176 24.8667 28.5318 24.929 28.5452 24.9915C28.67 25.5722 28.7328 26.1607 28.7348 26.7476C28.7348 26.7661 28.7348 26.7846 28.7348 26.803C28.7348 26.8294 28.7344 26.8555 28.7341 26.8817C28.7263 27.5059 28.6496 28.1275 28.5056 28.7348C28.3438 29.4172 28.0968 30.0819 27.7668 30.7123C26.8164 32.5283 25.2411 33.9392 23.3317 34.6844C21.4223 35.4296 19.3078 35.459 17.3784 34.7669C15.4492 34.0749 13.8354 32.7082 12.835 30.9191C11.8346 29.1302 11.5152 27.0398 11.9358 25.0338C12.3564 23.0277 13.4884 21.2415 15.123 20.0049C16.7577 18.7683 18.7845 18.1648 20.8293 18.3059Z" fill="#EEEEEE"/>
<path d="M33.9592 15.6735H54.8572C57.0212 15.6735 58.7756 17.4278 58.7756 19.5918V40.4898L33.9592 15.6735Z" fill="url(#paint0_linear)"/>
<path d="M5.22461 9.14285C5.22461 6.9788 6.97892 5.22449 9.14298 5.22449H30.0409L33.2072 15.6735H54.8572C57.0213 15.6735 58.7756 17.4278 58.7756 19.5918V54.8571C58.7756 57.0212 57.0213 58.7755 54.8572 58.7755H33.9593L31.3471 48.3265H9.14298C6.97892 48.3265 5.22461 46.5722 5.22461 44.4082V9.14285Z" fill="url(#paint1_linear)"/>
<defs>
<linearGradient id="paint0_linear" x1="33.9592" y1="26.9536" x2="58.7756" y2="26.9536" gradientUnits="userSpaceOnUse">
<stop stop-color="white" stop-opacity="0.2"/>
<stop offset="1" stop-color="white" stop-opacity="0.02"/>
</linearGradient>
<linearGradient id="paint1_linear" x1="5.22461" y1="32.6531" x2="58.7756" y2="32.6531" gradientUnits="userSpaceOnUse">
<stop stop-color="white" stop-opacity="0.1"/>
<stop offset="1" stop-color="white" stop-opacity="0"/>
</linearGradient>
</defs>
</svg>
