<svg width="254" height="120" viewBox="0 0 254 120" fill="none" xmlns="http://www.w3.org/2000/svg">
<path d="M128.96 86.7754L126.348 76.3264H138.103L128.96 86.7754Z" fill="#4352B8"/>
<path d="M128.207 43.6736H149.857C152.021 43.6736 153.775 45.4279 153.775 47.592V82.8573C153.775 85.0213 152.021 86.7756 149.857 86.7756H128.959L138.102 76.3266L128.207 43.6736Z" fill="#DBDBDB"/>
<path d="M136.894 72.3358C137.859 71.3917 139.064 70.1971 139.888 69.3226C141.477 71.0446 143.526 73.1151 146.177 75.5827L147.899 73.8608C145.061 71.2859 142.979 69.2422 141.45 67.6007C143.495 65.1813 145.572 62.1369 146.018 59.347H151.164V56.7348H140.715V52.8164H136.797V56.7348H132.166L132.958 59.347H143.555C142.866 61.7616 141.351 64.042 139.872 65.8144C137.249 62.7086 137.238 61.7001 137.238 61.7001H134.512C134.512 61.7001 134.625 63.2128 138.306 67.5256C137.764 68.0789 136.869 68.8636 136.052 69.557L136.894 72.3358Z" fill="#607988"/>
<path fill-rule="evenodd" clip-rule="evenodd" d="M104.143 33.2246C101.979 33.2246 100.225 34.9789 100.225 37.143V72.4083C100.225 74.5723 101.979 76.3266 104.143 76.3266H138.102L125.041 33.2246H104.143ZM121.248 48.7725C119.799 47.3232 117.874 46.4471 115.829 46.306C113.785 46.1649 111.758 46.7684 110.123 48.005C108.489 49.2416 107.356 51.0278 106.936 53.0338C106.515 55.0399 106.835 57.1303 107.835 58.9192C108.835 60.7082 110.449 62.075 112.379 62.7669C114.308 63.459 116.422 63.4297 118.332 62.6845C120.241 61.9393 121.816 60.5284 122.767 58.7124C123.097 58.082 123.344 57.4173 123.506 56.7349C123.65 56.1276 123.726 55.5059 123.734 54.8817C123.735 54.8556 123.735 54.8294 123.735 54.8031V54.7476C123.733 54.1607 123.67 53.5722 123.545 52.9916C123.532 52.9291 123.518 52.8667 123.503 52.8044L123.452 52.8165H115.898V56.7349H119.379C119.353 56.7894 119.326 56.8435 119.298 56.897C118.786 57.8757 117.937 58.6359 116.908 59.0373C115.879 59.439 114.74 59.4547 113.7 59.0818C112.661 58.7089 111.791 57.9724 111.252 57.0085C110.713 56.0445 110.541 54.9181 110.768 53.8371C110.994 52.7561 111.604 51.7935 112.485 51.1273C113.366 50.461 114.458 50.1357 115.56 50.2118C116.662 50.2878 117.699 50.7599 118.48 51.5408L121.248 48.7725Z" fill="#4285F4"/>
<path d="M115.83 46.3058C117.875 46.4469 119.8 47.323 121.249 48.7723L118.481 51.5406C117.7 50.7597 116.662 50.2876 115.561 50.2116C114.459 50.1355 113.367 50.4608 112.486 51.1271C111.605 51.7934 110.995 52.7559 110.768 53.8369C110.542 54.9179 110.714 56.0443 111.253 57.0083C111.792 57.9722 112.662 58.7087 113.701 59.0816C114.741 59.4546 115.88 59.4388 116.909 59.0371C117.938 58.6357 118.787 57.8755 119.299 56.8968C119.327 56.8433 119.354 56.7892 119.38 56.7347H115.899V52.8163H123.453L123.504 52.8042C123.518 52.8665 123.533 52.9289 123.546 52.9914C123.671 53.5721 123.734 54.1605 123.735 54.7474C123.735 54.7659 123.735 54.7844 123.735 54.8029C123.735 54.8292 123.735 54.8554 123.735 54.8815C123.727 55.5057 123.65 56.1274 123.506 56.7347C123.345 57.4171 123.098 58.0818 122.768 58.7122C121.817 60.5282 120.242 61.9391 118.332 62.6843C116.423 63.4295 114.309 63.4589 112.379 62.7667C110.45 62.0748 108.836 60.7081 107.836 58.919C106.835 57.1301 106.516 55.0397 106.937 53.0336C107.357 51.0276 108.489 49.2414 110.124 48.0048C111.758 46.7682 113.785 46.1647 115.83 46.3058Z" fill="#EEEEEE"/>
<path d="M128.959 43.6736H149.857C152.021 43.6736 153.775 45.4279 153.775 47.592V68.4899L128.959 43.6736Z" fill="url(#paint0_linear_126_4511)"/>
<path d="M100.225 37.143C100.225 34.9789 101.979 33.2246 104.143 33.2246H125.041L128.207 43.6736H149.857C152.021 43.6736 153.776 45.4279 153.776 47.592V82.8573C153.776 85.0213 152.021 86.7756 149.857 86.7756H128.959L126.347 76.3266H104.143C101.979 76.3266 100.225 74.5723 100.225 72.4083V37.143Z" fill="url(#paint1_linear_126_4511)"/>
<defs>
<linearGradient id="paint0_linear_126_4511" x1="128.959" y1="54.9537" x2="153.775" y2="54.9537" gradientUnits="userSpaceOnUse">
<stop stop-color="white" stop-opacity="0.2"/>
<stop offset="1" stop-color="white" stop-opacity="0.02"/>
</linearGradient>
<linearGradient id="paint1_linear_126_4511" x1="100.225" y1="60.6532" x2="153.776" y2="60.6532" gradientUnits="userSpaceOnUse">
<stop stop-color="white" stop-opacity="0.1"/>
<stop offset="1" stop-color="white" stop-opacity="0"/>
</linearGradient>
</defs>
</svg>
