<svg width="254" height="120" viewBox="0 0 254 120" fill="none" xmlns="http://www.w3.org/2000/svg">
<path d="M73.1953 70H69.5742V62.6055H62.7891V70H59.1562V52.8672H62.7891V59.582H69.5742V52.8672H73.1953V70ZM82.6758 59.1953C81.918 59.1953 81.3242 59.4375 80.8945 59.9219C80.4648 60.3984 80.2188 61.0781 80.1562 61.9609H85.1719C85.1562 61.0781 84.9258 60.3984 84.4805 59.9219C84.0352 59.4375 83.4336 59.1953 82.6758 59.1953ZM83.1797 70.2344C81.0703 70.2344 79.4219 69.6523 78.2344 68.4883C77.0469 67.3242 76.4531 65.6758 76.4531 63.543C76.4531 61.3477 77 59.6523 78.0938 58.457C79.1953 57.2539 80.7148 56.6523 82.6523 56.6523C84.5039 56.6523 85.9453 57.1797 86.9766 58.2344C88.0078 59.2891 88.5234 60.7461 88.5234 62.6055V64.3398H80.0742C80.1133 65.3555 80.4141 66.1484 80.9766 66.7188C81.5391 67.2891 82.3281 67.5742 83.3438 67.5742C84.1328 67.5742 84.8789 67.4922 85.582 67.3281C86.2852 67.1641 87.0195 66.9023 87.7852 66.543V69.3086C87.1602 69.6211 86.4922 69.8516 85.7812 70C85.0703 70.1562 84.2031 70.2344 83.1797 70.2344ZM95.0039 70H91.4297V51.7656H95.0039V70ZM102.34 70H98.7656V51.7656H102.34V70ZM108.949 63.4258C108.949 64.7227 109.16 65.7031 109.582 66.3672C110.012 67.0312 110.707 67.3633 111.668 67.3633C112.621 67.3633 113.305 67.0352 113.719 66.3789C114.141 65.7148 114.352 64.7305 114.352 63.4258C114.352 62.1289 114.141 61.1562 113.719 60.5078C113.297 59.8594 112.605 59.5352 111.645 59.5352C110.691 59.5352 110.004 59.8594 109.582 60.5078C109.16 61.1484 108.949 62.1211 108.949 63.4258ZM118.008 63.4258C118.008 65.5586 117.445 67.2266 116.32 68.4297C115.195 69.6328 113.629 70.2344 111.621 70.2344C110.363 70.2344 109.254 69.9609 108.293 69.4141C107.332 68.8594 106.594 68.0664 106.078 67.0352C105.562 66.0039 105.305 64.8008 105.305 63.4258C105.305 61.2852 105.863 59.6211 106.98 58.4336C108.098 57.2461 109.668 56.6523 111.691 56.6523C112.949 56.6523 114.059 56.9258 115.02 57.4727C115.98 58.0195 116.719 58.8047 117.234 59.8281C117.75 60.8516 118.008 62.0508 118.008 63.4258ZM144.164 70H140.027L137.707 61C137.621 60.6797 137.473 60.0195 137.262 59.0195C137.059 58.0117 136.941 57.3359 136.91 56.9922C136.863 57.4141 136.746 58.0938 136.559 59.0312C136.371 59.9609 136.227 60.625 136.125 61.0234L133.816 70H129.691L125.32 52.8672H128.895L131.086 62.2188C131.469 63.9453 131.746 65.4414 131.918 66.707C131.965 66.2617 132.07 65.5742 132.234 64.6445C132.406 63.707 132.566 62.9805 132.715 62.4648L135.211 52.8672H138.645L141.141 62.4648C141.25 62.8945 141.387 63.5508 141.551 64.4336C141.715 65.3164 141.84 66.0742 141.926 66.707C142.004 66.0977 142.129 65.3398 142.301 64.4336C142.473 63.5195 142.629 62.7812 142.77 62.2188L144.949 52.8672H148.523L144.164 70ZM153.246 63.4258C153.246 64.7227 153.457 65.7031 153.879 66.3672C154.309 67.0312 155.004 67.3633 155.965 67.3633C156.918 67.3633 157.602 67.0352 158.016 66.3789C158.438 65.7148 158.648 64.7305 158.648 63.4258C158.648 62.1289 158.438 61.1562 158.016 60.5078C157.594 59.8594 156.902 59.5352 155.941 59.5352C154.988 59.5352 154.301 59.8594 153.879 60.5078C153.457 61.1484 153.246 62.1211 153.246 63.4258ZM162.305 63.4258C162.305 65.5586 161.742 67.2266 160.617 68.4297C159.492 69.6328 157.926 70.2344 155.918 70.2344C154.66 70.2344 153.551 69.9609 152.59 69.4141C151.629 68.8594 150.891 68.0664 150.375 67.0352C149.859 66.0039 149.602 64.8008 149.602 63.4258C149.602 61.2852 150.16 59.6211 151.277 58.4336C152.395 57.2461 153.965 56.6523 155.988 56.6523C157.246 56.6523 158.355 56.9258 159.316 57.4727C160.277 58.0195 161.016 58.8047 161.531 59.8281C162.047 60.8516 162.305 62.0508 162.305 63.4258ZM172.57 56.6523C173.055 56.6523 173.457 56.6875 173.777 56.7578L173.508 60.1094C173.219 60.0312 172.867 59.9922 172.453 59.9922C171.312 59.9922 170.422 60.2852 169.781 60.8711C169.148 61.457 168.832 62.2773 168.832 63.332V70H165.258V56.8984H167.965L168.492 59.1016H168.668C169.074 58.3672 169.621 57.7773 170.309 57.332C171.004 56.8789 171.758 56.6523 172.57 56.6523ZM179.73 70H176.156V51.7656H179.73V70ZM187.641 70.2344C186.102 70.2344 184.891 69.6367 184.008 68.4414C183.133 67.2461 182.695 65.5898 182.695 63.4727C182.695 61.3242 183.141 59.6523 184.031 58.457C184.93 57.2539 186.164 56.6523 187.734 56.6523C189.383 56.6523 190.641 57.293 191.508 58.5742H191.625C191.445 57.5977 191.355 56.7266 191.355 55.9609V51.7656H194.941V70H192.199L191.508 68.3008H191.355C190.543 69.5898 189.305 70.2344 187.641 70.2344ZM188.895 67.3867C189.809 67.3867 190.477 67.1211 190.898 66.5898C191.328 66.0586 191.562 65.1562 191.602 63.8828V63.4961C191.602 62.0898 191.383 61.082 190.945 60.4727C190.516 59.8633 189.812 59.5586 188.836 59.5586C188.039 59.5586 187.418 59.8984 186.973 60.5781C186.535 61.25 186.316 62.2305 186.316 63.5195C186.316 64.8086 186.539 65.7773 186.984 66.4258C187.43 67.0664 188.066 67.3867 188.895 67.3867Z" fill="url(#paint0_linear_126_4063)"/>
<defs>
<linearGradient id="paint0_linear_126_4063" x1="127" y1="44" x2="127" y2="77" gradientUnits="userSpaceOnUse">
<stop stop-color="#FF8E3D"/>
<stop offset="1" stop-color="#FF6F3D"/>
</linearGradient>
</defs>
</svg>
