<svg width="136" height="20" viewBox="0 0 136 20" fill="none" xmlns="http://www.w3.org/2000/svg">
<path d="M14.1953 19H10.5742V11.6055H3.78906V19H0.15625V1.86719H3.78906V8.58203H10.5742V1.86719H14.1953V19ZM23.6758 8.19531C22.918 8.19531 22.3242 8.4375 21.8945 8.92188C21.4648 9.39844 21.2188 10.0781 21.1562 10.9609H26.1719C26.1562 10.0781 25.9258 9.39844 25.4805 8.92188C25.0352 8.4375 24.4336 8.19531 23.6758 8.19531ZM24.1797 19.2344C22.0703 19.2344 20.4219 18.6523 19.2344 17.4883C18.0469 16.3242 17.4531 14.6758 17.4531 12.543C17.4531 10.3477 18 8.65234 19.0938 7.45703C20.1953 6.25391 21.7148 5.65234 23.6523 5.65234C25.5039 5.65234 26.9453 6.17969 27.9766 7.23438C29.0078 8.28906 29.5234 9.74609 29.5234 11.6055V13.3398H21.0742C21.1133 14.3555 21.4141 15.1484 21.9766 15.7188C22.5391 16.2891 23.3281 16.5742 24.3438 16.5742C25.1328 16.5742 25.8789 16.4922 26.582 16.3281C27.2852 16.1641 28.0195 15.9023 28.7852 15.543V18.3086C28.1602 18.6211 27.4922 18.8516 26.7812 19C26.0703 19.1562 25.2031 19.2344 24.1797 19.2344ZM36.0039 19H32.4297V0.765625H36.0039V19ZM43.3398 19H39.7656V0.765625H43.3398V19ZM49.9492 12.4258C49.9492 13.7227 50.1602 14.7031 50.582 15.3672C51.0117 16.0312 51.707 16.3633 52.668 16.3633C53.6211 16.3633 54.3047 16.0352 54.7188 15.3789C55.1406 14.7148 55.3516 13.7305 55.3516 12.4258C55.3516 11.1289 55.1406 10.1562 54.7188 9.50781C54.2969 8.85938 53.6055 8.53516 52.6445 8.53516C51.6914 8.53516 51.0039 8.85938 50.582 9.50781C50.1602 10.1484 49.9492 11.1211 49.9492 12.4258ZM59.0078 12.4258C59.0078 14.5586 58.4453 16.2266 57.3203 17.4297C56.1953 18.6328 54.6289 19.2344 52.6211 19.2344C51.3633 19.2344 50.2539 18.9609 49.293 18.4141C48.332 17.8594 47.5938 17.0664 47.0781 16.0352C46.5625 15.0039 46.3047 13.8008 46.3047 12.4258C46.3047 10.2852 46.8633 8.62109 47.9805 7.43359C49.0977 6.24609 50.668 5.65234 52.6914 5.65234C53.9492 5.65234 55.0586 5.92578 56.0195 6.47266C56.9805 7.01953 57.7188 7.80469 58.2344 8.82812C58.75 9.85156 59.0078 11.0508 59.0078 12.4258ZM85.1641 19H81.0273L78.707 10C78.6211 9.67969 78.4727 9.01953 78.2617 8.01953C78.0586 7.01172 77.9414 6.33594 77.9102 5.99219C77.8633 6.41406 77.7461 7.09375 77.5586 8.03125C77.3711 8.96094 77.2266 9.625 77.125 10.0234L74.8164 19H70.6914L66.3203 1.86719H69.8945L72.0859 11.2188C72.4688 12.9453 72.7461 14.4414 72.918 15.707C72.9648 15.2617 73.0703 14.5742 73.2344 13.6445C73.4062 12.707 73.5664 11.9805 73.7148 11.4648L76.2109 1.86719H79.6445L82.1406 11.4648C82.25 11.8945 82.3867 12.5508 82.5508 13.4336C82.7148 14.3164 82.8398 15.0742 82.9258 15.707C83.0039 15.0977 83.1289 14.3398 83.3008 13.4336C83.4727 12.5195 83.6289 11.7812 83.7695 11.2188L85.9492 1.86719H89.5234L85.1641 19ZM94.2461 12.4258C94.2461 13.7227 94.457 14.7031 94.8789 15.3672C95.3086 16.0312 96.0039 16.3633 96.9648 16.3633C97.918 16.3633 98.6016 16.0352 99.0156 15.3789C99.4375 14.7148 99.6484 13.7305 99.6484 12.4258C99.6484 11.1289 99.4375 10.1562 99.0156 9.50781C98.5938 8.85938 97.9023 8.53516 96.9414 8.53516C95.9883 8.53516 95.3008 8.85938 94.8789 9.50781C94.457 10.1484 94.2461 11.1211 94.2461 12.4258ZM103.305 12.4258C103.305 14.5586 102.742 16.2266 101.617 17.4297C100.492 18.6328 98.9258 19.2344 96.918 19.2344C95.6602 19.2344 94.5508 18.9609 93.5898 18.4141C92.6289 17.8594 91.8906 17.0664 91.375 16.0352C90.8594 15.0039 90.6016 13.8008 90.6016 12.4258C90.6016 10.2852 91.1602 8.62109 92.2773 7.43359C93.3945 6.24609 94.9648 5.65234 96.9883 5.65234C98.2461 5.65234 99.3555 5.92578 100.316 6.47266C101.277 7.01953 102.016 7.80469 102.531 8.82812C103.047 9.85156 103.305 11.0508 103.305 12.4258ZM113.57 5.65234C114.055 5.65234 114.457 5.6875 114.777 5.75781L114.508 9.10938C114.219 9.03125 113.867 8.99219 113.453 8.99219C112.312 8.99219 111.422 9.28516 110.781 9.87109C110.148 10.457 109.832 11.2773 109.832 12.332V19H106.258V5.89844H108.965L109.492 8.10156H109.668C110.074 7.36719 110.621 6.77734 111.309 6.33203C112.004 5.87891 112.758 5.65234 113.57 5.65234ZM120.73 19H117.156V0.765625H120.73V19ZM128.641 19.2344C127.102 19.2344 125.891 18.6367 125.008 17.4414C124.133 16.2461 123.695 14.5898 123.695 12.4727C123.695 10.3242 124.141 8.65234 125.031 7.45703C125.93 6.25391 127.164 5.65234 128.734 5.65234C130.383 5.65234 131.641 6.29297 132.508 7.57422H132.625C132.445 6.59766 132.355 5.72656 132.355 4.96094V0.765625H135.941V19H133.199L132.508 17.3008H132.355C131.543 18.5898 130.305 19.2344 128.641 19.2344ZM129.895 16.3867C130.809 16.3867 131.477 16.1211 131.898 15.5898C132.328 15.0586 132.562 14.1562 132.602 12.8828V12.4961C132.602 11.0898 132.383 10.082 131.945 9.47266C131.516 8.86328 130.812 8.55859 129.836 8.55859C129.039 8.55859 128.418 8.89844 127.973 9.57812C127.535 10.25 127.316 11.2305 127.316 12.5195C127.316 13.8086 127.539 14.7773 127.984 15.4258C128.43 16.0664 129.066 16.3867 129.895 16.3867Z" fill="url(#paint0_linear)"/>
<defs>
<linearGradient id="paint0_linear" x1="68" y1="-7" x2="68" y2="26" gradientUnits="userSpaceOnUse">
<stop stop-color="#FF8E3D"/>
<stop offset="1" stop-color="#FF6F3D"/>
</linearGradient>
</defs>
</svg>
