<svg width="160" height="59" viewBox="0 0 160 59" fill="none" xmlns="http://www.w3.org/2000/svg">
<path d="M36.9961 7.35938L45.249 3.50098L45.627 4.33594L38.9473 7.36816L45.627 10.3828L45.249 11.2178L36.9961 7.35938ZM55.1367 6.67383C55.0664 6.11133 54.7705 5.67773 54.249 5.37305C53.7275 5.06836 53.0186 4.91602 52.1221 4.91602C51.4541 4.91602 50.8975 5.03906 50.4521 5.28516C50.0068 5.53125 49.7842 5.8418 49.7842 6.2168C49.7842 6.7207 50.0244 7.08984 50.5049 7.32422C50.9854 7.55273 51.8057 7.69336 52.9658 7.74609C54.2021 7.79883 55.0693 7.98633 55.5674 8.30859C56.0596 8.63086 56.3057 9.16406 56.3057 9.9082C56.3057 10.6172 55.9775 11.1885 55.3213 11.6221C54.665 12.0498 53.7979 12.2637 52.7197 12.2637C51.6416 12.2637 50.7246 12.0557 49.9688 11.6396C49.8223 11.5635 49.6992 11.5488 49.5996 11.5957C49.5059 11.6426 49.4443 11.748 49.415 11.9121L49.3535 12.2461L48.5098 12.1582C48.627 11.6543 48.6855 11.2178 48.6855 10.8486C48.6855 10.4854 48.627 10.0518 48.5098 9.54785L49.3535 9.43359C49.4297 10.0371 49.7549 10.5176 50.3291 10.875C50.9092 11.2324 51.6533 11.4111 52.5615 11.4111C53.4229 11.4111 54.0967 11.2822 54.583 11.0244C55.0693 10.7666 55.3125 10.4092 55.3125 9.95215C55.3125 9.45996 55.1455 9.13184 54.8115 8.96777C54.4775 8.80957 53.748 8.7041 52.623 8.65137C51.3398 8.59277 50.3848 8.36719 49.7578 7.97461C49.1309 7.58203 48.8174 7.01074 48.8174 6.26074C48.8174 5.59863 49.1191 5.06836 49.7227 4.66992C50.332 4.26562 51.1318 4.06348 52.1221 4.06348C52.9834 4.06348 53.751 4.22461 54.4248 4.54688C54.6064 4.63477 54.7559 4.64941 54.873 4.59082C54.9902 4.53223 55.0664 4.40625 55.1016 4.21289L55.1279 4.06348L55.9189 4.13379C55.8076 4.59668 55.7578 5.00684 55.7695 5.36426C55.7812 5.72754 55.8574 6.1377 55.998 6.59473L55.1367 6.67383ZM67.4062 10.7695C66.6621 11.3086 65.9883 11.6924 65.3848 11.9209C64.7871 12.1494 64.1455 12.2637 63.46 12.2637C62.1943 12.2637 61.1455 11.877 60.3135 11.1035C59.4814 10.3242 59.0654 9.3457 59.0654 8.16797C59.0654 6.98438 59.4727 6.00586 60.2871 5.23242C61.1016 4.45312 62.1299 4.06348 63.3721 4.06348C64.21 4.05762 64.9922 4.25684 65.7188 4.66113C65.8594 4.7373 65.9766 4.75781 66.0703 4.72266C66.1641 4.68164 66.2285 4.58496 66.2637 4.43262L66.3604 4.03711L67.1953 4.16895C67.1133 4.68457 67.0723 5.14453 67.0723 5.54883C67.0723 5.95898 67.1279 6.42188 67.2393 6.9375L66.3955 7.05176C66.3369 6.39551 66.0645 5.88574 65.5781 5.52246C65.0977 5.15918 64.4561 4.97754 63.6533 4.97754C62.5635 4.97754 61.6963 5.28516 61.0518 5.90039C60.4072 6.50977 60.085 7.33301 60.085 8.37012C60.085 9.22559 60.4248 9.94043 61.1045 10.5146C61.7842 11.083 62.6338 11.3672 63.6533 11.3672C64.1982 11.3672 64.7227 11.2676 65.2266 11.0684C65.7305 10.8691 66.3105 10.5322 66.9668 10.0576L67.4062 10.7695ZM72.0732 11.1387V5.19727H69.9199V4.33594H71.458H72.9961V6.26953C73.793 5.53125 74.4521 5.00391 74.9736 4.6875C75.6533 4.27148 76.3594 4.06348 77.0918 4.06348C77.584 4.06348 77.9707 4.18359 78.252 4.42383C78.5332 4.66406 78.7002 5.01855 78.7529 5.4873L77.8477 5.55762C77.7773 5.33496 77.6719 5.18262 77.5312 5.10059C77.3906 5.01855 77.1621 4.97754 76.8457 4.97754C76.3652 4.97754 75.8232 5.17676 75.2197 5.5752C74.6631 5.93848 73.9189 6.5625 72.9873 7.44727V11.1387H76.5557V12H73.1631H69.7705V11.1387H72.0732ZM84.4395 11.1387V5.19727H81.75V4.33594H83.5518H85.3535V11.1387H88.5439V12H84.8789H81.2139V11.1387H84.4395ZM84.0264 0.143555H85.3975V2.34082H84.0264V0.143555ZM92.0244 5.19727H90.4863V4.33594H91.708H92.9385V5.71582C93.0732 5.54004 93.2197 5.37305 93.3779 5.21484C94.1631 4.44727 95.1211 4.06348 96.252 4.06348C97.3887 4.06348 98.3467 4.46191 99.126 5.25879C99.9111 6.0498 100.304 7.01953 100.304 8.16797C100.304 9.25781 99.9111 10.2129 99.126 11.0332C98.3408 11.8535 97.4238 12.2637 96.375 12.2637C95.1797 12.2637 94.2012 11.8682 93.4395 11.0771C93.2578 10.8838 93.0908 10.6729 92.9385 10.4443V13.9688H95.6807V14.8301H93.0791H90.4688V13.9688H92.0244V5.19727ZM96.0586 11.3408C96.9785 11.3408 97.7432 11.0391 98.3525 10.4355C98.9619 9.83203 99.2666 9.07617 99.2666 8.16797C99.2666 7.23633 98.9795 6.47461 98.4053 5.88281C97.8369 5.28516 97.1016 4.98633 96.1992 4.98633C95.2441 4.98633 94.4502 5.27637 93.8174 5.85645C93.1904 6.43652 92.877 7.16309 92.877 8.03613C92.877 8.96191 93.1846 9.74414 93.7998 10.3828C94.415 11.0215 95.168 11.3408 96.0586 11.3408ZM110.666 11.2617C109.336 11.9297 108.073 12.2637 106.878 12.2637C105.923 12.2637 105.196 12.0498 104.698 11.6221C104.206 11.1885 103.96 10.5586 103.96 9.73242V5.21484H102.686V4.33594H103.96V1.88379H104.874V4.33594H109.629V5.21484H104.874V9.05566C104.874 9.92871 105.018 10.5293 105.305 10.8574C105.598 11.1855 106.131 11.3496 106.904 11.3496C108.088 11.3438 109.31 11.0127 110.569 10.3564L110.666 11.2617ZM121.749 7.35938L113.496 11.2178L113.118 10.3828L119.798 7.36816L113.118 4.33594L113.496 3.50098L121.749 7.35938Z" fill="#444444"/>
<path d="M7.45605 24.4795L1.91895 36.3887L0.1875 35.6064L5.70703 23.7148L7.45605 24.4795ZM18.2666 24.4795L12.7295 36.3887L10.998 35.6064L16.5176 23.7148L18.2666 24.4795ZM21.6855 33.1279V26.7559H20.4023V24.8838H22.6699H24.9463V26.7559H23.6631V28.8125H27.2227V26.7559H25.9395V24.8838H28.207H30.4834V26.7559H29.2002V33.1279H30.4834V35H28.2158H25.9395V33.1279H27.2227V30.6846H23.6631V33.1279H24.9463V35H22.6787H20.4023V33.1279H21.6855ZM35.2822 33.1279V28.9707H32.7422V27.0986H35.001H37.2598V33.1279H40.248V35H36.249H32.2412V33.1279H35.2822ZM34.7373 23.1611H37.1982V26.0264H34.7373V23.1611ZM46.875 35.7119C47.4785 35.7119 47.9355 35.5977 48.2461 35.3691C48.5625 35.1406 48.7207 34.8066 48.7207 34.3672V33.9453C48.0586 34.5195 47.2471 34.8096 46.2861 34.8154C45.1084 34.8154 44.1328 34.4346 43.3594 33.6729C42.5859 32.9111 42.1992 31.9502 42.1992 30.79C42.1992 29.6533 42.5859 28.71 43.3594 27.96C44.1387 27.21 45.1201 26.835 46.3037 26.835C47.2646 26.835 48.0703 27.1455 48.7207 27.7666V27.0986H50.4082H52.1045V28.9707H50.6982V34.5078C50.6982 35.498 50.376 36.2656 49.7314 36.8105C49.0928 37.3555 48.1904 37.6279 47.0244 37.6279C46.5498 37.6279 45.9844 37.5781 45.3281 37.4785C44.6719 37.3789 43.8281 37.2148 42.7969 36.9863L43.2451 35.0967C44.1299 35.3369 44.8213 35.498 45.3193 35.5801C45.8174 35.668 46.3359 35.7119 46.875 35.7119ZM46.4971 28.707C45.8232 28.707 45.2783 28.9004 44.8623 29.2871C44.4463 29.6738 44.2383 30.1807 44.2383 30.8076C44.2383 31.4404 44.4463 31.9561 44.8623 32.3545C45.2783 32.7471 45.8203 32.9434 46.4883 32.9434C47.168 32.9434 47.7158 32.75 48.1318 32.3633C48.5537 31.9707 48.7646 31.458 48.7646 30.8252C48.7646 30.1924 48.5537 29.6826 48.1318 29.2959C47.7158 28.9033 47.1709 28.707 46.4971 28.707ZM54.2051 33.1279V25.7363L52.7021 25.8594L52.5615 24.0225L54.3721 23.873L56.1826 23.7236V27.6611L56.5693 27.4502C57.3018 27.04 58.0195 26.835 58.7227 26.835C59.7188 26.835 60.4746 27.0693 60.9902 27.5381C61.5117 28.001 61.7725 28.6807 61.7725 29.5771V33.1279H63.1172V35H60.7793H58.4414V33.1279H59.7949V30.1221C59.7949 29.6182 59.71 29.2666 59.54 29.0674C59.3701 28.8682 59.0684 28.7686 58.6348 28.7686C58.125 28.7686 57.6299 28.8975 57.1494 29.1553C56.8154 29.3252 56.4932 29.5625 56.1826 29.8672V33.1279H57.457V35H55.1279H52.79V33.1279H54.2051ZM67.7139 33.1279V25.7363L64.8838 25.9648L64.7344 24.1279L67.2129 23.9258L69.6914 23.7236V33.1279H72.6797V35H68.6807H64.6729V33.1279H67.7139ZM78.5244 33.1279V28.9707H75.9844V27.0986H78.2432H80.502V33.1279H83.4902V35H79.4912H75.4834V33.1279H78.5244ZM77.9795 23.1611H80.4404V26.0264H77.9795V23.1611ZM90.1172 35.7119C90.7207 35.7119 91.1777 35.5977 91.4883 35.3691C91.8047 35.1406 91.9629 34.8066 91.9629 34.3672V33.9453C91.3008 34.5195 90.4893 34.8096 89.5283 34.8154C88.3506 34.8154 87.375 34.4346 86.6016 33.6729C85.8281 32.9111 85.4414 31.9502 85.4414 30.79C85.4414 29.6533 85.8281 28.71 86.6016 27.96C87.3809 27.21 88.3623 26.835 89.5459 26.835C90.5068 26.835 91.3125 27.1455 91.9629 27.7666V27.0986H93.6504H95.3467V28.9707H93.9404V34.5078C93.9404 35.498 93.6182 36.2656 92.9736 36.8105C92.335 37.3555 91.4326 37.6279 90.2666 37.6279C89.792 37.6279 89.2266 37.5781 88.5703 37.4785C87.9141 37.3789 87.0703 37.2148 86.0391 36.9863L86.4873 35.0967C87.3721 35.3369 88.0635 35.498 88.5615 35.5801C89.0596 35.668 89.5781 35.7119 90.1172 35.7119ZM89.7393 28.707C89.0654 28.707 88.5205 28.9004 88.1045 29.2871C87.6885 29.6738 87.4805 30.1807 87.4805 30.8076C87.4805 31.4404 87.6885 31.9561 88.1045 32.3545C88.5205 32.7471 89.0625 32.9434 89.7305 32.9434C90.4102 32.9434 90.958 32.75 91.374 32.3633C91.7959 31.9707 92.0068 31.458 92.0068 30.8252C92.0068 30.1924 91.7959 29.6826 91.374 29.2959C90.958 28.9033 90.4131 28.707 89.7393 28.707ZM101.095 35.2637C100.069 35.2637 99.2725 35.0264 98.7041 34.5518C98.1357 34.0713 97.8516 33.3975 97.8516 32.5303V28.9795H96.5596V27.0986H97.8516V24.8838H99.8291V27.0986H104.153V28.9795H99.8291V31.8359C99.8291 32.4102 99.9346 32.8057 100.146 33.0225C100.356 33.2334 100.74 33.3389 101.297 33.3389C101.695 33.3389 102.135 33.2686 102.615 33.1279C103.102 32.9873 103.887 32.7031 104.971 32.2754L105.287 34.1211C104.414 34.5137 103.641 34.8037 102.967 34.9912C102.293 35.1729 101.669 35.2637 101.095 35.2637ZM127.146 33.4971C126.29 34.1182 125.531 34.5693 124.869 34.8506C124.207 35.126 123.568 35.2637 122.953 35.2637C121.477 35.2637 120.29 34.877 119.394 34.1035C118.503 33.3242 118.058 32.293 118.058 31.0098C118.058 29.8086 118.5 28.8125 119.385 28.0215C120.275 27.2305 121.397 26.835 122.751 26.835C123.419 26.835 124.146 27.0078 124.931 27.3535L124.975 26.7383L126.908 27.0371C126.791 27.6348 126.735 28.1709 126.741 28.6455C126.747 29.1201 126.82 29.6592 126.961 30.2627L125.071 30.4648C124.972 29.7441 124.772 29.2725 124.474 29.0498C124.181 28.8213 123.612 28.707 122.769 28.707C121.972 28.707 121.327 28.918 120.835 29.3398C120.343 29.7617 120.097 30.3154 120.097 31.001C120.097 31.7451 120.346 32.3223 120.844 32.7324C121.342 33.1367 122.042 33.3389 122.944 33.3389C123.407 33.3389 123.885 33.2334 124.377 33.0225C124.875 32.8115 125.455 32.4658 126.117 31.9854L127.146 33.4971ZM133.544 35.2637C132.144 35.2637 130.983 34.8623 130.063 34.0596C129.144 33.251 128.684 32.2344 128.684 31.0098C128.684 29.8086 129.144 28.8125 130.063 28.0215C130.983 27.2305 132.144 26.835 133.544 26.835C134.944 26.835 136.104 27.2305 137.024 28.0215C137.95 28.8125 138.413 29.8086 138.413 31.0098C138.413 32.2344 137.95 33.251 137.024 34.0596C136.104 34.8623 134.944 35.2637 133.544 35.2637ZM133.544 33.3916C134.388 33.3916 135.07 33.1748 135.592 32.7412C136.113 32.3018 136.374 31.7305 136.374 31.0273C136.374 30.3359 136.113 29.7764 135.592 29.3486C135.07 28.9209 134.388 28.707 133.544 28.707C132.706 28.707 132.026 28.9209 131.505 29.3486C130.983 29.7764 130.723 30.3359 130.723 31.0273C130.723 31.7305 130.983 32.3018 131.505 32.7412C132.026 33.1748 132.706 33.3916 133.544 33.3916ZM143.432 35.2637C142.248 35.2637 141.267 34.8623 140.487 34.0596C139.708 33.251 139.318 32.2344 139.318 31.0098C139.318 29.8613 139.731 28.8799 140.558 28.0654C141.384 27.2451 142.374 26.835 143.528 26.835C144.571 26.8291 145.462 27.1455 146.2 27.7842V25.7363L143.449 25.9561L143.309 24.1191L145.743 23.9258L148.178 23.7236V33.1279H149.602V35H147.905H146.2V34.2354C145.462 34.9209 144.539 35.2637 143.432 35.2637ZM143.801 28.707C143.074 28.707 142.485 28.9209 142.034 29.3486C141.583 29.7764 141.357 30.3359 141.357 31.0273C141.357 31.7305 141.583 32.3018 142.034 32.7412C142.485 33.1748 143.074 33.3916 143.801 33.3916C144.486 33.3916 145.063 33.166 145.532 32.7148C146.007 32.2578 146.244 31.7012 146.244 31.0449C146.244 30.3887 146.007 29.835 145.532 29.3838C145.063 28.9326 144.486 28.707 143.801 28.707ZM155.271 35.2637C153.894 35.2637 152.751 34.8623 151.843 34.0596C150.94 33.251 150.489 32.2344 150.489 31.0098C150.489 29.8086 150.929 28.8125 151.808 28.0215C152.687 27.2305 153.797 26.835 155.139 26.835C156.486 26.835 157.567 27.2012 158.382 27.9336C159.202 28.666 159.612 29.6357 159.612 30.8428C159.612 31.1826 159.58 31.5137 159.516 31.8359H152.537C152.654 32.2227 152.865 32.5361 153.17 32.7764C153.668 33.1631 154.43 33.3564 155.455 33.3564C155.959 33.3564 156.478 33.2686 157.011 33.0928C157.544 32.917 158.221 32.6123 159.041 32.1787L159.902 33.8135C158.895 34.3467 158.045 34.7217 157.354 34.9385C156.668 35.1553 155.974 35.2637 155.271 35.2637ZM157.635 29.9639C157.529 29.6885 157.368 29.46 157.151 29.2783C156.706 28.8975 156.029 28.707 155.121 28.707C154.318 28.707 153.668 28.9209 153.17 29.3486C152.959 29.5303 152.789 29.7354 152.66 29.9639H157.635Z" fill="#71A9CD"/>
<path d="M46.1191 52.1025L44.2383 47.9014H45.8467L47.1738 52.1025H46.1191ZM49.0898 52.1025L47.209 47.9014H48.8174L50.1445 52.1025H49.0898ZM54.4512 57.1299V48.7539H53.0537V47.8838H54.9082H56.7627V48.7539H55.3652V52.3135H60.3838V48.7539H58.9863V47.8838H60.8408H62.6953V48.7539H61.2979V57.1299H62.6953V58H60.8408H58.9863V57.1299H60.3838V53.1836H55.3652V57.1299H56.7627V58H54.9082H53.0537V57.1299H54.4512ZM68.9795 58.2637C67.6787 58.2637 66.6006 57.877 65.7451 57.1035C64.8955 56.3242 64.4707 55.3457 64.4707 54.168C64.4707 52.9844 64.8779 52.0059 65.6924 51.2324C66.5068 50.4531 67.5322 50.0635 68.7686 50.0635C70.0049 50.0635 71.0303 50.4062 71.8447 51.0918C72.6592 51.7715 73.0664 52.6328 73.0664 53.6758C73.0664 53.9453 73.0518 54.2061 73.0225 54.458H65.4902C65.5605 55.29 65.8828 55.9668 66.457 56.4883C67.0957 57.0625 67.957 57.3496 69.041 57.3496C69.6094 57.3496 70.1689 57.2764 70.7197 57.1299C71.2705 56.9775 71.9678 56.7109 72.8115 56.3301L73.1543 57.1211C72.252 57.5488 71.4932 57.8447 70.8779 58.0088C70.2686 58.1787 69.6357 58.2637 68.9795 58.2637ZM72.0996 53.5879C72.082 52.8027 71.7773 52.1729 71.1855 51.6982C70.5996 51.2178 69.8027 50.9775 68.7949 50.9775C67.7871 50.9775 66.9844 51.2676 66.3867 51.8477C65.918 52.293 65.6309 52.873 65.5254 53.5879H72.0996ZM79.0518 57.1387V47.6201L76.0459 47.8135L75.9668 46.9609L77.9619 46.8203L79.9658 46.6709V57.1387H83.1738V58H79.4912H75.8086V57.1387H79.0518ZM89.8623 57.1387V47.6201L86.8564 47.8135L86.7773 46.9609L88.7725 46.8203L90.7764 46.6709V57.1387H93.9844V58H90.3018H86.6191V57.1387H89.8623ZM101.112 58.2637C99.8818 58.2637 98.8594 57.877 98.0449 57.1035C97.2363 56.3242 96.832 55.3457 96.832 54.168C96.832 52.9844 97.2363 52.0059 98.0449 51.2324C98.8594 50.4531 99.8818 50.0635 101.112 50.0635C102.349 50.0635 103.371 50.4531 104.18 51.2324C104.994 52.0059 105.401 52.9844 105.401 54.168C105.401 55.3457 104.994 56.3242 104.18 57.1035C103.371 57.877 102.349 58.2637 101.112 58.2637ZM101.112 57.3496C102.108 57.3496 102.902 57.0625 103.494 56.4883C104.086 55.9141 104.382 55.1406 104.382 54.168C104.382 53.1953 104.086 52.4219 103.494 51.8477C102.902 51.2676 102.108 50.9775 101.112 50.9775C100.116 50.9775 99.3223 51.2676 98.7305 51.8477C98.1445 52.4219 97.8516 53.1953 97.8516 54.168C97.8516 55.1406 98.1445 55.9141 98.7305 56.4883C99.3223 57.0625 100.116 57.3496 101.112 57.3496ZM109.102 52.085L110.429 47.8838H112.037L110.156 52.085H109.102ZM111.817 52.085L113.145 47.8838H114.753L112.872 52.085H111.817Z" fill="#FF6F3D"/>
</svg>
