<svg width="254" height="120" viewBox="0 0 254 120" fill="none" xmlns="http://www.w3.org/2000/svg">
<path d="M83.9961 37.3594L92.249 33.501L92.627 34.3359L85.9473 37.3682L92.627 40.3828L92.249 41.2178L83.9961 37.3594ZM102.137 36.6738C102.066 36.1113 101.771 35.6777 101.249 35.373C100.728 35.0684 100.019 34.916 99.1221 34.916C98.4541 34.916 97.8975 35.0391 97.4521 35.2852C97.0068 35.5312 96.7842 35.8418 96.7842 36.2168C96.7842 36.7207 97.0244 37.0898 97.5049 37.3242C97.9854 37.5527 98.8057 37.6934 99.9658 37.7461C101.202 37.7988 102.069 37.9863 102.567 38.3086C103.06 38.6309 103.306 39.1641 103.306 39.9082C103.306 40.6172 102.978 41.1885 102.321 41.6221C101.665 42.0498 100.798 42.2637 99.7197 42.2637C98.6416 42.2637 97.7246 42.0557 96.9688 41.6396C96.8223 41.5635 96.6992 41.5488 96.5996 41.5957C96.5059 41.6426 96.4443 41.748 96.415 41.9121L96.3535 42.2461L95.5098 42.1582C95.627 41.6543 95.6855 41.2178 95.6855 40.8486C95.6855 40.4854 95.627 40.0518 95.5098 39.5479L96.3535 39.4336C96.4297 40.0371 96.7549 40.5176 97.3291 40.875C97.9092 41.2324 98.6533 41.4111 99.5615 41.4111C100.423 41.4111 101.097 41.2822 101.583 41.0244C102.069 40.7666 102.312 40.4092 102.312 39.9521C102.312 39.46 102.146 39.1318 101.812 38.9678C101.478 38.8096 100.748 38.7041 99.623 38.6514C98.3398 38.5928 97.3848 38.3672 96.7578 37.9746C96.1309 37.582 95.8174 37.0107 95.8174 36.2607C95.8174 35.5986 96.1191 35.0684 96.7227 34.6699C97.332 34.2656 98.1318 34.0635 99.1221 34.0635C99.9834 34.0635 100.751 34.2246 101.425 34.5469C101.606 34.6348 101.756 34.6494 101.873 34.5908C101.99 34.5322 102.066 34.4062 102.102 34.2129L102.128 34.0635L102.919 34.1338C102.808 34.5967 102.758 35.0068 102.77 35.3643C102.781 35.7275 102.857 36.1377 102.998 36.5947L102.137 36.6738ZM114.406 40.7695C113.662 41.3086 112.988 41.6924 112.385 41.9209C111.787 42.1494 111.146 42.2637 110.46 42.2637C109.194 42.2637 108.146 41.877 107.313 41.1035C106.481 40.3242 106.065 39.3457 106.065 38.168C106.065 36.9844 106.473 36.0059 107.287 35.2324C108.102 34.4531 109.13 34.0635 110.372 34.0635C111.21 34.0576 111.992 34.2568 112.719 34.6611C112.859 34.7373 112.977 34.7578 113.07 34.7227C113.164 34.6816 113.229 34.585 113.264 34.4326L113.36 34.0371L114.195 34.1689C114.113 34.6846 114.072 35.1445 114.072 35.5488C114.072 35.959 114.128 36.4219 114.239 36.9375L113.396 37.0518C113.337 36.3955 113.064 35.8857 112.578 35.5225C112.098 35.1592 111.456 34.9775 110.653 34.9775C109.563 34.9775 108.696 35.2852 108.052 35.9004C107.407 36.5098 107.085 37.333 107.085 38.3701C107.085 39.2256 107.425 39.9404 108.104 40.5146C108.784 41.083 109.634 41.3672 110.653 41.3672C111.198 41.3672 111.723 41.2676 112.227 41.0684C112.73 40.8691 113.311 40.5322 113.967 40.0576L114.406 40.7695ZM119.073 41.1387V35.1973H116.92V34.3359H118.458H119.996V36.2695C120.793 35.5312 121.452 35.0039 121.974 34.6875C122.653 34.2715 123.359 34.0635 124.092 34.0635C124.584 34.0635 124.971 34.1836 125.252 34.4238C125.533 34.6641 125.7 35.0186 125.753 35.4873L124.848 35.5576C124.777 35.335 124.672 35.1826 124.531 35.1006C124.391 35.0186 124.162 34.9775 123.846 34.9775C123.365 34.9775 122.823 35.1768 122.22 35.5752C121.663 35.9385 120.919 36.5625 119.987 37.4473V41.1387H123.556V42H120.163H116.771V41.1387H119.073ZM131.439 41.1387V35.1973H128.75V34.3359H130.552H132.354V41.1387H135.544V42H131.879H128.214V41.1387H131.439ZM131.026 30.1436H132.397V32.3408H131.026V30.1436ZM139.024 35.1973H137.486V34.3359H138.708H139.938V35.7158C140.073 35.54 140.22 35.373 140.378 35.2148C141.163 34.4473 142.121 34.0635 143.252 34.0635C144.389 34.0635 145.347 34.4619 146.126 35.2588C146.911 36.0498 147.304 37.0195 147.304 38.168C147.304 39.2578 146.911 40.2129 146.126 41.0332C145.341 41.8535 144.424 42.2637 143.375 42.2637C142.18 42.2637 141.201 41.8682 140.439 41.0771C140.258 40.8838 140.091 40.6729 139.938 40.4443V43.9688H142.681V44.8301H140.079H137.469V43.9688H139.024V35.1973ZM143.059 41.3408C143.979 41.3408 144.743 41.0391 145.353 40.4355C145.962 39.832 146.267 39.0762 146.267 38.168C146.267 37.2363 145.979 36.4746 145.405 35.8828C144.837 35.2852 144.102 34.9863 143.199 34.9863C142.244 34.9863 141.45 35.2764 140.817 35.8564C140.19 36.4365 139.877 37.1631 139.877 38.0361C139.877 38.9619 140.185 39.7441 140.8 40.3828C141.415 41.0215 142.168 41.3408 143.059 41.3408ZM157.666 41.2617C156.336 41.9297 155.073 42.2637 153.878 42.2637C152.923 42.2637 152.196 42.0498 151.698 41.6221C151.206 41.1885 150.96 40.5586 150.96 39.7324V35.2148H149.686V34.3359H150.96V31.8838H151.874V34.3359H156.629V35.2148H151.874V39.0557C151.874 39.9287 152.018 40.5293 152.305 40.8574C152.598 41.1855 153.131 41.3496 153.904 41.3496C155.088 41.3438 156.31 41.0127 157.569 40.3564L157.666 41.2617ZM168.749 37.3594L160.496 41.2178L160.118 40.3828L166.798 37.3682L160.118 34.3359L160.496 33.501L168.749 37.3594Z" fill="#808080"/>
<path d="M54.4561 54.4795L48.9189 66.3887L47.1875 65.6064L52.707 53.7148L54.4561 54.4795ZM65.2666 54.4795L59.7295 66.3887L57.998 65.6064L63.5176 53.7148L65.2666 54.4795ZM68.6855 63.1279V56.7559H67.4023V54.8838H69.6699H71.9463V56.7559H70.6631V58.8125H74.2227V56.7559H72.9395V54.8838H75.207H77.4834V56.7559H76.2002V63.1279H77.4834V65H75.2158H72.9395V63.1279H74.2227V60.6846H70.6631V63.1279H71.9463V65H69.6787H67.4023V63.1279H68.6855ZM82.2822 63.1279V58.9707H79.7422V57.0986H82.001H84.2598V63.1279H87.248V65H83.249H79.2412V63.1279H82.2822ZM81.7373 53.1611H84.1982V56.0264H81.7373V53.1611ZM93.875 65.7119C94.4785 65.7119 94.9355 65.5977 95.2461 65.3691C95.5625 65.1406 95.7207 64.8066 95.7207 64.3672V63.9453C95.0586 64.5195 94.2471 64.8096 93.2861 64.8154C92.1084 64.8154 91.1328 64.4346 90.3594 63.6729C89.5859 62.9111 89.1992 61.9502 89.1992 60.79C89.1992 59.6533 89.5859 58.71 90.3594 57.96C91.1387 57.21 92.1201 56.835 93.3037 56.835C94.2646 56.835 95.0703 57.1455 95.7207 57.7666V57.0986H97.4082H99.1045V58.9707H97.6982V64.5078C97.6982 65.498 97.376 66.2656 96.7314 66.8105C96.0928 67.3555 95.1904 67.6279 94.0244 67.6279C93.5498 67.6279 92.9844 67.5781 92.3281 67.4785C91.6719 67.3789 90.8281 67.2148 89.7969 66.9863L90.2451 65.0967C91.1299 65.3369 91.8213 65.498 92.3193 65.5801C92.8174 65.668 93.3359 65.7119 93.875 65.7119ZM93.4971 58.707C92.8232 58.707 92.2783 58.9004 91.8623 59.2871C91.4463 59.6738 91.2383 60.1807 91.2383 60.8076C91.2383 61.4404 91.4463 61.9561 91.8623 62.3545C92.2783 62.7471 92.8203 62.9434 93.4883 62.9434C94.168 62.9434 94.7158 62.75 95.1318 62.3633C95.5537 61.9707 95.7646 61.458 95.7646 60.8252C95.7646 60.1924 95.5537 59.6826 95.1318 59.2959C94.7158 58.9033 94.1709 58.707 93.4971 58.707ZM101.205 63.1279V55.7363L99.7021 55.8594L99.5615 54.0225L101.372 53.873L103.183 53.7236V57.6611L103.569 57.4502C104.302 57.04 105.02 56.835 105.723 56.835C106.719 56.835 107.475 57.0693 107.99 57.5381C108.512 58.001 108.772 58.6807 108.772 59.5771V63.1279H110.117V65H107.779H105.441V63.1279H106.795V60.1221C106.795 59.6182 106.71 59.2666 106.54 59.0674C106.37 58.8682 106.068 58.7686 105.635 58.7686C105.125 58.7686 104.63 58.8975 104.149 59.1553C103.815 59.3252 103.493 59.5625 103.183 59.8672V63.1279H104.457V65H102.128H99.79V63.1279H101.205ZM114.714 63.1279V55.7363L111.884 55.9648L111.734 54.1279L114.213 53.9258L116.691 53.7236V63.1279H119.68V65H115.681H111.673V63.1279H114.714ZM125.524 63.1279V58.9707H122.984V57.0986H125.243H127.502V63.1279H130.49V65H126.491H122.483V63.1279H125.524ZM124.979 53.1611H127.44V56.0264H124.979V53.1611ZM137.117 65.7119C137.721 65.7119 138.178 65.5977 138.488 65.3691C138.805 65.1406 138.963 64.8066 138.963 64.3672V63.9453C138.301 64.5195 137.489 64.8096 136.528 64.8154C135.351 64.8154 134.375 64.4346 133.602 63.6729C132.828 62.9111 132.441 61.9502 132.441 60.79C132.441 59.6533 132.828 58.71 133.602 57.96C134.381 57.21 135.362 56.835 136.546 56.835C137.507 56.835 138.312 57.1455 138.963 57.7666V57.0986H140.65H142.347V58.9707H140.94V64.5078C140.94 65.498 140.618 66.2656 139.974 66.8105C139.335 67.3555 138.433 67.6279 137.267 67.6279C136.792 67.6279 136.227 67.5781 135.57 67.4785C134.914 67.3789 134.07 67.2148 133.039 66.9863L133.487 65.0967C134.372 65.3369 135.063 65.498 135.562 65.5801C136.06 65.668 136.578 65.7119 137.117 65.7119ZM136.739 58.707C136.065 58.707 135.521 58.9004 135.104 59.2871C134.688 59.6738 134.48 60.1807 134.48 60.8076C134.48 61.4404 134.688 61.9561 135.104 62.3545C135.521 62.7471 136.062 62.9434 136.73 62.9434C137.41 62.9434 137.958 62.75 138.374 62.3633C138.796 61.9707 139.007 61.458 139.007 60.8252C139.007 60.1924 138.796 59.6826 138.374 59.2959C137.958 58.9033 137.413 58.707 136.739 58.707ZM148.095 65.2637C147.069 65.2637 146.272 65.0264 145.704 64.5518C145.136 64.0713 144.852 63.3975 144.852 62.5303V58.9795H143.56V57.0986H144.852V54.8838H146.829V57.0986H151.153V58.9795H146.829V61.8359C146.829 62.4102 146.935 62.8057 147.146 63.0225C147.356 63.2334 147.74 63.3389 148.297 63.3389C148.695 63.3389 149.135 63.2686 149.615 63.1279C150.102 62.9873 150.887 62.7031 151.971 62.2754L152.287 64.1211C151.414 64.5137 150.641 64.8037 149.967 64.9912C149.293 65.1729 148.669 65.2637 148.095 65.2637ZM174.146 63.4971C173.29 64.1182 172.531 64.5693 171.869 64.8506C171.207 65.126 170.568 65.2637 169.953 65.2637C168.477 65.2637 167.29 64.877 166.394 64.1035C165.503 63.3242 165.058 62.293 165.058 61.0098C165.058 59.8086 165.5 58.8125 166.385 58.0215C167.275 57.2305 168.397 56.835 169.751 56.835C170.419 56.835 171.146 57.0078 171.931 57.3535L171.975 56.7383L173.908 57.0371C173.791 57.6348 173.735 58.1709 173.741 58.6455C173.747 59.1201 173.82 59.6592 173.961 60.2627L172.071 60.4648C171.972 59.7441 171.772 59.2725 171.474 59.0498C171.181 58.8213 170.612 58.707 169.769 58.707C168.972 58.707 168.327 58.918 167.835 59.3398C167.343 59.7617 167.097 60.3154 167.097 61.001C167.097 61.7451 167.346 62.3223 167.844 62.7324C168.342 63.1367 169.042 63.3389 169.944 63.3389C170.407 63.3389 170.885 63.2334 171.377 63.0225C171.875 62.8115 172.455 62.4658 173.117 61.9854L174.146 63.4971ZM180.544 65.2637C179.144 65.2637 177.983 64.8623 177.063 64.0596C176.144 63.251 175.684 62.2344 175.684 61.0098C175.684 59.8086 176.144 58.8125 177.063 58.0215C177.983 57.2305 179.144 56.835 180.544 56.835C181.944 56.835 183.104 57.2305 184.024 58.0215C184.95 58.8125 185.413 59.8086 185.413 61.0098C185.413 62.2344 184.95 63.251 184.024 64.0596C183.104 64.8623 181.944 65.2637 180.544 65.2637ZM180.544 63.3916C181.388 63.3916 182.07 63.1748 182.592 62.7412C183.113 62.3018 183.374 61.7305 183.374 61.0273C183.374 60.3359 183.113 59.7764 182.592 59.3486C182.07 58.9209 181.388 58.707 180.544 58.707C179.706 58.707 179.026 58.9209 178.505 59.3486C177.983 59.7764 177.723 60.3359 177.723 61.0273C177.723 61.7305 177.983 62.3018 178.505 62.7412C179.026 63.1748 179.706 63.3916 180.544 63.3916ZM190.432 65.2637C189.248 65.2637 188.267 64.8623 187.487 64.0596C186.708 63.251 186.318 62.2344 186.318 61.0098C186.318 59.8613 186.731 58.8799 187.558 58.0654C188.384 57.2451 189.374 56.835 190.528 56.835C191.571 56.8291 192.462 57.1455 193.2 57.7842V55.7363L190.449 55.9561L190.309 54.1191L192.743 53.9258L195.178 53.7236V63.1279H196.602V65H194.905H193.2V64.2354C192.462 64.9209 191.539 65.2637 190.432 65.2637ZM190.801 58.707C190.074 58.707 189.485 58.9209 189.034 59.3486C188.583 59.7764 188.357 60.3359 188.357 61.0273C188.357 61.7305 188.583 62.3018 189.034 62.7412C189.485 63.1748 190.074 63.3916 190.801 63.3916C191.486 63.3916 192.063 63.166 192.532 62.7148C193.007 62.2578 193.244 61.7012 193.244 61.0449C193.244 60.3887 193.007 59.835 192.532 59.3838C192.063 58.9326 191.486 58.707 190.801 58.707ZM202.271 65.2637C200.894 65.2637 199.751 64.8623 198.843 64.0596C197.94 63.251 197.489 62.2344 197.489 61.0098C197.489 59.8086 197.929 58.8125 198.808 58.0215C199.687 57.2305 200.797 56.835 202.139 56.835C203.486 56.835 204.567 57.2012 205.382 57.9336C206.202 58.666 206.612 59.6357 206.612 60.8428C206.612 61.1826 206.58 61.5137 206.516 61.8359H199.537C199.654 62.2227 199.865 62.5361 200.17 62.7764C200.668 63.1631 201.43 63.3564 202.455 63.3564C202.959 63.3564 203.478 63.2686 204.011 63.0928C204.544 62.917 205.221 62.6123 206.041 62.1787L206.902 63.8135C205.895 64.3467 205.045 64.7217 204.354 64.9385C203.668 65.1553 202.974 65.2637 202.271 65.2637ZM204.635 59.9639C204.529 59.6885 204.368 59.46 204.151 59.2783C203.706 58.8975 203.029 58.707 202.121 58.707C201.318 58.707 200.668 58.9209 200.17 59.3486C199.959 59.5303 199.789 59.7354 199.66 59.9639H204.635Z" fill="#71A9CD"/>
<path d="M93.1191 82.1025L91.2383 77.9014H92.8467L94.1738 82.1025H93.1191ZM96.0898 82.1025L94.209 77.9014H95.8174L97.1445 82.1025H96.0898ZM101.451 87.1299V78.7539H100.054V77.8838H101.908H103.763V78.7539H102.365V82.3135H107.384V78.7539H105.986V77.8838H107.841H109.695V78.7539H108.298V87.1299H109.695V88H107.841H105.986V87.1299H107.384V83.1836H102.365V87.1299H103.763V88H101.908H100.054V87.1299H101.451ZM115.979 88.2637C114.679 88.2637 113.601 87.877 112.745 87.1035C111.896 86.3242 111.471 85.3457 111.471 84.168C111.471 82.9844 111.878 82.0059 112.692 81.2324C113.507 80.4531 114.532 80.0635 115.769 80.0635C117.005 80.0635 118.03 80.4062 118.845 81.0918C119.659 81.7715 120.066 82.6328 120.066 83.6758C120.066 83.9453 120.052 84.2061 120.022 84.458H112.49C112.561 85.29 112.883 85.9668 113.457 86.4883C114.096 87.0625 114.957 87.3496 116.041 87.3496C116.609 87.3496 117.169 87.2764 117.72 87.1299C118.271 86.9775 118.968 86.7109 119.812 86.3301L120.154 87.1211C119.252 87.5488 118.493 87.8447 117.878 88.0088C117.269 88.1787 116.636 88.2637 115.979 88.2637ZM119.1 83.5879C119.082 82.8027 118.777 82.1729 118.186 81.6982C117.6 81.2178 116.803 80.9775 115.795 80.9775C114.787 80.9775 113.984 81.2676 113.387 81.8477C112.918 82.293 112.631 82.873 112.525 83.5879H119.1ZM126.052 87.1387V77.6201L123.046 77.8135L122.967 76.9609L124.962 76.8203L126.966 76.6709V87.1387H130.174V88H126.491H122.809V87.1387H126.052ZM136.862 87.1387V77.6201L133.856 77.8135L133.777 76.9609L135.772 76.8203L137.776 76.6709V87.1387H140.984V88H137.302H133.619V87.1387H136.862ZM148.112 88.2637C146.882 88.2637 145.859 87.877 145.045 87.1035C144.236 86.3242 143.832 85.3457 143.832 84.168C143.832 82.9844 144.236 82.0059 145.045 81.2324C145.859 80.4531 146.882 80.0635 148.112 80.0635C149.349 80.0635 150.371 80.4531 151.18 81.2324C151.994 82.0059 152.401 82.9844 152.401 84.168C152.401 85.3457 151.994 86.3242 151.18 87.1035C150.371 87.877 149.349 88.2637 148.112 88.2637ZM148.112 87.3496C149.108 87.3496 149.902 87.0625 150.494 86.4883C151.086 85.9141 151.382 85.1406 151.382 84.168C151.382 83.1953 151.086 82.4219 150.494 81.8477C149.902 81.2676 149.108 80.9775 148.112 80.9775C147.116 80.9775 146.322 81.2676 145.73 81.8477C145.145 82.4219 144.852 83.1953 144.852 84.168C144.852 85.1406 145.145 85.9141 145.73 86.4883C146.322 87.0625 147.116 87.3496 148.112 87.3496ZM156.102 82.085L157.429 77.8838H159.037L157.156 82.085H156.102ZM158.817 82.085L160.145 77.8838H161.753L159.872 82.085H158.817Z" fill="#FF6F3D"/>
</svg>
