<svg width="254" height="120" viewBox="0 0 254 120" fill="none" xmlns="http://www.w3.org/2000/svg">
<path d="M143.964 91.5H104.036C102.124 91.5 100.5 89.7747 100.5 87.5151V32.4848C100.5 31.7181 100.891 30.705 101.567 29.8767C102.242 29.0499 103.122 28.5 104.036 28.5H134.2L147.5 42.5277V87.5151C147.5 89.7747 145.876 91.5 143.964 91.5Z" fill="white" stroke="#808080"/>
<path d="M136.333 43C136.333 43 134 43 134 40.5V28L148 43H136.333Z" fill="#808080"/>
<rect x="105" y="39" width="27" height="2" rx="1" fill="#808080"/>
<rect x="105" y="81" width="14" height="3" rx="1.5" fill="#808080"/>
<rect x="105" y="50" width="38" height="1" rx="0.5" fill="#808080"/>
<rect x="105" y="65" width="38" height="1" rx="0.5" fill="#808080"/>
<rect x="105" y="55" width="38" height="1" rx="0.5" fill="#808080"/>
<rect x="105" y="70" width="38" height="1" rx="0.5" fill="#808080"/>
<rect x="105" y="60" width="38" height="1" rx="0.5" fill="#808080"/>
<rect x="105" y="75" width="38" height="1" rx="0.5" fill="#808080"/>
<path d="M147 77C153.627 77 159 71.6274 159 65C159 58.3726 153.627 53 147 53C140.373 53 135 58.3726 135 65C135 71.6274 140.373 77 147 77Z" fill="#FF6F3D"/>
<path d="M148.624 67.6043C148.624 67.1338 148.497 66.7646 148.243 66.4966C147.988 66.2286 147.541 65.9755 146.902 65.7373C146.263 65.499 145.673 65.2578 145.131 65.0137C144.59 64.7695 144.123 64.4866 143.732 64.165C143.341 63.8434 143.04 63.4712 142.832 63.0483C142.623 62.6255 142.519 62.1133 142.519 61.5118C142.519 60.5053 142.89 59.6775 143.634 59.0284C144.378 58.3733 145.369 57.9921 146.609 57.8849V56H148.164V57.9207C149.358 58.0815 150.294 58.5311 150.973 59.2696C151.658 60.0021 152 60.9341 152 62.0657H148.693C148.693 61.4463 148.562 60.9699 148.301 60.6364C148.04 60.3029 147.669 60.1361 147.186 60.1361C146.755 60.1361 146.419 60.2612 146.178 60.5113C145.943 60.7555 145.826 61.0949 145.826 61.5297C145.826 61.9704 145.963 62.3218 146.237 62.5838C146.511 62.8399 146.951 63.0871 147.558 63.3253C148.164 63.5575 148.735 63.8017 149.27 64.0578C149.811 64.3079 150.278 64.5938 150.669 64.9154C151.061 65.237 151.367 65.6122 151.589 66.041C151.811 66.4698 151.922 66.9849 151.922 67.5864C151.922 68.6048 151.566 69.4356 150.855 70.0788C150.151 70.722 149.189 71.0972 147.969 71.2044V73H146.413V71.1955C144.991 71.0585 143.898 70.6148 143.135 69.8644C142.378 69.1081 142 68.1135 142 66.8807H145.297C145.297 67.5596 145.461 68.0778 145.787 68.4351C146.119 68.7865 146.589 68.9622 147.196 68.9622C147.639 68.9622 147.988 68.8431 148.243 68.6048C148.497 68.3607 148.624 68.0272 148.624 67.6043Z" fill="white"/>
</svg>
