<svg width="59" height="64" viewBox="0 0 59 64" fill="none" xmlns="http://www.w3.org/2000/svg">
<path d="M0.5 4.48485C0.5 3.71811 0.890976 2.705 1.56692 1.87674C2.24168 1.04993 3.12208 0.5 4.03636 0.5H34.2001L47.5 14.5277V59.5151C47.5 61.7747 45.8756 63.5 43.9636 63.5H4.03636C2.12439 63.5 0.5 61.7747 0.5 59.5151V4.48485Z" fill="white" stroke="#444444"/>
<path d="M36.3333 15C36.3333 15 34 15 34 12.5V0L48 15H36.3333Z" fill="#444444"/>
<rect x="5" y="11" width="27" height="2" rx="1" fill="#444444"/>
<rect x="5" y="53" width="23" height="2" rx="1" fill="#444444"/>
<rect x="5" y="22" width="38" height="1" rx="0.5" fill="#444444"/>
<rect x="5" y="37" width="38" height="1" rx="0.5" fill="#444444"/>
<rect x="5" y="27" width="38" height="1" rx="0.5" fill="#444444"/>
<rect x="5" y="42" width="38" height="1" rx="0.5" fill="#444444"/>
<rect x="5" y="32" width="38" height="1" rx="0.5" fill="#444444"/>
<rect x="5" y="47" width="38" height="1" rx="0.5" fill="#444444"/>
<path d="M47 49C53.6274 49 59 43.6274 59 37C59 30.3726 53.6274 25 47 25C40.3726 25 35 30.3726 35 37C35 43.6274 40.3726 49 47 49Z" fill="#FF6F3D"/>
<path d="M48.6243 39.6043C48.6243 39.1338 48.4971 38.7646 48.2427 38.4966C47.9883 38.2286 47.5414 37.9755 46.9022 37.7373C46.2629 37.499 45.6725 37.2578 45.1311 37.0137C44.5897 36.7695 44.1233 36.4866 43.7319 36.165C43.3405 35.8434 43.0404 35.4712 42.8317 35.0483C42.623 34.6255 42.5186 34.1133 42.5186 33.5118C42.5186 32.5053 42.8904 31.6775 43.6341 31.0284C44.3777 30.3733 45.3692 29.9921 46.6086 29.8849V28H48.1644V29.9207C49.3581 30.0815 50.2942 30.5311 50.9726 31.2696C51.6575 32.0021 52 32.9341 52 34.0657H48.6928C48.6928 33.4463 48.5623 32.9699 48.3014 32.6364C48.0404 32.3029 47.6686 32.1361 47.1859 32.1361C46.7554 32.1361 46.4194 32.2612 46.1781 32.5113C45.9432 32.7555 45.8258 33.0949 45.8258 33.5297C45.8258 33.9704 45.9628 34.3218 46.2368 34.5838C46.5108 34.8399 46.9511 35.0871 47.5577 35.3253C48.1644 35.5575 48.7352 35.8017 49.2701 36.0578C49.8115 36.3079 50.2779 36.5938 50.6693 36.9154C51.0607 37.237 51.3673 37.6122 51.589 38.041C51.8108 38.4698 51.9217 38.9849 51.9217 39.5864C51.9217 40.6048 51.5662 41.4356 50.8552 42.0788C50.1507 42.722 49.1885 43.0972 47.9687 43.2044V45H46.4129V43.1955C44.9909 43.0585 43.8982 42.6148 43.135 41.8644C42.3783 41.1081 42 40.1135 42 38.8807H45.2975C45.2975 39.5596 45.4605 40.0778 45.7867 40.4351C46.1194 40.7865 46.589 40.9622 47.1957 40.9622C47.6393 40.9622 47.9883 40.8431 48.2427 40.6048C48.4971 40.3607 48.6243 40.0272 48.6243 39.6043Z" fill="white"/>
</svg>
