<svg width="58" height="58" viewBox="0 0 58 58" fill="none" xmlns="http://www.w3.org/2000/svg">
<path d="M26.6585 -1.18365C25.166 -1.18365 23.6736 0.306897 23.6736 1.79745V9.25021H29.6434V5.77855C29.6434 5.22627 30.0911 4.77855 30.6434 4.77855H37.1057V39.0612H44.568V4.77855H51.0303C51.5826 4.77855 52.0303 5.22627 52.0303 5.77855V9.25021H58.0001V1.79745C58.0001 0.306897 56.5077 -1.18365 55.0152 -1.18365H26.6585Z" fill="#444444"/>
<path d="M0 -1.18365V4.77855H3.43878C3.99106 4.77855 4.43878 5.22627 4.43878 5.77855V36.0801C4.43878 37.5707 5.91837 39.0612 7.39796 39.0612H26.6327C28.1122 39.0612 29.5918 37.5707 29.5918 36.0801V28.6274H22.1939V32.099C22.1939 32.6513 21.7462 33.099 21.1939 33.099H12.8367C12.2844 33.099 11.8367 32.6513 11.8367 32.099V1.79745C11.8367 0.306897 10.3571 -1.18365 8.87755 -1.18365H0Z" fill="#444444"/>
<path d="M1.18359 56.2902C1.18361 55.5669 4.34006 46.1633 10.653 46.1633C16.9659 46.1633 17.755 53.3968 20.1224 53.3968C22.4897 53.3968 23.2788 46.1633 29.5918 46.1633C35.9047 46.1633 36.6938 53.3968 39.0611 53.3968C41.4285 53.3968 42.2176 46.1633 48.5305 46.1633C54.8435 46.1633 57.9999 55.5669 57.9999 56.2902C57.9999 57.0136 57.9999 59.1837 54.8435 59.1837C51.687 59.1837 50.8979 51.9501 48.5305 51.9501C46.1632 51.9501 45.3741 59.1837 39.0611 59.1837C32.7482 59.1837 31.9591 51.9501 29.5918 51.9501C27.2244 51.9501 26.4353 59.1837 20.1224 59.1837C13.8094 59.1837 13.0203 51.9501 10.653 51.9501C8.28564 51.9501 7.49652 59.1837 4.34006 59.1837C1.1836 59.1837 1.18358 57.0136 1.18359 56.2902Z" fill="#5555FF"/>
</svg>
