<svg width="254" height="120" viewBox="0 0 254 120" fill="none" xmlns="http://www.w3.org/2000/svg">
<g clip-path="url(#clip0_126_4342)">
<path d="M124.659 29.8164C123.166 29.8164 121.674 31.307 121.674 32.7975V40.2503H127.644V36.7786C127.644 36.2263 128.091 35.7786 128.644 35.7786H135.106V70.0613H142.568V35.7786H149.031C149.583 35.7786 150.031 36.2263 150.031 36.7786V40.2503H156V32.7975C156 31.307 154.508 29.8164 153.015 29.8164H124.659Z" fill="#666666"/>
<path d="M98 29.8164V35.7786H101.439C101.991 35.7786 102.439 36.2263 102.439 36.7786V67.0802C102.439 68.5708 103.918 70.0613 105.398 70.0613H124.633C126.112 70.0613 127.592 68.5708 127.592 67.0802V59.6274H120.194V63.0991C120.194 63.6514 119.746 64.0991 119.194 64.0991H110.837C110.284 64.0991 109.837 63.6514 109.837 63.0991V32.7975C109.837 31.307 108.357 29.8164 106.878 29.8164H98Z" fill="#666666"/>
<path d="M99.1836 87.2903C99.1836 86.567 102.34 77.1633 108.653 77.1633C114.966 77.1633 115.755 84.3969 118.122 84.3969C120.49 84.3969 121.279 77.1634 127.592 77.1633C133.905 77.1633 134.694 84.3969 137.061 84.3969C139.428 84.3969 140.218 77.1633 146.531 77.1633C152.843 77.1633 156 86.567 156 87.2903C156 88.0137 156 90.1837 152.843 90.1837C149.687 90.1837 148.898 82.9502 146.531 82.9502C144.163 82.9502 143.374 90.1837 137.061 90.1837C130.748 90.1837 129.959 82.9502 127.592 82.9502C125.224 82.9502 124.435 90.1837 118.122 90.1837C111.809 90.1837 111.02 82.9502 108.653 82.9502C106.286 82.9502 105.497 90.1837 102.34 90.1837C99.1836 90.1837 99.1836 88.0137 99.1836 87.2903Z" fill="#5555FF"/>
</g>
<defs>
<clipPath id="clip0_126_4342">
<rect width="58" height="58" fill="white" transform="translate(98 31)"/>
</clipPath>
</defs>
</svg>
