<svg width="142" height="75" viewBox="0 0 142 75" fill="none" xmlns="http://www.w3.org/2000/svg">
<path d="M120.417 20.1138C119.691 20.1138 118.966 20.1603 118.24 20.2533L116.245 17.2305L112.255 18.5791L112.345 22.2066C111.03 22.9507 109.851 23.8343 108.809 24.8574L105.453 23.6482L102.914 27.1361L105.09 30.0195C104.455 31.3681 104.002 32.8098 103.73 34.298L100.329 35.3211L100.329 39.6461L103.73 40.6692C104.002 42.1574 104.455 43.5991 105.09 44.9477L102.914 47.8776L105.408 51.3655L108.763 50.1564C109.806 51.1795 111.03 52.1096 112.3 52.8072L112.209 56.4346L116.2 57.7833L118.195 54.7604C118.92 54.8534 119.646 54.8999 120.371 54.8999C121.097 54.8999 121.868 54.8534 122.593 54.7604L124.589 57.7833L128.579 56.4346L128.488 52.8072C129.758 52.0631 130.982 51.1795 132.025 50.1564L135.381 51.3655L137.875 47.8776L135.698 44.9943C136.333 43.6456 136.786 42.2039 137.058 40.7157L140.505 39.6926L140.505 35.3676L137.058 34.3445C136.786 32.8563 136.333 31.4147 135.698 30.066L137.875 27.1827L135.381 23.6947L132.025 24.9039C130.982 23.8808 129.758 22.9972 128.488 22.2531L128.579 18.6256L124.589 17.277L122.593 20.2998C121.868 20.1603 121.142 20.1138 120.417 20.1138Z" stroke="#CCCCCC" stroke-miterlimit="10" stroke-linecap="round" stroke-linejoin="round"/>
<path d="M133.975 37.5065C133.975 29.8269 127.905 23.6014 120.417 23.6014C112.929 23.6014 106.859 29.8269 106.859 37.5065C106.859 45.1861 112.929 51.4117 120.417 51.4117C127.905 51.4117 133.975 45.1861 133.975 37.5065Z" stroke="#CCCCCC" stroke-miterlimit="10" stroke-linecap="round" stroke-linejoin="round"/>
<path d="M131.118 37.5067C131.118 31.4452 126.327 26.5314 120.417 26.5314C114.507 26.5314 109.716 31.4452 109.716 37.5067C109.716 43.5682 114.507 48.482 120.417 48.482C126.327 48.482 131.118 43.5682 131.118 37.5067Z" stroke="#CCCCCC" stroke-miterlimit="10" stroke-linecap="round" stroke-linejoin="round"/>
<path d="M97.6536 2.72091C97.2455 2.72091 96.792 2.76742 96.3839 2.81392L95.205 1.04672L92.8924 1.83731L92.9377 3.93006C92.1669 4.3486 91.4867 4.86017 90.8519 5.46474L88.9021 4.76716L87.4964 6.8134L88.766 8.48759C88.4033 9.27819 88.1312 10.1153 87.9952 10.9989L86 11.557L86 14.0683L87.9498 14.6728C88.0859 15.5564 88.3579 16.3935 88.7207 17.1841L87.4964 18.8583L88.9474 20.8581L90.8972 20.1605C91.5321 20.765 92.2122 21.2766 92.9831 21.6952L92.9377 23.7879L95.205 24.5785L96.3839 22.8113C96.792 22.8578 97.2001 22.9043 97.6536 22.9043C98.107 22.9043 98.5151 22.8578 98.9232 22.8113L100.102 24.5785L102.415 23.7879L102.369 21.6486C103.14 21.2301 103.82 20.7185 104.41 20.114L106.36 20.8581L107.811 18.8118L106.541 17.1376C106.904 16.347 107.176 15.5099 107.312 14.6728L109.307 14.0683L109.307 11.557L107.312 10.9524C107.176 10.0688 106.904 9.23168 106.541 8.48759L107.811 6.8134L106.36 4.76715L104.41 5.46474C103.775 4.86017 103.095 4.3486 102.369 3.93005L102.415 1.7908L100.102 1.00021L98.9232 2.76742C98.5151 2.76742 98.0617 2.72091 97.6536 2.72091Z" stroke="#CCCCCC" stroke-miterlimit="10" stroke-linecap="round" stroke-linejoin="round"/>
<path d="M103.866 12.8125C103.866 9.29372 101.085 6.44121 97.6536 6.44121C94.2227 6.44121 91.4414 9.29372 91.4414 12.8125C91.4414 16.3312 94.2227 19.1837 97.6536 19.1837C101.085 19.1837 103.866 16.3312 103.866 12.8125Z" stroke="#CCCCCC" stroke-miterlimit="10" stroke-linecap="round" stroke-linejoin="round"/>
<g filter="url(#filter0_d)">
<path d="M15 22.0001C15 20.3432 16.3431 19.0001 18 19.0001H114C115.657 19.0001 117 20.3432 117 22.0001V50.0001C117 51.6569 115.657 53.0001 114 53.0001H18C16.3431 53.0001 15 51.6569 15 50.0001V22.0001Z" fill="#F9F9F9"/>
<path fill-rule="evenodd" clip-rule="evenodd" d="M36 19.0001H18C16.3431 19.0001 15 20.3432 15 22.0001V50.0001C15 51.6569 16.3431 53.0001 18 53.0001H36V52.0001H18C16.8954 52.0001 16 51.1046 16 50.0001V22.0001C16 20.8955 16.8954 20.0001 18 20.0001H36V19.0001ZM45 52.0001H114C115.105 52.0001 116 51.1046 116 50.0001V22.0001C116 20.8955 115.105 20.0001 114 20.0001H45V19.0001H114C115.657 19.0001 117 20.3432 117 22.0001V50.0001C117 51.6569 115.657 53.0001 114 53.0001H45V52.0001Z" fill="#CCCCCC"/>
</g>
<path fill-rule="evenodd" clip-rule="evenodd" d="M47.6071 12.0001C48.9681 12.0001 50.0714 13.1034 50.0714 14.4643C50.0714 15.8253 48.9681 16.9286 47.6071 16.9286H43.5V55.0001H47.6071C48.9681 55.0001 50.0714 56.1034 50.0714 57.4643C50.0714 58.8253 48.9681 59.9286 47.6071 59.9286L34.4643 59.9286C33.1033 59.9286 32 58.8253 32 57.4643C32 56.1034 33.1033 55.0001 34.4643 55.0001H38.5714V16.9286H34.4643C33.1033 16.9286 32 15.8253 32 14.4643C32 13.1034 33.1033 12.0001 34.4643 12.0001H47.6071Z" fill="#444444"/>
<rect x="1" y="24.0001" width="24" height="24" rx="3" fill="#FF6F3D"/>
<path d="M9 28.0001L17 28.0001L17 36.889L21 36.889L13 44.0001L5 36.8889L9 36.8889L9 28.0001Z" fill="white"/>
<defs>
<filter id="filter0_d" x="0" y="11.0001" width="132" height="64" filterUnits="userSpaceOnUse" color-interpolation-filters="sRGB">
<feFlood flood-opacity="0" result="BackgroundImageFix"/>
<feColorMatrix in="SourceAlpha" type="matrix" values="0 0 0 0 0 0 0 0 0 0 0 0 0 0 0 0 0 0 127 0"/>
<feOffset dy="7"/>
<feGaussianBlur stdDeviation="7.5"/>
<feColorMatrix type="matrix" values="0 0 0 0 0.333333 0 0 0 0 0.333333 0 0 0 0 0.333333 0 0 0 0.1 0"/>
<feBlend mode="normal" in2="BackgroundImageFix" result="effect1_dropShadow"/>
<feBlend mode="normal" in="SourceGraphic" in2="effect1_dropShadow" result="shape"/>
</filter>
</defs>
</svg>
