<svg width="254" height="120" viewBox="0 0 254 120" fill="none" xmlns="http://www.w3.org/2000/svg">
<path d="M181.416 45.1138C180.69 45.1138 179.965 45.1603 179.239 45.2533L177.244 42.2305L173.254 43.5791L173.344 47.2066C172.029 47.9507 170.851 48.8343 169.808 49.8574L166.452 48.6482L163.913 52.1361L166.089 55.0195C165.454 56.3681 165.001 57.8098 164.729 59.298L161.328 60.3211L161.328 64.6461L164.729 65.6692C165.001 67.1574 165.454 68.5991 166.089 69.9477L163.913 72.8776L166.407 76.3655L169.762 75.1564C170.805 76.1795 172.029 77.1096 173.299 77.8072L173.208 81.4346L177.199 82.7833L179.194 79.7604C179.919 79.8534 180.645 79.8999 181.37 79.8999C182.096 79.8999 182.867 79.8534 183.592 79.7604L185.588 82.7833L189.578 81.4346L189.487 77.8072C190.757 77.0631 191.981 76.1795 193.024 75.1564L196.38 76.3655L198.874 72.8776L196.697 69.9943C197.332 68.6456 197.785 67.2039 198.057 65.7157L201.504 64.6926L201.504 60.3676L198.057 59.3445C197.785 57.8563 197.332 56.4147 196.697 55.066L198.874 52.1827L196.38 48.6947L193.024 49.9039C191.981 48.8808 190.757 47.9972 189.487 47.2531L189.578 43.6256L185.588 42.277L183.592 45.2998C182.867 45.1603 182.141 45.1138 181.416 45.1138Z" stroke="#CCCCCC" stroke-miterlimit="10" stroke-linecap="round" stroke-linejoin="round"/>
<path d="M194.974 62.5066C194.974 54.827 188.903 48.6014 181.415 48.6014C173.928 48.6014 167.857 54.827 167.857 62.5066C167.857 70.1862 173.928 76.4117 181.415 76.4117C188.903 76.4117 194.974 70.1862 194.974 62.5066Z" stroke="#CCCCCC" stroke-miterlimit="10" stroke-linecap="round" stroke-linejoin="round"/>
<path d="M192.118 62.5067C192.118 56.4452 187.326 51.5314 181.416 51.5314C175.506 51.5314 170.715 56.4452 170.715 62.5067C170.715 68.5682 175.506 73.482 181.416 73.482C187.326 73.482 192.118 68.5682 192.118 62.5067Z" stroke="#CCCCCC" stroke-miterlimit="10" stroke-linecap="round" stroke-linejoin="round"/>
<path d="M158.654 27.7209C158.245 27.7209 157.792 27.7674 157.384 27.814L156.205 26.0467L153.892 26.8373L153.938 28.9301C153.167 29.3486 152.487 29.8602 151.852 30.4648L149.902 29.7672L148.496 31.8134L149.766 33.4876C149.403 34.2782 149.131 35.1153 148.995 35.9989L147 36.557L147 39.0683L148.95 39.6729C149.086 40.5565 149.358 41.3936 149.721 42.1841L148.496 43.8583L149.947 45.8581L151.897 45.1605C152.532 45.7651 153.212 46.2766 153.983 46.6952L153.938 48.7879L156.205 49.5785L157.384 47.8113C157.792 47.8578 158.2 47.9043 158.654 47.9043C159.107 47.9043 159.515 47.8578 159.923 47.8113L161.102 49.5785L163.415 48.7879L163.369 46.6487C164.14 46.2301 164.82 45.7186 165.41 45.114L167.36 45.8581L168.811 43.8118L167.541 42.1376C167.904 41.3471 168.176 40.5099 168.312 39.6729L170.307 39.0683L170.307 36.557L168.312 35.9524C168.176 35.0688 167.904 34.2317 167.541 33.4876L168.811 31.8134L167.36 29.7672L165.41 30.4648C164.775 29.8602 164.095 29.3486 163.369 28.9301L163.415 26.7908L161.102 26.0002L159.923 27.7674C159.515 27.7674 159.062 27.7209 158.654 27.7209Z" stroke="#CCCCCC" stroke-miterlimit="10" stroke-linecap="round" stroke-linejoin="round"/>
<path d="M164.866 37.8125C164.866 34.2938 162.085 31.4413 158.654 31.4413C155.223 31.4413 152.441 34.2938 152.441 37.8125C152.441 41.3313 155.223 44.1838 158.654 44.1838C162.085 44.1838 164.866 41.3313 164.866 37.8125Z" stroke="#CCCCCC" stroke-miterlimit="10" stroke-linecap="round" stroke-linejoin="round"/>
<g filter="url(#filter0_d_126_4276)">
<path d="M76 47.0001C76 45.3432 77.3431 44.0001 79 44.0001H175C176.657 44.0001 178 45.3432 178 47.0001V75.0001C178 76.6569 176.657 78.0001 175 78.0001H79C77.3431 78.0001 76 76.6569 76 75.0001V47.0001Z" fill="#F9F9F9"/>
<path fill-rule="evenodd" clip-rule="evenodd" d="M97 44.0001H79C77.3431 44.0001 76 45.3432 76 47.0001V75.0001C76 76.6569 77.3431 78.0001 79 78.0001H97V77.0001H79C77.8954 77.0001 77 76.1046 77 75.0001V47.0001C77 45.8955 77.8954 45.0001 79 45.0001H97V44.0001ZM106 77.0001H175C176.105 77.0001 177 76.1046 177 75.0001V47.0001C177 45.8955 176.105 45.0001 175 45.0001H106V44.0001H175C176.657 44.0001 178 45.3432 178 47.0001V75.0001C178 76.6569 176.657 78.0001 175 78.0001H106V77.0001Z" fill="#CCCCCC"/>
</g>
<path fill-rule="evenodd" clip-rule="evenodd" d="M108.607 37.0001C109.968 37.0001 111.071 38.1034 111.071 39.4643C111.071 40.8253 109.968 41.9286 108.607 41.9286H104.5V80.0001H108.607C109.968 80.0001 111.071 81.1034 111.071 82.4643C111.071 83.8253 109.968 84.9286 108.607 84.9286L95.4643 84.9286C94.1033 84.9286 93 83.8253 93 82.4643C93 81.1034 94.1033 80.0001 95.4643 80.0001H99.5714V41.9286H95.4643C94.1033 41.9286 93 40.8253 93 39.4643C93 38.1034 94.1033 37.0001 95.4643 37.0001H108.607Z" fill="#808080"/>
<rect x="62" y="49.0001" width="24" height="24" rx="3" fill="#FF6F3D"/>
<path d="M70 53.0001L78 53.0001L78 61.889L82 61.889L74 69.0001L66 61.8889L70 61.8889L70 53.0001Z" fill="white"/>
<defs>
<filter id="filter0_d_126_4276" x="61" y="36.0001" width="132" height="64" filterUnits="userSpaceOnUse" color-interpolation-filters="sRGB">
<feFlood flood-opacity="0" result="BackgroundImageFix"/>
<feColorMatrix in="SourceAlpha" type="matrix" values="0 0 0 0 0 0 0 0 0 0 0 0 0 0 0 0 0 0 127 0" result="hardAlpha"/>
<feOffset dy="7"/>
<feGaussianBlur stdDeviation="7.5"/>
<feColorMatrix type="matrix" values="0 0 0 0 0.333333 0 0 0 0 0.333333 0 0 0 0 0.333333 0 0 0 0.1 0"/>
<feBlend mode="normal" in2="BackgroundImageFix" result="effect1_dropShadow_126_4276"/>
<feBlend mode="normal" in="SourceGraphic" in2="effect1_dropShadow_126_4276" result="shape"/>
</filter>
</defs>
</svg>
