<svg width="84" height="49" viewBox="0 0 84 49" fill="none" xmlns="http://www.w3.org/2000/svg">
<path d="M83.9953 40.8012C83.6626 31.2097 73.3175 33.7657 70.5322 27.8805C67.8124 22.135 72.4887 20.1659 72.4887 13.7538C72.4887 6.15803 66.4126 0 58.9174 0C49.2405 0 49.3767 8.25331 42.0006 8.25331C34.6249 8.25331 34.7599 0 25.0826 0C17.5874 0 11.5113 6.15803 11.5113 13.7538C11.5113 20.1659 16.1876 22.135 13.4681 27.8805C10.6825 33.7657 0.33784 31.2097 0.00472733 40.8012C-0.15235 45.3262 3.6268 49 8.09539 49C12.5636 49 16.2104 45.3289 16.1857 40.8012C16.1655 37.0999 13.6658 35.7817 14.5638 31.3701H14.5654C15.2873 27.6806 19.1848 24.5204 24.2148 23.8848C29.8514 23.1732 36.2204 25.9938 36.2204 32.3632C36.2204 36.3071 33.9157 36.8412 33.9157 40.8012C33.9157 45.1529 37.4144 49 41.994 49C46.5736 49 50.0843 45.1529 50.0843 40.8012C50.0843 36.8412 47.78 36.3071 47.78 32.3632C47.78 25.9938 54.1486 23.1732 59.7852 23.8848C64.8155 24.5204 68.7135 27.6806 69.4346 31.3701H69.4366C70.3338 35.7817 67.8344 37.0999 67.8143 40.8012C67.79 45.3289 71.4364 49 75.9046 49C80.3732 49 84.1524 45.3262 83.9953 40.8012ZM42.006 27.1712C37.5378 27.1712 33.9157 23.5002 33.9157 18.972C33.9157 14.4443 37.5378 10.7732 42.006 10.7732C46.4746 10.7732 50.0967 14.4443 50.0967 18.972C50.0967 23.5002 46.4746 27.1712 42.006 27.1712Z" fill="#E5222E"/>
</svg>
