<svg width="172" height="30" viewBox="0 0 172 30" fill="none" xmlns="http://www.w3.org/2000/svg">
<rect width="26.25" height="30" rx="3" fill="#FF6F3D"/>
<path d="M21.0115 24.296H16.3374L8.79247 11.1753H8.6857C8.83596 13.4926 8.9111 15.1456 8.9111 16.1342V24.296H5.625V6.95206H10.2635L17.7966 19.9422H17.8797C17.761 17.6882 17.7017 16.0946 17.7017 15.1614V6.95206H21.0115V24.296Z" fill="white"/>
<rect x="29.0625" width="26.25" height="30" rx="3" fill="#FF6F3D"/>
<path d="M49.8608 6.95206V18.1746C49.8608 19.4558 49.5721 20.5789 48.9948 21.5438C48.4254 22.5086 47.5989 23.2481 46.5154 23.7622C45.4319 24.2762 44.1507 24.5333 42.6717 24.5333C40.4414 24.5333 38.7094 23.9638 37.4757 22.825C36.2419 21.6782 35.625 20.1123 35.625 18.1272V6.95206H39.2907V17.5696C39.2907 18.9062 39.5596 19.8869 40.0974 20.5117C40.6352 21.1365 41.5249 21.4489 42.7666 21.4489C43.9688 21.4489 44.8387 21.1365 45.3765 20.5117C45.9222 19.879 46.1951 18.8904 46.1951 17.5459V6.95206H49.8608Z" fill="white"/>
<rect x="58.125" width="26.25" height="30" rx="3" fill="#FF6F3D"/>
<path d="M69.2183 24.296L65.0425 10.689H64.9357C65.086 13.457 65.1611 15.3037 65.1611 16.2291V24.296H61.875V6.95206H66.8813L70.9859 20.2151H71.0571L75.4109 6.95206H80.4171V24.296H76.9887V16.0867C76.9887 15.6992 76.9926 15.2523 77.0005 14.7462C77.0164 14.24 77.0717 12.8955 77.1666 10.7127H77.0599L72.5874 24.296H69.2183Z" fill="white"/>
<rect x="87.1875" width="26.25" height="30" rx="3" fill="#FF6F3D"/>
<path d="M93.75 6.95206H99.1477C101.607 6.95206 103.391 7.304 104.498 8.00788C105.613 8.70385 106.171 9.81504 106.171 11.3414C106.171 12.3775 105.926 13.2277 105.435 13.892C104.953 14.5564 104.308 14.9557 103.502 15.0902V15.2088C104.601 15.454 105.392 15.9127 105.874 16.585C106.365 17.2572 106.61 18.1509 106.61 19.266C106.61 20.8478 106.036 22.0816 104.89 22.9673C103.751 23.8531 102.201 24.296 100.239 24.296H93.75V6.95206ZM97.4276 13.8208H99.5629C100.559 13.8208 101.279 13.6666 101.722 13.3582C102.173 13.0497 102.398 12.5396 102.398 11.8278C102.398 11.1635 102.153 10.689 101.663 10.4042C101.18 10.1116 100.413 9.9653 99.3613 9.9653H97.4276V13.8208ZM97.4276 16.7392V21.259H99.8239C100.836 21.259 101.584 21.0653 102.066 20.6777C102.549 20.2902 102.79 19.6971 102.79 18.8983C102.79 17.4589 101.762 16.7392 99.7053 16.7392H97.4276Z" fill="white"/>
<rect x="116.25" width="26.25" height="30" rx="3" fill="#FF6F3D"/>
<path d="M134.676 24.296H124.688V6.95206H134.676V9.9653H128.365V13.7734H134.237V16.7866H128.365V21.259H134.676V24.296Z" fill="white"/>
<rect x="145.312" width="26.25" height="30" rx="3" fill="#FF6F3D"/>
<path d="M155.553 14.6513H156.739C157.901 14.6513 158.76 14.4575 159.313 14.07C159.867 13.6824 160.144 13.0735 160.144 12.243C160.144 11.4205 159.859 10.8353 159.289 10.4873C158.728 10.1393 157.854 9.9653 156.668 9.9653H155.553V14.6513ZM155.553 17.6408V24.296H151.875V6.95206H156.929C159.286 6.95206 161.029 7.38309 162.16 8.24514C163.291 9.09929 163.857 10.4003 163.857 12.1481C163.857 13.1684 163.576 14.0779 163.015 14.8767C162.453 15.6675 161.658 16.2884 160.63 16.7392C163.24 20.6382 164.94 23.1572 165.731 24.296H161.65L157.51 17.6408H155.553Z" fill="white"/>
</svg>
