<svg width="56" height="58" viewBox="0 0 56 58" fill="none" xmlns="http://www.w3.org/2000/svg">
<g clip-path="url(#clip0_117_3918)">
<path d="M12.5227 0H5.00909H0V5.27272V13.1818H5.00909V5.27272H12.5227V0Z" fill="white"/>
<path d="M55.0998 13.1821V0.000244141H42.5771V5.27296H50.0907V13.1821H55.0998Z" fill="white"/>
<path d="M42.5771 57.9999H50.0907H55.0998V52.7272V44.8181H50.0907V52.7272H42.5771V57.9999Z" fill="white"/>
<path d="M0 44.8181V57.9999H12.5227V52.7272H5.00909V44.8181H0Z" fill="white"/>
<path d="M0.174974 29.1044C0.126138 27.453 0.40773 25.8093 1.00147 24.2799C1.40153 23.2996 1.97046 22.4058 2.67952 21.6435C3.34226 20.9311 4.13438 20.3662 5.00875 19.9826C6.23084 19.4488 7.54265 19.1798 8.86575 19.1917C10.0376 19.1467 11.2057 19.3577 12.2963 19.8115C13.3868 20.2652 14.3763 20.9518 15.2023 21.8281C16.0214 22.8073 16.6488 23.9472 17.0485 25.1823C17.4482 26.4173 17.6123 27.7233 17.5315 29.0253C17.6016 30.3225 17.4275 31.6214 17.0192 32.8475C16.6109 34.0736 15.9764 35.2027 15.1522 36.1698C14.3356 37.052 13.3513 37.7428 12.2637 38.1971C11.1761 38.6514 10.0097 38.8589 8.8407 38.8062C7.6679 38.8594 6.4976 38.6521 5.4059 38.1979C4.3142 37.7437 3.32554 37.0527 2.5042 36.1698C0.869285 34.2325 0.031564 31.6914 0.174974 29.1044ZM3.90675 29.1044C3.78885 30.8564 4.28815 32.5926 5.30929 33.9817C5.7539 34.5182 6.30525 34.9452 6.92422 35.2322C7.54319 35.5193 8.2146 35.6594 8.89079 35.6426C9.5865 35.6591 10.2764 35.5058 10.9064 35.1948C11.5365 34.8838 12.0896 34.4234 12.5224 33.8499C13.5427 32.4513 14.0336 30.7039 13.8999 28.9462C14.021 27.2062 13.5308 25.4799 12.5224 24.0953C12.0742 23.5669 11.5209 23.1489 10.9019 22.871C10.283 22.593 9.61341 22.462 8.94089 22.4871C8.26201 22.4595 7.58584 22.5919 6.96184 22.8747C6.33783 23.1575 5.78178 23.5835 5.33434 24.1217C4.29945 25.4941 3.79017 27.2247 3.90675 28.9726V29.1044Z" fill="white"/>
<path d="M32.0079 31.504L35.5393 32.664C35.1429 34.4653 34.1919 36.078 32.8344 37.2513C31.456 38.3057 29.778 38.8356 28.0758 38.754C26.9764 38.7829 25.884 38.5625 24.8728 38.1076C23.8615 37.6527 22.9551 36.974 22.2151 36.1177C20.6686 34.1772 19.8887 31.6858 20.0362 29.1577C19.8412 26.5107 20.6214 23.8863 22.2151 21.8286C22.9925 20.958 23.9377 20.2725 24.9874 19.8178C26.037 19.3631 27.1669 19.1498 28.3012 19.1922C30.2631 19.1092 32.1779 19.8378 33.6359 21.2222C34.5354 22.1891 35.1749 23.39 35.4892 24.7022L31.9077 25.625C31.7287 24.7153 31.2605 23.897 30.5803 23.305C29.8717 22.708 28.9828 22.3992 28.0758 22.435C27.4622 22.4141 26.8522 22.5411 26.2923 22.8061C25.7324 23.071 25.2373 23.4671 24.8449 23.9641C23.8813 25.3771 23.4365 27.1097 23.5926 28.8413C23.4395 30.635 23.8724 32.43 24.8199 33.9295C25.2058 34.4208 25.6925 34.8137 26.2434 35.0785C26.7944 35.3434 27.3952 35.4733 28.0006 35.4586C28.9216 35.4723 29.8145 35.1245 30.5052 34.4831C31.2804 33.6726 31.8043 32.634 32.0079 31.504Z" fill="white"/>
<path d="M38.7949 38.4383V19.562H46.3085C47.7189 19.5024 49.1296 19.6713 50.4911 20.0629C51.3649 20.3788 52.1081 21.0028 52.595 21.8292C53.1393 22.7155 53.4185 23.7532 53.3964 24.8083C53.4366 26.0959 53.0063 27.3508 52.1942 28.3147C51.25 29.3166 49.9986 29.9332 48.6628 30.0547C49.3785 30.4754 50.0289 31.0088 50.5913 31.6365C51.3554 32.5941 52.0423 33.617 52.6451 34.6947L54.8491 38.3856H50.5913L47.9615 34.2728C47.3937 33.3013 46.7575 32.376 46.0581 31.5047C45.7612 31.158 45.3928 30.8874 44.9811 30.7138C44.3844 30.552 43.7687 30.481 43.1528 30.5028H42.4265V38.4119L38.7949 38.4383ZM42.4265 27.5501H45.0813C46.1634 27.6099 47.2484 27.5302 48.3122 27.3129C48.7279 27.1754 49.0888 26.8974 49.3391 26.5219C49.6004 26.0993 49.7316 25.6022 49.7147 25.0983C49.7394 24.54 49.5602 23.9929 49.2138 23.5692C48.8712 23.1476 48.3862 22.8828 47.8614 22.831C46.9771 22.7816 46.0909 22.7816 45.2065 22.831H42.4265V27.5501Z" fill="white"/>
</g>
<defs>
<clipPath id="clip0_117_3918">
<rect width="56" height="58" fill="white"/>
</clipPath>
</defs>
</svg>
