<svg width="56" height="58" viewBox="0 0 56 58" fill="none" xmlns="http://www.w3.org/2000/svg">
<path d="M12.5227 0.000183105H5.00909H0V5.2729V13.182H5.00909V5.2729H12.5227V0.000183105Z" fill="#444444"/>
<path d="M55.1001 13.182V0.000183105H42.5774V5.2729H50.091V13.182H55.1001Z" fill="#444444"/>
<path d="M42.5774 58H50.091H55.1001V52.7273V44.8182H50.091V52.7273H42.5774V58Z" fill="#444444"/>
<path d="M0 44.8182V58H12.5227V52.7273H5.00909V44.8182H0Z" fill="#444444"/>
<path d="M0.174974 29.1045C0.126138 27.4531 0.40773 25.8094 1.00147 24.28C1.40153 23.2997 1.97046 22.4059 2.67952 21.6436C3.34226 20.9312 4.13438 20.3663 5.00875 19.9827C6.23084 19.4489 7.54265 19.1799 8.86575 19.1918C10.0376 19.1468 11.2057 19.3578 12.2963 19.8116C13.3868 20.2653 14.3763 20.9519 15.2023 21.8282C16.0214 22.8074 16.6488 23.9473 17.0485 25.1824C17.4482 26.4174 17.6123 27.7234 17.5315 29.0254C17.6016 30.3226 17.4275 31.6215 17.0192 32.8476C16.6109 34.0737 15.9764 35.2028 15.1522 36.1699C14.3356 37.0521 13.3513 37.7429 12.2637 38.1972C11.1761 38.6515 10.0097 38.859 8.8407 38.8063C7.6679 38.8595 6.4976 38.6522 5.4059 38.198C4.3142 37.7438 3.32554 37.0528 2.5042 36.1699C0.869285 34.2326 0.0315643 31.6915 0.174974 29.1045ZM3.90675 29.1045C3.78885 30.8565 4.28815 32.5927 5.30929 33.9818C5.7539 34.5183 6.30525 34.9453 6.92422 35.2323C7.54319 35.5194 8.2146 35.6595 8.89079 35.6427C9.5865 35.6592 10.2764 35.5059 10.9064 35.1949C11.5365 34.8839 12.0896 34.4235 12.5224 33.85C13.5427 32.4514 14.0336 30.704 13.8999 28.9463C14.021 27.2063 13.5308 25.48 12.5224 24.0954C12.0742 23.567 11.5209 23.149 10.9019 22.8711C10.283 22.5931 9.61341 22.4621 8.94089 22.4872C8.26201 22.4596 7.58584 22.592 6.96184 22.8748C6.33783 23.1576 5.78178 23.5836 5.33434 24.1218C4.29945 25.4942 3.79017 27.2248 3.90675 28.9727V29.1045Z" fill="#444444"/>
<path d="M32.0082 31.504L35.5396 32.664C35.1432 34.4653 34.1922 36.078 32.8347 37.2513C31.4563 38.3057 29.7783 38.8356 28.0761 38.754C26.9767 38.7829 25.8843 38.5625 24.8731 38.1076C23.8618 37.6527 22.9554 36.974 22.2154 36.1177C20.6689 34.1772 19.889 31.6858 20.0365 29.1577C19.8415 26.5107 20.6217 23.8863 22.2154 21.8286C22.9928 20.958 23.938 20.2725 24.9877 19.8178C26.0373 19.3631 27.1672 19.1498 28.3015 19.1922C30.2634 19.1092 32.1782 19.8378 33.6362 21.2222C34.5357 22.1891 35.1752 23.39 35.4895 24.7022L31.908 25.625C31.729 24.7153 31.2608 23.897 30.5806 23.305C29.872 22.708 28.9831 22.3992 28.0761 22.435C27.4625 22.4141 26.8525 22.5411 26.2926 22.8061C25.7327 23.071 25.2376 23.4671 24.8452 23.9641C23.8816 25.3771 23.4368 27.1097 23.5929 28.8413C23.4398 30.635 23.8727 32.43 24.8202 33.9295C25.2061 34.4208 25.6928 34.8137 26.2437 35.0785C26.7947 35.3434 27.3955 35.4733 28.0009 35.4586C28.9219 35.4723 29.8148 35.1245 30.5055 34.4831C31.2807 33.6726 31.8046 32.634 32.0082 31.504Z" fill="#444444"/>
<path d="M38.7954 38.4383V19.562H46.309C47.7194 19.5024 49.1301 19.6713 50.4916 20.0629C51.3654 20.3788 52.1086 21.0028 52.5955 21.8292C53.1398 22.7155 53.419 23.7532 53.3969 24.8083C53.4371 26.0959 53.0068 27.3508 52.1947 28.3147C51.2505 29.3166 49.9991 29.9332 48.6633 30.0547C49.379 30.4754 50.0294 31.0088 50.5918 31.6365C51.3559 32.5941 52.0428 33.617 52.6456 34.6947L54.8496 38.3856H50.5918L47.962 34.2728C47.3942 33.3013 46.758 32.376 46.0586 31.5047C45.7617 31.158 45.3933 30.8874 44.9816 30.7138C44.3849 30.552 43.7692 30.481 43.1533 30.5028H42.427V38.4119L38.7954 38.4383ZM42.427 27.5501H45.0818C46.1639 27.6099 47.2489 27.5302 48.3127 27.3129C48.7284 27.1754 49.0893 26.8974 49.3396 26.5219C49.6009 26.0993 49.7321 25.6022 49.7152 25.0983C49.7399 24.54 49.5607 23.9929 49.2143 23.5692C48.8717 23.1476 48.3867 22.8828 47.8619 22.831C46.9776 22.7816 46.0914 22.7816 45.207 22.831H42.427V27.5501Z" fill="#444444"/>
</svg>
