<svg width="254" height="120" viewBox="0 0 254 120" fill="none" xmlns="http://www.w3.org/2000/svg">
<path d="M111.523 31.0002H104.009H99V36.273V44.182H104.009V36.273H111.523V31.0002Z" fill="#808080"/>
<path d="M154.101 44.182V31.0002H141.578V36.273H149.092V44.182H154.101Z" fill="#808080"/>
<path d="M141.578 89.0002H149.092H154.101V83.7274V75.8184H149.092V83.7274H141.578V89.0002Z" fill="#808080"/>
<path d="M99 75.8184V89.0002H111.523V83.7274H104.009V75.8184H99Z" fill="#808080"/>
<path d="M99.176 60.1047C99.1271 58.4533 99.4087 56.8096 100.002 55.2802C100.403 54.2999 100.971 53.4061 101.68 52.6438C102.343 51.9313 103.135 51.3665 104.01 50.9829C105.232 50.449 106.544 50.18 107.867 50.192C109.039 50.147 110.207 50.358 111.297 50.8117C112.388 51.2655 113.377 51.9521 114.203 52.8283C115.022 53.8076 115.65 54.9475 116.049 56.1825C116.449 57.4176 116.613 58.7236 116.532 60.0256C116.603 61.3228 116.429 62.6217 116.02 63.8478C115.612 65.0739 114.977 66.203 114.153 67.1701C113.337 68.0523 112.352 68.7431 111.265 69.1974C110.177 69.6517 109.011 69.8592 107.842 69.8065C106.669 69.8596 105.499 69.6524 104.407 69.1982C103.315 68.744 102.327 68.053 101.505 67.1701C99.8703 65.2328 99.0325 62.6916 99.176 60.1047V60.1047ZM102.908 60.1047C102.79 61.8566 103.289 63.5929 104.31 64.982C104.755 65.5185 105.306 65.9454 105.925 66.2325C106.544 66.5195 107.216 66.6596 107.892 66.6429C108.587 66.6594 109.277 66.5061 109.907 66.1951C110.537 65.8841 111.091 65.4237 111.523 64.8501C112.544 63.4516 113.035 61.7042 112.901 59.9465C113.022 58.2065 112.532 56.4802 111.523 55.0956C111.075 54.5672 110.522 54.1492 109.903 53.8713C109.284 53.5933 108.614 53.4623 107.942 53.4874C107.263 53.4597 106.587 53.5922 105.963 53.875C105.339 54.1578 104.783 54.5838 104.335 55.122C103.3 56.4944 102.791 58.2249 102.908 59.9729V60.1047Z" fill="#808080"/>
<path d="M131.009 62.5042L134.54 63.6642C134.144 65.4655 133.193 67.0782 131.835 68.2515C130.457 69.3059 128.779 69.8358 127.077 69.7542C125.977 69.7831 124.885 69.5626 123.874 69.1077C122.863 68.6528 121.956 67.9742 121.216 67.1179C119.67 65.1773 118.89 62.686 119.037 60.1579C118.842 57.5109 119.622 54.8865 121.216 52.8288C121.994 51.9582 122.939 51.2726 123.988 50.8179C125.038 50.3633 126.168 50.15 127.302 50.1924C129.264 50.1094 131.179 50.838 132.637 52.2224C133.536 53.1893 134.176 54.3902 134.49 55.7024L130.909 56.6251C130.73 55.7155 130.261 54.8972 129.581 54.3052C128.873 53.7082 127.984 53.3994 127.077 53.4352C126.463 53.4143 125.853 53.5412 125.293 53.8062C124.733 54.0712 124.238 54.4673 123.846 54.9642C122.882 56.3773 122.437 58.1099 122.594 59.8415C122.44 61.6352 122.873 63.4302 123.821 64.9297C124.207 65.421 124.694 65.8139 125.244 66.0787C125.795 66.3435 126.396 66.4735 127.002 66.4588C127.923 66.4725 128.816 66.1247 129.506 65.4833C130.281 64.6728 130.805 63.6342 131.009 62.5042Z" fill="#808080"/>
<path d="M137.795 69.4383V50.562H145.309C146.719 50.5024 148.13 50.6713 149.491 51.0629C150.365 51.3788 151.108 52.0028 151.595 52.8292C152.139 53.7155 152.419 54.7532 152.396 55.8083C152.437 57.0959 152.006 58.3508 151.194 59.3147C150.25 60.3166 148.999 60.9332 147.663 61.0547C148.379 61.4754 149.029 62.0088 149.591 62.6365C150.355 63.5941 151.042 64.617 151.645 65.6947L153.849 69.3856H149.591L146.962 65.2728C146.394 64.3013 145.757 63.376 145.058 62.5047C144.761 62.158 144.393 61.8874 143.981 61.7138C143.384 61.552 142.769 61.481 142.153 61.5028H141.427V69.4119L137.795 69.4383ZM141.427 58.5501H144.081C145.163 58.6099 146.248 58.5302 147.312 58.3129C147.728 58.1754 148.089 57.8974 148.339 57.5219C148.6 57.0994 148.732 56.6022 148.715 56.0983C148.739 55.54 148.56 54.9929 148.214 54.5692C147.871 54.1476 147.386 53.8828 146.861 53.831C145.977 53.7816 145.091 53.7816 144.207 53.831H141.427V58.5501Z" fill="#808080"/>
</svg>
