<svg width="254" height="120" viewBox="0 0 254 120" fill="none" xmlns="http://www.w3.org/2000/svg">
<path fill-rule="evenodd" clip-rule="evenodd" d="M150.999 35.9999H102.999V74.2165L112.428 64.7879L117.571 69.9307L132.999 54.5022L139.606 61.1083L138.393 62.3204L132.999 56.9265L117.571 72.3551L112.428 67.2122L102.999 76.6408V83.9999H121.857V85.7142H102.999C102.053 85.7142 101.285 84.9467 101.285 83.9999V35.9999C101.285 35.0532 102.053 34.2856 102.999 34.2856H150.999C151.946 34.2856 152.714 35.0532 152.714 35.9999V54.8571H150.999V35.9999ZM141.678 85.7142L143.499 83.9999H150.999V76.9411L152.714 75.3277V83.9999C152.714 84.9467 151.946 85.7142 150.999 85.7142H141.678Z" fill="#808080" stroke="#808080" stroke-linecap="round" stroke-linejoin="round"/>
<path fill-rule="evenodd" clip-rule="evenodd" d="M152.179 72.0882L132.231 92.0362H124.75V84.5557L144.698 64.6077L152.179 72.0882Z" fill="#FF6F3D"/>
<path fill-rule="evenodd" clip-rule="evenodd" d="M147.035 62.55L154.235 69.75L159.035 64.95V62.55L154.235 57.75H151.835L147.035 62.55Z" fill="#FF6F3D"/>
<circle cx="113.5" cy="46.5" r="5.625" fill="#FF6F3D"/>
</svg>
