<svg width="72" height="72" viewBox="0 0 72 72" fill="none" xmlns="http://www.w3.org/2000/svg">
<path fill-rule="evenodd" clip-rule="evenodd" d="M59.9999 12.0001H11.9999V50.2166L21.4285 40.788L26.5714 45.9309L41.9999 30.5023L48.606 37.1084L47.3939 38.3206L41.9999 32.9267L26.5714 48.3552L21.4285 43.2124L11.9999 52.641V60.0001H30.8571V61.7143H11.9999C11.0532 61.7143 10.2856 60.9468 10.2856 60.0001V12.0001C10.2856 11.0533 11.0532 10.2858 11.9999 10.2858H59.9999C60.9467 10.2858 61.7142 11.0533 61.7142 12.0001V30.8572H59.9999V12.0001ZM50.6785 61.7143L52.4999 60.0001H59.9999V52.9412L61.7142 51.3278V60.0001C61.7142 60.9468 60.9467 61.7143 59.9999 61.7143H50.6785Z" fill="#444444" stroke="#444444" stroke-linecap="round" stroke-linejoin="round"/>
<path fill-rule="evenodd" clip-rule="evenodd" d="M61.1786 48.0882L41.2305 68.0362H33.75V60.5557L53.6981 40.6077L61.1786 48.0882Z" fill="#FF6F3D"/>
<path fill-rule="evenodd" clip-rule="evenodd" d="M56.0356 38.55L63.2356 45.75L68.0356 40.95V38.55L63.2356 33.75H60.8356L56.0356 38.55Z" fill="#FF6F3D"/>
<circle cx="22.5" cy="22.5" r="5.625" fill="#FF6F3D"/>
</svg>
