<svg width="254" height="120" viewBox="0 0 254 120" fill="none" xmlns="http://www.w3.org/2000/svg">
<g filter="url(#filter0_d_126_4466)">
<rect x="26.5" y="23.5" width="83" height="31" rx="2.5" fill="#FEFEFE" stroke="#CCCCCC"/>
<path d="M46.3594 43.1155C46.3594 44.372 45.9036 45.3518 44.9922 46.0549C44.0807 46.7581 42.8438 47.1096 41.2812 47.1096C39.5885 47.1096 38.2865 46.8915 37.375 46.4553V44.8538C37.9609 45.1012 38.599 45.2965 39.2891 45.4397C39.9792 45.5829 40.6628 45.6545 41.3398 45.6545C42.4466 45.6545 43.2799 45.4462 43.8398 45.0295C44.3997 44.6064 44.6797 44.0204 44.6797 43.2717C44.6797 42.7769 44.5788 42.3733 44.377 42.0608C44.1816 41.7418 43.8496 41.4488 43.3809 41.1819C42.9186 40.915 42.2122 40.6122 41.2617 40.2737C39.9336 39.7984 38.9831 39.2353 38.4102 38.5842C37.8438 37.9332 37.5605 37.0836 37.5605 36.0354C37.5605 34.9351 37.974 34.0595 38.8008 33.4084C39.6276 32.7574 40.7214 32.4319 42.082 32.4319C43.5013 32.4319 44.8066 32.6923 45.998 33.2131L45.4805 34.6584C44.3021 34.1637 43.1562 33.9163 42.043 33.9163C41.1641 33.9163 40.4772 34.1051 39.9824 34.4827C39.4876 34.8603 39.2402 35.3844 39.2402 36.0549C39.2402 36.5497 39.3314 36.9566 39.5137 37.2756C39.696 37.5881 40.002 37.8778 40.4316 38.1448C40.8678 38.4052 41.5319 38.6949 42.4238 39.0139C43.9212 39.5478 44.9499 40.1207 45.5098 40.7327C46.0762 41.3446 46.3594 42.1389 46.3594 43.1155ZM53.5566 47.1096C51.9746 47.1096 50.7246 46.6278 49.8066 45.6643C48.8952 44.7008 48.4395 43.3629 48.4395 41.6506C48.4395 39.9254 48.8626 38.5549 49.709 37.5393C50.5618 36.5237 51.7044 36.0159 53.1367 36.0159C54.4779 36.0159 55.5391 36.4586 56.3203 37.344C57.1016 38.2229 57.4922 39.385 57.4922 40.8303V41.8557H50.1191C50.1517 43.1122 50.4674 44.066 51.0664 44.717C51.6719 45.3681 52.5215 45.6936 53.6152 45.6936C54.7676 45.6936 55.9069 45.4527 57.0332 44.9709V46.4163C56.4603 46.6637 55.9167 46.8394 55.4023 46.9436C54.8945 47.0543 54.2793 47.1096 53.5566 47.1096ZM53.1172 37.3733C52.2578 37.3733 51.571 37.6532 51.0566 38.2131C50.5488 38.773 50.2493 39.5478 50.1582 40.5374H55.7539C55.7539 39.5152 55.526 38.734 55.0703 38.1936C54.6146 37.6467 53.9635 37.3733 53.1172 37.3733ZM66.8477 46.9143L66.5254 45.3909H66.4473C65.9134 46.0614 65.3796 46.5172 64.8457 46.7581C64.3184 46.9924 63.6576 47.1096 62.8633 47.1096C61.8021 47.1096 60.9688 46.8362 60.3633 46.2893C59.7643 45.7424 59.4648 44.9644 59.4648 43.9553C59.4648 41.7939 61.1934 40.6611 64.6504 40.5569L66.4668 40.4983V39.8342C66.4668 38.9944 66.2845 38.3759 65.9199 37.9788C65.5618 37.5751 64.9857 37.3733 64.1914 37.3733C63.2995 37.3733 62.2904 37.6467 61.1641 38.1936L60.666 36.9534C61.1934 36.6669 61.7695 36.4423 62.3945 36.2795C63.026 36.1168 63.6576 36.0354 64.2891 36.0354C65.5651 36.0354 66.5091 36.3186 67.1211 36.885C67.7396 37.4514 68.0488 38.3596 68.0488 39.6096V46.9143H66.8477ZM63.1855 45.7717C64.1947 45.7717 64.9857 45.495 65.5586 44.9417C66.138 44.3883 66.4277 43.6135 66.4277 42.6174V41.6506L64.8066 41.719C63.5176 41.7646 62.5866 41.9664 62.0137 42.3245C61.4473 42.676 61.1641 43.2262 61.1641 43.9749C61.1641 44.5608 61.3398 45.0068 61.6914 45.3127C62.0495 45.6187 62.5475 45.7717 63.1855 45.7717ZM76.2812 36.0159C76.7565 36.0159 77.1829 36.0549 77.5605 36.1331L77.3359 37.637C76.8932 37.5393 76.5026 37.4905 76.1641 37.4905C75.2982 37.4905 74.556 37.842 73.9375 38.5452C73.3255 39.2483 73.0195 40.1239 73.0195 41.1721V46.9143H71.3984V36.2112H72.7363L72.9219 38.1936H73C73.3971 37.497 73.8757 36.9599 74.4355 36.5823C74.9954 36.2047 75.6107 36.0159 76.2812 36.0159ZM83.8398 47.1096C82.2904 47.1096 81.0892 46.6344 80.2363 45.6838C79.39 44.7268 78.9668 43.3759 78.9668 41.6311C78.9668 39.8407 79.3965 38.4573 80.2559 37.4807C81.1217 36.5042 82.3522 36.0159 83.9473 36.0159C84.4616 36.0159 84.9759 36.0712 85.4902 36.1819C86.0046 36.2926 86.4082 36.4228 86.7012 36.5725L86.2031 37.9495C85.8451 37.8062 85.4544 37.689 85.0312 37.5979C84.6081 37.5002 84.2337 37.4514 83.9082 37.4514C81.7337 37.4514 80.6465 38.8381 80.6465 41.6116C80.6465 42.9267 80.9102 43.9358 81.4375 44.6389C81.9714 45.342 82.7591 45.6936 83.8008 45.6936C84.6927 45.6936 85.6074 45.5015 86.5449 45.1174V46.553C85.8288 46.9241 84.9271 47.1096 83.8398 47.1096ZM96.418 46.9143V39.9905C96.418 39.1181 96.2194 38.467 95.8223 38.0374C95.4251 37.6077 94.8034 37.3928 93.957 37.3928C92.8307 37.3928 92.0072 37.6988 91.4863 38.3108C90.972 38.9228 90.7148 39.9254 90.7148 41.3186V46.9143H89.0938V31.719H90.7148V36.3186C90.7148 36.872 90.6888 37.331 90.6367 37.6956H90.7344C91.0534 37.1812 91.5059 36.7776 92.0918 36.4846C92.6842 36.1851 93.3581 36.0354 94.1133 36.0354C95.4219 36.0354 96.4017 36.3479 97.0527 36.9729C97.7103 37.5914 98.0391 38.5777 98.0391 39.9319V46.9143H96.418Z" fill="#666666"/>
</g>
<g filter="url(#filter1_d_126_4466)">
<rect x="131.5" y="64.5" width="95" height="31" rx="2.5" fill="#FEFEFE" stroke="#CCCCCC"/>
<path d="M146.217 82.0625V88H144.557V73.7227H148.473C150.224 73.7227 151.516 74.0579 152.35 74.7285C153.189 75.3991 153.609 76.4082 153.609 77.7559C153.609 79.6439 152.652 80.9199 150.738 81.584L154.615 88H152.652L149.195 82.0625H146.217ZM146.217 80.6367H148.492C149.664 80.6367 150.523 80.4056 151.07 79.9434C151.617 79.4746 151.891 78.7747 151.891 77.8438C151.891 76.8997 151.611 76.2194 151.051 75.8027C150.497 75.3861 149.605 75.1777 148.375 75.1777H146.217V80.6367ZM161.197 88.1953C159.615 88.1953 158.365 87.7135 157.447 86.75C156.536 85.7865 156.08 84.4486 156.08 82.7363C156.08 81.0111 156.503 79.6406 157.35 78.625C158.202 77.6094 159.345 77.1016 160.777 77.1016C162.118 77.1016 163.18 77.5443 163.961 78.4297C164.742 79.3086 165.133 80.4707 165.133 81.916V82.9414H157.76C157.792 84.1979 158.108 85.1517 158.707 85.8027C159.312 86.4538 160.162 86.7793 161.256 86.7793C162.408 86.7793 163.548 86.5384 164.674 86.0566V87.502C164.101 87.7493 163.557 87.9251 163.043 88.0293C162.535 88.14 161.92 88.1953 161.197 88.1953ZM160.758 78.459C159.898 78.459 159.212 78.7389 158.697 79.2988C158.189 79.8587 157.89 80.6335 157.799 81.623H163.395C163.395 80.6009 163.167 79.8197 162.711 79.2793C162.255 78.7324 161.604 78.459 160.758 78.459ZM172.887 88.1953C172.19 88.1953 171.552 88.0684 170.973 87.8145C170.4 87.554 169.918 87.1569 169.527 86.623H169.41C169.488 87.248 169.527 87.8405 169.527 88.4004V92.8047H167.906V77.2969H169.225L169.449 78.7617H169.527C169.944 78.1758 170.429 77.7526 170.982 77.4922C171.536 77.2318 172.171 77.1016 172.887 77.1016C174.306 77.1016 175.4 77.5866 176.168 78.5566C176.943 79.5267 177.33 80.8874 177.33 82.6387C177.33 84.3965 176.936 85.7637 176.148 86.7402C175.367 87.7103 174.28 88.1953 172.887 88.1953ZM172.652 78.4785C171.559 78.4785 170.768 78.7812 170.279 79.3867C169.791 79.9922 169.54 80.9557 169.527 82.2773V82.6387C169.527 84.1426 169.778 85.2201 170.279 85.8711C170.781 86.5156 171.585 86.8379 172.691 86.8379C173.616 86.8379 174.339 86.4635 174.859 85.7148C175.387 84.9661 175.65 83.9342 175.65 82.6191C175.65 81.2845 175.387 80.2624 174.859 79.5527C174.339 78.8366 173.603 78.4785 172.652 78.4785ZM181.793 88H180.172V72.8047H181.793V88ZM191.812 88L191.49 86.4766H191.412C190.878 87.1471 190.344 87.6029 189.811 87.8438C189.283 88.0781 188.622 88.1953 187.828 88.1953C186.767 88.1953 185.934 87.9219 185.328 87.375C184.729 86.8281 184.43 86.0501 184.43 85.041C184.43 82.8796 186.158 81.7467 189.615 81.6426L191.432 81.584V80.9199C191.432 80.0801 191.249 79.4616 190.885 79.0645C190.527 78.6608 189.951 78.459 189.156 78.459C188.264 78.459 187.255 78.7324 186.129 79.2793L185.631 78.0391C186.158 77.7526 186.734 77.528 187.359 77.3652C187.991 77.2025 188.622 77.1211 189.254 77.1211C190.53 77.1211 191.474 77.4043 192.086 77.9707C192.704 78.5371 193.014 79.4453 193.014 80.6953V88H191.812ZM188.15 86.8574C189.16 86.8574 189.951 86.5807 190.523 86.0273C191.103 85.474 191.393 84.6992 191.393 83.7031V82.7363L189.771 82.8047C188.482 82.8503 187.551 83.0521 186.979 83.4102C186.412 83.7617 186.129 84.3118 186.129 85.0605C186.129 85.6465 186.305 86.0924 186.656 86.3984C187.014 86.7044 187.512 86.8574 188.15 86.8574ZM200.641 88.1953C199.091 88.1953 197.89 87.7201 197.037 86.7695C196.191 85.8125 195.768 84.4616 195.768 82.7168C195.768 80.9264 196.197 79.543 197.057 78.5664C197.923 77.5898 199.153 77.1016 200.748 77.1016C201.262 77.1016 201.777 77.1569 202.291 77.2676C202.805 77.3783 203.209 77.5085 203.502 77.6582L203.004 79.0352C202.646 78.8919 202.255 78.7747 201.832 78.6836C201.409 78.5859 201.035 78.5371 200.709 78.5371C198.535 78.5371 197.447 79.9238 197.447 82.6973C197.447 84.0124 197.711 85.0215 198.238 85.7246C198.772 86.4277 199.56 86.7793 200.602 86.7793C201.493 86.7793 202.408 86.5872 203.346 86.2031V87.6387C202.63 88.0098 201.728 88.1953 200.641 88.1953ZM210.416 88.1953C208.834 88.1953 207.584 87.7135 206.666 86.75C205.755 85.7865 205.299 84.4486 205.299 82.7363C205.299 81.0111 205.722 79.6406 206.568 78.625C207.421 77.6094 208.564 77.1016 209.996 77.1016C211.337 77.1016 212.398 77.5443 213.18 78.4297C213.961 79.3086 214.352 80.4707 214.352 81.916V82.9414H206.979C207.011 84.1979 207.327 85.1517 207.926 85.8027C208.531 86.4538 209.381 86.7793 210.475 86.7793C211.627 86.7793 212.766 86.5384 213.893 86.0566V87.502C213.32 87.7493 212.776 87.9251 212.262 88.0293C211.754 88.14 211.139 88.1953 210.416 88.1953ZM209.977 78.459C209.117 78.459 208.43 78.7389 207.916 79.2988C207.408 79.8587 207.109 80.6335 207.018 81.623H212.613C212.613 80.6009 212.385 79.8197 211.93 79.2793C211.474 78.7324 210.823 78.459 209.977 78.459Z" fill="#666666"/>
</g>
<circle cx="120" cy="63" r="20" fill="#FF6F3D"/>
<path fill-rule="evenodd" clip-rule="evenodd" d="M112.67 56.3188C112.179 56.3188 111.78 56.7173 111.78 57.2089V70.2638C111.78 70.7554 112.179 71.154 112.67 71.154H125.725C126.217 71.154 126.615 70.7554 126.615 70.2638V63.7364C126.615 63.2448 127.014 62.8463 127.505 62.8463C127.997 62.8463 128.396 63.2448 128.396 63.7364V70.2638C128.396 71.7386 127.2 72.9342 125.725 72.9342H112.67C111.196 72.9342 110 71.7386 110 70.2638V57.2089C110 55.7341 111.196 54.5386 112.67 54.5386H119.198C119.689 54.5386 120.088 54.9371 120.088 55.4287C120.088 55.9203 119.689 56.3188 119.198 56.3188H112.67Z" fill="white"/>
<path fill-rule="evenodd" clip-rule="evenodd" d="M121.539 53.7692C121.539 53.3444 121.883 53 122.308 53H128.975C129.4 53 129.744 53.3444 129.744 53.7692C129.744 54.1941 129.4 54.5385 128.975 54.5385H122.308C121.883 54.5385 121.539 54.1941 121.539 53.7692Z" fill="white"/>
<path fill-rule="evenodd" clip-rule="evenodd" d="M119.774 63.2336C119.474 62.9332 119.463 62.4573 119.75 62.1706L128.401 53.519C128.688 53.2323 129.164 53.2434 129.464 53.5438C129.765 53.8442 129.776 54.3202 129.489 54.6069L120.837 63.2585C120.551 63.5451 120.075 63.534 119.774 63.2336Z" fill="white"/>
<path fill-rule="evenodd" clip-rule="evenodd" d="M129.23 61.2053C128.805 61.2053 128.461 60.8609 128.461 60.4361L128.461 53.7694C128.461 53.3446 128.805 53.0002 129.23 53.0002C129.655 53.0002 129.999 53.3446 129.999 53.7694L129.999 60.4361C129.999 60.8609 129.655 61.2053 129.23 61.2053Z" fill="white"/>
<defs>
<filter id="filter0_d_126_4466" x="11" y="15" width="114" height="62" filterUnits="userSpaceOnUse" color-interpolation-filters="sRGB">
<feFlood flood-opacity="0" result="BackgroundImageFix"/>
<feColorMatrix in="SourceAlpha" type="matrix" values="0 0 0 0 0 0 0 0 0 0 0 0 0 0 0 0 0 0 127 0" result="hardAlpha"/>
<feOffset dy="7"/>
<feGaussianBlur stdDeviation="7.5"/>
<feColorMatrix type="matrix" values="0 0 0 0 0.333333 0 0 0 0 0.333333 0 0 0 0 0.333333 0 0 0 0.1 0"/>
<feBlend mode="normal" in2="BackgroundImageFix" result="effect1_dropShadow_126_4466"/>
<feBlend mode="normal" in="SourceGraphic" in2="effect1_dropShadow_126_4466" result="shape"/>
</filter>
<filter id="filter1_d_126_4466" x="116" y="56" width="126" height="62" filterUnits="userSpaceOnUse" color-interpolation-filters="sRGB">
<feFlood flood-opacity="0" result="BackgroundImageFix"/>
<feColorMatrix in="SourceAlpha" type="matrix" values="0 0 0 0 0 0 0 0 0 0 0 0 0 0 0 0 0 0 127 0" result="hardAlpha"/>
<feOffset dy="7"/>
<feGaussianBlur stdDeviation="7.5"/>
<feColorMatrix type="matrix" values="0 0 0 0 0.333333 0 0 0 0 0.333333 0 0 0 0 0.333333 0 0 0 0.1 0"/>
<feBlend mode="normal" in2="BackgroundImageFix" result="effect1_dropShadow_126_4466"/>
<feBlend mode="normal" in="SourceGraphic" in2="effect1_dropShadow_126_4466" result="shape"/>
</filter>
</defs>
</svg>
