<svg width="254" height="120" viewBox="0 0 254 120" fill="none" xmlns="http://www.w3.org/2000/svg">
<path d="M109.89 54H106.374V44.3467H96.501V54H93V32.584H96.501V41.3438H106.374V32.584H109.89V54Z" fill="#FF6F3D"/>
<path d="M121.638 54.293C119.119 54.293 117.146 53.5605 115.72 52.0957C114.304 50.6211 113.596 48.5947 113.596 46.0166C113.596 43.3701 114.255 41.29 115.574 39.7764C116.892 38.2627 118.704 37.5059 121.008 37.5059C123.147 37.5059 124.837 38.1553 126.077 39.4541C127.317 40.7529 127.937 42.54 127.937 44.8154V46.6758H117.141C117.19 48.248 117.615 49.459 118.416 50.3086C119.216 51.1484 120.344 51.5684 121.799 51.5684C122.756 51.5684 123.645 51.4805 124.465 51.3047C125.296 51.1191 126.184 50.8164 127.131 50.3965V53.1943C126.292 53.5947 125.442 53.8779 124.583 54.0439C123.723 54.21 122.742 54.293 121.638 54.293ZM121.008 40.1133C119.915 40.1133 119.036 40.46 118.372 41.1533C117.717 41.8467 117.327 42.8574 117.2 44.1855H124.553C124.534 42.8477 124.212 41.8369 123.587 41.1533C122.962 40.46 122.102 40.1133 121.008 40.1133Z" fill="#FF6F3D"/>
<path d="M134.69 54H131.248V31.207H134.69V54Z" fill="#FF6F3D"/>
<path d="M142.47 54H139.027V31.207H142.47V54Z" fill="#FF6F3D"/>
<path d="M161.176 45.8701C161.176 48.5166 160.498 50.582 159.14 52.0664C157.783 53.5508 155.893 54.293 153.471 54.293C151.958 54.293 150.62 53.9512 149.458 53.2676C148.296 52.584 147.402 51.6025 146.777 50.3232C146.152 49.0439 145.839 47.5596 145.839 45.8701C145.839 43.2432 146.513 41.1924 147.861 39.7178C149.209 38.2432 151.108 37.5059 153.559 37.5059C155.903 37.5059 157.758 38.2627 159.126 39.7764C160.493 41.2803 161.176 43.3115 161.176 45.8701ZM149.384 45.8701C149.384 49.6104 150.766 51.4805 153.53 51.4805C156.264 51.4805 157.631 49.6104 157.631 45.8701C157.631 42.1689 156.254 40.3184 153.501 40.3184C152.055 40.3184 151.005 40.7969 150.351 41.7539C149.707 42.7109 149.384 44.083 149.384 45.8701Z" fill="#FF6F3D"/>
<rect opacity="0.1" x="85" y="24" width="85" height="37" fill="#FF6F3D"/>
<g filter="url(#filter0_d_126_4304)">
<path d="M89 67C89 66.4477 89.4477 66 90 66H164C164.552 66 165 66.4477 165 67V97C165 97.5523 164.552 98 164 98H90C89.4477 98 89 97.5523 89 97V67Z" fill="white"/>
<path d="M90 66.5H164C164.276 66.5 164.5 66.7239 164.5 67V97C164.5 97.2761 164.276 97.5 164 97.5H90C89.7239 97.5 89.5 97.2761 89.5 97V67C89.5 66.7239 89.7239 66.5 90 66.5Z" stroke="#CCCCCC"/>
</g>
<path d="M115.84 89.1953H114.18V82.4766H106.66V89.1953H105V74.918H106.66V80.9922H114.18V74.918H115.84V89.1953Z" fill="#808080"/>
<path d="M123.643 89.3906C122.061 89.3906 120.811 88.9089 119.893 87.9453C118.982 86.9818 118.526 85.6439 118.526 83.9316C118.526 82.2064 118.949 80.8359 119.795 79.8203C120.648 78.8047 121.791 78.2969 123.223 78.2969C124.564 78.2969 125.625 78.7396 126.407 79.625C127.188 80.5039 127.579 81.666 127.579 83.1113V84.1367H120.205C120.238 85.3932 120.554 86.347 121.153 86.998C121.758 87.6491 122.608 87.9746 123.702 87.9746C124.854 87.9746 125.993 87.7337 127.12 87.252V88.6973C126.547 88.9447 126.003 89.1204 125.489 89.2246C124.981 89.3353 124.366 89.3906 123.643 89.3906ZM123.204 79.6543C122.344 79.6543 121.657 79.9342 121.143 80.4941C120.635 81.054 120.336 81.8288 120.245 82.8184H125.84C125.84 81.7962 125.612 81.015 125.157 80.4746C124.701 79.9277 124.05 79.6543 123.204 79.6543Z" fill="#808080"/>
<path d="M131.573 89.1953H129.952V74H131.573V89.1953Z" fill="#808080"/>
<path d="M136.232 89.1953H134.611V74H136.232V89.1953Z" fill="#808080"/>
<path d="M148.507 83.834C148.507 85.5788 148.068 86.9427 147.189 87.9258C146.31 88.9023 145.096 89.3906 143.546 89.3906C142.589 89.3906 141.74 89.166 140.998 88.7168C140.255 88.2676 139.683 87.623 139.279 86.7832C138.875 85.9434 138.673 84.9603 138.673 83.834C138.673 82.0892 139.11 80.7318 139.982 79.7617C140.854 78.7852 142.065 78.2969 143.615 78.2969C145.112 78.2969 146.3 78.7949 147.179 79.791C148.065 80.7871 148.507 82.1348 148.507 83.834ZM140.353 83.834C140.353 85.2012 140.627 86.2428 141.173 86.959C141.72 87.6751 142.524 88.0332 143.586 88.0332C144.647 88.0332 145.451 87.6784 145.998 86.9688C146.551 86.2526 146.828 85.2077 146.828 83.834C146.828 82.4733 146.551 81.4414 145.998 80.7383C145.451 80.0286 144.64 79.6738 143.566 79.6738C142.505 79.6738 141.704 80.0221 141.164 80.7188C140.623 81.4154 140.353 82.4538 140.353 83.834Z" fill="#808080"/>
<path fill-rule="evenodd" clip-rule="evenodd" d="M175.349 92.6745C175.349 98.5699 170.57 103.349 164.675 103.349C158.779 103.349 154 98.5699 154 92.6745C154 86.7792 158.779 82 164.675 82C170.57 82 175.349 86.7792 175.349 92.6745ZM172.265 102.826C170.149 104.41 167.522 105.349 164.675 105.349C157.675 105.349 152 99.6745 152 92.6745C152 85.6746 157.675 80 164.675 80C171.675 80 177.349 85.6746 177.349 92.6745C177.349 95.5215 176.411 98.1492 174.826 100.265L183.707 109.147C184.098 109.537 184.098 110.17 183.707 110.561L182.561 111.707C182.17 112.098 181.537 112.098 181.147 111.707L172.265 102.826Z" fill="#FF6F3D"/>
<defs>
<filter id="filter0_d_126_4304" x="74" y="58" width="106" height="62" filterUnits="userSpaceOnUse" color-interpolation-filters="sRGB">
<feFlood flood-opacity="0" result="BackgroundImageFix"/>
<feColorMatrix in="SourceAlpha" type="matrix" values="0 0 0 0 0 0 0 0 0 0 0 0 0 0 0 0 0 0 127 0" result="hardAlpha"/>
<feOffset dy="7"/>
<feGaussianBlur stdDeviation="7.5"/>
<feColorMatrix type="matrix" values="0 0 0 0 0.333333 0 0 0 0 0.333333 0 0 0 0 0.333333 0 0 0 0.1 0"/>
<feBlend mode="normal" in2="BackgroundImageFix" result="effect1_dropShadow_126_4304"/>
<feBlend mode="normal" in="SourceGraphic" in2="effect1_dropShadow_126_4304" result="shape"/>
</filter>
</defs>
</svg>
