<svg width="254" height="120" viewBox="0 0 254 120" fill="none" xmlns="http://www.w3.org/2000/svg">
<rect width="254" height="120" rx="3" fill="#F9F9F9"/>
<path d="M106.717 54H103.201V44.3467H93.3281V54H89.8271V32.584H93.3281V41.3438H103.201V32.584H106.717V54Z" fill="#FF6F3D"/>
<path d="M118.465 54.293C115.946 54.293 113.973 53.5605 112.547 52.0957C111.131 50.6211 110.423 48.5947 110.423 46.0166C110.423 43.3701 111.083 41.29 112.401 39.7764C113.719 38.2627 115.531 37.5059 117.836 37.5059C119.974 37.5059 121.664 38.1553 122.904 39.4541C124.144 40.7529 124.764 42.54 124.764 44.8154V46.6758H113.968C114.017 48.248 114.442 49.459 115.243 50.3086C116.044 51.1484 117.171 51.5684 118.627 51.5684C119.584 51.5684 120.472 51.4805 121.293 51.3047C122.123 51.1191 123.011 50.8164 123.959 50.3965V53.1943C123.119 53.5947 122.269 53.8779 121.41 54.0439C120.55 54.21 119.569 54.293 118.465 54.293ZM117.836 40.1133C116.742 40.1133 115.863 40.46 115.199 41.1533C114.545 41.8467 114.154 42.8574 114.027 44.1855H121.38C121.361 42.8477 121.039 41.8369 120.414 41.1533C119.789 40.46 118.929 40.1133 117.836 40.1133Z" fill="#FF6F3D"/>
<path d="M131.518 54H128.075V31.207H131.518V54Z" fill="#FF6F3D"/>
<path d="M139.297 54H135.854V31.207H139.297V54Z" fill="#FF6F3D"/>
<path d="M158.003 45.8701C158.003 48.5166 157.325 50.582 155.967 52.0664C154.61 53.5508 152.72 54.293 150.298 54.293C148.785 54.293 147.447 53.9512 146.285 53.2676C145.122 52.584 144.229 51.6025 143.604 50.3232C142.979 49.0439 142.666 47.5596 142.666 45.8701C142.666 43.2432 143.34 41.1924 144.688 39.7178C146.035 38.2432 147.935 37.5059 150.386 37.5059C152.73 37.5059 154.585 38.2627 155.952 39.7764C157.32 41.2803 158.003 43.3115 158.003 45.8701ZM146.211 45.8701C146.211 49.6104 147.593 51.4805 150.357 51.4805C153.091 51.4805 154.458 49.6104 154.458 45.8701C154.458 42.1689 153.081 40.3184 150.327 40.3184C148.882 40.3184 147.832 40.7969 147.178 41.7539C146.534 42.7109 146.211 44.083 146.211 45.8701Z" fill="#FF6F3D"/>
<rect opacity="0.1" x="85" y="24" width="85" height="37" fill="#FF6F3D"/>
<g filter="url(#filter0_d)">
<path d="M89 66H165V98H89V66Z" fill="white"/>
</g>
<g filter="url(#filter1_d)">
<path fill-rule="evenodd" clip-rule="evenodd" d="M164.191 66.8649H89.8085V97.1351H164.191V66.8649ZM89 66V98H165V66H89Z" fill="#CCCCCC"/>
</g>
<path d="M115.84 89.1953H114.18V82.4766H106.66V89.1953H105V74.918H106.66V80.9922H114.18V74.918H115.84V89.1953Z" fill="#808080"/>
<path d="M123.643 89.3906C122.061 89.3906 120.811 88.9089 119.893 87.9453C118.982 86.9818 118.526 85.6439 118.526 83.9316C118.526 82.2064 118.949 80.8359 119.795 79.8203C120.648 78.8047 121.791 78.2969 123.223 78.2969C124.564 78.2969 125.625 78.7396 126.407 79.625C127.188 80.5039 127.579 81.666 127.579 83.1113V84.1367H120.205C120.238 85.3932 120.554 86.347 121.153 86.998C121.758 87.6491 122.608 87.9746 123.702 87.9746C124.854 87.9746 125.993 87.7337 127.12 87.252V88.6973C126.547 88.9447 126.003 89.1204 125.489 89.2246C124.981 89.3353 124.366 89.3906 123.643 89.3906ZM123.204 79.6543C122.344 79.6543 121.657 79.9342 121.143 80.4941C120.635 81.054 120.336 81.8288 120.245 82.8184H125.84C125.84 81.7962 125.612 81.015 125.157 80.4746C124.701 79.9277 124.05 79.6543 123.204 79.6543Z" fill="#808080"/>
<path d="M131.573 89.1953H129.952V74H131.573V89.1953Z" fill="#808080"/>
<path d="M136.232 89.1953H134.611V74H136.232V89.1953Z" fill="#808080"/>
<path d="M148.507 83.834C148.507 85.5788 148.068 86.9427 147.189 87.9258C146.31 88.9023 145.096 89.3906 143.546 89.3906C142.589 89.3906 141.74 89.166 140.998 88.7168C140.255 88.2676 139.683 87.623 139.279 86.7832C138.875 85.9434 138.673 84.9603 138.673 83.834C138.673 82.0892 139.11 80.7318 139.982 79.7617C140.854 78.7852 142.065 78.2969 143.615 78.2969C145.112 78.2969 146.3 78.7949 147.179 79.791C148.065 80.7871 148.507 82.1348 148.507 83.834ZM140.353 83.834C140.353 85.2012 140.627 86.2428 141.173 86.959C141.72 87.6751 142.524 88.0332 143.586 88.0332C144.647 88.0332 145.451 87.6784 145.998 86.9688C146.551 86.2526 146.828 85.2077 146.828 83.834C146.828 82.4733 146.551 81.4414 145.998 80.7383C145.451 80.0286 144.64 79.6738 143.566 79.6738C142.505 79.6738 141.704 80.0221 141.164 80.7188C140.623 81.4154 140.353 82.4538 140.353 83.834Z" fill="#808080"/>
<path fill-rule="evenodd" clip-rule="evenodd" d="M175.349 92.6745C175.349 98.5699 170.57 103.349 164.675 103.349C158.779 103.349 154 98.5699 154 92.6745C154 86.7792 158.779 82 164.675 82C170.57 82 175.349 86.7792 175.349 92.6745ZM172.265 102.826C170.149 104.41 167.522 105.349 164.675 105.349C157.675 105.349 152 99.6745 152 92.6745C152 85.6746 157.675 80 164.675 80C171.675 80 177.349 85.6746 177.349 92.6745C177.349 95.5215 176.411 98.1492 174.826 100.265L183.707 109.147C184.098 109.537 184.098 110.17 183.707 110.561L182.561 111.707C182.17 112.098 181.537 112.098 181.147 111.707L172.265 102.826Z" fill="#FF6F3D"/>
<defs>
<filter id="filter0_d" x="74" y="58" width="106" height="62" filterUnits="userSpaceOnUse" color-interpolation-filters="sRGB">
<feFlood flood-opacity="0" result="BackgroundImageFix"/>
<feColorMatrix in="SourceAlpha" type="matrix" values="0 0 0 0 0 0 0 0 0 0 0 0 0 0 0 0 0 0 127 0"/>
<feOffset dy="7"/>
<feGaussianBlur stdDeviation="7.5"/>
<feColorMatrix type="matrix" values="0 0 0 0 0.333333 0 0 0 0 0.333333 0 0 0 0 0.333333 0 0 0 0.1 0"/>
<feBlend mode="normal" in2="BackgroundImageFix" result="effect1_dropShadow"/>
<feBlend mode="normal" in="SourceGraphic" in2="effect1_dropShadow" result="shape"/>
</filter>
<filter id="filter1_d" x="74" y="58" width="106" height="62" filterUnits="userSpaceOnUse" color-interpolation-filters="sRGB">
<feFlood flood-opacity="0" result="BackgroundImageFix"/>
<feColorMatrix in="SourceAlpha" type="matrix" values="0 0 0 0 0 0 0 0 0 0 0 0 0 0 0 0 0 0 127 0"/>
<feOffset dy="7"/>
<feGaussianBlur stdDeviation="7.5"/>
<feColorMatrix type="matrix" values="0 0 0 0 0.333333 0 0 0 0 0.333333 0 0 0 0 0.333333 0 0 0 0.1 0"/>
<feBlend mode="normal" in2="BackgroundImageFix" result="effect1_dropShadow"/>
<feBlend mode="normal" in="SourceGraphic" in2="effect1_dropShadow" result="shape"/>
</filter>
</defs>
</svg>
