<svg width="222" height="100" viewBox="0 0 222 100" fill="none" xmlns="http://www.w3.org/2000/svg">
<g filter="url(#filter0_d)">
<rect x="15.5" y="8.50012" width="83" height="31" rx="2.5" fill="#FEFEFE" stroke="#CCCCCC"/>
<path d="M34.9962 28.1165C34.9962 29.373 34.5404 30.3528 33.629 31.0559C32.7175 31.759 31.4805 32.1106 29.918 32.1106C28.2253 32.1106 26.9232 31.8925 26.0118 31.4563V29.8547C26.5977 30.1021 27.2357 30.2974 27.9259 30.4407C28.616 30.5839 29.2996 30.6555 29.9766 30.6555C31.0834 30.6555 31.9167 30.4472 32.4766 30.0305C33.0365 29.6073 33.3165 29.0214 33.3165 28.2727C33.3165 27.7779 33.2156 27.3743 33.0137 27.0618C32.8184 26.7428 32.4864 26.4498 32.0177 26.1829C31.5554 25.9159 30.849 25.6132 29.8985 25.2747C28.5704 24.7994 27.6199 24.2362 27.0469 23.5852C26.4805 22.9342 26.1973 22.0846 26.1973 21.0364C26.1973 19.9361 26.6107 19.0605 27.4376 18.4094C28.2644 17.7584 29.3581 17.4329 30.7188 17.4329C32.1381 17.4329 33.4434 17.6933 34.6348 18.2141L34.1173 19.6594C32.9389 19.1646 31.793 18.9172 30.6798 18.9172C29.8009 18.9172 29.114 19.106 28.6192 19.4836C28.1244 19.8612 27.877 20.3853 27.877 21.0559C27.877 21.5507 27.9682 21.9576 28.1505 22.2766C28.3328 22.5891 28.6387 22.8788 29.0684 23.1458C29.5046 23.4062 30.1687 23.6959 31.0606 24.0149C32.558 24.5487 33.5867 25.1217 34.1466 25.7336C34.713 26.3456 34.9962 27.1399 34.9962 28.1165ZM42.1934 32.1106C40.6114 32.1106 39.3614 31.6288 38.4434 30.6653C37.532 29.7017 37.0762 28.3639 37.0762 26.6516C37.0762 24.9264 37.4994 23.5559 38.3458 22.5403C39.1986 21.5247 40.3412 21.0168 41.7735 21.0168C43.1147 21.0168 44.1759 21.4596 44.9571 22.345C45.7384 23.2239 46.129 24.386 46.129 25.8313V26.8567H38.7559C38.7885 28.1132 39.1042 29.067 39.7032 29.718C40.3087 30.3691 41.1583 30.6946 42.252 30.6946C43.4044 30.6946 44.5437 30.4537 45.67 29.9719V31.4172C45.0971 31.6646 44.5535 31.8404 44.0391 31.9446C43.5313 32.0553 42.9161 32.1106 42.1934 32.1106ZM41.754 22.3743C40.8946 22.3743 40.2078 22.6542 39.6934 23.2141C39.1856 23.774 38.8861 24.5487 38.795 25.5383H44.3907C44.3907 24.5162 44.1628 23.7349 43.7071 23.1946C43.2514 22.6477 42.6003 22.3743 41.754 22.3743ZM55.4844 31.9153L55.1622 30.3918H55.0841C54.5502 31.0624 54.0163 31.5181 53.4825 31.759C52.9552 31.9934 52.2943 32.1106 51.5001 32.1106C50.4389 32.1106 49.6055 31.8372 49.0001 31.2903C48.4011 30.7434 48.1016 29.9654 48.1016 28.9563C48.1016 26.7948 49.8302 25.662 53.2872 25.5579L55.1036 25.4993V24.8352C55.1036 23.9954 54.9213 23.3769 54.5567 22.9797C54.1986 22.5761 53.6225 22.3743 52.8282 22.3743C51.9363 22.3743 50.9272 22.6477 49.8009 23.1946L49.3028 21.9543C49.8302 21.6679 50.4063 21.4433 51.0313 21.2805C51.6628 21.1178 52.2943 21.0364 52.9259 21.0364C54.2019 21.0364 55.1459 21.3196 55.7579 21.886C56.3764 22.4524 56.6856 23.3606 56.6856 24.6106V31.9153H55.4844ZM51.8223 30.7727C52.8315 30.7727 53.6225 30.496 54.1954 29.9426C54.7748 29.3892 55.0645 28.6145 55.0645 27.6184V26.6516L53.4434 26.72C52.1544 26.7655 51.2234 26.9674 50.6505 27.3254C50.0841 27.677 49.8009 28.2271 49.8009 28.9758C49.8009 29.5618 49.9766 30.0077 50.3282 30.3137C50.6863 30.6197 51.1843 30.7727 51.8223 30.7727ZM64.918 21.0168C65.3933 21.0168 65.8197 21.0559 66.1973 21.134L65.9727 22.6379C65.53 22.5403 65.1394 22.4915 64.8009 22.4915C63.935 22.4915 63.1928 22.843 62.5743 23.5461C61.9623 24.2493 61.6563 25.1249 61.6563 26.1731V31.9153H60.0352V21.2122H61.3731L61.5587 23.1946H61.6368C62.0339 22.498 62.5124 21.9609 63.0723 21.5833C63.6322 21.2056 64.2475 21.0168 64.918 21.0168ZM72.4766 32.1106C70.9272 32.1106 69.726 31.6353 68.8731 30.6848C68.0268 29.7278 67.6036 28.3769 67.6036 26.6321C67.6036 24.8417 68.0333 23.4583 68.8927 22.4817C69.7585 21.5051 70.989 21.0168 72.5841 21.0168C73.0984 21.0168 73.6127 21.0722 74.127 21.1829C74.6413 21.2935 75.045 21.4237 75.338 21.5735L74.8399 22.9504C74.4818 22.8072 74.0912 22.69 73.668 22.5989C73.2449 22.5012 72.8705 22.4524 72.545 22.4524C70.3705 22.4524 69.2833 23.8391 69.2833 26.6125C69.2833 27.9277 69.5469 28.9368 70.0743 29.6399C70.6081 30.343 71.3959 30.6946 72.4376 30.6946C73.3295 30.6946 74.2442 30.5025 75.1817 30.1184V31.554C74.4656 31.925 73.5639 32.1106 72.4766 32.1106ZM85.0548 31.9153V24.9915C85.0548 24.1191 84.8562 23.468 84.4591 23.0383C84.0619 22.6086 83.4402 22.3938 82.5938 22.3938C81.4675 22.3938 80.644 22.6998 80.1231 23.3118C79.6088 23.9237 79.3516 24.9264 79.3516 26.3196V31.9153H77.7305V16.72H79.3516V21.3196C79.3516 21.873 79.3256 22.3319 79.2735 22.6965H79.3712C79.6902 22.1822 80.1427 21.7786 80.7286 21.4856C81.321 21.1861 81.9949 21.0364 82.7501 21.0364C84.0587 21.0364 85.0385 21.3489 85.6895 21.9739C86.3471 22.5924 86.6759 23.5787 86.6759 24.9329V31.9153H85.0548Z" fill="#666666"/>
</g>
<g filter="url(#filter1_d)">
<rect x="121.5" y="46.5001" width="85" height="31" rx="2.5" fill="#FEFEFE" stroke="#CCCCCC"/>
<path d="M131.217 64.0626V70.0001H129.557V55.7228H133.473C135.224 55.7228 136.516 56.0581 137.35 56.7286C138.189 57.3992 138.609 58.4083 138.609 59.756C138.609 61.644 137.652 62.92 135.738 63.5841L139.615 70.0001H137.652L134.195 64.0626H131.217ZM131.217 62.6368H133.492C134.664 62.6368 135.523 62.4057 136.07 61.9435C136.617 61.4747 136.891 60.7749 136.891 59.8439C136.891 58.8999 136.611 58.2195 136.051 57.8029C135.497 57.3862 134.605 57.1779 133.375 57.1779H131.217V62.6368ZM146.197 70.1954C144.615 70.1954 143.365 69.7137 142.447 68.7501C141.536 67.7866 141.08 66.4487 141.08 64.7365C141.08 63.0112 141.503 61.6407 142.35 60.6251C143.202 59.6095 144.345 59.1017 145.777 59.1017C147.118 59.1017 148.18 59.5444 148.961 60.4298C149.742 61.3087 150.133 62.4708 150.133 63.9161V64.9415H142.76C142.792 66.198 143.108 67.1518 143.707 67.8029C144.312 68.4539 145.162 68.7794 146.256 68.7794C147.408 68.7794 148.548 68.5385 149.674 68.0568V69.5021C149.101 69.7495 148.557 69.9253 148.043 70.0294C147.535 70.1401 146.92 70.1954 146.197 70.1954ZM145.758 60.4591C144.898 60.4591 144.212 60.7391 143.697 61.299C143.189 61.8588 142.89 62.6336 142.799 63.6232H148.395C148.395 62.601 148.167 61.8198 147.711 61.2794C147.255 60.7325 146.604 60.4591 145.758 60.4591ZM157.887 70.1954C157.19 70.1954 156.552 70.0685 155.973 69.8146C155.4 69.5542 154.918 69.157 154.527 68.6232H154.41C154.488 69.2482 154.527 69.8406 154.527 70.4005V74.8048H152.906V59.297H154.225L154.449 60.7618H154.527C154.944 60.1759 155.429 59.7527 155.982 59.4923C156.536 59.2319 157.171 59.1017 157.887 59.1017C159.306 59.1017 160.4 59.5867 161.168 60.5568C161.943 61.5268 162.33 62.8875 162.33 64.6388C162.33 66.3966 161.936 67.7638 161.148 68.7404C160.367 69.7104 159.28 70.1954 157.887 70.1954ZM157.652 60.4786C156.559 60.4786 155.768 60.7814 155.279 61.3868C154.791 61.9923 154.54 62.9559 154.527 64.2775V64.6388C154.527 66.1427 154.778 67.2202 155.279 67.8712C155.781 68.5157 156.585 68.838 157.691 68.838C158.616 68.838 159.339 68.4637 159.859 67.715C160.387 66.9663 160.65 65.9344 160.65 64.6193C160.65 63.2846 160.387 62.2625 159.859 61.5529C159.339 60.8367 158.603 60.4786 157.652 60.4786ZM166.793 70.0001H165.172V54.8048H166.793V70.0001ZM176.812 70.0001L176.49 68.4767H176.412C175.878 69.1473 175.344 69.603 174.811 69.8439C174.283 70.0782 173.622 70.1954 172.828 70.1954C171.767 70.1954 170.934 69.922 170.328 69.3751C169.729 68.8282 169.43 68.0503 169.43 67.0411C169.43 64.8797 171.158 63.7469 174.615 63.6427L176.432 63.5841V62.92C176.432 62.0802 176.249 61.4617 175.885 61.0646C175.527 60.6609 174.951 60.4591 174.156 60.4591C173.264 60.4591 172.255 60.7325 171.129 61.2794L170.631 60.0392C171.158 59.7527 171.734 59.5281 172.359 59.3654C172.991 59.2026 173.622 59.1212 174.254 59.1212C175.53 59.1212 176.474 59.4044 177.086 59.9708C177.704 60.5372 178.014 61.4454 178.014 62.6954V70.0001H176.812ZM173.15 68.8575C174.16 68.8575 174.951 68.5809 175.523 68.0275C176.103 67.4741 176.393 66.6993 176.393 65.7032V64.7365L174.771 64.8048C173.482 64.8504 172.551 65.0522 171.979 65.4103C171.412 65.7618 171.129 66.312 171.129 67.0607C171.129 67.6466 171.305 68.0926 171.656 68.3986C172.014 68.7045 172.512 68.8575 173.15 68.8575ZM185.641 70.1954C184.091 70.1954 182.89 69.7202 182.037 68.7697C181.191 67.8126 180.768 66.4617 180.768 64.7169C180.768 62.9266 181.197 61.5431 182.057 60.5665C182.923 59.59 184.153 59.1017 185.748 59.1017C186.262 59.1017 186.777 59.157 187.291 59.2677C187.805 59.3784 188.209 59.5086 188.502 59.6583L188.004 61.0353C187.646 60.892 187.255 60.7749 186.832 60.6837C186.409 60.5861 186.035 60.5372 185.709 60.5372C183.535 60.5372 182.447 61.924 182.447 64.6974C182.447 66.0125 182.711 67.0216 183.238 67.7247C183.772 68.4279 184.56 68.7794 185.602 68.7794C186.493 68.7794 187.408 68.5874 188.346 68.2032V69.6388C187.63 70.0099 186.728 70.1954 185.641 70.1954ZM195.416 70.1954C193.834 70.1954 192.584 69.7137 191.666 68.7501C190.755 67.7866 190.299 66.4487 190.299 64.7365C190.299 63.0112 190.722 61.6407 191.568 60.6251C192.421 59.6095 193.564 59.1017 194.996 59.1017C196.337 59.1017 197.398 59.5444 198.18 60.4298C198.961 61.3087 199.352 62.4708 199.352 63.9161V64.9415H191.979C192.011 66.198 192.327 67.1518 192.926 67.8029C193.531 68.4539 194.381 68.7794 195.475 68.7794C196.627 68.7794 197.766 68.5385 198.893 68.0568V69.5021C198.32 69.7495 197.776 69.9253 197.262 70.0294C196.754 70.1401 196.139 70.1954 195.416 70.1954ZM194.977 60.4591C194.117 60.4591 193.43 60.7391 192.916 61.299C192.408 61.8588 192.109 62.6336 192.018 63.6232H197.613C197.613 62.601 197.385 61.8198 196.93 61.2794C196.474 60.7325 195.823 60.4591 194.977 60.4591Z" fill="#666666"/>
</g>
<g clip-path="url(#clip0)">
<path d="M111.543 42.1902H123.663V30.0702H119.589V35.1294C118.067 33.0338 116.172 31.2223 113.979 29.7861C110.499 27.5066 106.451 26.302 102.275 26.302C90.4814 26.302 80.8867 35.8966 80.8867 47.6899H84.9606C84.9606 38.1431 92.7278 30.3758 102.275 30.3758C108.114 30.3758 113.525 33.343 116.703 38.1164H111.543V42.1902ZM93.0068 57.2635H87.8453C91.0214 62.0393 96.426 65.004 102.275 65.004C111.822 65.004 119.589 57.2368 119.589 47.6899H123.663C123.663 52.855 121.822 57.5978 118.763 61.2979L133.047 75.5816L130.166 78.4624L115.883 64.1787C112.182 67.2377 107.44 69.0779 102.275 69.0779C95.3535 69.0779 88.9365 65.7168 84.9606 60.2477V65.3097H80.8867V53.1896H93.0068V57.2635Z" fill="#FF6F3D"/>
</g>
<defs>
<filter id="filter0_d" x="0" y="0.00012207" width="114" height="62" filterUnits="userSpaceOnUse" color-interpolation-filters="sRGB">
<feFlood flood-opacity="0" result="BackgroundImageFix"/>
<feColorMatrix in="SourceAlpha" type="matrix" values="0 0 0 0 0 0 0 0 0 0 0 0 0 0 0 0 0 0 127 0"/>
<feOffset dy="7"/>
<feGaussianBlur stdDeviation="7.5"/>
<feColorMatrix type="matrix" values="0 0 0 0 0.333333 0 0 0 0 0.333333 0 0 0 0 0.333333 0 0 0 0.1 0"/>
<feBlend mode="normal" in2="BackgroundImageFix" result="effect1_dropShadow"/>
<feBlend mode="normal" in="SourceGraphic" in2="effect1_dropShadow" result="shape"/>
</filter>
<filter id="filter1_d" x="106" y="38.0001" width="116" height="62" filterUnits="userSpaceOnUse" color-interpolation-filters="sRGB">
<feFlood flood-opacity="0" result="BackgroundImageFix"/>
<feColorMatrix in="SourceAlpha" type="matrix" values="0 0 0 0 0 0 0 0 0 0 0 0 0 0 0 0 0 0 127 0"/>
<feOffset dy="7"/>
<feGaussianBlur stdDeviation="7.5"/>
<feColorMatrix type="matrix" values="0 0 0 0 0.333333 0 0 0 0 0.333333 0 0 0 0 0.333333 0 0 0 0.1 0"/>
<feBlend mode="normal" in2="BackgroundImageFix" result="effect1_dropShadow"/>
<feBlend mode="normal" in="SourceGraphic" in2="effect1_dropShadow" result="shape"/>
</filter>
<clipPath id="clip0">
<rect width="52.1604" height="52.1604" fill="white" transform="matrix(-1 0 0 1 133.047 26.302)"/>
</clipPath>
</defs>
</svg>
