<svg width="254" height="120" viewBox="0 0 254 120" fill="none" xmlns="http://www.w3.org/2000/svg">
<g filter="url(#filter0_d_126_4131)">
<rect x="30.5" y="25.5001" width="83" height="31" rx="2.5" fill="#FEFEFE" stroke="#CCCCCC"/>
<path d="M49.9962 45.1164C49.9962 46.3729 49.5404 47.3527 48.629 48.0558C47.7175 48.759 46.4805 49.1105 44.918 49.1105C43.2253 49.1105 41.9232 48.8924 41.0118 48.4562V46.8547C41.5977 47.1021 42.2357 47.2974 42.9259 47.4406C43.616 47.5838 44.2996 47.6555 44.9766 47.6555C46.0834 47.6555 46.9167 47.4471 47.4766 47.0305C48.0365 46.6073 48.3165 46.0213 48.3165 45.2726C48.3165 44.7779 48.2156 44.3742 48.0137 44.0617C47.8184 43.7427 47.4864 43.4497 47.0177 43.1828C46.5554 42.9159 45.849 42.6131 44.8985 42.2746C43.5704 41.7993 42.6199 41.2362 42.0469 40.5851C41.4805 39.9341 41.1973 39.0845 41.1973 38.0363C41.1973 36.9361 41.6107 36.0604 42.4376 35.4094C43.2644 34.7583 44.3581 34.4328 45.7188 34.4328C47.1381 34.4328 48.4434 34.6932 49.6348 35.2141L49.1173 36.6594C47.9389 36.1646 46.793 35.9172 45.6798 35.9172C44.8009 35.9172 44.114 36.106 43.6192 36.4836C43.1244 36.8612 42.877 37.3853 42.877 38.0558C42.877 38.5506 42.9682 38.9575 43.1505 39.2766C43.3328 39.5891 43.6387 39.8788 44.0684 40.1457C44.5046 40.4061 45.1687 40.6958 46.0606 41.0148C47.558 41.5487 48.5867 42.1216 49.1466 42.7336C49.713 43.3456 49.9962 44.1398 49.9962 45.1164ZM57.1934 49.1105C55.6114 49.1105 54.3614 48.6288 53.4434 47.6652C52.532 46.7017 52.0762 45.3638 52.0762 43.6516C52.0762 41.9263 52.4994 40.5558 53.3458 39.5402C54.1986 38.5246 55.3412 38.0168 56.7735 38.0168C58.1147 38.0168 59.1759 38.4595 59.9571 39.3449C60.7384 40.2238 61.129 41.3859 61.129 42.8312V43.8566H53.7559C53.7885 45.1131 54.1042 46.0669 54.7032 46.718C55.3087 47.369 56.1583 47.6945 57.252 47.6945C58.4044 47.6945 59.5437 47.4536 60.67 46.9719V48.4172C60.0971 48.6646 59.5535 48.8404 59.0391 48.9445C58.5313 49.0552 57.9161 49.1105 57.1934 49.1105ZM56.754 39.3742C55.8946 39.3742 55.2078 39.6542 54.6934 40.2141C54.1856 40.7739 53.8861 41.5487 53.795 42.5383H59.3907C59.3907 41.5161 59.1628 40.7349 58.7071 40.1945C58.2514 39.6476 57.6003 39.3742 56.754 39.3742ZM70.4844 48.9152L70.1622 47.3918H70.0841C69.5502 48.0624 69.0163 48.5181 68.4825 48.759C67.9552 48.9933 67.2943 49.1105 66.5001 49.1105C65.4389 49.1105 64.6055 48.8371 64.0001 48.2902C63.4011 47.7433 63.1016 46.9654 63.1016 45.9562C63.1016 43.7948 64.8302 42.662 68.2872 42.5578L70.1036 42.4992V41.8351C70.1036 40.9953 69.9213 40.3768 69.5567 39.9797C69.1986 39.576 68.6225 39.3742 67.8282 39.3742C66.9363 39.3742 65.9272 39.6476 64.8009 40.1945L64.3028 38.9543C64.8302 38.6678 65.4063 38.4432 66.0313 38.2805C66.6628 38.1177 67.2943 38.0363 67.9259 38.0363C69.2019 38.0363 70.1459 38.3195 70.7579 38.8859C71.3764 39.4523 71.6856 40.3605 71.6856 41.6105V48.9152H70.4844ZM66.8223 47.7726C67.8315 47.7726 68.6225 47.496 69.1954 46.9426C69.7748 46.3892 70.0645 45.6144 70.0645 44.6183V43.6516L68.4434 43.7199C67.1544 43.7655 66.2234 43.9673 65.6505 44.3254C65.0841 44.6769 64.8009 45.2271 64.8009 45.9758C64.8009 46.5617 64.9766 47.0077 65.3282 47.3137C65.6863 47.6196 66.1843 47.7726 66.8223 47.7726ZM79.918 38.0168C80.3933 38.0168 80.8197 38.0558 81.1973 38.134L80.9727 39.6379C80.53 39.5402 80.1394 39.4914 79.8009 39.4914C78.935 39.4914 78.1928 39.843 77.5743 40.5461C76.9623 41.2492 76.6563 42.1249 76.6563 43.173V48.9152H75.0352V38.2121H76.3731L76.5587 40.1945H76.6368C77.0339 39.4979 77.5124 38.9608 78.0723 38.5832C78.6322 38.2056 79.2475 38.0168 79.918 38.0168ZM87.4766 49.1105C85.9272 49.1105 84.726 48.6353 83.8731 47.6848C83.0268 46.7277 82.6036 45.3768 82.6036 43.632C82.6036 41.8417 83.0333 40.4582 83.8927 39.4816C84.7585 38.5051 85.989 38.0168 87.5841 38.0168C88.0984 38.0168 88.6127 38.0721 89.127 38.1828C89.6413 38.2935 90.045 38.4237 90.338 38.5734L89.8399 39.9504C89.4818 39.8071 89.0912 39.69 88.668 39.5988C88.2449 39.5012 87.8705 39.4523 87.545 39.4523C85.3705 39.4523 84.2833 40.8391 84.2833 43.6125C84.2833 44.9276 84.5469 45.9367 85.0743 46.6398C85.6081 47.343 86.3959 47.6945 87.4376 47.6945C88.3295 47.6945 89.2442 47.5025 90.1817 47.1183V48.5539C89.4656 48.925 88.5639 49.1105 87.4766 49.1105ZM100.055 48.9152V41.9914C100.055 41.119 99.8562 40.468 99.4591 40.0383C99.0619 39.6086 98.4402 39.3937 97.5938 39.3937C96.4675 39.3937 95.644 39.6997 95.1231 40.3117C94.6088 40.9237 94.3516 41.9263 94.3516 43.3195V48.9152H92.7305V33.7199H94.3516V38.3195C94.3516 38.8729 94.3256 39.3319 94.2735 39.6965H94.3712C94.6902 39.1821 95.1427 38.7785 95.7286 38.4855C96.321 38.1861 96.9949 38.0363 97.7501 38.0363C99.0587 38.0363 100.038 38.3488 100.69 38.9738C101.347 39.5923 101.676 40.5786 101.676 41.9328V48.9152H100.055Z" fill="#333333"/>
</g>
<g filter="url(#filter1_d_126_4131)">
<rect x="136.5" y="63.5001" width="85" height="31" rx="2.5" fill="#FEFEFE" stroke="#CCCCCC"/>
<path d="M146.217 81.0626V87.0001H144.557V72.7227H148.473C150.224 72.7227 151.516 73.058 152.35 73.7286C153.189 74.3991 153.609 75.4083 153.609 76.7559C153.609 78.6439 152.652 79.92 150.738 80.584L154.615 87.0001H152.652L149.195 81.0626H146.217ZM146.217 79.6368H148.492C149.664 79.6368 150.523 79.4057 151.07 78.9434C151.617 78.4747 151.891 77.7748 151.891 76.8438C151.891 75.8998 151.611 75.2195 151.051 74.8028C150.497 74.3861 149.605 74.1778 148.375 74.1778H146.217V79.6368ZM161.197 87.1954C159.615 87.1954 158.365 86.7136 157.447 85.7501C156.536 84.7865 156.08 83.4486 156.08 81.7364C156.08 80.0111 156.503 78.6407 157.35 77.6251C158.202 76.6094 159.345 76.1016 160.777 76.1016C162.118 76.1016 163.18 76.5443 163.961 77.4297C164.742 78.3087 165.133 79.4708 165.133 80.9161V81.9415H157.76C157.792 83.198 158.108 84.1518 158.707 84.8028C159.312 85.4538 160.162 85.7794 161.256 85.7794C162.408 85.7794 163.548 85.5385 164.674 85.0567V86.502C164.101 86.7494 163.557 86.9252 163.043 87.0294C162.535 87.14 161.92 87.1954 161.197 87.1954ZM160.758 77.459C159.898 77.459 159.212 77.739 158.697 78.2989C158.189 78.8588 157.89 79.6335 157.799 80.6231H163.395C163.395 79.601 163.167 78.8197 162.711 78.2794C162.255 77.7325 161.604 77.459 160.758 77.459ZM172.887 87.1954C172.19 87.1954 171.552 87.0684 170.973 86.8145C170.4 86.5541 169.918 86.157 169.527 85.6231H169.41C169.488 86.2481 169.527 86.8406 169.527 87.4005V91.8047H167.906V76.2969H169.225L169.449 77.7618H169.527C169.944 77.1758 170.429 76.7527 170.982 76.4922C171.536 76.2318 172.171 76.1016 172.887 76.1016C174.306 76.1016 175.4 76.5866 176.168 77.5567C176.943 78.5268 177.33 79.8874 177.33 81.6387C177.33 83.3965 176.936 84.7637 176.148 85.7403C175.367 86.7103 174.28 87.1954 172.887 87.1954ZM172.652 77.4786C171.559 77.4786 170.768 77.7813 170.279 78.3868C169.791 78.9922 169.54 79.9558 169.527 81.2774V81.6387C169.527 83.1426 169.778 84.2201 170.279 84.8712C170.781 85.5157 171.585 85.838 172.691 85.838C173.616 85.838 174.339 85.4636 174.859 84.7149C175.387 83.9662 175.65 82.9343 175.65 81.6192C175.65 80.2846 175.387 79.2624 174.859 78.5528C174.339 77.8366 173.603 77.4786 172.652 77.4786ZM181.793 87.0001H180.172V71.8047H181.793V87.0001ZM191.812 87.0001L191.49 85.4766H191.412C190.878 86.1472 190.344 86.6029 189.811 86.8438C189.283 87.0782 188.622 87.1954 187.828 87.1954C186.767 87.1954 185.934 86.9219 185.328 86.3751C184.729 85.8282 184.43 85.0502 184.43 84.0411C184.43 81.8796 186.158 80.7468 189.615 80.6426L191.432 80.584V79.92C191.432 79.0801 191.249 78.4616 190.885 78.0645C190.527 77.6609 189.951 77.459 189.156 77.459C188.264 77.459 187.255 77.7325 186.129 78.2794L185.631 77.0391C186.158 76.7527 186.734 76.5281 187.359 76.3653C187.991 76.2025 188.622 76.1212 189.254 76.1212C190.53 76.1212 191.474 76.4044 192.086 76.9708C192.704 77.5372 193.014 78.4454 193.014 79.6954V87.0001H191.812ZM188.15 85.8575C189.16 85.8575 189.951 85.5808 190.523 85.0274C191.103 84.474 191.393 83.6993 191.393 82.7032V81.7364L189.771 81.8047C188.482 81.8503 187.551 82.0521 186.979 82.4102C186.412 82.7618 186.129 83.3119 186.129 84.0606C186.129 84.6465 186.305 85.0925 186.656 85.3985C187.014 85.7045 187.512 85.8575 188.15 85.8575ZM200.641 87.1954C199.091 87.1954 197.89 86.7201 197.037 85.7696C196.191 84.8126 195.768 83.4616 195.768 81.7169C195.768 79.9265 196.197 78.543 197.057 77.5665C197.923 76.5899 199.153 76.1016 200.748 76.1016C201.262 76.1016 201.777 76.157 202.291 76.2676C202.805 76.3783 203.209 76.5085 203.502 76.6583L203.004 78.0352C202.646 77.892 202.255 77.7748 201.832 77.6837C201.409 77.586 201.035 77.5372 200.709 77.5372C198.535 77.5372 197.447 78.9239 197.447 81.6973C197.447 83.0124 197.711 84.0215 198.238 84.7247C198.772 85.4278 199.56 85.7794 200.602 85.7794C201.493 85.7794 202.408 85.5873 203.346 85.2032V86.6387C202.63 87.0098 201.728 87.1954 200.641 87.1954ZM210.416 87.1954C208.834 87.1954 207.584 86.7136 206.666 85.7501C205.755 84.7865 205.299 83.4486 205.299 81.7364C205.299 80.0111 205.722 78.6407 206.568 77.6251C207.421 76.6094 208.564 76.1016 209.996 76.1016C211.337 76.1016 212.398 76.5443 213.18 77.4297C213.961 78.3087 214.352 79.4708 214.352 80.9161V81.9415H206.979C207.011 83.198 207.327 84.1518 207.926 84.8028C208.531 85.4538 209.381 85.7794 210.475 85.7794C211.627 85.7794 212.766 85.5385 213.893 85.0567V86.502C213.32 86.7494 212.776 86.9252 212.262 87.0294C211.754 87.14 211.139 87.1954 210.416 87.1954ZM209.977 77.459C209.117 77.459 208.43 77.739 207.916 78.2989C207.408 78.8588 207.109 79.6335 207.018 80.6231H212.613C212.613 79.601 212.385 78.8197 211.93 78.2794C211.474 77.7325 210.823 77.459 209.977 77.459Z" fill="#333333"/>
</g>
<g clip-path="url(#clip0_126_4131)">
<path d="M126.543 59.1902H138.662V47.0701H134.589V52.1293C133.067 50.0337 131.171 48.2222 128.979 46.786C125.499 44.5065 121.451 43.3019 117.274 43.3019C105.481 43.3019 95.8865 52.8966 95.8865 64.6899H99.9603C99.9603 55.143 107.728 47.3758 117.274 47.3758C123.114 47.3758 128.525 50.3429 131.703 55.1163H126.543V59.1902ZM108.007 74.2634H102.845C106.021 79.0392 111.426 82.004 117.274 82.004C126.821 82.004 134.589 74.2367 134.589 64.6899H138.662C138.662 69.8549 136.822 74.5977 133.763 78.2978L148.047 92.5815L145.166 95.4623L130.882 81.1786C127.182 84.2377 122.439 86.0778 117.274 86.0778C110.353 86.0778 103.936 82.7167 99.9603 77.2477V82.3096H95.8865V70.1896H108.007V74.2634Z" fill="#FF6F3D"/>
</g>
<defs>
<filter id="filter0_d_126_4131" x="15" y="17.0001" width="114" height="62" filterUnits="userSpaceOnUse" color-interpolation-filters="sRGB">
<feFlood flood-opacity="0" result="BackgroundImageFix"/>
<feColorMatrix in="SourceAlpha" type="matrix" values="0 0 0 0 0 0 0 0 0 0 0 0 0 0 0 0 0 0 127 0" result="hardAlpha"/>
<feOffset dy="7"/>
<feGaussianBlur stdDeviation="7.5"/>
<feColorMatrix type="matrix" values="0 0 0 0 0.333333 0 0 0 0 0.333333 0 0 0 0 0.333333 0 0 0 0.1 0"/>
<feBlend mode="normal" in2="BackgroundImageFix" result="effect1_dropShadow_126_4131"/>
<feBlend mode="normal" in="SourceGraphic" in2="effect1_dropShadow_126_4131" result="shape"/>
</filter>
<filter id="filter1_d_126_4131" x="121" y="55.0001" width="116" height="62" filterUnits="userSpaceOnUse" color-interpolation-filters="sRGB">
<feFlood flood-opacity="0" result="BackgroundImageFix"/>
<feColorMatrix in="SourceAlpha" type="matrix" values="0 0 0 0 0 0 0 0 0 0 0 0 0 0 0 0 0 0 127 0" result="hardAlpha"/>
<feOffset dy="7"/>
<feGaussianBlur stdDeviation="7.5"/>
<feColorMatrix type="matrix" values="0 0 0 0 0.333333 0 0 0 0 0.333333 0 0 0 0 0.333333 0 0 0 0.1 0"/>
<feBlend mode="normal" in2="BackgroundImageFix" result="effect1_dropShadow_126_4131"/>
<feBlend mode="normal" in="SourceGraphic" in2="effect1_dropShadow_126_4131" result="shape"/>
</filter>
<clipPath id="clip0_126_4131">
<rect width="52.1604" height="52.1604" fill="white" transform="matrix(-1 0 0 1 148.047 43.3019)"/>
</clipPath>
</defs>
</svg>
