<svg width="76" height="64" viewBox="0 0 76 64" fill="none" xmlns="http://www.w3.org/2000/svg">
<path d="M74.9849 40.9866C74.7047 40.1454 73.8064 39.6942 72.9783 39.9788C72.9407 39.9918 72.9036 40.0061 72.8671 40.0218C72.1516 40.3445 71.3113 40.0774 70.9044 39.3979C70.5164 38.6973 70.7133 37.8121 71.3603 37.3494C72.0599 36.8169 72.2022 35.8092 71.6781 35.0984C71.6536 35.0652 71.6278 35.033 71.601 35.0018C69.1059 32.0687 65.7217 30.0618 61.9809 29.2967C61.5445 29.2058 61.0906 29.3089 60.7338 29.5797C60.3759 29.8488 60.146 30.2585 60.1006 30.7085C60.0622 31.5655 59.3473 32.2285 58.5037 32.1896C57.714 32.1531 57.0819 31.5109 57.0458 30.7085C57.0004 30.2585 56.7706 29.8488 56.4127 29.5797C56.0555 29.3092 55.6019 29.2063 55.1655 29.2967C51.4247 30.0618 48.0406 32.0688 45.5455 35.0018C44.9688 35.6691 45.034 36.6852 45.6909 37.271C45.7216 37.2984 45.7534 37.3245 45.786 37.3494C46.4831 37.8271 46.6671 38.7885 46.1967 39.4967C45.7722 40.1362 44.9488 40.3601 44.2666 40.0218C43.4619 39.6748 42.5327 40.0562 42.1911 40.8737C42.1757 40.9108 42.1614 40.9484 42.1488 40.9866C40.8378 44.6336 40.8378 48.634 42.1488 52.281C42.4296 53.122 43.3283 53.5725 44.1562 53.2872C44.1924 53.2747 44.2281 53.261 44.2634 53.2458C45.0205 52.8739 45.931 53.196 46.297 53.9652C46.6248 54.6541 46.4077 55.4829 45.7862 55.9151C45.0865 56.4475 44.9442 57.4553 45.4683 58.166C45.4928 58.1992 45.5186 58.2315 45.5455 58.2627C48.0403 61.1961 51.4246 63.2031 55.1655 63.9677C55.6019 64.0586 56.0558 63.9556 56.4127 63.6847C56.7713 63.4149 57.0013 63.0038 57.0458 62.5528C57.1125 61.6958 57.8502 61.0559 58.6938 61.1235C59.4449 61.1837 60.0414 61.7897 60.1006 62.5528C60.1837 63.3762 60.8687 64.001 61.6834 63.9968C61.7898 63.9975 61.8959 63.9868 61.9999 63.9647C65.7408 63.2001 69.1252 61.193 71.62 58.2596C72.1966 57.5923 72.1314 56.5763 71.4745 55.9904C71.4438 55.963 71.4121 55.9369 71.3794 55.9121C70.6854 55.4295 70.5078 54.467 70.9828 53.762C71.4081 53.1305 72.224 52.9098 72.9022 53.2429C73.7074 53.5884 74.6359 53.2052 74.976 52.3871C74.9908 52.3513 75.0045 52.3149 75.0168 52.2781C76.3277 48.6311 76.3277 44.6307 75.0168 40.9837L74.9849 40.9866ZM58.5589 54.6737C54.1882 54.6737 50.6451 51.0741 50.6451 46.6339C50.6451 42.1936 54.1882 38.5941 58.5589 38.5941C62.9296 38.5941 66.4727 42.1936 66.4727 46.6339C66.4728 51.0741 62.9297 54.6737 58.5589 54.6737Z" fill="#FF6F3D"/>
<path d="M31.6522 41.8095C31.6522 39.1532 35.0931 38.5937 37.9833 38.5937L38.5247 38.6161C38.6395 38.6194 38.7542 38.6087 38.8665 38.584L40.0631 38.3363C40.5114 37.808 41.0677 37.3854 41.6934 37.0983C41.8105 37.0436 41.9277 36.9953 42.0479 36.9504C42.0258 36.825 42.0068 36.6964 41.9909 36.5677C41.8566 35.2286 42.2749 33.893 43.1464 32.8791C46.1011 29.4045 50.1106 27.0284 54.5423 26.1258C55.8529 25.8577 57.2141 26.1675 58.287 26.9779C58.3851 27.0486 58.4801 27.1258 58.5688 27.2063C58.6607 27.126 58.7556 27.0488 58.8537 26.9748C59.94 26.1616 61.3154 25.8565 62.6365 26.1354C66.4213 26.9288 69.9009 28.8134 72.6585 31.5639L73.5765 31.3741C74.0398 31.2787 74.4369 30.9779 74.6591 30.554C75.4634 29.0727 75.9155 27.4207 75.9792 25.7302C75.9792 21.8905 72.8137 16.0826 68.0654 16.0826C66.2748 16.107 64.5543 16.7929 63.2253 18.0121C62.4823 18.7286 61.5301 19.1801 60.5124 19.2984C60.18 18.1889 60.2275 14.2013 62.4528 5.14852C62.9947 2.9246 61.6594 0.675344 59.4702 0.124675C59.1463 0.0432735 58.8138 0.00242188 58.4801 0.0031756H44.2922C43.0385 0.00212039 41.9103 0.776493 41.4432 1.95848C40.965 3.15825 41.2574 4.53319 42.1808 5.42514C43.4316 6.47613 44.2027 8.00256 44.3145 9.64763C44.3145 12.3072 40.8736 12.8635 37.9833 12.8635C35.0931 12.8635 31.6522 12.3071 31.6522 9.64763C31.7662 7.9994 32.5423 6.47145 33.7985 5.42197C34.7219 4.52987 35.0143 3.15508 34.5361 1.95531C34.069 0.773327 32.9408 -0.000894473 31.6871 9.99126e-06H17.4992C15.2439 -0.00496456 13.4117 1.84828 13.4068 4.13944C13.4061 4.47847 13.4463 4.81628 13.5264 5.14536C15.7422 14.1852 15.7992 18.1728 15.4668 19.2953C14.449 19.1769 13.4969 18.7254 12.7539 18.009C11.4248 16.7897 9.70432 16.1039 7.91377 16.0794C3.16548 16.0794 0 21.8873 0 25.7271C0 29.5668 3.16548 35.3747 7.91377 35.3747C9.70432 35.3503 11.4248 34.6644 12.7539 33.4452C13.4969 32.7287 14.449 32.2772 15.4668 32.1589C15.7992 33.2683 15.7517 37.256 13.5264 46.3087C12.9861 48.5351 14.3247 50.7846 16.5162 51.3335C16.8389 51.4143 17.17 51.4548 17.5023 51.4541H31.6807C32.9347 51.4561 34.0633 50.6814 34.5297 49.4988C35.0071 48.2989 34.7146 46.9245 33.7921 46.0321C32.5388 44.9823 31.7652 43.4556 31.6522 41.8095Z" fill="#FF6F3D"/>
</svg>
