<svg width="254" height="120" viewBox="0 0 254 120" fill="none" xmlns="http://www.w3.org/2000/svg">
<path d="M163.985 68.9866C163.705 68.1454 162.806 67.6942 161.978 67.9788C161.941 67.9918 161.904 68.0061 161.867 68.0218C161.152 68.3445 160.311 68.0774 159.904 67.3979C159.516 66.6973 159.713 65.8121 160.36 65.3494C161.06 64.8169 161.202 63.8092 160.678 63.0984C160.654 63.0652 160.628 63.033 160.601 63.0018C158.106 60.0687 154.722 58.0618 150.981 57.2967C150.545 57.2058 150.091 57.3089 149.734 57.5797C149.376 57.8488 149.146 58.2585 149.101 58.7085C149.062 59.5655 148.347 60.2285 147.504 60.1896C146.714 60.1531 146.082 59.5109 146.046 58.7085C146 58.2585 145.771 57.8488 145.413 57.5797C145.056 57.3092 144.602 57.2063 144.166 57.2967C140.425 58.0618 137.041 60.0688 134.545 63.0018C133.969 63.6691 134.034 64.6852 134.691 65.271C134.722 65.2984 134.753 65.3245 134.786 65.3494C135.483 65.8271 135.667 66.7885 135.197 67.4967C134.772 68.1362 133.949 68.3601 133.267 68.0218C132.462 67.6748 131.533 68.0562 131.191 68.8737C131.176 68.9108 131.161 68.9484 131.149 68.9866C129.838 72.6336 129.838 76.634 131.149 80.281C131.43 81.122 132.328 81.5725 133.156 81.2872C133.192 81.2747 133.228 81.261 133.263 81.2458C134.02 80.8739 134.931 81.196 135.297 81.9652C135.625 82.6541 135.408 83.4829 134.786 83.9151C134.087 84.4475 133.944 85.4553 134.468 86.166C134.493 86.1992 134.519 86.2315 134.545 86.2627C137.04 89.1961 140.425 91.2031 144.166 91.9677C144.602 92.0586 145.056 91.9556 145.413 91.6847C145.771 91.4149 146.001 91.0038 146.046 90.5528C146.112 89.6958 146.85 89.0559 147.694 89.1235C148.445 89.1837 149.041 89.7897 149.101 90.5528C149.184 91.3762 149.869 92.001 150.683 91.9968C150.79 91.9975 150.896 91.9868 151 91.9647C154.741 91.2001 158.125 89.193 160.62 86.2596C161.197 85.5923 161.131 84.5763 160.475 83.9904C160.444 83.963 160.412 83.9369 160.379 83.9121C159.685 83.4295 159.508 82.467 159.983 81.762C160.408 81.1305 161.224 80.9098 161.902 81.2429C162.707 81.5884 163.636 81.2052 163.976 80.3871C163.991 80.3513 164.004 80.3149 164.017 80.2781C165.328 76.6311 165.328 72.6307 164.017 68.9837L163.985 68.9866ZM147.559 82.6737C143.188 82.6737 139.645 79.0741 139.645 74.6339C139.645 70.1936 143.188 66.5941 147.559 66.5941C151.93 66.5941 155.473 70.1936 155.473 74.6339C155.473 79.0741 151.93 82.6737 147.559 82.6737Z" fill="#FF6F3D"/>
<path d="M120.652 69.8095C120.652 67.1532 124.093 66.5937 126.983 66.5937L127.525 66.6161C127.64 66.6194 127.754 66.6087 127.867 66.584L129.063 66.3363C129.511 65.808 130.068 65.3855 130.693 65.0983C130.81 65.0436 130.928 64.9953 131.048 64.9504C131.026 64.825 131.007 64.6964 130.991 64.5677C130.857 63.2286 131.275 61.893 132.146 60.8791C135.101 57.4045 139.111 55.0284 143.542 54.1258C144.853 53.8577 146.214 54.1675 147.287 54.9779C147.385 55.0486 147.48 55.1258 147.569 55.2063C147.661 55.126 147.756 55.0488 147.854 54.9748C148.94 54.1617 150.315 53.8565 151.636 54.1354C155.421 54.9288 158.901 56.8134 161.658 59.5639L162.577 59.3741C163.04 59.2787 163.437 58.9779 163.659 58.554C164.463 57.0727 164.916 55.4207 164.979 53.7302C164.979 49.8905 161.814 44.0826 157.065 44.0826C155.275 44.107 153.554 44.7929 152.225 46.0121C151.482 46.7286 150.53 47.1801 149.512 47.2984C149.18 46.1889 149.227 42.2013 151.453 33.1485C151.995 30.9246 150.659 28.6753 148.47 28.1247C148.146 28.0433 147.814 28.0024 147.48 28.0032H133.292C132.038 28.0021 130.91 28.7765 130.443 29.9585C129.965 31.1582 130.257 32.5332 131.181 33.4251C132.432 34.4761 133.203 36.0026 133.314 37.6476C133.314 40.3072 129.874 40.8635 126.983 40.8635C124.093 40.8635 120.652 40.3071 120.652 37.6476C120.766 35.9994 121.542 34.4715 122.798 33.422C123.722 32.5299 124.014 31.1551 123.536 29.9553C123.069 28.7733 121.941 27.9991 120.687 28H106.499C104.244 27.995 102.412 29.8483 102.407 32.1394C102.406 32.4785 102.446 32.8163 102.526 33.1454C104.742 42.1852 104.799 46.1728 104.467 47.2953C103.449 47.1769 102.497 46.7254 101.754 46.009C100.425 44.7897 98.7043 44.1039 96.9138 44.0794C92.1655 44.0794 89 49.8873 89 53.7271C89 57.5668 92.1655 63.3747 96.9138 63.3747C98.7043 63.3503 100.425 62.6644 101.754 61.4452C102.497 60.7287 103.449 60.2772 104.467 60.1589C104.799 61.2683 104.752 65.256 102.526 74.3087C101.986 76.5351 103.325 78.7846 105.516 79.3335C105.839 79.4143 106.17 79.4548 106.502 79.4541H120.681C121.935 79.4561 123.063 78.6814 123.53 77.4988C124.007 76.2989 123.715 74.9245 122.792 74.0321C121.539 72.9824 120.765 71.4556 120.652 69.8095Z" fill="#FF6F3D"/>
</svg>
