<svg width="56" height="46" viewBox="0 0 56 46" fill="none" xmlns="http://www.w3.org/2000/svg">
<path d="M15.6789 12.7778H0V33.2222H15.6789L31.3578 46V0L15.6789 12.7778Z" fill="#FF6F3D"/>
<path d="M46.3052 3.88424L43.3523 6.77203C48.265 8.40759 52.0802 15.1798 52.0802 22.9998C52.0802 30.8198 48.265 37.592 43.3523 39.2276L46.3052 42.1153C51.9757 39.202 56 31.8931 56 22.9998C56 14.1065 51.9757 6.79758 46.3052 3.88424Z" fill="#FF6F3D"/>
<path d="M36.584 17.8882C38.149 19.1804 39.1494 21.009 39.3801 22.9993C39.3801 26.5515 38.2041 28.1104 36.584 28.1104L38.8836 32.3015C40.3428 31.2236 41.5087 29.8115 42.2788 28.1894C43.0489 26.5673 43.3995 24.785 43.2998 22.9993C43.3862 20.0206 42.3227 17.1192 40.3208 14.8726L36.584 17.8882Z" fill="#FF6F3D"/>
</svg>
