<svg width="254" height="120" viewBox="0 0 254 120" fill="none" xmlns="http://www.w3.org/2000/svg">
<path d="M114.679 49.7778H99V70.2222H114.679L130.358 83V37L114.679 49.7778Z" fill="#FF6F3D"/>
<path d="M145.305 40.8842L142.352 43.772C147.265 45.4076 151.08 52.1798 151.08 59.9998C151.08 67.8198 147.265 74.592 142.352 76.2276L145.305 79.1153C150.976 76.202 155 68.8931 155 59.9998C155 51.1065 150.976 43.7976 145.305 40.8842Z" fill="#FF6F3D"/>
<path d="M135.584 54.8882C137.149 56.1804 138.149 58.009 138.38 59.9993C138.38 63.5515 137.204 65.1104 135.584 65.1104L137.884 69.3015C139.343 68.2236 140.509 66.8115 141.279 65.1894C142.049 63.5673 142.399 61.785 142.3 59.9993C142.386 57.0206 141.323 54.1192 139.321 51.8726L135.584 54.8882Z" fill="#FF6F3D"/>
</svg>
