<svg width="58" height="58" viewBox="0 0 58 58" fill="none" xmlns="http://www.w3.org/2000/svg">
<rect width="58" height="58" rx="3" fill="#DD1E2D"/>
<path d="M45.3338 18.6868C43.2907 17.4949 43.2907 14.499 45.3338 13.3072C47.3768 12.1153 49.9444 13.6132 49.9444 15.997C49.9444 18.3807 47.3768 19.8786 45.3338 18.6868ZM44.4829 37.4069L44.4829 22.3151H49.3216V44.6812L42.7928 44.6825L30.7563 21.8954V34.9403C30.3568 40.5483 26.754 45.2752 18.6043 45.1067C11.3772 45.0724 7.88853 41.1421 7.25 35.0094V14.7591H12.6434L12.6434 32.3167C12.6434 37.8312 14.5899 40.315 18.9786 40.315C23.487 40.315 25.2811 38.1038 25.2811 32.3167V14.7591H32.3393L44.4829 37.4069Z" fill="white"/>
</svg>
