<svg width="254" height="120" viewBox="0 0 254 120" fill="none" xmlns="http://www.w3.org/2000/svg">
<rect x="98" y="31" width="58" height="58" rx="3" fill="#DD1E2D"/>
<path d="M143.334 49.6868C141.291 48.4949 141.291 45.4991 143.334 44.3072C145.377 43.1153 147.944 44.6133 147.944 46.997C147.944 49.3808 145.377 50.8787 143.334 49.6868ZM142.483 68.407L142.483 53.3152H147.322V75.6812L140.793 75.6826L128.756 52.8954V65.9404C128.357 71.5484 124.754 76.2753 116.604 76.1068C109.377 76.0725 105.889 72.1422 105.25 66.0094V45.7591H110.643L110.643 63.3168C110.643 68.8312 112.59 71.3151 116.979 71.3151C121.487 71.3151 123.281 69.1039 123.281 63.3168V45.7591H130.339L142.483 68.407Z" fill="white"/>
</svg>
