<svg width="64" height="53" viewBox="0 0 64 53" fill="none" xmlns="http://www.w3.org/2000/svg">
<path d="M0.969987 24.5835C7.50779 20.9964 14.8211 17.9893 21.6497 14.9714C33.4005 10.0418 45.1944 5.17668 57.1068 0.655221C59.4225 -0.118045 63.5692 -0.869831 64 2.55617C63.7738 7.41056 62.8583 12.222 62.2228 17.0442C60.618 27.6444 58.7331 38.2123 56.9667 48.7803C56.8064 49.6063 56.4394 50.3786 55.8998 51.0253C55.3601 51.6721 54.6654 52.1725 53.88 52.48C53.0946 52.7874 52.244 52.8921 51.4072 52.7841C50.5704 52.6762 49.7745 52.3592 49.0934 51.8626C42.2971 47.2875 35.4469 42.7553 28.7368 38.062C26.5396 35.8173 28.5752 32.5954 30.5355 31.0489C36.1147 25.5501 42.0709 20.8675 47.3808 15.0895C48.8133 11.642 44.5805 14.5418 43.191 15.4332C35.5223 20.6957 28.0475 26.2911 19.9587 30.92C15.8335 33.1861 11.019 31.2529 6.89386 29.9856C3.19952 28.4606 -2.2289 26.914 0.969987 24.6157V24.5835Z" fill="#26A8DE"/>
</svg>
