<svg width="254" height="120" viewBox="0 0 254 120" fill="none" xmlns="http://www.w3.org/2000/svg">
<path d="M95.97 58.5835C102.508 54.9964 109.821 51.9893 116.65 48.9714C128.401 44.0418 140.194 39.1767 152.107 34.6552C154.422 33.882 158.569 33.1302 159 36.5562C158.774 41.4106 157.858 46.222 157.223 51.0442C155.618 61.6444 153.733 72.2123 151.967 82.7803C151.806 83.6063 151.439 84.3786 150.9 85.0253C150.36 85.6721 149.665 86.1725 148.88 86.48C148.095 86.7874 147.244 86.8921 146.407 86.7841C145.57 86.6762 144.774 86.3592 144.093 85.8626C137.297 81.2875 130.447 76.7553 123.737 72.062C121.54 69.8173 123.575 66.5954 125.536 65.0489C131.115 59.5501 137.071 54.8675 142.381 49.0895C143.813 45.642 139.58 48.5418 138.191 49.4332C130.522 54.6957 123.047 60.2911 114.959 64.92C110.834 67.1861 106.019 65.2529 101.894 63.9856C98.1995 62.4606 92.7711 60.914 95.97 58.6157V58.5835Z" fill="#26A8DE"/>
</svg>
