<svg width="168" height="80" viewBox="0 0 168 80" fill="none" xmlns="http://www.w3.org/2000/svg">
<path d="M0.5 3C0.5 1.61929 1.61929 0.5 3 0.5H165C166.381 0.5 167.5 1.61929 167.5 3V77C167.5 78.3807 166.381 79.5 165 79.5H3C1.61929 79.5 0.5 78.3807 0.5 77V3Z" fill="#EFEFEF" stroke="#CCCCCC"/>
<path d="M20 19.5H19.5V20V79V79.5H20H149H149.5V79V20V19.5H149H20Z" fill="white" stroke="#CCCCCC"/>
<path d="M1 17H16V79H3C1.89543 79 1 78.1046 1 77V17Z" fill="#F5F5F5"/>
<path d="M167 17H152V79H165.015C166.111 79 167 77.8732 167 76.4832V17Z" fill="#F5F5F5"/>
<path d="M1 3C1 1.89543 1.89543 1 3 1H165C166.105 1 167 1.89543 167 3V9H1V3Z" fill="#466A93"/>
<path fill-rule="evenodd" clip-rule="evenodd" d="M167 17H1V16H167V17Z" fill="#CCCCCC"/>
<path fill-rule="evenodd" clip-rule="evenodd" d="M17 16L17 79H16L16 16H17Z" fill="#CCCCCC"/>
<path fill-rule="evenodd" clip-rule="evenodd" d="M153 17V79H152V17H153Z" fill="#CCCCCC"/>
<path d="M121 48H63V73H121V48Z" fill="white" stroke="#333333" stroke-miterlimit="10" stroke-linecap="round" stroke-linejoin="round" stroke-dasharray="3 3"/>
<path d="M63 50C64.1046 50 65 49.1046 65 48C65 46.8954 64.1046 46 63 46C61.8954 46 61 46.8954 61 48C61 49.1046 61.8954 50 63 50Z" fill="#333333"/>
<path d="M120.812 49.625C121.814 49.625 122.625 48.8135 122.625 47.8125C122.625 46.8115 121.814 46 120.812 46C119.811 46 119 46.8115 119 47.8125C119 48.8135 119.811 49.625 120.812 49.625Z" fill="#333333"/>
<path d="M63 75.375C64.1046 75.375 65 74.4796 65 73.375C65 72.2704 64.1046 71.375 63 71.375C61.8954 71.375 61 72.2704 61 73.375C61 74.4796 61.8954 75.375 63 75.375Z" fill="#333333"/>
<path d="M120.812 75C121.814 75 122.625 74.1885 122.625 73.1875C122.625 72.1865 121.814 71.375 120.812 71.375C119.811 71.375 119 72.1865 119 73.1875C119 74.1885 119.811 75 120.812 75Z" fill="#333333"/>
<path d="M112.354 68.3541H71.3916C69.3374 68.3541 67.7666 66.6624 67.7666 64.7291V56.3916C67.7666 54.3374 69.4583 52.7666 71.3916 52.7666H112.354C114.408 52.7666 115.979 54.4583 115.979 56.3916V64.7291C115.979 66.6624 114.287 68.3541 112.354 68.3541Z" fill="white"/>
<path d="M78.0214 50.8334H69.25C68.6977 50.8334 68.25 51.2811 68.25 51.8334V54.6667C68.25 55.219 68.6977 55.6667 69.25 55.6667H78.0214C78.5737 55.6667 79.0214 55.219 79.0214 54.6667V51.8334C79.0214 51.2811 78.5737 50.8334 78.0214 50.8334Z" fill="#BDECFF"/>
<path d="M78.0214 58.0834H69.25C68.6977 58.0834 68.25 58.5311 68.25 59.0834V61.9167C68.25 62.469 68.6977 62.9167 69.25 62.9167H78.0214C78.5737 62.9167 79.0214 62.469 79.0214 61.9167V59.0834C79.0214 58.5311 78.5737 58.0834 78.0214 58.0834Z" fill="#BDECFF"/>
<path d="M78.0214 65.3334H69.25C68.6977 65.3334 68.25 65.7811 68.25 66.3334V69.1667C68.25 69.719 68.6977 70.1667 69.25 70.1667H78.0214C78.5737 70.1667 79.0214 69.719 79.0214 69.1667V66.3334C79.0214 65.7811 78.5737 65.3334 78.0214 65.3334Z" fill="#BDECFF"/>
<path d="M90.0012 50.8334H81.2297C80.6775 50.8334 80.2297 51.2811 80.2297 51.8334V54.6667C80.2297 55.219 80.6775 55.6667 81.2297 55.6667H90.0012C90.5534 55.6667 91.0012 55.219 91.0012 54.6667V51.8334C91.0012 51.2811 90.5534 50.8334 90.0012 50.8334Z" fill="#BDECFF"/>
<path d="M90.0012 58.0834H81.2297C80.6775 58.0834 80.2297 58.5311 80.2297 59.0834V61.9167C80.2297 62.469 80.6775 62.9167 81.2297 62.9167H90.0012C90.5534 62.9167 91.0012 62.469 91.0012 61.9167V59.0834C91.0012 58.5311 90.5534 58.0834 90.0012 58.0834Z" fill="#BDECFF"/>
<path d="M90.0012 65.3334H81.2297C80.6775 65.3334 80.2297 65.7811 80.2297 66.3334V69.1667C80.2297 69.719 80.6775 70.1667 81.2297 70.1667H90.0012C90.5534 70.1667 91.0012 69.719 91.0012 69.1667V66.3334C91.0012 65.7811 90.5534 65.3334 90.0012 65.3334Z" fill="#BDECFF"/>
<path d="M101.981 50.8334H93.2095C92.6572 50.8334 92.2095 51.2811 92.2095 51.8334V54.6667C92.2095 55.219 92.6572 55.6667 93.2095 55.6667H101.981C102.533 55.6667 102.981 55.219 102.981 54.6667V51.8334C102.981 51.2811 102.533 50.8334 101.981 50.8334Z" fill="#BDECFF"/>
<path d="M101.981 58.0834H93.2095C92.6572 58.0834 92.2095 58.5311 92.2095 59.0834V61.9167C92.2095 62.469 92.6572 62.9167 93.2095 62.9167H101.981C102.533 62.9167 102.981 62.469 102.981 61.9167V59.0834C102.981 58.5311 102.533 58.0834 101.981 58.0834Z" fill="#BDECFF"/>
<path d="M101.981 65.3334H93.2095C92.6572 65.3334 92.2095 65.7811 92.2095 66.3334V69.1667C92.2095 69.719 92.6572 70.1667 93.2095 70.1667H101.981C102.533 70.1667 102.981 69.719 102.981 69.1667V66.3334C102.981 65.7811 102.533 65.3334 101.981 65.3334Z" fill="#BDECFF"/>
<path d="M113.961 50.8334H105.189C104.637 50.8334 104.189 51.2811 104.189 51.8334V54.6667C104.189 55.219 104.637 55.6667 105.189 55.6667H113.961C114.513 55.6667 114.961 55.219 114.961 54.6667V51.8334C114.961 51.2811 114.513 50.8334 113.961 50.8334Z" fill="#BDECFF"/>
<path d="M113.961 58.0834H105.189C104.637 58.0834 104.189 58.5311 104.189 59.0834V61.9167C104.189 62.469 104.637 62.9167 105.189 62.9167H113.961C114.513 62.9167 114.961 62.469 114.961 61.9167V59.0834C114.961 58.5311 114.513 58.0834 113.961 58.0834Z" fill="#BDECFF"/>
<path d="M113.961 65.3334H105.189C104.637 65.3334 104.189 65.7811 104.189 66.3334V69.1667C104.189 69.719 104.637 70.1667 105.189 70.1667H113.961C114.513 70.1667 114.961 69.719 114.961 69.1667V66.3334C114.961 65.7811 114.513 65.3334 113.961 65.3334Z" fill="#BDECFF"/>
<path d="M74.159 23.8281H23.8408V59.1719H74.159V23.8281Z" fill="white" stroke="#333333" stroke-miterlimit="10" stroke-linecap="round" stroke-linejoin="round" stroke-dasharray="3 3"/>
<path d="M65.5682 28.7031H32.4318C30.3455 28.7031 28.75 30.2875 28.75 32.3594V50.6406C28.75 52.7125 30.3455 54.2969 32.4318 54.2969H65.5682C67.6545 54.2969 69.25 52.7125 69.25 50.6406V32.3594C69.25 30.2875 67.6545 28.7031 65.5682 28.7031Z" fill="white" stroke="#333333" stroke-miterlimit="10" stroke-linecap="round" stroke-linejoin="round"/>
<path d="M24 26C25.1046 26 26 25.1046 26 24C26 22.8954 25.1046 22 24 22C22.8954 22 22 22.8954 22 24C22 25.1046 22.8954 26 24 26Z" fill="#333333"/>
<path d="M74.3181 26C75.4227 26 76.3181 25.1046 76.3181 24C76.3181 22.8954 75.4227 22 74.3181 22C73.2135 22 72.3181 22.8954 72.3181 24C72.3181 25.1046 73.2135 26 74.3181 26Z" fill="#333333"/>
<path d="M24 61.3438C25.1046 61.3438 26 60.4483 26 59.3438C26 58.2392 25.1046 57.3438 24 57.3438C22.8954 57.3438 22 58.2392 22 59.3438C22 60.4483 22.8954 61.3438 24 61.3438Z" fill="#333333"/>
<path d="M74.3181 61.3438C75.4227 61.3438 76.3181 60.4483 76.3181 59.3438C76.3181 58.2392 75.4227 57.3438 74.3181 57.3438C73.2135 57.3438 72.3181 58.2392 72.3181 59.3438C72.3181 60.4483 73.2135 61.3438 74.3181 61.3438Z" fill="#333333"/>
<path d="M51.4545 47.5938L41.6364 36.625L28.75 50.6406C28.75 52.7125 30.3455 54.2969 32.4318 54.2969H65.5682C67.6545 54.2969 69.25 52.7125 69.25 50.6406L58.8182 40.2812L51.4545 47.5938Z" fill="url(#paint0_linear)"/>
<path d="M50.8409 39.0625C52.5354 39.0625 53.9091 37.6984 53.9091 36.0156C53.9091 34.3329 52.5354 32.9688 50.8409 32.9688C49.1464 32.9688 47.7727 34.3329 47.7727 36.0156C47.7727 37.6984 49.1464 39.0625 50.8409 39.0625Z" fill="url(#paint1_linear)"/>
<path d="M65.5682 28.7031H32.4318C30.3455 28.7031 28.75 30.2875 28.75 32.3594V50.6406C28.75 52.7125 30.3455 54.2969 32.4318 54.2969H65.5682C67.6545 54.2969 69.25 52.7125 69.25 50.6406V32.3594C69.25 30.2875 67.6545 28.7031 65.5682 28.7031Z" stroke="#333333" stroke-miterlimit="10" stroke-linecap="round" stroke-linejoin="round"/>
<path d="M136.5 20.5H104.5V52.5H136.5V20.5Z" fill="white"/>
<path d="M136.5 51V52.5H135" stroke="#333333" stroke-linecap="round" stroke-linejoin="round"/>
<path d="M131.4 52.5H107.8" stroke="#333333" stroke-linecap="round" stroke-linejoin="round" stroke-dasharray="2.72 2.72"/>
<path d="M106 52.5H104.5V51" stroke="#333333" stroke-linecap="round" stroke-linejoin="round"/>
<path d="M104.5 47.4001V23.8" stroke="#333333" stroke-linecap="round" stroke-linejoin="round" stroke-dasharray="2.72 2.72"/>
<path d="M104.5 22V20.5H106" stroke="#333333" stroke-linecap="round" stroke-linejoin="round"/>
<path d="M109.6 20.5H133.2" stroke="#333333" stroke-linecap="round" stroke-linejoin="round" stroke-dasharray="2.72 2.72"/>
<path d="M135 20.5H136.5V22" stroke="#333333" stroke-linecap="round" stroke-linejoin="round"/>
<path d="M136.5 25.6V49.2" stroke="#333333" stroke-linecap="round" stroke-linejoin="round" stroke-dasharray="2.72 2.72"/>
<path d="M129.4 48.5H111.7C110 48.5 108.6 47.1 108.6 45.4V27.6C108.6 25.9 110 24.5 111.7 24.5H129.4C131.1 24.5 132.5 25.9 132.5 27.6V45.3C132.5 47.1 131.1 48.5 129.4 48.5Z" fill="white" stroke="#333333" stroke-miterlimit="10" stroke-linecap="round" stroke-linejoin="round"/>
<path d="M104.5 22C105.328 22 106 21.3284 106 20.5C106 19.6716 105.328 19 104.5 19C103.672 19 103 19.6716 103 20.5C103 21.3284 103.672 22 104.5 22Z" fill="#333333"/>
<path d="M136.5 22C137.328 22 138 21.3284 138 20.5C138 19.6716 137.328 19 136.5 19C135.672 19 135 19.6716 135 20.5C135 21.3284 135.672 22 136.5 22Z" fill="#333333"/>
<path d="M104.5 54C105.328 54 106 53.3284 106 52.5C106 51.6716 105.328 51 104.5 51C103.672 51 103 51.6716 103 52.5C103 53.3284 103.672 54 104.5 54Z" fill="#333333"/>
<path d="M136.5 54C137.328 54 138 53.3284 138 52.5C138 51.6716 137.328 51 136.5 51C135.672 51 135 51.6716 135 52.5C135 53.3284 135.672 54 136.5 54Z" fill="#333333"/>
<path d="M113 45C112.4 45 112 44.6 112 44V34C112 33.5 112.4 33 113 33C113.5 33 114 33.4 114 34V44C114 44.6 113.6 45 113 45Z" fill="#FF6F3D"/>
<path d="M118.3 45H117.8C117.4 45 117.1 44.7 117.1 44.3V38.8C117.1 38.4 117.4 38.1 117.8 38.1H118.3C118.7 38.1 119 38.4 119 38.8V44.3C119 44.7 118.7 45 118.3 45Z" fill="#FF6F3D"/>
<path d="M123 45C122.4 45 122 44.6 122 44V34C122 33.5 122.4 33 123 33C123.5 33 124 33.4 124 34V44C124 44.6 123.6 45 123 45Z" fill="#FF6F3D"/>
<path d="M128 45C127.4 45 127 44.6 127 44V30C127 29.4 127.4 29 128 29C128.6 29 129 29.4 129 30V44C129 44.6 128.6 45 128 45Z" fill="#FF6F3D"/>
<defs>
<linearGradient id="paint0_linear" x1="28.75" y1="45.4609" x2="69.25" y2="45.4609" gradientUnits="userSpaceOnUse">
<stop stop-color="#FF8E3D"/>
<stop offset="1" stop-color="#FF6F3D"/>
</linearGradient>
<linearGradient id="paint1_linear" x1="47.7727" y1="36.0156" x2="53.9091" y2="36.0156" gradientUnits="userSpaceOnUse">
<stop stop-color="#FF8E3D"/>
<stop offset="1" stop-color="#FF6F3D"/>
</linearGradient>
</defs>
</svg>
