<svg width="254" height="120" viewBox="0 0 254 120" fill="none" xmlns="http://www.w3.org/2000/svg">
<path d="M46 20.5H208C209.381 20.5 210.5 21.6193 210.5 23V97C210.5 98.3807 209.381 99.5 208 99.5H46C44.6193 99.5 43.5 98.3807 43.5 97V23C43.5 21.6193 44.6193 20.5 46 20.5Z" fill="#EFEFEF" stroke="#CCCCCC"/>
<path d="M63 39.5H62.5V40V99V99.5H63H192H192.5V99V40V39.5H192H63Z" fill="white" stroke="#CCCCCC"/>
<path d="M44 37H59V99H46C44.8954 99 44 98.1046 44 97V37Z" fill="#F5F5F5"/>
<path d="M210 37H195V99H208.015C209.111 99 210 97.8732 210 96.4832V37Z" fill="#F5F5F5"/>
<path d="M44 23C44 21.8954 44.8954 21 46 21H208C209.105 21 210 21.8954 210 23V29H44V23Z" fill="#466A93"/>
<path fill-rule="evenodd" clip-rule="evenodd" d="M210 37H44V36H210V37Z" fill="#CCCCCC"/>
<path fill-rule="evenodd" clip-rule="evenodd" d="M60 36L60 99H59L59 36H60Z" fill="#CCCCCC"/>
<path fill-rule="evenodd" clip-rule="evenodd" d="M196 37V99H195V37H196Z" fill="#CCCCCC"/>
<path d="M164 68H106V93H164V68Z" fill="white" stroke="#333333" stroke-miterlimit="10" stroke-linecap="round" stroke-linejoin="round" stroke-dasharray="3 3"/>
<path d="M106 70C107.105 70 108 69.1046 108 68C108 66.8954 107.105 66 106 66C104.895 66 104 66.8954 104 68C104 69.1046 104.895 70 106 70Z" fill="#333333"/>
<path d="M163.812 69.625C164.814 69.625 165.625 68.8135 165.625 67.8125C165.625 66.8115 164.814 66 163.812 66C162.811 66 162 66.8115 162 67.8125C162 68.8135 162.811 69.625 163.812 69.625Z" fill="#333333"/>
<path d="M106 95.375C107.105 95.375 108 94.4796 108 93.375C108 92.2704 107.105 91.375 106 91.375C104.895 91.375 104 92.2704 104 93.375C104 94.4796 104.895 95.375 106 95.375Z" fill="#333333"/>
<path d="M163.812 95C164.814 95 165.625 94.1885 165.625 93.1875C165.625 92.1865 164.814 91.375 163.812 91.375C162.811 91.375 162 92.1865 162 93.1875C162 94.1885 162.811 95 163.812 95Z" fill="#333333"/>
<path d="M155.355 88.3542H114.393C112.338 88.3542 110.768 86.6625 110.768 84.7292V76.3917C110.768 74.3375 112.459 72.7667 114.393 72.7667H155.355C157.409 72.7667 158.98 74.4583 158.98 76.3917V84.7292C158.98 86.6625 157.288 88.3542 155.355 88.3542Z" fill="white"/>
<path d="M121.021 70.8333H112.25C111.698 70.8333 111.25 71.281 111.25 71.8333V74.6666C111.25 75.2189 111.698 75.6666 112.25 75.6666H121.021C121.574 75.6666 122.021 75.2189 122.021 74.6666V71.8333C122.021 71.281 121.574 70.8333 121.021 70.8333Z" fill="#BDECFF"/>
<path d="M121.021 78.0833H112.25C111.698 78.0833 111.25 78.531 111.25 79.0833V81.9166C111.25 82.4689 111.698 82.9166 112.25 82.9166H121.021C121.574 82.9166 122.021 82.4689 122.021 81.9166V79.0833C122.021 78.531 121.574 78.0833 121.021 78.0833Z" fill="#BDECFF"/>
<path d="M121.021 85.3333H112.25C111.698 85.3333 111.25 85.781 111.25 86.3333V89.1666C111.25 89.7189 111.698 90.1666 112.25 90.1666H121.021C121.574 90.1666 122.021 89.7189 122.021 89.1666V86.3333C122.021 85.781 121.574 85.3333 121.021 85.3333Z" fill="#BDECFF"/>
<path d="M133.002 70.8333H124.23C123.678 70.8333 123.23 71.281 123.23 71.8333V74.6666C123.23 75.2189 123.678 75.6666 124.23 75.6666H133.002C133.554 75.6666 134.002 75.2189 134.002 74.6666V71.8333C134.002 71.281 133.554 70.8333 133.002 70.8333Z" fill="#BDECFF"/>
<path d="M133.002 78.0833H124.23C123.678 78.0833 123.23 78.531 123.23 79.0833V81.9166C123.23 82.4689 123.678 82.9166 124.23 82.9166H133.002C133.554 82.9166 134.002 82.4689 134.002 81.9166V79.0833C134.002 78.531 133.554 78.0833 133.002 78.0833Z" fill="#BDECFF"/>
<path d="M133.002 85.3333H124.23C123.678 85.3333 123.23 85.781 123.23 86.3333V89.1666C123.23 89.7189 123.678 90.1666 124.23 90.1666H133.002C133.554 90.1666 134.002 89.7189 134.002 89.1666V86.3333C134.002 85.781 133.554 85.3333 133.002 85.3333Z" fill="#BDECFF"/>
<path d="M144.98 70.8333H136.209C135.657 70.8333 135.209 71.281 135.209 71.8333V74.6666C135.209 75.2189 135.657 75.6666 136.209 75.6666H144.98C145.533 75.6666 145.98 75.2189 145.98 74.6666V71.8333C145.98 71.281 145.533 70.8333 144.98 70.8333Z" fill="#BDECFF"/>
<path d="M144.98 78.0833H136.209C135.657 78.0833 135.209 78.531 135.209 79.0833V81.9166C135.209 82.4689 135.657 82.9166 136.209 82.9166H144.98C145.533 82.9166 145.98 82.4689 145.98 81.9166V79.0833C145.98 78.531 145.533 78.0833 144.98 78.0833Z" fill="#BDECFF"/>
<path d="M144.98 85.3333H136.209C135.657 85.3333 135.209 85.781 135.209 86.3333V89.1666C135.209 89.7189 135.657 90.1666 136.209 90.1666H144.98C145.533 90.1666 145.98 89.7189 145.98 89.1666V86.3333C145.98 85.781 145.533 85.3333 144.98 85.3333Z" fill="#BDECFF"/>
<path d="M156.961 70.8333H148.189C147.637 70.8333 147.189 71.281 147.189 71.8333V74.6666C147.189 75.2189 147.637 75.6666 148.189 75.6666H156.961C157.513 75.6666 157.961 75.2189 157.961 74.6666V71.8333C157.961 71.281 157.513 70.8333 156.961 70.8333Z" fill="#BDECFF"/>
<path d="M156.961 78.0833H148.189C147.637 78.0833 147.189 78.531 147.189 79.0833V81.9166C147.189 82.4689 147.637 82.9166 148.189 82.9166H156.961C157.513 82.9166 157.961 82.4689 157.961 81.9166V79.0833C157.961 78.531 157.513 78.0833 156.961 78.0833Z" fill="#BDECFF"/>
<path d="M156.961 85.3333H148.189C147.637 85.3333 147.189 85.781 147.189 86.3333V89.1666C147.189 89.7189 147.637 90.1666 148.189 90.1666H156.961C157.513 90.1666 157.961 89.7189 157.961 89.1666V86.3333C157.961 85.781 157.513 85.3333 156.961 85.3333Z" fill="#BDECFF"/>
<path d="M117.16 43.8281H66.8418V79.1719H117.16V43.8281Z" fill="white" stroke="#333333" stroke-miterlimit="10" stroke-linecap="round" stroke-linejoin="round" stroke-dasharray="3 3"/>
<path d="M108.568 48.7031H75.4318C73.3455 48.7031 71.75 50.2875 71.75 52.3594V70.6406C71.75 72.7125 73.3455 74.2969 75.4318 74.2969H108.568C110.655 74.2969 112.25 72.7125 112.25 70.6406V52.3594C112.25 50.2875 110.655 48.7031 108.568 48.7031Z" fill="white" stroke="#333333" stroke-miterlimit="10" stroke-linecap="round" stroke-linejoin="round"/>
<path d="M67 46C68.1046 46 69 45.1046 69 44C69 42.8954 68.1046 42 67 42C65.8954 42 65 42.8954 65 44C65 45.1046 65.8954 46 67 46Z" fill="#333333"/>
<path d="M117.318 46C118.423 46 119.318 45.1046 119.318 44C119.318 42.8954 118.423 42 117.318 42C116.214 42 115.318 42.8954 115.318 44C115.318 45.1046 116.214 46 117.318 46Z" fill="#333333"/>
<path d="M67 81.3438C68.1046 81.3438 69 80.4483 69 79.3438C69 78.2392 68.1046 77.3438 67 77.3438C65.8954 77.3438 65 78.2392 65 79.3438C65 80.4483 65.8954 81.3438 67 81.3438Z" fill="#333333"/>
<path d="M117.318 81.3438C118.423 81.3438 119.318 80.4483 119.318 79.3438C119.318 78.2392 118.423 77.3438 117.318 77.3438C116.214 77.3438 115.318 78.2392 115.318 79.3438C115.318 80.4483 116.214 81.3438 117.318 81.3438Z" fill="#333333"/>
<path d="M94.4545 67.5938L84.6364 56.625L71.75 70.6406C71.75 72.7125 73.3455 74.2969 75.4318 74.2969H108.568C110.655 74.2969 112.25 72.7125 112.25 70.6406L101.818 60.2812L94.4545 67.5938Z" fill="url(#paint0_linear_126_4066)"/>
<path d="M93.8416 59.0625C95.5361 59.0625 96.9098 57.6984 96.9098 56.0156C96.9098 54.3329 95.5361 52.9688 93.8416 52.9688C92.1471 52.9688 90.7734 54.3329 90.7734 56.0156C90.7734 57.6984 92.1471 59.0625 93.8416 59.0625Z" fill="url(#paint1_linear_126_4066)"/>
<path d="M108.568 48.7031H75.4318C73.3455 48.7031 71.75 50.2875 71.75 52.3594V70.6406C71.75 72.7125 73.3455 74.2969 75.4318 74.2969H108.568C110.655 74.2969 112.25 72.7125 112.25 70.6406V52.3594C112.25 50.2875 110.655 48.7031 108.568 48.7031Z" stroke="#333333" stroke-miterlimit="10" stroke-linecap="round" stroke-linejoin="round"/>
<path d="M179.5 40.5H147.5V72.5H179.5V40.5Z" fill="white"/>
<path d="M179.5 71V72.5H178" stroke="#333333" stroke-linecap="round" stroke-linejoin="round"/>
<path d="M174.401 72.5H150.801" stroke="#333333" stroke-linecap="round" stroke-linejoin="round" stroke-dasharray="2.72 2.72"/>
<path d="M149 72.5H147.5V71" stroke="#333333" stroke-linecap="round" stroke-linejoin="round"/>
<path d="M147.5 67.4V43.8" stroke="#333333" stroke-linecap="round" stroke-linejoin="round" stroke-dasharray="2.72 2.72"/>
<path d="M147.5 42V40.5H149" stroke="#333333" stroke-linecap="round" stroke-linejoin="round"/>
<path d="M152.6 40.5H176.2" stroke="#333333" stroke-linecap="round" stroke-linejoin="round" stroke-dasharray="2.72 2.72"/>
<path d="M178 40.5H179.5V42" stroke="#333333" stroke-linecap="round" stroke-linejoin="round"/>
<path d="M179.5 45.6V69.2" stroke="#333333" stroke-linecap="round" stroke-linejoin="round" stroke-dasharray="2.72 2.72"/>
<path d="M172.4 68.5H154.7C153 68.5 151.6 67.1 151.6 65.4V47.6C151.6 45.9 153 44.5 154.7 44.5H172.4C174.1 44.5 175.5 45.9 175.5 47.6V65.3C175.5 67.1 174.1 68.5 172.4 68.5Z" fill="white" stroke="#333333" stroke-miterlimit="10" stroke-linecap="round" stroke-linejoin="round"/>
<path d="M147.5 42C148.328 42 149 41.3284 149 40.5C149 39.6716 148.328 39 147.5 39C146.672 39 146 39.6716 146 40.5C146 41.3284 146.672 42 147.5 42Z" fill="#333333"/>
<path d="M179.5 42C180.328 42 181 41.3284 181 40.5C181 39.6716 180.328 39 179.5 39C178.672 39 178 39.6716 178 40.5C178 41.3284 178.672 42 179.5 42Z" fill="#333333"/>
<path d="M147.5 74C148.328 74 149 73.3284 149 72.5C149 71.6716 148.328 71 147.5 71C146.672 71 146 71.6716 146 72.5C146 73.3284 146.672 74 147.5 74Z" fill="#333333"/>
<path d="M179.5 74C180.328 74 181 73.3284 181 72.5C181 71.6716 180.328 71 179.5 71C178.672 71 178 71.6716 178 72.5C178 73.3284 178.672 74 179.5 74Z" fill="#333333"/>
<path d="M156 65C155.4 65 155 64.6 155 64V54C155 53.5 155.4 53 156 53C156.5 53 157 53.4 157 54V64C157 64.6 156.6 65 156 65Z" fill="#FF6F3D"/>
<path d="M161.3 65H160.8C160.4 65 160.1 64.7 160.1 64.3V58.8C160.1 58.4 160.4 58.1 160.8 58.1H161.3C161.7 58.1 162 58.4 162 58.8V64.3C162 64.7 161.7 65 161.3 65Z" fill="#FF6F3D"/>
<path d="M166 65C165.4 65 165 64.6 165 64V54C165 53.5 165.4 53 166 53C166.5 53 167 53.4 167 54V64C167 64.6 166.6 65 166 65Z" fill="#FF6F3D"/>
<path d="M171 65C170.4 65 170 64.6 170 64V50C170 49.4 170.4 49 171 49C171.6 49 172 49.4 172 50V64C172 64.6 171.6 65 171 65Z" fill="#FF6F3D"/>
<defs>
<linearGradient id="paint0_linear_126_4066" x1="71.75" y1="65.4609" x2="112.25" y2="65.4609" gradientUnits="userSpaceOnUse">
<stop stop-color="#FF8E3D"/>
<stop offset="1" stop-color="#FF6F3D"/>
</linearGradient>
<linearGradient id="paint1_linear_126_4066" x1="90.7734" y1="56.0156" x2="96.9098" y2="56.0156" gradientUnits="userSpaceOnUse">
<stop stop-color="#FF8E3D"/>
<stop offset="1" stop-color="#FF6F3D"/>
</linearGradient>
</defs>
</svg>
