<svg width="200" height="44" viewBox="0 0 200 44" fill="none" xmlns="http://www.w3.org/2000/svg">
<path d="M99.926 34.7362C99.2719 34.7362 98.4241 34.7121 97.8669 34.6159C97.9153 34.3752 97.988 33.8459 98.0607 33.3165L98.0849 33.124H98.0607L98.0122 33.1962C97.3097 34.2549 96.5345 34.6399 95.4201 34.6399C95.299 34.6399 95.1779 34.6399 95.0325 34.6159C92.7554 34.4715 91.6895 33.509 91.6895 31.5841C91.6895 31.3194 91.7137 31.0306 91.7621 30.6938C92.2467 28.071 94.1362 27.4695 97.0432 27.3492L98.8117 27.277C99.0539 27.277 99.2477 27.1086 99.2719 26.8679L99.5384 25.352C99.5869 25.0392 99.4173 24.7264 99.1266 24.6302C98.4967 24.4136 97.6973 24.2933 96.9948 24.2933C96.1469 24.2933 95.0083 24.4377 94.1847 24.6542C94.1847 24.6542 94.1847 24.6542 94.1604 24.6542C94.0635 24.6542 94.0393 24.6061 94.0393 24.558C94.0151 24.2933 94.0151 24.1008 94.0151 23.764C94.0151 23.2827 94.0151 22.7534 94.0878 22.2481C94.0878 22.1759 94.1362 22.1278 94.2089 22.1037C95.2748 21.839 96.4618 21.6946 97.5762 21.6946C99.3688 21.6946 101.186 22.1037 102.349 22.7774C102.615 22.9218 102.76 23.2587 102.712 23.5715C102.712 23.6437 101.501 30.6938 101.404 31.4156C101.404 31.4397 101.065 33.8699 101.016 34.6399C100.725 34.7121 100.338 34.7362 99.926 34.7362ZM96.6556 29.226C95.5897 29.2741 94.9599 29.5147 94.7418 30.6697C94.7176 30.7419 94.6934 30.9585 94.6934 31.1269C94.6934 31.7044 94.9356 32.3781 96.0984 32.3781C96.8736 32.3781 97.6004 32.1856 98.1576 31.8487C98.2787 31.7766 98.3514 31.6563 98.3998 31.5119L98.7148 29.7313C98.739 29.5869 98.6905 29.4426 98.6179 29.3223C98.5452 29.2019 98.3756 29.1538 98.2303 29.1538L96.6556 29.226Z" fill="url(#paint0_linear)"/>
<path d="M57.3383 38.0808C54.6978 40.1742 51.3305 41.4494 47.6725 41.4494C39.1211 41.4494 32.1684 34.5437 32.1684 26.0739C32.1684 17.5801 39.1211 10.6984 47.6725 10.6984C50.846 10.6984 53.7772 11.6368 56.224 13.273H60.2453C56.9992 10.1209 52.5418 8.17188 47.6483 8.17188C44.6686 8.17188 41.8343 8.89373 39.3633 10.1931L32.9921 0.568323C32.6045 -0.0091618 31.8051 -0.177595 31.2237 0.207395C30.6423 0.592385 30.4727 1.38643 30.8603 1.96391L37.2073 11.4924C36.2867 12.1421 35.4388 12.8639 34.6636 13.682L18.8204 0.592385C18.2875 0.135209 17.488 0.231457 17.0278 0.760818C16.5675 1.29018 16.6644 2.08422 17.1973 2.5414L33.0405 15.607C32.4834 16.377 31.9746 17.1951 31.5386 18.0613L1.86284 2.61358C1.23299 2.27672 0.482014 2.51733 0.142862 3.14294C-0.172064 3.76855 0.045962 4.53853 0.675815 4.85134L30.5454 20.4194C30.182 21.5022 29.9155 22.6331 29.7702 23.788L4.38226 17.6041C3.70395 17.4357 3.00142 17.8447 2.83185 18.5425C2.66227 19.2163 3.0741 19.9141 3.77663 20.0825L29.6248 26.3867C29.649 27.6139 29.7944 28.7929 30.0366 29.9479L12.3523 31.1028C11.6498 31.151 11.1168 31.7525 11.1653 32.4503C11.2137 33.1481 11.8194 33.6775 12.5219 33.6293L30.7876 32.4262C33.3797 39.1876 39.9689 44 47.6725 44C52.9778 44 57.7502 41.7141 61.0448 38.1048L57.3383 38.0808Z" fill="url(#paint1_linear)"/>
<path d="M54.4798 21.2615H50.9914L48.6657 34.3271H45.0804L47.406 21.2615H43.7723L44.3294 18.1335H55.2792C55.1338 19.1441 54.7947 20.3231 54.4798 21.2615Z" fill="url(#paint2_linear)"/>
<path d="M66.447 25.4483L64.8724 34.3271H61.602L63.1039 25.8333C63.1281 25.6889 63.1281 25.5927 63.1281 25.4724C63.1281 24.8227 62.789 24.3655 61.5535 24.3655C60.6814 24.3655 60.0273 24.6543 59.3248 25.0392L57.6775 34.3271H54.4071L57.5564 16.6898C58.5012 16.5695 59.8093 16.4732 60.851 16.4732L59.6882 22.9699H59.8578C60.8994 21.9353 61.7473 21.5503 63.2977 21.5503C65.26 21.5503 66.5439 22.5128 66.5439 24.4858C66.5439 24.7746 66.4954 25.1836 66.447 25.4483Z" fill="url(#paint3_linear)"/>
<path d="M78.9714 29.0094H72.0672C72.0188 29.226 71.9946 29.611 71.9946 29.7794C71.9946 30.9585 72.5517 31.5119 74.3444 31.5119C75.4587 31.5119 76.9607 31.151 77.8086 30.7178C77.9539 31.6081 78.0508 32.8112 78.0508 33.8218C77.0334 34.279 75.168 34.5677 73.763 34.5677C70.323 34.5677 68.5788 32.8353 68.5788 29.6351C68.5788 29.1057 68.6273 28.5282 68.7242 27.9267C69.4994 23.3549 71.825 21.5503 74.9742 21.5503C78.0751 21.5503 79.4801 23.2587 79.4801 25.8573C79.4559 26.7717 79.2863 27.9267 78.9714 29.0094ZM76.3308 25.5686C76.3308 24.5339 75.7494 23.9565 74.732 23.9565C73.4965 23.9565 72.794 24.8227 72.4306 26.8439H76.1128C76.2339 26.4348 76.3308 25.8333 76.3308 25.5686Z" fill="url(#paint4_linear)"/>
<path d="M89.7273 24.8227C88.8794 24.558 87.4259 24.3414 86.3842 24.3414C85.4394 24.3414 84.9549 24.6302 84.9549 25.4483C84.9549 27.0364 89.6304 26.3867 89.6304 30.1885C89.6304 32.8593 87.5955 34.5918 84.1555 34.5918C82.7262 34.5918 81.2 34.2309 80.2552 33.6775C80.4491 32.6669 80.8851 31.4156 81.2485 30.766C82.1448 31.2953 83.6468 31.6563 84.858 31.6563C85.8028 31.6563 86.2146 31.2953 86.2146 30.5494C86.2146 28.9854 81.515 29.6832 81.515 25.9295C81.515 23.5474 83.3803 21.5503 87.1594 21.5503C88.0073 21.5503 89.4366 21.6706 90.3813 21.9353C90.2602 22.7293 90.018 23.9083 89.7273 24.8227Z" fill="url(#paint5_linear)"/>
<path d="M114.631 34.3271H111.36L111.53 33.2443H111.36C110.173 34.4234 109.156 34.5677 108.017 34.5677C106.273 34.5677 104.747 33.5812 104.747 31.5119C104.747 31.2472 104.771 30.9344 104.82 30.6216L106.37 21.8871C107.363 21.7668 108.623 21.6946 109.689 21.6946L108.163 30.1885C108.138 30.3569 108.138 30.405 108.138 30.5735C108.138 31.3675 108.647 31.7284 109.858 31.7284C110.464 31.7284 111.312 31.5841 111.893 31.2713L113.565 21.8871C114.558 21.7668 115.818 21.6946 116.884 21.6946L114.631 34.3271Z" fill="url(#paint6_linear)"/>
<path d="M126.307 25.0633C125.944 24.9671 125.484 24.9189 125.096 24.9189C124.248 24.9189 123.352 25.1595 122.698 25.5205L121.147 34.3271H117.877L120.081 21.9112C121.05 21.7909 122.334 21.7187 123.376 21.7187L123.085 23.3308H123.255C124.49 21.7909 125.484 21.5503 126.283 21.5503C126.574 21.5503 126.961 21.5984 127.203 21.6706C127.034 22.7534 126.719 23.9805 126.307 25.0633Z" fill="url(#paint7_linear)"/>
<path d="M138.008 34.3271H134.738L134.907 33.2443H134.738C133.551 34.4234 132.533 34.5677 131.395 34.5677C129.65 34.5677 128.124 33.5812 128.124 31.5119C128.124 31.2472 128.148 30.9344 128.197 30.6216L129.747 21.8871C130.74 21.7668 132 21.6946 133.066 21.6946L131.54 30.1885C131.516 30.3569 131.516 30.405 131.516 30.5735C131.516 31.3675 132.024 31.7284 133.236 31.7284C133.841 31.7284 134.689 31.5841 135.271 31.2713L136.942 21.8871C137.935 21.7668 139.195 21.6946 140.261 21.6946L138.008 34.3271Z" fill="url(#paint8_linear)"/>
<path d="M150.92 24.8227C150.072 24.558 148.619 24.3414 147.577 24.3414C146.632 24.3414 146.148 24.6302 146.148 25.4483C146.148 27.0364 150.823 26.3867 150.823 30.1885C150.823 32.8593 148.788 34.5918 145.348 34.5918C143.919 34.5918 142.393 34.2309 141.448 33.6775C141.642 32.6669 142.078 31.4156 142.441 30.766C143.337 31.2953 144.839 31.6563 146.051 31.6563C146.995 31.6563 147.407 31.2953 147.407 30.5494C147.407 28.9854 142.708 29.6832 142.708 25.9295C142.708 23.5474 144.573 21.5503 148.352 21.5503C149.2 21.5503 150.629 21.6706 151.574 21.9353C151.453 22.7293 151.211 23.9083 150.92 24.8227Z" fill="url(#paint9_linear)"/>
<path d="M154.19 34.5677C153.246 34.5677 152.567 34.0624 152.567 33.0759C152.567 31.6563 153.585 30.9344 154.747 30.9344C155.62 30.9344 156.298 31.4878 156.298 32.4503C156.298 33.8699 155.329 34.5677 154.19 34.5677Z" fill="url(#paint10_linear)"/>
<path d="M167.441 25.1114C166.739 24.7986 165.842 24.6543 165.043 24.6543C163.42 24.6543 162.499 25.4483 162.063 27.9507C161.966 28.5282 161.918 29.0095 161.918 29.4185C161.918 31.0307 162.693 31.4878 164.219 31.4878C165.043 31.4878 165.939 31.2713 166.642 30.9103C166.787 31.8728 166.812 32.9797 166.812 33.9903C166.036 34.3753 164.534 34.5918 163.541 34.5918C160.247 34.5918 158.381 32.7631 158.381 29.5629C158.381 29.0335 158.43 28.432 158.527 27.8304C159.302 23.1143 161.942 21.5743 164.922 21.5743C166.157 21.5743 167.514 21.815 168.362 22.1278C168.168 23.1384 167.853 24.2452 167.441 25.1114Z" fill="url(#paint11_linear)"/>
<path d="M180.717 28.3839C180.038 32.6428 177.519 34.5437 174.224 34.5437C171.148 34.5437 168.992 32.9315 168.992 29.5388C168.992 28.9613 169.064 28.3357 169.161 27.6861C169.84 23.4271 172.335 21.5262 175.654 21.5262C178.682 21.5262 180.886 23.0662 180.886 26.5311C180.886 27.0845 180.814 27.7823 180.717 28.3839ZM175.46 24.2933C174.079 24.2933 173.159 25.1596 172.674 28.071C172.577 28.6726 172.529 29.226 172.529 29.6591C172.529 31.2953 173.304 31.8488 174.442 31.8488C175.92 31.8488 176.744 30.9103 177.228 28.071C177.325 27.4936 177.374 26.9161 177.374 26.483C177.374 24.8468 176.598 24.2933 175.46 24.2933Z" fill="url(#paint12_linear)"/>
<path d="M199.903 25.4483L198.328 34.3271H195.058L196.56 25.8333C196.584 25.6889 196.584 25.5927 196.584 25.4724C196.584 24.7986 196.197 24.3655 195.203 24.3655C194.549 24.3655 193.798 24.6543 193.265 25.0392L191.618 34.3271H188.348L189.85 25.8333C189.874 25.6889 189.898 25.5205 189.898 25.4002C189.898 24.7505 189.511 24.3655 188.59 24.3655C187.887 24.3655 187.233 24.6302 186.555 25.0392L184.908 34.3271H181.637L183.842 21.9112C184.811 21.7909 186.095 21.7187 187.136 21.7187L186.918 22.9699H187.088C188.299 21.7428 189.293 21.5503 190.48 21.5503C191.788 21.5503 192.732 22.0074 192.999 23.2346C194.356 21.9353 195.47 21.5503 196.778 21.5503C198.643 21.5503 200 22.4406 200 24.4858C200 24.7986 199.952 25.1836 199.903 25.4483Z" fill="url(#paint13_linear)"/>
<defs>
<linearGradient id="paint0_linear" x1="0.000385062" y1="-1.71875" x2="17.8462" y2="82.5674" gradientUnits="userSpaceOnUse">
<stop stop-color="#FF8E3D"/>
<stop offset="1" stop-color="#FF6F3D"/>
</linearGradient>
<linearGradient id="paint1_linear" x1="0.000385062" y1="-1.71875" x2="17.8462" y2="82.5674" gradientUnits="userSpaceOnUse">
<stop stop-color="#FF8E3D"/>
<stop offset="1" stop-color="#FF6F3D"/>
</linearGradient>
<linearGradient id="paint2_linear" x1="0.000385062" y1="-1.71875" x2="17.8462" y2="82.5674" gradientUnits="userSpaceOnUse">
<stop stop-color="#FF8E3D"/>
<stop offset="1" stop-color="#FF6F3D"/>
</linearGradient>
<linearGradient id="paint3_linear" x1="0.000385062" y1="-1.71875" x2="17.8462" y2="82.5674" gradientUnits="userSpaceOnUse">
<stop stop-color="#FF8E3D"/>
<stop offset="1" stop-color="#FF6F3D"/>
</linearGradient>
<linearGradient id="paint4_linear" x1="0.000385062" y1="-1.71875" x2="17.8462" y2="82.5674" gradientUnits="userSpaceOnUse">
<stop stop-color="#FF8E3D"/>
<stop offset="1" stop-color="#FF6F3D"/>
</linearGradient>
<linearGradient id="paint5_linear" x1="0.000385062" y1="-1.71875" x2="17.8462" y2="82.5674" gradientUnits="userSpaceOnUse">
<stop stop-color="#FF8E3D"/>
<stop offset="1" stop-color="#FF6F3D"/>
</linearGradient>
<linearGradient id="paint6_linear" x1="0.000385062" y1="-1.71875" x2="17.8462" y2="82.5674" gradientUnits="userSpaceOnUse">
<stop stop-color="#FF8E3D"/>
<stop offset="1" stop-color="#FF6F3D"/>
</linearGradient>
<linearGradient id="paint7_linear" x1="0.000385062" y1="-1.71875" x2="17.8462" y2="82.5674" gradientUnits="userSpaceOnUse">
<stop stop-color="#FF8E3D"/>
<stop offset="1" stop-color="#FF6F3D"/>
</linearGradient>
<linearGradient id="paint8_linear" x1="0.000385062" y1="-1.71875" x2="17.8462" y2="82.5674" gradientUnits="userSpaceOnUse">
<stop stop-color="#FF8E3D"/>
<stop offset="1" stop-color="#FF6F3D"/>
</linearGradient>
<linearGradient id="paint9_linear" x1="0.000385062" y1="-1.71875" x2="17.8462" y2="82.5674" gradientUnits="userSpaceOnUse">
<stop stop-color="#FF8E3D"/>
<stop offset="1" stop-color="#FF6F3D"/>
</linearGradient>
<linearGradient id="paint10_linear" x1="0.000385062" y1="-1.71875" x2="17.8462" y2="82.5674" gradientUnits="userSpaceOnUse">
<stop stop-color="#FF8E3D"/>
<stop offset="1" stop-color="#FF6F3D"/>
</linearGradient>
<linearGradient id="paint11_linear" x1="0.000385062" y1="-1.71875" x2="17.8462" y2="82.5674" gradientUnits="userSpaceOnUse">
<stop stop-color="#FF8E3D"/>
<stop offset="1" stop-color="#FF6F3D"/>
</linearGradient>
<linearGradient id="paint12_linear" x1="0.000385062" y1="-1.71875" x2="17.8462" y2="82.5674" gradientUnits="userSpaceOnUse">
<stop stop-color="#FF8E3D"/>
<stop offset="1" stop-color="#FF6F3D"/>
</linearGradient>
<linearGradient id="paint13_linear" x1="0.000385062" y1="-1.71875" x2="17.8462" y2="82.5674" gradientUnits="userSpaceOnUse">
<stop stop-color="#FF8E3D"/>
<stop offset="1" stop-color="#FF6F3D"/>
</linearGradient>
</defs>
</svg>
