<svg width="254" height="120" viewBox="0 0 254 120" fill="none" xmlns="http://www.w3.org/2000/svg">
<path d="M126.926 72.7362C126.272 72.7362 125.424 72.7121 124.867 72.6159C124.915 72.3752 124.988 71.8459 125.061 71.3165L125.085 71.124H125.061L125.012 71.1962C124.31 72.2549 123.534 72.6399 122.42 72.6399C122.299 72.6399 122.178 72.6399 122.033 72.6159C119.755 72.4715 118.689 71.509 118.689 69.5841C118.689 69.3194 118.714 69.0306 118.762 68.6938C119.247 66.071 121.136 65.4695 124.043 65.3492L125.812 65.277C126.054 65.277 126.248 65.1086 126.272 64.8679L126.538 63.352C126.587 63.0392 126.417 62.7264 126.127 62.6302C125.497 62.4136 124.697 62.2933 123.995 62.2933C123.147 62.2933 122.008 62.4377 121.185 62.6542C121.185 62.6542 121.185 62.6542 121.16 62.6542C121.064 62.6542 121.039 62.6061 121.039 62.558C121.015 62.2933 121.015 62.1008 121.015 61.764C121.015 61.2827 121.015 60.7534 121.088 60.2481C121.088 60.1759 121.136 60.1278 121.209 60.1037C122.275 59.839 123.462 59.6946 124.576 59.6946C126.369 59.6946 128.186 60.1037 129.349 60.7774C129.615 60.9218 129.76 61.2587 129.712 61.5715C129.712 61.6437 128.501 68.6938 128.404 69.4156C128.404 69.4397 128.065 71.8699 128.016 72.6399C127.725 72.7121 127.338 72.7362 126.926 72.7362ZM123.656 67.226C122.59 67.2741 121.96 67.5147 121.742 68.6697C121.718 68.7419 121.693 68.9585 121.693 69.1269C121.693 69.7044 121.936 70.3781 123.098 70.3781C123.874 70.3781 124.6 70.1856 125.158 69.8487C125.279 69.7766 125.351 69.6563 125.4 69.5119L125.715 67.7313C125.739 67.5869 125.691 67.4426 125.618 67.3223C125.545 67.2019 125.376 67.1538 125.23 67.1538L123.656 67.226Z" fill="url(#paint0_linear_126_4175)"/>
<path d="M84.3383 76.0808C81.6978 78.1742 78.3305 79.4494 74.6725 79.4494C66.1211 79.4494 59.1684 72.5437 59.1684 64.0739C59.1684 55.5801 66.1211 48.6984 74.6725 48.6984C77.846 48.6984 80.7772 49.6368 83.224 51.273H87.2453C83.9992 48.1209 79.5418 46.1719 74.6483 46.1719C71.6686 46.1719 68.8343 46.8937 66.3633 48.1931L59.9921 38.5683C59.6045 37.9908 58.8051 37.8224 58.2237 38.2074C57.6423 38.5924 57.4727 39.3864 57.8603 39.9639L64.2073 49.4924C63.2867 50.1421 62.4388 50.8639 61.6636 51.682L45.8204 38.5924C45.2875 38.1352 44.488 38.2315 44.0278 38.7608C43.5675 39.2902 43.6644 40.0842 44.1973 40.5414L60.0405 53.607C59.4834 54.377 58.9746 55.1951 58.5386 56.0613L28.8628 40.6136C28.233 40.2767 27.482 40.5173 27.1429 41.1429C26.8279 41.7686 27.046 42.5385 27.6758 42.8513L57.5454 58.4194C57.182 59.5022 56.9155 60.6331 56.7702 61.788L31.3823 55.6041C30.704 55.4357 30.0014 55.8447 29.8318 56.5425C29.6623 57.2163 30.0741 57.9141 30.7766 58.0825L56.6248 64.3867C56.649 65.6139 56.7944 66.7929 57.0366 67.9479L39.3523 69.1028C38.6498 69.151 38.1168 69.7525 38.1653 70.4503C38.2137 71.1481 38.8194 71.6775 39.5219 71.6293L57.7876 70.4262C60.3797 77.1876 66.9689 82 74.6725 82C79.9778 82 84.7502 79.7141 88.0448 76.1048L84.3383 76.0808Z" fill="url(#paint1_linear_126_4175)"/>
<path d="M81.4798 59.2615H77.9914L75.6657 72.3271H72.0804L74.406 59.2615H70.7723L71.3294 56.1335H82.2792C82.1338 57.1441 81.7947 58.3231 81.4798 59.2615Z" fill="url(#paint2_linear_126_4175)"/>
<path d="M93.447 63.4483L91.8724 72.3271H88.602L90.1039 63.8333C90.1281 63.6889 90.1281 63.5927 90.1281 63.4724C90.1281 62.8227 89.789 62.3655 88.5535 62.3655C87.6814 62.3655 87.0273 62.6543 86.3248 63.0392L84.6775 72.3271H81.4071L84.5564 54.6898C85.5012 54.5695 86.8093 54.4732 87.851 54.4732L86.6882 60.9699H86.8578C87.8994 59.9353 88.7473 59.5503 90.2977 59.5503C92.26 59.5503 93.5439 60.5128 93.5439 62.4858C93.5439 62.7746 93.4954 63.1836 93.447 63.4483Z" fill="url(#paint3_linear_126_4175)"/>
<path d="M105.971 67.0094H99.0672C99.0188 67.226 98.9945 67.611 98.9945 67.7794C98.9945 68.9585 99.5517 69.5119 101.344 69.5119C102.459 69.5119 103.961 69.151 104.809 68.7178C104.954 69.6081 105.051 70.8112 105.051 71.8218C104.033 72.279 102.168 72.5677 100.763 72.5677C97.323 72.5677 95.5788 70.8353 95.5788 67.6351C95.5788 67.1057 95.6273 66.5282 95.7242 65.9267C96.4994 61.3549 98.825 59.5503 101.974 59.5503C105.075 59.5503 106.48 61.2587 106.48 63.8573C106.456 64.7717 106.286 65.9267 105.971 67.0094ZM103.331 63.5686C103.331 62.5339 102.749 61.9565 101.732 61.9565C100.497 61.9565 99.794 62.8227 99.4306 64.8439H103.113C103.234 64.4348 103.331 63.8333 103.331 63.5686Z" fill="url(#paint4_linear_126_4175)"/>
<path d="M116.727 62.8227C115.879 62.558 114.426 62.3414 113.384 62.3414C112.439 62.3414 111.955 62.6302 111.955 63.4483C111.955 65.0364 116.63 64.3867 116.63 68.1885C116.63 70.8593 114.595 72.5918 111.155 72.5918C109.726 72.5918 108.2 72.2309 107.255 71.6775C107.449 70.6669 107.885 69.4156 108.248 68.766C109.145 69.2953 110.647 69.6563 111.858 69.6563C112.803 69.6563 113.215 69.2953 113.215 68.5494C113.215 66.9854 108.515 67.6832 108.515 63.9295C108.515 61.5474 110.38 59.5503 114.159 59.5503C115.007 59.5503 116.437 59.6706 117.381 59.9353C117.26 60.7293 117.018 61.9083 116.727 62.8227Z" fill="url(#paint5_linear_126_4175)"/>
<path d="M141.631 72.3271H138.36L138.53 71.2443H138.36C137.173 72.4234 136.156 72.5677 135.017 72.5677C133.273 72.5677 131.747 71.5812 131.747 69.5119C131.747 69.2472 131.771 68.9344 131.82 68.6216L133.37 59.8871C134.363 59.7668 135.623 59.6946 136.689 59.6946L135.163 68.1885C135.138 68.3569 135.138 68.405 135.138 68.5735C135.138 69.3675 135.647 69.7284 136.858 69.7284C137.464 69.7284 138.312 69.5841 138.893 69.2713L140.565 59.8871C141.558 59.7668 142.818 59.6946 143.884 59.6946L141.631 72.3271Z" fill="url(#paint6_linear_126_4175)"/>
<path d="M153.307 63.0633C152.944 62.9671 152.484 62.9189 152.096 62.9189C151.248 62.9189 150.352 63.1595 149.698 63.5205L148.147 72.3271H144.877L147.081 59.9112C148.05 59.7909 149.334 59.7187 150.376 59.7187L150.085 61.3308H150.255C151.49 59.7909 152.484 59.5503 153.283 59.5503C153.574 59.5503 153.961 59.5984 154.204 59.6706C154.034 60.7534 153.719 61.9805 153.307 63.0633Z" fill="url(#paint7_linear_126_4175)"/>
<path d="M165.008 72.3271H161.738L161.907 71.2443H161.738C160.551 72.4234 159.533 72.5677 158.395 72.5677C156.65 72.5677 155.124 71.5812 155.124 69.5119C155.124 69.2472 155.148 68.9344 155.197 68.6216L156.747 59.8871C157.74 59.7668 159 59.6946 160.066 59.6946L158.54 68.1885C158.516 68.3569 158.516 68.405 158.516 68.5735C158.516 69.3675 159.024 69.7284 160.236 69.7284C160.841 69.7284 161.689 69.5841 162.271 69.2713L163.942 59.8871C164.935 59.7668 166.195 59.6946 167.261 59.6946L165.008 72.3271Z" fill="url(#paint8_linear_126_4175)"/>
<path d="M177.92 62.8227C177.072 62.558 175.619 62.3414 174.577 62.3414C173.632 62.3414 173.148 62.6302 173.148 63.4483C173.148 65.0364 177.823 64.3867 177.823 68.1885C177.823 70.8593 175.788 72.5918 172.348 72.5918C170.919 72.5918 169.393 72.2309 168.448 71.6775C168.642 70.6669 169.078 69.4156 169.441 68.766C170.337 69.2953 171.839 69.6563 173.051 69.6563C173.995 69.6563 174.407 69.2953 174.407 68.5494C174.407 66.9854 169.708 67.6832 169.708 63.9295C169.708 61.5474 171.573 59.5503 175.352 59.5503C176.2 59.5503 177.629 59.6706 178.574 59.9353C178.453 60.7293 178.211 61.9083 177.92 62.8227Z" fill="url(#paint9_linear_126_4175)"/>
<path d="M181.19 72.5677C180.246 72.5677 179.567 72.0624 179.567 71.0759C179.567 69.6563 180.585 68.9344 181.747 68.9344C182.62 68.9344 183.298 69.4878 183.298 70.4503C183.298 71.8699 182.329 72.5677 181.19 72.5677Z" fill="url(#paint10_linear_126_4175)"/>
<path d="M194.441 63.1114C193.739 62.7986 192.843 62.6543 192.043 62.6543C190.42 62.6543 189.499 63.4483 189.063 65.9507C188.966 66.5282 188.918 67.0095 188.918 67.4185C188.918 69.0307 189.693 69.4878 191.219 69.4878C192.043 69.4878 192.939 69.2713 193.642 68.9103C193.787 69.8728 193.812 70.9797 193.812 71.9903C193.036 72.3753 191.534 72.5918 190.541 72.5918C187.247 72.5918 185.381 70.7631 185.381 67.5629C185.381 67.0335 185.43 66.432 185.527 65.8304C186.302 61.1143 188.942 59.5743 191.922 59.5743C193.157 59.5743 194.514 59.815 195.362 60.1278C195.168 61.1384 194.853 62.2452 194.441 63.1114Z" fill="url(#paint11_linear_126_4175)"/>
<path d="M207.717 66.3839C207.038 70.6428 204.519 72.5437 201.224 72.5437C198.148 72.5437 195.992 70.9315 195.992 67.5388C195.992 66.9613 196.064 66.3357 196.161 65.6861C196.84 61.4271 199.335 59.5262 202.654 59.5262C205.682 59.5262 207.886 61.0662 207.886 64.5311C207.886 65.0845 207.814 65.7823 207.717 66.3839ZM202.46 62.2933C201.079 62.2933 200.159 63.1596 199.674 66.071C199.577 66.6726 199.529 67.226 199.529 67.6591C199.529 69.2953 200.304 69.8488 201.442 69.8488C202.92 69.8488 203.744 68.9103 204.228 66.071C204.325 65.4936 204.374 64.9161 204.374 64.483C204.374 62.8468 203.598 62.2933 202.46 62.2933Z" fill="url(#paint12_linear_126_4175)"/>
<path d="M226.903 63.4483L225.328 72.3271H222.058L223.56 63.8333C223.584 63.6889 223.584 63.5927 223.584 63.4724C223.584 62.7986 223.197 62.3655 222.203 62.3655C221.549 62.3655 220.798 62.6543 220.265 63.0392L218.618 72.3271H215.348L216.85 63.8333C216.874 63.6889 216.898 63.5205 216.898 63.4002C216.898 62.7505 216.511 62.3655 215.59 62.3655C214.887 62.3655 214.233 62.6302 213.555 63.0392L211.908 72.3271H208.637L210.842 59.9112C211.811 59.7909 213.095 59.7187 214.136 59.7187L213.918 60.9699H214.088C215.299 59.7428 216.293 59.5503 217.48 59.5503C218.788 59.5503 219.732 60.0074 219.999 61.2346C221.356 59.9353 222.47 59.5503 223.778 59.5503C225.643 59.5503 227 60.4406 227 62.4858C227 62.7986 226.952 63.1836 226.903 63.4483Z" fill="url(#paint13_linear_126_4175)"/>
<defs>
<linearGradient id="paint0_linear_126_4175" x1="27.0004" y1="36.2812" x2="44.8462" y2="120.567" gradientUnits="userSpaceOnUse">
<stop stop-color="#FF8E3D"/>
<stop offset="1" stop-color="#FF6F3D"/>
</linearGradient>
<linearGradient id="paint1_linear_126_4175" x1="27.0004" y1="36.2812" x2="44.8462" y2="120.567" gradientUnits="userSpaceOnUse">
<stop stop-color="#FF8E3D"/>
<stop offset="1" stop-color="#FF6F3D"/>
</linearGradient>
<linearGradient id="paint2_linear_126_4175" x1="27.0004" y1="36.2812" x2="44.8462" y2="120.567" gradientUnits="userSpaceOnUse">
<stop stop-color="#FF8E3D"/>
<stop offset="1" stop-color="#FF6F3D"/>
</linearGradient>
<linearGradient id="paint3_linear_126_4175" x1="27.0004" y1="36.2812" x2="44.8462" y2="120.567" gradientUnits="userSpaceOnUse">
<stop stop-color="#FF8E3D"/>
<stop offset="1" stop-color="#FF6F3D"/>
</linearGradient>
<linearGradient id="paint4_linear_126_4175" x1="27.0004" y1="36.2812" x2="44.8462" y2="120.567" gradientUnits="userSpaceOnUse">
<stop stop-color="#FF8E3D"/>
<stop offset="1" stop-color="#FF6F3D"/>
</linearGradient>
<linearGradient id="paint5_linear_126_4175" x1="27.0004" y1="36.2812" x2="44.8462" y2="120.567" gradientUnits="userSpaceOnUse">
<stop stop-color="#FF8E3D"/>
<stop offset="1" stop-color="#FF6F3D"/>
</linearGradient>
<linearGradient id="paint6_linear_126_4175" x1="27.0004" y1="36.2812" x2="44.8462" y2="120.567" gradientUnits="userSpaceOnUse">
<stop stop-color="#FF8E3D"/>
<stop offset="1" stop-color="#FF6F3D"/>
</linearGradient>
<linearGradient id="paint7_linear_126_4175" x1="27.0004" y1="36.2812" x2="44.8462" y2="120.567" gradientUnits="userSpaceOnUse">
<stop stop-color="#FF8E3D"/>
<stop offset="1" stop-color="#FF6F3D"/>
</linearGradient>
<linearGradient id="paint8_linear_126_4175" x1="27.0004" y1="36.2812" x2="44.8462" y2="120.567" gradientUnits="userSpaceOnUse">
<stop stop-color="#FF8E3D"/>
<stop offset="1" stop-color="#FF6F3D"/>
</linearGradient>
<linearGradient id="paint9_linear_126_4175" x1="27.0004" y1="36.2812" x2="44.8462" y2="120.567" gradientUnits="userSpaceOnUse">
<stop stop-color="#FF8E3D"/>
<stop offset="1" stop-color="#FF6F3D"/>
</linearGradient>
<linearGradient id="paint10_linear_126_4175" x1="27.0004" y1="36.2812" x2="44.8462" y2="120.567" gradientUnits="userSpaceOnUse">
<stop stop-color="#FF8E3D"/>
<stop offset="1" stop-color="#FF6F3D"/>
</linearGradient>
<linearGradient id="paint11_linear_126_4175" x1="27.0004" y1="36.2812" x2="44.8462" y2="120.567" gradientUnits="userSpaceOnUse">
<stop stop-color="#FF8E3D"/>
<stop offset="1" stop-color="#FF6F3D"/>
</linearGradient>
<linearGradient id="paint12_linear_126_4175" x1="27.0004" y1="36.2812" x2="44.8462" y2="120.567" gradientUnits="userSpaceOnUse">
<stop stop-color="#FF8E3D"/>
<stop offset="1" stop-color="#FF6F3D"/>
</linearGradient>
<linearGradient id="paint13_linear_126_4175" x1="27.0004" y1="36.2812" x2="44.8462" y2="120.567" gradientUnits="userSpaceOnUse">
<stop stop-color="#FF8E3D"/>
<stop offset="1" stop-color="#FF6F3D"/>
</linearGradient>
</defs>
</svg>
