<svg width="254" height="120" viewBox="0 0 254 120" fill="none" xmlns="http://www.w3.org/2000/svg">
<path d="M77.0742 73.1954C77.0742 72.3825 77.3065 71.7844 77.771 71.4012C78.2471 71.018 78.8104 70.8263 79.4607 70.8263C80.0298 70.8263 80.4943 70.9947 80.8543 71.3315C81.2259 71.6683 81.4117 72.069 81.4117 72.5335L81.3246 73.3174C81.3246 73.4683 81.3827 73.6077 81.4988 73.7354C81.615 73.8632 81.7601 73.9271 81.9343 73.9271C82.515 73.9271 83.055 73.4567 83.5543 72.5161C83.8679 71.9354 84.3208 70.7973 84.9131 69.1018L80.6278 58.528C80.3259 57.7848 80.0298 57.088 79.7394 56.4377C79.4607 55.7873 79.1646 55.1544 78.851 54.5389C78.5259 53.9118 78.2704 53.517 78.0846 53.3544C77.8988 53.1918 77.562 53.0873 77.0742 53.0408V52.1698H85.9931V53.0408C85.4357 53.0524 84.977 53.1163 84.617 53.2324C84.2686 53.3486 84.0944 53.5983 84.0944 53.9815C84.0944 54.0628 84.1118 54.1731 84.1466 54.3125C84.1931 54.4518 84.286 54.7015 84.4253 55.0615L87.2299 62.2384H87.5086L89.7906 55.8106C89.9067 55.4622 89.9996 55.1602 90.0693 54.9047C90.1506 54.6376 90.1913 54.4054 90.1913 54.2079C90.1913 53.7086 90.0229 53.395 89.6861 53.2673C89.3609 53.1279 88.8732 53.0524 88.2228 53.0408V52.1698H93.6229V53.0408C93.1584 53.0757 92.7752 53.2034 92.4732 53.4241C92.1829 53.6331 91.881 54.1499 91.5674 54.9744L86.237 69.1889C85.2615 71.8135 84.4195 73.5961 83.7111 74.5367C83.0143 75.4774 81.9169 75.9477 80.4188 75.9477C79.3272 75.9477 78.4968 75.6574 77.9278 75.0768C77.3587 74.5077 77.0742 73.8806 77.0742 73.1954Z" fill="#333333"/>
<path d="M104.772 67.116C106.061 67.116 106.932 66.2624 107.385 64.5553C107.628 63.6146 107.75 62.2617 107.75 60.4965C107.75 58.4525 107.565 56.8267 107.193 55.6189C106.821 54.3996 106.066 53.7899 104.928 53.7899C104.162 53.7899 103.477 54.1267 102.873 54.8002C102.269 55.4738 101.967 55.9615 101.967 56.2635V64.9385C101.967 65.2869 102.252 65.7398 102.821 66.2972C103.401 66.843 104.052 67.116 104.772 67.116ZM94.9817 75.0942C95.7481 75.0129 96.2707 74.8329 96.5495 74.5542C96.8282 74.2871 96.9675 73.7761 96.9675 73.0212V55.0964C96.9675 54.3531 96.834 53.8537 96.5669 53.5983C96.3114 53.3312 95.812 53.1453 95.0688 53.0408V52.1698H101.88V54.5215C102.368 53.7086 102.844 53.1105 103.308 52.7273C104.144 52.0537 105.213 51.7169 106.514 51.7169C108.383 51.7169 109.934 52.4195 111.165 53.8247C112.407 55.2299 113.028 57.3261 113.028 60.1132C113.028 62.703 112.361 64.8514 111.025 66.5585C109.701 68.254 108.087 69.1018 106.183 69.1018C105.207 69.1018 104.284 68.8173 103.413 68.2482C102.948 67.9463 102.466 67.5166 101.967 66.9592V69.9728C101.979 71.5754 101.99 72.4754 102.002 72.6728C102.083 73.6135 102.321 74.258 102.716 74.6064C103.122 74.9548 103.796 75.158 104.737 75.2161V75.9477H94.9817V75.0942Z" fill="#333333"/>
<path d="M114.98 60.4268C114.98 57.9416 115.74 55.8686 117.261 54.2079C118.794 52.5473 120.716 51.7169 123.027 51.7169C125.385 51.7169 127.313 52.5647 128.811 54.2602C130.32 55.9557 131.075 58.0113 131.075 60.4268C131.075 62.8075 130.332 64.8572 128.846 66.5759C127.359 68.2831 125.42 69.1366 123.027 69.1366C120.705 69.1366 118.783 68.3063 117.261 66.6456C115.74 64.9733 114.98 62.9004 114.98 60.4268ZM120.223 60.4268C120.223 62.9236 120.351 64.6714 120.606 65.6701C121.013 67.2147 121.82 67.9869 123.027 67.9869C124.177 67.9869 124.932 67.3947 125.292 66.2101C125.652 65.0256 125.832 63.0978 125.832 60.4268C125.832 57.7674 125.64 55.8454 125.257 54.6609C124.886 53.4647 124.148 52.8666 123.045 52.8666C121.837 52.8666 121.03 53.6389 120.623 55.1835C120.356 56.217 120.223 57.9648 120.223 60.4268Z" fill="#333333"/>
<path d="M138.061 57.5003C138.061 58.8706 138.177 59.8868 138.409 60.5487C138.757 61.5939 139.425 62.1165 140.412 62.1165C141.306 62.1165 141.922 61.7275 142.259 60.9494C142.596 60.1597 142.764 59.01 142.764 57.5003C142.764 55.8977 142.584 54.7305 142.224 53.9989C141.876 53.2673 141.272 52.9015 140.412 52.9015C139.472 52.9015 138.844 53.2963 138.531 54.086C138.217 54.8641 138.061 56.0022 138.061 57.5003ZM135.988 72.4812C135.988 73.2128 136.377 73.7877 137.155 74.2058C137.944 74.6238 139.083 74.8329 140.569 74.8329C141.893 74.8329 142.985 74.7284 143.844 74.5193C145.458 74.1245 146.265 73.3987 146.265 72.3419C146.265 71.7264 146.033 71.2618 145.569 70.9483C145.116 70.6463 144.285 70.4954 143.077 70.4954H137.224C136.853 70.7973 136.586 71.0528 136.423 71.2618C136.133 71.6451 135.988 72.0515 135.988 72.4812ZM132.852 72.7251C132.852 72.2141 133.061 71.6857 133.479 71.1399C133.909 70.6057 134.646 70.2573 135.692 70.0947V69.8508C134.995 69.5837 134.49 69.3108 134.176 69.0321C133.619 68.5328 133.34 67.865 133.34 67.0289C133.34 66.0301 133.775 65.1766 134.646 64.4682C135.529 63.7598 136.388 63.2662 137.224 62.9875V62.7436C136.017 62.2559 135.041 61.5591 134.298 60.6532C133.555 59.7474 133.183 58.65 133.183 57.3609C133.183 55.7351 133.833 54.3938 135.134 53.337C136.435 52.2802 138.194 51.7518 140.412 51.7518C141.248 51.7518 142.015 51.8331 142.712 51.9956C143.408 52.1582 143.948 52.3266 144.332 52.5008H149.035V54.3996H146.143C146.608 54.8525 146.962 55.3809 147.206 55.9848C147.461 56.5886 147.589 57.2448 147.589 57.9532C147.589 60.1829 146.527 61.71 144.401 62.5346C143.287 62.9759 141.899 63.1965 140.238 63.1965C139.878 63.1965 139.64 63.1907 139.524 63.1791C139.419 63.1675 139.257 63.1617 139.036 63.1617C138.688 63.2197 138.322 63.4056 137.939 63.7191C137.544 64.0443 137.346 64.4333 137.346 64.8862C137.346 65.2462 137.445 65.525 137.643 65.7224C137.84 65.9198 138.113 66.0417 138.461 66.0882C138.635 66.1114 139.007 66.1346 139.576 66.1579C140.145 66.1695 140.586 66.1753 140.9 66.1753L143.217 66.2101C144.529 66.2334 145.632 66.425 146.527 66.785C148.234 67.4818 149.087 68.7302 149.087 70.5302C149.087 72.8528 147.81 74.4496 145.255 75.3206C143.908 75.7735 142.212 76 140.168 76C138.496 76 137.056 75.8374 135.848 75.5122C133.851 74.9664 132.852 74.0374 132.852 72.7251Z" fill="#333333"/>
<path d="M150.516 67.7431C151.201 67.6618 151.677 67.4992 151.944 67.2553C152.211 67.0114 152.356 66.5411 152.38 65.8443L152.414 64.7991V55.0964C152.414 54.3531 152.287 53.8479 152.031 53.5808C151.776 53.3137 151.271 53.1337 150.516 53.0408V52.1698H157.292V54.9744C158.047 53.9873 158.796 53.2034 159.539 52.6228C160.282 52.0421 161.142 51.7518 162.117 51.7518C162.849 51.7518 163.505 51.9898 164.086 52.466C164.678 52.9305 164.974 53.6157 164.974 54.5215C164.974 55.2183 164.765 55.7931 164.347 56.2461C163.94 56.699 163.406 56.9254 162.744 56.9254C161.989 56.9254 161.333 56.5712 160.776 55.8628C160.23 55.1544 159.847 54.8002 159.626 54.8002C159.15 54.8002 158.668 55.0964 158.18 55.6886C157.704 56.2693 157.466 57.1054 157.466 58.1971V64.9385C157.466 66.123 157.635 66.8663 157.971 67.1682C158.32 67.4585 159.005 67.6502 160.027 67.7431V68.5966H150.516V67.7431Z" fill="#333333"/>
<path d="M173.545 66.5585C174.125 66.5585 174.665 66.3843 175.165 66.0359C175.443 65.8269 175.774 65.5017 176.158 65.0604V59.8519C175.205 60.0842 174.369 60.45 173.649 60.9494C172.43 61.7971 171.82 62.8772 171.82 64.1894C171.82 64.9675 171.994 65.5598 172.343 65.9662C172.703 66.3611 173.103 66.5585 173.545 66.5585ZM166.629 65.2695C166.629 63.6668 167.401 62.3952 168.946 61.4545C170.49 60.5139 172.912 59.5674 176.21 58.6151V56.0196C176.21 54.9628 175.983 54.1847 175.53 53.6854C175.089 53.1744 174.299 52.9189 173.161 52.9189C172.523 52.9189 171.994 53.0408 171.576 53.2847C171.17 53.517 170.966 53.8131 170.966 54.1731C170.966 54.3125 170.99 54.4286 171.036 54.5215C171.083 54.6144 171.152 54.7131 171.245 54.8176L171.454 55.0615C171.617 55.2589 171.745 55.4796 171.837 55.7235C171.942 55.9557 171.994 56.2054 171.994 56.4725C171.994 57.1461 171.768 57.6687 171.315 58.0403C170.874 58.4003 170.357 58.5803 169.764 58.5803C169.079 58.5803 168.493 58.3771 168.005 57.9706C167.529 57.5641 167.291 56.9777 167.291 56.2112C167.291 54.8409 167.935 53.755 169.224 52.9537C170.514 52.1524 172.099 51.7518 173.98 51.7518C176.001 51.7518 177.69 52.1408 179.049 52.9189C180.396 53.7086 181.07 55.1602 181.07 57.2738V65.914C181.07 66.1695 181.134 66.3901 181.261 66.5759C181.401 66.7501 181.552 66.8372 181.714 66.8372C181.854 66.8372 181.976 66.814 182.08 66.7676C182.196 66.7095 182.371 66.5643 182.603 66.3321L183.143 67.0811C182.446 67.894 181.674 68.4631 180.826 68.7882C180.292 68.9973 179.729 69.1018 179.136 69.1018C178.079 69.1018 177.307 68.794 176.819 68.1786C176.541 67.8302 176.338 67.3134 176.21 66.6282C175.223 67.6153 174.108 68.3121 172.865 68.7186C172.11 68.9741 171.367 69.1018 170.635 69.1018C169.66 69.1018 168.748 68.794 167.901 68.1786C167.053 67.5514 166.629 66.5817 166.629 65.2695Z" fill="#333333"/>
<path d="M184.049 67.7431C184.78 67.685 185.303 67.5224 185.616 67.2553C185.942 66.9882 186.104 66.4308 186.104 65.583V53.9815H184.049V52.4137H186.104V51.0898C186.104 49.4291 186.365 48.0646 186.888 46.9962C187.875 44.9987 189.698 44 192.358 44C193.775 44 194.971 44.3252 195.946 44.9755C196.933 45.6142 197.427 46.462 197.427 47.5188C197.427 48.1807 197.218 48.7149 196.8 49.1214C196.393 49.5279 195.848 49.7311 195.162 49.7311C194.593 49.7311 194.106 49.5453 193.699 49.1737C193.293 48.802 193.089 48.3549 193.089 47.8323C193.089 47.4375 193.217 47.0252 193.473 46.5955C193.74 46.1542 193.873 45.8871 193.873 45.7942C193.873 45.5039 193.769 45.3181 193.56 45.2368C193.351 45.1555 193.124 45.1149 192.88 45.1149C192.3 45.1149 191.853 45.2833 191.539 45.62C191.226 45.9568 191.069 46.6826 191.069 47.7975V52.4137H194.169V53.9815H191.069V64.9385C191.069 66.1695 191.243 66.9243 191.591 67.203C191.951 67.4818 192.741 67.6618 193.96 67.7431V68.5966H184.049V67.7431Z" fill="#333333"/>
<path d="M56.0348 44.4878H77.5133L77.5482 51.6821H76.5204C76.1836 49.1156 75.2197 47.3795 73.6287 46.4736C72.7345 45.9743 71.399 45.7014 69.6222 45.6549V64.4334C69.6222 65.7456 69.8487 66.6166 70.3016 67.0463C70.7661 67.476 71.7242 67.6908 73.1758 67.6908V68.5967H60.4594V67.6908C61.853 67.6908 62.7763 67.476 63.2292 67.0463C63.6937 66.605 63.926 65.734 63.926 64.4334V45.6549C62.184 45.7014 60.8485 45.9743 59.9194 46.4736C58.2123 47.4027 57.2484 49.1389 57.0278 51.6821H56L56.0348 44.4878Z" fill="#AE1717"/>
</svg>
