<svg width="142" height="32" viewBox="0 0 142 32" fill="none" xmlns="http://www.w3.org/2000/svg">
<path d="M21.0745 29.1954C21.0745 28.3825 21.3067 27.7844 21.7713 27.4012C22.2474 27.018 22.8106 26.8263 23.461 26.8263C24.03 26.8263 24.4945 26.9947 24.8545 27.3315C25.2262 27.6683 25.412 28.069 25.412 28.5335L25.3249 29.3174C25.3249 29.4683 25.3829 29.6077 25.4991 29.7354C25.6152 29.8632 25.7604 29.9271 25.9346 29.9271C26.5152 29.9271 27.0552 29.4567 27.5546 28.5161C27.8681 27.9354 28.3211 26.7973 28.9133 25.1018L24.6281 14.528C24.3261 13.7848 24.03 13.088 23.7397 12.4377C23.461 11.7873 23.1648 11.1544 22.8513 10.5389C22.5261 9.91181 22.2706 9.51697 22.0848 9.35438C21.899 9.1918 21.5622 9.08728 21.0745 9.04083V8.16984H29.9934V9.04083C29.4359 9.05244 28.9772 9.11631 28.6172 9.23244C28.2688 9.34858 28.0946 9.59826 28.0946 9.98149C28.0946 10.0628 28.112 10.1731 28.1469 10.3125C28.1933 10.4518 28.2862 10.7015 28.4256 11.0615L31.2302 18.2384H31.5089L33.7908 11.8106C33.907 11.4622 33.9999 11.1602 34.0696 10.9047C34.1509 10.6376 34.1915 10.4054 34.1915 10.2079C34.1915 9.70858 34.0231 9.39503 33.6863 9.26728C33.3612 9.12793 32.8734 9.05244 32.2231 9.04083V8.16984H37.6232V9.04083C37.1587 9.07567 36.7754 9.20341 36.4735 9.42406C36.1832 9.6331 35.8812 10.1499 35.5677 10.9744L30.2372 25.1889C29.2617 27.8135 28.4198 29.5961 27.7114 30.5367C27.0146 31.4774 25.9171 31.9477 24.419 31.9477C23.3274 31.9477 22.4971 31.6574 21.928 31.0768C21.359 30.5077 21.0745 29.8806 21.0745 29.1954Z" fill="#333333"/>
<path d="M48.7718 23.116C50.0609 23.116 50.9318 22.2624 51.3848 20.5553C51.6286 19.6146 51.7506 18.2617 51.7506 16.4965C51.7506 14.4525 51.5648 12.8267 51.1931 11.6189C50.8215 10.3996 50.0667 9.78988 48.9286 9.78988C48.1621 9.78988 47.4769 10.1267 46.873 10.8002C46.2692 11.4738 45.9672 11.9615 45.9672 12.2635V20.9385C45.9672 21.2869 46.2517 21.7398 46.8208 22.2972C47.4014 22.843 48.0518 23.116 48.7718 23.116ZM38.9819 31.0942C39.7484 31.0129 40.271 30.8329 40.5497 30.5542C40.8284 30.2871 40.9678 29.7761 40.9678 29.0212V11.0964C40.9678 10.3531 40.8342 9.85375 40.5671 9.59826C40.3116 9.33116 39.8123 9.14535 39.069 9.04083V8.16984H45.8801V10.5215C46.3679 9.70858 46.844 9.11051 47.3085 8.72727C48.1447 8.05371 49.2131 7.71693 50.5138 7.71693C52.3835 7.71693 53.9338 8.41953 55.1648 9.82471C56.4074 11.2299 57.0287 13.3261 57.0287 16.1132C57.0287 18.703 56.361 20.8514 55.0255 22.5585C53.7016 24.254 52.0873 25.1018 50.1828 25.1018C49.2073 25.1018 48.284 24.8173 47.4131 24.2482C46.9485 23.9463 46.4666 23.5166 45.9672 22.9592V25.9728C45.9788 27.5754 45.9904 28.4754 46.0021 28.6728C46.0834 29.6135 46.3214 30.258 46.7163 30.6064C47.1227 30.9548 47.7963 31.158 48.737 31.2161V31.9477H38.9819V31.0942Z" fill="#333333"/>
<path d="M58.9797 16.4268C58.9797 13.9416 59.7404 11.8686 61.2617 10.2079C62.7947 8.54727 64.7166 7.71693 67.0276 7.71693C69.3851 7.71693 71.3129 8.56469 72.811 10.2602C74.3207 11.9557 75.0756 14.0113 75.0756 16.4268C75.0756 18.8075 74.3323 20.8572 72.8458 22.5759C71.3593 24.2831 69.42 25.1366 67.0276 25.1366C64.705 25.1366 62.783 24.3063 61.2617 22.6456C59.7404 20.9733 58.9797 18.9004 58.9797 16.4268ZM64.2231 16.4268C64.2231 18.9236 64.3508 20.6714 64.6063 21.6701C65.0128 23.2147 65.8199 23.9869 67.0276 23.9869C68.1773 23.9869 68.9322 23.3947 69.2922 22.2101C69.6522 21.0256 69.8322 19.0978 69.8322 16.4268C69.8322 13.7674 69.6406 11.8454 69.2574 10.6609C68.8857 9.46471 68.1483 8.86663 67.0451 8.86663C65.8373 8.86663 65.0302 9.6389 64.6237 11.1835C64.3566 12.217 64.2231 13.9648 64.2231 16.4268Z" fill="#333333"/>
<path d="M82.0609 13.5003C82.0609 14.8706 82.177 15.8868 82.4092 16.5487C82.7576 17.5939 83.4254 18.1165 84.4125 18.1165C85.3067 18.1165 85.9222 17.7275 86.259 16.9494C86.5958 16.1597 86.7642 15.01 86.7642 13.5003C86.7642 11.8977 86.5842 10.7305 86.2242 9.99891C85.8758 9.26728 85.2719 8.90147 84.4125 8.90147C83.4719 8.90147 82.8447 9.29632 82.5312 10.086C82.2176 10.8641 82.0609 12.0022 82.0609 13.5003ZM79.9879 28.4812C79.9879 29.2128 80.3769 29.7877 81.155 30.2058C81.9447 30.6238 83.0828 30.8329 84.5693 30.8329C85.8932 30.8329 86.9848 30.7284 87.8442 30.5193C89.4584 30.1245 90.2655 29.3987 90.2655 28.3419C90.2655 27.7264 90.0333 27.2618 89.5687 26.9483C89.1158 26.6463 88.2855 26.4954 87.0777 26.4954H81.2247C80.8531 26.7973 80.586 27.0528 80.4234 27.2618C80.1331 27.6451 79.9879 28.0515 79.9879 28.4812ZM76.8524 28.7251C76.8524 28.2141 77.0614 27.6857 77.4795 27.1399C77.9092 26.6057 78.6466 26.2573 79.6918 26.0947V25.8508C78.995 25.5837 78.4898 25.3108 78.1763 25.0321C77.6188 24.5328 77.3401 23.865 77.3401 23.0289C77.3401 22.0301 77.7756 21.1766 78.6466 20.4682C79.5292 19.7598 80.3886 19.2662 81.2247 18.9875V18.7436C80.0169 18.2559 79.0414 17.5591 78.2982 16.6532C77.555 15.7474 77.1833 14.65 77.1833 13.3609C77.1833 11.7351 77.8337 10.3938 79.1343 9.33696C80.435 8.28017 82.1944 7.75177 84.4125 7.75177C85.2487 7.75177 86.0151 7.83306 86.7119 7.99565C87.4087 8.15823 87.9487 8.32662 88.3319 8.50082H93.0353V10.3996H90.1436C90.6081 10.8525 90.9623 11.3809 91.2062 11.9848C91.4617 12.5886 91.5894 13.2448 91.5894 13.9532C91.5894 16.1829 90.5268 17.71 88.4016 18.5346C87.2868 18.9759 85.899 19.1965 84.2383 19.1965C83.8783 19.1965 83.6402 19.1907 83.5241 19.1791C83.4196 19.1675 83.257 19.1617 83.0364 19.1617C82.688 19.2197 82.3222 19.4056 81.9389 19.7191C81.5441 20.0443 81.3466 20.4333 81.3466 20.8862C81.3466 21.2462 81.4454 21.525 81.6428 21.7224C81.8402 21.9198 82.1131 22.0417 82.4615 22.0882C82.6357 22.1114 83.0073 22.1346 83.5764 22.1579C84.1454 22.1695 84.5867 22.1753 84.9003 22.1753L87.2171 22.2101C88.5294 22.2334 89.6326 22.425 90.5268 22.785C92.234 23.4818 93.0875 24.7302 93.0875 26.5302C93.0875 28.8528 91.8101 30.4496 89.2552 31.3206C87.9081 31.7735 86.2126 32 84.1686 32C82.4963 32 81.0563 31.8374 79.8486 31.5122C77.8511 30.9664 76.8524 30.0374 76.8524 28.7251Z" fill="#333333"/>
<path d="M94.5159 23.7431C95.2011 23.6618 95.6773 23.4992 95.9444 23.2553C96.2115 23.0114 96.3566 22.5411 96.3799 21.8443L96.4147 20.7991V11.0964C96.4147 10.3531 96.2869 9.84794 96.0315 9.58084C95.776 9.31374 95.2708 9.13373 94.5159 9.04083V8.16984H101.292V10.9744C102.047 9.9873 102.796 9.20341 103.539 8.62276C104.283 8.0421 105.142 7.75177 106.117 7.75177C106.849 7.75177 107.505 7.98984 108.086 8.46598C108.678 8.9305 108.974 9.61568 108.974 10.5215C108.974 11.2183 108.765 11.7931 108.347 12.2461C107.941 12.699 107.407 12.9254 106.745 12.9254C105.99 12.9254 105.334 12.5712 104.776 11.8628C104.23 11.1544 103.847 10.8002 103.626 10.8002C103.15 10.8002 102.668 11.0964 102.181 11.6886C101.704 12.2693 101.466 13.1054 101.466 14.1971V20.9385C101.466 22.123 101.635 22.8663 101.972 23.1682C102.32 23.4585 103.005 23.6502 104.027 23.7431V24.5966H94.5159V23.7431Z" fill="#333333"/>
<path d="M117.545 22.5585C118.125 22.5585 118.665 22.3843 119.165 22.0359C119.444 21.8269 119.775 21.5017 120.158 21.0604V15.8519C119.205 16.0842 118.369 16.45 117.649 16.9494C116.43 17.7971 115.82 18.8772 115.82 20.1894C115.82 20.9675 115.994 21.5598 116.343 21.9662C116.703 22.3611 117.104 22.5585 117.545 22.5585ZM110.629 21.2695C110.629 19.6668 111.401 18.3952 112.946 17.4545C114.491 16.5139 116.912 15.5674 120.21 14.6151V12.0196C120.21 10.9628 119.984 10.1847 119.531 9.68536C119.089 9.17438 118.3 8.91889 117.162 8.91889C116.523 8.91889 115.994 9.04083 115.576 9.2847C115.17 9.51697 114.967 9.8131 114.967 10.1731C114.967 10.3125 114.99 10.4286 115.036 10.5215C115.083 10.6144 115.152 10.7131 115.245 10.8176L115.454 11.0615C115.617 11.2589 115.745 11.4796 115.838 11.7235C115.942 11.9557 115.994 12.2054 115.994 12.4725C115.994 13.1461 115.768 13.6687 115.315 14.0403C114.874 14.4003 114.357 14.5803 113.765 14.5803C113.08 14.5803 112.493 14.3771 112.005 13.9706C111.529 13.5641 111.291 12.9777 111.291 12.2112C111.291 10.8409 111.936 9.75504 113.225 8.95373C114.514 8.15242 116.099 7.75177 117.98 7.75177C120.001 7.75177 121.691 8.14081 123.049 8.91889C124.397 9.70858 125.07 11.1602 125.07 13.2738V21.914C125.07 22.1695 125.134 22.3901 125.262 22.5759C125.401 22.7501 125.552 22.8372 125.715 22.8372C125.854 22.8372 125.976 22.814 126.08 22.7676C126.197 22.7095 126.371 22.5643 126.603 22.3321L127.143 23.0811C126.446 23.894 125.674 24.4631 124.826 24.7882C124.292 24.9973 123.729 25.1018 123.137 25.1018C122.08 25.1018 121.307 24.794 120.82 24.1786C120.541 23.8302 120.338 23.3134 120.21 22.6282C119.223 23.6153 118.108 24.3121 116.865 24.7186C116.111 24.9741 115.367 25.1018 114.636 25.1018C113.66 25.1018 112.749 24.794 111.901 24.1786C111.053 23.5514 110.629 22.5817 110.629 21.2695Z" fill="#333333"/>
<path d="M128.049 23.7431C128.781 23.685 129.303 23.5224 129.617 23.2553C129.942 22.9882 130.104 22.4308 130.104 21.583V9.98149H128.049V8.41372H130.104V7.08982C130.104 5.42914 130.366 4.0646 130.888 2.99619C131.875 0.99873 133.699 0 136.358 0C137.775 0 138.971 0.325168 139.947 0.975504C140.934 1.61423 141.427 2.46199 141.427 3.51878C141.427 4.18073 141.218 4.71493 140.8 5.12139C140.394 5.52785 139.848 5.73108 139.163 5.73108C138.594 5.73108 138.106 5.54527 137.699 5.17365C137.293 4.80203 137.09 4.35493 137.09 3.83234C137.09 3.43749 137.217 3.02522 137.473 2.59554C137.74 2.15424 137.874 1.88713 137.874 1.79423C137.874 1.5039 137.769 1.31809 137.56 1.2368C137.351 1.15551 137.125 1.11486 136.881 1.11486C136.3 1.11486 135.853 1.28325 135.539 1.62003C135.226 1.95681 135.069 2.68263 135.069 3.7975V8.41372H138.17V9.98149H135.069V20.9385C135.069 22.1695 135.243 22.9243 135.592 23.203C135.952 23.4818 136.741 23.6618 137.961 23.7431V24.5966H128.049V23.7431Z" fill="#333333"/>
<path d="M0.0348394 0.487793H21.5133L21.5482 7.68213H20.5204C20.1836 5.11563 19.2197 3.37946 17.6287 2.47364C16.7345 1.97427 15.399 1.70137 13.6222 1.65491V20.4334C13.6222 21.7456 13.8487 22.6166 14.3016 23.0463C14.7661 23.476 15.7242 23.6908 17.1758 23.6908V24.5967H4.45944V23.6908C5.85302 23.6908 6.77627 23.476 7.22918 23.0463C7.6937 22.605 7.92597 21.734 7.92597 20.4334V1.65491C6.184 1.70137 4.84848 1.97427 3.91943 2.47364C2.2123 3.40269 1.24841 5.13885 1.02776 7.68213H0L0.0348394 0.487793Z" fill="#AE1717"/>
</svg>
