<svg width="73" height="50" viewBox="0 0 73 50" fill="none" xmlns="http://www.w3.org/2000/svg">
<path fill-rule="evenodd" clip-rule="evenodd" d="M64.5397 1.52933C67.6412 2.35311 70.087 4.76453 70.9218 7.82374C72.4731 13.4115 72.4135 25.0588 72.4135 25.0588C72.4135 25.0588 72.4135 36.6468 70.9224 42.2351C70.087 45.2938 67.6418 47.7057 64.5397 48.529C58.873 50 36.2067 50 36.2067 50C36.2067 50 13.5996 50 7.87382 48.4707C4.77169 47.6469 2.32646 45.2349 1.49112 42.1763C0 36.6468 0 25 0 25C0 25 0 13.4115 1.49112 7.82374C2.3259 4.76507 4.83136 2.29427 7.87326 1.47104C13.54 0 36.2062 0 36.2062 0C36.2062 0 58.873 0 64.5397 1.52933ZM48.3912 25.0351L28.645 36.029V14.0411L48.3912 25.0351Z" fill="#ED3323"/>
</svg>
