<svg width="254" height="120" viewBox="0 0 254 120" fill="none" xmlns="http://www.w3.org/2000/svg">
<path fill-rule="evenodd" clip-rule="evenodd" d="M155.54 36.5293C158.641 37.3531 161.087 39.7645 161.922 42.8237C163.473 48.4115 163.413 60.0588 163.413 60.0588C163.413 60.0588 163.413 71.6468 161.922 77.2351C161.087 80.2938 158.642 82.7057 155.54 83.529C149.873 85 127.207 85 127.207 85C127.207 85 104.6 85 98.8738 83.4707C95.7717 82.6469 93.3265 80.2349 92.4911 77.1763C91 71.6468 91 60 91 60C91 60 91 48.4115 92.4911 42.8237C93.3259 39.7651 95.8314 37.2943 98.8733 36.471C104.54 35 127.206 35 127.206 35C127.206 35 149.873 35 155.54 36.5293ZM139.391 60.0351L119.645 71.029V49.0411L139.391 60.0351Z" fill="#ED3323"/>
</svg>
