<svg width="134" height="32" viewBox="0 0 134 32" fill="none" xmlns="http://www.w3.org/2000/svg">
<path d="M19.3453 9.40938L5.01899 28.2318H19.8669V31.3687H0V28.858L14.3238 10.0367H0.731937V6.90112H19.3453V9.40938Z" fill="#CC2936"/>
<path d="M47.47 19.1349C47.4873 20.8896 47.1591 22.6305 46.5041 24.2585C45.8912 25.7899 44.9723 27.1801 43.8037 28.3443C42.6351 29.5084 41.2413 30.4219 39.7075 31.0289C38.035 31.6892 36.25 32.0177 34.452 31.9961C32.6721 32.0146 30.9056 31.6861 29.2513 31.0289C27.7175 30.4219 26.3237 29.5084 25.1551 28.3443C23.9865 27.1801 23.0677 25.7899 22.4547 24.2585C21.7977 22.6311 21.4686 20.8899 21.4863 19.1349C21.4684 17.3799 21.7975 15.6387 22.4547 14.0114C23.0673 12.4796 23.9862 11.0889 25.1551 9.92476C26.324 8.76057 27.7183 7.84731 29.2525 7.24095C30.9066 6.58274 32.6732 6.25377 34.4533 6.27251C36.2514 6.25066 38.0365 6.57961 39.7088 7.24095C41.2428 7.84745 42.6369 8.76077 43.8056 9.92496C44.9742 11.0891 45.8929 12.4797 46.5053 14.0114C47.1601 15.6393 47.4879 17.3803 47.47 19.1349ZM43.707 19.1349C43.7167 17.834 43.495 16.5417 43.0523 15.3184C42.6457 14.178 42.017 13.1296 41.2025 12.2338C40.3878 11.353 39.4 10.65 38.3009 10.1687C35.8392 9.15625 33.0773 9.15625 30.6156 10.1687C29.5222 10.646 28.5426 11.3499 27.7414 12.2338C26.9393 13.1352 26.318 14.1824 25.9115 15.3184C25.0401 17.7877 25.0401 20.4809 25.9115 22.9502C26.3171 24.087 26.9385 25.1348 27.7414 26.036C28.5426 26.92 29.5222 27.6238 30.6156 28.1011C33.078 29.1102 35.8385 29.1102 38.3009 28.1011C39.4 27.6199 40.3878 26.9168 41.2025 26.036C42.02 25.1409 42.651 24.0919 43.0585 22.9502C43.4992 21.727 43.7188 20.4351 43.707 19.1349Z" fill="#333333"/>
<path d="M64.3064 10.0367H57.2485V24.4676C57.2289 25.2169 57.3169 25.9652 57.5099 26.6895C57.6412 27.1874 57.893 27.6452 58.2431 28.0227C58.5529 28.3348 58.9392 28.5602 59.3634 28.6762C59.832 28.8027 60.3158 28.8638 60.8011 28.858C61.42 28.8547 62.0356 28.7672 62.6309 28.5978C63.2292 28.4351 63.8077 28.2072 64.3562 27.9182L64.5131 31.1073C63.0442 31.7353 61.457 32.0385 59.86 31.9961C59.1637 31.9919 58.4704 31.9041 57.7949 31.7347C57.074 31.5566 56.4034 31.2159 55.8344 30.7389C55.2008 30.1954 54.7 29.5141 54.3705 28.7472C53.9483 27.7022 53.7523 26.5797 53.7954 25.4535V10.0367H48.6221V6.90112H53.7979V0H57.2485V6.90112H64.3064V10.0367Z" fill="#333333"/>
<path d="M69.3248 20.076C69.4207 21.2682 69.7196 22.4352 70.2086 23.5266C71.1319 25.6175 72.8139 27.2803 74.9151 28.1796C75.9884 28.6381 77.1451 28.8691 78.3122 28.858C79.9974 28.9034 81.6595 28.4588 83.0971 27.5784C84.3249 26.8352 85.3701 25.8257 86.1556 24.6245L88.8207 26.8203C87.5492 28.5116 85.8915 29.874 83.9859 30.7937C82.2038 31.6 80.2681 32.0102 78.3122 31.9962C76.583 32.0116 74.8679 31.6828 73.267 31.029C71.7633 30.4154 70.4018 29.4989 69.2675 28.3365C68.1344 27.1589 67.238 25.7744 66.6273 24.2585C65.9713 22.6309 65.6426 20.8898 65.6601 19.135C65.6423 17.3825 65.9622 15.6429 66.6024 14.0114C67.1975 12.4933 68.0858 11.1072 69.2165 9.93225C70.3318 8.78302 71.6653 7.86805 73.1388 7.24102C74.6755 6.58795 76.3301 6.25829 77.9997 6.27257C79.7075 6.2448 81.4014 6.58442 82.9664 7.2684C84.3644 7.8835 85.6195 8.78211 86.6523 9.90736C87.6616 11.0323 88.4349 12.3483 88.9265 13.7774C89.4558 15.2979 89.721 16.8977 89.7107 18.5076V20.076H69.3248ZM85.9502 17.2529C85.9949 16.2159 85.8331 15.1805 85.4741 14.2067C85.1151 13.2328 84.566 12.3401 83.859 11.5804C83.0875 10.8328 82.169 10.2538 81.1619 9.88003C80.1547 9.50631 79.0808 9.34606 78.0084 9.40944C76.8969 9.40999 75.7967 9.63216 74.772 10.063C73.7617 10.4787 72.8342 11.0724 72.0335 11.8156C71.26 12.5319 70.6224 13.3821 70.1513 14.3251C69.6881 15.2316 69.4458 16.2349 69.4443 17.2529H85.9502Z" fill="#333333"/>
<path d="M94.7881 14.5342C94.7881 13.4554 94.7616 12.3575 94.7085 11.2405C94.6554 10.1235 94.6139 8.67705 94.584 6.90115H97.981V11.4521H98.0856C98.3406 10.7687 98.6928 10.1256 99.1312 9.5426C99.5993 8.91867 100.154 8.36457 100.778 7.89698C101.46 7.39018 102.217 6.99365 103.021 6.7219C103.957 6.41338 104.938 6.26319 105.923 6.27751C106.787 6.26329 107.649 6.36885 108.485 6.5912L107.802 9.9845C107.159 9.78319 106.485 9.69475 105.811 9.72309C104.632 9.69 103.465 9.95097 102.412 10.4824C101.505 10.961 100.705 11.6191 100.06 12.4168C99.4484 13.1712 98.9789 14.0304 98.6744 14.9525C98.3888 15.7948 98.2388 16.6771 98.23 17.5665V31.3687H94.7881V14.5342Z" fill="#333333"/>
<path d="M133.998 19.1349C134.016 20.8898 133.687 22.6308 133.031 24.2585C132.418 25.7899 131.499 27.1801 130.331 28.3443C129.162 29.5084 127.768 30.4219 126.235 31.0289C124.563 31.6893 122.778 32.0178 120.98 31.9961C119.2 32.0147 117.433 31.6862 115.778 31.0289C114.245 30.4219 112.851 29.5084 111.682 28.3443C110.514 27.1801 109.595 25.7899 108.982 24.2585C108.325 22.631 107.997 20.8898 108.015 19.1349C107.996 17.38 108.325 15.6388 108.982 14.0114C109.594 12.4797 110.513 11.0891 111.682 9.92496C112.85 8.76078 114.244 7.84746 115.778 7.24095C117.433 6.58264 119.2 6.25368 120.98 6.27251C122.778 6.25063 124.563 6.57959 126.235 7.24095C127.769 7.84746 129.163 8.76078 130.331 9.92496C131.5 11.0891 132.419 12.4797 133.031 14.0114C133.687 15.639 134.016 17.3801 133.998 19.1349ZM130.234 19.1349C130.244 17.8341 130.022 16.5419 129.581 15.3184C129.171 14.178 128.54 13.1297 127.725 12.2338C126.909 11.353 125.921 10.65 124.822 10.1687C122.36 9.15633 119.599 9.15633 117.138 10.1687C116.044 10.6457 115.064 11.3496 114.262 12.2338C113.46 13.1352 112.839 14.1824 112.432 15.3184C111.561 17.7877 111.561 20.4809 112.432 22.9502C112.838 24.087 113.459 25.1348 114.262 26.036C115.064 26.9203 116.044 27.6242 117.138 28.1012C119.6 29.1103 122.36 29.1103 124.822 28.1012C125.921 27.6199 126.909 26.9168 127.725 26.036C128.541 25.1403 129.172 24.0914 129.581 22.9502C130.022 21.7271 130.244 20.4353 130.234 19.1349Z" fill="#333333"/>
</svg>
