<svg width="254" height="120" viewBox="0 0 254 120" fill="none" xmlns="http://www.w3.org/2000/svg">
<path d="M79.3453 53.4094L65.019 72.2318H79.8669V75.3687H60V72.858L74.3238 54.0367H60.7319V50.9011H79.3453V53.4094Z" fill="#CC2936"/>
<path d="M107.471 63.1349C107.488 64.8896 107.16 66.6305 106.505 68.2585C105.892 69.7899 104.973 71.1801 103.804 72.3443C102.636 73.5084 101.242 74.4219 99.7083 75.0289C98.0358 75.6892 96.2508 76.0177 94.4528 75.9961C92.6728 76.0146 90.9063 75.6861 89.252 75.0289C87.7183 74.4219 86.3245 73.5084 85.1559 72.3443C83.9873 71.1801 83.0684 69.7899 82.4555 68.2585C81.7984 66.6311 81.4693 64.8899 81.487 63.1349C81.4691 61.3799 81.7982 59.6387 82.4555 58.0114C83.068 56.4796 83.9869 55.0889 85.1558 53.9248C86.3247 52.7606 87.719 51.8473 89.2533 51.241C90.9073 50.5827 92.6739 50.2538 94.454 50.2725C96.2521 50.2507 98.0373 50.5796 99.7095 51.241C101.244 51.8475 102.638 52.7608 103.806 53.925C104.975 55.0891 105.894 56.4797 106.506 58.0114C107.161 59.6394 107.489 61.3803 107.471 63.1349V63.1349ZM103.708 63.1349C103.717 61.834 103.496 60.5417 103.053 59.3184C102.646 58.178 102.018 57.1296 101.203 56.2338C100.389 55.353 99.4007 54.65 98.3016 54.1687C95.8399 53.1563 93.0781 53.1563 90.6163 54.1687C89.523 54.646 88.5433 55.3499 87.7421 56.2338C86.94 57.1352 86.3188 58.1824 85.9123 59.3184C85.0409 61.7877 85.0409 64.4809 85.9123 66.9502C86.3179 68.087 86.9392 69.1348 87.7421 70.036C88.5433 70.92 89.523 71.6238 90.6163 72.1011C93.0787 73.1102 95.8392 73.1102 98.3016 72.1011C99.4007 71.6199 100.389 70.9168 101.203 70.036C102.021 69.1409 102.652 68.0919 103.059 66.9502C103.5 65.727 103.72 64.4351 103.708 63.1349V63.1349Z" fill="#666666"/>
<path d="M124.307 54.0367H117.249V68.4676C117.23 69.2169 117.318 69.9652 117.511 70.6895C117.642 71.1874 117.894 71.6452 118.244 72.0227C118.554 72.3348 118.94 72.5602 119.364 72.6762C119.833 72.8027 120.317 72.8638 120.802 72.858C121.421 72.8547 122.037 72.7672 122.632 72.5978C123.23 72.4351 123.809 72.2072 124.357 71.9182L124.514 75.1073C123.045 75.7353 121.458 76.0385 119.861 75.9961C119.165 75.9919 118.471 75.9041 117.796 75.7347C117.075 75.5566 116.404 75.2159 115.835 74.7389C115.202 74.1954 114.701 73.5141 114.371 72.7472C113.949 71.7022 113.753 70.5797 113.796 69.4535V54.0367H108.623V50.9011H113.799V44H117.249V50.9011H124.307V54.0367Z" fill="#666666"/>
<path d="M129.326 64.076C129.421 65.2682 129.72 66.4352 130.209 67.5266C131.133 69.6175 132.815 71.2803 134.916 72.1796C135.989 72.6381 137.146 72.8691 138.313 72.858C139.998 72.9034 141.66 72.4588 143.098 71.5784C144.326 70.8352 145.371 69.8257 146.156 68.6245L148.821 70.8203C147.55 72.5116 145.892 73.874 143.987 74.7937C142.205 75.6 140.269 76.0102 138.313 75.9962C136.584 76.0116 134.869 75.6828 133.268 75.029C131.764 74.4154 130.403 73.4989 129.268 72.3365C128.135 71.1589 127.239 69.7744 126.628 68.2585C125.972 66.6309 125.643 64.8898 125.661 63.135C125.643 61.3825 125.963 59.6429 126.603 58.0114C127.198 56.4933 128.087 55.1072 129.217 53.9323C130.332 52.783 131.666 51.868 133.14 51.241C134.676 50.5879 136.331 50.2583 138 50.2726C139.708 50.2448 141.402 50.5844 142.967 51.2684C144.365 51.8835 145.62 52.7821 146.653 53.9074C147.662 55.0323 148.436 56.3483 148.927 57.7774C149.457 59.2979 149.722 60.8977 149.711 62.5076V64.076H129.326ZM145.951 61.2529C145.996 60.2159 145.834 59.1805 145.475 58.2067C145.116 57.2328 144.567 56.3401 143.86 55.5804C143.088 54.8328 142.17 54.2538 141.163 53.88C140.155 53.5063 139.082 53.3461 138.009 53.4094C136.898 53.41 135.797 53.6322 134.773 54.063C133.762 54.4787 132.835 55.0724 132.034 55.8156C131.261 56.5319 130.623 57.3821 130.152 58.3251C129.689 59.2316 129.447 60.2349 129.445 61.2529H145.951Z" fill="#666666"/>
<path d="M154.788 58.5343C154.788 57.4555 154.762 56.3576 154.708 55.2406C154.655 54.1236 154.614 52.6772 154.584 50.9013H157.981V55.4522H158.086C158.341 54.7688 158.693 54.1257 159.131 53.5427C159.599 52.9188 160.154 52.3647 160.778 51.8971C161.46 51.3903 162.217 50.9938 163.021 50.722C163.957 50.4135 164.938 50.2633 165.923 50.2776C166.787 50.2634 167.649 50.369 168.485 50.5913L167.802 53.9846C167.159 53.7833 166.485 53.6949 165.811 53.7232C164.632 53.6901 163.465 53.9511 162.412 54.4825C161.505 54.9611 160.705 55.6192 160.06 56.4169C159.448 57.1714 158.979 58.0305 158.674 58.9526C158.389 59.7949 158.239 60.6773 158.23 61.5666V75.3689H154.788V58.5343Z" fill="#666666"/>
<path d="M193.998 63.1349C194.016 64.8898 193.687 66.6308 193.031 68.2585C192.418 69.7899 191.499 71.1801 190.331 72.3443C189.162 73.5084 187.768 74.4219 186.234 75.0289C184.562 75.6893 182.778 76.0178 180.98 75.9961C179.2 76.0147 177.433 75.6862 175.778 75.0289C174.244 74.4219 172.851 73.5084 171.682 72.3443C170.513 71.1801 169.595 69.7899 168.982 68.2585C168.325 66.631 167.996 64.8898 168.014 63.1349C167.996 61.38 168.325 59.6388 168.982 58.0114C169.594 56.4797 170.513 55.0891 171.681 53.925C172.85 52.7608 174.244 51.8475 175.778 51.241C177.433 50.5826 179.2 50.2537 180.98 50.2725C182.778 50.2506 184.563 50.5796 186.234 51.241C187.768 51.8475 189.162 52.7608 190.331 53.925C191.5 55.0891 192.419 56.4797 193.031 58.0114C193.687 59.639 194.016 61.3801 193.998 63.1349V63.1349ZM190.234 63.1349C190.243 61.8341 190.022 60.5419 189.58 59.3184C189.171 58.178 188.54 57.1297 187.724 56.2338C186.909 55.353 185.921 54.65 184.822 54.1687C182.36 53.1563 179.599 53.1563 177.137 54.1687C176.044 54.6457 175.063 55.3496 174.262 56.2338C173.46 57.1352 172.839 58.1824 172.432 59.3184C171.561 61.7877 171.561 64.4809 172.432 66.9502C172.838 68.087 173.459 69.1348 174.262 70.036C175.063 70.9203 176.044 71.6242 177.137 72.1011C179.599 73.1103 182.36 73.1103 184.822 72.1011C185.921 71.6199 186.909 70.9168 187.724 70.036C188.541 69.1403 189.172 68.0914 189.58 66.9502C190.022 65.7271 190.243 64.4353 190.234 63.1349Z" fill="#666666"/>
</svg>
