<svg width="32" height="32" viewBox="0 0 32 32" fill="none" xmlns="http://www.w3.org/2000/svg">
<path fill-rule="evenodd" clip-rule="evenodd" d="M21 18.5C21 18.7761 21.2239 19 21.5 19C21.7761 19 22 18.7761 22 18.5V12.5C22 11.1193 20.8807 10 19.5 10H13.5C13.2239 10 13 10.2239 13 10.5C13 10.7761 13.2239 11 13.5 11H19.5C20.3284 11 21 11.6716 21 12.5V18.5ZM18 13H12C11.4477 13 11 13.4477 11 14V20C11 20.5523 11.4477 21 12 21H18C18.5523 21 19 20.5523 19 20V14C19 13.4477 18.5523 13 18 13ZM12 12C10.8954 12 10 12.8954 10 14V20C10 21.1046 10.8954 22 12 22H18C19.1046 22 20 21.1046 20 20V14C20 12.8954 19.1046 12 18 12H12Z" fill="#A3A9AE"/>
</svg>
