<svg width="64" height="64" viewBox="0 0 64 64" fill="none" xmlns="http://www.w3.org/2000/svg">
<mask id="path-1-outside-1_832_21116" maskUnits="userSpaceOnUse" x="3.16138" y="33.0361" width="56" height="28" fill="black">
<rect fill="white" x="3.16138" y="33.0361" width="56" height="28"/>
<path d="M25.3043 60.0002C25.0393 60 24.7771 59.9469 24.534 59.8444L17.9584 57.2002C17.4738 57.0061 17.0896 56.6315 16.8921 56.1604C16.6969 55.6955 16.7054 55.1736 16.9156 54.7149L18.4816 51.0429C16.9406 49.906 15.5655 48.5718 14.394 47.0766L10.5743 48.6067C10.0985 48.7996 9.56278 48.7987 9.08767 48.6043C8.61284 48.4142 8.23494 48.0495 8.03666 47.5899L5.31348 41.182C4.90094 40.2317 5.3562 39.1365 6.33296 38.7296C7.463 38.2778 10.3227 36.6633 13.4194 35.662C16.5162 34.6608 18.0646 36.1626 18.7563 38.1651C21.6959 46.6757 37.8564 50.8344 43.3549 40.1677C43.6546 39.5863 44.4039 37.6734 45.2237 36.2584C45.9356 35.1614 46.995 34.6349 48.8006 35.3921C50.6289 36.1589 52.9826 37.2036 54.0682 37.6299L56.7693 38.7207C57.2499 38.9111 57.6307 39.2821 57.8249 39.7491C58.0195 40.2111 58.0182 40.729 57.8213 41.1901L55.087 47.586C54.8897 48.0537 54.5068 48.4247 54.0244 48.6155C53.542 48.8063 53.0007 48.8009 52.5225 48.6004L48.7284 47.0772C47.559 48.5714 46.1842 49.9034 44.6423 51.0359L46.2178 54.7379C46.4204 55.1909 46.4252 55.7041 46.2312 56.1605C46.0332 56.6329 45.6476 57.0082 45.1612 57.2019L38.5755 59.8505C38.0985 60.0443 37.5614 60.0449 37.0839 59.8523C36.6064 59.6597 36.2282 59.2898 36.0336 58.8251L34.4514 55.1287C32.5354 55.3879 30.5917 55.3906 28.6749 55.1366L27.0994 58.8296C26.8008 59.5363 26.0917 59.9984 25.3043 60.0002Z"/>
</mask>
<path d="M25.3043 60.0002C25.0393 60 24.7771 59.9469 24.534 59.8444L17.9584 57.2002C17.4738 57.0061 17.0896 56.6315 16.8921 56.1604C16.6969 55.6955 16.7054 55.1736 16.9156 54.7149L18.4816 51.0429C16.9406 49.906 15.5655 48.5718 14.394 47.0766L10.5743 48.6067C10.0985 48.7996 9.56278 48.7987 9.08767 48.6043C8.61284 48.4142 8.23494 48.0495 8.03666 47.5899L5.31348 41.182C4.90094 40.2317 5.3562 39.1365 6.33296 38.7296C7.463 38.2778 10.3227 36.6633 13.4194 35.662C16.5162 34.6608 18.0646 36.1626 18.7563 38.1651C21.6959 46.6757 37.8564 50.8344 43.3549 40.1677C43.6546 39.5863 44.4039 37.6734 45.2237 36.2584C45.9356 35.1614 46.995 34.6349 48.8006 35.3921C50.6289 36.1589 52.9826 37.2036 54.0682 37.6299L56.7693 38.7207C57.2499 38.9111 57.6307 39.2821 57.8249 39.7491C58.0195 40.2111 58.0182 40.729 57.8213 41.1901L55.087 47.586C54.8897 48.0537 54.5068 48.4247 54.0244 48.6155C53.542 48.8063 53.0007 48.8009 52.5225 48.6004L48.7284 47.0772C47.559 48.5714 46.1842 49.9034 44.6423 51.0359L46.2178 54.7379C46.4204 55.1909 46.4252 55.7041 46.2312 56.1605C46.0332 56.6329 45.6476 57.0082 45.1612 57.2019L38.5755 59.8505C38.0985 60.0443 37.5614 60.0449 37.0839 59.8523C36.6064 59.6597 36.2282 59.2898 36.0336 58.8251L34.4514 55.1287C32.5354 55.3879 30.5917 55.3906 28.6749 55.1366L27.0994 58.8296C26.8008 59.5363 26.0917 59.9984 25.3043 60.0002Z" fill="#CCCCCC"/>
<path d="M55.9659 41.1045H55.9674V40.1045H55.9659V41.1045ZM25.3043 60.0002L25.3033 61.0002L25.3066 61.0002L25.3043 60.0002ZM24.534 59.8444L24.9226 58.923L24.9149 58.9198L24.9071 58.9167L24.534 59.8444ZM17.9584 57.2002L18.3315 56.2724L18.3303 56.2719L17.9584 57.2002ZM16.8921 56.1604L17.8143 55.7737L17.8141 55.7733L16.8921 56.1604ZM16.9156 54.7149L17.8247 55.1315L17.8302 55.1194L17.8355 55.1072L16.9156 54.7149ZM18.4816 51.0429L19.4015 51.4352L19.7117 50.7077L19.0753 50.2382L18.4816 51.0429ZM14.394 47.0766L15.1812 46.4598L14.7185 45.8693L14.0222 46.1483L14.394 47.0766ZM10.5743 48.6067L10.2025 47.6784L10.1987 47.68L10.5743 48.6067ZM9.08767 48.6043L9.46642 47.6788L9.45928 47.6759L9.08767 48.6043ZM8.03666 47.5899L7.11631 47.981L7.11845 47.986L8.03666 47.5899ZM5.31348 41.182L6.23385 40.7909L6.23078 40.7838L5.31348 41.182ZM6.33296 38.7296L5.96175 37.801L5.95504 37.8037L5.94836 37.8065L6.33296 38.7296ZM43.3549 40.1677L44.2438 40.6258L43.3549 40.1677ZM54.0682 37.6299L54.4426 36.7026L54.4337 36.6991L54.0682 37.6299ZM56.7693 38.7207L56.3948 39.648L56.401 39.6504L56.7693 38.7207ZM57.8249 39.7491L56.9015 40.1331L56.9033 40.1373L57.8249 39.7491ZM57.8213 41.1901L58.7408 41.5832L58.741 41.5828L57.8213 41.1901ZM55.087 47.586L54.1675 47.1929L54.1656 47.1973L55.087 47.586ZM54.0244 48.6155L54.3922 49.5454L54.0244 48.6155ZM52.5225 48.6004L52.9092 47.6782L52.9022 47.6752L52.8951 47.6724L52.5225 48.6004ZM48.7284 47.0772L49.1009 46.1492L48.4038 45.8693L47.9409 46.4609L48.7284 47.0772ZM44.6423 51.0359L44.0503 50.23L43.4121 50.6988L43.7222 51.4275L44.6423 51.0359ZM46.2178 54.7379L45.2977 55.1295L45.3012 55.1379L45.305 55.1462L46.2178 54.7379ZM46.2312 56.1605L45.3109 55.7692L45.3089 55.774L46.2312 56.1605ZM45.1612 57.2019L44.7913 56.2728L44.7881 56.2741L45.1612 57.2019ZM38.5755 59.8505L38.2023 58.9227L38.199 58.924L38.5755 59.8505ZM37.0839 59.8523L37.458 58.9249L37.0839 59.8523ZM36.0336 58.8251L36.956 58.4388L36.9529 58.4316L36.0336 58.8251ZM34.4514 55.1287L35.3707 54.7352L35.0713 54.0357L34.3173 54.1377L34.4514 55.1287ZM28.6749 55.1366L28.8063 54.1453L28.0532 54.0455L27.7551 54.7442L28.6749 55.1366ZM27.0994 58.8296L26.1796 58.4372L26.1783 58.4404L27.0994 58.8296ZM48.8006 35.3921L48.4139 36.3143L48.8006 35.3921ZM45.2237 36.2584L44.3848 35.7141L44.3711 35.7353L44.3584 35.7571L45.2237 36.2584ZM25.3053 59.0002C25.1727 59.0001 25.0424 58.9735 24.9226 58.923L24.1455 60.7659C24.5118 60.9204 24.9058 60.9998 25.3033 61.0002L25.3053 59.0002ZM24.9071 58.9167L18.3315 56.2724L17.5854 58.128L24.1609 60.7722L24.9071 58.9167ZM18.3303 56.2719C18.088 56.1749 17.9058 55.9919 17.8143 55.7737L15.9699 56.5471C16.2735 57.2712 16.8595 57.8373 17.5866 58.1286L18.3303 56.2719ZM17.8141 55.7733C17.7273 55.5666 17.7309 55.3361 17.8247 55.1315L16.0066 54.2982C15.6799 55.011 15.6665 55.8245 15.9701 56.5476L17.8141 55.7733ZM17.8355 55.1072L19.4015 51.4352L17.5618 50.6506L15.9958 54.3226L17.8355 55.1072ZM19.0753 50.2382C17.6063 49.1545 16.2965 47.8833 15.1812 46.4598L13.6069 47.6933C14.8345 49.2602 16.2748 50.6576 17.888 51.8476L19.0753 50.2382ZM14.0222 46.1483L10.2025 47.6785L10.9462 49.535L14.7659 48.0049L14.0222 46.1483ZM10.1987 47.68C9.96485 47.7748 9.69984 47.7743 9.46641 47.6788L8.70894 49.5298C9.42573 49.8231 10.2322 49.8244 10.95 49.5335L10.1987 47.68ZM9.45928 47.6759C9.22385 47.5817 9.04593 47.4048 8.95486 47.1937L7.11845 47.986C7.42395 48.6941 8.00182 49.2468 8.71607 49.5327L9.45928 47.6759ZM8.957 47.1987L6.23382 40.7909L4.39314 41.5731L7.11632 47.981L8.957 47.1987ZM6.23078 40.7838C6.04854 40.364 6.23701 39.8529 6.71757 39.6527L5.94836 37.8065C4.47538 38.4202 3.75334 40.0994 4.39618 41.5802L6.23078 40.7838ZM53.6937 38.5572L56.3948 39.6479L57.1437 37.7935L54.4426 36.7027L53.6937 38.5572ZM56.401 39.6504C56.6367 39.7438 56.8136 39.9216 56.9016 40.1331L58.7483 39.3651C58.4478 38.6426 57.8631 38.0784 57.1376 37.791L56.401 39.6504ZM56.9033 40.1373C56.9927 40.3495 56.9921 40.5855 56.9017 40.7974L58.741 41.5828C59.0443 40.8724 59.0463 40.0728 58.7465 39.3609L56.9033 40.1373ZM56.9018 40.797L54.1675 47.1929L56.0065 47.9791L58.7408 41.5832L56.9018 40.797ZM54.1656 47.1973C54.0753 47.4115 53.8954 47.5911 53.6566 47.6856L54.3922 49.5454C55.1181 49.2583 55.7042 48.6958 56.0084 47.9746L54.1656 47.1973ZM53.6566 47.6856C53.4169 47.7804 53.1464 47.7776 52.9092 47.6782L52.1359 49.5227C52.8551 49.8242 53.6671 49.8322 54.3922 49.5454L53.6566 47.6856ZM52.8951 47.6724L49.1009 46.1492L48.3558 48.0052L52.15 49.5284L52.8951 47.6724ZM47.9409 46.4609C46.8281 47.8827 45.5193 49.151 44.0503 50.23L45.2343 51.8419C46.8491 50.6558 48.2898 49.2602 49.5159 47.6935L47.9409 46.4609ZM43.7222 51.4275L45.2977 55.1295L47.138 54.3463L45.5625 50.6444L43.7222 51.4275ZM45.305 55.1462C45.3941 55.3454 45.3961 55.5689 45.3109 55.7693L47.1514 56.5518C47.4544 55.8393 47.4468 55.0363 47.1307 54.3296L45.305 55.1462ZM45.3089 55.774C45.2172 55.9927 45.0343 56.176 44.7913 56.2728L45.5311 58.1309C46.2608 57.8404 46.8491 57.2732 47.1534 56.547L45.3089 55.774ZM44.7881 56.2741L38.2023 58.9227L38.9486 60.7782L45.5344 58.1297L44.7881 56.2741ZM38.199 58.924C37.9626 59.0201 37.6947 59.0204 37.458 58.9249L36.7098 60.7797C37.4281 61.0694 38.2343 61.0685 38.9519 60.7769L38.199 58.924ZM37.458 58.9249C37.2221 58.8298 37.0449 58.6512 36.956 58.4388L35.1112 59.2114C35.4115 59.9285 35.9908 60.4897 36.7098 60.7797L37.458 58.9249ZM36.9529 58.4316L35.3707 54.7352L33.5321 55.5222L35.1143 59.2186L36.9529 58.4316ZM34.3173 54.1377C32.4893 54.385 30.6349 54.3876 28.8063 54.1453L28.5436 56.1279C30.5484 56.3936 32.5814 56.3908 34.5855 56.1196L34.3173 54.1377ZM27.7551 54.7442L26.1796 58.4372L28.0192 59.222L29.5947 55.529L27.7551 54.7442ZM26.1783 58.4404C26.0413 58.7647 25.7026 58.9993 25.302 59.0002L25.3066 61.0002C26.4808 60.9976 27.5604 60.3079 28.0206 59.2188L26.1783 58.4404ZM48.4139 36.3143C50.1995 37.0632 52.6078 38.1308 53.7027 38.5607L54.4337 36.6991C53.3573 36.2764 51.0583 35.2546 49.1873 34.4699L48.4139 36.3143ZM44.2438 40.6258C44.4095 40.3044 44.701 39.6148 45.0063 38.9358C45.3307 38.2144 45.7059 37.421 46.089 36.7597L44.3584 35.7571C43.9217 36.5109 43.5123 37.3814 43.1822 38.1155C42.833 38.8921 42.6001 39.4495 42.4661 39.7095L44.2438 40.6258ZM46.0626 36.8028C46.3367 36.3803 46.6081 36.1723 46.8897 36.0877C47.1763 36.0015 47.6451 35.9919 48.4139 36.3143L49.1873 34.4699C48.1505 34.0351 47.1867 33.9101 46.3143 34.1722C45.4368 34.4358 44.8226 35.0395 44.3848 35.7141L46.0626 36.8028ZM6.70418 39.6581C7.30336 39.4186 8.3879 38.8605 9.56459 38.3066C10.7926 37.7285 12.2377 37.0951 13.7271 36.6135L13.1118 34.7105C11.5044 35.2302 9.97125 35.9047 8.71276 36.4971C7.40292 37.1137 6.49261 37.5888 5.96175 37.801L6.70418 39.6581ZM17.8111 38.4916C19.4403 43.2085 24.6153 46.5408 29.9465 47.3467C35.3359 48.1613 41.244 46.4453 44.2438 40.6258L42.4661 39.7095C39.9674 44.5568 35.0459 46.0948 30.2455 45.3691C25.3869 44.6347 21.0119 41.6323 19.7015 37.8386L17.8111 38.4916ZM13.7271 36.6135C15.0851 36.1745 15.9361 36.3311 16.487 36.6516C17.065 36.9878 17.5093 37.6179 17.8111 38.4916L19.7015 37.8386C19.3116 36.7099 18.6358 35.5878 17.4926 34.9228C16.3222 34.242 14.8506 34.1483 13.1118 34.7105L13.7271 36.6135Z" fill="#444444" mask="url(#path-1-outside-1_832_21116)"/>
<mask id="path-3-outside-2_832_21116" maskUnits="userSpaceOnUse" x="3.12915" y="5" width="59" height="35" fill="black">
<rect fill="white" x="3.12915" y="5" width="59" height="35"/>
<path d="M51.9099 38.0396H16.4291C9.63605 38.0396 4.12915 32.7116 4.12915 26.1392C4.12915 19.5668 9.63605 14.2388 16.4291 14.2388C16.5096 14.2388 16.5894 14.2392 16.6684 14.241C18.9247 9.2358 24.0321 6 29.676 6C35.3198 6 40.4272 9.2358 42.6835 14.241C46.9667 14.3344 50.7959 16.8474 52.4694 20.6633C57.3172 20.9532 61.0501 24.9169 60.8989 29.6139C60.7477 34.311 56.767 38.0422 51.9099 38.0396Z"/>
</mask>
<path d="M51.9099 38.0396H16.4291C9.63605 38.0396 4.12915 32.7116 4.12915 26.1392C4.12915 19.5668 9.63605 14.2388 16.4291 14.2388C16.5096 14.2388 16.5894 14.2392 16.6684 14.241C18.9247 9.2358 24.0321 6 29.676 6C35.3198 6 40.4272 9.2358 42.6835 14.241C46.9667 14.3344 50.7959 16.8474 52.4694 20.6633C57.3172 20.9532 61.0501 24.9169 60.8989 29.6139C60.7477 34.311 56.767 38.0422 51.9099 38.0396Z" fill="url(#paint0_linear_832_21116)"/>
<path d="M51.9099 38.0396L51.9104 37.0396H51.9099V38.0396ZM16.6684 14.241L16.6464 15.2407L17.3081 15.2553L17.5801 14.6519L16.6684 14.241ZM42.6835 14.241L41.7718 14.6519L42.0311 15.227L42.6617 15.2407L42.6835 14.241ZM52.4694 20.6633L51.5536 21.0649L51.7992 21.625L52.4097 21.6615L52.4694 20.6633ZM51.9099 37.0396H16.4291V39.0396H51.9099V37.0396ZM16.4291 37.0396C10.1569 37.0396 5.12915 32.1285 5.12915 26.1392H3.12915C3.12915 33.2948 9.11515 39.0396 16.4291 39.0396V37.0396ZM5.12915 26.1392C5.12915 20.1499 10.1569 15.2388 16.4291 15.2388V13.2388C9.11515 13.2388 3.12915 18.9836 3.12915 26.1392H5.12915ZM16.4291 15.2388C16.5062 15.2388 16.5779 15.2392 16.6464 15.2407L16.6904 13.2412C16.601 13.2392 16.5129 13.2388 16.4291 13.2388V15.2388ZM17.5801 14.6519C19.669 10.0181 24.4111 7 29.676 7V5C23.6531 5 18.1805 8.4535 15.7568 13.83L17.5801 14.6519ZM29.676 7C34.9408 7 39.6829 10.0181 41.7718 14.6519L43.5951 13.83C41.1715 8.4535 35.6988 5 29.676 5V7ZM42.6617 15.2407C46.57 15.326 50.042 17.6182 51.5536 21.0649L53.3852 20.2616C51.5498 16.0767 47.3634 13.3428 42.7053 13.2412L42.6617 15.2407ZM52.4097 21.6615C56.7469 21.9209 60.0323 25.4554 59.8994 29.5818L61.8984 29.6461C62.068 24.3783 57.8876 19.9855 52.5291 19.6651L52.4097 21.6615ZM59.8994 29.5818C59.7665 33.7097 56.2575 37.0419 51.9104 37.0396L51.9094 39.0396C57.2766 39.0425 61.7288 34.9123 61.8984 29.6461L59.8994 29.5818Z" fill="#444444" mask="url(#path-3-outside-2_832_21116)"/>
<path fill-rule="evenodd" clip-rule="evenodd" d="M16.2831 31.5841C16.477 31.8448 16.7884 31.9995 17.1202 32C17.5646 32 17.9591 31.7244 18.0995 31.3159L19.5846 27H22.9139L24.399 31.3159C24.5394 31.7244 24.9339 32 25.3783 32C25.7101 31.9995 26.0215 31.8448 26.2154 31.584C26.4094 31.3233 26.4623 30.9882 26.3576 30.6832L22.2314 18.6921C22.2273 18.6799 22.223 18.6677 22.2184 18.6557C22.1637 18.5111 22.0777 18.3857 21.9705 18.2845C21.8764 18.1954 21.7633 18.1226 21.6347 18.0726C21.5135 18.0253 21.3828 18 21.2493 18C20.9789 18 20.72 18.1036 20.5288 18.2838C20.4212 18.3852 20.335 18.5107 20.2801 18.6557C20.2755 18.6678 20.2712 18.6799 20.2671 18.6922L16.1409 30.6832C16.0362 30.9882 16.0892 31.3233 16.2831 31.5841ZM21.2493 22.1625L22.2256 25H20.2729L21.2493 22.1625ZM27.4429 30.9997C27.4429 31.5519 27.905 31.9996 28.4751 31.9996C29.0453 31.9996 29.5074 31.5519 29.5074 30.9997V26H32.6042C34.8846 26 36.7333 24.2092 36.7333 22.0002C36.7333 19.7912 34.8846 18.0005 32.6042 18.0005H28.4751C27.905 18.0005 27.4429 18.4482 27.4429 19.0004V25.0001V30.9997ZM32.6042 24.0001H29.5074V20.0004H32.6042C33.7444 20.0004 34.6687 20.8957 34.6687 22.0002C34.6687 23.1047 33.7444 24.0001 32.6042 24.0001ZM39.83 29.9998V20.0004H37.7655C37.1953 20.0004 36.7332 19.5527 36.7332 19.0004C36.7332 18.4482 37.1953 18.0005 37.7655 18.0005H40.8623H43.959C44.5291 18.0005 44.9913 18.4482 44.9913 19.0004C44.9913 19.5527 44.5291 20.0004 43.959 20.0004H41.8946V29.9998H43.9592C44.5293 29.9998 44.9914 30.4475 44.9914 30.9997C44.9914 31.552 44.5293 31.9997 43.9592 31.9997H37.7656C37.1955 31.9997 36.7333 31.552 36.7333 30.9997C36.7333 30.4475 37.1955 29.9998 37.7656 29.9998H39.83Z" fill="#444444"/>
<defs>
<linearGradient id="paint0_linear_832_21116" x1="32.5162" y1="6" x2="32.5162" y2="38.0396" gradientUnits="userSpaceOnUse">
<stop stop-color="#FF8E3D"/>
<stop offset="1" stop-color="#FF6F3D"/>
</linearGradient>
</defs>
</svg>
