<svg width="64" height="64" viewBox="0 0 64 64" fill="none" xmlns="http://www.w3.org/2000/svg">
<path d="M5.93103 58.5H58.069C59.4236 58.5 60.5 57.3595 60.5 56C60.5 54.6405 59.4236 53.5 58.069 53.5H5.93103C4.57643 53.5 3.5 54.6405 3.5 56C3.5 57.3595 4.57643 58.5 5.93103 58.5Z" fill="#EFEFEF" stroke="#333333" stroke-miterlimit="10" stroke-linecap="round" stroke-linejoin="round"/>
<path d="M8.5 22.5C8.5 21.3954 9.39543 20.5 10.5 20.5H55.5C56.6046 20.5 57.5 21.3954 57.5 22.5V53.5H8.5V22.5Z" fill="#D9F4FF" stroke="#333333"/>
<mask id="path-3-inside-1_832_21424" fill="white">
<path fill-rule="evenodd" clip-rule="evenodd" d="M59.6803 31.7138L62 32.2454V37.7546L59.6803 38.2862L58.9071 40.2193L60.1636 42.2007L56.2491 46.1152L54.2193 44.8587L52.2862 45.6803L51.7546 48H46.2454L45.7138 45.6803L43.7807 44.9071L41.7993 46.1636L37.8848 42.2491L39.1413 40.2193L38.3197 38.2862L36 37.7546V32.2454L38.3197 31.7138L39.0929 29.7807L37.8364 27.7993L41.7509 23.8848L43.7807 25.1413L45.7138 24.3197L46.2454 22H51.7546L52.2862 24.3197L54.2193 25.0929L56.2007 23.8364L60.1152 27.7509L58.8587 29.7807L59.6803 31.7138ZM49 38C50.6569 38 52 36.6569 52 35C52 33.3431 50.6569 32 49 32C47.3431 32 46 33.3431 46 35C46 36.6569 47.3431 38 49 38Z"/>
</mask>
<path fill-rule="evenodd" clip-rule="evenodd" d="M59.6803 31.7138L62 32.2454V37.7546L59.6803 38.2862L58.9071 40.2193L60.1636 42.2007L56.2491 46.1152L54.2193 44.8587L52.2862 45.6803L51.7546 48H46.2454L45.7138 45.6803L43.7807 44.9071L41.7993 46.1636L37.8848 42.2491L39.1413 40.2193L38.3197 38.2862L36 37.7546V32.2454L38.3197 31.7138L39.0929 29.7807L37.8364 27.7993L41.7509 23.8848L43.7807 25.1413L45.7138 24.3197L46.2454 22H51.7546L52.2862 24.3197L54.2193 25.0929L56.2007 23.8364L60.1152 27.7509L58.8587 29.7807L59.6803 31.7138ZM49 38C50.6569 38 52 36.6569 52 35C52 33.3431 50.6569 32 49 32C47.3431 32 46 33.3431 46 35C46 36.6569 47.3431 38 49 38Z" fill="url(#paint0_linear_832_21424)"/>
<path d="M62 32.2454H63V31.4486L62.2234 31.2706L62 32.2454ZM59.6803 31.7138L58.76 32.1049L58.9596 32.5745L59.4569 32.6885L59.6803 31.7138ZM62 37.7546L62.2234 38.7294L63 38.5514V37.7546H62ZM59.6803 38.2862L59.4569 37.3115L58.9464 37.4285L58.7518 37.9149L59.6803 38.2862ZM58.9071 40.2193L57.9786 39.8479L57.7886 40.3229L58.0626 40.7549L58.9071 40.2193ZM60.1636 42.2007L60.8707 42.9079L61.437 42.3415L61.0081 41.6652L60.1636 42.2007ZM56.2491 46.1152L55.7227 46.9655L56.3961 47.3824L56.9562 46.8223L56.2491 46.1152ZM54.2193 44.8587L54.7457 44.0085L54.3051 43.7357L53.8282 43.9384L54.2193 44.8587ZM52.2862 45.6803L51.8951 44.76L51.4255 44.9595L51.3115 45.4569L52.2862 45.6803ZM51.7546 48V49H52.5514L52.7294 48.2234L51.7546 48ZM46.2454 48L45.2706 48.2234L45.4486 49H46.2454V48ZM45.7138 45.6803L46.6885 45.4569L46.5715 44.9464L46.0851 44.7518L45.7138 45.6803ZM43.7807 44.9071L44.1521 43.9786L43.6771 43.7886L43.2451 44.0626L43.7807 44.9071ZM41.7993 46.1636L41.0922 46.8707L41.6585 47.437L42.3348 47.0081L41.7993 46.1636ZM37.8848 42.2491L37.0345 41.7227L36.6176 42.3961L37.1777 42.9562L37.8848 42.2491ZM39.1413 40.2193L39.9915 40.7457L40.2643 40.3051L40.0616 39.8282L39.1413 40.2193ZM38.3197 38.2862L39.24 37.8951L39.0404 37.4255L38.5431 37.3115L38.3197 38.2862ZM36 37.7546H35V38.5514L35.7766 38.7294L36 37.7546ZM36 32.2454L35.7766 31.2706L35 31.4486V32.2454H36ZM38.3197 31.7138L38.5431 32.6885L39.0536 32.5715L39.2482 32.0851L38.3197 31.7138ZM39.0929 29.7807L40.0214 30.1521L40.2114 29.6771L39.9374 29.2451L39.0929 29.7807ZM37.8364 27.7993L37.1293 27.0922L36.563 27.6585L36.9919 28.3348L37.8364 27.7993ZM41.7509 23.8848L42.2773 23.0345L41.6039 22.6176L41.0438 23.1777L41.7509 23.8848ZM43.7807 25.1413L43.2543 25.9915L43.6949 26.2643L44.1718 26.0616L43.7807 25.1413ZM45.7138 24.3197L46.1049 25.24L46.5745 25.0404L46.6885 24.5431L45.7138 24.3197ZM46.2454 22V21H45.4486L45.2706 21.7766L46.2454 22ZM51.7546 22L52.7294 21.7766L52.5514 21H51.7546V22ZM52.2862 24.3197L51.3115 24.5431L51.4285 25.0536L51.9149 25.2482L52.2862 24.3197ZM54.2193 25.0929L53.8479 26.0214L54.3229 26.2114L54.7549 25.9374L54.2193 25.0929ZM56.2007 23.8364L56.9079 23.1293L56.3415 22.563L55.6652 22.9919L56.2007 23.8364ZM60.1152 27.7509L60.9655 28.2773L61.3824 27.6039L60.8223 27.0438L60.1152 27.7509ZM58.8587 29.7807L58.0085 29.2543L57.7357 29.6949L57.9384 30.1718L58.8587 29.7807ZM62.2234 31.2706L59.9037 30.739L59.4569 32.6885L61.7766 33.2201L62.2234 31.2706ZM63 37.7546V32.2454H61V37.7546H63ZM59.9037 39.261L62.2234 38.7294L61.7766 36.7799L59.4569 37.3115L59.9037 39.261ZM59.8355 40.5907L60.6088 38.6576L58.7518 37.9149L57.9786 39.8479L59.8355 40.5907ZM61.0081 41.6652L59.7516 39.6838L58.0626 40.7549L59.3191 42.7363L61.0081 41.6652ZM56.9562 46.8223L60.8707 42.9079L59.4565 41.4936L55.542 45.4081L56.9562 46.8223ZM53.693 45.709L55.7227 46.9655L56.7754 45.265L54.7457 44.0085L53.693 45.709ZM52.6774 46.6006L54.6105 45.7791L53.8282 43.9384L51.8951 44.76L52.6774 46.6006ZM52.7294 48.2234L53.261 45.9037L51.3115 45.4569L50.7799 47.7766L52.7294 48.2234ZM46.2454 49H51.7546V47H46.2454V49ZM44.739 45.9037L45.2706 48.2234L47.2201 47.7766L46.6885 45.4569L44.739 45.9037ZM43.4093 45.8355L45.3424 46.6088L46.0851 44.7518L44.1521 43.9786L43.4093 45.8355ZM42.3348 47.0081L44.3162 45.7516L43.2451 44.0626L41.2637 45.3191L42.3348 47.0081ZM37.1777 42.9562L41.0922 46.8707L42.5064 45.4565L38.5919 41.542L37.1777 42.9562ZM38.291 39.693L37.0345 41.7227L38.735 42.7754L39.9915 40.7457L38.291 39.693ZM37.3994 38.6774L38.2209 40.6105L40.0616 39.8282L39.24 37.8951L37.3994 38.6774ZM35.7766 38.7294L38.0963 39.261L38.5431 37.3115L36.2234 36.7799L35.7766 38.7294ZM35 32.2454V37.7546H37V32.2454H35ZM38.0963 30.739L35.7766 31.2706L36.2234 33.2201L38.5431 32.6885L38.0963 30.739ZM38.1645 29.4093L37.3912 31.3424L39.2482 32.0851L40.0214 30.1521L38.1645 29.4093ZM36.9919 28.3348L38.2484 30.3162L39.9374 29.2451L38.6809 27.2637L36.9919 28.3348ZM41.0438 23.1777L37.1293 27.0922L38.5435 28.5064L42.458 24.5919L41.0438 23.1777ZM44.307 24.291L42.2773 23.0345L41.2246 24.735L43.2543 25.9915L44.307 24.291ZM45.3226 23.3994L43.3895 24.2209L44.1718 26.0616L46.1049 25.24L45.3226 23.3994ZM45.2706 21.7766L44.739 24.0963L46.6885 24.5431L47.2201 22.2234L45.2706 21.7766ZM51.7546 21H46.2454V23H51.7546V21ZM53.261 24.0963L52.7294 21.7766L50.7799 22.2234L51.3115 24.5431L53.261 24.0963ZM54.5907 24.1645L52.6576 23.3912L51.9149 25.2482L53.8479 26.0214L54.5907 24.1645ZM55.6652 22.9919L53.6838 24.2484L54.7549 25.9374L56.7363 24.6809L55.6652 22.9919ZM60.8223 27.0438L56.9079 23.1293L55.4936 24.5435L59.4081 28.458L60.8223 27.0438ZM59.709 30.307L60.9655 28.2773L59.265 27.2246L58.0085 29.2543L59.709 30.307ZM60.6006 31.3226L59.7791 29.3895L57.9384 30.1718L58.76 32.1049L60.6006 31.3226ZM51 35C51 36.1046 50.1046 37 49 37V39C51.2091 39 53 37.2091 53 35H51ZM49 33C50.1046 33 51 33.8954 51 35H53C53 32.7909 51.2091 31 49 31V33ZM47 35C47 33.8954 47.8954 33 49 33V31C46.7909 31 45 32.7909 45 35H47ZM49 37C47.8954 37 47 36.1046 47 35H45C45 37.2091 46.7909 39 49 39V37Z" fill="#333333" mask="url(#path-3-inside-1_832_21424)"/>
<path d="M6.5 18.162V44.082C6.5 44.4623 6.66103 44.8126 6.93541 45.0748C7.21012 45.3372 7.58741 45.5 8.00723 45.5H29.9928C30.4126 45.5 30.7899 45.3372 31.0646 45.0747C31.339 44.8126 31.5 44.4623 31.5 44.082V16.1576C30.6668 15.3618 29.8376 14.5723 29.0093 13.7837C27.863 12.6924 26.7184 11.6027 25.5673 10.5H8.00723C7.58741 10.5 7.21011 10.6628 6.93541 10.9252C6.66103 11.1874 6.5 11.5377 6.5 11.918V18.162Z" fill="#EFEFEF" stroke="#333333"/>
<path fill-rule="evenodd" clip-rule="evenodd" d="M26 21C26 20.4477 25.6082 20 25.125 20H12.875C12.3918 20 12 20.4477 12 21C12 21.5523 12.3918 22 12.875 22H25.125C25.6082 22 26 21.5523 26 21Z" fill="#333333"/>
<path fill-rule="evenodd" clip-rule="evenodd" d="M22 17C22 16.4477 21.5915 16 21.0876 16H12.9124C12.4085 16 12 16.4477 12 17C12 17.5523 12.4085 18 12.9124 18H21.0876C21.5915 18 22 17.5523 22 17Z" fill="url(#paint1_linear_832_21424)"/>
<path fill-rule="evenodd" clip-rule="evenodd" d="M18 39C18 38.4477 17.6642 38 17.25 38H12.75C12.3358 38 12 38.4477 12 39C12 39.5523 12.3358 40 12.75 40H17.25C17.6642 40 18 39.5523 18 39Z" fill="url(#paint2_linear_832_21424)"/>
<path fill-rule="evenodd" clip-rule="evenodd" d="M26 39C26 38.4477 25.5523 38 25 38H21C20.4477 38 20 38.4477 20 39C20 39.5523 20.4477 40 21 40H25C25.5523 40 26 39.5523 26 39Z" fill="url(#paint3_linear_832_21424)"/>
<path fill-rule="evenodd" clip-rule="evenodd" d="M26 25C26 24.4477 25.6082 24 25.125 24H12.875C12.3918 24 12 24.4477 12 25C12 25.5523 12.3918 26 12.875 26H25.125C25.6082 26 26 25.5523 26 25Z" fill="#333333"/>
<path fill-rule="evenodd" clip-rule="evenodd" d="M26 29C26 28.4477 25.6082 28 25.125 28H12.875C12.3918 28 12 28.4477 12 29C12 29.5523 12.3918 30 12.875 30H25.125C25.6082 30 26 29.5523 26 29Z" fill="#333333"/>
<path fill-rule="evenodd" clip-rule="evenodd" d="M26 33C26 32.4477 25.6082 32 25.125 32H12.875C12.3918 32 12 32.4477 12 33C12 33.5523 12.3918 34 12.875 34H25.125C25.6082 34 26 33.5523 26 33Z" fill="#333333"/>
<path d="M24.5 15.6928C24.5 16.6282 25.2202 17.4034 26.1353 17.4916H26.3096H31.5V16.2071L25.7929 10.5H24.5V15.6928Z" fill="url(#paint4_linear_832_21424)" stroke="#333333"/>
<defs>
<linearGradient id="paint0_linear_832_21424" x1="36.0001" y1="20.9844" x2="62" y2="48" gradientUnits="userSpaceOnUse">
<stop stop-color="#FF8E3D"/>
<stop offset="1" stop-color="#FF6F3D"/>
</linearGradient>
<linearGradient id="paint1_linear_832_21424" x1="17" y1="16" x2="17" y2="18" gradientUnits="userSpaceOnUse">
<stop stop-color="#FF8E3D"/>
<stop offset="1" stop-color="#FF6F3D"/>
</linearGradient>
<linearGradient id="paint2_linear_832_21424" x1="15" y1="38" x2="15" y2="40" gradientUnits="userSpaceOnUse">
<stop stop-color="#FF8E3D"/>
<stop offset="1" stop-color="#FF6F3D"/>
</linearGradient>
<linearGradient id="paint3_linear_832_21424" x1="23" y1="38" x2="23" y2="40" gradientUnits="userSpaceOnUse">
<stop stop-color="#FF8E3D"/>
<stop offset="1" stop-color="#FF6F3D"/>
</linearGradient>
<linearGradient id="paint4_linear_832_21424" x1="28" y1="10" x2="28" y2="18" gradientUnits="userSpaceOnUse">
<stop stop-color="#FF8E3D"/>
<stop offset="1" stop-color="#FF6F3D"/>
</linearGradient>
</defs>
</svg>
