<svg width="65" height="64" viewBox="0 0 65 64" fill="none" xmlns="http://www.w3.org/2000/svg">
<mask id="path-1-inside-1_832_21426" fill="white">
<path fill-rule="evenodd" clip-rule="evenodd" d="M54 18.9145V29.0855L49.7175 30.0669L48.29 33.6357L50.6097 37.2937L43.3829 44.5204L39.6357 42.2007L36.0669 43.7175L35.0855 48H24.9145L23.9331 43.7175L20.3643 42.29L16.7063 44.6097L9.47955 37.3829L11.7993 33.6357L10.2825 30.0669L6 29.0855V18.9145L10.2825 17.9331L11.71 14.3643L9.39033 10.7063L16.6171 3.47955L20.3643 5.79926L23.9331 4.28253L24.9145 0H35.0855L36.0669 4.28253L39.6357 5.71004L43.2937 3.39033L50.5204 10.6171L48.2007 14.3643L49.7175 17.9331L54 18.9145ZM30 32C34.4183 32 38 28.4183 38 24C38 19.5817 34.4183 16 30 16C25.5817 16 22 19.5817 22 24C22 28.4183 25.5817 32 30 32Z"/>
</mask>
<path fill-rule="evenodd" clip-rule="evenodd" d="M54 18.9145V29.0855L49.7175 30.0669L48.29 33.6357L50.6097 37.2937L43.3829 44.5204L39.6357 42.2007L36.0669 43.7175L35.0855 48H24.9145L23.9331 43.7175L20.3643 42.29L16.7063 44.6097L9.47955 37.3829L11.7993 33.6357L10.2825 30.0669L6 29.0855V18.9145L10.2825 17.9331L11.71 14.3643L9.39033 10.7063L16.6171 3.47955L20.3643 5.79926L23.9331 4.28253L24.9145 0H35.0855L36.0669 4.28253L39.6357 5.71004L43.2937 3.39033L50.5204 10.6171L48.2007 14.3643L49.7175 17.9331L54 18.9145ZM30 32C34.4183 32 38 28.4183 38 24C38 19.5817 34.4183 16 30 16C25.5817 16 22 19.5817 22 24C22 28.4183 25.5817 32 30 32Z" fill="#D9F4FF"/>
<path d="M54 29.0855L54.2234 30.0602L55 29.8823V29.0855H54ZM54 18.9145H55V18.1177L54.2234 17.9398L54 18.9145ZM49.7175 30.0669L49.4941 29.0922L48.9835 29.2092L48.789 29.6955L49.7175 30.0669ZM48.29 33.6357L47.3615 33.2643L47.1715 33.7392L47.4454 34.1712L48.29 33.6357ZM50.6097 37.2937L51.3168 38.0008L51.8831 37.4345L51.4542 36.7581L50.6097 37.2937ZM43.3829 44.5204L42.8565 45.3707L43.53 45.7876L44.09 45.2276L43.3829 44.5204ZM39.6357 42.2007L40.162 41.3505L39.7215 41.0777L39.2445 41.2804L39.6357 42.2007ZM36.0669 43.7175L35.6758 42.7971L35.2062 42.9967L35.0922 43.4941L36.0669 43.7175ZM35.0855 48V49H35.8823L36.0602 48.2234L35.0855 48ZM24.9145 48L23.9398 48.2234L24.1177 49H24.9145V48ZM23.9331 43.7175L24.9078 43.4941L24.7908 42.9835L24.3045 42.789L23.9331 43.7175ZM20.3643 42.29L20.7357 41.3615L20.2608 41.1715L19.8288 41.4455L20.3643 42.29ZM16.7063 44.6097L15.9992 45.3168L16.5655 45.8831L17.2419 45.4542L16.7063 44.6097ZM9.47955 37.3829L8.62929 36.8565L8.21241 37.53L8.77245 38.09L9.47955 37.3829ZM11.7993 33.6357L12.6495 34.162L12.9223 33.7215L12.7196 33.2446L11.7993 33.6357ZM10.2825 30.0669L11.2029 29.6758L11.0033 29.2062L10.5059 29.0922L10.2825 30.0669ZM6 29.0855H5V29.8823L5.77662 30.0602L6 29.0855ZM6 18.9145L5.77662 17.9398L5 18.1177V18.9145H6ZM10.2825 17.9331L10.5059 18.9078L11.0165 18.7908L11.211 18.3045L10.2825 17.9331ZM11.71 14.3643L12.6385 14.7357L12.8285 14.2608L12.5545 13.8288L11.71 14.3643ZM9.39033 10.7063L8.68323 9.99921L8.11692 10.5655L8.54583 11.2419L9.39033 10.7063ZM16.6171 3.47955L17.1435 2.62929L16.47 2.21241L15.91 2.77245L16.6171 3.47955ZM20.3643 5.79926L19.838 6.64952L20.2786 6.92227L20.7555 6.71959L20.3643 5.79926ZM23.9331 4.28253L24.3242 5.20286L24.7938 5.00327L24.9078 4.5059L23.9331 4.28253ZM24.9145 0V-1H24.1177L23.9398 -0.223376L24.9145 0ZM35.0855 0L36.0602 -0.223375L35.8823 -1H35.0855V0ZM36.0669 4.28253L35.0922 4.5059L35.2092 5.01647L35.6955 5.21101L36.0669 4.28253ZM39.6357 5.71004L39.2643 6.63851L39.7392 6.82849L40.1712 6.55455L39.6357 5.71004ZM43.2937 3.39033L44.0008 2.68323L43.4345 2.11692L42.7581 2.54583L43.2937 3.39033ZM50.5204 10.6171L51.3707 11.1435L51.7876 10.47L51.2276 9.91L50.5204 10.6171ZM48.2007 14.3643L47.3505 13.838L47.0777 14.2786L47.2804 14.7555L48.2007 14.3643ZM49.7175 17.9331L48.7971 18.3242L48.9967 18.7938L49.4941 18.9078L49.7175 17.9331ZM55 29.0855V18.9145H53V29.0855H55ZM49.9409 31.0416L54.2234 30.0602L53.7766 28.1108L49.4941 29.0922L49.9409 31.0416ZM49.2184 34.0071L50.646 30.4383L48.789 29.6955L47.3615 33.2643L49.2184 34.0071ZM51.4542 36.7581L49.1345 33.1002L47.4454 34.1712L49.7652 37.8292L51.4542 36.7581ZM44.09 45.2276L51.3168 38.0008L49.9026 36.5866L42.6758 43.8133L44.09 45.2276ZM39.1093 43.051L42.8565 45.3707L43.9093 43.6702L40.162 41.3505L39.1093 43.051ZM36.4581 44.6378L40.0268 43.1211L39.2445 41.2804L35.6758 42.7971L36.4581 44.6378ZM36.0602 48.2234L37.0416 43.9408L35.0922 43.4941L34.1108 47.7766L36.0602 48.2234ZM24.9145 49H35.0855V47H24.9145V49ZM22.9584 43.9408L23.9398 48.2234L25.8892 47.7766L24.9078 43.4941L22.9584 43.9408ZM19.9929 43.2184L23.5617 44.646L24.3045 42.789L20.7357 41.3615L19.9929 43.2184ZM17.2419 45.4542L20.8999 43.1345L19.8288 41.4455L16.1708 43.7652L17.2419 45.4542ZM8.77245 38.09L15.9992 45.3168L17.4134 43.9026L10.1867 36.6758L8.77245 38.09ZM10.949 33.1093L8.62929 36.8565L10.3298 37.9093L12.6495 34.162L10.949 33.1093ZM9.3622 30.4581L10.8789 34.0268L12.7196 33.2446L11.2029 29.6758L9.3622 30.4581ZM5.77662 30.0602L10.0592 31.0416L10.5059 29.0922L6.22338 28.1108L5.77662 30.0602ZM5 18.9145V29.0855H7V18.9145H5ZM10.0592 16.9584L5.77662 17.9398L6.22338 19.8892L10.5059 18.9078L10.0592 16.9584ZM10.7816 13.9929L9.35405 17.5617L11.211 18.3045L12.6385 14.7357L10.7816 13.9929ZM8.54583 11.2419L10.8655 14.8999L12.5545 13.8288L10.2348 10.1708L8.54583 11.2419ZM15.91 2.77245L8.68323 9.99921L10.0974 11.4134L17.3242 4.18666L15.91 2.77245ZM20.8907 4.94899L17.1435 2.62929L16.0907 4.32982L19.838 6.64952L20.8907 4.94899ZM23.5419 3.3622L19.9732 4.87893L20.7555 6.71959L24.3242 5.20286L23.5419 3.3622ZM23.9398 -0.223376L22.9584 4.05915L24.9078 4.5059L25.8892 0.223376L23.9398 -0.223376ZM35.0855 -1H24.9145V1H35.0855V-1ZM37.0416 4.05915L36.0602 -0.223375L34.1108 0.223375L35.0922 4.5059L37.0416 4.05915ZM40.0071 4.78156L36.4383 3.35405L35.6955 5.21101L39.2643 6.63851L40.0071 4.78156ZM42.7581 2.54583L39.1001 4.86553L40.1712 6.55455L43.8292 4.23484L42.7581 2.54583ZM51.2276 9.91L44.0008 2.68323L42.5866 4.09744L49.8133 11.3242L51.2276 9.91ZM49.051 14.8907L51.3707 11.1435L49.6702 10.0907L47.3505 13.838L49.051 14.8907ZM50.6378 17.5419L49.1211 13.9732L47.2804 14.7555L48.7971 18.3242L50.6378 17.5419ZM54.2234 17.9398L49.9409 16.9584L49.4941 18.9078L53.7766 19.8892L54.2234 17.9398ZM37 24C37 27.866 33.866 31 30 31V33C34.9706 33 39 28.9706 39 24H37ZM30 17C33.866 17 37 20.134 37 24H39C39 19.0294 34.9706 15 30 15V17ZM23 24C23 20.134 26.134 17 30 17V15C25.0294 15 21 19.0294 21 24H23ZM30 31C26.134 31 23 27.866 23 24H21C21 28.9706 25.0294 33 30 33V31Z" fill="#333333" mask="url(#path-1-inside-1_832_21426)"/>
<path d="M44.2039 29.8632L43.8503 29.5097L43.4968 29.8632L24.0758 49.2842C22.5788 50.7812 22.5788 53.2084 24.0758 54.7054L26.4328 57.0624C27.9299 58.5594 30.357 58.5594 31.854 57.0624L51.275 37.6414L51.6285 37.2879L51.275 36.9343L44.2039 29.8632Z" fill="url(#paint0_linear_832_21426)" stroke="#333333"/>
<path d="M63.5705 23.8991L56.5582 30.9115L50.6892 29.3108L49.0886 23.4418L56.1009 16.4295C52.3661 15.3624 48.1739 16.277 45.2013 19.2496C40.9329 23.518 40.9329 30.5303 45.2013 34.7987C49.4697 39.0671 56.482 39.0671 60.7504 34.7987C63.723 31.8261 64.6376 27.6339 63.5705 23.8991Z" fill="#EFEFEF" stroke="#333333" stroke-miterlimit="10" stroke-linecap="round" stroke-linejoin="round"/>
<rect x="26" y="52.2422" width="6" height="4" rx="1" transform="rotate(-45 26 52.2422)" fill="#444444"/>
<defs>
<linearGradient id="paint0_linear_832_21426" x1="47.3859" y1="33.7523" x2="25.6079" y2="55.5303" gradientUnits="userSpaceOnUse">
<stop stop-color="#FF8E3D"/>
<stop offset="1" stop-color="#FF6F3D"/>
</linearGradient>
</defs>
</svg>
