<svg width="64" height="64" viewBox="0 0 64 64" fill="none" xmlns="http://www.w3.org/2000/svg">
<path d="M53.5 56C53.5 56.8284 52.8284 57.5 52 57.5H12C11.1716 57.5 10.5 56.8284 10.5 56V4C10.5 3.17157 11.1716 2.5 12 2.5H41.1987C41.5844 2.5 41.9554 2.64861 42.2344 2.91497L53.0357 13.2253C53.3322 13.5084 53.5 13.9004 53.5 14.3103V56Z" fill="#EFEFEF" stroke="#444444"/>
<path d="M40.5 11.9624C40.5 13.8008 41.919 15.3215 43.7191 15.4854H44.0418H53.5V12.7071L43.2929 2.5H40.5V11.9624Z" fill="url(#paint0_linear_839_28239)" stroke="#444444"/>
<rect x="18" y="10" width="16" height="2" rx="1" fill="#444444"/>
<rect x="18" y="22" width="28" height="2" rx="1" fill="#444444"/>
<rect x="18" y="28" width="28" height="2" rx="1" fill="#444444"/>
<rect x="18" y="16" width="16" height="2" rx="1" fill="#444444"/>
<path d="M26.5 38C26.5 36.067 28.067 34.5 30 34.5H58C59.933 34.5 61.5 36.067 61.5 38V61C61.5 61.2761 61.2761 61.5 61 61.5H27C26.7239 61.5 26.5 61.2761 26.5 61V38Z" fill="#CCCCCC" stroke="#444444"/>
<path d="M26.5 38C26.5 36.067 28.067 34.5 30 34.5H58C59.933 34.5 61.5 36.067 61.5 38V41.5H26.5V38Z" fill="url(#paint1_linear_839_28239)" stroke="#444444"/>
<path fill-rule="evenodd" clip-rule="evenodd" d="M51.2972 55.6592C50.8142 55.2048 50.8142 54.4664 51.2972 54.012L54.4989 51L51.2972 47.9877C50.8142 47.5334 50.8142 46.795 51.2972 46.3406C51.7801 45.8865 52.5649 45.8865 53.0479 46.3406L58 51L53.0479 55.6592C52.5649 56.1136 51.7801 56.1136 51.2972 55.6592ZM36.9521 55.6592L32 51L36.9521 46.3406C37.4351 45.8865 38.2199 45.8865 38.7028 46.3406C39.1858 46.795 39.1858 47.5334 38.7028 47.9878L35.5011 51L38.7028 54.012C39.1858 54.4664 39.1858 55.2048 38.7028 55.6592C38.2199 56.1136 37.4351 56.1136 36.9521 55.6592ZM41.9707 54.0962C41.665 54.6714 41.9139 55.3717 42.5253 55.6593C43.137 55.9469 43.8809 55.7142 44.1857 55.1375L48.031 47.9027C48.3367 47.3285 48.089 46.6286 47.4777 46.3407C46.866 46.0531 46.122 46.2861 45.816 46.8613L41.9707 54.0962Z" fill="#444444"/>
<defs>
<linearGradient id="paint0_linear_839_28239" x1="47" y1="2" x2="47" y2="16" gradientUnits="userSpaceOnUse">
<stop stop-color="#FF8E3D"/>
<stop offset="1" stop-color="#FF6F3D"/>
</linearGradient>
<linearGradient id="paint1_linear_839_28239" x1="44" y1="34" x2="44" y2="42" gradientUnits="userSpaceOnUse">
<stop stop-color="#FF8E3D"/>
<stop offset="1" stop-color="#FF6F3D"/>
</linearGradient>
</defs>
</svg>
