<svg width="64" height="64" viewBox="0 0 64 64" fill="none" xmlns="http://www.w3.org/2000/svg">
<path fill-rule="evenodd" clip-rule="evenodd" d="M30 56V42H32V56H30Z" fill="url(#paint0_linear_847_29366)"/>
<path fill-rule="evenodd" clip-rule="evenodd" d="M28 59C28 59.5523 27.6162 60 27.1429 60L4.85715 60C4.38376 60 4 59.5523 4 59C4 58.4477 4.38376 58 4.85715 58L27.1429 58C27.6162 58 28 58.4477 28 59Z" fill="url(#paint1_linear_847_29366)"/>
<path fill-rule="evenodd" clip-rule="evenodd" d="M58 59C58 59.5523 57.6116 60 57.1325 60L34.8675 60C34.3884 60 34 59.5523 34 59C34 58.4477 34.3884 58 34.8675 58L57.1325 58C57.6116 58 58 58.4477 58 59Z" fill="url(#paint2_linear_847_29366)"/>
<path d="M4.5 4.58096C4.5 2.30518 6.25632 0.5 8.375 0.5H55.625C57.7437 0.5 59.5 2.30519 59.5 4.58097V15.419C59.5 17.6948 57.7437 19.5 55.625 19.5H8.375C6.25632 19.5 4.5 17.6948 4.5 15.419V4.58096Z" fill="#E2E2E2" stroke="#333333"/>
<path d="M4.5 26.581C4.5 24.3052 6.25632 22.5 8.375 22.5H55.625C57.7437 22.5 59.5 24.3052 59.5 26.581V37.419C59.5 39.6948 57.7437 41.5 55.625 41.5H8.375C6.25632 41.5 4.5 39.6948 4.5 37.419V26.581Z" fill="#E2E2E2" stroke="#333333"/>
<path d="M18 10C18 12.2091 16.2091 14 14 14C11.7909 14 10 12.2091 10 10C10 7.79086 11.7909 6 14 6C16.2091 6 18 7.79086 18 10Z" fill="#333333"/>
<path d="M18 32C18 34.2091 16.2091 36 14 36C11.7909 36 10 34.2091 10 32C10 29.7909 11.7909 28 14 28C16.2091 28 18 29.7909 18 32Z" fill="#333333"/>
<path fill-rule="evenodd" clip-rule="evenodd" d="M31 62C32.6569 62 34 60.6569 34 59C34 57.3431 32.6569 56 31 56C29.3431 56 28 57.3431 28 59C28 60.6569 29.3431 62 31 62ZM31 64C33.7614 64 36 61.7614 36 59C36 56.2386 33.7614 54 31 54C28.2386 54 26 56.2386 26 59C26 61.7614 28.2386 64 31 64Z" fill="url(#paint3_linear_847_29366)"/>
<rect x="32" y="6" width="6" height="2" rx="1" fill="#333333"/>
<rect x="30" y="12" width="6" height="2" rx="1" fill="#333333"/>
<rect x="40" y="6" width="6" height="2" rx="1" fill="#333333"/>
<rect x="38" y="12" width="6" height="2" rx="1" fill="#333333"/>
<rect x="48" y="6" width="6" height="2" rx="1" fill="#333333"/>
<rect x="46" y="12" width="6" height="2" rx="1" fill="#333333"/>
<rect x="32" y="28" width="6" height="2" rx="1" fill="#333333"/>
<rect x="30" y="34" width="6" height="2" rx="1" fill="#333333"/>
<rect x="40" y="28" width="6" height="2" rx="1" fill="#333333"/>
<rect x="38" y="34" width="6" height="2" rx="1" fill="#333333"/>
<rect x="48" y="28" width="6" height="2" rx="1" fill="#333333"/>
<rect x="46" y="34" width="6" height="2" rx="1" fill="#333333"/>
<defs>
<linearGradient id="paint0_linear_847_29366" x1="31" y1="42" x2="31" y2="56" gradientUnits="userSpaceOnUse">
<stop stop-color="#FF8E3D"/>
<stop offset="1" stop-color="#FF6F3D"/>
</linearGradient>
<linearGradient id="paint1_linear_847_29366" x1="28" y1="59" x2="4" y2="59" gradientUnits="userSpaceOnUse">
<stop stop-color="#FF8E3D"/>
<stop offset="1" stop-color="#FF6F3D"/>
</linearGradient>
<linearGradient id="paint2_linear_847_29366" x1="58" y1="59" x2="34" y2="59" gradientUnits="userSpaceOnUse">
<stop stop-color="#FF8E3D"/>
<stop offset="1" stop-color="#FF6F3D"/>
</linearGradient>
<linearGradient id="paint3_linear_847_29366" x1="31" y1="54" x2="31" y2="64" gradientUnits="userSpaceOnUse">
<stop stop-color="#FF8E3D"/>
<stop offset="1" stop-color="#FF6F3D"/>
</linearGradient>
</defs>
</svg>
