<svg width="65" height="512" viewBox="0 0 65 512" fill="none" xmlns="http://www.w3.org/2000/svg">
<path d="M24.5135 60.0004C24.2567 60.0001 24.0027 59.9471 23.7672 59.8446L17.3972 57.2004C16.9276 57.0063 16.5555 56.6317 16.3641 56.1606C16.175 55.6957 16.1833 55.1737 16.3869 54.7151L17.904 51.0431C16.4111 49.9062 15.079 48.572 13.9441 47.0768L10.2438 48.6069C9.78289 48.7998 9.26386 48.7989 8.8036 48.6045C8.3436 48.4144 7.97751 48.0497 7.78543 47.59L5.14735 41.1822C4.7477 40.2319 5.18873 39.1367 6.13498 38.7298C7.2297 38.278 10 36.6635 13 35.6622C16 34.661 17.5 36.1628 18.1701 38.1653C21.0178 46.6758 36.6733 50.8346 42 40.1678C42.2903 39.5865 43.0162 37.6736 43.8104 36.2586C44.5 35.1616 45.5263 34.6351 47.2755 35.3923C49.0467 36.159 51.3268 37.2038 52.3784 37.6301L54.9951 38.7209C55.4608 38.9113 55.8297 39.2822 56.0178 39.7493C56.2063 40.2113 56.2051 40.7292 56.0143 41.1903L53.3655 47.5862C53.1744 48.0538 52.8034 48.4249 52.336 48.6157C51.8687 48.8065 51.3444 48.8011 50.8811 48.6006L47.2055 47.0774C46.0727 48.5716 44.7409 49.9036 43.2472 51.0361L44.7734 54.7381C44.9697 55.191 44.9744 55.7043 44.7864 56.1607C44.5946 56.6331 44.221 57.0084 43.7499 57.2021L37.3699 59.8506C36.9078 60.0444 36.3875 60.0451 35.925 59.8525C35.4624 59.6599 35.096 59.29 34.9075 58.8253L33.3747 55.1288C31.5185 55.3881 29.6356 55.3907 27.7787 55.1368L26.2525 58.8298C25.9632 59.5365 25.2763 59.9986 24.5135 60.0004Z" fill="#CCCCCC"/>
<path d="M24.5135 60.0004L24.513 60.5004L24.5146 60.5004L24.5135 60.0004ZM23.7672 59.8446L23.9668 59.3861L23.9589 59.3828L23.7672 59.8446ZM17.3972 57.2004L17.5889 56.7386L17.5882 56.7384L17.3972 57.2004ZM16.3641 56.1606L16.8274 55.9724L16.8273 55.9722L16.3641 56.1606ZM16.3869 54.7151L16.8441 54.918L16.849 54.906L16.3869 54.7151ZM17.904 51.0431L18.3661 51.234L18.513 50.8784L18.2069 50.6453L17.904 51.0431ZM13.9441 47.0768L14.3424 46.7745L14.1093 46.4674L13.7531 46.6147L13.9441 47.0768ZM10.2438 48.6069L10.0527 48.1449L10.0508 48.1457L10.2438 48.6069ZM8.8036 48.6045L8.99817 48.1439L8.99453 48.1424L8.8036 48.6045ZM7.78543 47.59L7.32307 47.7804L7.3241 47.7828L7.78543 47.59ZM5.14735 41.1822L5.60971 40.9918L5.60825 40.9884L5.14735 41.1822ZM6.13498 38.7298L5.94422 38.2675L5.93743 38.2704L6.13498 38.7298ZM42 40.1678L42.4473 40.3912L42 40.1678ZM52.3784 37.6301L52.5708 37.1686L52.5663 37.1667L52.3784 37.6301ZM54.9951 38.7209L54.8028 39.1824L54.8059 39.1837L54.9951 38.7209ZM56.0178 39.7493L55.554 39.9361L55.5548 39.9382L56.0178 39.7493ZM56.0143 41.1903L56.4763 41.3816L56.4764 41.3814L56.0143 41.1903ZM53.3655 47.5862L52.9035 47.3948L52.9026 47.397L53.3655 47.5862ZM52.336 48.6157L52.5251 49.0786L52.5251 49.0786L52.336 48.6157ZM50.8811 48.6006L51.0797 48.1417L51.0725 48.1387L50.8811 48.6006ZM47.2055 47.0774L47.397 46.6155L47.0403 46.4677L46.8071 46.7753L47.2055 47.0774ZM43.2472 51.0361L42.9451 50.6377L42.6381 50.8705L42.7849 51.2267L43.2472 51.0361ZM44.7734 54.7381L44.3111 54.9287L44.3146 54.9369L44.7734 54.7381ZM44.7864 56.1607L44.324 55.9703L44.3231 55.9726L44.7864 56.1607ZM43.7499 57.2021L43.5598 56.7396L43.5581 56.7403L43.7499 57.2021ZM37.3699 59.8506L37.1782 59.3889L37.1765 59.3896L37.3699 59.8506ZM35.925 59.8525L36.1172 59.3909L36.1172 59.3909L35.925 59.8525ZM34.9075 58.8253L35.3708 58.6373L35.3693 58.6338L34.9075 58.8253ZM33.3747 55.1288L33.8366 54.9373L33.6885 54.5802L33.3055 54.6336L33.3747 55.1288ZM27.7787 55.1368L27.8465 54.6414L27.4641 54.5891L27.3166 54.9458L27.7787 55.1368ZM26.2525 58.8298L25.7904 58.6388L25.7898 58.6404L26.2525 58.8298ZM47.2755 35.3923L47.0769 35.8512L47.2755 35.3923ZM43.8104 36.2586L43.3871 35.9925L43.3805 36.003L43.3744 36.0139L43.8104 36.2586ZM24.514 59.5004C24.3257 59.5002 24.1395 59.4613 23.9668 59.3862L23.5677 60.3031C23.866 60.4329 24.1877 60.5001 24.513 60.5004L24.514 59.5004ZM23.9589 59.3828L17.5889 56.7386L17.2055 57.6622L23.5756 60.3064L23.9589 59.3828ZM17.5882 56.7384C17.2426 56.5955 16.9684 56.3196 16.8274 55.9724L15.9009 56.3488C16.1426 56.9438 16.6127 57.4172 17.2061 57.6625L17.5882 56.7384ZM16.8273 55.9722C16.6894 55.6332 16.6954 55.2525 16.8439 54.918L15.93 54.5121C15.6711 55.095 15.6607 55.7582 15.901 56.349L16.8273 55.9722ZM16.849 54.906L18.3661 51.234L17.4419 50.8521L15.9248 54.5241L16.849 54.906ZM18.2069 50.6453C16.75 49.5358 15.45 48.2337 14.3424 46.7745L13.5459 47.379C14.708 48.9102 16.0722 50.2766 17.6011 51.4409L18.2069 50.6453ZM13.7531 46.6147L10.0527 48.1449L10.4349 49.069L14.1352 47.5388L13.7531 46.6147ZM10.0508 48.1457C9.71391 48.2866 9.33458 48.286 8.99816 48.1439L8.60904 49.0651C9.19314 49.3118 9.85186 49.3129 10.4368 49.0682L10.0508 48.1457ZM8.99453 48.1424C8.65685 48.0028 8.38792 47.735 8.24676 47.3972L7.3241 47.7828C7.56711 48.3643 8.03035 48.826 8.61267 49.0666L8.99453 48.1424ZM8.24778 47.3997L5.6097 40.9919L4.685 41.3725L7.32308 47.7804L8.24778 47.3997ZM5.60825 40.9884C5.31489 40.2908 5.63887 39.4874 6.33253 39.1891L5.93743 38.2704C4.73859 38.786 4.18052 40.173 4.68645 41.376L5.60825 40.9884ZM52.1861 38.0916L54.8028 39.1824L55.1875 38.2594L52.5708 37.1686L52.1861 38.0916ZM54.8059 39.1837C55.1464 39.3229 55.4163 39.5942 55.554 39.9361L56.4816 39.5625C56.243 38.9702 55.7752 38.4997 55.1844 38.2581L54.8059 39.1837ZM55.5548 39.9382C55.6936 40.2783 55.6927 40.6596 55.5523 40.9991L56.4764 41.3814C56.7174 40.7987 56.719 40.1443 56.4807 39.5604L55.5548 39.9382ZM55.5524 40.9989L52.9035 47.3948L53.8274 47.7775L56.4763 41.3816L55.5524 40.9989ZM52.9026 47.397C52.7623 47.7405 52.4899 48.0128 52.147 48.1528L52.5251 49.0786C53.1168 48.837 53.5864 48.3672 53.8283 47.7753L52.9026 47.397ZM52.147 48.1528C51.8042 48.2928 51.4196 48.2888 51.0797 48.1417L50.6825 49.0595C51.2692 49.3134 51.9333 49.3203 52.5251 49.0786L52.147 48.1528ZM51.0725 48.1387L47.397 46.6155L47.0141 47.5393L50.6897 49.0625L51.0725 48.1387ZM46.8071 46.7753C45.7018 48.2332 44.4024 49.5327 42.9451 50.6377L43.5493 51.4345C45.0793 50.2744 46.4435 48.91 47.604 47.3794L46.8071 46.7753ZM42.7849 51.2267L44.3112 54.9287L45.2357 54.5475L43.7094 50.8456L42.7849 51.2267ZM44.3146 54.9369C44.4572 55.2659 44.4606 55.6387 44.324 55.9703L45.2487 56.3511C45.4881 55.7698 45.4822 55.1162 45.2322 54.5393L44.3146 54.9369ZM44.3231 55.9726C44.1818 56.3207 43.9066 56.5971 43.5598 56.7396L43.9399 57.6645C44.5354 57.4198 45.0074 56.9455 45.2496 56.3488L44.3231 55.9726ZM43.5581 56.7403L37.1782 59.3889L37.5616 60.3124L43.9416 57.6639L43.5581 56.7403ZM37.1765 59.3896C36.8377 59.5316 36.4563 59.5321 36.1172 59.3909L35.7328 60.3141C36.3188 60.5581 36.9779 60.5572 37.5633 60.3117L37.1765 59.3896ZM36.1172 59.3909C35.778 59.2497 35.5092 58.9784 35.3708 58.6373L34.4441 59.0133C34.6829 59.6016 35.1468 60.0701 35.7328 60.3141L36.1172 59.3909ZM35.3693 58.6338L33.8366 54.9373L32.9128 55.3204L34.4456 59.0168L35.3693 58.6338ZM33.3055 54.6336C31.4948 54.8865 29.6579 54.8891 27.8465 54.6414L27.711 55.6322C29.6133 55.8924 31.5423 55.8896 33.4439 55.624L33.3055 54.6336ZM27.3166 54.9458L25.7904 58.6388L26.7146 59.0208L28.2408 55.3278L27.3166 54.9458ZM25.7898 58.6404C25.5772 59.1597 25.0725 59.4991 24.5123 59.5004L24.5146 60.5004C25.4801 60.4982 26.3492 59.9133 26.7152 59.0192L25.7898 58.6404ZM54.2169 41.1047H54.2184V40.1047H54.2169V41.1047ZM47.0769 35.8512C48.8263 36.6085 51.1343 37.6653 52.1906 38.0935L52.5663 37.1667C51.5193 36.7423 49.267 35.7096 47.4741 34.9335L47.0769 35.8512ZM42.4473 40.3912C42.6001 40.0854 42.8681 39.4293 43.1746 38.7255C43.4903 38.0009 43.8621 37.1879 44.2464 36.5033L43.3744 36.0139C42.9644 36.7443 42.5762 37.5953 42.2578 38.3262C41.9303 39.0779 41.6903 39.6689 41.5527 39.9445L42.4473 40.3912ZM44.2337 36.5247C44.5398 36.0378 44.8841 35.7347 45.2937 35.6077C45.7042 35.4804 46.2704 35.5021 47.0769 35.8512L47.4741 34.9335C46.5313 34.5253 45.7098 34.4317 44.9975 34.6526C44.2842 34.8737 43.7706 35.3824 43.3871 35.9925L44.2337 36.5247ZM6.32571 39.1919C6.89045 38.9589 7.9009 38.4206 9.07154 37.8518C10.2683 37.2702 11.6884 36.6271 13.1583 36.1365L12.8417 35.1879C11.3116 35.6986 9.84657 36.3633 8.63448 36.9523C7.39629 37.554 6.47423 38.0489 5.94424 38.2676L6.32571 39.1919ZM17.6959 38.324C19.1959 42.8067 24.017 46.0623 29.0783 46.8521C34.1706 47.6467 39.6626 45.9676 42.4473 40.3912L41.5527 39.9445C39.0107 45.0349 34.0116 46.6098 29.2325 45.864C24.4225 45.1135 19.992 42.0344 18.6442 38.0066L17.6959 38.324ZM13.1583 36.1365C14.5601 35.6687 15.5252 35.8101 16.2014 36.216C16.8941 36.632 17.3812 37.3835 17.6959 38.324L18.6442 38.0066C18.2889 36.9446 17.6909 35.944 16.7161 35.3587C15.7248 34.7634 14.4399 34.6545 12.8417 35.1879L13.1583 36.1365Z" fill="#444444"/>
<path fill-rule="evenodd" clip-rule="evenodd" d="M50.2871 39.0396H15.9156C8.78372 39.0396 3 33.2651 3 26.1392C3 19.1499 8.56412 13.4606 15.507 13.2451C17.9747 8.2155 23.1038 5 28.7485 5C34.4035 5 39.5409 8.22724 42.0034 13.2726C46.0866 13.5874 49.7035 16.0426 51.4989 19.7216C56.4344 20.3347 60.1522 24.6113 59.9952 29.6451C59.8318 34.8834 55.5316 39.0425 50.2871 39.0396ZM50.2876 38.0396L50.2871 39.0396ZM50.2876 38.0396V39.0396H50.2871M50.2876 38.0396H15.9156C9.33481 38.0396 4 32.7116 4 26.1392C4 19.5668 9.33481 14.2388 15.9156 14.2388C15.9935 14.2388 16.0709 14.2392 16.1474 14.241C18.3332 9.2358 23.281 6 28.7485 6C34.216 6 39.1637 9.2358 41.3495 14.241C45.4989 14.3344 49.2084 16.8474 50.8296 20.6633C55.526 20.9532 59.1422 24.9169 58.9957 29.6139C58.8492 34.311 54.993 38.0422 50.2876 38.0396Z" fill="#444444"/>
<path fill-rule="evenodd" clip-rule="evenodd" d="M15.9156 38.0396H50.2876C54.993 38.0422 58.8492 34.311 58.9957 29.6139C59.1422 24.9169 55.526 20.9532 50.8296 20.6633C49.2084 16.8474 45.4989 14.3344 41.3495 14.241C39.1637 9.2358 34.216 6 28.7485 6C23.281 6 18.3332 9.2358 16.1474 14.241C16.0709 14.2392 15.9935 14.2388 15.9156 14.2388C9.33481 14.2388 4 19.5668 4 26.1392C4 32.7116 9.33481 38.0396 15.9156 38.0396ZM16.585 32C16.2636 31.9995 15.9619 31.8448 15.7741 31.584C15.5862 31.3233 15.5349 30.9882 15.6363 30.6832L19.6335 18.6922C19.6375 18.68 19.6417 18.6678 19.6462 18.6557C19.6993 18.5108 19.7828 18.3852 19.887 18.2839C20.0723 18.1036 20.3231 18 20.585 18C20.7144 18 20.8411 18.0253 20.9585 18.0726C21.0831 18.1226 21.1926 18.1954 21.2837 18.2845C21.3876 18.3857 21.4709 18.5111 21.5239 18.6557C21.5283 18.6677 21.5325 18.6799 21.5365 18.6921L25.5338 30.6832C25.6351 30.9882 25.5839 31.3233 25.396 31.584C25.2081 31.8448 24.9065 31.9995 24.5851 32C24.1546 32 23.7724 31.7244 23.6364 31.3159L22.1976 27H18.9724L17.5337 31.3159C17.3977 31.7244 17.0155 32 16.585 32ZM21.5309 25L20.585 22.1625L19.6392 25H21.5309ZM27.5852 31.9991C27.0329 31.9991 26.5852 31.5514 26.5852 30.9992V24.9996V18.9999C26.5852 18.4477 27.0329 18 27.5852 18H31.5852C33.7944 18 35.5853 19.7908 35.5853 21.9998C35.5853 24.2088 33.7944 25.9995 31.5852 25.9995H28.5852V30.9992C28.5852 31.5514 28.1375 31.9991 27.5852 31.9991ZM28.5852 23.9996H31.5852C32.6898 23.9996 33.5853 23.1043 33.5853 21.9998C33.5853 20.8953 32.6898 19.9999 31.5852 19.9999H28.5852V23.9996ZM38.5852 19.9999V29.9998H36.5852C36.0329 29.9998 35.5852 30.4475 35.5852 30.9997C35.5852 31.552 36.0329 31.9997 36.5852 31.9997H42.5853C43.1375 31.9997 43.5853 31.552 43.5853 30.9997C43.5853 30.4475 43.1375 29.9998 42.5853 29.9998H40.5853V19.9999H42.5853C43.1375 19.9999 43.5853 19.5522 43.5853 18.9999C43.5853 18.4477 43.1375 18 42.5853 18H39.5852H36.5852C36.0329 18 35.5852 18.4477 35.5852 18.9999C35.5852 19.5522 36.0329 19.9999 36.5852 19.9999H38.5852Z" fill="url(#paint0_linear_19_1358)"/>
<path d="M0 77C0 75.3431 1.34315 74 3 74H51C52.1046 74 53 74.8954 53 76V110H0V77Z" fill="#CCCCCC"/>
<path fill-rule="evenodd" clip-rule="evenodd" d="M2 75H52C52.5523 75 53 75.4477 53 76V94H54V76C54 74.8954 53.1046 74 52 74H2C0.895431 74 0 74.8954 0 76V109C0 110.105 0.895429 111 2 111H25V110H2C1.44771 110 1 109.552 1 109V76C1 75.4477 1.44772 75 2 75Z" fill="#666666"/>
<path d="M18.8934 97.2191C18.9223 97.7321 19.0235 98.2053 19.1969 98.6388C19.3775 99.065 19.6123 99.4335 19.9013 99.7441C20.1975 100.055 20.5406 100.297 20.9308 100.47C21.3209 100.636 21.7508 100.719 22.2203 100.719C22.6321 100.719 23.0259 100.676 23.4016 100.589C23.7772 100.503 24.1096 100.365 24.3986 100.178C24.6875 99.9825 24.9187 99.7297 25.0921 99.419C25.2655 99.1011 25.3522 98.7146 25.3522 98.2595C25.3522 97.8477 25.2258 97.5009 24.9729 97.2191C24.7273 96.9374 24.4022 96.6954 23.9976 96.4931C23.593 96.2836 23.1306 96.0957 22.6105 95.9296C22.0903 95.7562 21.5593 95.5792 21.0175 95.3986C20.4828 95.2179 19.9554 95.0157 19.4353 94.7917C18.9151 94.5605 18.4527 94.2787 18.0482 93.9464C17.6436 93.6141 17.3149 93.2167 17.062 92.7544C16.8164 92.292 16.6936 91.7357 16.6936 91.0855C16.6936 90.4208 16.8236 89.8356 17.0837 89.3299C17.3438 88.817 17.7086 88.3907 18.1782 88.0512C18.655 87.7044 19.2185 87.4443 19.8688 87.2709C20.519 87.0903 21.2342 87 22.0144 87C22.708 87 23.3221 87.0722 23.8567 87.2167C24.3913 87.354 24.8573 87.5418 25.2547 87.7803C25.6592 88.0187 25.9988 88.3004 26.2733 88.6255C26.5479 88.9506 26.7718 89.2974 26.9452 89.6659C27.1258 90.0271 27.2595 90.4064 27.3462 90.8037C27.4329 91.1939 27.4907 91.5768 27.5196 91.9524H24.9296C24.8862 91.4684 24.7778 91.0494 24.6045 90.6954C24.4383 90.3414 24.2252 90.0488 23.9651 89.8176C23.7122 89.5864 23.416 89.4166 23.0765 89.3082C22.7441 89.1927 22.3901 89.1349 22.0144 89.1349C21.6749 89.1349 21.339 89.171 21.0066 89.2432C20.6815 89.3082 20.3889 89.4166 20.1288 89.5683C19.8688 89.72 19.6592 89.9223 19.5003 90.1752C19.3414 90.4208 19.2619 90.7243 19.2619 91.0855C19.2619 91.5045 19.3847 91.8585 19.6303 92.1475C19.8832 92.4293 20.2119 92.6785 20.6165 92.8952C21.0211 93.112 21.4834 93.307 22.0036 93.4804C22.5238 93.6466 23.0512 93.8236 23.5858 94.0114C24.1276 94.1921 24.6586 94.398 25.1788 94.6291C25.699 94.8531 26.1613 95.1276 26.5659 95.4527C26.9705 95.7778 27.2956 96.168 27.5412 96.6231C27.7941 97.0783 27.9205 97.6237 27.9205 98.2595C27.9205 99.0253 27.776 99.6972 27.4871 100.275C27.2053 100.846 26.8116 101.326 26.3058 101.716C25.8001 102.099 25.1969 102.388 24.4961 102.583C23.8025 102.778 23.0439 102.876 22.2203 102.876C21.4762 102.876 20.7501 102.746 20.0421 102.486C19.3414 102.226 18.7128 101.854 18.1565 101.37C17.6075 100.878 17.1595 100.282 16.8128 99.5816C16.4732 98.8808 16.2926 98.0933 16.2709 97.2191H18.8934Z" fill="#444444"/>
<path d="M13.9296 87.3789V98.2808C13.9296 99.0971 13.8067 99.7979 13.5611 100.383C13.3227 100.961 12.9976 101.434 12.5858 101.803C12.174 102.171 11.6972 102.442 11.1553 102.616C10.6135 102.789 10.0427 102.876 9.44311 102.876C8.87237 102.876 8.31969 102.785 7.78507 102.605C7.25045 102.431 6.77724 102.171 6.36544 101.824C5.95364 101.47 5.62131 101.033 5.36845 100.513C5.12282 99.993 5 99.3897 5 98.7034V97.2404H7.57917V98.6817C7.57917 99.0285 7.63335 99.3319 7.74172 99.592C7.85731 99.8449 8.00542 100.058 8.18603 100.231C8.37387 100.398 8.57977 100.52 8.80373 100.6C9.02769 100.679 9.25527 100.719 9.48645 100.719C9.66707 100.719 9.86574 100.69 10.0825 100.632C10.2992 100.567 10.5015 100.459 10.6893 100.307C10.8844 100.148 11.047 99.9388 11.177 99.6787C11.307 99.4114 11.3721 99.0791 11.3721 98.6817V87.3789H13.9296Z" fill="#444444"/>
<path fill-rule="evenodd" clip-rule="evenodd" d="M5 83.5C5 83.2239 5.20132 83 5.44965 83H48.5503C48.7987 83 49 83.2239 49 83.5C49 83.7761 48.7987 84 48.5503 84H5.44965C5.20132 84 5 83.7761 5 83.5Z" fill="#444444"/>
<path fill-rule="evenodd" clip-rule="evenodd" d="M47 80C47.5523 80 48 79.5523 48 79C48 78.4477 47.5523 78 47 78C46.4477 78 46 78.4477 46 79C46 79.5523 46.4477 80 47 80ZM47 81C48.1046 81 49 80.1046 49 79C49 77.8954 48.1046 77 47 77C45.8954 77 45 77.8954 45 79C45 80.1046 45.8954 81 47 81Z" fill="#444444"/>
<rect x="30.5" y="96.5" width="33" height="22" rx="1.5" fill="url(#paint1_linear_19_1358)" stroke="#444444"/>
<path fill-rule="evenodd" clip-rule="evenodd" d="M53.555 112.625C53.0906 112.125 53.0906 111.313 53.555 110.813L56.6335 107.5L53.555 104.187C53.0906 103.687 53.0906 102.874 53.555 102.375C54.0194 101.875 54.774 101.875 55.2384 102.375L60 107.5L55.2384 112.625C54.774 113.125 54.0194 113.125 53.555 112.625ZM39.7616 112.625L35 107.5L39.7616 102.375C40.226 101.875 40.9806 101.875 41.445 102.375C41.9094 102.874 41.9094 103.687 41.445 104.187L38.3665 107.5L41.445 110.813C41.9094 111.313 41.9094 112.125 41.445 112.625C40.9806 113.125 40.226 113.125 39.7616 112.625ZM44.5872 110.906C44.2933 111.539 44.5326 112.309 45.1204 112.625C45.7086 112.942 46.424 112.686 46.717 112.051L50.4145 104.093C50.7084 103.461 50.4702 102.691 49.8824 102.375C49.2942 102.058 48.5788 102.315 48.2846 102.947L44.5872 110.906Z" fill="#444444"/>
<path d="M61.0405 158.469L61.0372 158.476C60.9028 159.2 61.7415 159.286 61.9228 158.94C62.5791 157.731 62.9481 156.382 63 155.003C63 151.868 60.4169 147.128 56.5423 147.128C55.0812 147.148 53.6772 147.707 52.5926 148.703C51.9864 149.287 51.2094 149.656 50.3789 149.753C50.1077 148.847 50.1464 145.592 51.9623 138.203C52.4045 136.387 51.3149 134.551 49.5285 134.102C49.2642 134.035 48.9928 134.002 48.7205 134.003H37.143C36.12 134.002 35.1994 134.634 34.8182 135.599C34.428 136.578 34.6666 137.7 35.4201 138.428C36.4407 139.286 37.07 140.532 37.1612 141.875C37.1612 144.046 34.3534 144.5 31.9949 144.5C29.6365 144.5 26.8287 144.046 26.8287 141.875C26.9216 140.53 27.5549 139.282 28.58 138.426C29.3335 137.698 29.5722 136.575 29.1819 135.596C28.8007 134.631 27.8801 133.999 26.8571 134H15.2796C13.4393 133.996 11.9441 135.509 11.9401 137.379C11.9395 137.656 11.9723 137.931 12.0377 138.2C13.8459 145.579 13.8923 148.834 13.6211 149.75C12.7906 149.653 12.0136 149.285 11.4074 148.7C10.3228 147.705 8.91885 147.145 7.45774 147.125C3.58307 147.125 1 151.866 1 155C1 158.134 3.58307 162.875 7.45774 162.875C8.91885 162.855 10.3228 162.295 11.4074 161.3C12.0136 160.715 12.7906 160.347 13.6211 160.25C13.8923 161.156 13.8536 164.411 12.0377 171.8C11.9211 172.281 11.9118 172.763 11.9942 173.22C12.093 173.835 12.3648 174.386 12.7559 174.832C13.1916 175.343 13.7819 175.727 14.4774 175.902C14.7408 175.968 15.0109 176.001 15.2821 176C15.3117 176.001 15.3414 176 15.3712 176H26.9487C27.9717 176.001 28.8923 175.369 29.2735 174.404C29.6637 173.425 29.4251 172.302 28.6716 171.574C27.6465 170.718 27.0132 169.47 26.9202 168.125C26.9202 166.228 29.3216 165.347 31.5859 165.449C31.5859 165.449 32.7314 165.318 32.0865 164.5C30.872 164.5 29.4309 164.613 28.2587 165.066C27.665 165.295 27.0804 165.634 26.6386 166.146C26.1802 166.677 25.9202 167.345 25.9202 168.125V168.16L25.9226 168.194C26.0332 169.794 26.7808 171.282 27.998 172.314C28.4406 172.759 28.582 173.438 28.3445 174.034L28.3434 174.037C28.1104 174.626 27.5541 175 26.9494 175H15.369C14.6962 175.001 14.0601 174.734 13.6093 174.284C13.2715 173.932 13.0439 173.477 12.9679 172.981C12.957 172.893 12.9513 172.802 12.9511 172.709C12.951 172.652 12.9474 172.601 12.9407 172.554C12.9449 172.384 12.9672 172.211 13.0092 172.037C13.9238 168.315 14.3972 165.609 14.6061 163.703C14.8094 161.848 14.7781 160.628 14.5791 159.963L14.3385 159.16L13.5056 159.257C12.4602 159.378 11.4842 159.841 10.723 160.571C9.82086 161.395 8.65834 161.857 7.45104 161.875C5.95611 161.872 4.61023 160.956 3.5887 159.53C2.5647 158.101 2 156.333 2 155C2 153.667 2.5647 151.899 3.5887 150.47C4.61023 149.044 5.95611 148.128 7.45104 148.125C8.65834 148.143 9.82086 148.605 10.723 149.429C11.4843 150.159 12.4602 150.622 13.5056 150.743L14.3412 150.84L14.58 150.034C14.7778 149.366 14.8074 148.144 14.6032 146.289C14.3933 144.383 13.9199 141.68 13.0092 137.963C12.9629 137.772 12.9397 137.577 12.9401 137.381C12.943 136.048 14.0044 134.997 15.2774 135L26.8578 135C27.4626 135 28.0188 135.374 28.2519 135.963L28.2529 135.966C28.4904 136.562 28.349 137.241 27.9065 137.686C26.6893 138.718 25.9416 140.206 25.831 141.806L25.8287 141.84V141.875C25.8287 142.655 26.0886 143.323 26.547 143.854C26.9888 144.366 27.5734 144.705 28.1671 144.934C29.3393 145.387 30.7805 145.5 31.9949 145.5C33.2093 145.5 34.6505 145.387 35.8227 144.934C36.4164 144.705 37.001 144.366 37.4428 143.854C37.9012 143.323 38.1612 142.655 38.1612 141.875V141.841L38.1589 141.807C38.0504 140.21 37.3071 138.723 36.0945 137.689C35.6513 137.245 35.5095 136.565 35.7472 135.969L35.7483 135.966C35.9813 135.376 36.5384 135.002 37.143 135.003L48.7205 135.003L48.7228 135.003C48.9119 135.002 49.1006 135.025 49.2847 135.072C50.525 135.384 51.3055 136.671 50.991 137.965C50.0762 141.687 49.6028 144.393 49.3939 146.3C49.1906 148.155 49.2219 149.375 49.4209 150.039L49.6615 150.843L50.4944 150.746C51.5398 150.624 52.5158 150.162 53.2771 149.432C54.1792 148.608 55.3417 148.146 56.549 148.128C58.0439 148.13 59.3898 149.047 60.4113 150.472C61.4306 151.895 61.9948 153.653 62 154.984C61.9511 156.204 61.6235 157.395 61.0439 158.463L61.0405 158.469Z" fill="#444444"/>
<path d="M4.5 149L7.5 147.5L12.5 150H14V144.5L13 138V135.5L15 134.5H26.5L28.5 135.5L29 137L27 139.5L26.5 142L27.5 144L29 145L32.5 145.5L36 144.5L37.5 143V140L35.5 137V135.5L37.5 135L44.5 134.5L50.5 135L51.5 138L50.5 142L49.5 146L50 151L51.5 150L54.5 148.5L57.5 148L60.5 150L62.5 154.5L61 159L60.6369 159.242C59.9513 159.699 59.0565 159.691 58.3467 159.272C56.6078 158.247 53.1791 156.5 50 156.5C45.5 156.5 43.1528 157.078 39.5 160C38.0509 161.159 36.7698 162.655 35.9488 163.707C35.3318 164.498 34.3975 165 33.3944 165H31.5L28 165.5L26.5 167.5L27.5 171L29 174L27.5 175.5H15L13 174V171.5L14 166V160.5L13 160L9.5 162H6L3 159.5L1.5 155.5L2 152.5L4.5 149Z" fill="#CCCCCC"/>
<path d="M61.0405 158.469L61.0372 158.476C60.9028 159.2 61.7415 159.286 61.9228 158.94C62.5791 157.731 62.9481 156.382 63 155.003C63 151.868 60.4169 147.128 56.5423 147.128C55.0812 147.148 53.6772 147.707 52.5926 148.703C51.9864 149.287 51.2094 149.656 50.3789 149.753C50.1077 148.847 50.1464 145.592 51.9623 138.203C52.4045 136.387 51.3149 134.551 49.5285 134.102C49.2642 134.035 48.9928 134.002 48.7205 134.003H37.143C36.12 134.002 35.1994 134.634 34.8182 135.599C34.428 136.578 34.6666 137.7 35.4201 138.428C36.4407 139.286 37.07 140.532 37.1612 141.875C37.1612 144.046 34.3534 144.5 31.9949 144.5C29.6365 144.5 26.8287 144.046 26.8287 141.875C26.9216 140.53 27.5549 139.282 28.58 138.426C29.3335 137.698 29.5722 136.575 29.1819 135.596C28.8007 134.631 27.8801 133.999 26.8571 134H15.2796C13.4393 133.996 11.9441 135.509 11.9401 137.379C11.9395 137.656 11.9723 137.931 12.0377 138.2C13.8459 145.579 13.8923 148.834 13.6211 149.75C12.7906 149.653 12.0136 149.285 11.4074 148.7C10.3228 147.705 8.91885 147.145 7.45774 147.125C3.58307 147.125 1 151.866 1 155C1 158.134 3.58307 162.875 7.45774 162.875C8.91885 162.855 10.3228 162.295 11.4074 161.3C12.0136 160.715 12.7906 160.347 13.6211 160.25C13.8923 161.156 13.8536 164.411 12.0377 171.8C11.9211 172.281 11.9118 172.763 11.9942 173.22C12.093 173.835 12.3648 174.386 12.7559 174.832C13.1916 175.343 13.7819 175.727 14.4774 175.902C14.7408 175.968 15.0109 176.001 15.2821 176C15.3117 176.001 15.3414 176 15.3712 176H26.9487C27.9717 176.001 28.8923 175.369 29.2735 174.404C29.6637 173.425 29.4251 172.302 28.6716 171.574C27.6465 170.718 27.0132 169.47 26.9202 168.125C26.9202 166.228 29.3216 165.347 31.5859 165.449C31.5859 165.449 32.7314 165.318 32.0865 164.5C30.872 164.5 29.4309 164.613 28.2587 165.066C27.665 165.295 27.0804 165.634 26.6386 166.146C26.1802 166.677 25.9202 167.345 25.9202 168.125V168.16L25.9226 168.194C26.0332 169.794 26.7808 171.282 27.998 172.314C28.4406 172.759 28.582 173.438 28.3445 174.034L28.3434 174.037C28.1104 174.626 27.5541 175 26.9494 175H15.369C14.6962 175.001 14.0601 174.734 13.6093 174.284C13.2715 173.932 13.0439 173.477 12.9679 172.981C12.957 172.893 12.9513 172.802 12.9511 172.709C12.951 172.652 12.9474 172.601 12.9407 172.554C12.9449 172.384 12.9672 172.211 13.0092 172.037C13.9238 168.315 14.3972 165.609 14.6061 163.703C14.8094 161.848 14.7781 160.628 14.5791 159.963L14.3385 159.16L13.5056 159.257C12.4602 159.378 11.4842 159.841 10.723 160.571C9.82086 161.395 8.65834 161.857 7.45104 161.875C5.95611 161.872 4.61023 160.956 3.5887 159.53C2.5647 158.101 2 156.333 2 155C2 153.667 2.5647 151.899 3.5887 150.47C4.61023 149.044 5.95611 148.128 7.45104 148.125C8.65834 148.143 9.82086 148.605 10.723 149.429C11.4843 150.159 12.4602 150.622 13.5056 150.743L14.3412 150.84L14.58 150.034C14.7778 149.366 14.8074 148.144 14.6032 146.289C14.3933 144.383 13.9199 141.68 13.0092 137.963C12.9629 137.772 12.9397 137.577 12.9401 137.381C12.943 136.048 14.0044 134.997 15.2774 135L26.8578 135C27.4626 135 28.0188 135.374 28.2519 135.963L28.2529 135.966C28.4904 136.562 28.349 137.241 27.9065 137.686C26.6893 138.718 25.9416 140.206 25.831 141.806L25.8287 141.84V141.875C25.8287 142.655 26.0886 143.323 26.547 143.854C26.9888 144.366 27.5734 144.705 28.1671 144.934C29.3393 145.387 30.7805 145.5 31.9949 145.5C33.2093 145.5 34.6505 145.387 35.8227 144.934C36.4164 144.705 37.001 144.366 37.4428 143.854C37.9012 143.323 38.1612 142.655 38.1612 141.875V141.841L38.1589 141.807C38.0504 140.21 37.3071 138.723 36.0945 137.689C35.6513 137.245 35.5095 136.565 35.7472 135.969L35.7483 135.966C35.9813 135.376 36.5384 135.002 37.143 135.003L48.7205 135.003L48.7228 135.003C48.9119 135.002 49.1006 135.025 49.2847 135.072C50.525 135.384 51.3055 136.671 50.991 137.965C50.0762 141.687 49.6028 144.393 49.3939 146.3C49.1906 148.155 49.2219 149.375 49.4209 150.039L49.6615 150.843L50.4944 150.746C51.5398 150.624 52.5158 150.162 53.2771 149.432C54.1792 148.608 55.3417 148.146 56.549 148.128C58.0439 148.13 59.3898 149.047 60.4113 150.472C61.4306 151.895 61.9948 153.653 62 154.984C61.9511 156.204 61.6235 157.395 61.0439 158.463L61.0405 158.469Z" fill="#444444"/>
<path d="M62.187 167.449C61.9618 166.771 61.2397 166.407 60.5741 166.637C60.5439 166.647 60.5141 166.659 60.4847 166.671C59.9096 166.932 59.2342 166.716 58.9071 166.168C58.5952 165.604 58.7535 164.89 59.2735 164.517C59.8359 164.088 59.9503 163.276 59.529 162.703C59.5093 162.676 59.4886 162.65 59.467 162.625C57.4614 160.26 54.7412 158.643 51.7344 158.026C51.3836 157.953 51.0187 158.036 50.7319 158.254C50.4442 158.471 50.2595 158.801 50.223 159.164C50.1921 159.855 49.6174 160.389 48.9394 160.358C48.3046 160.329 47.7965 159.811 47.7675 159.164C47.731 158.801 47.5463 158.471 47.2586 158.254C46.9715 158.036 46.6069 157.953 46.2561 158.026C43.2493 158.643 40.529 160.261 38.5235 162.625C38.06 163.163 38.1124 163.982 38.6404 164.454C38.6651 164.476 38.6906 164.497 38.7168 164.517C39.2772 164.902 39.4251 165.677 39.047 166.248C38.7057 166.764 38.0439 166.944 37.4955 166.671C36.8487 166.392 36.1018 166.699 35.8272 167.358C35.8148 167.388 35.8034 167.418 35.7933 167.449C34.7395 170.389 34.7395 173.614 35.7933 176.553C36.0189 177.231 36.7413 177.594 37.4068 177.365C37.4359 177.354 37.4646 177.343 37.493 177.331C38.1015 177.031 38.8334 177.291 39.1276 177.911C39.3911 178.466 39.2166 179.134 38.717 179.483C38.1546 179.912 38.0402 180.724 38.4615 181.297C38.4812 181.324 38.5019 181.35 38.5235 181.375C40.5288 183.74 43.2492 185.358 46.2561 185.974C46.6069 186.047 46.9717 185.964 47.2586 185.746C47.5469 185.528 47.7317 185.197 47.7675 184.833C47.8211 184.143 48.4141 183.627 49.0921 183.681C49.6959 183.73 50.1754 184.218 50.223 184.833C50.2898 185.497 50.8403 186.001 51.4952 185.997C51.5807 185.998 51.666 185.989 51.7496 185.972C54.7566 185.355 57.4769 183.737 59.4822 181.373C59.9457 180.835 59.8934 180.016 59.3654 179.544C59.3407 179.521 59.3151 179.5 59.2889 179.48C58.7311 179.091 58.5883 178.316 58.9701 177.747C59.3119 177.238 59.9678 177.06 60.5129 177.329C61.1602 177.607 61.9064 177.298 62.1798 176.639C62.1917 176.61 62.2027 176.581 62.2126 176.551C63.2664 173.611 63.2664 170.387 62.2126 167.447L62.187 167.449ZM48.9837 178.482C45.4706 178.482 42.6226 175.581 42.6226 172.001C42.6226 168.422 45.4706 165.521 48.9837 165.521C52.4969 165.521 55.3448 168.422 55.3448 172.001C55.345 175.581 52.497 178.482 48.9837 178.482Z" fill="url(#paint2_linear_19_1358)"/>
<path d="M61.8373 167.983L61.7124 167.607C61.5728 167.186 61.1332 166.973 60.7374 167.109C60.7198 167.115 60.7026 167.122 60.6858 167.129C59.8763 167.492 58.9321 167.186 58.4778 166.425L58.4735 166.418L58.4694 166.41C58.038 165.629 58.2521 164.64 58.9748 164.116C59.3145 163.853 59.3862 163.353 59.1262 162.999L61.8373 167.983ZM61.8373 167.983L61.8665 167.98M61.8373 167.983L61.8665 167.98M61.8665 167.98C62.7547 170.711 62.7132 173.673 61.7419 176.382L61.7418 176.382L61.7383 176.393C61.7323 176.411 61.7255 176.429 61.7178 176.448C61.55 176.852 61.1031 177.032 60.7199 176.874C59.9499 176.503 59.0316 176.759 58.555 177.468C58.0253 178.257 58.2171 179.334 58.9923 179.883C59.0063 179.894 59.0194 179.905 59.0317 179.916L59.0321 179.916C59.3561 180.206 59.3897 180.714 59.1034 181.046L59.1009 181.049C57.1672 183.33 54.5454 184.888 51.6492 185.482L51.6492 185.482L51.6452 185.483C51.5974 185.493 51.5483 185.498 51.4988 185.497V185.497L51.4926 185.497C51.1044 185.499 50.7647 185.2 50.7209 184.788C50.6519 183.938 49.9856 183.251 49.1322 183.183C48.1717 183.106 47.3468 183.834 47.2695 184.789C47.2462 185.013 47.1317 185.215 46.9574 185.347L46.9557 185.348C46.7835 185.479 46.5662 185.528 46.3583 185.485L46.3565 185.484C43.4604 184.891 40.8385 183.332 38.9048 181.052L38.9029 181.05C38.8892 181.034 38.8763 181.017 38.8643 181.001C38.6049 180.648 38.6756 180.149 39.0135 179.886C39.7081 179.394 39.9442 178.466 39.5793 177.697L39.5793 177.697C39.17 176.834 38.1467 176.461 37.2857 176.876C37.2723 176.882 37.2581 176.887 37.243 176.892C36.8474 177.029 36.4076 176.816 36.2677 176.396L36.2678 176.395L36.2639 176.385C35.2493 173.554 35.2493 170.449 36.2639 167.618L36.2641 167.618L36.2681 167.606C36.2738 167.588 36.2807 167.57 36.2889 167.55C36.4573 167.146 36.9043 166.967 37.2873 167.126C38.0619 167.502 38.9882 167.243 39.4638 166.524L61.8665 167.98ZM59.0876 162.95L59.0857 162.948C57.1517 160.668 54.53 159.11 51.6339 158.516L51.6321 158.515C51.4243 158.472 51.207 158.521 51.0346 158.652L51.0329 158.653C50.8609 158.783 50.747 158.982 50.7216 159.203C50.6703 160.153 49.8736 160.902 48.9163 160.857L48.9162 160.857C48.0211 160.816 47.317 160.093 47.2688 159.203C47.2435 158.982 47.1296 158.783 46.9576 158.653L46.9562 158.652C46.7834 158.521 46.566 158.472 46.3579 158.516L46.3566 158.516C43.4605 159.11 40.8388 160.668 38.9048 162.948L38.9023 162.951C38.616 163.283 38.6496 163.791 38.9737 164.081L38.974 164.082C38.9861 164.092 38.9989 164.103 39.0124 164.114C39.7899 164.658 39.988 165.733 39.4639 166.524L59.0876 162.95ZM59.0876 162.95C59.1013 162.966 59.1142 162.983 59.1262 162.999L59.0876 162.95ZM42.1226 172.001C42.1226 175.848 45.1857 178.982 48.9837 178.982C52.7819 178.982 55.845 175.848 55.8448 172.001C55.8448 168.155 52.7818 165.021 48.9837 165.021C45.1857 165.021 42.1226 168.155 42.1226 172.001Z" stroke="#444444"/>
<path fill-rule="evenodd" clip-rule="evenodd" d="M30.8398 245.68V232.76H32.6855V245.68H30.8398Z" fill="#CCCCCC"/>
<path fill-rule="evenodd" clip-rule="evenodd" d="M28.9941 248.448C28.9941 248.958 28.64 249.371 28.2031 249.371L7.63672 249.371C7.19985 249.371 6.8457 248.958 6.8457 248.448C6.8457 247.939 7.19985 247.525 7.63672 247.525L28.2031 247.525C28.64 247.525 28.9941 247.939 28.9941 248.448Z" fill="#CCCCCC"/>
<path fill-rule="evenodd" clip-rule="evenodd" d="M56.6797 248.448C56.6797 248.958 56.3213 249.371 55.8791 249.371L35.3318 249.371C34.8897 249.371 34.5313 248.958 34.5313 248.448C34.5313 247.939 34.8897 247.525 35.3318 247.525L55.8791 247.525C56.3213 247.525 56.6797 247.939 56.6797 248.448Z" fill="#CCCCCC"/>
<path d="M9.21875 194.5H54.7812C56.8532 194.5 58.5 196.112 58.5 198.061V207.669C58.5 209.618 56.8532 211.23 54.7812 211.23H9.21875C7.14683 211.23 5.5 209.618 5.5 207.669V198.061C5.5 196.112 7.14683 194.5 9.21875 194.5Z" fill="url(#paint3_linear_19_1358)" stroke="#444444"/>
<path d="M9.18167 214.803H54.3437C56.3719 214.803 58.0254 216.466 58.0254 218.53V228.532C58.0254 230.596 56.3719 232.26 54.3437 232.26H9.18167C7.15347 232.26 5.5 230.596 5.5 228.532V218.53C5.5 216.466 7.15347 214.803 9.18167 214.803Z" fill="url(#paint4_linear_19_1358)" stroke="#444444"/>
<path d="M17.6562 203.066C17.6562 204.671 16.334 205.972 14.7031 205.972C13.0721 205.972 11.7499 204.671 11.7499 203.066C11.7499 201.46 13.0721 200.159 14.7031 200.159C16.334 200.159 17.6562 201.46 17.6562 203.066Z" fill="#444444"/>
<path d="M17.6562 223.463C17.6562 225.068 16.334 226.37 14.7031 226.37C13.0721 226.37 11.7499 225.068 11.7499 223.463C11.7499 221.857 13.0721 220.556 14.7031 220.556C16.334 220.556 17.6562 221.857 17.6562 223.463Z" fill="#444444"/>
<path fill-rule="evenodd" clip-rule="evenodd" d="M31.7627 251.217C33.2917 251.217 34.5312 249.977 34.5312 248.448C34.5312 246.919 33.2917 245.68 31.7627 245.68C30.2337 245.68 28.9941 246.919 28.9941 248.448C28.9941 249.977 30.2337 251.217 31.7627 251.217ZM31.7627 253.062C34.3111 253.062 36.377 250.997 36.377 248.448C36.377 245.9 34.3111 243.834 31.7627 243.834C29.2143 243.834 27.1484 245.9 27.1484 248.448C27.1484 250.997 29.2143 253.062 31.7627 253.062Z" fill="#CCCCCC"/>
<path fill-rule="evenodd" clip-rule="evenodd" d="M38.5156 202.535C39.2146 202.535 39.7812 201.977 39.7812 201.289C39.7812 200.601 39.2146 200.044 38.5156 200.044C37.8166 200.044 37.25 200.601 37.25 201.289C37.25 201.977 37.8166 202.535 38.5156 202.535ZM36.2657 206.313C36.9647 206.313 37.5314 205.755 37.5314 205.067C37.5314 204.379 36.9647 203.821 36.2657 203.821C35.5667 203.821 35.0001 204.379 35.0001 205.067C35.0001 205.755 35.5667 206.313 36.2657 206.313ZM42.0313 205.067C42.0313 205.755 41.4646 206.313 40.7657 206.313C40.0667 206.313 39.5 205.755 39.5 205.067C39.5 204.379 40.0667 203.821 40.7657 203.821C41.4646 203.821 42.0313 204.379 42.0313 205.067ZM43.0157 202.535C43.7147 202.535 44.2814 201.977 44.2814 201.289C44.2814 200.601 43.7147 200.044 43.0157 200.044C42.3167 200.044 41.7501 200.601 41.7501 201.289C41.7501 201.977 42.3167 202.535 43.0157 202.535ZM46.5312 205.067C46.5312 205.755 45.9646 206.313 45.2656 206.313C44.5666 206.313 44 205.755 44 205.067C44 204.379 44.5666 203.821 45.2656 203.821C45.9646 203.821 46.5312 204.379 46.5312 205.067ZM47.5157 202.535C48.2146 202.535 48.7813 201.977 48.7813 201.289C48.7813 200.601 48.2146 200.044 47.5157 200.044C46.8167 200.044 46.25 200.601 46.25 201.289C46.25 201.977 46.8167 202.535 47.5157 202.535ZM51.0314 205.067C51.0314 205.755 50.4647 206.313 49.7657 206.313C49.0667 206.313 48.5001 205.755 48.5001 205.067C48.5001 204.379 49.0667 203.821 49.7657 203.821C50.4647 203.821 51.0314 204.379 51.0314 205.067ZM52.0156 202.535C52.7146 202.535 53.2812 201.977 53.2812 201.289C53.2812 200.601 52.7146 200.044 52.0156 200.044C51.3166 200.044 50.75 200.601 50.75 201.289C50.75 201.977 51.3166 202.535 52.0156 202.535Z" fill="#444444"/>
<path fill-rule="evenodd" clip-rule="evenodd" d="M38.5156 222.82C39.2146 222.82 39.7812 222.262 39.7812 221.574C39.7812 220.886 39.2146 220.328 38.5156 220.328C37.8166 220.328 37.25 220.886 37.25 221.574C37.25 222.262 37.8166 222.82 38.5156 222.82ZM36.2657 226.597C36.9647 226.597 37.5314 226.039 37.5314 225.351C37.5314 224.663 36.9647 224.105 36.2657 224.105C35.5667 224.105 35.0001 224.663 35.0001 225.351C35.0001 226.039 35.5667 226.597 36.2657 226.597ZM42.0313 225.351C42.0313 226.039 41.4646 226.597 40.7657 226.597C40.0667 226.597 39.5 226.039 39.5 225.351C39.5 224.663 40.0667 224.105 40.7657 224.105C41.4646 224.105 42.0313 224.663 42.0313 225.351ZM43.0157 222.82C43.7147 222.82 44.2814 222.262 44.2814 221.574C44.2814 220.886 43.7147 220.328 43.0157 220.328C42.3167 220.328 41.7501 220.886 41.7501 221.574C41.7501 222.262 42.3167 222.82 43.0157 222.82ZM46.5312 225.351C46.5312 226.039 45.9646 226.597 45.2656 226.597C44.5666 226.597 44 226.039 44 225.351C44 224.663 44.5666 224.105 45.2656 224.105C45.9646 224.105 46.5312 224.663 46.5312 225.351ZM47.5157 222.82C48.2146 222.82 48.7813 222.262 48.7813 221.574C48.7813 220.886 48.2146 220.328 47.5157 220.328C46.8167 220.328 46.25 220.886 46.25 221.574C46.25 222.262 46.8167 222.82 47.5157 222.82ZM51.0314 225.351C51.0314 226.039 50.4647 226.597 49.7657 226.597C49.0667 226.597 48.5001 226.039 48.5001 225.351C48.5001 224.663 49.0667 224.105 49.7657 224.105C50.4647 224.105 51.0314 224.663 51.0314 225.351ZM52.0156 222.82C52.7146 222.82 53.2812 222.262 53.2812 221.574C53.2812 220.886 52.7146 220.328 52.0156 220.328C51.3166 220.328 50.75 220.886 50.75 221.574C50.75 222.262 51.3166 222.82 52.0156 222.82Z" fill="#444444"/>
<path d="M22 258C22 257.448 22.4477 257 23 257H50.5911C50.8531 257 51.1048 257.103 51.2918 257.287L52 257.982L63.7007 269.474C63.8922 269.662 64 269.919 64 270.187V311C64 311.552 63.5523 312 63 312H23C22.4477 312 22 311.552 22 311V258Z" fill="#CCCCCC"/>
<path fill-rule="evenodd" clip-rule="evenodd" d="M15.8881 257.852C15.5889 258.278 15.427 258.895 15.427 259.584V309.509C15.427 310.853 16.2754 311.704 17.0586 311.704H19.5752C19.9025 311.704 20.1678 311.969 20.1678 312.296C20.1678 312.624 19.9025 312.889 19.5752 312.889H17.0586C15.3851 312.889 14.2419 311.244 14.2419 309.509V259.584C14.2419 258.735 14.4373 257.855 14.9182 257.171C15.4168 256.46 16.1976 256 17.2403 256H19.5752C19.9025 256 20.1678 256.265 20.1678 256.593C20.1678 256.92 19.9025 257.185 19.5752 257.185H17.2403C16.5918 257.185 16.1696 257.451 15.8881 257.852Z" fill="#D9D9D9"/>
<path fill-rule="evenodd" clip-rule="evenodd" d="M8.7574 257.852C8.45813 258.278 8.2963 258.895 8.2963 259.584V309.509C8.2963 310.853 9.14463 311.704 9.92787 311.704H12.4444C12.7717 311.704 13.037 311.969 13.037 312.296C13.037 312.624 12.7717 312.889 12.4444 312.889H9.92787C8.25437 312.889 7.11111 311.244 7.11111 309.509V259.584C7.11111 258.735 7.30658 257.855 7.78744 257.171C8.2861 256.46 9.06683 256 10.1096 256H12.4444C12.7717 256 13.037 256.265 13.037 256.593C13.037 256.92 12.7717 257.185 12.4444 257.185H10.1096C9.46108 257.185 9.03886 257.451 8.7574 257.852Z" fill="#D9D9D9"/>
<path fill-rule="evenodd" clip-rule="evenodd" d="M1.64628 257.852C1.34702 258.278 1.18519 258.895 1.18519 259.584V309.509C1.18519 310.853 2.03351 311.704 2.81675 311.704H5.33333C5.66061 311.704 5.92593 311.969 5.92593 312.296C5.92593 312.624 5.66061 312.889 5.33333 312.889H2.81675C1.14325 312.889 0 311.244 0 309.509V259.584C0 258.735 0.195468 257.855 0.676325 257.171C1.17498 256.46 1.95571 256 2.99848 256H5.33333C5.66061 256 5.92593 256.265 5.92593 256.593C5.92593 256.92 5.66061 257.185 5.33333 257.185H2.99848C2.34996 257.185 1.92775 257.451 1.64628 257.852Z" fill="#D9D9D9"/>
<path d="M51 256L65 270H53.4242C51.8176 270 51 269.142 51 267.455V256Z" fill="#444444"/>
<path fill-rule="evenodd" clip-rule="evenodd" d="M63.299 268.545L63.2961 268.542L52.0669 257.653L52.0654 257.651C52.001 257.589 51.941 257.53 51.8891 257.479L51.8698 257.46C51.8108 257.402 51.7646 257.357 51.7224 257.317C51.6367 257.236 51.5991 257.209 51.5836 257.199C51.5707 257.196 51.5254 257.188 51.4275 257.188H23.8696C22.9498 257.188 22.2222 257.903 22.2222 258.764V310.236C22.2222 311.097 22.9498 311.812 23.8696 311.812H62.1304C63.0502 311.812 63.7778 311.097 63.7778 310.236V269.192C63.7778 269.088 63.767 269.042 63.7636 269.03C63.7617 269.023 63.7611 269.02 63.753 269.008C63.7398 268.988 63.709 268.947 63.6303 268.867C63.5687 268.803 63.5041 268.742 63.4166 268.658C63.3815 268.624 63.3427 268.587 63.299 268.545ZM52.9274 256.81L64.1595 267.702C64.194 267.735 64.2275 267.767 64.26 267.798C64.7352 268.253 65 268.506 65 269.192V310.236C65 311.763 63.7153 313 62.1304 313H23.8696C22.2847 313 21 311.763 21 310.236V258.764C21 257.237 22.2847 256 23.8696 256H51.4275C52.1041 256 52.3379 256.23 52.7596 256.646C52.8122 256.697 52.8678 256.752 52.9274 256.81Z" fill="#444444"/>
<path d="M29.9999 285H54.8888V286.185H29.9999V285Z" fill="#333333"/>
<path d="M29.9999 288.556H54.8888V289.741H29.9999V288.556Z" fill="#333333"/>
<path d="M29.9999 292.111H54.8888V293.296H29.9999V292.111Z" fill="#333333"/>
<path d="M29.9999 285H31.1851V292.111H29.9999V285Z" fill="#333333"/>
<path d="M53.7036 285H54.8888V292.111H53.7036V285Z" fill="#333333"/>
<path d="M47.7777 285H48.9629V292.111H47.7777V285Z" fill="#333333"/>
<path d="M35.9258 285H37.111V292.111H35.9258V285Z" fill="#333333"/>
<path d="M41.8518 285H43.037V292.111H41.8518V285Z" fill="#333333"/>
<path d="M61.6296 309.333H23.7037C29.4801 309.333 30.4721 302.815 34.5397 302.815C38.6032 302.815 38.6032 306.726 42.6667 306.726C46.7302 306.726 46.0529 296.296 52.1481 296.296C57.5661 296.296 59.5979 307.378 61.6296 309.333Z" fill="url(#paint5_linear_19_1358)"/>
<path d="M27.2593 269.63C27.2593 269.302 27.5246 269.037 27.8519 269.037H34.963C35.2902 269.037 35.5556 269.302 35.5556 269.63V269.63C35.5556 269.957 35.2902 270.222 34.963 270.222H27.8519C27.5246 270.222 27.2593 269.957 27.2593 269.63V269.63Z" fill="#333333"/>
<path d="M27.2593 262.926C27.2593 262.374 27.707 261.926 28.2593 261.926H44.037C44.5893 261.926 45.037 262.374 45.037 262.926V263C45.037 263.552 44.5893 264 44.037 264H28.2593C27.707 264 27.2593 263.552 27.2593 263V262.926Z" fill="#333333"/>
<path d="M43.8519 269.63C43.8519 269.302 44.1172 269.037 44.4444 269.037H48C48.3273 269.037 48.5926 269.302 48.5926 269.63C48.5926 269.957 48.3273 270.222 48 270.222H44.4444C44.1172 270.222 43.8519 269.957 43.8519 269.63Z" fill="#333333"/>
<path fill-rule="evenodd" clip-rule="evenodd" d="M40.2963 280.299C40.2963 279.97 39.9916 279.704 39.6158 279.704H31.4953C31.1195 279.704 30.8148 279.97 30.8148 280.299C30.8148 280.628 31.1195 280.895 31.4953 280.895H39.6158C39.9916 280.895 40.2963 280.628 40.2963 280.299Z" fill="#333333"/>
<path fill-rule="evenodd" clip-rule="evenodd" d="M56.934 280.299C56.934 279.97 56.6674 279.704 56.3386 279.704H48.048C47.7191 279.704 47.4525 279.97 47.4525 280.299C47.4525 280.628 47.7191 280.895 48.048 280.895H56.3386C56.6674 280.895 56.934 280.628 56.934 280.299Z" fill="#333333"/>
<circle cx="29.037" cy="280.296" r="0.592593" fill="#333333"/>
<circle cx="45.6748" cy="280.296" r="0.592593" fill="#333333"/>
<rect x="30" y="274" width="10" height="2" rx="1" fill="#FF823D"/>
<rect x="46" y="274" width="10" height="2" rx="1" fill="#FF823D"/>
<path d="M3.58621 378.1H57.2138C58.6667 378.1 59.7 376.703 59.7 375.2C59.7 373.697 58.6667 372.3 57.2138 372.3H3.58621C2.13327 372.3 1.1 373.697 1.1 375.2C1.1 376.703 2.13327 378.1 3.58621 378.1Z" fill="#CCCCCC" stroke="#333333" stroke-miterlimit="10" stroke-linecap="round" stroke-linejoin="round"/>
<path d="M7.3 341.3H53.5C54.6046 341.3 55.5 342.195 55.5 343.3V372.3H5.3V343.3C5.3 342.195 6.19543 341.3 7.3 341.3Z" fill="#CCCCCC" stroke="#333333"/>
<mask id="path-45-inside-1_19_1358" fill="white">
<path fill-rule="evenodd" clip-rule="evenodd" d="M36 336.525V343.475L33.145 344.146L32.1933 346.584L33.7398 349.084L28.9219 354.022L26.4238 352.437L24.0446 353.474L23.3903 356.4H16.6097L15.9554 353.474L13.5762 352.498L11.1375 354.083L6.3197 349.145L7.86617 346.584L6.85502 344.146L4 343.475V336.525L6.85502 335.854L7.80669 333.416L6.26022 330.916L11.0781 325.978L13.5762 327.563L15.9554 326.526L16.6097 323.6H23.3903L24.0446 326.526L26.4238 327.502L28.8625 325.917L33.6803 330.855L32.1338 333.416L33.145 335.854L36 336.525ZM19.9684 345.179C23.067 345.179 25.5789 342.667 25.5789 339.568C25.5789 336.47 23.067 333.958 19.9684 333.958C16.8698 333.958 14.3579 336.47 14.3579 339.568C14.3579 342.667 16.8698 345.179 19.9684 345.179Z"/>
</mask>
<path fill-rule="evenodd" clip-rule="evenodd" d="M36 336.525V343.475L33.145 344.146L32.1933 346.584L33.7398 349.084L28.9219 354.022L26.4238 352.437L24.0446 353.474L23.3903 356.4H16.6097L15.9554 353.474L13.5762 352.498L11.1375 354.083L6.3197 349.145L7.86617 346.584L6.85502 344.146L4 343.475V336.525L6.85502 335.854L7.80669 333.416L6.26022 330.916L11.0781 325.978L13.5762 327.563L15.9554 326.526L16.6097 323.6H23.3903L24.0446 326.526L26.4238 327.502L28.8625 325.917L33.6803 330.855L32.1338 333.416L33.145 335.854L36 336.525ZM19.9684 345.179C23.067 345.179 25.5789 342.667 25.5789 339.568C25.5789 336.47 23.067 333.958 19.9684 333.958C16.8698 333.958 14.3579 336.47 14.3579 339.568C14.3579 342.667 16.8698 345.179 19.9684 345.179Z" fill="#9ADAF3"/>
<path d="M36 343.475L36.2287 344.449L37 344.267V343.475H36ZM36 336.525H37V335.733L36.2287 335.551L36 336.525ZM33.145 344.146L32.9163 343.172L32.4045 343.292L32.2134 343.782L33.145 344.146ZM32.1933 346.584L31.2617 346.221L31.0802 346.686L31.3429 347.111L32.1933 346.584ZM33.7398 349.084L34.4556 349.782L35.0015 349.223L34.5902 348.558L33.7398 349.084ZM28.9219 354.022L28.3862 354.867L29.0712 355.301L29.6377 354.721L28.9219 354.022ZM26.4238 352.437L26.9596 351.593L26.5112 351.308L26.0244 351.52L26.4238 352.437ZM24.0446 353.474L23.6452 352.557L23.1795 352.76L23.0687 353.255L24.0446 353.474ZM23.3903 356.4V357.4H24.1914L24.3662 356.618L23.3903 356.4ZM16.6097 356.4L15.6338 356.618L15.8086 357.4H16.6097V356.4ZM15.9554 353.474L16.9313 353.255L16.8175 352.746L16.3347 352.548L15.9554 353.474ZM13.5762 352.498L13.9556 351.573L13.4706 351.374L13.0312 351.66L13.5762 352.498ZM11.1375 354.083L10.4218 354.782L10.9947 355.369L11.6825 354.922L11.1375 354.083ZM6.3197 349.145L5.46371 348.628L5.06398 349.29L5.60392 349.843L6.3197 349.145ZM7.86617 346.584L8.72217 347.101L8.9836 346.669L8.78991 346.201L7.86617 346.584ZM6.85502 344.146L7.77876 343.763L7.58251 343.289L7.08369 343.172L6.85502 344.146ZM4 343.475H3V344.267L3.77133 344.449L4 343.475ZM4 336.525L3.77133 335.551L3 335.733V336.525H4ZM6.85502 335.854L7.08369 336.828L7.59548 336.708L7.7866 336.218L6.85502 335.854ZM7.80669 333.416L8.73827 333.779L8.91977 333.314L8.6571 332.89L7.80669 333.416ZM6.26022 330.916L5.54444 330.218L4.99849 330.777L5.40982 331.442L6.26022 330.916ZM11.0781 325.978L11.6138 325.133L10.9288 324.699L10.3623 325.279L11.0781 325.978ZM13.5762 327.563L13.0404 328.407L13.4888 328.692L13.9756 328.48L13.5762 327.563ZM15.9554 326.526L16.3548 327.443L16.8205 327.24L16.9313 326.745L15.9554 326.526ZM16.6097 323.6V322.6H15.8086L15.6338 323.382L16.6097 323.6ZM23.3903 323.6L24.3662 323.382L24.1914 322.6H23.3903V323.6ZM24.0446 326.526L23.0687 326.745L23.1825 327.254L23.6653 327.452L24.0446 326.526ZM26.4238 327.502L26.0444 328.427L26.5294 328.626L26.9688 328.34L26.4238 327.502ZM28.8625 325.917L29.5782 325.218L29.0053 324.631L28.3175 325.078L28.8625 325.917ZM33.6803 330.855L34.5363 331.372L34.936 330.71L34.3961 330.157L33.6803 330.855ZM32.1338 333.416L31.2778 332.899L31.0164 333.332L31.2101 333.799L32.1338 333.416ZM33.145 335.854L32.2212 336.237L32.4175 336.711L32.9163 336.828L33.145 335.854ZM37 343.475V336.525H35V343.475H37ZM33.3737 345.119L36.2287 344.449L35.7713 342.502L32.9163 343.172L33.3737 345.119ZM33.1249 346.948L34.0766 344.509L32.2134 343.782L31.2617 346.221L33.1249 346.948ZM34.5902 348.558L33.0437 346.058L31.3429 347.111L32.8894 349.61L34.5902 348.558ZM29.6377 354.721L34.4556 349.782L33.024 348.386L28.2062 353.324L29.6377 354.721ZM25.888 353.282L28.3862 354.867L29.4577 353.178L26.9596 351.593L25.888 353.282ZM24.444 354.39L26.8232 353.354L26.0244 351.52L23.6452 352.557L24.444 354.39ZM24.3662 356.618L25.0205 353.692L23.0687 353.255L22.4144 356.182L24.3662 356.618ZM16.6097 357.4H23.3903V355.4H16.6097V357.4ZM14.9795 353.692L15.6338 356.618L17.5856 356.182L16.9313 353.255L14.9795 353.692ZM13.1969 353.423L15.576 354.399L16.3347 352.548L13.9556 351.573L13.1969 353.423ZM11.6825 354.922L14.1212 353.337L13.0312 351.66L10.5926 353.245L11.6825 354.922ZM5.60392 349.843L10.4218 354.782L11.8533 353.385L7.03548 348.447L5.60392 349.843ZM7.01017 346.067L5.46371 348.628L7.1757 349.662L8.72217 347.101L7.01017 346.067ZM5.93128 344.529L6.94243 346.967L8.78991 346.201L7.77876 343.763L5.93128 344.529ZM3.77133 344.449L6.62635 345.119L7.08369 343.172L4.22867 342.502L3.77133 344.449ZM3 336.525V343.475H5V336.525H3ZM6.62635 334.881L3.77133 335.551L4.22867 337.498L7.08369 336.828L6.62635 334.881ZM6.87511 333.052L5.92344 335.491L7.7866 336.218L8.73827 333.779L6.87511 333.052ZM5.40982 331.442L6.95629 333.942L8.6571 332.89L7.11063 330.39L5.40982 331.442ZM10.3623 325.279L5.54444 330.218L6.97601 331.614L11.7938 326.676L10.3623 325.279ZM14.112 326.718L11.6138 325.133L10.5423 326.822L13.0404 328.407L14.112 326.718ZM15.556 325.61L13.1768 326.646L13.9756 328.48L16.3548 327.443L15.556 325.61ZM15.6338 323.382L14.9795 326.308L16.9313 326.745L17.5856 323.818L15.6338 323.382ZM23.3903 322.6H16.6097V324.6H23.3903V322.6ZM25.0205 326.308L24.3662 323.382L22.4144 323.818L23.0687 326.745L25.0205 326.308ZM26.8031 326.577L24.424 325.601L23.6653 327.452L26.0444 328.427L26.8031 326.577ZM28.3175 325.078L25.8788 326.663L26.9688 328.34L29.4074 326.755L28.3175 325.078ZM34.3961 330.157L29.5782 325.218L28.1467 326.615L32.9645 331.553L34.3961 330.157ZM32.9898 333.933L34.5363 331.372L32.8243 330.338L31.2778 332.899L32.9898 333.933ZM34.0687 335.471L33.0576 333.033L31.2101 333.799L32.2212 336.237L34.0687 335.471ZM36.2287 335.551L33.3737 334.881L32.9163 336.828L35.7713 337.498L36.2287 335.551ZM24.5789 339.568C24.5789 342.115 22.5147 344.179 19.9684 344.179V346.179C23.6193 346.179 26.5789 343.219 26.5789 339.568H24.5789ZM19.9684 334.958C22.5147 334.958 24.5789 337.022 24.5789 339.568H26.5789C26.5789 335.918 23.6193 332.958 19.9684 332.958V334.958ZM15.3579 339.568C15.3579 337.022 17.4221 334.958 19.9684 334.958V332.958C16.3175 332.958 13.3579 335.918 13.3579 339.568H15.3579ZM19.9684 344.179C17.4221 344.179 15.3579 342.115 15.3579 339.568H13.3579C13.3579 343.219 16.3175 346.179 19.9684 346.179V344.179Z" fill="#333333" mask="url(#path-45-inside-1_19_1358)"/>
<mask id="path-47-inside-2_19_1358" fill="white">
<path fill-rule="evenodd" clip-rule="evenodd" d="M61.3333 354.232V359.734L59.0731 360.265L58.3197 362.196L59.544 364.175L55.7299 368.084L53.7522 366.829L51.8686 367.65L51.3507 369.967H45.9827L45.4647 367.65L43.5812 366.878L41.6506 368.133L37.8364 364.223L39.0607 362.196L38.2602 360.265L36 359.734V354.232L38.2602 353.701L39.0136 351.771L37.7893 349.792L41.6035 345.882L43.5812 347.137L45.4647 346.317L45.9827 344H51.3507L51.8686 346.317L53.7522 347.089L55.6828 345.834L59.4969 349.744L58.2726 351.771L59.0731 353.701L61.3333 354.232ZM48.6417 361.083C51.0947 361.083 53.0833 359.095 53.0833 356.642C53.0833 354.189 51.0947 352.2 48.6417 352.2C46.1886 352.2 44.2 354.189 44.2 356.642C44.2 359.095 46.1886 361.083 48.6417 361.083Z"/>
</mask>
<path fill-rule="evenodd" clip-rule="evenodd" d="M61.3333 354.232V359.734L59.0731 360.265L58.3197 362.196L59.544 364.175L55.7299 368.084L53.7522 366.829L51.8686 367.65L51.3507 369.967H45.9827L45.4647 367.65L43.5812 366.878L41.6506 368.133L37.8364 364.223L39.0607 362.196L38.2602 360.265L36 359.734V354.232L38.2602 353.701L39.0136 351.771L37.7893 349.792L41.6035 345.882L43.5812 347.137L45.4647 346.317L45.9827 344H51.3507L51.8686 346.317L53.7522 347.089L55.6828 345.834L59.4969 349.744L58.2726 351.771L59.0731 353.701L61.3333 354.232ZM48.6417 361.083C51.0947 361.083 53.0833 359.095 53.0833 356.642C53.0833 354.189 51.0947 352.2 48.6417 352.2C46.1886 352.2 44.2 354.189 44.2 356.642C44.2 359.095 46.1886 361.083 48.6417 361.083Z" fill="url(#paint6_linear_19_1358)"/>
<path d="M61.3333 359.734L61.562 360.708L62.3333 360.527V359.734H61.3333ZM61.3333 354.232H62.3333V353.44L61.562 353.259L61.3333 354.232ZM59.0731 360.265L58.8444 359.292L58.3327 359.412L58.1415 359.902L59.0731 360.265ZM58.3197 362.196L57.3881 361.832L57.2066 362.298L57.4693 362.722L58.3197 362.196ZM59.544 364.175L60.2598 364.873L60.8057 364.314L60.3944 363.649L59.544 364.175ZM55.7299 368.084L55.1941 368.929L55.8791 369.363L56.4456 368.783L55.7299 368.084ZM53.7522 366.829L54.2879 365.985L53.8396 365.701L53.3528 365.913L53.7522 366.829ZM51.8686 367.65L51.4693 366.733L51.0036 366.936L50.8927 367.432L51.8686 367.65ZM51.3507 369.967V370.967H52.1518L52.3266 370.185L51.3507 369.967ZM45.9827 369.967L45.0067 370.185L45.1815 370.967H45.9827V369.967ZM45.4647 367.65L46.4406 367.432L46.3268 366.923L45.844 366.725L45.4647 367.65ZM43.5812 366.878L43.9605 365.952L43.4756 365.754L43.0362 366.039L43.5812 366.878ZM41.6506 368.133L40.9348 368.831L41.5077 369.418L42.1955 368.971L41.6506 368.133ZM37.8364 364.223L36.9804 363.706L36.5807 364.368L37.1206 364.921L37.8364 364.223ZM39.0607 362.196L39.9167 362.713L40.1781 362.28L39.9845 361.813L39.0607 362.196ZM38.2602 360.265L39.184 359.882L38.9877 359.409L38.4889 359.292L38.2602 360.265ZM36 359.734H35V360.527L35.7713 360.708L36 359.734ZM36 354.232L35.7713 353.259L35 353.44V354.232H36ZM38.2602 353.701L38.4889 354.675L39.0007 354.555L39.1918 354.065L38.2602 353.701ZM39.0136 351.771L39.9452 352.134L40.1267 351.669L39.864 351.245L39.0136 351.771ZM37.7893 349.792L37.0736 349.093L36.5276 349.653L36.9389 350.318L37.7893 349.792ZM41.6035 345.882L42.1392 345.038L41.4542 344.603L40.8877 345.184L41.6035 345.882ZM43.5812 347.137L43.0454 347.982L43.4937 348.266L43.9805 348.054L43.5812 347.137ZM45.4647 346.317L45.8641 347.234L46.3298 347.031L46.4406 346.535L45.4647 346.317ZM45.9827 344V343H45.1815L45.0067 343.782L45.9827 344ZM51.3507 344L52.3266 343.782L52.1518 343H51.3507V344ZM51.8686 346.317L50.8927 346.535L51.0066 347.044L51.4893 347.242L51.8686 346.317ZM53.7522 347.089L53.3728 348.014L53.8577 348.213L54.2972 347.927L53.7522 347.089ZM55.6828 345.834L56.3986 345.136L55.8256 344.549L55.1378 344.996L55.6828 345.834ZM59.4969 349.744L60.3529 350.261L60.7526 349.599L60.2127 349.045L59.4969 349.744ZM58.2726 351.771L57.4166 351.254L57.1552 351.687L57.3489 352.154L58.2726 351.771ZM59.0731 353.701L58.1494 354.084L58.3456 354.558L58.8444 354.675L59.0731 353.701ZM62.3333 359.734V354.232H60.3333V359.734H62.3333ZM59.3018 361.239L61.562 360.708L61.1047 358.761L58.8444 359.292L59.3018 361.239ZM59.2513 362.56L60.0047 360.629L58.1415 359.902L57.3881 361.832L59.2513 362.56ZM60.3944 363.649L59.1701 361.67L57.4693 362.722L58.6936 364.701L60.3944 363.649ZM56.4456 368.783L60.2598 364.873L58.8282 363.477L55.0141 367.386L56.4456 368.783ZM53.2164 367.674L55.1941 368.929L56.2656 367.24L54.2879 365.985L53.2164 367.674ZM52.268 368.567L54.1515 367.746L53.3528 365.913L51.4693 366.733L52.268 368.567ZM52.3266 370.185L52.8446 367.868L50.8927 367.432L50.3748 369.748L52.3266 370.185ZM45.9827 370.967H51.3507V368.967H45.9827V370.967ZM44.4888 367.868L45.0067 370.185L46.9586 369.748L46.4406 367.432L44.4888 367.868ZM43.2018 367.803L45.0853 368.575L45.844 366.725L43.9605 365.952L43.2018 367.803ZM42.1955 368.971L44.1262 367.716L43.0362 366.039L41.1056 367.294L42.1955 368.971ZM37.1206 364.921L40.9348 368.831L42.3663 367.434L38.5522 363.525L37.1206 364.921ZM38.2047 361.679L36.9804 363.706L38.6924 364.74L39.9167 362.713L38.2047 361.679ZM37.3365 360.648L38.137 362.579L39.9845 361.813L39.184 359.882L37.3365 360.648ZM35.7713 360.708L38.0316 361.239L38.4889 359.292L36.2287 358.761L35.7713 360.708ZM35 354.232V359.734H37V354.232H35ZM38.0316 352.728L35.7713 353.259L36.2287 355.206L38.4889 354.675L38.0316 352.728ZM38.0821 351.407L37.3286 353.338L39.1918 354.065L39.9452 352.134L38.0821 351.407ZM36.9389 350.318L38.1632 352.297L39.864 351.245L38.6397 349.266L36.9389 350.318ZM40.8877 345.184L37.0736 349.093L38.5051 350.49L42.3193 346.581L40.8877 345.184ZM44.1169 346.293L42.1392 345.038L41.0677 346.727L43.0454 347.982L44.1169 346.293ZM45.0653 345.4L43.1818 346.22L43.9805 348.054L45.8641 347.234L45.0653 345.4ZM45.0067 343.782L44.4888 346.099L46.4406 346.535L46.9586 344.218L45.0067 343.782ZM51.3507 343H45.9827V345H51.3507V343ZM52.8446 346.099L52.3266 343.782L50.3748 344.218L50.8927 346.535L52.8446 346.099ZM54.1315 346.164L52.248 345.391L51.4893 347.242L53.3728 348.014L54.1315 346.164ZM55.1378 344.996L53.2072 346.251L54.2972 347.927L56.2278 346.673L55.1378 344.996ZM60.2127 349.045L56.3986 345.136L54.967 346.532L58.7811 350.442L60.2127 349.045ZM59.1286 352.288L60.3529 350.261L58.6409 349.227L57.4166 351.254L59.1286 352.288ZM59.9969 353.318L59.1964 351.388L57.3489 352.154L58.1494 354.084L59.9969 353.318ZM61.562 353.259L59.3018 352.728L58.8444 354.675L61.1047 355.206L61.562 353.259ZM52.0833 356.642C52.0833 358.542 50.5424 360.083 48.6417 360.083V362.083C51.647 362.083 54.0833 359.647 54.0833 356.642H52.0833ZM48.6417 353.2C50.5424 353.2 52.0833 354.741 52.0833 356.642H54.0833C54.0833 353.636 51.647 351.2 48.6417 351.2V353.2ZM45.2 356.642C45.2 354.741 46.7409 353.2 48.6417 353.2V351.2C45.6363 351.2 43.2 353.636 43.2 356.642H45.2ZM48.6417 360.083C46.7409 360.083 45.2 358.542 45.2 356.642H43.2C43.2 359.647 45.6363 362.083 48.6417 362.083V360.083Z" fill="#333333" mask="url(#path-47-inside-2_19_1358)"/>
<mask id="path-49-inside-3_19_1358" fill="white">
<path fill-rule="evenodd" clip-rule="evenodd" d="M51.2 406.115V416.286L46.9175 417.267L45.49 420.836L47.8097 424.494L40.5829 431.72L36.8357 429.401L33.2669 430.917L32.2855 435.2H22.1145L21.1331 430.917L17.5643 429.49L13.9063 431.81L6.67955 424.583L8.99925 420.836L7.48252 417.267L3.2 416.286V406.115L7.48252 405.133L8.91003 401.564L6.59033 397.906L13.8171 390.68L17.5643 392.999L21.1331 391.483L22.1145 387.2H32.2855L33.2669 391.483L36.8357 392.91L40.4937 390.59L47.7204 397.817L45.4007 401.564L46.9175 405.133L51.2 406.115ZM27.2 419.2C31.6183 419.2 35.2 415.618 35.2 411.2C35.2 406.782 31.6183 403.2 27.2 403.2C22.7817 403.2 19.2 406.782 19.2 411.2C19.2 415.618 22.7817 419.2 27.2 419.2Z"/>
</mask>
<path fill-rule="evenodd" clip-rule="evenodd" d="M51.2 406.115V416.286L46.9175 417.267L45.49 420.836L47.8097 424.494L40.5829 431.72L36.8357 429.401L33.2669 430.917L32.2855 435.2H22.1145L21.1331 430.917L17.5643 429.49L13.9063 431.81L6.67955 424.583L8.99925 420.836L7.48252 417.267L3.2 416.286V406.115L7.48252 405.133L8.91003 401.564L6.59033 397.906L13.8171 390.68L17.5643 392.999L21.1331 391.483L22.1145 387.2H32.2855L33.2669 391.483L36.8357 392.91L40.4937 390.59L47.7204 397.817L45.4007 401.564L46.9175 405.133L51.2 406.115ZM27.2 419.2C31.6183 419.2 35.2 415.618 35.2 411.2C35.2 406.782 31.6183 403.2 27.2 403.2C22.7817 403.2 19.2 406.782 19.2 411.2C19.2 415.618 22.7817 419.2 27.2 419.2Z" fill="#9ADAF3"/>
<path d="M51.2 416.286L51.4234 417.26L52.2 417.082V416.286H51.2ZM51.2 406.115H52.2V405.318L51.4234 405.14L51.2 406.115ZM46.9175 417.267L46.6941 416.292L46.1835 416.409L45.989 416.896L46.9175 417.267ZM45.49 420.836L44.5615 420.464L44.3715 420.939L44.6454 421.371L45.49 420.836ZM47.8097 424.494L48.5168 425.201L49.0831 424.634L48.6542 423.958L47.8097 424.494ZM40.5829 431.72L40.0565 432.571L40.73 432.988L41.29 432.428L40.5829 431.72ZM36.8357 429.401L37.362 428.55L36.9214 428.278L36.4445 428.48L36.8357 429.401ZM33.2669 430.917L32.8758 429.997L32.4062 430.197L32.2922 430.694L33.2669 430.917ZM32.2855 435.2V436.2H33.0823L33.2602 435.423L32.2855 435.2ZM22.1145 435.2L21.1398 435.423L21.3177 436.2H22.1145V435.2ZM21.1331 430.917L22.1078 430.694L21.9908 430.184L21.5045 429.989L21.1331 430.917ZM17.5643 429.49L17.9357 428.561L17.4608 428.372L17.0288 428.645L17.5643 429.49ZM13.9063 431.81L13.1992 432.517L13.7655 433.083L14.4419 432.654L13.9063 431.81ZM6.67955 424.583L5.82929 424.057L5.4124 424.73L5.97244 425.29L6.67955 424.583ZM8.99925 420.836L9.84952 421.362L10.1223 420.921L9.91958 420.445L8.99925 420.836ZM7.48252 417.267L8.40286 416.876L8.20327 416.406L7.7059 416.292L7.48252 417.267ZM3.2 416.286H2.2V417.082L2.97662 417.26L3.2 416.286ZM3.2 406.115L2.97662 405.14L2.2 405.318V406.115H3.2ZM7.48252 405.133L7.7059 406.108L8.21647 405.991L8.411 405.504L7.48252 405.133ZM8.91003 401.564L9.83851 401.936L10.0285 401.461L9.75454 401.029L8.91003 401.564ZM6.59033 397.906L5.88322 397.199L5.31692 397.766L5.74582 398.442L6.59033 397.906ZM13.8171 390.68L14.3435 389.829L13.67 389.412L13.11 389.972L13.8171 390.68ZM17.5643 392.999L17.038 393.85L17.4785 394.122L17.9555 393.92L17.5643 392.999ZM21.1331 391.483L21.5242 392.403L21.9938 392.203L22.1078 391.706L21.1331 391.483ZM22.1145 387.2V386.2H21.3177L21.1398 386.977L22.1145 387.2ZM32.2855 387.2L33.2602 386.977L33.0823 386.2H32.2855V387.2ZM33.2669 391.483L32.2922 391.706L32.4092 392.216L32.8955 392.411L33.2669 391.483ZM36.8357 392.91L36.4643 393.839L36.9392 394.029L37.3712 393.755L36.8357 392.91ZM40.4937 390.59L41.2008 389.883L40.6345 389.317L39.9581 389.746L40.4937 390.59ZM47.7204 397.817L48.5707 398.343L48.9876 397.67L48.4276 397.11L47.7204 397.817ZM45.4007 401.564L44.5505 401.038L44.2777 401.479L44.4804 401.955L45.4007 401.564ZM46.9175 405.133L45.9971 405.524L46.1967 405.994L46.6941 406.108L46.9175 405.133ZM52.2 416.286V406.115H50.2V416.286H52.2ZM47.1408 418.242L51.4234 417.26L50.9766 415.311L46.6941 416.292L47.1408 418.242ZM46.4184 421.207L47.8459 417.638L45.989 416.896L44.5615 420.464L46.4184 421.207ZM48.6542 423.958L46.3345 420.3L44.6454 421.371L46.9652 425.029L48.6542 423.958ZM41.29 432.428L48.5168 425.201L47.1026 423.787L39.8758 431.013L41.29 432.428ZM36.3093 430.251L40.0565 432.571L41.1093 430.87L37.362 428.55L36.3093 430.251ZM33.6581 431.838L37.2268 430.321L36.4445 428.48L32.8758 429.997L33.6581 431.838ZM33.2602 435.423L34.2416 431.141L32.2922 430.694L31.3108 434.977L33.2602 435.423ZM22.1145 436.2H32.2855V434.2H22.1145V436.2ZM20.1584 431.141L21.1398 435.423L23.0892 434.977L22.1078 430.694L20.1584 431.141ZM17.1929 430.418L20.7617 431.846L21.5045 429.989L17.9357 428.561L17.1929 430.418ZM14.4419 432.654L18.0999 430.334L17.0288 428.645L13.3708 430.965L14.4419 432.654ZM5.97244 425.29L13.1992 432.517L14.6134 431.103L7.38666 423.876L5.97244 425.29ZM8.14899 420.309L5.82929 424.057L7.52982 425.109L9.84952 421.362L8.14899 420.309ZM6.56219 417.658L8.07892 421.227L9.91958 420.445L8.40286 416.876L6.56219 417.658ZM2.97662 417.26L7.25915 418.242L7.7059 416.292L3.42337 415.311L2.97662 417.26ZM2.2 406.115V416.286H4.2V406.115H2.2ZM7.25915 404.158L2.97662 405.14L3.42337 407.089L7.7059 406.108L7.25915 404.158ZM7.98156 401.193L6.55405 404.762L8.411 405.504L9.83851 401.936L7.98156 401.193ZM5.74582 398.442L8.06553 402.1L9.75454 401.029L7.43484 397.371L5.74582 398.442ZM13.11 389.972L5.88322 397.199L7.29744 398.613L14.5242 391.387L13.11 389.972ZM18.0907 392.149L14.3435 389.829L13.2907 391.53L17.038 393.85L18.0907 392.149ZM20.7419 390.562L17.1732 392.079L17.9555 393.92L21.5242 392.403L20.7419 390.562ZM21.1398 386.977L20.1584 391.259L22.1078 391.706L23.0892 387.423L21.1398 386.977ZM32.2855 386.2H22.1145V388.2H32.2855V386.2ZM34.2416 391.259L33.2602 386.977L31.3108 387.423L32.2922 391.706L34.2416 391.259ZM37.2071 391.982L33.6383 390.554L32.8955 392.411L36.4643 393.839L37.2071 391.982ZM39.9581 389.746L36.3001 392.066L37.3712 393.755L41.0292 391.435L39.9581 389.746ZM48.4276 397.11L41.2008 389.883L39.7866 391.297L47.0133 398.524L48.4276 397.11ZM46.251 402.091L48.5707 398.343L46.8702 397.291L44.5505 401.038L46.251 402.091ZM47.8378 404.742L46.3211 401.173L44.4804 401.955L45.9971 405.524L47.8378 404.742ZM51.4234 405.14L47.1408 404.158L46.6941 406.108L50.9766 407.089L51.4234 405.14ZM34.2 411.2C34.2 415.066 31.066 418.2 27.2 418.2V420.2C32.1706 420.2 36.2 416.171 36.2 411.2H34.2ZM27.2 404.2C31.066 404.2 34.2 407.334 34.2 411.2H36.2C36.2 406.229 32.1706 402.2 27.2 402.2V404.2ZM20.2 411.2C20.2 407.334 23.334 404.2 27.2 404.2V402.2C22.2294 402.2 18.2 406.229 18.2 411.2H20.2ZM27.2 418.2C23.334 418.2 20.2 415.066 20.2 411.2H18.2C18.2 416.171 22.2294 420.2 27.2 420.2V418.2Z" fill="#333333" mask="url(#path-49-inside-3_19_1358)"/>
<path d="M61.2961 411.376L54.1563 418.516L48.1806 416.886L46.5508 410.91L53.6906 403.771C49.8879 402.684 45.6195 403.615 42.5929 406.642C38.2469 410.988 38.2469 418.128 42.5929 422.474C46.9389 426.82 54.0787 426.82 58.4247 422.474C61.4513 419.447 62.3826 415.179 61.2961 411.376Z" fill="#CCCCCC" stroke="#333333" stroke-miterlimit="10" stroke-linecap="round" stroke-linejoin="round"/>
<path d="M40.1526 418.313L39.799 417.96L39.4455 418.313L21.4378 436.321C19.9408 437.818 19.9408 440.245 21.4378 441.742L23.512 443.816C25.009 445.313 27.4361 445.313 28.9331 443.816L46.9408 425.808L47.2944 425.455L46.9408 425.101L40.1526 418.313Z" fill="url(#paint7_linear_19_1358)" stroke="#333333"/>
<path d="M28.3 439.2C28.3 440.249 27.4493 441.1 26.4 441.1C25.3507 441.1 24.5 440.249 24.5 439.2C24.5 438.151 25.3507 437.3 26.4 437.3C27.4493 437.3 28.3 438.151 28.3 439.2Z" fill="white" stroke="#333333" stroke-miterlimit="10" stroke-linecap="round" stroke-linejoin="round"/>
<path d="M14.4999 454.662L14.4999 454.661C14.4941 452.432 16.5948 450.5 19.3067 450.5H46.6864C49.3979 450.5 51.4999 452.432 51.4999 454.662V505.338C51.4999 507.562 49.3974 509.5 46.6864 509.5H19.3067C16.6024 509.5 14.4999 507.568 14.4999 505.338L14.4999 454.662Z" fill="#CCCCCC" stroke="#333333"/>
<path d="M25.9999 456H31.9999H37.9999" stroke="#333333" stroke-linecap="round"/>
<path d="M45.4998 472.162V498.082C45.4998 498.462 45.3388 498.812 45.0644 499.074C44.7897 499.337 44.4124 499.5 43.9926 499.5H22.007C21.5872 499.5 21.2099 499.337 20.9352 499.074C20.6608 498.812 20.4998 498.462 20.4998 498.082V470.157C21.333 469.361 22.1622 468.572 22.9906 467.783C24.1369 466.692 25.2814 465.602 26.4325 464.5H43.9926C44.4124 464.5 44.7897 464.662 45.0644 464.925C45.3388 465.187 45.4998 465.537 45.4998 465.917V472.162Z" fill="#F2F2F2" stroke="#333333"/>
<path d="M25.9998 476H32.9998H39.9998" stroke="#666666" stroke-linecap="round"/>
<path d="M29.9998 472L34.4798 472L38.9598 472" stroke="#FF6F3D" stroke-linecap="round"/>
<path d="M33.9998 494H38.9926H39.9998" stroke="#FF6F3D" stroke-linecap="round"/>
<path d="M25.9998 494H29.9998" stroke="#FF6F3D" stroke-linecap="round"/>
<path d="M25.9998 480H32.9998H39.9998" stroke="#666666" stroke-linecap="round"/>
<path d="M25.9998 484H32.9998H39.9998" stroke="#666666" stroke-linecap="round"/>
<path d="M25.9998 488H32.9998H39.9998" stroke="#666666" stroke-linecap="round"/>
<path fill-rule="evenodd" clip-rule="evenodd" d="M25.6902 472C26.9621 472 27.9998 470.963 27.9998 469.692V464.241C27.9998 464.152 27.8921 464.107 27.8291 464.17L20.1707 471.82C20.1077 471.883 20.1523 471.991 20.2414 471.991H25.6902V472Z" fill="#333333"/>
<defs>
<linearGradient id="paint0_linear_19_1358" x1="4.00011" y1="4.74845" x2="31.354" y2="53.5391" gradientUnits="userSpaceOnUse">
<stop stop-color="#FFC671"/>
<stop offset="0.59375" stop-color="#FF7541"/>
<stop offset="1" stop-color="#FF6F3D"/>
</linearGradient>
<linearGradient id="paint1_linear_19_1358" x1="31.0001" y1="96.1797" x2="49.9764" y2="126.225" gradientUnits="userSpaceOnUse">
<stop stop-color="#FFC671"/>
<stop offset="0.59375" stop-color="#FF7541"/>
<stop offset="1" stop-color="#FF6F3D"/>
</linearGradient>
<linearGradient id="paint2_linear_19_1358" x1="35.003" y1="156.906" x2="63.003" y2="186" gradientUnits="userSpaceOnUse">
<stop stop-color="#FF8E3D"/>
<stop offset="1" stop-color="#FF6F3D"/>
</linearGradient>
<linearGradient id="paint3_linear_19_1358" x1="5.0001" y1="193.307" x2="15.1958" y2="225.572" gradientUnits="userSpaceOnUse">
<stop stop-color="#FF8E3D"/>
<stop offset="1" stop-color="#FF6F3D"/>
</linearGradient>
<linearGradient id="paint4_linear_19_1358" x1="5.0001" y1="213.582" x2="16.0433" y2="246.858" gradientUnits="userSpaceOnUse">
<stop stop-color="#FF8E3D"/>
<stop offset="1" stop-color="#FF6F3D"/>
</linearGradient>
<linearGradient id="paint5_linear_19_1358" x1="23.7038" y1="295.787" x2="31.4845" y2="319.306" gradientUnits="userSpaceOnUse">
<stop stop-color="#FF8E3D"/>
<stop offset="1" stop-color="#FF6F3D"/>
</linearGradient>
<linearGradient id="paint6_linear_19_1358" x1="36" y1="342.986" x2="61.9834" y2="369.325" gradientUnits="userSpaceOnUse">
<stop stop-color="#FF8E3D"/>
<stop offset="1" stop-color="#FF6F3D"/>
</linearGradient>
<linearGradient id="paint7_linear_19_1358" x1="43.1931" y1="422.061" x2="22.8285" y2="442.425" gradientUnits="userSpaceOnUse">
<stop stop-color="#FF8E3D"/>
<stop offset="1" stop-color="#FF6F3D"/>
</linearGradient>
</defs>
</svg>
