<svg width="49" height="398" viewBox="0 0 49 398" fill="none" xmlns="http://www.w3.org/2000/svg">
<mask id="path-1-outside-1_68_1522" maskUnits="userSpaceOnUse" x="1.87109" y="24.2769" width="43" height="22" fill="black">
<rect fill="white" x="1.87109" y="24.2769" width="43" height="22"/>
<path d="M18.9783 44.9999C18.7795 44.9997 18.5829 44.96 18.4006 44.8831L13.4689 42.8999C13.1054 42.7543 12.8173 42.4734 12.6691 42.1201C12.5227 41.7714 12.5291 41.3799 12.6868 41.0359L13.8613 38.2819C12.7055 37.4293 11.6742 36.4286 10.7956 35.3072L7.93081 36.4548C7.57397 36.5995 7.17215 36.5988 6.81582 36.453C6.45969 36.3104 6.17627 36.0369 6.02756 35.6921L3.98517 30.8863C3.67577 30.1735 4.01721 29.3522 4.74978 29.0469C5.59731 28.7081 7.74206 27.4972 10.0646 26.7463C12.3872 25.9953 13.5485 27.1217 14.0673 28.6236C16.272 35.0065 28.3924 38.1256 32.5163 30.1255C32.741 29.6895 33.303 28.2548 33.9178 27.1936C34.4517 26.3708 35.2463 25.9759 36.6005 26.5439C37.9717 27.1189 39.737 27.9025 40.5512 28.2222L42.577 29.0403C42.9375 29.1831 43.2231 29.4613 43.3687 29.8116C43.5147 30.1581 43.5137 30.5465 43.3661 30.8923L41.3153 35.6892C41.1674 36.04 40.8801 36.3183 40.5183 36.4614C40.1566 36.6045 39.7506 36.6004 39.392 36.4501L36.5463 35.3076C35.6693 36.4283 34.6382 37.4273 33.4818 38.2767L34.6634 41.0532C34.8154 41.3929 34.819 41.7778 34.6734 42.1202C34.5249 42.4745 34.2357 42.7559 33.871 42.9012L28.9317 44.8876C28.5739 45.033 28.1711 45.0334 27.813 44.889C27.4549 44.7445 27.1712 44.4671 27.0253 44.1186L25.8386 41.3463C24.4016 41.5407 22.9438 41.5427 21.5062 41.3522L20.3246 44.122C20.1007 44.652 19.5688 44.9986 18.9783 44.9999Z"/>
</mask>
<path d="M18.9783 44.9999C18.7795 44.9997 18.5829 44.96 18.4006 44.8831L13.4689 42.8999C13.1054 42.7543 12.8173 42.4734 12.6691 42.1201C12.5227 41.7714 12.5291 41.3799 12.6868 41.0359L13.8613 38.2819C12.7055 37.4293 11.6742 36.4286 10.7956 35.3072L7.93081 36.4548C7.57397 36.5995 7.17215 36.5988 6.81582 36.453C6.45969 36.3104 6.17627 36.0369 6.02756 35.6921L3.98517 30.8863C3.67577 30.1735 4.01721 29.3522 4.74978 29.0469C5.59731 28.7081 7.74206 27.4972 10.0646 26.7463C12.3872 25.9953 13.5485 27.1217 14.0673 28.6236C16.272 35.0065 28.3924 38.1256 32.5163 30.1255C32.741 29.6895 33.303 28.2548 33.9178 27.1936C34.4517 26.3708 35.2463 25.9759 36.6005 26.5439C37.9717 27.1189 39.737 27.9025 40.5512 28.2222L42.577 29.0403C42.9375 29.1831 43.2231 29.4613 43.3687 29.8116C43.5147 30.1581 43.5137 30.5465 43.3661 30.8923L41.3153 35.6892C41.1674 36.04 40.8801 36.3183 40.5183 36.4614C40.1566 36.6045 39.7506 36.6004 39.392 36.4501L36.5463 35.3076C35.6693 36.4283 34.6382 37.4273 33.4818 38.2767L34.6634 41.0532C34.8154 41.3929 34.819 41.7778 34.6734 42.1202C34.5249 42.4745 34.2357 42.7559 33.871 42.9012L28.9317 44.8876C28.5739 45.033 28.1711 45.0334 27.813 44.889C27.4549 44.7445 27.1712 44.4671 27.0253 44.1186L25.8386 41.3463C24.4016 41.5407 22.9438 41.5427 21.5062 41.3522L20.3246 44.122C20.1007 44.652 19.5688 44.9986 18.9783 44.9999Z" fill="#EFEFEF"/>
<path d="M41.9745 30.9531H41.9756V29.9531H41.9745V30.9531ZM18.9783 44.9999L18.9773 45.9999L18.9805 45.9999L18.9783 44.9999ZM18.4006 44.8831L18.7891 43.9617L18.7814 43.9584L18.7737 43.9553L18.4006 44.8831ZM13.4689 42.8999L13.842 41.9721L13.8407 41.9716L13.4689 42.8999ZM12.6691 42.1201L13.5913 41.7334L13.5911 41.7329L12.6691 42.1201ZM12.6868 41.0359L13.5958 41.4526L13.6014 41.4405L13.6066 41.4282L12.6868 41.0359ZM13.8613 38.2819L14.7811 38.6742L15.0914 37.9467L14.4549 37.4772L13.8613 38.2819ZM10.7956 35.3072L11.5828 34.6904L11.1201 34.0999L10.4237 34.3789L10.7956 35.3072ZM7.93081 36.4548L7.55894 35.5265L7.55515 35.5281L7.93081 36.4548ZM6.81582 36.453L7.19456 35.5274L7.18742 35.5246L6.81582 36.453ZM6.02756 35.6921L5.1072 36.0833L5.10935 36.0882L6.02756 35.6921ZM3.98517 30.8863L4.90554 30.4951L4.90247 30.4881L3.98517 30.8863ZM4.74978 29.0469L4.37857 28.1184L4.37186 28.1211L4.36518 28.1239L4.74978 29.0469ZM32.5163 30.1255L33.4051 30.5837L32.5163 30.1255ZM40.5512 28.2222L40.9256 27.2949L40.9167 27.2914L40.5512 28.2222ZM42.577 29.0403L42.2025 29.9675L42.2087 29.97L42.577 29.0403ZM43.3687 29.8116L42.4454 30.1955L42.4471 30.1998L43.3687 29.8116ZM43.3661 30.8923L44.2856 31.2854L44.2857 31.285L43.3661 30.8923ZM41.3153 35.6892L40.3958 35.2961L40.3939 35.3006L41.3153 35.6892ZM40.5183 36.4614L40.8862 37.3913L40.8862 37.3913L40.5183 36.4614ZM39.392 36.4501L39.7786 35.5278L39.7716 35.5249L39.7645 35.5221L39.392 36.4501ZM36.5463 35.3076L36.9189 34.3796L36.2218 34.0998L35.7588 34.6913L36.5463 35.3076ZM33.4818 38.2767L32.8898 37.4708L32.2516 37.9396L32.5617 38.6683L33.4818 38.2767ZM34.6634 41.0532L33.7433 41.4448L33.7469 41.4532L33.7506 41.4615L34.6634 41.0532ZM34.6734 42.1202L33.7531 41.7289L33.7512 41.7336L34.6734 42.1202ZM33.871 42.9012L33.5011 41.9721L33.4979 41.9734L33.871 42.9012ZM28.9317 44.8876L28.5585 43.9598L28.5552 43.9612L28.9317 44.8876ZM27.813 44.889L28.1871 43.9616L28.1871 43.9616L27.813 44.889ZM27.0253 44.1186L27.9476 43.7323L27.9446 43.7251L27.0253 44.1186ZM25.8386 41.3463L26.7579 40.9528L26.4585 40.2533L25.7045 40.3553L25.8386 41.3463ZM21.5062 41.3522L21.6376 40.3609L20.8845 40.2611L20.5864 40.9598L21.5062 41.3522ZM20.3246 44.122L19.4048 43.7296L19.4035 43.7327L20.3246 44.122ZM36.6005 26.5439L36.2138 27.466L36.6005 26.5439ZM33.9178 27.1936L33.079 26.6492L33.0652 26.6704L33.0526 26.6922L33.9178 27.1936ZM18.9792 43.9999C18.913 43.9999 18.8481 43.9866 18.7891 43.9617L18.012 45.8045C18.3176 45.9334 18.6461 45.9996 18.9773 45.9999L18.9792 43.9999ZM18.7737 43.9553L13.842 41.9721L13.0958 43.8277L18.0275 45.8109L18.7737 43.9553ZM13.8407 41.9716C13.7196 41.9231 13.6334 41.8337 13.5913 41.7334L11.7469 42.5068C12.0012 43.1131 12.4911 43.5856 13.0971 43.8282L13.8407 41.9716ZM13.5911 41.7329C13.5531 41.6424 13.5546 41.5425 13.5958 41.4526L11.7777 40.6192C11.5036 41.2174 11.4923 41.9004 11.7471 42.5072L13.5911 41.7329ZM13.6066 41.4282L14.7811 38.6742L12.9414 37.8896L11.7669 40.6436L13.6066 41.4282ZM14.4549 37.4772C13.3712 36.6777 12.4052 35.7401 11.5828 34.6904L10.0084 35.9239C10.9432 37.117 12.0397 38.1808 13.2676 39.0866L14.4549 37.4772ZM10.4237 34.3789L7.55894 35.5265L8.30268 37.3831L11.1675 36.2355L10.4237 34.3789ZM7.55515 35.5281C7.44028 35.5746 7.3092 35.5744 7.19455 35.5275L6.43708 37.3785C7.03509 37.6232 7.70767 37.6243 8.30647 37.3816L7.55515 35.5281ZM7.18742 35.5246C7.0707 35.4779 6.98725 35.3922 6.94576 35.296L5.10935 36.0882C5.36528 36.6815 5.84868 37.143 6.44421 37.3814L7.18742 35.5246ZM6.94789 35.301L4.90551 30.4951L3.06483 31.2774L5.10722 36.0833L6.94789 35.301ZM4.90247 30.4881C4.82337 30.3058 4.89802 30.0685 5.13439 29.97L4.36518 28.1239C3.13639 28.6358 2.52817 30.0412 3.06787 31.2845L4.90247 30.4881ZM40.1767 29.1494L42.2026 29.9675L42.9515 28.113L40.9256 27.2949L40.1767 29.1494ZM42.2087 29.97C42.3243 30.0158 42.406 30.1008 42.4454 30.1955L44.2921 29.4276C44.0402 28.8218 43.5507 28.3504 42.9453 28.1106L42.2087 29.97ZM42.4471 30.1998C42.4879 30.2964 42.4876 30.403 42.4464 30.4996L44.2857 31.285C44.5398 30.6899 44.5415 30.0197 44.2903 29.4234L42.4471 30.1998ZM42.4466 30.4992L40.3958 35.2961L42.2348 36.0823L44.2856 31.2854L42.4466 30.4992ZM40.3939 35.3006C40.3529 35.3979 40.2688 35.4847 40.1505 35.5315L40.8862 37.3913C41.4915 37.1518 41.9818 36.6821 42.2367 36.0779L40.3939 35.3006ZM40.1505 35.5315C40.0314 35.5786 39.8963 35.5772 39.7786 35.5278L39.0053 37.3723C39.605 37.6237 40.2817 37.6304 40.8862 37.3913L40.1505 35.5315ZM39.7645 35.5221L36.9189 34.3796L36.1738 36.2356L39.0194 37.3781L39.7645 35.5221ZM35.7588 34.6913C34.9385 35.7396 33.9733 36.6749 32.8898 37.4708L34.0738 39.0827C35.3031 38.1797 36.4001 37.1171 37.3338 35.924L35.7588 34.6913ZM32.5617 38.6683L33.7433 41.4448L35.5836 40.6616L34.402 37.8851L32.5617 38.6683ZM33.7506 41.4615C33.789 41.5474 33.7898 41.6426 33.7532 41.7289L35.5937 42.5114C35.8481 41.913 35.8417 41.2384 35.5763 40.6449L33.7506 41.4615ZM33.7512 41.7336C33.709 41.8342 33.6225 41.9237 33.5011 41.9721L34.2409 43.8302C34.849 43.5881 35.3409 43.1147 35.5957 42.5067L33.7512 41.7336ZM33.4979 41.9734L28.5585 43.9598L29.3048 45.8154L34.2441 43.8289L33.4979 41.9734ZM28.5552 43.9612C28.4381 44.0088 28.3044 44.0089 28.1871 43.9616L27.4389 45.8164C28.0378 46.058 28.7098 46.0571 29.3081 45.8141L28.5552 43.9612ZM28.1871 43.9616C28.0706 43.9146 27.9879 43.8285 27.9476 43.7323L26.1029 44.5049C26.3545 45.1058 26.8392 45.5745 27.4389 45.8164L28.1871 43.9616ZM27.9446 43.7251L26.7579 40.9528L24.9193 41.7398L26.1059 44.5121L27.9446 43.7251ZM25.7045 40.3553C24.3556 40.5378 22.9871 40.5397 21.6376 40.3609L21.3749 42.3436C22.9006 42.5457 24.4476 42.5436 25.9727 42.3372L25.7045 40.3553ZM20.5864 40.9598L19.4048 43.7296L21.2444 44.5144L22.426 41.7446L20.5864 40.9598ZM19.4035 43.7327C19.3411 43.8804 19.1798 43.9995 18.976 43.9999L18.9805 45.9999C19.9579 45.9977 20.8602 45.4236 21.2458 44.5112L19.4035 43.7327ZM36.2138 27.466C37.5423 28.0232 39.3623 28.8297 40.1857 29.153L40.9167 27.2914C40.1117 26.9753 38.4011 26.2146 36.9872 25.6217L36.2138 27.466ZM33.4051 30.5837C33.5333 30.3349 33.7593 29.8012 33.9828 29.3041C34.2254 28.7646 34.5025 28.1792 34.7831 27.6949L33.0526 26.6922C32.7183 27.2692 32.407 27.9317 32.1587 28.4839C31.8913 29.0785 31.7239 29.48 31.6274 29.6673L33.4051 30.5837ZM34.7567 27.7379C34.9418 27.4526 35.1025 27.346 35.2393 27.3049C35.381 27.2623 35.6707 27.2383 36.2138 27.466L36.9872 25.6217C36.1761 25.2815 35.3914 25.1709 34.6638 25.3895C33.9312 25.6096 33.4277 26.1118 33.079 26.6492L34.7567 27.7379ZM5.121 29.9755C5.57893 29.7924 6.41411 29.3635 7.27998 28.9559C8.19721 28.5241 9.27002 28.0542 10.3723 27.6978L9.757 25.7948C8.53668 26.1893 7.37583 26.7003 6.42816 27.1464C5.42913 27.6167 4.76817 27.9626 4.37857 28.1184L5.121 29.9755ZM13.1221 28.9501C14.3839 32.6031 18.3651 35.1436 22.4226 35.7569C26.5382 36.3791 31.0926 35.0698 33.4051 30.5837L31.6274 29.6673C29.816 33.1813 26.2483 34.3125 22.7215 33.7794C19.1367 33.2375 15.9554 31.027 15.0125 28.2971L13.1221 28.9501ZM10.3723 27.6978C11.3432 27.3839 11.9038 27.5093 12.2396 27.7045C12.6025 27.9156 12.9067 28.3266 13.1221 28.9501L15.0125 28.2971C14.7091 27.4187 14.1733 26.5156 13.2452 25.9757C12.2899 25.4201 11.1087 25.3577 9.757 25.7948L10.3723 27.6978Z" fill="#333333" mask="url(#path-1-outside-1_68_1522)"/>
<mask id="path-3-outside-2_68_1522" maskUnits="userSpaceOnUse" x="2.09668" y="3.5" width="45" height="27" fill="black">
<rect fill="white" x="2.09668" y="3.5" width="45" height="27"/>
<path d="M38.9323 28.5297H12.3217C7.22685 28.5297 3.09668 24.5337 3.09668 19.6044C3.09668 14.6751 7.22685 10.6791 12.3217 10.6791C12.382 10.6791 12.4419 10.6794 12.5011 10.6807C14.1934 6.92685 18.0239 4.5 22.2568 4.5C26.4897 4.5 30.3202 6.92685 32.0124 10.6807C35.2248 10.7508 38.0967 12.6356 39.3518 15.4975C42.9878 15.7149 45.7874 18.6877 45.674 22.2105C45.5606 25.7332 42.5751 28.5316 38.9323 28.5297Z"/>
</mask>
<path d="M38.9323 28.5297H12.3217C7.22685 28.5297 3.09668 24.5337 3.09668 19.6044C3.09668 14.6751 7.22685 10.6791 12.3217 10.6791C12.382 10.6791 12.4419 10.6794 12.5011 10.6807C14.1934 6.92685 18.0239 4.5 22.2568 4.5C26.4897 4.5 30.3202 6.92685 32.0124 10.6807C35.2248 10.7508 38.0967 12.6356 39.3518 15.4975C42.9878 15.7149 45.7874 18.6877 45.674 22.2105C45.5606 25.7332 42.5751 28.5316 38.9323 28.5297Z" fill="url(#paint0_linear_68_1522)"/>
<path d="M38.9323 28.5297L38.9328 27.5297H38.9323V28.5297ZM12.5011 10.6807L12.4791 11.6805L13.1408 11.6951L13.4128 11.0917L12.5011 10.6807ZM32.0124 10.6807L31.1008 11.0917L31.36 11.6667L31.9906 11.6805L32.0124 10.6807ZM39.3518 15.4975L38.436 15.8991L38.6817 16.4592L39.2921 16.4957L39.3518 15.4975ZM38.9323 27.5297H12.3217V29.5297H38.9323V27.5297ZM12.3217 27.5297C7.74775 27.5297 4.09668 23.9506 4.09668 19.6044H2.09668C2.09668 25.1169 6.70595 29.5297 12.3217 29.5297V27.5297ZM4.09668 19.6044C4.09668 15.2582 7.74775 11.6791 12.3217 11.6791V9.67908C6.70595 9.67908 2.09668 14.0919 2.09668 19.6044H4.09668ZM12.3217 11.6791C12.3787 11.6791 12.4304 11.6794 12.4791 11.6805L12.5232 9.68097C12.4534 9.67944 12.3853 9.67908 12.3217 9.67908V11.6791ZM13.4128 11.0917C14.9376 7.70916 18.4029 5.5 22.2568 5.5V3.5C17.6449 3.5 13.4491 6.14455 11.5895 10.2698L13.4128 11.0917ZM22.2568 5.5C26.1107 5.5 29.576 7.70916 31.1008 11.0917L32.9241 10.2698C31.0645 6.14455 26.8687 3.5 22.2568 3.5V5.5ZM31.9906 11.6805C34.8282 11.7424 37.3428 13.4063 38.436 15.8991L40.2676 15.0958C38.8507 11.8649 35.6215 9.75923 32.0342 9.68097L31.9906 11.6805ZM39.2921 16.4957C42.4174 16.6826 44.7696 19.2262 44.6745 22.1783L46.6735 22.2426C46.8053 18.1491 43.5581 14.7472 39.4115 14.4992L39.2921 16.4957ZM44.6745 22.1783C44.5794 25.132 42.0656 27.5314 38.9328 27.5297L38.9317 29.5297C43.0846 29.5319 46.5417 26.3345 46.6735 22.2426L44.6745 22.1783Z" fill="#333333" mask="url(#path-3-outside-2_68_1522)"/>
<path fill-rule="evenodd" clip-rule="evenodd" d="M12.2121 23.688C12.3576 23.8836 12.5911 23.9997 12.8399 24C13.1733 24 13.4691 23.7933 13.5744 23.487L14.6883 20.25H17.1852L18.2991 23.487C18.4044 23.7933 18.7003 24 19.0336 24C19.2824 23.9997 19.5159 23.8836 19.6614 23.688C19.8068 23.4925 19.8465 23.2411 19.768 23.0124L16.6733 14.019C16.6703 14.0098 16.667 14.0008 16.6636 13.9918C16.6226 13.8833 16.5581 13.7893 16.4777 13.7134C16.4071 13.6465 16.3223 13.5919 16.2259 13.5544C16.135 13.5189 16.0369 13.5 15.9368 13.5C15.7337 13.5 15.5393 13.5779 15.3958 13.7134C15.3154 13.7893 15.2509 13.8833 15.2099 13.9918C15.2065 14.0008 15.2032 14.0099 15.2001 14.0191L12.1055 23.0124C12.027 23.2411 12.0667 23.4925 12.2121 23.688ZM15.9368 16.6219L16.6691 18.75H15.2045L15.9368 16.6219ZM20.582 23.2498C20.582 23.6639 20.9286 23.9997 21.3562 23.9997C21.7838 23.9997 22.1304 23.6639 22.1304 23.2498V19.5H24.453C26.1633 19.5 27.5498 18.1569 27.5498 16.5002C27.5498 14.8434 26.1633 13.5004 24.453 13.5004H21.3562C20.9286 13.5004 20.582 13.8361 20.582 14.2503V18.75V23.2498ZM24.453 18.0001H22.1304V15.0003H24.453C25.3081 15.0003 26.0014 15.6718 26.0014 16.5002C26.0014 17.3286 25.3081 18.0001 24.453 18.0001ZM29.8723 22.4999V15.0003H28.3239C27.8963 15.0003 27.5497 14.6645 27.5497 14.2503C27.5497 13.8361 27.8963 13.5004 28.3239 13.5004H30.6466H32.9691C33.3967 13.5004 33.7433 13.8361 33.7433 14.2503C33.7433 14.6645 33.3967 15.0003 32.9691 15.0003H31.4208V22.4999H32.9692C33.3968 22.4999 33.7434 22.8356 33.7434 23.2498C33.7434 23.664 33.3968 23.9997 32.9692 23.9997H28.324C27.8964 23.9997 27.5498 23.664 27.5498 23.2498C27.5498 22.8356 27.8964 22.4999 28.324 22.4999H29.8723Z" fill="white"/>
<rect x="1" y="55.5" width="41.5" height="28" rx="1.5" fill="#EFEFEF" stroke="#333333"/>
<rect x="4.5" y="59" width="34.5" height="1.5" rx="0.75" fill="#333333"/>
<path d="M15.526 71.2242C15.5484 71.6119 15.6265 71.9696 15.7605 72.2973C15.9 72.6195 16.0814 72.898 16.3047 73.1328C16.5335 73.3676 16.7986 73.5505 17.1 73.6816C17.4014 73.8072 17.7335 73.87 18.0963 73.87C18.4144 73.87 18.7186 73.8372 19.0088 73.7717C19.2991 73.7061 19.5558 73.6024 19.7791 73.4604C20.0023 73.313 20.1809 73.1218 20.3149 72.887C20.4488 72.6468 20.5158 72.3546 20.5158 72.0106C20.5158 71.6993 20.4181 71.4372 20.2228 71.2242C20.033 71.0113 19.7819 70.8283 19.4693 70.6754C19.1567 70.5171 18.7995 70.3751 18.3977 70.2495C17.9958 70.1184 17.5856 69.9846 17.167 69.8481C16.754 69.7116 16.3465 69.5587 15.9447 69.3894C15.5428 69.2147 15.1856 69.0017 14.873 68.7505C14.5605 68.4993 14.3065 68.199 14.1112 67.8495C13.9214 67.5 13.8265 67.0795 13.8265 66.5881C13.8265 66.0857 13.927 65.6433 14.1279 65.2611C14.3288 64.8734 14.6107 64.5512 14.9735 64.2945C15.3419 64.0324 15.7772 63.8358 16.2795 63.7048C16.7819 63.5683 17.3344 63.5 17.9372 63.5C18.473 63.5 18.9474 63.5546 19.3605 63.6638C19.7735 63.7676 20.1335 63.9096 20.4405 64.0898C20.753 64.27 21.0153 64.4829 21.2274 64.7287C21.4395 64.9744 21.6126 65.2365 21.7465 65.515C21.886 65.7881 21.9893 66.0747 22.0563 66.3751C22.1233 66.67 22.1679 66.9594 22.1902 67.2433H20.1893C20.1558 66.8775 20.0721 66.5608 19.9381 66.2932C19.8098 66.0256 19.6451 65.8044 19.4442 65.6297C19.2488 65.4549 19.02 65.3266 18.7577 65.2447C18.5009 65.1573 18.2274 65.1137 17.9372 65.1137C17.6749 65.1137 17.4153 65.141 17.1586 65.1956C16.9074 65.2447 16.6814 65.3266 16.4805 65.4413C16.2795 65.556 16.1177 65.7089 15.9949 65.9C15.8721 66.0857 15.8107 66.315 15.8107 66.5881C15.8107 66.9048 15.9056 67.1724 16.0953 67.3908C16.2907 67.6038 16.5447 67.7922 16.8572 67.956C17.1698 68.1198 17.527 68.2672 17.9288 68.3983C18.3307 68.5239 18.7381 68.6577 19.1512 68.7997C19.5698 68.9362 19.98 69.0918 20.3819 69.2666C20.7837 69.4358 21.1409 69.6433 21.4535 69.8891C21.766 70.1348 22.0172 70.4297 22.207 70.7737C22.4023 71.1177 22.5 71.53 22.5 72.0106C22.5 72.5894 22.3884 73.0973 22.1651 73.5341C21.9474 73.9655 21.6433 74.3287 21.2526 74.6235C20.8619 74.913 20.3958 75.1314 19.8544 75.2788C19.3186 75.4263 18.7326 75.5 18.0963 75.5C17.5214 75.5 16.9605 75.4017 16.4135 75.2051C15.8721 75.0085 15.3865 74.7273 14.9567 74.3614C14.5326 73.9901 14.1865 73.5396 13.9186 73.0099C13.6563 72.4802 13.5167 71.885 13.5 71.2242H15.526Z" fill="#333333"/>
<path d="M12 63.5V71.942C12 72.5741 11.8968 73.1168 11.6905 73.5699C11.4903 74.0175 11.2172 74.3839 10.8714 74.6692C10.5255 74.9545 10.125 75.1643 9.6699 75.2986C9.21481 75.4329 8.73544 75.5 8.2318 75.5C7.75243 75.5 7.28823 75.4301 6.8392 75.2902C6.39017 75.1559 5.99272 74.9545 5.64684 74.686C5.30097 74.4119 5.02184 74.0734 4.80947 73.6706C4.60316 73.2678 4.5 72.8007 4.5 72.2692V71.1364H6.66626V72.2524C6.66626 72.521 6.71177 72.7559 6.80279 72.9573C6.89988 73.1531 7.02427 73.3182 7.17597 73.4524C7.33374 73.5811 7.50667 73.6762 7.69478 73.7378C7.88289 73.7993 8.07403 73.8301 8.2682 73.8301C8.4199 73.8301 8.58677 73.8077 8.76881 73.7629C8.95085 73.7126 9.12075 73.6287 9.27852 73.5112C9.44235 73.3881 9.57888 73.2259 9.68811 73.0245C9.79733 72.8175 9.85194 72.5601 9.85194 72.2524V63.5H12Z" fill="#333333"/>
<rect x="20.5" y="76.5" width="26.5" height="16" rx="1.5" fill="url(#paint1_linear_68_1522)" stroke="#333333"/>
<path fill-rule="evenodd" clip-rule="evenodd" d="M38.4729 88.6933C38.1107 88.2843 38.1107 87.6198 38.4729 87.2108L40.8741 84.5L38.4729 81.789C38.1107 81.38 38.1107 80.7155 38.4729 80.3065C38.8351 79.8978 39.4237 79.8978 39.7859 80.3065L43.5 84.5L39.7859 88.6933C39.4237 89.1022 38.8351 89.1022 38.4729 88.6933ZM27.7141 88.6933L24 84.5L27.7141 80.3065C28.0763 79.8978 28.6649 79.8978 29.0271 80.3065C29.3893 80.7155 29.3893 81.38 29.0271 81.789L26.6259 84.5L29.0271 87.2108C29.3893 87.6198 29.3893 88.2843 29.0271 88.6933C28.6649 89.1022 28.0763 89.1022 27.7141 88.6933ZM31.478 87.2866C31.2487 87.8043 31.4354 88.4345 31.8939 88.6934C32.3527 88.9522 32.9107 88.7427 33.1393 88.2238L36.0233 81.7124C36.2526 81.1957 36.0668 80.5657 35.6082 80.3066C35.1495 80.0478 34.5915 80.2575 34.362 80.7752L31.478 87.2866Z" fill="#F9F9F9"/>
<path fill-rule="evenodd" clip-rule="evenodd" d="M45.7182 123.798C46.1945 122.935 46.4623 121.973 46.5 120.988C46.5 118.751 44.6252 115.368 41.8129 115.368C40.7524 115.382 39.7334 115.782 38.9463 116.492C38.5062 116.909 37.9423 117.172 37.3395 117.241C37.1427 116.595 37.1708 114.272 38.4888 108.999C38.8097 107.704 38.0188 106.393 36.7223 106.073C36.5305 106.025 36.3335 106.001 36.1359 106.002H27.7328C26.9903 106.001 26.3221 106.452 26.0455 107.141C25.7622 107.84 25.9354 108.641 26.4823 109.16C27.2231 109.772 27.6798 110.661 27.746 111.62C27.746 113.169 25.7081 113.493 23.9963 113.493C22.2845 113.493 20.2466 113.169 20.2466 111.62C20.3141 110.66 20.7737 109.77 21.5177 109.158C22.0646 108.639 22.2379 107.838 21.9546 107.139C21.678 106.45 21.0098 105.999 20.2673 106H11.8642C10.5285 105.997 9.44331 107.077 9.44041 108.411C9.43997 108.609 9.46379 108.805 9.51124 108.997C10.8236 114.263 10.8573 116.586 10.6605 117.239C10.0577 117.171 9.49376 116.908 9.05373 116.49C8.26656 115.78 7.24755 115.38 6.18707 115.366C3.37481 115.366 1.5 118.749 1.5 120.986C1.5 123.223 3.37481 126.606 6.18707 126.606C7.24755 126.591 8.26656 126.192 9.05373 125.482C9.47672 125.081 10.0142 124.822 10.5907 124.741L10.6744 124.783C10.8552 125.493 10.7972 127.83 9.51124 132.975C9.4266 133.318 9.41982 133.662 9.47966 133.988C9.55134 134.427 9.74865 134.82 10.0325 135.138C10.3487 135.503 10.7772 135.777 11.282 135.902C11.4731 135.949 11.6692 135.972 11.8661 135.972C14.6841 136.035 17.5145 135.972 20.3337 135.972C21.0762 135.972 21.7444 135.522 22.0211 134.833C22.3043 134.134 22.1311 133.333 21.5842 132.814C20.8402 132.202 20.3805 131.312 20.3131 130.352C20.3131 128.998 22.056 128.37 23.6994 128.442C24.9798 128.298 26.7125 127.322 27.6084 126.315C28.1302 125.728 28.7612 125.091 29.4435 124.554C32.0948 122.469 33.7984 122.056 37.0645 122.056C39.2143 122.056 41.5214 123.139 42.8472 123.878C43.3306 124.148 45.0484 124.554 45.7182 123.798Z" fill="#D9F4FF" stroke="#333333"/>
<mask id="path-13-inside-3_68_1522" fill="white">
<path fill-rule="evenodd" clip-rule="evenodd" d="M44.4926 127.906L46.5 128.366V133.134L44.4926 133.594L43.8234 135.267L44.9108 136.981L41.5232 140.369L39.7667 139.282L38.0939 139.993L37.6338 142H32.8662L32.4061 139.993L30.7333 139.323L29.0186 140.411L25.631 137.023L26.7184 135.267L26.0074 133.594L24 133.134V128.366L26.0074 127.906L26.6766 126.233L25.5892 124.519L28.9768 121.131L30.7333 122.218L32.4061 121.507L32.8662 119.5H37.6338L38.0939 121.507L39.7667 122.177L41.4814 121.089L44.869 124.477L43.7816 126.233L44.4926 127.906ZM35.25 133.346C36.6838 133.346 37.8462 132.184 37.8462 130.75C37.8462 129.316 36.6838 128.154 35.25 128.154C33.8162 128.154 32.6538 129.316 32.6538 130.75C32.6538 132.184 33.8162 133.346 35.25 133.346Z"/>
</mask>
<path fill-rule="evenodd" clip-rule="evenodd" d="M44.4926 127.906L46.5 128.366V133.134L44.4926 133.594L43.8234 135.267L44.9108 136.981L41.5232 140.369L39.7667 139.282L38.0939 139.993L37.6338 142H32.8662L32.4061 139.993L30.7333 139.323L29.0186 140.411L25.631 137.023L26.7184 135.267L26.0074 133.594L24 133.134V128.366L26.0074 127.906L26.6766 126.233L25.5892 124.519L28.9768 121.131L30.7333 122.218L32.4061 121.507L32.8662 119.5H37.6338L38.0939 121.507L39.7667 122.177L41.4814 121.089L44.869 124.477L43.7816 126.233L44.4926 127.906ZM35.25 133.346C36.6838 133.346 37.8462 132.184 37.8462 130.75C37.8462 129.316 36.6838 128.154 35.25 128.154C33.8162 128.154 32.6538 129.316 32.6538 130.75C32.6538 132.184 33.8162 133.346 35.25 133.346Z" fill="url(#paint2_linear_68_1522)"/>
<path d="M46.5 128.366H47.5V127.569L46.7234 127.391L46.5 128.366ZM44.4926 127.906L43.5722 128.297L43.7718 128.767L44.2692 128.881L44.4926 127.906ZM46.5 133.134L46.7234 134.109L47.5 133.931V133.134H46.5ZM44.4926 133.594L44.2692 132.619L43.7586 132.736L43.5641 133.222L44.4926 133.594ZM43.8234 135.267L42.8949 134.895L42.705 135.37L42.9789 135.802L43.8234 135.267ZM44.9108 136.981L45.6179 137.689L46.1842 137.122L45.7553 136.446L44.9108 136.981ZM41.5232 140.369L40.9969 141.219L41.6703 141.636L42.2303 141.076L41.5232 140.369ZM39.7667 139.282L40.2931 138.431L39.8525 138.159L39.3756 138.361L39.7667 139.282ZM38.0939 139.993L37.7027 139.072L37.2331 139.272L37.1191 139.769L38.0939 139.993ZM37.6338 142V143H38.4306L38.6086 142.223L37.6338 142ZM32.8662 142L31.8914 142.223L32.0694 143H32.8662V142ZM32.4061 139.993L33.3809 139.769L33.2639 139.259L32.7775 139.064L32.4061 139.993ZM30.7333 139.323L31.1047 138.395L30.6297 138.205L30.1977 138.479L30.7333 139.323ZM29.0186 140.411L28.3115 141.118L28.8778 141.684L29.5541 141.255L29.0186 140.411ZM25.631 137.023L24.7808 136.497L24.3639 137.17L24.9239 137.73L25.631 137.023ZM26.7184 135.267L27.5687 135.793L27.8414 135.352L27.6387 134.876L26.7184 135.267ZM26.0074 133.594L26.9278 133.203L26.7282 132.733L26.2308 132.619L26.0074 133.594ZM24 133.134H23V133.931L23.7766 134.109L24 133.134ZM24 128.366L23.7766 127.391L23 127.569V128.366H24ZM26.0074 127.906L26.2308 128.881L26.7414 128.764L26.9359 128.278L26.0074 127.906ZM26.6766 126.233L27.6051 126.605L27.795 126.13L27.5211 125.698L26.6766 126.233ZM25.5892 124.519L24.8821 123.811L24.3158 124.378L24.7447 125.054L25.5892 124.519ZM28.9768 121.131L29.5031 120.281L28.8297 119.864L28.2697 120.424L28.9768 121.131ZM30.7333 122.218L30.2069 123.069L30.6475 123.341L31.1244 123.139L30.7333 122.218ZM32.4061 121.507L32.7973 122.428L33.2669 122.228L33.3809 121.731L32.4061 121.507ZM32.8662 119.5V118.5H32.0694L31.8914 119.277L32.8662 119.5ZM37.6338 119.5L38.6086 119.277L38.4306 118.5H37.6338V119.5ZM38.0939 121.507L37.1191 121.731L37.2361 122.241L37.7225 122.436L38.0939 121.507ZM39.7667 122.177L39.3953 123.105L39.8703 123.295L40.3023 123.021L39.7667 122.177ZM41.4814 121.089L42.1885 120.382L41.6222 119.816L40.9459 120.245L41.4814 121.089ZM44.869 124.477L45.7192 125.003L46.1361 124.33L45.5761 123.77L44.869 124.477ZM43.7816 126.233L42.9313 125.707L42.6586 126.148L42.8613 126.624L43.7816 126.233ZM46.7234 127.391L44.7159 126.931L44.2692 128.881L46.2766 129.341L46.7234 127.391ZM47.5 133.134V128.366H45.5V133.134H47.5ZM44.7159 134.569L46.7234 134.109L46.2766 132.159L44.2692 132.619L44.7159 134.569ZM44.7519 135.638L45.421 133.965L43.5641 133.222L42.8949 134.895L44.7519 135.638ZM45.7553 136.446L44.6679 134.731L42.9789 135.802L44.0663 137.517L45.7553 136.446ZM42.2303 141.076L45.6179 137.689L44.2037 136.274L40.8161 139.662L42.2303 141.076ZM39.2404 140.132L40.9969 141.219L42.0496 139.519L40.2931 138.431L39.2404 140.132ZM38.485 140.913L40.1579 140.202L39.3756 138.361L37.7027 139.072L38.485 140.913ZM38.6086 142.223L39.0686 140.216L37.1191 139.769L36.6591 141.777L38.6086 142.223ZM32.8662 143H37.6338V141H32.8662V143ZM31.4314 140.216L31.8914 142.223L33.8409 141.777L33.3809 139.769L31.4314 140.216ZM30.3619 140.252L32.0347 140.921L32.7775 139.064L31.1047 138.395L30.3619 140.252ZM29.5541 141.255L31.2688 140.168L30.1977 138.479L28.483 139.566L29.5541 141.255ZM24.9239 137.73L28.3115 141.118L29.7257 139.704L26.3381 136.316L24.9239 137.73ZM25.8681 134.74L24.7808 136.497L26.4813 137.55L27.5687 135.793L25.8681 134.74ZM25.0871 133.985L25.7981 135.658L27.6387 134.876L26.9278 133.203L25.0871 133.985ZM23.7766 134.109L25.7841 134.569L26.2308 132.619L24.2234 132.159L23.7766 134.109ZM23 128.366V133.134H25V128.366H23ZM25.7841 126.931L23.7766 127.391L24.2234 129.341L26.2308 128.881L25.7841 126.931ZM25.7481 125.862L25.079 127.535L26.9359 128.278L27.6051 126.605L25.7481 125.862ZM24.7447 125.054L25.8321 126.769L27.5211 125.698L26.4337 123.983L24.7447 125.054ZM28.2697 120.424L24.8821 123.811L26.2963 125.226L29.6839 121.838L28.2697 120.424ZM31.2596 121.368L29.5031 120.281L28.4504 121.981L30.2069 123.069L31.2596 121.368ZM32.015 120.587L30.3421 121.298L31.1244 123.139L32.7973 122.428L32.015 120.587ZM31.8914 119.277L31.4314 121.284L33.3809 121.731L33.8409 119.723L31.8914 119.277ZM37.6338 118.5H32.8662V120.5H37.6338V118.5ZM39.0686 121.284L38.6086 119.277L36.6591 119.723L37.1191 121.731L39.0686 121.284ZM40.1381 121.248L38.4653 120.579L37.7225 122.436L39.3953 123.105L40.1381 121.248ZM40.9459 120.245L39.2312 121.332L40.3023 123.021L42.017 121.934L40.9459 120.245ZM45.5761 123.77L42.1885 120.382L40.7743 121.796L44.1619 125.184L45.5761 123.77ZM44.6319 126.76L45.7192 125.003L44.0187 123.95L42.9313 125.707L44.6319 126.76ZM45.4129 127.515L44.7019 125.842L42.8613 126.624L43.5722 128.297L45.4129 127.515ZM36.8462 130.75C36.8462 131.632 36.1315 132.346 35.25 132.346V134.346C37.2361 134.346 38.8462 132.736 38.8462 130.75H36.8462ZM35.25 129.154C36.1315 129.154 36.8462 129.868 36.8462 130.75H38.8462C38.8462 128.764 37.2361 127.154 35.25 127.154V129.154ZM33.6538 130.75C33.6538 129.868 34.3685 129.154 35.25 129.154V127.154C33.2639 127.154 31.6538 128.764 31.6538 130.75H33.6538ZM35.25 132.346C34.3685 132.346 33.6538 131.632 33.6538 130.75H31.6538C31.6538 132.736 33.2639 134.346 35.25 134.346V132.346Z" fill="#333333" mask="url(#path-13-inside-3_68_1522)"/>
<path fill-rule="evenodd" clip-rule="evenodd" d="M22.5 192V181.5H24V192H22.5Z" fill="url(#paint3_linear_68_1522)"/>
<path fill-rule="evenodd" clip-rule="evenodd" d="M21 194.25C21 194.664 20.7122 195 20.3571 195L3.64286 195C3.28782 195 3 194.664 3 194.25C3 193.836 3.28782 193.5 3.64286 193.5L20.3571 193.5C20.7122 193.5 21 193.836 21 194.25Z" fill="url(#paint4_linear_68_1522)"/>
<path fill-rule="evenodd" clip-rule="evenodd" d="M43.5 194.25C43.5 194.664 43.2087 195 42.8494 195L26.1506 195C25.7913 195 25.5 194.664 25.5 194.25C25.5 193.836 25.7913 193.5 26.1506 193.5L42.8494 193.5C43.2087 193.5 43.5 193.836 43.5 194.25Z" fill="url(#paint5_linear_68_1522)"/>
<path d="M6.28125 150.5H41.7188C43.2334 150.5 44.5 151.792 44.5 153.436V161.564C44.5 163.208 43.2334 164.5 41.7188 164.5H6.28125C4.76664 164.5 3.5 163.208 3.5 161.564V153.436C3.5 151.792 4.76664 150.5 6.28125 150.5Z" fill="#EFEFEF" stroke="#333333"/>
<path d="M6.28125 167H41.7188C43.2334 167 44.5 168.292 44.5 169.936V178.064C44.5 179.708 43.2334 181 41.7188 181H6.28125C4.76664 181 3.5 179.708 3.5 178.064V169.936C3.5 168.292 4.76664 167 6.28125 167Z" fill="#EFEFEF" stroke="#333333"/>
<path d="M13.5 157.5C13.5 159.157 12.1569 160.5 10.5 160.5C8.84315 160.5 7.5 159.157 7.5 157.5C7.5 155.843 8.84315 154.5 10.5 154.5C12.1569 154.5 13.5 155.843 13.5 157.5Z" fill="#333333"/>
<path d="M13.5 174C13.5 175.657 12.1569 177 10.5 177C8.84315 177 7.5 175.657 7.5 174C7.5 172.343 8.84315 171 10.5 171C12.1569 171 13.5 172.343 13.5 174Z" fill="#333333"/>
<path fill-rule="evenodd" clip-rule="evenodd" d="M23.25 196.5C24.4926 196.5 25.5 195.493 25.5 194.25C25.5 193.007 24.4926 192 23.25 192C22.0074 192 21 193.007 21 194.25C21 195.493 22.0074 196.5 23.25 196.5ZM23.25 198C25.3211 198 27 196.321 27 194.25C27 192.179 25.3211 190.5 23.25 190.5C21.1789 190.5 19.5 192.179 19.5 194.25C19.5 196.321 21.1789 198 23.25 198Z" fill="url(#paint6_linear_68_1522)"/>
<rect x="24" y="154.5" width="4.5" height="1.5" rx="0.75" fill="#333333"/>
<rect x="22.5" y="159" width="4.5" height="1.5" rx="0.75" fill="#333333"/>
<rect x="30" y="154.5" width="4.5" height="1.5" rx="0.75" fill="#333333"/>
<rect x="28.5" y="159" width="4.5" height="1.5" rx="0.75" fill="#333333"/>
<rect x="36" y="154.5" width="4.5" height="1.5" rx="0.75" fill="#333333"/>
<rect x="34.5" y="159" width="4.5" height="1.5" rx="0.75" fill="#333333"/>
<rect x="24" y="171" width="4.5" height="1.5" rx="0.75" fill="#333333"/>
<rect x="22.5" y="175.5" width="4.5" height="1.5" rx="0.75" fill="#333333"/>
<rect x="30" y="171" width="4.5" height="1.5" rx="0.75" fill="#333333"/>
<rect x="28.5" y="175.5" width="4.5" height="1.5" rx="0.75" fill="#333333"/>
<rect x="36" y="171" width="4.5" height="1.5" rx="0.75" fill="#333333"/>
<rect x="34.5" y="175.5" width="4.5" height="1.5" rx="0.75" fill="#333333"/>
<path d="M11 204.996L11 204.995C10.9958 203.408 12.4992 202 14.4801 202H35.0149C36.9953 202 38.5 203.408 38.5 204.996V243.004C38.5 244.588 36.9948 246 35.0149 246H14.4801C12.5052 246 11 244.593 11 243.004L11 204.996Z" fill="#D9F4FF" stroke="#333333"/>
<path fill-rule="evenodd" clip-rule="evenodd" d="M19.5 206.75C19.5 206.336 19.8358 206 20.25 206H29.25C29.6642 206 30 206.336 30 206.75C30 207.164 29.6642 207.5 29.25 207.5H20.25C19.8358 207.5 19.5 207.164 19.5 206.75Z" fill="#444444"/>
<path d="M15.5 218.121V237.561C15.5 237.81 15.6049 238.04 15.7879 238.215C15.9712 238.39 16.2235 238.5 16.5054 238.5H32.9946C33.2765 238.5 33.5288 238.39 33.7121 238.215C33.8951 238.04 34 237.81 34 237.561V216.671C33.3885 216.087 32.7795 215.507 32.1711 214.928C31.3232 214.121 30.4764 213.315 29.6253 212.5H16.5054C16.2235 212.5 15.9712 212.609 15.7879 212.784C15.6049 212.959 15.5 213.189 15.5 213.438V218.121Z" fill="#EFEFEF" stroke="#333333"/>
<path fill-rule="evenodd" clip-rule="evenodd" d="M30 220.25C30 219.835 29.7062 219.5 29.3438 219.5H20.1562C19.7938 219.5 19.5 219.835 19.5 220.25C19.5 220.664 19.7938 221 20.1562 221H29.3438C29.7062 221 30 220.664 30 220.25Z" fill="#333333"/>
<path fill-rule="evenodd" clip-rule="evenodd" d="M27 217.25C27 216.835 26.6936 216.5 26.3157 216.5H20.1843C19.8064 216.5 19.5 216.835 19.5 217.25C19.5 217.664 19.8064 218 20.1843 218H26.3157C26.6936 218 27 217.664 27 217.25Z" fill="url(#paint7_linear_68_1522)"/>
<path fill-rule="evenodd" clip-rule="evenodd" d="M24 233.75C24 233.335 23.7482 233 23.4375 233H20.0625C19.7518 233 19.5 233.335 19.5 233.75C19.5 234.164 19.7518 234.5 20.0625 234.5H23.4375C23.7482 234.5 24 234.164 24 233.75Z" fill="url(#paint8_linear_68_1522)"/>
<path fill-rule="evenodd" clip-rule="evenodd" d="M30 233.75C30 233.335 29.6642 233 29.25 233H26.25C25.8358 233 25.5 233.335 25.5 233.75C25.5 234.164 25.8358 234.5 26.25 234.5H29.25C29.6642 234.5 30 234.164 30 233.75Z" fill="url(#paint9_linear_68_1522)"/>
<path fill-rule="evenodd" clip-rule="evenodd" d="M30 223.25C30 222.835 29.7062 222.5 29.3438 222.5H20.1562C19.7938 222.5 19.5 222.835 19.5 223.25C19.5 223.664 19.7938 224 20.1562 224H29.3438C29.7062 224 30 223.664 30 223.25Z" fill="#333333"/>
<path fill-rule="evenodd" clip-rule="evenodd" d="M30 226.25C30 225.835 29.7062 225.5 29.3438 225.5H20.1562C19.7938 225.5 19.5 225.835 19.5 226.25C19.5 226.664 19.7938 227 20.1562 227H29.3438C29.7062 227 30 226.664 30 226.25Z" fill="#333333"/>
<path fill-rule="evenodd" clip-rule="evenodd" d="M30 229.25C30 228.835 29.7062 228.5 29.3438 228.5H20.1562C19.7938 228.5 19.5 228.835 19.5 229.25C19.5 229.664 19.7938 230 20.1562 230H29.3438C29.7062 230 30 229.664 30 229.25Z" fill="#333333"/>
<path d="M29 216.269C29 216.904 29.4874 217.43 30.1078 217.493H30.2322H34V216.707L29.7929 212.5H29V216.269Z" fill="url(#paint10_linear_68_1522)" stroke="#333333"/>
<path d="M4.44828 294H43.5517C44.6408 294 45.5 293.084 45.5 292C45.5 290.916 44.6408 290 43.5517 290H4.44828C3.35919 290 2.5 290.916 2.5 292C2.5 293.084 3.35919 294 4.44828 294Z" fill="#EFEFEF" stroke="#333333" stroke-miterlimit="10" stroke-linecap="round" stroke-linejoin="round"/>
<path d="M8.5 265.5H41C42.1046 265.5 43 266.395 43 267.5V290H6.5V267.5C6.5 266.395 7.39543 265.5 8.5 265.5Z" fill="#D9F4FF" stroke="#333333"/>
<mask id="path-48-inside-4_68_1522" fill="white">
<path fill-rule="evenodd" clip-rule="evenodd" d="M44.7602 273.785L46.5 274.184V278.316L44.7602 278.715L44.1803 280.164L45.1227 281.651L42.1868 284.586L40.6645 283.644L39.2147 284.26L38.816 286H34.684L34.2853 284.26L32.8355 283.68L31.3494 284.623L28.4136 281.687L29.3559 280.164L28.7398 278.715L27 278.316V274.184L28.7398 273.785L29.3197 272.336L28.3773 270.849L31.3132 267.914L32.8355 268.856L34.2853 268.24L34.684 266.5H38.816L39.2147 268.24L40.6645 268.82L42.1506 267.877L45.0864 270.813L44.1441 272.336L44.7602 273.785ZM36.75 278.5C37.9926 278.5 39 277.493 39 276.25C39 275.007 37.9926 274 36.75 274C35.5074 274 34.5 275.007 34.5 276.25C34.5 277.493 35.5074 278.5 36.75 278.5Z"/>
</mask>
<path fill-rule="evenodd" clip-rule="evenodd" d="M44.7602 273.785L46.5 274.184V278.316L44.7602 278.715L44.1803 280.164L45.1227 281.651L42.1868 284.586L40.6645 283.644L39.2147 284.26L38.816 286H34.684L34.2853 284.26L32.8355 283.68L31.3494 284.623L28.4136 281.687L29.3559 280.164L28.7398 278.715L27 278.316V274.184L28.7398 273.785L29.3197 272.336L28.3773 270.849L31.3132 267.914L32.8355 268.856L34.2853 268.24L34.684 266.5H38.816L39.2147 268.24L40.6645 268.82L42.1506 267.877L45.0864 270.813L44.1441 272.336L44.7602 273.785ZM36.75 278.5C37.9926 278.5 39 277.493 39 276.25C39 275.007 37.9926 274 36.75 274C35.5074 274 34.5 275.007 34.5 276.25C34.5 277.493 35.5074 278.5 36.75 278.5Z" fill="url(#paint11_linear_68_1522)"/>
<path d="M46.5 274.184H47.5V273.387L46.7234 273.209L46.5 274.184ZM44.7602 273.785L43.8399 274.176L44.0395 274.646L44.5368 274.76L44.7602 273.785ZM46.5 278.316L46.7234 279.291L47.5 279.113V278.316H46.5ZM44.7602 278.715L44.5368 277.74L44.0263 277.857L43.8317 278.343L44.7602 278.715ZM44.1803 280.164L43.2518 279.793L43.0618 280.268L43.3358 280.7L44.1803 280.164ZM45.1227 281.651L45.8298 282.358L46.3961 281.791L45.9672 281.115L45.1227 281.651ZM42.1868 284.586L41.6604 285.437L42.3339 285.854L42.8939 285.294L42.1868 284.586ZM40.6645 283.644L41.1909 282.794L40.7503 282.521L40.2734 282.724L40.6645 283.644ZM39.2147 284.26L38.8235 283.34L38.3539 283.539L38.24 284.037L39.2147 284.26ZM38.816 286V287H39.6127L39.7907 286.223L38.816 286ZM34.684 286L33.7093 286.223L33.8873 287H34.684V286ZM34.2853 284.26L35.26 284.037L35.143 283.526L34.6567 283.332L34.2853 284.26ZM32.8355 283.68L33.2069 282.752L32.732 282.562L32.3 282.836L32.8355 283.68ZM31.3494 284.623L30.6423 285.33L31.2086 285.896L31.885 285.467L31.3494 284.623ZM28.4136 281.687L27.5633 281.16L27.1464 281.834L27.7065 282.394L28.4136 281.687ZM29.3559 280.164L30.2062 280.691L30.479 280.25L30.2763 279.773L29.3559 280.164ZM28.7398 278.715L29.6601 278.324L29.4605 277.854L28.9632 277.74L28.7398 278.715ZM27 278.316H26V279.113L26.7766 279.291L27 278.316ZM27 274.184L26.7766 273.209L26 273.387V274.184H27ZM28.7398 273.785L28.9632 274.76L29.4737 274.643L29.6683 274.157L28.7398 273.785ZM29.3197 272.336L30.2482 272.707L30.4382 272.232L30.1642 271.8L29.3197 272.336ZM28.3773 270.849L27.6702 270.142L27.1039 270.709L27.5328 271.385L28.3773 270.849ZM31.3132 267.914L31.8396 267.063L31.1661 266.646L30.6061 267.206L31.3132 267.914ZM32.8355 268.856L32.3091 269.706L32.7497 269.979L33.2266 269.776L32.8355 268.856ZM34.2853 268.24L34.6765 269.16L35.1461 268.961L35.26 268.463L34.2853 268.24ZM34.684 266.5V265.5H33.8873L33.7093 266.277L34.684 266.5ZM38.816 266.5L39.7907 266.277L39.6127 265.5H38.816V266.5ZM39.2147 268.24L38.24 268.463L38.357 268.974L38.8433 269.168L39.2147 268.24ZM40.6645 268.82L40.2931 269.748L40.7681 269.938L41.2 269.664L40.6645 268.82ZM42.1506 267.877L42.8577 267.17L42.2914 266.604L41.615 267.033L42.1506 267.877ZM45.0864 270.813L45.9367 271.34L46.3536 270.666L45.7935 270.106L45.0864 270.813ZM44.1441 272.336L43.2938 271.809L43.021 272.25L43.2237 272.727L44.1441 272.336ZM46.7234 273.209L44.9836 272.811L44.5368 274.76L46.2766 275.159L46.7234 273.209ZM47.5 278.316V274.184H45.5V278.316H47.5ZM44.9836 279.689L46.7234 279.291L46.2766 277.341L44.5368 277.74L44.9836 279.689ZM45.1088 280.536L45.6887 279.086L43.8317 278.343L43.2518 279.793L45.1088 280.536ZM45.9672 281.115L45.0248 279.629L43.3358 280.7L44.2782 282.186L45.9672 281.115ZM42.8939 285.294L45.8298 282.358L44.4156 280.943L41.4797 283.879L42.8939 285.294ZM40.1381 284.494L41.6604 285.437L42.7132 283.736L41.1909 282.794L40.1381 284.494ZM39.6058 285.181L41.0556 284.564L40.2734 282.724L38.8235 283.34L39.6058 285.181ZM39.7907 286.223L40.1894 284.484L38.24 284.037L37.8413 285.777L39.7907 286.223ZM34.684 287H38.816V285H34.684V287ZM33.3106 284.484L33.7093 286.223L35.6587 285.777L35.26 284.037L33.3106 284.484ZM32.4641 284.609L33.9139 285.189L34.6567 283.332L33.2069 282.752L32.4641 284.609ZM31.885 285.467L33.371 284.525L32.3 282.836L30.8139 283.778L31.885 285.467ZM27.7065 282.394L30.6423 285.33L32.0565 283.916L29.1207 280.98L27.7065 282.394ZM28.5057 279.638L27.5633 281.16L29.2638 282.213L30.2062 280.691L28.5057 279.638ZM27.8194 279.106L28.4356 280.556L30.2763 279.773L29.6601 278.324L27.8194 279.106ZM26.7766 279.291L28.5164 279.689L28.9632 277.74L27.2234 277.341L26.7766 279.291ZM26 274.184V278.316H28V274.184H26ZM28.5164 272.811L26.7766 273.209L27.2234 275.159L28.9632 274.76L28.5164 272.811ZM28.3912 271.964L27.8113 273.414L29.6683 274.157L30.2482 272.707L28.3912 271.964ZM27.5328 271.385L28.4752 272.871L30.1642 271.8L29.2218 270.314L27.5328 271.385ZM30.6061 267.206L27.6702 270.142L29.0844 271.557L32.0203 268.621L30.6061 267.206ZM33.3619 268.006L31.8396 267.063L30.7868 268.764L32.3091 269.706L33.3619 268.006ZM33.8942 267.319L32.4444 267.936L33.2266 269.776L34.6765 269.16L33.8942 267.319ZM33.7093 266.277L33.3106 268.016L35.26 268.463L35.6587 266.723L33.7093 266.277ZM38.816 265.5H34.684V267.5H38.816V265.5ZM40.1894 268.016L39.7907 266.277L37.8413 266.723L38.24 268.463L40.1894 268.016ZM41.0359 267.891L39.5861 267.311L38.8433 269.168L40.2931 269.748L41.0359 267.891ZM41.615 267.033L40.129 267.975L41.2 269.664L42.6861 268.722L41.615 267.033ZM45.7935 270.106L42.8577 267.17L41.4435 268.584L44.3793 271.52L45.7935 270.106ZM44.9943 272.862L45.9367 271.34L44.2362 270.287L43.2938 271.809L44.9943 272.862ZM45.6806 273.394L45.0644 271.944L43.2237 272.727L43.8399 274.176L45.6806 273.394ZM38 276.25C38 276.94 37.4404 277.5 36.75 277.5V279.5C38.5449 279.5 40 278.045 40 276.25H38ZM36.75 275C37.4404 275 38 275.56 38 276.25H40C40 274.455 38.5449 273 36.75 273V275ZM35.5 276.25C35.5 275.56 36.0596 275 36.75 275V273C34.9551 273 33.5 274.455 33.5 276.25H35.5ZM36.75 277.5C36.0596 277.5 35.5 276.94 35.5 276.25H33.5C33.5 278.045 34.9551 279.5 36.75 279.5V277.5Z" fill="#333333" mask="url(#path-48-inside-4_68_1522)"/>
<path d="M5 263.622V283.062C5 283.31 5.10491 283.541 5.28791 283.716C5.47123 283.891 5.72348 284 6.00542 284H22.4946C22.7765 284 23.0288 283.891 23.2121 283.716C23.3951 283.541 23.5 283.31 23.5 283.062V262.172C22.8884 261.588 22.2795 261.008 21.6711 260.429C20.8232 259.621 19.9764 258.815 19.1253 258H6.00542C5.72348 258 5.47123 258.109 5.28791 258.284C5.10491 258.459 5 258.69 5 258.938V263.622Z" fill="#EFEFEF" stroke="#333333"/>
<path fill-rule="evenodd" clip-rule="evenodd" d="M19.5 265.75C19.5 265.336 19.2062 265 18.8438 265H9.65625C9.29381 265 9 265.336 9 265.75C9 266.164 9.29381 266.5 9.65625 266.5H18.8438C19.2062 266.5 19.5 266.164 19.5 265.75Z" fill="#333333"/>
<path fill-rule="evenodd" clip-rule="evenodd" d="M16.5 262.75C16.5 262.336 16.1936 262 15.8157 262H9.68431C9.30637 262 9 262.336 9 262.75C9 263.164 9.30637 263.5 9.68431 263.5H15.8157C16.1936 263.5 16.5 263.164 16.5 262.75Z" fill="url(#paint12_linear_68_1522)"/>
<path fill-rule="evenodd" clip-rule="evenodd" d="M13.5 279.25C13.5 278.836 13.2482 278.5 12.9375 278.5H9.5625C9.25184 278.5 9 278.836 9 279.25C9 279.664 9.25184 280 9.5625 280H12.9375C13.2482 280 13.5 279.664 13.5 279.25Z" fill="url(#paint13_linear_68_1522)"/>
<path fill-rule="evenodd" clip-rule="evenodd" d="M19.5 279.25C19.5 278.836 19.1642 278.5 18.75 278.5H15.75C15.3358 278.5 15 278.836 15 279.25C15 279.664 15.3358 280 15.75 280H18.75C19.1642 280 19.5 279.664 19.5 279.25Z" fill="url(#paint14_linear_68_1522)"/>
<path fill-rule="evenodd" clip-rule="evenodd" d="M19.5 268.75C19.5 268.336 19.2062 268 18.8438 268H9.65625C9.29381 268 9 268.336 9 268.75C9 269.164 9.29381 269.5 9.65625 269.5H18.8438C19.2062 269.5 19.5 269.164 19.5 268.75Z" fill="#333333"/>
<path fill-rule="evenodd" clip-rule="evenodd" d="M19.5 271.75C19.5 271.336 19.2062 271 18.8438 271H9.65625C9.29381 271 9 271.336 9 271.75C9 272.164 9.29381 272.5 9.65625 272.5H18.8438C19.2062 272.5 19.5 272.164 19.5 271.75Z" fill="#333333"/>
<path fill-rule="evenodd" clip-rule="evenodd" d="M19.5 274.75C19.5 274.336 19.2062 274 18.8438 274H9.65625C9.29381 274 9 274.336 9 274.75C9 275.164 9.29381 275.5 9.65625 275.5H18.8438C19.2062 275.5 19.5 275.164 19.5 274.75Z" fill="#333333"/>
<path d="M18.5 261.77C18.5 262.404 18.9874 262.931 19.6078 262.994H19.7322H23.5V262.207L19.2929 258H18.5V261.77Z" fill="url(#paint15_linear_68_1522)" stroke="#333333"/>
<path d="M38.5 343H9.5C8.67157 343 8 342.328 8 341.5V303.5C8 302.672 8.67157 302 9.5 302H30.6987C31.0844 302 31.4554 302.149 31.7344 302.415L39.5357 309.862C39.8322 310.145 40 310.537 40 310.947V341.5C40 342.328 39.3284 343 38.5 343Z" fill="#EFEFEF" stroke="#333333"/>
<path d="M30.5 308.972C30.5 310.283 31.5113 311.369 32.7951 311.489H33.0314H40V309.582L32.4179 302H30.5V308.972Z" fill="url(#paint16_linear_68_1522)" stroke="#333333"/>
<rect x="13.5" y="307.5" width="12" height="1.5" rx="0.75" fill="#333333"/>
<rect x="13.5" y="316.5" width="21" height="1.5" rx="0.75" fill="#333333"/>
<rect x="13.5" y="321" width="21" height="1.5" rx="0.75" fill="#333333"/>
<rect x="13.5" y="312" width="12" height="1.5" rx="0.75" fill="#333333"/>
<path d="M21.5 326H44.5C45.3284 326 46 326.672 46 327.5V345.5C46 345.776 45.7761 346 45.5 346H20.5C20.2239 346 20 345.776 20 345.5V327.5C20 326.672 20.6716 326 21.5 326Z" fill="#E2E2E2" stroke="#333333"/>
<path d="M21.5 326H44.5C45.3284 326 46 326.672 46 327.5V331H20V327.5C20 326.672 20.6716 326 21.5 326Z" fill="url(#paint17_linear_68_1522)" stroke="#333333"/>
<path fill-rule="evenodd" clip-rule="evenodd" d="M38.4729 341.744C38.1107 341.404 38.1107 340.85 38.4729 340.509L40.8741 338.25L38.4729 335.991C38.1107 335.65 38.1107 335.096 38.4729 334.755C38.8351 334.415 39.4237 334.415 39.7859 334.755L43.5 338.25L39.7859 341.744C39.4237 342.085 38.8351 342.085 38.4729 341.744ZM27.7141 341.744L24 338.25L27.7141 334.755C28.0763 334.415 28.6649 334.415 29.0271 334.755C29.3893 335.096 29.3893 335.65 29.0271 335.991L26.6259 338.25L29.0271 340.509C29.3893 340.85 29.3893 341.404 29.0271 341.744C28.6649 342.085 28.0763 342.085 27.7141 341.744ZM31.478 340.572C31.2487 341.004 31.4354 341.529 31.8939 341.744C32.3527 341.96 32.9107 341.786 33.1393 341.353L36.0233 335.927C36.2526 335.496 36.0668 334.971 35.6082 334.756C35.1495 334.54 34.5915 334.715 34.362 335.146L31.478 340.572Z" fill="#333333"/>
<mask id="path-68-inside-5_68_1522" fill="white">
<path fill-rule="evenodd" clip-rule="evenodd" d="M40.5 364.186V371.814L37.2881 372.55L36.2175 375.227L37.9572 377.97L32.5372 383.39L29.7268 381.651L27.0502 382.788L26.3141 386H18.6859L17.9498 382.788L15.2732 381.717L12.5297 383.457L7.10967 378.037L8.84944 375.227L7.7119 372.55L4.5 371.814V364.186L7.7119 363.45L8.78253 360.773L7.04275 358.03L12.4628 352.61L15.2732 354.349L17.9498 353.212L18.6859 350H26.3141L27.0502 353.212L29.7268 354.283L32.4703 352.543L37.8903 357.963L36.1506 360.773L37.2881 363.45L40.5 364.186ZM22.5 374C25.8137 374 28.5 371.314 28.5 368C28.5 364.686 25.8137 362 22.5 362C19.1863 362 16.5 364.686 16.5 368C16.5 371.314 19.1863 374 22.5 374Z"/>
</mask>
<path fill-rule="evenodd" clip-rule="evenodd" d="M40.5 364.186V371.814L37.2881 372.55L36.2175 375.227L37.9572 377.97L32.5372 383.39L29.7268 381.651L27.0502 382.788L26.3141 386H18.6859L17.9498 382.788L15.2732 381.717L12.5297 383.457L7.10967 378.037L8.84944 375.227L7.7119 372.55L4.5 371.814V364.186L7.7119 363.45L8.78253 360.773L7.04275 358.03L12.4628 352.61L15.2732 354.349L17.9498 353.212L18.6859 350H26.3141L27.0502 353.212L29.7268 354.283L32.4703 352.543L37.8903 357.963L36.1506 360.773L37.2881 363.45L40.5 364.186ZM22.5 374C25.8137 374 28.5 371.314 28.5 368C28.5 364.686 25.8137 362 22.5 362C19.1863 362 16.5 364.686 16.5 368C16.5 371.314 19.1863 374 22.5 374Z" fill="#D9F4FF"/>
<path d="M40.5 371.814L40.7234 372.789L41.5 372.611V371.814H40.5ZM40.5 364.186H41.5V363.389L40.7234 363.211L40.5 364.186ZM37.2881 372.55L37.0647 371.575L36.5542 371.692L36.3596 372.179L37.2881 372.55ZM36.2175 375.227L35.289 374.855L35.099 375.33L35.373 375.762L36.2175 375.227ZM37.9572 377.97L38.6644 378.677L39.2307 378.111L38.8018 377.435L37.9572 377.97ZM32.5372 383.39L32.0108 384.241L32.6842 384.657L33.2443 384.097L32.5372 383.39ZM29.7268 381.651L30.2531 380.8L29.8125 380.528L29.3356 380.73L29.7268 381.651ZM27.0502 382.788L26.659 381.868L26.1894 382.067L26.0755 382.565L27.0502 382.788ZM26.3141 386V387H27.1109L27.2889 386.223L26.3141 386ZM18.6859 386L17.7111 386.223L17.8891 387H18.6859V386ZM17.9498 382.788L18.9245 382.565L18.8075 382.054L18.3212 381.86L17.9498 382.788ZM15.2732 381.717L15.6446 380.789L15.1697 380.599L14.7377 380.873L15.2732 381.717ZM12.5297 383.457L11.8226 384.164L12.3889 384.731L13.0653 384.302L12.5297 383.457ZM7.10967 378.037L6.2594 377.511L5.84252 378.184L6.40256 378.744L7.10967 378.037ZM8.84944 375.227L9.69971 375.753L9.97246 375.313L9.76977 374.836L8.84944 375.227ZM7.7119 372.55L8.63223 372.159L8.43264 371.689L7.93527 371.575L7.7119 372.55ZM4.5 371.814H3.5V372.611L4.27662 372.789L4.5 371.814ZM4.5 364.186L4.27662 363.211L3.5 363.389V364.186H4.5ZM7.7119 363.45L7.93527 364.425L8.44584 364.308L8.64037 363.821L7.7119 363.45ZM8.78253 360.773L9.71101 361.145L9.90098 360.67L9.62704 360.238L8.78253 360.773ZM7.04275 358.03L6.33564 357.323L5.76934 357.889L6.19824 358.565L7.04275 358.03ZM12.4628 352.61L12.9892 351.759L12.3158 351.343L11.7557 351.903L12.4628 352.61ZM15.2732 354.349L14.7469 355.2L15.1875 355.472L15.6644 355.27L15.2732 354.349ZM17.9498 353.212L18.341 354.132L18.8106 353.933L18.9245 353.435L17.9498 353.212ZM18.6859 350V349H17.8891L17.7111 349.777L18.6859 350ZM26.3141 350L27.2889 349.777L27.1109 349H26.3141V350ZM27.0502 353.212L26.0755 353.435L26.1925 353.946L26.6788 354.14L27.0502 353.212ZM29.7268 354.283L29.3554 355.211L29.8303 355.401L30.2623 355.127L29.7268 354.283ZM32.4703 352.543L33.1774 351.836L32.6111 351.269L31.9347 351.698L32.4703 352.543ZM37.8903 357.963L38.7406 358.489L39.1575 357.816L38.5974 357.256L37.8903 357.963ZM36.1506 360.773L35.3003 360.247L35.0275 360.687L35.2302 361.164L36.1506 360.773ZM37.2881 363.45L36.3678 363.841L36.5674 364.311L37.0647 364.425L37.2881 363.45ZM41.5 371.814V364.186H39.5V371.814H41.5ZM37.5115 373.525L40.7234 372.789L40.2766 370.839L37.0647 371.575L37.5115 373.525ZM37.1459 375.598L38.2166 372.922L36.3596 372.179L35.289 374.855L37.1459 375.598ZM38.8018 377.435L37.062 374.691L35.373 375.762L37.1127 378.506L38.8018 377.435ZM33.2443 384.097L38.6644 378.677L37.2501 377.263L31.8301 382.683L33.2443 384.097ZM29.2004 382.501L32.0108 384.241L33.0635 382.54L30.2531 380.8L29.2004 382.501ZM27.4413 383.708L30.1179 382.571L29.3356 380.73L26.659 381.868L27.4413 383.708ZM27.2889 386.223L28.0249 383.011L26.0755 382.565L25.3394 385.777L27.2889 386.223ZM18.6859 387H26.3141V385H18.6859V387ZM16.9751 383.011L17.7111 386.223L19.6606 385.777L18.9245 382.565L16.9751 383.011ZM14.9018 382.646L17.5784 383.717L18.3212 381.86L15.6446 380.789L14.9018 382.646ZM13.0653 384.302L15.8088 382.562L14.7377 380.873L11.9942 382.613L13.0653 384.302ZM6.40256 378.744L11.8226 384.164L13.2368 382.75L7.81677 377.33L6.40256 378.744ZM7.99918 374.7L6.2594 377.511L7.95993 378.564L9.69971 375.753L7.99918 374.7ZM6.79157 372.941L7.92911 375.618L9.76977 374.836L8.63223 372.159L6.79157 372.941ZM4.27662 372.789L7.48852 373.525L7.93527 371.575L4.72338 370.839L4.27662 372.789ZM3.5 364.186V371.814H5.5V364.186H3.5ZM7.48852 362.475L4.27662 363.211L4.72338 365.161L7.93527 364.425L7.48852 362.475ZM7.85405 360.402L6.78342 363.078L8.64037 363.821L9.71101 361.145L7.85405 360.402ZM6.19824 358.565L7.93802 361.309L9.62704 360.238L7.88726 357.494L6.19824 358.565ZM11.7557 351.903L6.33564 357.323L7.74986 358.737L13.1699 353.317L11.7557 351.903ZM15.7996 353.499L12.9892 351.759L11.9365 353.46L14.7469 355.2L15.7996 353.499ZM17.5587 352.292L14.8821 353.429L15.6644 355.27L18.341 354.132L17.5587 352.292ZM17.7111 349.777L16.9751 352.989L18.9245 353.435L19.6606 350.223L17.7111 349.777ZM26.3141 349H18.6859V351H26.3141V349ZM28.0249 352.989L27.2889 349.777L25.3394 350.223L26.0755 353.435L28.0249 352.989ZM30.0982 353.354L27.4216 352.283L26.6788 354.14L29.3554 355.211L30.0982 353.354ZM31.9347 351.698L29.1912 353.438L30.2623 355.127L33.0058 353.387L31.9347 351.698ZM38.5974 357.256L33.1774 351.836L31.7632 353.25L37.1832 358.67L38.5974 357.256ZM37.0008 361.3L38.7406 358.489L37.0401 357.436L35.3003 360.247L37.0008 361.3ZM38.2084 363.059L37.0709 360.382L35.2302 361.164L36.3678 363.841L38.2084 363.059ZM40.7234 363.211L37.5115 362.475L37.0647 364.425L40.2766 365.161L40.7234 363.211ZM27.5 368C27.5 370.761 25.2614 373 22.5 373V375C26.366 375 29.5 371.866 29.5 368H27.5ZM22.5 363C25.2614 363 27.5 365.239 27.5 368H29.5C29.5 364.134 26.366 361 22.5 361V363ZM17.5 368C17.5 365.239 19.7386 363 22.5 363V361C18.634 361 15.5 364.134 15.5 368H17.5ZM22.5 373C19.7386 373 17.5 370.761 17.5 368H15.5C15.5 371.866 18.634 375 22.5 375V373Z" fill="#333333" mask="url(#path-68-inside-5_68_1522)"/>
<path d="M33.2412 372.309L32.8877 371.955L32.5341 372.309L18.5577 386.286C17.0607 387.783 17.0607 390.21 18.5577 391.707L19.1469 392.296C20.6439 393.793 23.0711 393.793 24.5681 392.296L38.5445 378.319L38.8981 377.966L38.5445 377.612L33.2412 372.309Z" fill="url(#paint18_linear_68_1522)" stroke="#333333"/>
<path d="M47.6779 367.924L42.4187 373.184L38.0169 371.983L36.8164 367.581L42.0757 362.322C39.2745 361.522 36.1304 362.208 33.901 364.437C30.6997 367.639 30.6997 372.898 33.901 376.099C37.1022 379.3 42.3615 379.3 45.5628 376.099C47.7922 373.87 48.4782 370.725 47.6779 367.924Z" fill="#EFEFEF" stroke="#333333" stroke-miterlimit="10" stroke-linecap="round" stroke-linejoin="round"/>
<rect x="19.5" y="389.182" width="4.5" height="3" rx="1" transform="rotate(-45 19.5 389.182)" fill="#444444"/>
<defs>
<linearGradient id="paint0_linear_68_1522" x1="24.387" y1="4.5" x2="24.387" y2="28.5297" gradientUnits="userSpaceOnUse">
<stop stop-color="#FF8E3D"/>
<stop offset="1" stop-color="#FF6F3D"/>
</linearGradient>
<linearGradient id="paint1_linear_68_1522" x1="33.75" y1="77" x2="33.75" y2="92" gradientUnits="userSpaceOnUse">
<stop stop-color="#FF8E3D"/>
<stop offset="1" stop-color="#FF6F3D"/>
</linearGradient>
<linearGradient id="paint2_linear_68_1522" x1="35.25" y1="119.5" x2="35.25" y2="142" gradientUnits="userSpaceOnUse">
<stop stop-color="#FF8E3D"/>
<stop offset="1" stop-color="#FF6F3D"/>
</linearGradient>
<linearGradient id="paint3_linear_68_1522" x1="23.25" y1="181.5" x2="23.25" y2="192" gradientUnits="userSpaceOnUse">
<stop stop-color="#FF8E3D"/>
<stop offset="1" stop-color="#FF6F3D"/>
</linearGradient>
<linearGradient id="paint4_linear_68_1522" x1="21" y1="194.25" x2="3" y2="194.25" gradientUnits="userSpaceOnUse">
<stop stop-color="#FF8E3D"/>
<stop offset="1" stop-color="#FF6F3D"/>
</linearGradient>
<linearGradient id="paint5_linear_68_1522" x1="43.5" y1="194.25" x2="25.5" y2="194.25" gradientUnits="userSpaceOnUse">
<stop stop-color="#FF8E3D"/>
<stop offset="1" stop-color="#FF6F3D"/>
</linearGradient>
<linearGradient id="paint6_linear_68_1522" x1="23.25" y1="190.5" x2="23.25" y2="198" gradientUnits="userSpaceOnUse">
<stop stop-color="#FF8E3D"/>
<stop offset="1" stop-color="#FF6F3D"/>
</linearGradient>
<linearGradient id="paint7_linear_68_1522" x1="23.25" y1="216.5" x2="23.25" y2="218" gradientUnits="userSpaceOnUse">
<stop stop-color="#FF8E3D"/>
<stop offset="1" stop-color="#FF6F3D"/>
</linearGradient>
<linearGradient id="paint8_linear_68_1522" x1="21.75" y1="233" x2="21.75" y2="234.5" gradientUnits="userSpaceOnUse">
<stop stop-color="#FF8E3D"/>
<stop offset="1" stop-color="#FF6F3D"/>
</linearGradient>
<linearGradient id="paint9_linear_68_1522" x1="27.75" y1="233" x2="27.75" y2="234.5" gradientUnits="userSpaceOnUse">
<stop stop-color="#FF8E3D"/>
<stop offset="1" stop-color="#FF6F3D"/>
</linearGradient>
<linearGradient id="paint10_linear_68_1522" x1="31.5" y1="212" x2="31.5" y2="218" gradientUnits="userSpaceOnUse">
<stop stop-color="#FF8E3D"/>
<stop offset="1" stop-color="#FF6F3D"/>
</linearGradient>
<linearGradient id="paint11_linear_68_1522" x1="27" y1="265.738" x2="46.5" y2="286" gradientUnits="userSpaceOnUse">
<stop stop-color="#FF8E3D"/>
<stop offset="1" stop-color="#FF6F3D"/>
</linearGradient>
<linearGradient id="paint12_linear_68_1522" x1="12.75" y1="262" x2="12.75" y2="263.5" gradientUnits="userSpaceOnUse">
<stop stop-color="#FF8E3D"/>
<stop offset="1" stop-color="#FF6F3D"/>
</linearGradient>
<linearGradient id="paint13_linear_68_1522" x1="11.25" y1="278.5" x2="11.25" y2="280" gradientUnits="userSpaceOnUse">
<stop stop-color="#FF8E3D"/>
<stop offset="1" stop-color="#FF6F3D"/>
</linearGradient>
<linearGradient id="paint14_linear_68_1522" x1="17.25" y1="278.5" x2="17.25" y2="280" gradientUnits="userSpaceOnUse">
<stop stop-color="#FF8E3D"/>
<stop offset="1" stop-color="#FF6F3D"/>
</linearGradient>
<linearGradient id="paint15_linear_68_1522" x1="21" y1="257.5" x2="21" y2="263.5" gradientUnits="userSpaceOnUse">
<stop stop-color="#FF8E3D"/>
<stop offset="1" stop-color="#FF6F3D"/>
</linearGradient>
<linearGradient id="paint16_linear_68_1522" x1="35.25" y1="301.5" x2="35.25" y2="312" gradientUnits="userSpaceOnUse">
<stop stop-color="#FF8E3D"/>
<stop offset="1" stop-color="#FF6F3D"/>
</linearGradient>
<linearGradient id="paint17_linear_68_1522" x1="33" y1="325.5" x2="33" y2="331.5" gradientUnits="userSpaceOnUse">
<stop stop-color="#FF8E3D"/>
<stop offset="1" stop-color="#FF6F3D"/>
</linearGradient>
<linearGradient id="paint18_linear_68_1522" x1="35.5393" y1="375.314" x2="19.2059" y2="391.648" gradientUnits="userSpaceOnUse">
<stop stop-color="#FF8E3D"/>
<stop offset="1" stop-color="#FF6F3D"/>
</linearGradient>
</defs>
</svg>
