<svg width="65" height="526" viewBox="0 0 65 526" fill="none" xmlns="http://www.w3.org/2000/svg">
<mask id="path-1-outside-1_832_21418" maskUnits="userSpaceOnUse" x="3.16138" y="33.0361" width="56" height="28" fill="black">
<rect fill="white" x="3.16138" y="33.0361" width="56" height="28"/>
<path d="M25.3043 60.0002C25.0393 60 24.7771 59.9469 24.534 59.8444L17.9584 57.2002C17.4738 57.0061 17.0896 56.6315 16.8921 56.1604C16.6969 55.6955 16.7054 55.1736 16.9156 54.7149L18.4816 51.0429C16.9406 49.906 15.5655 48.5718 14.394 47.0766L10.5743 48.6067C10.0985 48.7996 9.56278 48.7987 9.08767 48.6043C8.61284 48.4142 8.23494 48.0495 8.03666 47.5899L5.31348 41.182C4.90094 40.2317 5.3562 39.1365 6.33296 38.7296C7.463 38.2778 10.3227 36.6633 13.4194 35.662C16.5162 34.6608 18.0646 36.1626 18.7563 38.1651C21.6959 46.6757 37.8564 50.8344 43.3549 40.1677C43.6546 39.5863 44.4039 37.6734 45.2237 36.2584C45.9356 35.1614 46.995 34.6349 48.8006 35.3921C50.6289 36.1589 52.9826 37.2036 54.0682 37.6299L56.7693 38.7207C57.2499 38.9111 57.6307 39.2821 57.8249 39.7491C58.0195 40.2111 58.0182 40.729 57.8213 41.1901L55.087 47.586C54.8897 48.0537 54.5068 48.4247 54.0244 48.6155C53.542 48.8063 53.0007 48.8009 52.5225 48.6004L48.7284 47.0772C47.559 48.5714 46.1842 49.9034 44.6423 51.0359L46.2178 54.7379C46.4204 55.1909 46.4252 55.7041 46.2312 56.1605C46.0332 56.6329 45.6476 57.0082 45.1612 57.2019L38.5755 59.8505C38.0985 60.0443 37.5614 60.0449 37.0839 59.8523C36.6064 59.6597 36.2282 59.2898 36.0336 58.8251L34.4514 55.1287C32.5354 55.3879 30.5917 55.3906 28.6749 55.1366L27.0994 58.8296C26.8008 59.5363 26.0917 59.9984 25.3043 60.0002Z"/>
</mask>
<path d="M25.3043 60.0002C25.0393 60 24.7771 59.9469 24.534 59.8444L17.9584 57.2002C17.4738 57.0061 17.0896 56.6315 16.8921 56.1604C16.6969 55.6955 16.7054 55.1736 16.9156 54.7149L18.4816 51.0429C16.9406 49.906 15.5655 48.5718 14.394 47.0766L10.5743 48.6067C10.0985 48.7996 9.56278 48.7987 9.08767 48.6043C8.61284 48.4142 8.23494 48.0495 8.03666 47.5899L5.31348 41.182C4.90094 40.2317 5.3562 39.1365 6.33296 38.7296C7.463 38.2778 10.3227 36.6633 13.4194 35.662C16.5162 34.6608 18.0646 36.1626 18.7563 38.1651C21.6959 46.6757 37.8564 50.8344 43.3549 40.1677C43.6546 39.5863 44.4039 37.6734 45.2237 36.2584C45.9356 35.1614 46.995 34.6349 48.8006 35.3921C50.6289 36.1589 52.9826 37.2036 54.0682 37.6299L56.7693 38.7207C57.2499 38.9111 57.6307 39.2821 57.8249 39.7491C58.0195 40.2111 58.0182 40.729 57.8213 41.1901L55.087 47.586C54.8897 48.0537 54.5068 48.4247 54.0244 48.6155C53.542 48.8063 53.0007 48.8009 52.5225 48.6004L48.7284 47.0772C47.559 48.5714 46.1842 49.9034 44.6423 51.0359L46.2178 54.7379C46.4204 55.1909 46.4252 55.7041 46.2312 56.1605C46.0332 56.6329 45.6476 57.0082 45.1612 57.2019L38.5755 59.8505C38.0985 60.0443 37.5614 60.0449 37.0839 59.8523C36.6064 59.6597 36.2282 59.2898 36.0336 58.8251L34.4514 55.1287C32.5354 55.3879 30.5917 55.3906 28.6749 55.1366L27.0994 58.8296C26.8008 59.5363 26.0917 59.9984 25.3043 60.0002Z" fill="#EFEFEF"/>
<path d="M55.9659 41.1045H55.9674V40.1045H55.9659V41.1045ZM25.3043 60.0002L25.3033 61.0002L25.3066 61.0002L25.3043 60.0002ZM24.534 59.8444L24.9226 58.923L24.9149 58.9198L24.9071 58.9167L24.534 59.8444ZM17.9584 57.2002L18.3315 56.2724L18.3303 56.2719L17.9584 57.2002ZM16.8921 56.1604L17.8143 55.7737L17.8141 55.7733L16.8921 56.1604ZM16.9156 54.7149L17.8247 55.1315L17.8302 55.1194L17.8355 55.1072L16.9156 54.7149ZM18.4816 51.0429L19.4015 51.4352L19.7117 50.7077L19.0753 50.2382L18.4816 51.0429ZM14.394 47.0766L15.1812 46.4598L14.7185 45.8693L14.0222 46.1483L14.394 47.0766ZM10.5743 48.6067L10.2025 47.6784L10.1987 47.68L10.5743 48.6067ZM9.08767 48.6043L9.46642 47.6788L9.45928 47.6759L9.08767 48.6043ZM8.03666 47.5899L7.11631 47.981L7.11845 47.986L8.03666 47.5899ZM5.31348 41.182L6.23385 40.7909L6.23078 40.7838L5.31348 41.182ZM6.33296 38.7296L5.96175 37.801L5.95504 37.8037L5.94836 37.8065L6.33296 38.7296ZM43.3549 40.1677L44.2438 40.6258L43.3549 40.1677ZM54.0682 37.6299L54.4426 36.7026L54.4337 36.6991L54.0682 37.6299ZM56.7693 38.7207L56.3948 39.648L56.401 39.6504L56.7693 38.7207ZM57.8249 39.7491L56.9015 40.1331L56.9033 40.1373L57.8249 39.7491ZM57.8213 41.1901L58.7408 41.5832L58.741 41.5828L57.8213 41.1901ZM55.087 47.586L54.1675 47.1929L54.1656 47.1973L55.087 47.586ZM54.0244 48.6155L54.3922 49.5454L54.0244 48.6155ZM52.5225 48.6004L52.9092 47.6782L52.9022 47.6752L52.8951 47.6724L52.5225 48.6004ZM48.7284 47.0772L49.1009 46.1492L48.4038 45.8693L47.9409 46.4609L48.7284 47.0772ZM44.6423 51.0359L44.0503 50.23L43.4121 50.6988L43.7222 51.4275L44.6423 51.0359ZM46.2178 54.7379L45.2977 55.1295L45.3012 55.1379L45.305 55.1462L46.2178 54.7379ZM46.2312 56.1605L45.3109 55.7692L45.3089 55.774L46.2312 56.1605ZM45.1612 57.2019L44.7913 56.2728L44.7881 56.2741L45.1612 57.2019ZM38.5755 59.8505L38.2023 58.9227L38.199 58.924L38.5755 59.8505ZM37.0839 59.8523L37.458 58.9249L37.0839 59.8523ZM36.0336 58.8251L36.956 58.4388L36.9529 58.4316L36.0336 58.8251ZM34.4514 55.1287L35.3707 54.7352L35.0713 54.0357L34.3173 54.1377L34.4514 55.1287ZM28.6749 55.1366L28.8063 54.1453L28.0532 54.0455L27.7551 54.7442L28.6749 55.1366ZM27.0994 58.8296L26.1796 58.4372L26.1783 58.4404L27.0994 58.8296ZM48.8006 35.3921L48.4139 36.3143L48.8006 35.3921ZM45.2237 36.2584L44.3848 35.7141L44.3711 35.7353L44.3584 35.7571L45.2237 36.2584ZM25.3053 59.0002C25.1727 59.0001 25.0424 58.9735 24.9226 58.923L24.1455 60.7659C24.5118 60.9204 24.9058 60.9998 25.3033 61.0002L25.3053 59.0002ZM24.9071 58.9167L18.3315 56.2724L17.5854 58.128L24.1609 60.7722L24.9071 58.9167ZM18.3303 56.2719C18.088 56.1749 17.9058 55.9919 17.8143 55.7737L15.9699 56.5471C16.2735 57.2712 16.8595 57.8373 17.5866 58.1286L18.3303 56.2719ZM17.8141 55.7733C17.7273 55.5666 17.7309 55.3361 17.8247 55.1315L16.0066 54.2982C15.6799 55.011 15.6665 55.8245 15.9701 56.5476L17.8141 55.7733ZM17.8355 55.1072L19.4015 51.4352L17.5618 50.6506L15.9958 54.3226L17.8355 55.1072ZM19.0753 50.2382C17.6063 49.1545 16.2965 47.8833 15.1812 46.4598L13.6069 47.6933C14.8345 49.2602 16.2748 50.6576 17.888 51.8476L19.0753 50.2382ZM14.0222 46.1483L10.2025 47.6785L10.9462 49.535L14.7659 48.0049L14.0222 46.1483ZM10.1987 47.68C9.96485 47.7748 9.69984 47.7743 9.46641 47.6788L8.70894 49.5298C9.42573 49.8231 10.2322 49.8244 10.95 49.5335L10.1987 47.68ZM9.45928 47.6759C9.22385 47.5817 9.04593 47.4048 8.95486 47.1937L7.11845 47.986C7.42395 48.6941 8.00182 49.2468 8.71607 49.5327L9.45928 47.6759ZM8.957 47.1987L6.23382 40.7909L4.39314 41.5731L7.11632 47.981L8.957 47.1987ZM6.23078 40.7838C6.04854 40.364 6.23701 39.8529 6.71757 39.6527L5.94836 37.8065C4.47538 38.4202 3.75334 40.0994 4.39618 41.5802L6.23078 40.7838ZM53.6937 38.5572L56.3948 39.6479L57.1437 37.7935L54.4426 36.7027L53.6937 38.5572ZM56.401 39.6504C56.6367 39.7438 56.8136 39.9216 56.9016 40.1331L58.7483 39.3651C58.4478 38.6426 57.8631 38.0784 57.1376 37.791L56.401 39.6504ZM56.9033 40.1373C56.9927 40.3495 56.9921 40.5855 56.9017 40.7974L58.741 41.5828C59.0443 40.8724 59.0463 40.0728 58.7465 39.3609L56.9033 40.1373ZM56.9018 40.797L54.1675 47.1929L56.0065 47.9791L58.7408 41.5832L56.9018 40.797ZM54.1656 47.1973C54.0753 47.4115 53.8954 47.5911 53.6566 47.6856L54.3922 49.5454C55.1181 49.2583 55.7042 48.6958 56.0084 47.9746L54.1656 47.1973ZM53.6566 47.6856C53.4169 47.7804 53.1464 47.7776 52.9092 47.6782L52.1359 49.5227C52.8551 49.8242 53.6671 49.8322 54.3922 49.5454L53.6566 47.6856ZM52.8951 47.6724L49.1009 46.1492L48.3558 48.0052L52.15 49.5284L52.8951 47.6724ZM47.9409 46.4609C46.8281 47.8827 45.5193 49.151 44.0503 50.23L45.2343 51.8419C46.8491 50.6558 48.2898 49.2602 49.5159 47.6935L47.9409 46.4609ZM43.7222 51.4275L45.2977 55.1295L47.138 54.3463L45.5625 50.6444L43.7222 51.4275ZM45.305 55.1462C45.3941 55.3454 45.3961 55.5689 45.3109 55.7693L47.1514 56.5518C47.4544 55.8393 47.4468 55.0363 47.1307 54.3296L45.305 55.1462ZM45.3089 55.774C45.2172 55.9927 45.0343 56.176 44.7913 56.2728L45.5311 58.1309C46.2608 57.8404 46.8491 57.2732 47.1534 56.547L45.3089 55.774ZM44.7881 56.2741L38.2023 58.9227L38.9486 60.7782L45.5344 58.1297L44.7881 56.2741ZM38.199 58.924C37.9626 59.0201 37.6947 59.0204 37.458 58.9249L36.7098 60.7797C37.4281 61.0694 38.2343 61.0685 38.9519 60.7769L38.199 58.924ZM37.458 58.9249C37.2221 58.8298 37.0449 58.6512 36.956 58.4388L35.1112 59.2114C35.4115 59.9285 35.9908 60.4897 36.7098 60.7797L37.458 58.9249ZM36.9529 58.4316L35.3707 54.7352L33.5321 55.5222L35.1143 59.2186L36.9529 58.4316ZM34.3173 54.1377C32.4893 54.385 30.6349 54.3876 28.8063 54.1453L28.5436 56.1279C30.5484 56.3936 32.5814 56.3908 34.5855 56.1196L34.3173 54.1377ZM27.7551 54.7442L26.1796 58.4372L28.0192 59.222L29.5947 55.529L27.7551 54.7442ZM26.1783 58.4404C26.0413 58.7647 25.7026 58.9993 25.302 59.0002L25.3066 61.0002C26.4808 60.9976 27.5604 60.3079 28.0206 59.2188L26.1783 58.4404ZM48.4139 36.3143C50.1995 37.0632 52.6078 38.1308 53.7027 38.5607L54.4337 36.6991C53.3573 36.2764 51.0583 35.2546 49.1873 34.4699L48.4139 36.3143ZM44.2438 40.6258C44.4095 40.3044 44.701 39.6148 45.0063 38.9358C45.3307 38.2144 45.7059 37.421 46.089 36.7597L44.3584 35.7571C43.9217 36.5109 43.5123 37.3814 43.1822 38.1155C42.833 38.8921 42.6001 39.4495 42.4661 39.7095L44.2438 40.6258ZM46.0626 36.8028C46.3367 36.3803 46.6081 36.1723 46.8897 36.0877C47.1763 36.0015 47.6451 35.9919 48.4139 36.3143L49.1873 34.4699C48.1505 34.0351 47.1867 33.9101 46.3143 34.1722C45.4368 34.4358 44.8226 35.0395 44.3848 35.7141L46.0626 36.8028ZM6.70418 39.6581C7.30336 39.4186 8.3879 38.8605 9.56459 38.3066C10.7926 37.7285 12.2377 37.0951 13.7271 36.6135L13.1118 34.7105C11.5044 35.2302 9.97125 35.9047 8.71276 36.4971C7.40292 37.1137 6.49261 37.5888 5.96175 37.801L6.70418 39.6581ZM17.8111 38.4916C19.4403 43.2085 24.6153 46.5408 29.9465 47.3467C35.3359 48.1613 41.244 46.4453 44.2438 40.6258L42.4661 39.7095C39.9674 44.5568 35.0459 46.0948 30.2455 45.3691C25.3869 44.6347 21.0119 41.6323 19.7015 37.8386L17.8111 38.4916ZM13.7271 36.6135C15.0851 36.1745 15.9361 36.3311 16.487 36.6516C17.065 36.9878 17.5093 37.6179 17.8111 38.4916L19.7015 37.8386C19.3116 36.7099 18.6358 35.5878 17.4926 34.9228C16.3222 34.242 14.8506 34.1483 13.1118 34.7105L13.7271 36.6135Z" fill="#333333" mask="url(#path-1-outside-1_832_21418)"/>
<mask id="path-3-outside-2_832_21418" maskUnits="userSpaceOnUse" x="3.12915" y="5" width="59" height="35" fill="black">
<rect fill="white" x="3.12915" y="5" width="59" height="35"/>
<path d="M51.9099 38.0396H16.4291C9.63605 38.0396 4.12915 32.7116 4.12915 26.1392C4.12915 19.5668 9.63605 14.2388 16.4291 14.2388C16.5096 14.2388 16.5894 14.2392 16.6684 14.241C18.9247 9.2358 24.0321 6 29.676 6C35.3198 6 40.4272 9.2358 42.6835 14.241C46.9667 14.3344 50.7959 16.8474 52.4694 20.6633C57.3172 20.9532 61.0501 24.9169 60.8989 29.6139C60.7477 34.311 56.767 38.0422 51.9099 38.0396Z"/>
</mask>
<path d="M51.9099 38.0396H16.4291C9.63605 38.0396 4.12915 32.7116 4.12915 26.1392C4.12915 19.5668 9.63605 14.2388 16.4291 14.2388C16.5096 14.2388 16.5894 14.2392 16.6684 14.241C18.9247 9.2358 24.0321 6 29.676 6C35.3198 6 40.4272 9.2358 42.6835 14.241C46.9667 14.3344 50.7959 16.8474 52.4694 20.6633C57.3172 20.9532 61.0501 24.9169 60.8989 29.6139C60.7477 34.311 56.767 38.0422 51.9099 38.0396Z" fill="url(#paint0_linear_832_21418)"/>
<path d="M51.9099 38.0396L51.9104 37.0396H51.9099V38.0396ZM16.6684 14.241L16.6464 15.2407L17.3081 15.2553L17.5801 14.6519L16.6684 14.241ZM42.6835 14.241L41.7718 14.6519L42.0311 15.227L42.6617 15.2407L42.6835 14.241ZM52.4694 20.6633L51.5536 21.0649L51.7992 21.625L52.4097 21.6615L52.4694 20.6633ZM51.9099 37.0396H16.4291V39.0396H51.9099V37.0396ZM16.4291 37.0396C10.1569 37.0396 5.12915 32.1285 5.12915 26.1392H3.12915C3.12915 33.2948 9.11515 39.0396 16.4291 39.0396V37.0396ZM5.12915 26.1392C5.12915 20.1499 10.1569 15.2388 16.4291 15.2388V13.2388C9.11515 13.2388 3.12915 18.9836 3.12915 26.1392H5.12915ZM16.4291 15.2388C16.5062 15.2388 16.5779 15.2392 16.6464 15.2407L16.6904 13.2412C16.601 13.2392 16.5129 13.2388 16.4291 13.2388V15.2388ZM17.5801 14.6519C19.669 10.0181 24.4111 7 29.676 7V5C23.6531 5 18.1805 8.4535 15.7568 13.83L17.5801 14.6519ZM29.676 7C34.9408 7 39.6829 10.0181 41.7718 14.6519L43.5951 13.83C41.1715 8.4535 35.6988 5 29.676 5V7ZM42.6617 15.2407C46.57 15.326 50.042 17.6182 51.5536 21.0649L53.3852 20.2616C51.5498 16.0767 47.3634 13.3428 42.7053 13.2412L42.6617 15.2407ZM52.4097 21.6615C56.7469 21.9209 60.0323 25.4554 59.8994 29.5818L61.8984 29.6461C62.068 24.3783 57.8876 19.9855 52.5291 19.6651L52.4097 21.6615ZM59.8994 29.5818C59.7665 33.7097 56.2575 37.0419 51.9104 37.0396L51.9094 39.0396C57.2766 39.0425 61.7288 34.9123 61.8984 29.6461L59.8994 29.5818Z" fill="#333333" mask="url(#path-3-outside-2_832_21418)"/>
<path fill-rule="evenodd" clip-rule="evenodd" d="M16.2831 31.5841C16.477 31.8448 16.7884 31.9995 17.1202 32C17.5646 32 17.9591 31.7244 18.0995 31.3159L19.5846 27H22.9139L24.399 31.3159C24.5394 31.7244 24.9339 32 25.3783 32C25.7101 31.9995 26.0215 31.8448 26.2154 31.584C26.4094 31.3233 26.4623 30.9882 26.3576 30.6832L22.2314 18.6921C22.2273 18.6799 22.223 18.6677 22.2184 18.6557C22.1637 18.5111 22.0777 18.3857 21.9705 18.2845C21.8764 18.1954 21.7633 18.1226 21.6347 18.0726C21.5135 18.0253 21.3828 18 21.2493 18C20.9789 18 20.72 18.1036 20.5288 18.2838C20.4212 18.3852 20.335 18.5107 20.2801 18.6557C20.2755 18.6678 20.2712 18.6799 20.2671 18.6922L16.1409 30.6832C16.0362 30.9882 16.0892 31.3233 16.2831 31.5841ZM21.2493 22.1625L22.2256 25H20.2729L21.2493 22.1625ZM27.4429 30.9997C27.4429 31.5519 27.905 31.9996 28.4751 31.9996C29.0453 31.9996 29.5074 31.5519 29.5074 30.9997V26H32.6042C34.8846 26 36.7333 24.2092 36.7333 22.0002C36.7333 19.7912 34.8846 18.0005 32.6042 18.0005H28.4751C27.905 18.0005 27.4429 18.4482 27.4429 19.0004V25.0001V30.9997ZM32.6042 24.0001H29.5074V20.0004H32.6042C33.7444 20.0004 34.6687 20.8957 34.6687 22.0002C34.6687 23.1047 33.7444 24.0001 32.6042 24.0001ZM39.83 29.9998V20.0004H37.7655C37.1953 20.0004 36.7332 19.5527 36.7332 19.0004C36.7332 18.4482 37.1953 18.0005 37.7655 18.0005H40.8623H43.959C44.5291 18.0005 44.9913 18.4482 44.9913 19.0004C44.9913 19.5527 44.5291 20.0004 43.959 20.0004H41.8946V29.9998H43.9592C44.5293 29.9998 44.9914 30.4475 44.9914 30.9997C44.9914 31.552 44.5293 31.9997 43.9592 31.9997H37.7656C37.1955 31.9997 36.7333 31.552 36.7333 30.9997C36.7333 30.4475 37.1955 29.9998 37.7656 29.9998H39.83Z" fill="white"/>
<rect x="1.5" y="73.5" width="55" height="37" rx="1.5" fill="#EFEFEF" stroke="#333333"/>
<rect x="6" y="78" width="46" height="2" rx="1" fill="#333333"/>
<path d="M20.7014 94.299C20.7312 94.8159 20.8353 95.2928 21.014 95.7297C21.2 96.1593 21.4419 96.5306 21.7395 96.8437C22.0447 97.1568 22.3981 97.4007 22.8 97.5754C23.2019 97.7429 23.6447 97.8266 24.1284 97.8266C24.5526 97.8266 24.9581 97.7829 25.3451 97.6956C25.7321 97.6082 26.0744 97.4699 26.3721 97.2805C26.6698 97.084 26.9079 96.8291 27.0865 96.516C27.2651 96.1957 27.3544 95.8061 27.3544 95.3474C27.3544 94.9324 27.2242 94.5829 26.9637 94.299C26.7107 94.015 26.3758 93.7711 25.9591 93.5672C25.5423 93.3561 25.066 93.1668 24.5302 92.9993C23.9944 92.8246 23.4474 92.6462 22.8893 92.4642C22.3386 92.2821 21.7953 92.0783 21.2595 91.8526C20.7237 91.6196 20.2474 91.3356 19.8307 91.0007C19.414 90.6658 19.0753 90.2653 18.8149 89.7993C18.5619 89.3333 18.4353 88.7727 18.4353 88.1174C18.4353 87.4476 18.5693 86.8578 18.8372 86.3481C19.1051 85.8312 19.4809 85.4016 19.9647 85.0594C20.4558 84.7099 21.0363 84.4478 21.706 84.273C22.3758 84.091 23.1126 84 23.9163 84C24.6307 84 25.2633 84.0728 25.814 84.2184C26.3647 84.3568 26.8447 84.5461 27.254 84.7863C27.6707 85.0266 28.0205 85.3106 28.3033 85.6382C28.586 85.9659 28.8167 86.3154 28.9953 86.6867C29.1814 87.0507 29.3191 87.433 29.4084 87.8334C29.4977 88.2266 29.5572 88.6125 29.587 88.9911H26.9191C26.8744 88.5033 26.7628 88.081 26.5842 87.7242C26.413 87.3675 26.1935 87.0726 25.9256 86.8396C25.6651 86.6066 25.36 86.4355 25.0102 86.3263C24.6679 86.2098 24.3033 86.1515 23.9163 86.1515C23.5665 86.1515 23.2205 86.1879 22.8781 86.2608C22.5433 86.3263 22.2419 86.4355 21.974 86.5884C21.706 86.7413 21.4902 86.9452 21.3265 87.2C21.1628 87.4476 21.0809 87.7534 21.0809 88.1174C21.0809 88.5397 21.2074 88.8965 21.4605 89.1877C21.7209 89.4717 22.0595 89.7229 22.4763 89.9413C22.893 90.1597 23.3693 90.3563 23.9051 90.5311C24.4409 90.6985 24.9842 90.8769 25.5349 91.0662C26.093 91.2482 26.64 91.4557 27.1758 91.6887C27.7116 91.9144 28.1879 92.1911 28.6047 92.5188C29.0214 92.8464 29.3563 93.2396 29.6093 93.6983C29.8698 94.157 30 94.7067 30 95.3474C30 96.1192 29.8512 96.7964 29.5535 97.3788C29.2633 97.954 28.8577 98.4382 28.3367 98.8314C27.8158 99.2173 27.1944 99.5085 26.4726 99.7051C25.7581 99.9017 24.9767 100 24.1284 100C23.3619 100 22.614 99.8689 21.8847 99.6068C21.1628 99.3447 20.5153 98.9697 19.9423 98.4819C19.3767 97.9868 18.9153 97.3861 18.5581 96.6799C18.2084 95.9736 18.0223 95.18 18 94.299H20.7014Z" fill="#333333"/>
<path d="M16 84V95.2559C16 96.0988 15.8625 96.8224 15.5874 97.4266C15.3204 98.0233 14.9563 98.5119 14.4951 98.8923C14.034 99.2727 13.5 99.5524 12.8932 99.7315C12.2864 99.9105 11.6472 100 10.9757 100C10.3366 100 9.71764 99.9068 9.11893 99.7203C8.52023 99.5413 7.99029 99.2727 7.52913 98.9147C7.06796 98.5492 6.69579 98.0979 6.41262 97.5608C6.13754 97.0238 6 96.4009 6 95.6923V94.1818H8.88835V95.6699C8.88835 96.028 8.94903 96.3413 9.07039 96.6098C9.19984 96.8709 9.3657 97.0909 9.56796 97.2699C9.77832 97.4415 10.0089 97.5683 10.2597 97.6503C10.5105 97.7324 10.7654 97.7734 11.0243 97.7734C11.2265 97.7734 11.449 97.7436 11.6917 97.6839C11.9345 97.6168 12.161 97.5049 12.3714 97.3483C12.5898 97.1841 12.7718 96.9678 12.9175 96.6993C13.0631 96.4233 13.1359 96.0802 13.1359 95.6699V84H16Z" fill="#333333"/>
<rect x="27.5" y="101.5" width="35" height="21" rx="1.5" fill="url(#paint1_linear_832_21418)" stroke="#333333"/>
<path fill-rule="evenodd" clip-rule="evenodd" d="M51.2972 117.591C50.8142 117.046 50.8142 116.16 51.2972 115.614L54.4989 112L51.2972 108.385C50.8142 107.84 50.8142 106.954 51.2972 106.409C51.7801 105.864 52.5649 105.864 53.0479 106.409L58 112L53.0479 117.591C52.5649 118.136 51.7801 118.136 51.2972 117.591ZM36.9521 117.591L32 112L36.9521 106.409C37.4351 105.864 38.2199 105.864 38.7028 106.409C39.1858 106.954 39.1858 107.84 38.7028 108.385L35.5011 112L38.7028 115.614C39.1858 116.16 39.1858 117.046 38.7028 117.591C38.2199 118.136 37.4351 118.136 36.9521 117.591ZM41.9707 115.715C41.665 116.406 41.9139 117.246 42.5253 117.591C43.137 117.936 43.8809 117.657 44.1857 116.965L48.031 108.283C48.3367 107.594 48.089 106.754 47.4777 106.409C46.866 106.064 46.122 106.343 45.816 107.034L41.9707 115.715Z" fill="#F9F9F9"/>
<path fill-rule="evenodd" clip-rule="evenodd" d="M60.9576 163.73C61.5927 162.58 61.9497 161.297 62 159.984C62 157.002 59.5003 152.491 55.7506 152.491C54.3366 152.51 52.9779 153.042 51.9284 153.989C51.3417 154.546 50.5897 154.897 49.786 154.988C49.5235 154.127 49.561 151.03 51.3183 143.999C51.7463 142.271 50.6918 140.525 48.9631 140.097C48.7073 140.034 48.4447 140.002 48.1811 140.002H36.9771C35.9871 140.002 35.0962 140.603 34.7273 141.521C34.3496 142.453 34.5806 143.521 35.3098 144.214C36.2975 145.03 36.9065 146.215 36.9947 147.493C36.9947 149.559 34.2775 149.991 31.9951 149.991C29.7127 149.991 26.9955 149.558 26.9955 147.493C27.0855 146.213 27.6983 145.026 28.6903 144.211C29.4195 143.518 29.6505 142.45 29.2728 141.519C28.9039 140.601 28.013 139.999 27.023 140H15.819C14.038 139.996 12.5911 141.435 12.5872 143.215C12.5866 143.478 12.6184 143.741 12.6817 143.996C14.4315 151.017 14.4765 154.114 14.214 154.986C13.4103 154.894 12.6583 154.543 12.0716 153.987C11.0221 153.04 9.6634 152.507 8.24942 152.488C4.49975 152.488 2 156.999 2 159.981C2 162.964 4.49975 167.474 8.24942 167.474C9.6634 167.455 11.0221 166.923 12.0716 165.976C12.6356 165.441 13.3523 165.096 14.1209 164.988L14.2326 165.043C14.4736 165.991 14.3963 169.106 12.6817 175.966C12.5688 176.424 12.5598 176.882 12.6396 177.318C12.7351 177.903 12.9982 178.427 13.3767 178.851C13.7983 179.338 14.3695 179.703 15.0427 179.869C15.2975 179.932 15.559 179.963 15.8214 179.963C19.5788 180.047 23.3527 179.963 27.1116 179.963C28.1016 179.963 28.9925 179.362 29.3614 178.444C29.7391 177.512 29.5081 176.444 28.7789 175.752C27.7869 174.936 27.1741 173.75 27.0841 172.47C27.0841 170.664 29.408 169.826 31.5993 169.923C33.3064 169.731 35.6167 168.43 36.8112 167.087C37.5069 166.305 38.3483 165.454 39.2581 164.739C42.7931 161.958 45.0645 161.409 49.4194 161.409C52.2858 161.409 55.3618 162.851 57.1297 163.838C57.7741 164.197 60.0645 164.739 60.9576 163.73Z" fill="#D9F4FF" stroke="#333333"/>
<mask id="path-13-inside-3_832_21418" fill="white">
<path fill-rule="evenodd" clip-rule="evenodd" d="M59.3234 169.208L62 169.822V176.178L59.3234 176.792L58.4312 179.022L59.881 181.309L55.3643 185.825L53.0223 184.375L50.7918 185.323L50.1784 188H43.8216L43.2082 185.323L40.9777 184.431L38.6914 185.881L34.1747 181.364L35.6245 179.022L34.6766 176.792L32 176.178V169.822L34.6766 169.208L35.5688 166.978L34.119 164.691L38.6357 160.175L40.9777 161.625L43.2082 160.677L43.8216 158H50.1784L50.7918 160.677L53.0223 161.569L55.3085 160.119L59.8253 164.636L58.3755 166.978L59.3234 169.208ZM47 176.462C48.9118 176.462 50.4615 174.912 50.4615 173C50.4615 171.088 48.9118 169.538 47 169.538C45.0882 169.538 43.5385 171.088 43.5385 173C43.5385 174.912 45.0882 176.462 47 176.462Z"/>
</mask>
<path fill-rule="evenodd" clip-rule="evenodd" d="M59.3234 169.208L62 169.822V176.178L59.3234 176.792L58.4312 179.022L59.881 181.309L55.3643 185.825L53.0223 184.375L50.7918 185.323L50.1784 188H43.8216L43.2082 185.323L40.9777 184.431L38.6914 185.881L34.1747 181.364L35.6245 179.022L34.6766 176.792L32 176.178V169.822L34.6766 169.208L35.5688 166.978L34.119 164.691L38.6357 160.175L40.9777 161.625L43.2082 160.677L43.8216 158H50.1784L50.7918 160.677L53.0223 161.569L55.3085 160.119L59.8253 164.636L58.3755 166.978L59.3234 169.208ZM47 176.462C48.9118 176.462 50.4615 174.912 50.4615 173C50.4615 171.088 48.9118 169.538 47 169.538C45.0882 169.538 43.5385 171.088 43.5385 173C43.5385 174.912 45.0882 176.462 47 176.462Z" fill="url(#paint2_linear_832_21418)"/>
<path d="M62 169.822H63V169.025L62.2234 168.847L62 169.822ZM59.3234 169.208L58.4031 169.599L58.6027 170.069L59.1 170.183L59.3234 169.208ZM62 176.178L62.2234 177.153L63 176.975V176.178H62ZM59.3234 176.792L59.1 175.817L58.5895 175.934L58.3949 176.42L59.3234 176.792ZM58.4312 179.022L57.5028 178.651L57.3128 179.126L57.5867 179.558L58.4312 179.022ZM59.881 181.309L60.5881 182.016L61.1545 181.449L60.7255 180.773L59.881 181.309ZM55.3643 185.825L54.838 186.676L55.5114 187.092L56.0714 186.532L55.3643 185.825ZM53.0223 184.375L53.5487 183.525L53.1081 183.252L52.6312 183.455L53.0223 184.375ZM50.7918 185.323L50.4007 184.403L49.9311 184.603L49.8171 185.1L50.7918 185.323ZM50.1784 188V189H50.9752L51.1532 188.223L50.1784 188ZM43.8216 188L42.8468 188.223L43.0248 189H43.8216V188ZM43.2082 185.323L44.1829 185.1L44.0659 184.589L43.5796 184.395L43.2082 185.323ZM40.9777 184.431L41.3491 183.503L40.8741 183.313L40.4422 183.587L40.9777 184.431ZM38.6914 185.881L37.9843 186.588L38.5506 187.154L39.227 186.726L38.6914 185.881ZM34.1747 181.364L33.3245 180.838L32.9076 181.511L33.4676 182.071L34.1747 181.364ZM35.6245 179.022L36.4748 179.549L36.7475 179.108L36.5449 178.631L35.6245 179.022ZM34.6766 176.792L35.5969 176.401L35.3973 175.931L34.9 175.817L34.6766 176.792ZM32 176.178H31V176.975L31.7766 177.153L32 176.178ZM32 169.822L31.7766 168.847L31 169.025V169.822H32ZM34.6766 169.208L34.9 170.183L35.4105 170.066L35.6051 169.58L34.6766 169.208ZM35.5688 166.978L36.4973 167.349L36.6872 166.874L36.4133 166.442L35.5688 166.978ZM34.119 164.691L33.4119 163.984L32.8455 164.551L33.2745 165.227L34.119 164.691ZM38.6357 160.175L39.162 159.324L38.4886 158.908L37.9286 159.468L38.6357 160.175ZM40.9777 161.625L40.4513 162.475L40.8919 162.748L41.3688 162.545L40.9777 161.625ZM43.2082 160.677L43.5993 161.597L44.0689 161.397L44.1829 160.9L43.2082 160.677ZM43.8216 158V157H43.0248L42.8468 157.777L43.8216 158ZM50.1784 158L51.1532 157.777L50.9752 157H50.1784V158ZM50.7918 160.677L49.8171 160.9L49.9341 161.411L50.4204 161.605L50.7918 160.677ZM53.0223 161.569L52.6509 162.497L53.1259 162.687L53.5578 162.413L53.0223 161.569ZM55.3085 160.119L56.0157 159.412L55.4494 158.846L54.773 159.274L55.3085 160.119ZM59.8253 164.636L60.6755 165.162L61.0924 164.489L60.5324 163.929L59.8253 164.636ZM58.3755 166.978L57.5252 166.451L57.2524 166.892L57.4551 167.369L58.3755 166.978ZM62.2234 168.847L59.5468 168.233L59.1 170.183L61.7766 170.796L62.2234 168.847ZM63 176.178V169.822H61V176.178H63ZM59.5468 177.767L62.2234 177.153L61.7766 175.204L59.1 175.817L59.5468 177.767ZM59.3597 179.394L60.2519 177.163L58.3949 176.42L57.5028 178.651L59.3597 179.394ZM60.7255 180.773L59.2757 178.487L57.5867 179.558L59.0365 181.844L60.7255 180.773ZM56.0714 186.532L60.5881 182.016L59.1739 180.601L54.6572 185.118L56.0714 186.532ZM52.496 185.226L54.838 186.676L55.8907 184.975L53.5487 183.525L52.496 185.226ZM51.183 186.244L53.4134 185.296L52.6312 183.455L50.4007 184.403L51.183 186.244ZM51.1532 188.223L51.7666 185.547L49.8171 185.1L49.2037 187.777L51.1532 188.223ZM43.8216 189H50.1784V187H43.8216V189ZM42.2334 185.547L42.8468 188.223L44.7963 187.777L44.1829 185.1L42.2334 185.547ZM40.6063 185.36L42.8368 186.252L43.5796 184.395L41.3491 183.503L40.6063 185.36ZM39.227 186.726L41.5132 185.276L40.4422 183.587L38.1559 185.037L39.227 186.726ZM33.4676 182.071L37.9843 186.588L39.3986 185.174L34.8818 180.657L33.4676 182.071ZM34.7743 178.496L33.3245 180.838L35.025 181.891L36.4748 179.549L34.7743 178.496ZM33.7562 177.183L34.7042 179.413L36.5449 178.631L35.5969 176.401L33.7562 177.183ZM31.7766 177.153L34.4532 177.767L34.9 175.817L32.2234 175.204L31.7766 177.153ZM31 169.822V176.178H33V169.822H31ZM34.4532 168.233L31.7766 168.847L32.2234 170.796L34.9 170.183L34.4532 168.233ZM34.6403 166.606L33.7481 168.837L35.6051 169.58L36.4973 167.349L34.6403 166.606ZM33.2745 165.227L34.7243 167.513L36.4133 166.442L34.9635 164.156L33.2745 165.227ZM37.9286 159.468L33.4119 163.984L34.8261 165.399L39.3428 160.882L37.9286 159.468ZM41.5041 160.774L39.162 159.324L38.1093 161.025L40.4513 162.475L41.5041 160.774ZM42.817 159.756L40.5866 160.704L41.3688 162.545L43.5993 161.597L42.817 159.756ZM42.8468 157.777L42.2334 160.453L44.1829 160.9L44.7963 158.223L42.8468 157.777ZM50.1784 157H43.8216V159H50.1784V157ZM51.7666 160.453L51.1532 157.777L49.2037 158.223L49.8171 160.9L51.7666 160.453ZM53.3937 160.64L51.1632 159.748L50.4204 161.605L52.6509 162.497L53.3937 160.64ZM54.773 159.274L52.4868 160.724L53.5578 162.413L55.8441 160.963L54.773 159.274ZM60.5324 163.929L56.0157 159.412L54.6014 160.826L59.1182 165.343L60.5324 163.929ZM59.2257 167.504L60.6755 165.162L58.975 164.109L57.5252 166.451L59.2257 167.504ZM60.2438 168.817L59.2958 166.587L57.4551 167.369L58.4031 169.599L60.2438 168.817ZM49.4615 173C49.4615 174.359 48.3595 175.462 47 175.462V177.462C49.464 177.462 51.4615 175.464 51.4615 173H49.4615ZM47 170.538C48.3595 170.538 49.4615 171.641 49.4615 173H51.4615C51.4615 170.536 49.464 168.538 47 168.538V170.538ZM44.5385 173C44.5385 171.641 45.6405 170.538 47 170.538V168.538C44.536 168.538 42.5385 170.536 42.5385 173H44.5385ZM47 175.462C45.6405 175.462 44.5385 174.359 44.5385 173H42.5385C42.5385 175.464 44.536 177.462 47 177.462V175.462Z" fill="#333333" mask="url(#path-13-inside-3_832_21418)"/>
<path fill-rule="evenodd" clip-rule="evenodd" d="M30 254V240H32V254H30Z" fill="url(#paint3_linear_832_21418)"/>
<path fill-rule="evenodd" clip-rule="evenodd" d="M28 257C28 257.552 27.6162 258 27.1429 258L4.85715 258C4.38376 258 4 257.552 4 257C4 256.448 4.38376 256 4.85715 256L27.1429 256C27.6162 256 28 256.448 28 257Z" fill="url(#paint4_linear_832_21418)"/>
<path fill-rule="evenodd" clip-rule="evenodd" d="M58 257C58 257.552 57.6116 258 57.1325 258L34.8675 258C34.3884 258 34 257.552 34 257C34 256.448 34.3884 256 34.8675 256L57.1325 256C57.6116 256 58 256.448 58 257Z" fill="url(#paint5_linear_832_21418)"/>
<path d="M2.5 202.401C2.5 200.264 4.30472 198.5 6.57143 198.5H55.9429C58.2096 198.5 60.0143 200.264 60.0143 202.401V212.812C60.0143 214.949 58.2096 216.713 55.9429 216.713H6.57143C4.30472 216.713 2.5 214.949 2.5 212.812V202.401Z" fill="#EFEFEF" stroke="#333333"/>
<path d="M2.5 224.581C2.5 222.322 4.30998 220.5 6.53125 220.5H55.4688C57.69 220.5 59.5 222.322 59.5 224.581V235.419C59.5 237.678 57.69 239.5 55.4688 239.5H6.53125C4.30998 239.5 2.5 237.678 2.5 235.419V224.581Z" fill="#EFEFEF" stroke="#333333"/>
<path d="M18 208C18 210.209 16.2091 212 14 212C11.7909 212 10 210.209 10 208C10 205.791 11.7909 204 14 204C16.2091 204 18 205.791 18 208Z" fill="#333333"/>
<path d="M18 230C18 232.209 16.2091 234 14 234C11.7909 234 10 232.209 10 230C10 227.791 11.7909 226 14 226C16.2091 226 18 227.791 18 230Z" fill="#333333"/>
<path fill-rule="evenodd" clip-rule="evenodd" d="M31 260C32.6569 260 34 258.657 34 257C34 255.343 32.6569 254 31 254C29.3431 254 28 255.343 28 257C28 258.657 29.3431 260 31 260ZM31 262C33.7614 262 36 259.761 36 257C36 254.239 33.7614 252 31 252C28.2386 252 26 254.239 26 257C26 259.761 28.2386 262 31 262Z" fill="url(#paint6_linear_832_21418)"/>
<rect x="32" y="204" width="6" height="2" rx="1" fill="#333333"/>
<rect x="30" y="210" width="6" height="2" rx="1" fill="#333333"/>
<rect x="40" y="204" width="6" height="2" rx="1" fill="#333333"/>
<rect x="38" y="210" width="6" height="2" rx="1" fill="#333333"/>
<rect x="48" y="204" width="6" height="2" rx="1" fill="#333333"/>
<rect x="46" y="210" width="6" height="2" rx="1" fill="#333333"/>
<rect x="32" y="226" width="6" height="2" rx="1" fill="#333333"/>
<rect x="30" y="232" width="6" height="2" rx="1" fill="#333333"/>
<rect x="40" y="226" width="6" height="2" rx="1" fill="#333333"/>
<rect x="38" y="232" width="6" height="2" rx="1" fill="#333333"/>
<rect x="48" y="226" width="6" height="2" rx="1" fill="#333333"/>
<rect x="46" y="232" width="6" height="2" rx="1" fill="#333333"/>
<path d="M14.5 270.662L14.5 270.661C14.4941 268.432 16.5949 266.5 19.3067 266.5H46.6865C49.3979 266.5 51.5 268.432 51.5 270.662V321.338C51.5 323.562 49.3975 325.5 46.6865 325.5H19.3067C16.6025 325.5 14.5 323.568 14.5 321.338L14.5 270.662Z" fill="#D9F4FF" stroke="#333333"/>
<path d="M28 272H34H40" stroke="#333333" stroke-linecap="round"/>
<path d="M20.5 288.162V314.082C20.5 314.462 20.661 314.813 20.9354 315.075C21.2101 315.337 21.5874 315.5 22.0072 315.5H43.9928C44.4126 315.5 44.7899 315.337 45.0646 315.075C45.339 314.813 45.5 314.462 45.5 314.082V286.158C44.6668 285.362 43.8376 284.572 43.0093 283.784C41.863 282.692 40.7184 281.603 39.5673 280.5H22.0072C21.5874 280.5 21.2101 280.663 20.9354 280.925C20.661 281.187 20.5 281.538 20.5 281.918V288.162Z" fill="#EFEFEF" stroke="#333333"/>
<path fill-rule="evenodd" clip-rule="evenodd" d="M40 291C40 290.448 39.6082 290 39.125 290H26.875C26.3918 290 26 290.448 26 291C26 291.552 26.3918 292 26.875 292H39.125C39.6082 292 40 291.552 40 291Z" fill="#333333"/>
<path fill-rule="evenodd" clip-rule="evenodd" d="M36 287C36 286.448 35.5915 286 35.0876 286H26.9124C26.4085 286 26 286.448 26 287C26 287.552 26.4085 288 26.9124 288H35.0876C35.5915 288 36 287.552 36 287Z" fill="url(#paint7_linear_832_21418)"/>
<path fill-rule="evenodd" clip-rule="evenodd" d="M32 309C32 308.448 31.6642 308 31.25 308H26.75C26.3358 308 26 308.448 26 309C26 309.552 26.3358 310 26.75 310H31.25C31.6642 310 32 309.552 32 309Z" fill="url(#paint8_linear_832_21418)"/>
<path fill-rule="evenodd" clip-rule="evenodd" d="M40 309C40 308.448 39.5523 308 39 308H35C34.4477 308 34 308.448 34 309C34 309.552 34.4477 310 35 310H39C39.5523 310 40 309.552 40 309Z" fill="url(#paint9_linear_832_21418)"/>
<path fill-rule="evenodd" clip-rule="evenodd" d="M40 295C40 294.448 39.6082 294 39.125 294H26.875C26.3918 294 26 294.448 26 295C26 295.552 26.3918 296 26.875 296H39.125C39.6082 296 40 295.552 40 295Z" fill="#333333"/>
<path fill-rule="evenodd" clip-rule="evenodd" d="M40 299C40 298.448 39.6082 298 39.125 298H26.875C26.3918 298 26 298.448 26 299C26 299.552 26.3918 300 26.875 300H39.125C39.6082 300 40 299.552 40 299Z" fill="#333333"/>
<path fill-rule="evenodd" clip-rule="evenodd" d="M40 303C40 302.448 39.6082 302 39.125 302H26.875C26.3918 302 26 302.448 26 303C26 303.552 26.3918 304 26.875 304H39.125C39.6082 304 40 303.552 40 303Z" fill="#333333"/>
<path d="M38.5 285.693C38.5 286.628 39.2202 287.403 40.1353 287.492H40.3096H45.5V286.207L39.7929 280.5H38.5V285.693Z" fill="url(#paint10_linear_832_21418)" stroke="#333333"/>
<path d="M5.93103 388.5H58.069C59.4236 388.5 60.5 387.359 60.5 386C60.5 384.641 59.4236 383.5 58.069 383.5H5.93103C4.57643 383.5 3.5 384.641 3.5 386C3.5 387.359 4.57643 388.5 5.93103 388.5Z" fill="#EFEFEF" stroke="#333333" stroke-miterlimit="10" stroke-linecap="round" stroke-linejoin="round"/>
<path d="M8.5 352.5C8.5 351.395 9.39543 350.5 10.5 350.5H55.5C56.6046 350.5 57.5 351.395 57.5 352.5V383.5H8.5V352.5Z" fill="#D9F4FF" stroke="#333333"/>
<mask id="path-48-inside-4_832_21418" fill="white">
<path fill-rule="evenodd" clip-rule="evenodd" d="M59.6803 361.714L62 362.245V367.755L59.6803 368.286L58.9071 370.219L60.1636 372.201L56.2491 376.115L54.2193 374.859L52.2862 375.68L51.7546 378H46.2454L45.7138 375.68L43.7807 374.907L41.7993 376.164L37.8848 372.249L39.1413 370.219L38.3197 368.286L36 367.755V362.245L38.3197 361.714L39.0929 359.781L37.8364 357.799L41.7509 353.885L43.7807 355.141L45.7138 354.32L46.2454 352H51.7546L52.2862 354.32L54.2193 355.093L56.2007 353.836L60.1152 357.751L58.8587 359.781L59.6803 361.714ZM49 368C50.6569 368 52 366.657 52 365C52 363.343 50.6569 362 49 362C47.3431 362 46 363.343 46 365C46 366.657 47.3431 368 49 368Z"/>
</mask>
<path fill-rule="evenodd" clip-rule="evenodd" d="M59.6803 361.714L62 362.245V367.755L59.6803 368.286L58.9071 370.219L60.1636 372.201L56.2491 376.115L54.2193 374.859L52.2862 375.68L51.7546 378H46.2454L45.7138 375.68L43.7807 374.907L41.7993 376.164L37.8848 372.249L39.1413 370.219L38.3197 368.286L36 367.755V362.245L38.3197 361.714L39.0929 359.781L37.8364 357.799L41.7509 353.885L43.7807 355.141L45.7138 354.32L46.2454 352H51.7546L52.2862 354.32L54.2193 355.093L56.2007 353.836L60.1152 357.751L58.8587 359.781L59.6803 361.714ZM49 368C50.6569 368 52 366.657 52 365C52 363.343 50.6569 362 49 362C47.3431 362 46 363.343 46 365C46 366.657 47.3431 368 49 368Z" fill="url(#paint11_linear_832_21418)"/>
<path d="M62 362.245H63V361.449L62.2234 361.271L62 362.245ZM59.6803 361.714L58.76 362.105L58.9596 362.575L59.4569 362.688L59.6803 361.714ZM62 367.755L62.2234 368.729L63 368.551V367.755H62ZM59.6803 368.286L59.4569 367.312L58.9464 367.429L58.7518 367.915L59.6803 368.286ZM58.9071 370.219L57.9786 369.848L57.7886 370.323L58.0626 370.755L58.9071 370.219ZM60.1636 372.201L60.8707 372.908L61.437 372.342L61.0081 371.665L60.1636 372.201ZM56.2491 376.115L55.7227 376.966L56.3961 377.382L56.9562 376.822L56.2491 376.115ZM54.2193 374.859L54.7457 374.008L54.3051 373.736L53.8282 373.938L54.2193 374.859ZM52.2862 375.68L51.8951 374.76L51.4255 374.96L51.3115 375.457L52.2862 375.68ZM51.7546 378V379H52.5514L52.7294 378.223L51.7546 378ZM46.2454 378L45.2706 378.223L45.4486 379H46.2454V378ZM45.7138 375.68L46.6885 375.457L46.5715 374.946L46.0851 374.752L45.7138 375.68ZM43.7807 374.907L44.1521 373.979L43.6771 373.789L43.2451 374.063L43.7807 374.907ZM41.7993 376.164L41.0922 376.871L41.6585 377.437L42.3348 377.008L41.7993 376.164ZM37.8848 372.249L37.0345 371.723L36.6176 372.396L37.1777 372.956L37.8848 372.249ZM39.1413 370.219L39.9915 370.746L40.2643 370.305L40.0616 369.828L39.1413 370.219ZM38.3197 368.286L39.24 367.895L39.0404 367.425L38.5431 367.312L38.3197 368.286ZM36 367.755H35V368.551L35.7766 368.729L36 367.755ZM36 362.245L35.7766 361.271L35 361.449V362.245H36ZM38.3197 361.714L38.5431 362.688L39.0536 362.571L39.2482 362.085L38.3197 361.714ZM39.0929 359.781L40.0214 360.152L40.2114 359.677L39.9374 359.245L39.0929 359.781ZM37.8364 357.799L37.1293 357.092L36.563 357.658L36.9919 358.335L37.8364 357.799ZM41.7509 353.885L42.2773 353.034L41.6039 352.618L41.0438 353.178L41.7509 353.885ZM43.7807 355.141L43.2543 355.992L43.6949 356.264L44.1718 356.062L43.7807 355.141ZM45.7138 354.32L46.1049 355.24L46.5745 355.04L46.6885 354.543L45.7138 354.32ZM46.2454 352V351H45.4486L45.2706 351.777L46.2454 352ZM51.7546 352L52.7294 351.777L52.5514 351H51.7546V352ZM52.2862 354.32L51.3115 354.543L51.4285 355.054L51.9149 355.248L52.2862 354.32ZM54.2193 355.093L53.8479 356.021L54.3229 356.211L54.7549 355.937L54.2193 355.093ZM56.2007 353.836L56.9079 353.129L56.3415 352.563L55.6652 352.992L56.2007 353.836ZM60.1152 357.751L60.9655 358.277L61.3824 357.604L60.8223 357.044L60.1152 357.751ZM58.8587 359.781L58.0085 359.254L57.7357 359.695L57.9384 360.172L58.8587 359.781ZM62.2234 361.271L59.9037 360.739L59.4569 362.688L61.7766 363.22L62.2234 361.271ZM63 367.755V362.245H61V367.755H63ZM59.9037 369.261L62.2234 368.729L61.7766 366.78L59.4569 367.312L59.9037 369.261ZM59.8355 370.591L60.6088 368.658L58.7518 367.915L57.9786 369.848L59.8355 370.591ZM61.0081 371.665L59.7516 369.684L58.0626 370.755L59.3191 372.736L61.0081 371.665ZM56.9562 376.822L60.8707 372.908L59.4565 371.494L55.542 375.408L56.9562 376.822ZM53.693 375.709L55.7227 376.966L56.7754 375.265L54.7457 374.008L53.693 375.709ZM52.6774 376.601L54.6105 375.779L53.8282 373.938L51.8951 374.76L52.6774 376.601ZM52.7294 378.223L53.261 375.904L51.3115 375.457L50.7799 377.777L52.7294 378.223ZM46.2454 379H51.7546V377H46.2454V379ZM44.739 375.904L45.2706 378.223L47.2201 377.777L46.6885 375.457L44.739 375.904ZM43.4093 375.836L45.3424 376.609L46.0851 374.752L44.1521 373.979L43.4093 375.836ZM42.3348 377.008L44.3162 375.752L43.2451 374.063L41.2637 375.319L42.3348 377.008ZM37.1777 372.956L41.0922 376.871L42.5064 375.456L38.5919 371.542L37.1777 372.956ZM38.291 369.693L37.0345 371.723L38.735 372.775L39.9915 370.746L38.291 369.693ZM37.3994 368.677L38.2209 370.61L40.0616 369.828L39.24 367.895L37.3994 368.677ZM35.7766 368.729L38.0963 369.261L38.5431 367.312L36.2234 366.78L35.7766 368.729ZM35 362.245V367.755H37V362.245H35ZM38.0963 360.739L35.7766 361.271L36.2234 363.22L38.5431 362.688L38.0963 360.739ZM38.1645 359.409L37.3912 361.342L39.2482 362.085L40.0214 360.152L38.1645 359.409ZM36.9919 358.335L38.2484 360.316L39.9374 359.245L38.6809 357.264L36.9919 358.335ZM41.0438 353.178L37.1293 357.092L38.5435 358.506L42.458 354.592L41.0438 353.178ZM44.307 354.291L42.2773 353.034L41.2246 354.735L43.2543 355.992L44.307 354.291ZM45.3226 353.399L43.3895 354.221L44.1718 356.062L46.1049 355.24L45.3226 353.399ZM45.2706 351.777L44.739 354.096L46.6885 354.543L47.2201 352.223L45.2706 351.777ZM51.7546 351H46.2454V353H51.7546V351ZM53.261 354.096L52.7294 351.777L50.7799 352.223L51.3115 354.543L53.261 354.096ZM54.5907 354.164L52.6576 353.391L51.9149 355.248L53.8479 356.021L54.5907 354.164ZM55.6652 352.992L53.6838 354.248L54.7549 355.937L56.7363 354.681L55.6652 352.992ZM60.8223 357.044L56.9079 353.129L55.4936 354.544L59.4081 358.458L60.8223 357.044ZM59.709 360.307L60.9655 358.277L59.265 357.225L58.0085 359.254L59.709 360.307ZM60.6006 361.323L59.7791 359.39L57.9384 360.172L58.76 362.105L60.6006 361.323ZM51 365C51 366.105 50.1046 367 49 367V369C51.2091 369 53 367.209 53 365H51ZM49 363C50.1046 363 51 363.895 51 365H53C53 362.791 51.2091 361 49 361V363ZM47 365C47 363.895 47.8954 363 49 363V361C46.7909 361 45 362.791 45 365H47ZM49 367C47.8954 367 47 366.105 47 365H45C45 367.209 46.7909 369 49 369V367Z" fill="#333333" mask="url(#path-48-inside-4_832_21418)"/>
<path d="M6.5 348.162V374.082C6.5 374.462 6.66103 374.813 6.93541 375.075C7.21012 375.337 7.58741 375.5 8.00723 375.5H29.9928C30.4126 375.5 30.7899 375.337 31.0646 375.075C31.339 374.813 31.5 374.462 31.5 374.082V346.158C30.6668 345.362 29.8376 344.572 29.0093 343.784C27.863 342.692 26.7184 341.603 25.5673 340.5H8.00723C7.58741 340.5 7.21011 340.663 6.93541 340.925C6.66103 341.187 6.5 341.538 6.5 341.918V348.162Z" fill="#EFEFEF" stroke="#333333"/>
<path fill-rule="evenodd" clip-rule="evenodd" d="M26 351C26 350.448 25.6082 350 25.125 350H12.875C12.3918 350 12 350.448 12 351C12 351.552 12.3918 352 12.875 352H25.125C25.6082 352 26 351.552 26 351Z" fill="#333333"/>
<path fill-rule="evenodd" clip-rule="evenodd" d="M22 347C22 346.448 21.5915 346 21.0876 346H12.9124C12.4085 346 12 346.448 12 347C12 347.552 12.4085 348 12.9124 348H21.0876C21.5915 348 22 347.552 22 347Z" fill="url(#paint12_linear_832_21418)"/>
<path fill-rule="evenodd" clip-rule="evenodd" d="M18 369C18 368.448 17.6642 368 17.25 368H12.75C12.3358 368 12 368.448 12 369C12 369.552 12.3358 370 12.75 370H17.25C17.6642 370 18 369.552 18 369Z" fill="url(#paint13_linear_832_21418)"/>
<path fill-rule="evenodd" clip-rule="evenodd" d="M26 369C26 368.448 25.5523 368 25 368H21C20.4477 368 20 368.448 20 369C20 369.552 20.4477 370 21 370H25C25.5523 370 26 369.552 26 369Z" fill="url(#paint14_linear_832_21418)"/>
<path fill-rule="evenodd" clip-rule="evenodd" d="M26 355C26 354.448 25.6082 354 25.125 354H12.875C12.3918 354 12 354.448 12 355C12 355.552 12.3918 356 12.875 356H25.125C25.6082 356 26 355.552 26 355Z" fill="#333333"/>
<path fill-rule="evenodd" clip-rule="evenodd" d="M26 359C26 358.448 25.6082 358 25.125 358H12.875C12.3918 358 12 358.448 12 359C12 359.552 12.3918 360 12.875 360H25.125C25.6082 360 26 359.552 26 359Z" fill="#333333"/>
<path fill-rule="evenodd" clip-rule="evenodd" d="M26 363C26 362.448 25.6082 362 25.125 362H12.875C12.3918 362 12 362.448 12 363C12 363.552 12.3918 364 12.875 364H25.125C25.6082 364 26 363.552 26 363Z" fill="#333333"/>
<path d="M24.5 345.693C24.5 346.628 25.2202 347.403 26.1353 347.492H26.3096H31.5V346.207L25.7929 340.5H24.5V345.693Z" fill="url(#paint15_linear_832_21418)" stroke="#333333"/>
<path d="M53.5 452C53.5 452.828 52.8284 453.5 52 453.5H12C11.1716 453.5 10.5 452.828 10.5 452V400C10.5 399.172 11.1716 398.5 12 398.5H41.1987C41.5844 398.5 41.9554 398.649 42.2344 398.915L53.0357 409.225C53.3322 409.508 53.5 409.9 53.5 410.31V452Z" fill="#EFEFEF" stroke="#333333"/>
<path d="M40.5 407.962C40.5 409.801 41.919 411.321 43.7191 411.485H44.0418H53.5V408.707L43.2929 398.5H40.5V407.962Z" fill="url(#paint16_linear_832_21418)" stroke="#333333"/>
<rect x="18" y="406" width="16" height="2" rx="1" fill="#333333"/>
<rect x="18" y="418" width="28" height="2" rx="1" fill="#333333"/>
<rect x="18" y="424" width="28" height="2" rx="1" fill="#333333"/>
<rect x="18" y="412" width="16" height="2" rx="1" fill="#333333"/>
<path d="M26.5 432C26.5 431.172 27.1716 430.5 28 430.5H60C60.8284 430.5 61.5 431.172 61.5 432V457C61.5 457.276 61.2761 457.5 61 457.5H27C26.7239 457.5 26.5 457.276 26.5 457V432Z" fill="#E2E2E2" stroke="#333333"/>
<path d="M26.5 432C26.5 431.172 27.1716 430.5 28 430.5H60C60.8284 430.5 61.5 431.172 61.5 432V437.5H26.5V432Z" fill="url(#paint17_linear_832_21418)" stroke="#333333"/>
<path fill-rule="evenodd" clip-rule="evenodd" d="M51.2972 451.659C50.8142 451.205 50.8142 450.466 51.2972 450.012L54.4989 447L51.2972 443.988C50.8142 443.533 50.8142 442.795 51.2972 442.341C51.7801 441.886 52.5649 441.886 53.0479 442.341L58 447L53.0479 451.659C52.5649 452.114 51.7801 452.114 51.2972 451.659ZM36.9521 451.659L32 447L36.9521 442.341C37.4351 441.886 38.2199 441.886 38.7028 442.341C39.1858 442.795 39.1858 443.533 38.7028 443.988L35.5011 447L38.7028 450.012C39.1858 450.466 39.1858 451.205 38.7028 451.659C38.2199 452.114 37.4351 452.114 36.9521 451.659ZM41.9707 450.096C41.665 450.671 41.9139 451.372 42.5253 451.659C43.137 451.947 43.8809 451.714 44.1857 451.138L48.031 443.903C48.3367 443.329 48.089 442.629 47.4777 442.341C46.866 442.053 46.122 442.286 45.816 442.861L41.9707 450.096Z" fill="#333333"/>
<mask id="path-68-inside-5_832_21418" fill="white">
<path fill-rule="evenodd" clip-rule="evenodd" d="M54 480.915V491.086L49.7175 492.067L48.29 495.636L50.6097 499.294L43.3829 506.52L39.6357 504.201L36.0669 505.717L35.0855 510H24.9145L23.9331 505.717L20.3643 504.29L16.7063 506.61L9.47955 499.383L11.7993 495.636L10.2825 492.067L6 491.086V480.915L10.2825 479.933L11.71 476.364L9.39033 472.706L16.6171 465.48L20.3643 467.799L23.9331 466.283L24.9145 462H35.0855L36.0669 466.283L39.6357 467.71L43.2937 465.39L50.5204 472.617L48.2007 476.364L49.7175 479.933L54 480.915ZM30 494C34.4183 494 38 490.418 38 486C38 481.582 34.4183 478 30 478C25.5817 478 22 481.582 22 486C22 490.418 25.5817 494 30 494Z"/>
</mask>
<path fill-rule="evenodd" clip-rule="evenodd" d="M54 480.915V491.086L49.7175 492.067L48.29 495.636L50.6097 499.294L43.3829 506.52L39.6357 504.201L36.0669 505.717L35.0855 510H24.9145L23.9331 505.717L20.3643 504.29L16.7063 506.61L9.47955 499.383L11.7993 495.636L10.2825 492.067L6 491.086V480.915L10.2825 479.933L11.71 476.364L9.39033 472.706L16.6171 465.48L20.3643 467.799L23.9331 466.283L24.9145 462H35.0855L36.0669 466.283L39.6357 467.71L43.2937 465.39L50.5204 472.617L48.2007 476.364L49.7175 479.933L54 480.915ZM30 494C34.4183 494 38 490.418 38 486C38 481.582 34.4183 478 30 478C25.5817 478 22 481.582 22 486C22 490.418 25.5817 494 30 494Z" fill="#D9F4FF"/>
<path d="M54 491.086L54.2234 492.06L55 491.882V491.086H54ZM54 480.915H55V480.118L54.2234 479.94L54 480.915ZM49.7175 492.067L49.4941 491.092L48.9835 491.209L48.789 491.696L49.7175 492.067ZM48.29 495.636L47.3615 495.264L47.1715 495.739L47.4454 496.171L48.29 495.636ZM50.6097 499.294L51.3168 500.001L51.8831 499.434L51.4542 498.758L50.6097 499.294ZM43.3829 506.52L42.8565 507.371L43.53 507.788L44.09 507.228L43.3829 506.52ZM39.6357 504.201L40.162 503.35L39.7215 503.078L39.2445 503.28L39.6357 504.201ZM36.0669 505.717L35.6758 504.797L35.2062 504.997L35.0922 505.494L36.0669 505.717ZM35.0855 510V511H35.8823L36.0602 510.223L35.0855 510ZM24.9145 510L23.9398 510.223L24.1177 511H24.9145V510ZM23.9331 505.717L24.9078 505.494L24.7908 504.984L24.3045 504.789L23.9331 505.717ZM20.3643 504.29L20.7357 503.361L20.2608 503.172L19.8288 503.445L20.3643 504.29ZM16.7063 506.61L15.9992 507.317L16.5655 507.883L17.2419 507.454L16.7063 506.61ZM9.47955 499.383L8.62929 498.857L8.21241 499.53L8.77245 500.09L9.47955 499.383ZM11.7993 495.636L12.6495 496.162L12.9223 495.721L12.7196 495.245L11.7993 495.636ZM10.2825 492.067L11.2029 491.676L11.0033 491.206L10.5059 491.092L10.2825 492.067ZM6 491.086H5V491.882L5.77662 492.06L6 491.086ZM6 480.915L5.77662 479.94L5 480.118V480.915H6ZM10.2825 479.933L10.5059 480.908L11.0165 480.791L11.211 480.304L10.2825 479.933ZM11.71 476.364L12.6385 476.736L12.8285 476.261L12.5545 475.829L11.71 476.364ZM9.39033 472.706L8.68323 471.999L8.11692 472.566L8.54583 473.242L9.39033 472.706ZM16.6171 465.48L17.1435 464.629L16.47 464.212L15.91 464.772L16.6171 465.48ZM20.3643 467.799L19.838 468.65L20.2786 468.922L20.7555 468.72L20.3643 467.799ZM23.9331 466.283L24.3242 467.203L24.7938 467.003L24.9078 466.506L23.9331 466.283ZM24.9145 462V461H24.1177L23.9398 461.777L24.9145 462ZM35.0855 462L36.0602 461.777L35.8823 461H35.0855V462ZM36.0669 466.283L35.0922 466.506L35.2092 467.016L35.6955 467.211L36.0669 466.283ZM39.6357 467.71L39.2643 468.639L39.7392 468.828L40.1712 468.555L39.6357 467.71ZM43.2937 465.39L44.0008 464.683L43.4345 464.117L42.7581 464.546L43.2937 465.39ZM50.5204 472.617L51.3707 473.143L51.7876 472.47L51.2276 471.91L50.5204 472.617ZM48.2007 476.364L47.3505 475.838L47.0777 476.279L47.2804 476.755L48.2007 476.364ZM49.7175 479.933L48.7971 480.324L48.9967 480.794L49.4941 480.908L49.7175 479.933ZM55 491.086V480.915H53V491.086H55ZM49.9409 493.042L54.2234 492.06L53.7766 490.111L49.4941 491.092L49.9409 493.042ZM49.2184 496.007L50.646 492.438L48.789 491.696L47.3615 495.264L49.2184 496.007ZM51.4542 498.758L49.1345 495.1L47.4454 496.171L49.7652 499.829L51.4542 498.758ZM44.09 507.228L51.3168 500.001L49.9026 498.587L42.6758 505.813L44.09 507.228ZM39.1093 505.051L42.8565 507.371L43.9093 505.67L40.162 503.35L39.1093 505.051ZM36.4581 506.638L40.0268 505.121L39.2445 503.28L35.6758 504.797L36.4581 506.638ZM36.0602 510.223L37.0416 505.941L35.0922 505.494L34.1108 509.777L36.0602 510.223ZM24.9145 511H35.0855V509H24.9145V511ZM22.9584 505.941L23.9398 510.223L25.8892 509.777L24.9078 505.494L22.9584 505.941ZM19.9929 505.218L23.5617 506.646L24.3045 504.789L20.7357 503.361L19.9929 505.218ZM17.2419 507.454L20.8999 505.134L19.8288 503.445L16.1708 505.765L17.2419 507.454ZM8.77245 500.09L15.9992 507.317L17.4134 505.903L10.1867 498.676L8.77245 500.09ZM10.949 495.109L8.62929 498.857L10.3298 499.909L12.6495 496.162L10.949 495.109ZM9.3622 492.458L10.8789 496.027L12.7196 495.245L11.2029 491.676L9.3622 492.458ZM5.77662 492.06L10.0592 493.042L10.5059 491.092L6.22338 490.111L5.77662 492.06ZM5 480.915V491.086H7V480.915H5ZM10.0592 478.958L5.77662 479.94L6.22338 481.889L10.5059 480.908L10.0592 478.958ZM10.7816 475.993L9.35405 479.562L11.211 480.304L12.6385 476.736L10.7816 475.993ZM8.54583 473.242L10.8655 476.9L12.5545 475.829L10.2348 472.171L8.54583 473.242ZM15.91 464.772L8.68323 471.999L10.0974 473.413L17.3242 466.187L15.91 464.772ZM20.8907 466.949L17.1435 464.629L16.0907 466.33L19.838 468.65L20.8907 466.949ZM23.5419 465.362L19.9732 466.879L20.7555 468.72L24.3242 467.203L23.5419 465.362ZM23.9398 461.777L22.9584 466.059L24.9078 466.506L25.8892 462.223L23.9398 461.777ZM35.0855 461H24.9145V463H35.0855V461ZM37.0416 466.059L36.0602 461.777L34.1108 462.223L35.0922 466.506L37.0416 466.059ZM40.0071 466.782L36.4383 465.354L35.6955 467.211L39.2643 468.639L40.0071 466.782ZM42.7581 464.546L39.1001 466.866L40.1712 468.555L43.8292 466.235L42.7581 464.546ZM51.2276 471.91L44.0008 464.683L42.5866 466.097L49.8133 473.324L51.2276 471.91ZM49.051 476.891L51.3707 473.143L49.6702 472.091L47.3505 475.838L49.051 476.891ZM50.6378 479.542L49.1211 475.973L47.2804 476.755L48.7971 480.324L50.6378 479.542ZM54.2234 479.94L49.9409 478.958L49.4941 480.908L53.7766 481.889L54.2234 479.94ZM37 486C37 489.866 33.866 493 30 493V495C34.9706 495 39 490.971 39 486H37ZM30 479C33.866 479 37 482.134 37 486H39C39 481.029 34.9706 477 30 477V479ZM23 486C23 482.134 26.134 479 30 479V477C25.0294 477 21 481.029 21 486H23ZM30 493C26.134 493 23 489.866 23 486H21C21 490.971 25.0294 495 30 495V493Z" fill="#333333" mask="url(#path-68-inside-5_832_21418)"/>
<path d="M44.2039 491.863L43.8503 491.51L43.4968 491.863L24.0758 511.284C22.5788 512.781 22.5788 515.208 24.0758 516.705L26.4328 519.062C27.9299 520.559 30.357 520.559 31.854 519.062L51.275 499.641L51.6285 499.288L51.275 498.934L44.2039 491.863Z" fill="url(#paint18_linear_832_21418)" stroke="#333333"/>
<path d="M63.5705 485.899L56.5582 492.911L50.6892 491.311L49.0886 485.442L56.1009 478.429C52.3661 477.362 48.1739 478.277 45.2013 481.25C40.9329 485.518 40.9329 492.53 45.2013 496.799C49.4697 501.067 56.482 501.067 60.7504 496.799C63.723 493.826 64.6376 489.634 63.5705 485.899Z" fill="#EFEFEF" stroke="#333333" stroke-miterlimit="10" stroke-linecap="round" stroke-linejoin="round"/>
<rect x="26" y="514.242" width="6" height="4" rx="1" transform="rotate(-45 26 514.242)" fill="#444444"/>
<defs>
<linearGradient id="paint0_linear_832_21418" x1="32.5162" y1="6" x2="32.5162" y2="38.0396" gradientUnits="userSpaceOnUse">
<stop stop-color="#FF8E3D"/>
<stop offset="1" stop-color="#FF6F3D"/>
</linearGradient>
<linearGradient id="paint1_linear_832_21418" x1="45" y1="102" x2="45" y2="122" gradientUnits="userSpaceOnUse">
<stop stop-color="#FF8E3D"/>
<stop offset="1" stop-color="#FF6F3D"/>
</linearGradient>
<linearGradient id="paint2_linear_832_21418" x1="47" y1="158" x2="47" y2="188" gradientUnits="userSpaceOnUse">
<stop stop-color="#FF8E3D"/>
<stop offset="1" stop-color="#FF6F3D"/>
</linearGradient>
<linearGradient id="paint3_linear_832_21418" x1="31" y1="240" x2="31" y2="254" gradientUnits="userSpaceOnUse">
<stop stop-color="#FF8E3D"/>
<stop offset="1" stop-color="#FF6F3D"/>
</linearGradient>
<linearGradient id="paint4_linear_832_21418" x1="28" y1="257" x2="4" y2="257" gradientUnits="userSpaceOnUse">
<stop stop-color="#FF8E3D"/>
<stop offset="1" stop-color="#FF6F3D"/>
</linearGradient>
<linearGradient id="paint5_linear_832_21418" x1="58" y1="257" x2="34" y2="257" gradientUnits="userSpaceOnUse">
<stop stop-color="#FF8E3D"/>
<stop offset="1" stop-color="#FF6F3D"/>
</linearGradient>
<linearGradient id="paint6_linear_832_21418" x1="31" y1="252" x2="31" y2="262" gradientUnits="userSpaceOnUse">
<stop stop-color="#FF8E3D"/>
<stop offset="1" stop-color="#FF6F3D"/>
</linearGradient>
<linearGradient id="paint7_linear_832_21418" x1="31" y1="286" x2="31" y2="288" gradientUnits="userSpaceOnUse">
<stop stop-color="#FF8E3D"/>
<stop offset="1" stop-color="#FF6F3D"/>
</linearGradient>
<linearGradient id="paint8_linear_832_21418" x1="29" y1="308" x2="29" y2="310" gradientUnits="userSpaceOnUse">
<stop stop-color="#FF8E3D"/>
<stop offset="1" stop-color="#FF6F3D"/>
</linearGradient>
<linearGradient id="paint9_linear_832_21418" x1="37" y1="308" x2="37" y2="310" gradientUnits="userSpaceOnUse">
<stop stop-color="#FF8E3D"/>
<stop offset="1" stop-color="#FF6F3D"/>
</linearGradient>
<linearGradient id="paint10_linear_832_21418" x1="42" y1="280" x2="42" y2="288" gradientUnits="userSpaceOnUse">
<stop stop-color="#FF8E3D"/>
<stop offset="1" stop-color="#FF6F3D"/>
</linearGradient>
<linearGradient id="paint11_linear_832_21418" x1="36.0001" y1="350.984" x2="62" y2="378" gradientUnits="userSpaceOnUse">
<stop stop-color="#FF8E3D"/>
<stop offset="1" stop-color="#FF6F3D"/>
</linearGradient>
<linearGradient id="paint12_linear_832_21418" x1="17" y1="346" x2="17" y2="348" gradientUnits="userSpaceOnUse">
<stop stop-color="#FF8E3D"/>
<stop offset="1" stop-color="#FF6F3D"/>
</linearGradient>
<linearGradient id="paint13_linear_832_21418" x1="15" y1="368" x2="15" y2="370" gradientUnits="userSpaceOnUse">
<stop stop-color="#FF8E3D"/>
<stop offset="1" stop-color="#FF6F3D"/>
</linearGradient>
<linearGradient id="paint14_linear_832_21418" x1="23" y1="368" x2="23" y2="370" gradientUnits="userSpaceOnUse">
<stop stop-color="#FF8E3D"/>
<stop offset="1" stop-color="#FF6F3D"/>
</linearGradient>
<linearGradient id="paint15_linear_832_21418" x1="28" y1="340" x2="28" y2="348" gradientUnits="userSpaceOnUse">
<stop stop-color="#FF8E3D"/>
<stop offset="1" stop-color="#FF6F3D"/>
</linearGradient>
<linearGradient id="paint16_linear_832_21418" x1="47" y1="398" x2="47" y2="412" gradientUnits="userSpaceOnUse">
<stop stop-color="#FF8E3D"/>
<stop offset="1" stop-color="#FF6F3D"/>
</linearGradient>
<linearGradient id="paint17_linear_832_21418" x1="44" y1="430" x2="44" y2="438" gradientUnits="userSpaceOnUse">
<stop stop-color="#FF8E3D"/>
<stop offset="1" stop-color="#FF6F3D"/>
</linearGradient>
<linearGradient id="paint18_linear_832_21418" x1="47.3859" y1="495.752" x2="25.6079" y2="517.53" gradientUnits="userSpaceOnUse">
<stop stop-color="#FF8E3D"/>
<stop offset="1" stop-color="#FF6F3D"/>
</linearGradient>
</defs>
</svg>
