<svg width="64" height="64" viewBox="0 0 64 64" fill="none" xmlns="http://www.w3.org/2000/svg">
<mask id="path-1-outside-1_839_28144" maskUnits="userSpaceOnUse" x="3.16132" y="33.0359" width="56" height="28" fill="black">
<rect fill="white" x="3.16132" y="33.0359" width="56" height="28"/>
<path d="M25.3042 60C25.0392 59.9997 24.777 59.9467 24.534 59.8442L17.9584 57.2C17.4737 57.0059 17.0896 56.6313 16.892 56.1602C16.6968 55.6953 16.7053 55.1733 16.9156 54.7146L18.4816 51.0426C16.9405 49.9058 15.5654 48.5715 14.394 47.0763L10.5743 48.6065C10.0985 48.7994 9.56272 48.7985 9.08761 48.604C8.61278 48.414 8.23488 48.0492 8.0366 47.5896L5.31342 41.1818C4.90088 40.2315 5.35614 39.1363 6.3329 38.7293C7.46294 38.2776 10.3226 36.663 13.4194 35.6618C16.5162 34.6605 18.0645 36.1624 18.7562 38.1649C21.6958 46.6754 37.8563 50.8342 43.3549 40.1674C43.6545 39.586 44.4038 37.6732 45.2236 36.2582C45.9355 35.1612 46.9949 34.6347 48.8005 35.3919C50.6288 36.1586 52.9825 37.2034 54.0681 37.6297L56.7692 38.7205C57.2499 38.9109 57.6306 39.2818 57.8248 39.7489C58.0194 40.2109 58.0182 40.7287 57.8213 41.1898L55.0869 47.5857C54.8897 48.0534 54.5067 48.4245 54.0243 48.6153C53.5419 48.8061 53.0007 48.8007 52.5225 48.6002L48.7283 47.0769C47.5589 48.5712 46.1841 49.9031 44.6423 51.0357L46.2178 54.7377C46.4204 55.1906 46.4252 55.7038 46.2311 56.1603C46.0331 56.6327 45.6475 57.008 45.1612 57.2016L38.5754 59.8502C38.0984 60.044 37.5613 60.0447 37.0839 59.8521C36.6064 59.6595 36.2282 59.2896 36.0335 58.8249L34.4513 55.1284C32.5353 55.3876 30.5916 55.3903 28.6748 55.1364L27.0994 58.8294C26.8008 59.5361 26.0917 59.9982 25.3042 60Z"/>
</mask>
<path d="M25.3042 60C25.0392 59.9997 24.777 59.9467 24.534 59.8442L17.9584 57.2C17.4737 57.0059 17.0896 56.6313 16.892 56.1602C16.6968 55.6953 16.7053 55.1733 16.9156 54.7146L18.4816 51.0426C16.9405 49.9058 15.5654 48.5715 14.394 47.0763L10.5743 48.6065C10.0985 48.7994 9.56272 48.7985 9.08761 48.604C8.61278 48.414 8.23488 48.0492 8.0366 47.5896L5.31342 41.1818C4.90088 40.2315 5.35614 39.1363 6.3329 38.7293C7.46294 38.2776 10.3226 36.663 13.4194 35.6618C16.5162 34.6605 18.0645 36.1624 18.7562 38.1649C21.6958 46.6754 37.8563 50.8342 43.3549 40.1674C43.6545 39.586 44.4038 37.6732 45.2236 36.2582C45.9355 35.1612 46.9949 34.6347 48.8005 35.3919C50.6288 36.1586 52.9825 37.2034 54.0681 37.6297L56.7692 38.7205C57.2499 38.9109 57.6306 39.2818 57.8248 39.7489C58.0194 40.2109 58.0182 40.7287 57.8213 41.1898L55.0869 47.5857C54.8897 48.0534 54.5067 48.4245 54.0243 48.6153C53.5419 48.8061 53.0007 48.8007 52.5225 48.6002L48.7283 47.0769C47.5589 48.5712 46.1841 49.9031 44.6423 51.0357L46.2178 54.7377C46.4204 55.1906 46.4252 55.7038 46.2311 56.1603C46.0331 56.6327 45.6475 57.008 45.1612 57.2016L38.5754 59.8502C38.0984 60.044 37.5613 60.0447 37.0839 59.8521C36.6064 59.6595 36.2282 59.2896 36.0335 58.8249L34.4513 55.1284C32.5353 55.3876 30.5916 55.3903 28.6748 55.1364L27.0994 58.8294C26.8008 59.5361 26.0917 59.9982 25.3042 60Z" fill="#CCCCCC"/>
<path d="M55.9658 41.1043H55.9674V40.1043H55.9658V41.1043ZM25.3042 60L25.3033 61L25.3065 61L25.3042 60ZM24.534 59.8442L24.9225 58.9228L24.9148 58.9195L24.907 58.9164L24.534 59.8442ZM17.9584 57.2L18.3315 56.2722L18.3302 56.2717L17.9584 57.2ZM16.892 56.1602L17.8142 55.7735L17.814 55.773L16.892 56.1602ZM16.9156 54.7146L17.8246 55.1313L17.8302 55.1192L17.8354 55.1069L16.9156 54.7146ZM18.4816 51.0426L19.4014 51.4349L19.7117 50.7074L19.0752 50.2379L18.4816 51.0426ZM14.394 47.0763L15.1811 46.4596L14.7185 45.8691L14.0221 46.148L14.394 47.0763ZM10.5743 48.6065L10.2024 47.6782L10.1986 47.6797L10.5743 48.6065ZM9.08761 48.604L9.46636 47.6785L9.45922 47.6757L9.08761 48.604ZM8.0366 47.5896L7.11625 47.9807L7.11839 47.9857L8.0366 47.5896ZM5.31342 41.1818L6.23379 40.7906L6.23072 40.7836L5.31342 41.1818ZM6.3329 38.7293L5.96169 37.8008L5.95498 37.8035L5.9483 37.8062L6.3329 38.7293ZM43.3549 40.1674L44.2437 40.6256L43.3549 40.1674ZM54.0681 37.6297L54.4426 36.7024L54.4336 36.6989L54.0681 37.6297ZM56.7692 38.7205L56.3947 39.6477L56.4009 39.6502L56.7692 38.7205ZM57.8248 39.7489L56.9015 40.1328L56.9033 40.137L57.8248 39.7489ZM57.8213 41.1898L58.7408 41.5829L58.7409 41.5825L57.8213 41.1898ZM55.0869 47.5857L54.1674 47.1926L54.1656 47.1971L55.0869 47.5857ZM54.0243 48.6153L54.3922 49.5452L54.0243 48.6153ZM52.5225 48.6002L52.9091 47.6779L52.9021 47.675L52.895 47.6722L52.5225 48.6002ZM48.7283 47.0769L49.1009 46.1489L48.4038 45.8691L47.9408 46.4606L48.7283 47.0769ZM44.6423 51.0357L44.0503 50.2298L43.412 50.6986L43.7221 51.4273L44.6423 51.0357ZM46.2178 54.7377L45.2976 55.1293L45.3012 55.1377L45.3049 55.146L46.2178 54.7377ZM46.2311 56.1603L45.3108 55.769L45.3088 55.7738L46.2311 56.1603ZM45.1612 57.2016L44.7912 56.2726L44.788 56.2739L45.1612 57.2016ZM38.5754 59.8502L38.2023 58.9224L38.199 58.9238L38.5754 59.8502ZM37.0839 59.8521L37.458 58.9247L37.0839 59.8521ZM36.0335 58.8249L36.9559 58.4386L36.9529 58.4314L36.0335 58.8249ZM34.4513 55.1284L35.3707 54.7349L35.0713 54.0354L34.3173 54.1374L34.4513 55.1284ZM28.6748 55.1364L28.8062 54.145L28.0531 54.0453L27.7551 54.744L28.6748 55.1364ZM27.0994 58.8294L26.1796 58.437L26.1782 58.4401L27.0994 58.8294ZM48.8005 35.3919L48.4138 36.3141L48.8005 35.3919ZM45.2236 36.2582L44.3848 35.7138L44.371 35.735L44.3584 35.7569L45.2236 36.2582ZM25.3052 59C25.1726 58.9998 25.0423 58.9733 24.9225 58.9228L24.1454 60.7656C24.5117 60.9201 24.9057 60.9996 25.3033 61L25.3052 59ZM24.907 58.9164L18.3315 56.2722L17.5853 58.1278L24.1609 60.772L24.907 58.9164ZM18.3302 56.2717C18.088 56.1747 17.9057 55.9916 17.8142 55.7735L15.9698 56.5469C16.2735 57.271 16.8595 57.8371 17.5866 58.1283L18.3302 56.2717ZM17.814 55.773C17.7272 55.5663 17.7309 55.3359 17.8246 55.1313L16.0065 54.298C15.6798 55.0108 15.6664 55.8243 15.97 56.5473L17.814 55.773ZM17.8354 55.1069L19.4014 51.4349L17.5617 50.6503L15.9957 54.3223L17.8354 55.1069ZM19.0752 50.2379C17.6063 49.1543 16.2964 47.8831 15.1811 46.4596L13.6068 47.6931C14.8345 49.26 16.2748 50.6573 17.8879 51.8474L19.0752 50.2379ZM14.0221 46.148L10.2024 47.6782L10.9461 49.5348L14.7658 48.0046L14.0221 46.148ZM10.1986 47.6797C9.96479 47.7745 9.69978 47.7741 9.46635 47.6785L8.70888 49.5296C9.42566 49.8229 10.2322 49.8242 10.9499 49.5333L10.1986 47.6797ZM9.45922 47.6757C9.22379 47.5814 9.04587 47.4046 8.9548 47.1935L7.11839 47.9857C7.42389 48.6939 8.00176 49.2466 8.71601 49.5324L9.45922 47.6757ZM8.95694 47.1985L6.23376 40.7907L4.39308 41.5729L7.11626 47.9807L8.95694 47.1985ZM6.23072 40.7836C6.04848 40.3638 6.23695 39.8526 6.71751 39.6524L5.9483 37.8062C4.47532 38.42 3.75328 40.0991 4.39612 41.58L6.23072 40.7836ZM53.6936 38.5569L56.3948 39.6477L57.1437 37.7932L54.4425 36.7024L53.6936 38.5569ZM56.4009 39.6502C56.6367 39.7436 56.8135 39.9213 56.9015 40.1328L58.7482 39.3649C58.4477 38.6423 57.863 38.0782 57.1375 37.7908L56.4009 39.6502ZM56.9033 40.137C56.9926 40.3492 56.9921 40.5853 56.9016 40.7971L58.7409 41.5825C59.0443 40.8722 59.0463 40.0725 58.7464 39.3607L56.9033 40.137ZM56.9018 40.7967L54.1675 47.1926L56.0064 47.9788L58.7408 41.5829L56.9018 40.7967ZM54.1656 47.1971C54.0752 47.4113 53.8954 47.5909 53.6565 47.6854L54.3922 49.5452C55.1181 49.258 55.7041 48.6955 56.0083 47.9744L54.1656 47.1971ZM53.6565 47.6854C53.4168 47.7802 53.1464 47.7774 52.9091 47.6779L52.1358 49.5224C52.855 49.8239 53.6671 49.832 54.3922 49.5452L53.6565 47.6854ZM52.895 47.6722L49.1009 46.1489L48.3557 48.0049L52.1499 49.5282L52.895 47.6722ZM47.9408 46.4606C46.8281 47.8824 45.5192 49.1507 44.0503 50.2298L45.2343 51.8416C46.849 50.6555 48.2897 49.2599 49.5158 47.6932L47.9408 46.4606ZM43.7221 51.4273L45.2976 55.1293L47.1379 54.3461L45.5624 50.6441L43.7221 51.4273ZM45.3049 55.146C45.394 55.3451 45.396 55.5686 45.3108 55.769L47.1514 56.5516C47.4543 55.839 47.4467 55.0361 47.1306 54.3294L45.3049 55.146ZM45.3088 55.7738C45.2172 55.9924 45.0343 56.1758 44.7912 56.2726L45.5311 58.1307C46.2608 57.8402 46.8491 57.273 47.1534 56.5468L45.3088 55.7738ZM44.788 56.2739L38.2023 58.9224L38.9485 60.778L45.5343 58.1294L44.788 56.2739ZM38.199 58.9238C37.9626 59.0198 37.6946 59.0202 37.458 58.9247L36.7098 60.7795C37.428 61.0692 38.2343 61.0682 38.9518 60.7767L38.199 58.9238ZM37.458 58.9247C37.222 58.8295 37.0448 58.6509 36.9559 58.4386L35.1112 59.2112C35.4115 59.9282 35.9907 60.4894 36.7098 60.7795L37.458 58.9247ZM36.9529 58.4314L35.3707 54.7349L33.532 55.5219L35.1142 59.2184L36.9529 58.4314ZM34.3173 54.1374C32.4893 54.3848 30.6349 54.3873 28.8062 54.145L28.5435 56.1277C30.5484 56.3933 32.5813 56.3905 34.5854 56.1194L34.3173 54.1374ZM27.7551 54.744L26.1796 58.437L28.0192 59.2218L29.5946 55.5288L27.7551 54.744ZM26.1782 58.4401C26.0412 58.7645 25.7026 58.9991 25.302 59L25.3065 61C26.4807 60.9973 27.5603 60.3077 28.0205 59.2186L26.1782 58.4401ZM48.4138 36.3141C50.1994 37.0629 52.6078 38.1306 53.7026 38.5605L54.4336 36.6989C53.3572 36.2762 51.0583 35.2543 49.1873 34.4697L48.4138 36.3141ZM44.2437 40.6256C44.4094 40.3042 44.7009 39.6145 45.0062 38.9355C45.3306 38.2141 45.7058 37.4207 46.0889 36.7595L44.3584 35.7569C43.9216 36.5107 43.5123 37.3812 43.1822 38.1153C42.833 38.8918 42.6 39.4493 42.466 39.7092L44.2437 40.6256ZM46.0625 36.8025C46.3366 36.3801 46.608 36.172 46.8896 36.0874C47.1763 36.0013 47.645 35.9917 48.4138 36.3141L49.1873 34.4697C48.1504 34.0349 47.1867 33.9099 46.3142 34.172C45.4367 34.4356 44.8225 35.0393 44.3848 35.7138L46.0625 36.8025ZM6.70412 39.6579C7.3033 39.4183 8.38784 38.8603 9.56453 38.3064C10.7926 37.7283 12.2377 37.0948 13.727 36.6133L13.1117 34.7103C11.5043 35.23 9.97119 35.9044 8.7127 36.4968C7.40286 37.1134 6.49254 37.5886 5.96169 37.8008L6.70412 39.6579ZM17.811 38.4914C19.4403 43.2082 24.6152 46.5405 29.9465 47.3464C35.3358 48.1611 41.2439 46.445 44.2437 40.6256L42.466 39.7092C39.9673 44.5566 35.0459 46.0945 30.2454 45.3689C25.3869 44.6344 21.0118 41.6321 19.7014 37.8384L17.811 38.4914ZM13.727 36.6133C15.085 36.1742 15.936 36.3309 16.4869 36.6513C17.0649 36.9876 17.5092 37.6176 17.811 38.4914L19.7014 37.8384C19.3115 36.7097 18.6358 35.5876 17.4925 34.9225C16.3221 34.2417 14.8505 34.1481 13.1117 34.7103L13.727 36.6133Z" fill="#444444" mask="url(#path-1-outside-1_839_28144)"/>
<mask id="path-3-outside-2_839_28144" maskUnits="userSpaceOnUse" x="3.12903" y="5" width="59" height="35" fill="black">
<rect fill="white" x="3.12903" y="5" width="59" height="35"/>
<path d="M51.9098 38.0396H16.429C9.63592 38.0396 4.12903 32.7116 4.12903 26.1392C4.12903 19.5668 9.63592 14.2388 16.429 14.2388C16.5094 14.2388 16.5893 14.2392 16.6683 14.241C18.9246 9.2358 24.032 6 29.6758 6C35.3197 6 40.4271 9.2358 42.6834 14.241C46.9666 14.3344 50.7958 16.8474 52.4693 20.6633C57.3171 20.9532 61.05 24.9169 60.8988 29.6139C60.7476 34.311 56.7669 38.0422 51.9098 38.0396Z"/>
</mask>
<path d="M51.9098 38.0396H16.429C9.63592 38.0396 4.12903 32.7116 4.12903 26.1392C4.12903 19.5668 9.63592 14.2388 16.429 14.2388C16.5094 14.2388 16.5893 14.2392 16.6683 14.241C18.9246 9.2358 24.032 6 29.6758 6C35.3197 6 40.4271 9.2358 42.6834 14.241C46.9666 14.3344 50.7958 16.8474 52.4693 20.6633C57.3171 20.9532 61.05 24.9169 60.8988 29.6139C60.7476 34.311 56.7669 38.0422 51.9098 38.0396Z" fill="url(#paint0_linear_839_28144)"/>
<path d="M51.9098 38.0396L51.9103 37.0396H51.9098V38.0396ZM16.6683 14.241L16.6463 15.2407L17.308 15.2553L17.58 14.6519L16.6683 14.241ZM42.6834 14.241L41.7717 14.6519L42.0309 15.227L42.6616 15.2407L42.6834 14.241ZM52.4693 20.6633L51.5535 21.0649L51.7991 21.625L52.4096 21.6615L52.4693 20.6633ZM51.9098 37.0396H16.429V39.0396H51.9098V37.0396ZM16.429 37.0396C10.1568 37.0396 5.12903 32.1285 5.12903 26.1392H3.12903C3.12903 33.2948 9.11503 39.0396 16.429 39.0396V37.0396ZM5.12903 26.1392C5.12903 20.1499 10.1568 15.2388 16.429 15.2388V13.2388C9.11503 13.2388 3.12903 18.9836 3.12903 26.1392H5.12903ZM16.429 15.2388C16.5061 15.2388 16.5778 15.2392 16.6463 15.2407L16.6903 13.2412C16.6008 13.2392 16.5128 13.2388 16.429 13.2388V15.2388ZM17.58 14.6519C19.6689 10.0181 24.411 7 29.6758 7V5C23.653 5 18.1803 8.4535 15.7567 13.83L17.58 14.6519ZM29.6758 7C34.9407 7 39.6828 10.0181 41.7717 14.6519L43.595 13.83C41.1713 8.4535 35.6987 5 29.6758 5V7ZM42.6616 15.2407C46.5699 15.326 50.0418 17.6182 51.5535 21.0649L53.3851 20.2616C51.5497 16.0767 47.3632 13.3428 42.7052 13.2412L42.6616 15.2407ZM52.4096 21.6615C56.7468 21.9209 60.0322 25.4554 59.8993 29.5818L61.8983 29.6461C62.0679 24.3783 57.8875 19.9855 52.529 19.6651L52.4096 21.6615ZM59.8993 29.5818C59.7664 33.7097 56.2574 37.0419 51.9103 37.0396L51.9093 39.0396C57.2764 39.0425 61.7287 34.9123 61.8983 29.6461L59.8993 29.5818Z" fill="#444444" mask="url(#path-3-outside-2_839_28144)"/>
<path fill-rule="evenodd" clip-rule="evenodd" d="M16.283 31.5841C16.4769 31.8448 16.7883 31.9995 17.1201 32C17.5645 32 17.959 31.7244 18.0994 31.3159L19.5845 27H22.9137L24.3989 31.3159C24.5393 31.7244 24.9338 32 25.3782 32C25.71 31.9995 26.0214 31.8448 26.2153 31.584C26.4092 31.3233 26.4621 30.9882 26.3575 30.6832L22.2313 18.6921C22.2272 18.6799 22.2228 18.6677 22.2183 18.6557C22.1635 18.5111 22.0776 18.3857 21.9704 18.2845C21.8763 18.1954 21.7632 18.1226 21.6346 18.0726C21.5134 18.0253 21.3827 18 21.2491 18C20.9788 18 20.7199 18.1036 20.5286 18.2838C20.421 18.3852 20.3348 18.5107 20.28 18.6557C20.2754 18.6678 20.2711 18.6799 20.2669 18.6922L16.1407 30.6832C16.0361 30.9882 16.089 31.3233 16.283 31.5841ZM21.2491 22.1625L22.2255 25H20.2727L21.2491 22.1625ZM27.4428 30.9997C27.4428 31.5519 27.9049 31.9996 28.475 31.9996C29.0451 31.9996 29.5073 31.5519 29.5073 30.9997V26H32.6041C34.8845 26 36.7332 24.2092 36.7332 22.0002C36.7332 19.7912 34.8845 18.0005 32.6041 18.0005H28.475C27.9049 18.0005 27.4428 18.4482 27.4428 19.0004V25.0001V30.9997ZM32.6041 24.0001H29.5073V20.0004H32.6041C33.7443 20.0004 34.6686 20.8957 34.6686 22.0002C34.6686 23.1047 33.7443 24.0001 32.6041 24.0001ZM39.8299 29.9998V20.0004H37.7653C37.1952 20.0004 36.7331 19.5527 36.7331 19.0004C36.7331 18.4482 37.1952 18.0005 37.7653 18.0005H40.8622H43.9589C44.529 18.0005 44.9912 18.4482 44.9912 19.0004C44.9912 19.5527 44.529 20.0004 43.9589 20.0004H41.8945V29.9998H43.959C44.5291 29.9998 44.9913 30.4475 44.9913 30.9997C44.9913 31.552 44.5291 31.9997 43.959 31.9997H37.7654C37.1953 31.9997 36.7332 31.552 36.7332 30.9997C36.7332 30.4475 37.1953 29.9998 37.7654 29.9998H39.8299Z" fill="#444444"/>
<defs>
<linearGradient id="paint0_linear_839_28144" x1="32.5161" y1="6" x2="32.5161" y2="38.0396" gradientUnits="userSpaceOnUse">
<stop stop-color="#FF8E3D"/>
<stop offset="1" stop-color="#FF6F3D"/>
</linearGradient>
</defs>
</svg>
