<svg width="59" height="56" viewBox="0 0 59 56" fill="none" xmlns="http://www.w3.org/2000/svg">
<mask id="path-1-outside-1_847_29274" maskUnits="userSpaceOnUse" x="0.0322266" y="28.0359" width="56" height="28" fill="black">
<rect fill="white" x="0.0322266" y="28.0359" width="56" height="28"/>
<path d="M22.1752 55C21.9101 54.9997 21.6479 54.9467 21.4049 54.8442L14.8293 52.2C14.3446 52.0059 13.9605 51.6313 13.7629 51.1602C13.5677 50.6953 13.5762 50.1733 13.7865 49.7146L15.3525 46.0426C13.8114 44.9058 12.4364 43.5715 11.2649 42.0763L7.44518 43.6065C6.9694 43.7994 6.43363 43.7985 5.95852 43.604C5.48369 43.414 5.10579 43.0492 4.90751 42.5896L2.18433 36.1818C1.77179 35.2315 2.22705 34.1363 3.20381 33.7293C4.33385 33.2776 7.19352 31.663 10.2903 30.6618C13.3871 29.6605 14.9355 31.1624 15.6271 33.1649C18.5668 41.6754 34.7272 45.8342 40.2258 35.1674C40.5255 34.586 41.2747 32.6732 42.0946 31.2582C42.8064 30.1612 43.8658 29.6347 45.6714 30.3919C47.4998 31.1586 49.8534 32.2034 50.939 32.6297L53.6401 33.7205C54.1208 33.9109 54.5015 34.2818 54.6958 34.7489C54.8904 35.2109 54.8891 35.7287 54.6922 36.1898L51.9579 42.5857C51.7606 43.0534 51.3776 43.4245 50.8952 43.6153C50.4128 43.8061 49.8716 43.8007 49.3934 43.6002L45.5992 42.0769C44.4298 43.5712 43.055 44.9031 41.5132 46.0357L43.0887 49.7377C43.2913 50.1906 43.2961 50.7038 43.102 51.1603C42.904 51.6327 42.5184 52.008 42.0321 52.2016L35.4463 54.8502C34.9693 55.044 34.4323 55.0447 33.9548 54.8521C33.4773 54.6595 33.0991 54.2896 32.9044 53.8249L31.3222 50.1284C29.4062 50.3876 27.4625 50.3903 25.5458 50.1364L23.9703 53.8294C23.6717 54.5361 22.9626 54.9982 22.1752 55Z"/>
</mask>
<path d="M22.1752 55C21.9101 54.9997 21.6479 54.9467 21.4049 54.8442L14.8293 52.2C14.3446 52.0059 13.9605 51.6313 13.7629 51.1602C13.5677 50.6953 13.5762 50.1733 13.7865 49.7146L15.3525 46.0426C13.8114 44.9058 12.4364 43.5715 11.2649 42.0763L7.44518 43.6065C6.9694 43.7994 6.43363 43.7985 5.95852 43.604C5.48369 43.414 5.10579 43.0492 4.90751 42.5896L2.18433 36.1818C1.77179 35.2315 2.22705 34.1363 3.20381 33.7293C4.33385 33.2776 7.19352 31.663 10.2903 30.6618C13.3871 29.6605 14.9355 31.1624 15.6271 33.1649C18.5668 41.6754 34.7272 45.8342 40.2258 35.1674C40.5255 34.586 41.2747 32.6732 42.0946 31.2582C42.8064 30.1612 43.8658 29.6347 45.6714 30.3919C47.4998 31.1586 49.8534 32.2034 50.939 32.6297L53.6401 33.7205C54.1208 33.9109 54.5015 34.2818 54.6958 34.7489C54.8904 35.2109 54.8891 35.7287 54.6922 36.1898L51.9579 42.5857C51.7606 43.0534 51.3776 43.4245 50.8952 43.6153C50.4128 43.8061 49.8716 43.8007 49.3934 43.6002L45.5992 42.0769C44.4298 43.5712 43.055 44.9031 41.5132 46.0357L43.0887 49.7377C43.2913 50.1906 43.2961 50.7038 43.102 51.1603C42.904 51.6327 42.5184 52.008 42.0321 52.2016L35.4463 54.8502C34.9693 55.044 34.4323 55.0447 33.9548 54.8521C33.4773 54.6595 33.0991 54.2896 32.9044 53.8249L31.3222 50.1284C29.4062 50.3876 27.4625 50.3903 25.5458 50.1364L23.9703 53.8294C23.6717 54.5361 22.9626 54.9982 22.1752 55Z" fill="#EFEFEF"/>
<path d="M52.8367 36.1043H52.8383V35.1043H52.8367V36.1043ZM22.1752 55L22.1742 56L22.1774 56L22.1752 55ZM21.4049 54.8442L21.7934 53.9228L21.7857 53.9195L21.778 53.9164L21.4049 54.8442ZM14.8293 52.2L15.2024 51.2722L15.2011 51.2717L14.8293 52.2ZM13.7629 51.1602L14.6851 50.7735L14.685 50.773L13.7629 51.1602ZM13.7865 49.7146L14.6955 50.1313L14.7011 50.1192L14.7063 50.1069L13.7865 49.7146ZM15.3525 46.0426L16.2723 46.4349L16.5826 45.7074L15.9461 45.2379L15.3525 46.0426ZM11.2649 42.0763L12.0521 41.4596L11.5894 40.8691L10.893 41.148L11.2649 42.0763ZM7.44518 43.6065L7.07331 42.6782L7.06953 42.6797L7.44518 43.6065ZM5.95852 43.604L6.33727 42.6785L6.33013 42.6757L5.95852 43.604ZM4.90751 42.5896L3.98716 42.9807L3.9893 42.9857L4.90751 42.5896ZM2.18433 36.1818L3.1047 35.7906L3.10163 35.7836L2.18433 36.1818ZM3.20381 33.7293L2.8326 32.8008L2.82589 32.8035L2.81921 32.8062L3.20381 33.7293ZM40.2258 35.1674L41.1146 35.6256L40.2258 35.1674ZM50.939 32.6297L51.3135 31.7024L51.3045 31.6989L50.939 32.6297ZM53.6401 33.7205L53.2657 34.6477L53.2718 34.6502L53.6401 33.7205ZM54.6958 34.7489L53.7724 35.1328L53.7742 35.137L54.6958 34.7489ZM54.6922 36.1898L55.6117 36.5829L55.6118 36.5825L54.6922 36.1898ZM51.9579 42.5857L51.0384 42.1926L51.0365 42.1971L51.9579 42.5857ZM50.8952 43.6153L51.2631 44.5452L50.8952 43.6153ZM49.3934 43.6002L49.78 42.6779L49.773 42.675L49.766 42.6722L49.3934 43.6002ZM45.5992 42.0769L45.9718 41.1489L45.2747 40.8691L44.8117 41.4606L45.5992 42.0769ZM41.5132 46.0357L40.9212 45.2298L40.2829 45.6986L40.5931 46.4273L41.5132 46.0357ZM43.0887 49.7377L42.1685 50.1293L42.1721 50.1377L42.1758 50.146L43.0887 49.7377ZM43.102 51.1603L42.1817 50.769L42.1797 50.7738L43.102 51.1603ZM42.0321 52.2016L41.6622 51.2726L41.659 51.2739L42.0321 52.2016ZM35.4463 54.8502L35.0732 53.9224L35.0699 53.9238L35.4463 54.8502ZM33.9548 54.8521L34.3289 53.9247L33.9548 54.8521ZM32.9044 53.8249L33.8268 53.4386L33.8238 53.4314L32.9044 53.8249ZM31.3222 50.1284L32.2416 49.7349L31.9422 49.0354L31.1882 49.1374L31.3222 50.1284ZM25.5458 50.1364L25.6771 49.145L24.924 49.0453L24.626 49.744L25.5458 50.1364ZM23.9703 53.8294L23.0505 53.437L23.0491 53.4401L23.9703 53.8294ZM45.6714 30.3919L45.2847 31.3141L45.6714 30.3919ZM42.0946 31.2582L41.2557 30.7138L41.242 30.735L41.2293 30.7569L42.0946 31.2582ZM22.1761 54C22.0436 53.9998 21.9132 53.9733 21.7934 53.9228L21.0163 55.7656C21.3827 55.9201 21.7767 55.9996 22.1742 56L22.1761 54ZM21.778 53.9164L15.2024 51.2722L14.4562 53.1278L21.0318 55.772L21.778 53.9164ZM15.2011 51.2717C14.9589 51.1747 14.7766 50.9916 14.6851 50.7735L12.8407 51.5469C13.1444 52.271 13.7304 52.8371 14.4575 53.1283L15.2011 51.2717ZM14.685 50.773C14.5982 50.5663 14.6018 50.3359 14.6955 50.1313L12.8774 49.298C12.5507 50.0108 12.5373 50.8243 12.8409 51.5473L14.685 50.773ZM14.7063 50.1069L16.2723 46.4349L14.4326 45.6503L12.8666 49.3223L14.7063 50.1069ZM15.9461 45.2379C14.4772 44.1543 13.1673 42.8831 12.0521 41.4596L10.4777 42.6931C11.7054 44.26 13.1457 45.6573 14.7588 46.8474L15.9461 45.2379ZM10.893 41.148L7.07331 42.6782L7.81705 44.5348L11.6368 43.0046L10.893 41.148ZM7.06953 42.6797C6.8357 42.7745 6.57069 42.7741 6.33726 42.6785L5.57979 44.5296C6.29658 44.8229 7.10309 44.8242 7.82084 44.5333L7.06953 42.6797ZM6.33013 42.6757C6.0947 42.5814 5.91678 42.4046 5.82571 42.1935L3.9893 42.9857C4.2948 43.6939 4.87267 44.2466 5.58692 44.5324L6.33013 42.6757ZM5.82785 42.1985L3.10467 35.7907L1.26399 36.5729L3.98717 42.9807L5.82785 42.1985ZM3.10163 35.7836C2.91939 35.3638 3.10786 34.8526 3.58842 34.6524L2.81921 32.8062C1.34623 33.42 0.624191 35.0991 1.26703 36.58L3.10163 35.7836ZM50.5646 33.5569L53.2657 34.6477L54.0146 32.7932L51.3135 31.7024L50.5646 33.5569ZM53.2718 34.6502C53.5076 34.7436 53.6845 34.9213 53.7724 35.1328L55.6191 34.3649C55.3186 33.6423 54.734 33.0782 54.0084 32.7908L53.2718 34.6502ZM53.7742 35.137C53.8635 35.3492 53.863 35.5853 53.7725 35.7971L55.6118 36.5825C55.9152 35.8722 55.9172 35.0725 55.6173 34.3607L53.7742 35.137ZM53.7727 35.7967L51.0384 42.1926L52.8774 42.9788L55.6117 36.5829L53.7727 35.7967ZM51.0365 42.1971C50.9461 42.4113 50.7663 42.5909 50.5274 42.6854L51.2631 44.5452C51.989 44.258 52.5751 43.6955 52.8792 42.9744L51.0365 42.1971ZM50.5274 42.6854C50.2877 42.7802 50.0173 42.7774 49.78 42.6779L49.0068 44.5224C49.7259 44.8239 50.538 44.832 51.2631 44.5452L50.5274 42.6854ZM49.766 42.6722L45.9718 41.1489L45.2267 43.0049L49.0208 44.5282L49.766 42.6722ZM44.8117 41.4606C43.699 42.8824 42.3901 44.1507 40.9212 45.2298L42.1052 46.8416C43.7199 45.6555 45.1606 44.2599 46.3867 42.6932L44.8117 41.4606ZM40.5931 46.4273L42.1685 50.1293L44.0088 49.3461L42.4333 45.6441L40.5931 46.4273ZM42.1758 50.146C42.2649 50.3451 42.2669 50.5686 42.1817 50.769L44.0223 51.5516C44.3252 50.839 44.3176 50.0361 44.0015 49.3294L42.1758 50.146ZM42.1797 50.7738C42.0881 50.9924 41.9052 51.1758 41.6622 51.2726L42.402 53.1307C43.1317 52.8402 43.72 52.273 44.0243 51.5468L42.1797 50.7738ZM41.659 51.2739L35.0732 53.9224L35.8194 55.778L42.4052 53.1294L41.659 51.2739ZM35.0699 53.9238C34.8335 54.0198 34.5656 54.0202 34.3289 53.9247L33.5807 55.7795C34.299 56.0692 35.1052 56.0682 35.8227 55.7767L35.0699 53.9238ZM34.3289 53.9247C34.093 53.8295 33.9158 53.6509 33.8268 53.4386L31.9821 54.2112C32.2824 54.9282 32.8616 55.4894 33.5807 55.7795L34.3289 53.9247ZM33.8238 53.4314L32.2416 49.7349L30.4029 50.5219L31.9851 54.2184L33.8238 53.4314ZM31.1882 49.1374C29.3602 49.3848 27.5058 49.3873 25.6771 49.145L25.4144 51.1277C27.4193 51.3933 29.4522 51.3905 31.4563 51.1194L31.1882 49.1374ZM24.626 49.744L23.0505 53.437L24.8901 54.2218L26.4656 50.5288L24.626 49.744ZM23.0491 53.4401C22.9121 53.7645 22.5735 53.9991 22.1729 54L22.1774 56C23.3516 55.9973 24.4312 55.3077 24.8914 54.2186L23.0491 53.4401ZM45.2847 31.3141C47.0704 32.0629 49.4787 33.1306 50.5735 33.5605L51.3045 31.6989C50.2281 31.2762 47.9292 30.2543 46.0582 29.4697L45.2847 31.3141ZM41.1146 35.6256C41.2803 35.3042 41.5718 34.6145 41.8771 33.9355C42.2015 33.2141 42.5767 32.4207 42.9598 31.7595L41.2293 30.7569C40.7925 31.5107 40.3832 32.3812 40.0531 33.1153C39.7039 33.8918 39.4709 34.4493 39.3369 34.7092L41.1146 35.6256ZM42.9334 31.8025C43.2075 31.3801 43.4789 31.172 43.7605 31.0874C44.0472 31.0013 44.5159 30.9917 45.2847 31.3141L46.0582 29.4697C45.0213 29.0349 44.0576 28.9099 43.1851 29.172C42.3076 29.4356 41.6934 30.0393 41.2557 30.7138L42.9334 31.8025ZM3.57503 34.6579C4.17421 34.4183 5.25875 33.8603 6.43544 33.3064C7.66349 32.7283 9.10857 32.0948 10.5979 31.6133L9.98265 29.7103C8.37523 30.23 6.8421 30.9044 5.58361 31.4968C4.27377 32.1134 3.36346 32.5886 2.8326 32.8008L3.57503 34.6579ZM14.6819 33.4914C16.3112 38.2082 21.4862 41.5405 26.8174 42.3464C32.2067 43.1611 38.1148 41.445 41.1146 35.6256L39.3369 34.7092C36.8382 39.5566 31.9168 41.0945 27.1163 40.3689C22.2578 39.6344 17.8827 36.6321 16.5723 32.8384L14.6819 33.4914ZM10.5979 31.6133C11.9559 31.1742 12.8069 31.3309 13.3578 31.6513C13.9359 31.9876 14.3801 32.6176 14.6819 33.4914L16.5723 32.8384C16.1825 31.7097 15.5067 30.5876 14.3634 29.9225C13.193 29.2417 11.7214 29.1481 9.98265 29.7103L10.5979 31.6133Z" fill="#333333" mask="url(#path-1-outside-1_847_29274)"/>
<mask id="path-3-outside-2_847_29274" maskUnits="userSpaceOnUse" x="0" y="0" width="59" height="35" fill="black">
<rect fill="white" width="59" height="35"/>
<path d="M48.7808 33.0396H13.3C6.5069 33.0396 1 27.7116 1 21.1392C1 14.5668 6.5069 9.23877 13.3 9.23877C13.3804 9.23877 13.4603 9.23923 13.5393 9.24097C15.7956 4.2358 20.903 1 26.5468 1C32.1907 1 37.298 4.2358 39.5543 9.24097C43.8376 9.33441 47.6667 11.8474 49.3402 15.6633C54.1881 15.9532 57.921 19.9169 57.7698 24.6139C57.6185 29.311 53.6379 33.0422 48.7808 33.0396Z"/>
</mask>
<path d="M48.7808 33.0396H13.3C6.5069 33.0396 1 27.7116 1 21.1392C1 14.5668 6.5069 9.23877 13.3 9.23877C13.3804 9.23877 13.4603 9.23923 13.5393 9.24097C15.7956 4.2358 20.903 1 26.5468 1C32.1907 1 37.298 4.2358 39.5543 9.24097C43.8376 9.33441 47.6667 11.8474 49.3402 15.6633C54.1881 15.9532 57.921 19.9169 57.7698 24.6139C57.6185 29.311 53.6379 33.0422 48.7808 33.0396Z" fill="url(#paint0_linear_847_29274)"/>
<path d="M48.7808 33.0396L48.7813 32.0396H48.7808V33.0396ZM13.5393 9.24097L13.5173 10.2407L14.1789 10.2553L14.4509 9.65194L13.5393 9.24097ZM39.5543 9.24097L38.6427 9.65194L38.9019 10.227L39.5325 10.2407L39.5543 9.24097ZM49.3402 15.6633L48.4244 16.0649L48.6701 16.625L49.2805 16.6615L49.3402 15.6633ZM48.7808 32.0396H13.3V34.0396H48.7808V32.0396ZM13.3 32.0396C7.02779 32.0396 2 27.1285 2 21.1392H0C0 28.2948 5.986 34.0396 13.3 34.0396V32.0396ZM2 21.1392C2 15.1499 7.02779 10.2388 13.3 10.2388V8.23877C5.986 8.23877 0 13.9836 0 21.1392H2ZM13.3 10.2388C13.3771 10.2388 13.4487 10.2392 13.5173 10.2407L13.5613 8.24121C13.4718 8.23924 13.3837 8.23877 13.3 8.23877V10.2388ZM14.4509 9.65194C16.5398 5.01811 21.282 2 26.5468 2V0C20.5239 0 15.0513 3.4535 12.6276 8.83001L14.4509 9.65194ZM26.5468 2C31.8116 2 36.5538 5.01811 38.6427 9.65194L40.466 8.83001C38.0423 3.4535 32.5697 0 26.5468 0V2ZM39.5325 10.2407C43.4409 10.326 46.9128 12.6182 48.4244 16.0649L50.256 15.2616C48.4207 11.0767 44.2342 8.34283 39.5762 8.24121L39.5325 10.2407ZM49.2805 16.6615C53.6177 16.9209 56.9031 20.4554 56.7703 24.5818L58.7692 24.6461C58.9388 19.3783 54.7585 14.9855 49.3999 14.6651L49.2805 16.6615ZM56.7703 24.5818C56.6374 28.7097 53.1284 32.0419 48.7813 32.0396L48.7802 34.0396C54.1474 34.0425 58.5997 29.9123 58.7692 24.6461L56.7703 24.5818Z" fill="#333333" mask="url(#path-3-outside-2_847_29274)"/>
<path fill-rule="evenodd" clip-rule="evenodd" d="M21.2699 26.3159C21.4103 26.7244 21.8048 27 22.2492 27C22.581 26.9995 22.8923 26.8448 23.0863 26.584C23.2802 26.3233 23.3331 25.9882 23.2285 25.6832L19.1023 13.6921C19.0982 13.6799 19.0938 13.6677 19.0892 13.6557C19.0345 13.5111 18.9486 13.3857 18.8413 13.2845C18.7472 13.1954 18.6342 13.1226 18.5056 13.0726C18.3844 13.0253 18.2536 13 18.1201 13C17.9866 13 17.8558 13.0253 17.7346 13.0726C17.6064 13.1224 17.4936 13.195 17.3997 13.2837C17.2921 13.3851 17.2058 13.5107 17.151 13.6557C17.1464 13.6677 17.142 13.6799 17.1379 13.6922L13.0117 25.6832C12.9071 25.9882 12.96 26.3233 13.1539 26.5841C13.3479 26.8448 13.6592 26.9995 13.991 27C14.4354 27 14.8299 26.7244 14.9703 26.3159L16.4555 22H19.7847L21.2699 26.3159ZM19.0965 20H17.1437L18.1201 17.1625L19.0965 20ZM24.3137 25.9997C24.3137 26.5519 24.7759 26.9996 25.346 26.9996C25.9161 26.9996 26.3783 26.5519 26.3783 25.9997V21H29.4751C31.7555 21 33.6041 19.2092 33.6041 17.0002C33.6041 14.7912 31.7555 13.0005 29.4751 13.0005H25.346C24.7759 13.0005 24.3137 13.4482 24.3137 14.0004V20.0001V25.9997ZM29.4751 19.0001H26.3783V15.0004H29.4751C30.6153 15.0004 31.5396 15.8957 31.5396 17.0002C31.5396 18.1047 30.6153 19.0001 29.4751 19.0001ZM36.7009 24.9998V15.0004H34.6363C34.0662 15.0004 33.604 14.5527 33.604 14.0004C33.604 13.4482 34.0662 13.0005 34.6363 13.0005H37.7332H40.8299C41.4 13.0005 41.8622 13.4482 41.8622 14.0004C41.8622 14.5527 41.4 15.0004 40.8299 15.0004H38.7655V24.9998H40.83C41.4001 24.9998 41.8623 25.4475 41.8623 25.9997C41.8623 26.552 41.4001 26.9997 40.83 26.9997H34.6364C34.0663 26.9997 33.6041 26.552 33.6041 25.9997C33.6041 25.4475 34.0663 24.9998 34.6364 24.9998H36.7009Z" fill="white"/>
<defs>
<linearGradient id="paint0_linear_847_29274" x1="29.3871" y1="1" x2="29.3871" y2="33.0396" gradientUnits="userSpaceOnUse">
<stop stop-color="#FF8E3D"/>
<stop offset="1" stop-color="#FF6F3D"/>
</linearGradient>
</defs>
</svg>
