<svg width="64" height="64" viewBox="0 0 64 64" fill="none" xmlns="http://www.w3.org/2000/svg">
<path fill-rule="evenodd" clip-rule="evenodd" d="M26 44V44.9C26 45.6 26.3 46.2 26.9 46.5C28.5 47.5 28.7 49.8 27.2 51.1L27.1 51.2C26.6 51.7 25.9 51.9 25.1 51.9H20H16.5C14.5 51.9 13.1 50 13.6 48L16.4 38.7C16.8 37.4 15.4 36.4 14.2 37.1L13 38C12.2 38.6 11.1 39 10 39C7.2 39 5 36.8 5 34V30C5 27.2 7.2 25 10 25C11.1 25 12.2 25.4 13 26L14.3 26.7C15.5 27.4 16.9 26.4 16.5 25.1L13.7 15.9C13.1 13.9 14.5 12 16.5 12H20H25.1C25.8 12 26.5 12.3 27.1 12.8L27.2 12.9C28.6 14.2 28.5 16.4 26.9 17.5C26.3 17.8 26 18.4 26 19V20C26 21.7 27.3 23 29 23H36C37.7 23 39 21.7 39 20V19.1C39 18.4 38.7 17.8 38.1 17.5C36.5 16.5 36.3 14.2 37.8 12.9L37.9 12.8C38.4 12.3 39.1 12.1 39.9 12.1H45H48C50 12.1 51.4 14 50.9 16L48.1 25.3C47.8 26.5 49 27.3 50 26.7L51 26.1C51.8 25.5 52.9 25.1 54 25.1C56.8 25.1 59 27.3 59 30.1V34.1C59 35.1 58.7 36 58.2 36.8C55.3 33.2 50.9 31 46 31C39.3 31 33.5 35.1 31.2 41H29C27.3 41 26 42.3 26 44Z" fill="#9ADAF3"/>
<path d="M31 40.775H29.0555C27.4294 40.775 26.1111 42.0846 26.1111 43.7L26.1111 44.6244C26.1111 45.2634 26.4389 45.8584 26.9807 46.2028C28.5685 47.2121 28.7375 49.4525 27.3189 50.6856L27.2147 50.7762C26.678 51.2428 25.989 51.5 25.2757 51.5H20.2222H16.8321C14.8607 51.5 13.4462 49.6129 14.0112 47.7367L16.7305 38.7064C17.1113 37.4418 15.7503 36.4885 14.5967 37.1434L13.3538 37.8489C12.5333 38.4618 11.5131 38.825 10.4074 38.825C7.69712 38.825 5.5 36.6424 5.5 33.95V30.05C5.5 27.3576 7.69712 25.175 10.4074 25.175C11.5131 25.175 12.5333 25.5382 13.3538 26.1511L14.5967 26.8566C15.7503 27.5115 17.1113 26.5582 16.7305 25.2936L14.0112 16.2633C13.4462 14.3871 14.8607 12.5 16.8321 12.5H20.2222H25.246C25.9669 12.5 26.6628 12.7627 27.2017 13.2384L27.3041 13.3289C28.7022 14.5629 28.5359 16.7798 26.9692 17.7944C26.4339 18.141 26.1111 18.7328 26.1111 19.3675V20.3C26.1111 21.9154 27.4294 23.225 29.0555 23.225H35.9259C37.5521 23.225 38.8704 21.9154 38.8704 20.3L38.8704 19.3756C38.8704 18.7366 38.5426 18.1416 38.0008 17.7972C36.413 16.7879 36.2439 14.5475 37.6625 13.3144L37.7667 13.2238C38.3035 12.7572 38.9925 12.5 39.7057 12.5H44.7593H47.6755C49.6469 12.5 51.0614 14.3871 50.4964 16.2633L47.7771 25.2936C47.4371 26.4225 48.6513 27.2835 49.6812 26.6989L50.6462 26.1511C51.4667 25.5382 52.4869 25.175 53.5926 25.175C56.3029 25.175 58.5 27.3576 58.5 30.05V33.95C58.5 34.7202 58.3202 35.4487 58 36.0963" stroke="#333333" stroke-linecap="round"/>
<mask id="path-3-inside-1_1718_7468" fill="white">
<path fill-rule="evenodd" clip-rule="evenodd" d="M59 44.2454V49.7546L56.6803 50.2862L55.9071 52.2193L57.1636 54.2007L53.2491 58.1152L51.2193 56.8587L49.2862 57.6803L48.7546 60H43.2454L42.7138 57.6803L40.7807 56.9071L38.7993 58.1636L34.8848 54.2491L36.1413 52.2193L35.3197 50.2862L33 49.7546V44.2454L35.3197 43.7138L36.0929 41.7807L34.8364 39.7993L38.7509 35.8848L40.7807 37.1413L42.7138 36.3197L43.2454 34H48.7546L49.2862 36.3197L51.2193 37.0929L53.2007 35.8364L57.1152 39.7509L55.8587 41.7807L56.6803 43.7138L59 44.2454ZM46 51.6429C48.5642 51.6429 50.6429 49.5642 50.6429 47C50.6429 44.4358 48.5642 42.3571 46 42.3571C43.4358 42.3571 41.3571 44.4358 41.3571 47C41.3571 49.5642 43.4358 51.6429 46 51.6429Z"/>
</mask>
<path fill-rule="evenodd" clip-rule="evenodd" d="M59 44.2454V49.7546L56.6803 50.2862L55.9071 52.2193L57.1636 54.2007L53.2491 58.1152L51.2193 56.8587L49.2862 57.6803L48.7546 60H43.2454L42.7138 57.6803L40.7807 56.9071L38.7993 58.1636L34.8848 54.2491L36.1413 52.2193L35.3197 50.2862L33 49.7546V44.2454L35.3197 43.7138L36.0929 41.7807L34.8364 39.7993L38.7509 35.8848L40.7807 37.1413L42.7138 36.3197L43.2454 34H48.7546L49.2862 36.3197L51.2193 37.0929L53.2007 35.8364L57.1152 39.7509L55.8587 41.7807L56.6803 43.7138L59 44.2454ZM46 51.6429C48.5642 51.6429 50.6429 49.5642 50.6429 47C50.6429 44.4358 48.5642 42.3571 46 42.3571C43.4358 42.3571 41.3571 44.4358 41.3571 47C41.3571 49.5642 43.4358 51.6429 46 51.6429Z" fill="url(#paint0_linear_1718_7468)"/>
<path d="M59 49.7546L59.2234 50.7294L60 50.5514V49.7546H59ZM59 44.2454H60V43.4486L59.2234 43.2706L59 44.2454ZM56.6803 50.2862L56.4569 49.3115L55.9464 49.4285L55.7518 49.9149L56.6803 50.2862ZM55.9071 52.2193L54.9786 51.8479L54.7886 52.3229L55.0626 52.7549L55.9071 52.2193ZM57.1636 54.2007L57.8707 54.9079L58.437 54.3415L58.0081 53.6652L57.1636 54.2007ZM53.2491 58.1152L52.7227 58.9655L53.3961 59.3824L53.9562 58.8223L53.2491 58.1152ZM51.2193 56.8587L51.7457 56.0085L51.3051 55.7357L50.8282 55.9384L51.2193 56.8587ZM49.2862 57.6803L48.8951 56.76L48.4255 56.9596L48.3115 57.4569L49.2862 57.6803ZM48.7546 60V61H49.5514L49.7294 60.2234L48.7546 60ZM43.2454 60L42.2706 60.2234L42.4486 61H43.2454V60ZM42.7138 57.6803L43.6885 57.4569L43.5715 56.9464L43.0851 56.7518L42.7138 57.6803ZM40.7807 56.9071L41.1521 55.9786L40.6771 55.7886L40.2451 56.0626L40.7807 56.9071ZM38.7993 58.1636L38.0921 58.8707L38.6585 59.437L39.3348 59.0081L38.7993 58.1636ZM34.8848 54.2491L34.0345 53.7227L33.6176 54.3961L34.1777 54.9562L34.8848 54.2491ZM36.1413 52.2193L36.9915 52.7457L37.2643 52.3051L37.0616 51.8282L36.1413 52.2193ZM35.3197 50.2862L36.24 49.8951L36.0404 49.4255L35.5431 49.3115L35.3197 50.2862ZM33 49.7546H32V50.5514L32.7766 50.7294L33 49.7546ZM33 44.2454L32.7766 43.2706L32 43.4486V44.2454H33ZM35.3197 43.7138L35.5431 44.6885L36.0536 44.5715L36.2482 44.0851L35.3197 43.7138ZM36.0929 41.7807L37.0214 42.1521L37.2114 41.6771L36.9374 41.2451L36.0929 41.7807ZM34.8364 39.7993L34.1293 39.0921L33.563 39.6585L33.9919 40.3348L34.8364 39.7993ZM38.7509 35.8848L39.2773 35.0345L38.6039 34.6176L38.0438 35.1777L38.7509 35.8848ZM40.7807 37.1413L40.2543 37.9915L40.6949 38.2643L41.1718 38.0616L40.7807 37.1413ZM42.7138 36.3197L43.1049 37.24L43.5745 37.0404L43.6885 36.5431L42.7138 36.3197ZM43.2454 34V33H42.4486L42.2706 33.7766L43.2454 34ZM48.7546 34L49.7294 33.7766L49.5514 33H48.7546V34ZM49.2862 36.3197L48.3115 36.5431L48.4285 37.0536L48.9149 37.2482L49.2862 36.3197ZM51.2193 37.0929L50.8479 38.0214L51.3229 38.2114L51.7549 37.9374L51.2193 37.0929ZM53.2007 35.8364L53.9079 35.1293L53.3415 34.563L52.6652 34.9919L53.2007 35.8364ZM57.1152 39.7509L57.9655 40.2773L58.3824 39.6039L57.8223 39.0438L57.1152 39.7509ZM55.8587 41.7807L55.0085 41.2543L54.7357 41.6949L54.9384 42.1718L55.8587 41.7807ZM56.6803 43.7138L55.76 44.1049L55.9596 44.5745L56.4569 44.6885L56.6803 43.7138ZM60 49.7546V44.2454H58V49.7546H60ZM56.9037 51.261L59.2234 50.7294L58.7766 48.7799L56.4569 49.3115L56.9037 51.261ZM56.8355 52.5907L57.6088 50.6576L55.7518 49.9149L54.9786 51.8479L56.8355 52.5907ZM58.0081 53.6652L56.7516 51.6838L55.0626 52.7549L56.3191 54.7363L58.0081 53.6652ZM53.9562 58.8223L57.8707 54.9079L56.4565 53.4936L52.542 57.4081L53.9562 58.8223ZM50.693 57.709L52.7227 58.9655L53.7754 57.265L51.7457 56.0085L50.693 57.709ZM49.6774 58.6006L51.6105 57.7791L50.8282 55.9384L48.8951 56.76L49.6774 58.6006ZM49.7294 60.2234L50.261 57.9037L48.3115 57.4569L47.7799 59.7766L49.7294 60.2234ZM43.2454 61H48.7546V59H43.2454V61ZM41.739 57.9037L42.2706 60.2234L44.2201 59.7766L43.6885 57.4569L41.739 57.9037ZM40.4093 57.8355L42.3424 58.6088L43.0851 56.7518L41.1521 55.9786L40.4093 57.8355ZM39.3348 59.0081L41.3162 57.7516L40.2451 56.0626L38.2637 57.3191L39.3348 59.0081ZM34.1777 54.9562L38.0921 58.8707L39.5064 57.4565L35.5919 53.542L34.1777 54.9562ZM35.291 51.693L34.0345 53.7227L35.735 54.7754L36.9915 52.7457L35.291 51.693ZM34.3994 50.6774L35.2209 52.6105L37.0616 51.8282L36.24 49.8951L34.3994 50.6774ZM32.7766 50.7294L35.0963 51.261L35.5431 49.3115L33.2234 48.7799L32.7766 50.7294ZM32 44.2454V49.7546H34V44.2454H32ZM35.0963 42.739L32.7766 43.2706L33.2234 45.2201L35.5431 44.6885L35.0963 42.739ZM35.1645 41.4093L34.3912 43.3424L36.2482 44.0851L37.0214 42.1521L35.1645 41.4093ZM33.9919 40.3348L35.2484 42.3162L36.9374 41.2451L35.6809 39.2637L33.9919 40.3348ZM38.0438 35.1777L34.1293 39.0921L35.5435 40.5064L39.458 36.5919L38.0438 35.1777ZM41.307 36.291L39.2773 35.0345L38.2246 36.735L40.2543 37.9915L41.307 36.291ZM42.3226 35.3994L40.3895 36.2209L41.1718 38.0616L43.1049 37.24L42.3226 35.3994ZM42.2706 33.7766L41.739 36.0963L43.6885 36.5431L44.2201 34.2234L42.2706 33.7766ZM48.7546 33H43.2454V35H48.7546V33ZM50.261 36.0963L49.7294 33.7766L47.7799 34.2234L48.3115 36.5431L50.261 36.0963ZM51.5907 36.1645L49.6576 35.3912L48.9149 37.2482L50.8479 38.0214L51.5907 36.1645ZM52.6652 34.9919L50.6838 36.2484L51.7549 37.9374L53.7363 36.6809L52.6652 34.9919ZM57.8223 39.0438L53.9079 35.1293L52.4936 36.5435L56.4081 40.458L57.8223 39.0438ZM56.709 42.307L57.9655 40.2773L56.265 39.2246L55.0085 41.2543L56.709 42.307ZM57.6006 43.3226L56.7791 41.3895L54.9384 42.1718L55.76 44.1049L57.6006 43.3226ZM59.2234 43.2706L56.9037 42.739L56.4569 44.6885L58.7766 45.2201L59.2234 43.2706ZM49.6429 47C49.6429 49.0119 48.0119 50.6429 46 50.6429V52.6429C49.1165 52.6429 51.6429 50.1165 51.6429 47H49.6429ZM46 43.3571C48.0119 43.3571 49.6429 44.9881 49.6429 47H51.6429C51.6429 43.8835 49.1165 41.3571 46 41.3571V43.3571ZM42.3571 47C42.3571 44.9881 43.9881 43.3571 46 43.3571V41.3571C42.8835 41.3571 40.3571 43.8835 40.3571 47H42.3571ZM46 50.6429C43.9881 50.6429 42.3571 49.0119 42.3571 47H40.3571C40.3571 50.1165 42.8835 52.6429 46 52.6429V50.6429Z" fill="#333333" mask="url(#path-3-inside-1_1718_7468)"/>
<defs>
<linearGradient id="paint0_linear_1718_7468" x1="33.0001" y1="32.9844" x2="59" y2="60" gradientUnits="userSpaceOnUse">
<stop stop-color="#FFC671"/>
<stop offset="0.59375" stop-color="#FF7541"/>
<stop offset="1" stop-color="#FF6F3D"/>
</linearGradient>
</defs>
</svg>
