<svg width="64" height="64" viewBox="0 0 64 64" fill="none" xmlns="http://www.w3.org/2000/svg">
<path fill-rule="evenodd" clip-rule="evenodd" d="M60.9576 31.7303C61.5927 30.5797 61.9497 29.2967 62 27.9838C62 25.0016 59.5003 20.4908 55.7506 20.4908C54.3366 20.5098 52.9779 21.0425 51.9284 21.9894C51.3417 22.5459 50.5897 22.8965 49.786 22.9884C49.5235 22.1267 49.561 19.0297 51.3183 11.9987C51.7463 10.2714 50.6918 8.52452 48.9631 8.09683C48.7073 8.03361 48.4447 8.00188 48.1811 8.00247H36.9771C35.9871 8.00165 35.0962 8.60308 34.7273 9.52108C34.3496 10.4529 34.5806 11.5208 35.3098 12.2135C36.2975 13.0298 36.9065 14.2153 36.9947 15.493C36.9947 17.5586 34.2775 17.9906 31.9951 17.9906C29.7127 17.9906 26.9955 17.5585 26.9955 15.493C27.0855 14.2129 27.6983 13.0262 28.6903 12.2111C29.4195 11.5182 29.6505 10.4504 29.2728 9.51862C28.9039 8.60062 28.013 7.99931 27.023 8.00001H15.819C14.038 7.99614 12.5911 9.4355 12.5872 11.215C12.5866 11.4783 12.6184 11.7406 12.6817 11.9962C14.4315 19.0171 14.4765 22.1142 14.214 22.986C13.4103 22.8941 12.6583 22.5434 12.0716 21.9869C11.0221 21.04 9.6634 20.5073 8.24942 20.4883C4.49975 20.4883 2 24.9991 2 27.9813C2 30.9635 4.49975 35.4743 8.24942 35.4743C9.6634 35.4553 11.0221 34.9226 12.0716 33.9757C12.6356 33.4408 13.3523 33.096 14.1209 32.9885L14.2326 33.0434C14.4736 33.991 14.3963 37.1061 12.6817 43.9664C12.5688 44.4238 12.5598 44.8825 12.6396 45.3176C12.7351 45.9027 12.9982 46.4266 13.3767 46.8508C13.7983 47.3375 14.3695 47.7031 15.0427 47.869C15.2975 47.9317 15.559 47.9632 15.8214 47.9626C19.5788 48.0467 23.3527 47.9626 27.1116 47.9626C28.1016 47.9633 28.9925 47.362 29.3614 46.444C29.7391 45.5122 29.5081 44.4444 28.7789 43.7516C27.7869 42.9365 27.1741 41.7498 27.0841 40.4696C27.0841 38.6645 29.408 37.8262 31.5993 37.9233C33.3064 37.731 35.6167 36.43 36.8112 35.0869C37.5069 34.3045 38.3483 33.4544 39.2581 32.7388C42.7931 29.9582 45.0645 29.4085 49.4194 29.4085C52.2858 29.4085 55.3618 30.8513 57.1297 31.8376C57.7741 32.1971 60.0645 32.7388 60.9576 31.7303Z" fill="#D9F4FF" stroke="#333333"/>
<mask id="path-2-inside-1_832_21421" fill="white">
<path fill-rule="evenodd" clip-rule="evenodd" d="M59.3234 37.2082L62 37.8216V44.1784L59.3234 44.7918L58.4312 47.0223L59.881 49.3085L55.3643 53.8253L53.0223 52.3755L50.7918 53.3234L50.1784 56H43.8216L43.2082 53.3234L40.9777 52.4312L38.6914 53.881L34.1747 49.3643L35.6245 47.0223L34.6766 44.7918L32 44.1784V37.8216L34.6766 37.2082L35.5688 34.9777L34.119 32.6915L38.6357 28.1747L40.9777 29.6245L43.2082 28.6766L43.8216 26H50.1784L50.7918 28.6766L53.0223 29.5688L55.3085 28.119L59.8253 32.6357L58.3755 34.9777L59.3234 37.2082ZM47 44.4615C48.9118 44.4615 50.4615 42.9118 50.4615 41C50.4615 39.0882 48.9118 37.5385 47 37.5385C45.0882 37.5385 43.5385 39.0882 43.5385 41C43.5385 42.9118 45.0882 44.4615 47 44.4615Z"/>
</mask>
<path fill-rule="evenodd" clip-rule="evenodd" d="M59.3234 37.2082L62 37.8216V44.1784L59.3234 44.7918L58.4312 47.0223L59.881 49.3085L55.3643 53.8253L53.0223 52.3755L50.7918 53.3234L50.1784 56H43.8216L43.2082 53.3234L40.9777 52.4312L38.6914 53.881L34.1747 49.3643L35.6245 47.0223L34.6766 44.7918L32 44.1784V37.8216L34.6766 37.2082L35.5688 34.9777L34.119 32.6915L38.6357 28.1747L40.9777 29.6245L43.2082 28.6766L43.8216 26H50.1784L50.7918 28.6766L53.0223 29.5688L55.3085 28.119L59.8253 32.6357L58.3755 34.9777L59.3234 37.2082ZM47 44.4615C48.9118 44.4615 50.4615 42.9118 50.4615 41C50.4615 39.0882 48.9118 37.5385 47 37.5385C45.0882 37.5385 43.5385 39.0882 43.5385 41C43.5385 42.9118 45.0882 44.4615 47 44.4615Z" fill="url(#paint0_linear_832_21421)"/>
<path d="M62 37.8216H63V37.0248L62.2234 36.8468L62 37.8216ZM59.3234 37.2082L58.4031 37.5993L58.6027 38.0689L59.1 38.1829L59.3234 37.2082ZM62 44.1784L62.2234 45.1532L63 44.9752V44.1784H62ZM59.3234 44.7918L59.1 43.8171L58.5895 43.9341L58.3949 44.4204L59.3234 44.7918ZM58.4312 47.0223L57.5028 46.6509L57.3128 47.1259L57.5867 47.5578L58.4312 47.0223ZM59.881 49.3085L60.5881 50.0157L61.1545 49.4494L60.7255 48.773L59.881 49.3085ZM55.3643 53.8253L54.838 54.6755L55.5114 55.0924L56.0714 54.5324L55.3643 53.8253ZM53.0223 52.3755L53.5487 51.5252L53.1081 51.2524L52.6312 51.4551L53.0223 52.3755ZM50.7918 53.3234L50.4007 52.4031L49.9311 52.6027L49.8171 53.1L50.7918 53.3234ZM50.1784 56V57H50.9752L51.1532 56.2234L50.1784 56ZM43.8216 56L42.8468 56.2234L43.0248 57H43.8216V56ZM43.2082 53.3234L44.1829 53.1L44.0659 52.5895L43.5796 52.3949L43.2082 53.3234ZM40.9777 52.4312L41.3491 51.5028L40.8741 51.3128L40.4422 51.5867L40.9777 52.4312ZM38.6914 53.881L37.9843 54.5881L38.5506 55.1545L39.227 54.7256L38.6914 53.881ZM34.1747 49.3643L33.3245 48.838L32.9076 49.5114L33.4676 50.0714L34.1747 49.3643ZM35.6245 47.0223L36.4748 47.5487L36.7475 47.1081L36.5449 46.6312L35.6245 47.0223ZM34.6766 44.7918L35.5969 44.4007L35.3973 43.9311L34.9 43.8171L34.6766 44.7918ZM32 44.1784H31V44.9752L31.7766 45.1532L32 44.1784ZM32 37.8216L31.7766 36.8468L31 37.0248V37.8216H32ZM34.6766 37.2082L34.9 38.1829L35.4105 38.0659L35.6051 37.5796L34.6766 37.2082ZM35.5688 34.9777L36.4973 35.3491L36.6872 34.8741L36.4133 34.4422L35.5688 34.9777ZM34.119 32.6915L33.4119 31.9843L32.8455 32.5506L33.2745 33.227L34.119 32.6915ZM38.6357 28.1747L39.162 27.3245L38.4886 26.9076L37.9286 27.4676L38.6357 28.1747ZM40.9777 29.6245L40.4513 30.4748L40.8919 30.7475L41.3688 30.5449L40.9777 29.6245ZM43.2082 28.6766L43.5993 29.5969L44.0689 29.3973L44.1829 28.9L43.2082 28.6766ZM43.8216 26V25H43.0248L42.8468 25.7766L43.8216 26ZM50.1784 26L51.1532 25.7766L50.9752 25H50.1784V26ZM50.7918 28.6766L49.8171 28.9L49.9341 29.4105L50.4204 29.6051L50.7918 28.6766ZM53.0223 29.5688L52.6509 30.4973L53.1259 30.6872L53.5578 30.4133L53.0223 29.5688ZM55.3085 28.119L56.0157 27.4119L55.4494 26.8455L54.773 27.2745L55.3085 28.119ZM59.8253 32.6357L60.6755 33.162L61.0924 32.4886L60.5324 31.9286L59.8253 32.6357ZM58.3755 34.9777L57.5252 34.4513L57.2524 34.8919L57.4551 35.3688L58.3755 34.9777ZM62.2234 36.8468L59.5468 36.2334L59.1 38.1829L61.7766 38.7963L62.2234 36.8468ZM63 44.1784V37.8216H61V44.1784H63ZM59.5468 45.7666L62.2234 45.1532L61.7766 43.2037L59.1 43.8171L59.5468 45.7666ZM59.3597 47.3937L60.2519 45.1632L58.3949 44.4204L57.5028 46.6509L59.3597 47.3937ZM60.7255 48.773L59.2757 46.4868L57.5867 47.5578L59.0365 49.8441L60.7255 48.773ZM56.0714 54.5324L60.5881 50.0157L59.1739 48.6014L54.6572 53.1182L56.0714 54.5324ZM52.496 53.2257L54.838 54.6755L55.8907 52.975L53.5487 51.5252L52.496 53.2257ZM51.183 54.2437L53.4134 53.2958L52.6312 51.4551L50.4007 52.4031L51.183 54.2437ZM51.1532 56.2234L51.7666 53.5468L49.8171 53.1L49.2037 55.7766L51.1532 56.2234ZM43.8216 57H50.1784V55H43.8216V57ZM42.2334 53.5468L42.8468 56.2234L44.7963 55.7766L44.1829 53.1L42.2334 53.5468ZM40.6063 53.3597L42.8368 54.2519L43.5796 52.3949L41.3491 51.5028L40.6063 53.3597ZM39.227 54.7256L41.5132 53.2757L40.4422 51.5867L38.1559 53.0365L39.227 54.7256ZM33.4676 50.0714L37.9843 54.5881L39.3986 53.1739L34.8818 48.6572L33.4676 50.0714ZM34.7743 46.4959L33.3245 48.838L35.025 49.8907L36.4748 47.5487L34.7743 46.4959ZM33.7562 45.183L34.7042 47.4134L36.5449 46.6312L35.5969 44.4007L33.7562 45.183ZM31.7766 45.1532L34.4532 45.7666L34.9 43.8171L32.2234 43.2037L31.7766 45.1532ZM31 37.8216V44.1784H33V37.8216H31ZM34.4532 36.2334L31.7766 36.8468L32.2234 38.7963L34.9 38.1829L34.4532 36.2334ZM34.6403 34.6063L33.7481 36.8368L35.6051 37.5796L36.4973 35.3491L34.6403 34.6063ZM33.2745 33.227L34.7243 35.5132L36.4133 34.4422L34.9635 32.1559L33.2745 33.227ZM37.9286 27.4676L33.4119 31.9843L34.8261 33.3986L39.3428 28.8818L37.9286 27.4676ZM41.5041 28.7743L39.162 27.3245L38.1093 29.025L40.4513 30.4748L41.5041 28.7743ZM42.817 27.7562L40.5866 28.7042L41.3688 30.5449L43.5993 29.5969L42.817 27.7562ZM42.8468 25.7766L42.2334 28.4532L44.1829 28.9L44.7963 26.2234L42.8468 25.7766ZM50.1784 25H43.8216V27H50.1784V25ZM51.7666 28.4532L51.1532 25.7766L49.2037 26.2234L49.8171 28.9L51.7666 28.4532ZM53.3937 28.6403L51.1632 27.7481L50.4204 29.6051L52.6509 30.4973L53.3937 28.6403ZM54.773 27.2745L52.4868 28.7243L53.5578 30.4133L55.8441 28.9635L54.773 27.2745ZM60.5324 31.9286L56.0157 27.4119L54.6014 28.8261L59.1182 33.3428L60.5324 31.9286ZM59.2257 35.504L60.6755 33.162L58.975 32.1093L57.5252 34.4513L59.2257 35.504ZM60.2438 36.817L59.2958 34.5866L57.4551 35.3688L58.4031 37.5993L60.2438 36.817ZM49.4615 41C49.4615 42.3595 48.3595 43.4615 47 43.4615V45.4615C49.464 45.4615 51.4615 43.464 51.4615 41H49.4615ZM47 38.5385C48.3595 38.5385 49.4615 39.6405 49.4615 41H51.4615C51.4615 38.536 49.464 36.5385 47 36.5385V38.5385ZM44.5385 41C44.5385 39.6405 45.6405 38.5385 47 38.5385V36.5385C44.536 36.5385 42.5385 38.536 42.5385 41H44.5385ZM47 43.4615C45.6405 43.4615 44.5385 42.3595 44.5385 41H42.5385C42.5385 43.464 44.536 45.4615 47 45.4615V43.4615Z" fill="#333333" mask="url(#path-2-inside-1_832_21421)"/>
<defs>
<linearGradient id="paint0_linear_832_21421" x1="47" y1="26" x2="47" y2="56" gradientUnits="userSpaceOnUse">
<stop stop-color="#FF8E3D"/>
<stop offset="1" stop-color="#FF6F3D"/>
</linearGradient>
</defs>
</svg>
