<svg width="32" height="32" viewBox="0 0 32 32" fill="none" xmlns="http://www.w3.org/2000/svg">
<path d="M12.652 30C12.5195 29.9999 12.3884 29.9734 12.2669 29.9221L8.9791 28.6C8.73677 28.5029 8.5447 28.3157 8.44592 28.0801C8.34832 27.8476 8.35257 27.5867 8.45769 27.3573L9.2407 25.5213C8.47016 24.9529 7.78263 24.2858 7.1969 23.5382L5.28705 24.3032C5.04915 24.3997 4.78127 24.3992 4.54372 24.302C4.3063 24.207 4.11735 24.0246 4.01821 23.7948L2.65662 20.5909C2.45035 20.1157 2.67798 19.5682 3.16636 19.3647C3.73138 19.1388 5.16121 18.3315 6.7096 17.8309C8.25799 17.3303 9.03218 18.0812 9.37802 19.0824C10.8478 23.3377 18.9281 25.4171 21.6773 20.0837C21.8272 19.793 22.2018 18.8366 22.6117 18.1291C22.9677 17.5806 23.4974 17.3173 24.4002 17.6959C25.3143 18.0793 26.4912 18.6017 27.034 18.8148L28.3845 19.3602C28.6248 19.4554 28.8152 19.6409 28.9123 19.8744C29.0096 20.1054 29.009 20.3644 28.9105 20.5949L27.5434 23.7929C27.4447 24.0267 27.2533 24.2122 27.0121 24.3076C26.7709 24.403 26.5003 24.4003 26.2611 24.3001L24.3641 23.5385C23.7794 24.2856 23.092 24.9516 22.3211 25.5179L23.1088 27.3688C23.2101 27.5953 23.2125 27.8519 23.1155 28.0801C23.0165 28.3163 22.8237 28.504 22.5805 28.6008L19.2876 29.9251C19.0491 30.022 18.7806 30.0223 18.5418 29.926C18.3031 29.8297 18.114 29.6448 18.0167 29.4124L17.2256 27.5642C16.2676 27.6938 15.2957 27.6952 14.3373 27.5682L13.5496 29.4147C13.4003 29.768 13.0457 29.9991 12.652 30Z" fill="#CCCCCC"/>
<path d="M12.652 30L12.6516 30.5L12.6532 30.5L12.652 30ZM12.2669 29.9221L12.4612 29.4613L12.4534 29.4582L12.2669 29.9221ZM8.9791 28.6L9.16565 28.1361L9.16501 28.1358L8.9791 28.6ZM8.44592 28.0801L8.90702 27.8867L8.90693 27.8865L8.44592 28.0801ZM8.45769 27.3573L8.91238 27.5657L8.91761 27.5535L8.45769 27.3573ZM9.2407 25.5213L9.70062 25.7175L9.85575 25.3537L9.53752 25.119L9.2407 25.5213ZM7.1969 23.5382L7.59048 23.2298L7.35915 22.9345L7.01096 23.074L7.1969 23.5382ZM5.28705 24.3032L5.10111 23.8391L5.09922 23.8399L5.28705 24.3032ZM4.54372 24.302L4.73309 23.8393L4.72952 23.8378L4.54372 24.302ZM4.01821 23.7948L3.55803 23.9904L3.5591 23.9929L4.01821 23.7948ZM2.65662 20.5909L3.1168 20.3953L3.11527 20.3918L2.65662 20.5909ZM3.16636 19.3647L2.98073 18.9003L2.97406 18.9031L3.16636 19.3647ZM21.6773 20.0837L22.1218 20.3128L21.6773 20.0837ZM27.034 18.8148L27.2212 18.3512L27.2167 18.3494L27.034 18.8148ZM28.3845 19.3602L28.1973 19.8239L28.2004 19.8251L28.3845 19.3602ZM28.9123 19.8744L28.4506 20.0664L28.4515 20.0685L28.9123 19.8744ZM28.9105 20.5949L29.3703 20.7915L29.3704 20.7913L28.9105 20.5949ZM27.5434 23.7929L27.0836 23.5963L27.0827 23.5985L27.5434 23.7929ZM27.0121 24.3076L27.196 24.7726L27.0121 24.3076ZM26.2611 24.3001L26.4545 23.8389L26.4474 23.8361L26.2611 24.3001ZM24.3641 23.5385L24.5503 23.0745L24.2018 22.9345L23.9703 23.2303L24.3641 23.5385ZM22.3211 25.5179L22.025 25.1149L21.7059 25.3493L21.861 25.7136L22.3211 25.5179ZM23.1088 27.3688L22.6486 27.5647L22.6524 27.573L23.1088 27.3688ZM23.1155 28.0801L22.6553 27.8845L22.6543 27.8869L23.1155 28.0801ZM22.5805 28.6008L22.3955 28.1363L22.3939 28.1369L22.5805 28.6008ZM19.2876 29.9251L19.101 29.4612L19.0994 29.4619L19.2876 29.9251ZM18.5418 29.926L18.7289 29.4623L18.5418 29.926ZM18.0167 29.4124L18.4779 29.2193L18.4763 29.2157L18.0167 29.4124ZM17.2256 27.5642L17.6852 27.3675L17.5355 27.0177L17.1585 27.0687L17.2256 27.5642ZM14.3373 27.5682L14.403 27.0725L14.0265 27.0226L13.8774 27.372L14.3373 27.5682ZM13.5496 29.4147L13.0897 29.2185L13.089 29.2201L13.5496 29.4147ZM24.4002 17.6959L24.2068 18.157L24.4002 17.6959ZM22.6117 18.1291L22.1923 17.8569L22.1854 17.8675L22.1791 17.8784L22.6117 18.1291ZM12.6525 29.5C12.5862 29.4999 12.5211 29.4866 12.4612 29.4614L12.0726 30.3828C12.2558 30.4601 12.4528 30.4998 12.6516 30.5L12.6525 29.5ZM12.4534 29.4582L9.16565 28.1361L8.79256 29.0639L12.0803 30.386L12.4534 29.4582ZM9.16501 28.1358C9.04389 28.0873 8.95276 27.9958 8.90702 27.8867L7.98482 28.2734C8.13664 28.6355 8.42964 28.9185 8.7932 29.0642L9.16501 28.1358ZM8.90693 27.8865C8.86353 27.7832 8.86534 27.6679 8.91222 27.5657L8.00316 27.149C7.83981 27.5054 7.83311 27.9121 7.98491 28.2737L8.90693 27.8865ZM8.91761 27.5535L9.70062 25.7175L8.78078 25.3252L7.99777 27.1612L8.91761 27.5535ZM9.53752 25.119C8.80303 24.5771 8.14813 23.9415 7.59048 23.2298L6.80331 23.8465C7.41714 24.63 8.13729 25.3287 8.94388 25.9237L9.53752 25.119ZM7.01096 23.074L5.10111 23.8391L5.47298 24.7674L7.38283 24.0023L7.01096 23.074ZM5.09922 23.8399C4.98231 23.8873 4.8498 23.887 4.73308 23.8393L4.35435 24.7648C4.71274 24.9114 5.116 24.9121 5.47487 24.7666L5.09922 23.8399ZM4.72952 23.8378C4.6118 23.7907 4.52284 23.7023 4.47731 23.5968L3.5591 23.9929C3.71185 24.3469 4.00079 24.6233 4.35791 24.7662L4.72952 23.8378ZM4.47838 23.5992L3.11679 20.3953L2.19645 20.7864L3.55804 23.9904L4.47838 23.5992ZM3.11527 20.3918C3.02415 20.1819 3.11838 19.9263 3.35866 19.8262L2.97406 18.9031C2.23757 19.21 1.87655 20.0496 2.19797 20.79L3.11527 20.3918ZM26.8467 19.2785L28.1973 19.8239L28.5717 18.8966L27.2212 18.3512L26.8467 19.2785ZM28.2004 19.8251C28.3182 19.8718 28.4067 19.9607 28.4507 20.0664L29.374 19.6825C29.2238 19.3212 28.9314 19.0391 28.5687 18.8954L28.2004 19.8251ZM28.4515 20.0685C28.4962 20.1746 28.4959 20.2926 28.4507 20.3986L29.3704 20.7913C29.522 20.4361 29.523 20.0363 29.3731 19.6803L28.4515 20.0685ZM28.4508 20.3984L27.0836 23.5963L28.0031 23.9894L29.3703 20.7915L28.4508 20.3984ZM27.0827 23.5985C27.0375 23.7056 26.9476 23.7954 26.8282 23.8427L27.196 24.7726C27.5589 24.629 27.852 24.3478 28.0041 23.9872L27.0827 23.5985ZM26.8282 23.8427C26.7083 23.8901 26.5731 23.8887 26.4545 23.839L26.0678 24.7612C26.4274 24.912 26.8334 24.916 27.196 24.7726L26.8282 23.8427ZM26.4474 23.8361L24.5503 23.0745L24.1778 24.0025L26.0749 24.7641L26.4474 23.8361ZM23.9703 23.2303C23.4139 23.9412 22.7595 24.5754 22.025 25.1149L22.6171 25.9208C23.4244 25.3278 24.1448 24.63 24.7578 23.8466L23.9703 23.2303ZM21.861 25.7136L22.6487 27.5646L23.5689 27.173L22.7811 25.3221L21.861 25.7136ZM22.6524 27.573C22.6969 27.6726 22.6979 27.7843 22.6553 27.8845L23.5756 28.2758C23.7271 27.9195 23.7233 27.518 23.5652 27.1647L22.6524 27.573ZM22.6543 27.8869C22.6085 27.9962 22.517 28.0879 22.3955 28.1363L22.7655 29.0653C23.1303 28.9201 23.4244 28.6365 23.5766 28.2734L22.6543 27.8869ZM22.3939 28.1369L19.101 29.4612L19.4742 30.389L22.7671 29.0647L22.3939 28.1369ZM19.0994 29.4619C18.9812 29.5099 18.8472 29.5101 18.7289 29.4623L18.3548 30.3897C18.7139 30.5346 19.117 30.5341 19.4758 30.3883L19.0994 29.4619ZM18.7289 29.4623C18.6109 29.4148 18.5223 29.3255 18.4779 29.2193L17.5555 29.6056C17.7056 29.9641 17.9953 30.2447 18.3548 30.3897L18.7289 29.4623ZM18.4763 29.2157L17.6852 27.3675L16.7659 27.761L17.557 29.6092L18.4763 29.2157ZM17.1585 27.0687C16.2446 27.1924 15.3173 27.1937 14.403 27.0725L14.2717 28.0639C15.2741 28.1967 16.2906 28.1953 17.2926 28.0597L17.1585 27.0687ZM13.8774 27.372L13.0897 29.2185L14.0095 29.6109L14.7972 27.7644L13.8774 27.372ZM13.089 29.2201C13.0205 29.3822 12.8512 29.4995 12.6509 29.5L12.6532 30.5C13.2403 30.4987 13.7801 30.1538 14.0102 29.6093L13.089 29.2201ZM27.9828 20.8021H27.9836V19.8021H27.9828V20.8021ZM24.2068 18.157C25.0996 18.5315 26.3038 19.0653 26.8512 19.2802L27.2167 18.3494C26.6785 18.1381 25.529 17.6272 24.5935 17.2348L24.2068 18.157ZM22.1218 20.3128C22.2046 20.1521 22.3504 19.8073 22.503 19.4678C22.6652 19.1071 22.8528 18.7104 23.0444 18.3798L22.1791 17.8784C21.9607 18.2553 21.756 18.6906 21.591 19.0576C21.4164 19.4459 21.2999 19.7246 21.2329 19.8546L22.1218 20.3128ZM23.0312 18.4013C23.1682 18.19 23.3039 18.086 23.4447 18.0437C23.588 18.0007 23.8224 17.9958 24.2068 18.157L24.5935 17.2348C24.0751 17.0174 23.5932 16.9549 23.157 17.086C22.7183 17.2178 22.4112 17.5196 22.1923 17.8569L23.0312 18.4013ZM3.35197 19.8289C3.65156 19.7092 4.19383 19.4301 4.78217 19.1532C5.3962 18.8641 6.11874 18.5474 6.86342 18.3066L6.55578 17.3551C5.75207 17.615 4.9855 17.9522 4.35626 18.2484C3.70134 18.5567 3.24618 18.7943 2.98075 18.9004L3.35197 19.8289ZM8.90542 19.2457C9.72004 21.6041 12.3075 23.2703 14.9731 23.6732C17.6678 24.0805 20.6219 23.2225 22.1218 20.3128L21.2329 19.8546C19.9836 22.2783 17.5228 23.0473 15.1226 22.6844C12.6933 22.3172 10.5058 20.816 9.85062 18.9192L8.90542 19.2457ZM6.86342 18.3066C7.54241 18.0871 7.96791 18.1654 8.24336 18.3257C8.53238 18.4938 8.75452 18.8088 8.90542 19.2457L9.85062 18.9192C9.65568 18.3548 9.3178 17.7938 8.74616 17.4613C8.16096 17.1209 7.42518 17.0741 6.55578 17.3551L6.86342 18.3066Z" fill="#444444"/>
<mask id="path-3-outside-1_467_17368" maskUnits="userSpaceOnUse" x="1.06445" y="2" width="31" height="19" fill="black">
<rect fill="white" x="1.06445" y="2" width="31" height="19"/>
<path d="M25.9548 19.0198H8.21445C4.8179 19.0198 2.06445 16.3558 2.06445 13.0696C2.06445 9.78339 4.8179 7.11939 8.21445 7.11939C8.25466 7.11939 8.29459 7.11962 8.33409 7.12049C9.46224 4.6179 12.0159 3 14.8379 3C17.6598 3 20.2135 4.6179 21.3416 7.12049C23.4832 7.16721 25.3978 8.42372 26.2346 10.3316C28.6585 10.4766 30.5249 12.4584 30.4493 14.807C30.3737 17.1555 28.3834 19.0211 25.9548 19.0198Z"/>
</mask>
<path d="M25.9548 19.0198H8.21445C4.8179 19.0198 2.06445 16.3558 2.06445 13.0696C2.06445 9.78339 4.8179 7.11939 8.21445 7.11939C8.25466 7.11939 8.29459 7.11962 8.33409 7.12049C9.46224 4.6179 12.0159 3 14.8379 3C17.6598 3 20.2135 4.6179 21.3416 7.12049C23.4832 7.16721 25.3978 8.42372 26.2346 10.3316C28.6585 10.4766 30.5249 12.4584 30.4493 14.807C30.3737 17.1555 28.3834 19.0211 25.9548 19.0198Z" fill="url(#paint0_linear_467_17368)"/>
<path d="M25.9548 19.0198L25.9554 18.0198H25.9548V19.0198ZM8.33409 7.12049L8.31208 8.12024L8.97375 8.13481L9.24574 7.53145L8.33409 7.12049ZM21.3416 7.12049L20.43 7.53145L20.6892 8.10649L21.3198 8.12025L21.3416 7.12049ZM26.2346 10.3316L25.3188 10.7333L25.5644 11.2933L26.1749 11.3299L26.2346 10.3316ZM25.9548 18.0198H8.21445V20.0198H25.9548V18.0198ZM8.21445 18.0198C5.3388 18.0198 3.06445 15.7727 3.06445 13.0696H1.06445C1.06445 16.939 4.297 20.0198 8.21445 20.0198V18.0198ZM3.06445 13.0696C3.06445 10.3665 5.3388 8.11939 8.21445 8.11939V6.11939C4.297 6.11939 1.06445 9.20023 1.06445 13.0696H3.06445ZM8.21445 8.11939C8.25133 8.11939 8.28305 8.1196 8.31208 8.12024L8.3561 6.12073C8.30613 6.11963 8.25799 6.11939 8.21445 6.11939V8.11939ZM9.24574 7.53145C10.2065 5.40021 12.395 4 14.8379 4V2C11.6369 2 8.71799 3.8356 7.42244 6.70952L9.24574 7.53145ZM14.8379 4C17.2808 4 19.4692 5.40021 20.43 7.53145L22.2533 6.70952C20.9577 3.8356 18.0388 2 14.8379 2V4ZM21.3198 8.12025C23.0866 8.15879 24.6439 9.19443 25.3188 10.7333L27.1504 9.93C26.1518 7.65301 23.8799 6.17562 21.3634 6.12072L21.3198 8.12025ZM26.1749 11.3299C28.0881 11.4443 29.5071 12.997 29.4499 14.7748L31.4488 14.8391C31.5428 11.9199 29.2289 9.50893 26.2943 9.33342L26.1749 11.3299ZM29.4499 14.7748C29.3926 16.5542 27.8739 18.0208 25.9554 18.0198L25.9543 20.0198C28.8929 20.0214 31.3549 17.7568 31.4488 14.8391L29.4499 14.7748Z" fill="#444444" mask="url(#path-3-outside-1_467_17368)"/>
<path fill-rule="evenodd" clip-rule="evenodd" d="M8.14142 15.792C8.23839 15.9224 8.39408 15.9998 8.55997 16C8.78217 16 8.97943 15.8622 9.04962 15.658L9.7922 13.5H11.4568L12.1994 15.658C12.2696 15.8622 12.4668 16 12.689 16C12.8549 15.9998 13.0106 15.9224 13.1076 15.792C13.2046 15.6616 13.231 15.4941 13.1787 15.3416L11.1156 9.34607C11.1135 9.33999 11.1114 9.33394 11.1091 9.32793C11.0818 9.25558 11.0388 9.19289 10.9851 9.14225C10.9381 9.09771 10.8816 9.06133 10.8173 9.03632C10.7567 9.01264 10.6913 8.99999 10.6245 9C10.5577 8.99999 10.4923 9.01264 10.4317 9.03632C10.3674 9.06133 10.3109 9.09771 10.2639 9.14225C10.2102 9.19289 10.1673 9.25558 10.1399 9.32793C10.1376 9.33395 10.1355 9.34001 10.1334 9.34611L8.07031 15.3416C8.018 15.4941 8.04445 15.6616 8.14142 15.792ZM11.1127 12.5H10.1363L10.6245 11.0813L11.1127 12.5ZM13.7213 15.4998C13.7213 15.776 13.9524 15.9998 14.2375 15.9998C14.5225 15.9998 14.7536 15.776 14.7536 15.4998V13H16.302C17.4422 13 18.3665 12.1046 18.3665 11.0001C18.3665 9.89562 17.4422 9.00024 16.302 9.00024H14.2375C13.9524 9.00024 13.7213 9.22408 13.7213 9.50021V12.5V15.4998ZM16.302 12.0001H14.7536V10.0002H16.302C16.8721 10.0002 17.3343 10.4479 17.3343 11.0001C17.3343 11.5524 16.8721 12.0001 16.302 12.0001ZM19.9149 14.9999V10.0002H18.8826C18.5976 10.0002 18.3665 9.77634 18.3665 9.50021C18.3665 9.22408 18.5976 9.00024 18.8826 9.00024H20.431H21.9794C22.2644 9.00024 22.4955 9.22408 22.4955 9.50021C22.4955 9.77634 22.2644 10.0002 21.9794 10.0002H20.9472V14.9999H21.9795C22.2645 14.9999 22.4956 15.2237 22.4956 15.4999C22.4956 15.776 22.2645 15.9998 21.9795 15.9998H18.8827C18.5976 15.9998 18.3665 15.776 18.3665 15.4999C18.3665 15.2237 18.5976 14.9999 18.8827 14.9999H19.9149Z" fill="#444444"/>
<defs>
<linearGradient id="paint0_linear_467_17368" x1="16.258" y1="3" x2="16.258" y2="19.0198" gradientUnits="userSpaceOnUse">
<stop stop-color="#FF8E3D"/>
<stop offset="1" stop-color="#FF6F3D"/>
</linearGradient>
</defs>
</svg>
