<svg width="32" height="32" viewBox="0 0 32 32" fill="none" xmlns="http://www.w3.org/2000/svg">
<path d="M12.652 29.9996C12.5195 29.9995 12.3884 29.973 12.2669 29.9217L8.9791 28.5996C8.73677 28.5026 8.5447 28.3153 8.44592 28.0797C8.34832 27.8473 8.35257 27.5863 8.45769 27.3569L9.2407 25.521C8.47016 24.9525 7.78263 24.2854 7.1969 23.5378L5.28705 24.3029C5.04915 24.3993 4.78127 24.3989 4.54372 24.3017C4.3063 24.2066 4.11735 24.0243 4.01821 23.7944L2.65662 20.5905C2.45035 20.1154 2.67798 19.5678 3.16636 19.3643C3.73138 19.1384 5.16121 18.3311 6.7096 17.8305C8.25799 17.3299 9.03218 18.0808 9.37802 19.0821C10.8478 23.3373 18.9281 25.4167 21.6773 20.0833C21.8272 19.7927 22.2018 18.8362 22.6117 18.1287C22.9677 17.5802 23.4974 17.317 24.4002 17.6956C25.3143 18.0789 26.4912 18.6013 27.034 18.8145L28.3845 19.3599C28.6248 19.4551 28.8152 19.6405 28.9123 19.8741C29.0096 20.1051 29.009 20.364 28.9105 20.5945L27.5434 23.7925C27.4447 24.0263 27.2533 24.2119 27.0121 24.3073C26.7709 24.4027 26.5003 24.4 26.2611 24.2997L24.3641 23.5381C23.7794 24.2852 23.092 24.9512 22.3211 25.5175L23.1088 27.3685C23.2101 27.5949 23.2125 27.8516 23.1155 28.0798C23.0165 28.316 22.8237 28.5036 22.5805 28.6005L19.2876 29.9247C19.0491 30.0216 18.7806 30.022 18.5418 29.9257C18.3031 29.8294 18.114 29.6444 18.0167 29.4121L17.2256 27.5638C16.2676 27.6935 15.2957 27.6948 14.3373 27.5678L13.5496 29.4143C13.4003 29.7677 13.0457 29.9987 12.652 29.9996Z" fill="#CCCCCC"/>
<path d="M12.652 29.9996L12.6516 30.4996L12.6532 30.4996L12.652 29.9996ZM12.2669 29.9217L12.4612 29.461L12.4534 29.4578L12.2669 29.9217ZM8.9791 28.5996L9.16565 28.1357L9.16501 28.1355L8.9791 28.5996ZM8.44592 28.0797L8.90702 27.8864L8.90693 27.8862L8.44592 28.0797ZM8.45769 27.3569L8.91238 27.5654L8.91761 27.5531L8.45769 27.3569ZM9.2407 25.521L9.70062 25.7171L9.85575 25.3533L9.53752 25.1186L9.2407 25.521ZM7.1969 23.5378L7.59048 23.2294L7.35915 22.9342L7.01096 23.0737L7.1969 23.5378ZM5.28705 24.3029L5.10111 23.8387L5.09922 23.8395L5.28705 24.3029ZM4.54372 24.3017L4.73309 23.8389L4.72952 23.8375L4.54372 24.3017ZM4.01821 23.7944L3.55803 23.99L3.5591 23.9925L4.01821 23.7944ZM2.65662 20.5905L3.1168 20.395L3.11527 20.3914L2.65662 20.5905ZM3.16636 19.3643L2.98073 18.9L2.97406 18.9028L3.16636 19.3643ZM6.7096 17.8305L6.86342 18.3063L6.7096 17.8305ZM9.37802 19.0821L9.85062 18.9188L9.37802 19.0821ZM21.6773 20.0833L21.2329 19.8542V19.8542L21.6773 20.0833ZM22.6117 18.1287L22.1923 17.8565L22.1854 17.8671L22.1791 17.8781L22.6117 18.1287ZM24.4002 17.6956L24.2068 18.1567V18.1567L24.4002 17.6956ZM27.034 18.8145L27.2212 18.3508L27.2167 18.3491L27.034 18.8145ZM28.3845 19.3599L28.1973 19.8235L28.2004 19.8247L28.3845 19.3599ZM28.9123 19.8741L28.4506 20.066L28.4515 20.0682L28.9123 19.8741ZM28.9105 20.5945L29.3703 20.7911L29.3704 20.7909L28.9105 20.5945ZM27.5434 23.7925L27.0836 23.596L27.0827 23.5982L27.5434 23.7925ZM27.0121 24.3073L26.8282 23.8423L27.0121 24.3073ZM26.2611 24.2997L26.4545 23.8386L26.4474 23.8357L26.2611 24.2997ZM24.3641 23.5381L24.5503 23.0741L24.2018 22.9342L23.9703 23.2299L24.3641 23.5381ZM22.3211 25.5175L22.025 25.1145L21.7059 25.3489L21.861 25.7133L22.3211 25.5175ZM23.1088 27.3685L22.6486 27.5643L22.6524 27.5726L23.1088 27.3685ZM23.1155 28.0798L22.6553 27.8841L22.6543 27.8865L23.1155 28.0798ZM22.5805 28.6005L22.3955 28.1359L22.3939 28.1366L22.5805 28.6005ZM19.2876 29.9247L19.101 29.4608L19.0994 29.4615L19.2876 29.9247ZM18.5418 29.9257L18.3548 30.3894L18.3548 30.3894L18.5418 29.9257ZM18.0167 29.4121L18.4779 29.2189L18.4763 29.2153L18.0167 29.4121ZM17.2256 27.5638L17.6852 27.3671L17.5355 27.0173L17.1585 27.0684L17.2256 27.5638ZM14.3373 27.5678L14.403 27.0721L14.0265 27.0223L13.8774 27.3716L14.3373 27.5678ZM13.5496 29.4143L13.0897 29.2181L13.089 29.2197L13.5496 29.4143ZM12.6525 29.4996C12.5862 29.4996 12.5211 29.4863 12.4612 29.461L12.0726 30.3824C12.2558 30.4597 12.4528 30.4994 12.6516 30.4996L12.6525 29.4996ZM12.4534 29.4578L9.16565 28.1357L8.79256 29.0635L12.0803 30.3856L12.4534 29.4578ZM9.16501 28.1355C9.0439 28.087 8.95276 27.9954 8.90702 27.8864L7.98482 28.2731C8.13664 28.6351 8.42964 28.9182 8.79319 29.0638L9.16501 28.1355ZM8.90693 27.8862C8.86353 27.7828 8.86534 27.6676 8.91222 27.5653L8.00317 27.1486C7.8398 27.505 7.83311 27.9118 7.98491 28.2733L8.90693 27.8862ZM8.91761 27.5531L9.70062 25.7171L8.78078 25.3248L7.99777 27.1608L8.91761 27.5531ZM9.53752 25.1186C8.80303 24.5768 8.14813 23.9412 7.59048 23.2294L6.80331 23.8462C7.41714 24.6296 8.13729 25.3283 8.94388 25.9233L9.53752 25.1186ZM7.01096 23.0737L5.10111 23.8387L5.47298 24.767L7.38283 24.0019L7.01096 23.0737ZM5.09922 23.8395C4.98231 23.8869 4.8498 23.8867 4.73308 23.8389L4.35435 24.7644C4.71274 24.9111 5.116 24.9117 5.47487 24.7663L5.09922 23.8395ZM4.72952 23.8375C4.6118 23.7903 4.52284 23.7019 4.47731 23.5964L3.5591 23.9925C3.71185 24.3466 4.00079 24.6229 4.35791 24.7659L4.72952 23.8375ZM4.47838 23.5989L3.11679 20.395L2.19645 20.7861L3.55804 23.99L4.47838 23.5989ZM3.11527 20.3914C3.02415 20.1815 3.11838 19.926 3.35866 19.8258L2.97406 18.9028C2.23757 19.2096 1.87655 20.0492 2.19797 20.7896L3.11527 20.3914ZM3.35197 19.8286C3.65156 19.7088 4.19383 19.4298 4.78217 19.1528C5.3962 18.8638 6.11874 18.547 6.86342 18.3063L6.55578 17.3548C5.75207 17.6146 4.9855 17.9518 4.35626 18.2481C3.70134 18.5564 3.24618 18.7939 2.98075 18.9L3.35197 19.8286ZM6.86342 18.3063C7.54241 18.0867 7.96791 18.1651 8.24336 18.3253C8.53238 18.4934 8.75452 18.8084 8.90542 19.2453L9.85062 18.9188C9.65568 18.3545 9.3178 17.7934 8.74616 17.4609C8.16096 17.1205 7.42518 17.0737 6.55578 17.3548L6.86342 18.3063ZM8.90542 19.2453C9.72004 21.6037 12.3075 23.2699 14.9731 23.6728C17.6678 24.0802 20.6219 23.2222 22.1218 20.3124L21.2329 19.8542C19.9836 22.2779 17.5228 23.0469 15.1226 22.6841C12.6933 22.3169 10.5058 20.8157 9.85062 18.9188L8.90542 19.2453ZM22.1218 20.3124C22.2046 20.1517 22.3504 19.8069 22.503 19.4674C22.6652 19.1067 22.8528 18.71 23.0444 18.3794L22.1791 17.8781C21.9607 18.255 21.756 18.6902 21.591 19.0573C21.4164 19.4455 21.2999 19.7243 21.2329 19.8542L22.1218 20.3124ZM23.0312 18.4009C23.1682 18.1897 23.3039 18.0856 23.4447 18.0433C23.588 18.0003 23.8224 17.9955 24.2068 18.1567L24.5935 17.2345C24.0751 17.0171 23.5932 16.9546 23.157 17.0856C22.7183 17.2174 22.4112 17.5193 22.1923 17.8565L23.0312 18.4009ZM24.2068 18.1567C25.0996 18.5311 26.3038 19.0649 26.8512 19.2799L27.2167 18.3491C26.6785 18.1377 25.529 17.6268 24.5935 17.2345L24.2068 18.1567ZM26.8467 19.2781L28.1973 19.8235L28.5717 18.8962L27.2212 18.3508L26.8467 19.2781ZM28.2004 19.8247C28.3182 19.8714 28.4067 19.9603 28.4507 20.066L29.374 19.6821C29.2238 19.3208 28.9314 19.0387 28.5687 18.895L28.2004 19.8247ZM28.4515 20.0682C28.4962 20.1742 28.4959 20.2923 28.4507 20.3982L29.3704 20.7909C29.522 20.4357 29.523 20.0359 29.3731 19.68L28.4515 20.0682ZM28.4508 20.398L27.0836 23.596L28.0031 23.989L29.3703 20.7911L28.4508 20.398ZM27.0827 23.5982C27.0375 23.7053 26.9476 23.7951 26.8282 23.8423L27.196 24.7722C27.5589 24.6286 27.852 24.3474 28.0041 23.9868L27.0827 23.5982ZM26.8282 23.8423C26.7083 23.8897 26.5731 23.8883 26.4545 23.8386L26.0678 24.7608C26.4274 24.9116 26.8334 24.9156 27.196 24.7722L26.8282 23.8423ZM26.4474 23.8357L24.5503 23.0741L24.1778 24.0021L26.0749 24.7637L26.4474 23.8357ZM23.9703 23.2299C23.4139 23.9409 22.7595 24.575 22.025 25.1145L22.6171 25.9205C23.4244 25.3274 24.1448 24.6296 24.7578 23.8463L23.9703 23.2299ZM21.861 25.7133L22.6487 27.5643L23.5689 27.1727L22.7811 25.3217L21.861 25.7133ZM22.6524 27.5726C22.6969 27.6722 22.6979 27.784 22.6553 27.8841L23.5756 28.2754C23.7271 27.9192 23.7233 27.5177 23.5652 27.1643L22.6524 27.5726ZM22.6543 27.8865C22.6085 27.9958 22.5171 28.0875 22.3955 28.1359L22.7655 29.065C23.1303 28.9197 23.4244 28.6361 23.5766 28.273L22.6543 27.8865ZM22.3939 28.1366L19.101 29.4609L19.4742 30.3886L22.7671 29.0643L22.3939 28.1366ZM19.0994 29.4615C18.9812 29.5095 18.8472 29.5097 18.7289 29.462L18.3548 30.3894C18.7139 30.5342 19.117 30.5337 19.4758 30.388L19.0994 29.4615ZM18.7289 29.462C18.6109 29.4144 18.5223 29.3251 18.4779 29.2189L17.5555 29.6052C17.7056 29.9638 17.9953 30.2443 18.3548 30.3894L18.7289 29.462ZM18.4763 29.2153L17.6852 27.3671L16.7659 27.7606L17.557 29.6088L18.4763 29.2153ZM17.1585 27.0684C16.2446 27.192 15.3173 27.1933 14.403 27.0721L14.2717 28.0635C15.2741 28.1963 16.2906 28.1949 17.2926 28.0593L17.1585 27.0684ZM13.8774 27.3716L13.0897 29.2181L14.0095 29.6105L14.7972 27.764L13.8774 27.3716ZM13.089 29.2197C13.0205 29.3819 12.8512 29.4992 12.6509 29.4996L12.6532 30.4996C13.2403 30.4983 13.7801 30.1535 14.0102 29.6089L13.089 29.2197Z" fill="#444444"/>
<mask id="path-3-outside-1_467_17368" maskUnits="userSpaceOnUse" x="1.06445" y="2" width="31" height="19" fill="black">
<rect fill="white" x="1.06445" y="2" width="31" height="19"/>
<path d="M25.9548 19.0198H8.21445C4.8179 19.0198 2.06445 16.3558 2.06445 13.0696C2.06445 9.78339 4.8179 7.11939 8.21445 7.11939C8.25466 7.11939 8.29459 7.11962 8.33409 7.12049C9.46224 4.6179 12.0159 3 14.8379 3C17.6598 3 20.2135 4.6179 21.3416 7.12049C23.4832 7.16721 25.3978 8.42372 26.2346 10.3316C28.6585 10.4766 30.5249 12.4584 30.4493 14.807C30.3737 17.1555 28.3834 19.0211 25.9548 19.0198Z"/>
</mask>
<path d="M25.9548 19.0198H8.21445C4.8179 19.0198 2.06445 16.3558 2.06445 13.0696C2.06445 9.78339 4.8179 7.11939 8.21445 7.11939C8.25466 7.11939 8.29459 7.11962 8.33409 7.12049C9.46224 4.6179 12.0159 3 14.8379 3C17.6598 3 20.2135 4.6179 21.3416 7.12049C23.4832 7.16721 25.3978 8.42372 26.2346 10.3316C28.6585 10.4766 30.5249 12.4584 30.4493 14.807C30.3737 17.1555 28.3834 19.0211 25.9548 19.0198Z" fill="url(#paint0_linear_467_17368)"/>
<path d="M25.9548 19.0198L25.9554 18.0198H25.9548V19.0198ZM8.33409 7.12049L8.31208 8.12024L8.97375 8.13481L9.24574 7.53145L8.33409 7.12049ZM21.3416 7.12049L20.43 7.53145L20.6892 8.10649L21.3198 8.12025L21.3416 7.12049ZM26.2346 10.3316L25.3188 10.7333L25.5644 11.2933L26.1749 11.3299L26.2346 10.3316ZM25.9548 18.0198H8.21445V20.0198H25.9548V18.0198ZM8.21445 18.0198C5.3388 18.0198 3.06445 15.7727 3.06445 13.0696H1.06445C1.06445 16.939 4.297 20.0198 8.21445 20.0198V18.0198ZM3.06445 13.0696C3.06445 10.3665 5.3388 8.11939 8.21445 8.11939V6.11939C4.297 6.11939 1.06445 9.20023 1.06445 13.0696H3.06445ZM8.21445 8.11939C8.25134 8.11939 8.28306 8.1196 8.31208 8.12024L8.35611 6.12073C8.30613 6.11963 8.25799 6.11939 8.21445 6.11939V8.11939ZM9.24574 7.53145C10.2065 5.40021 12.395 4 14.8379 4V2C11.6369 2 8.71799 3.8356 7.42244 6.70952L9.24574 7.53145ZM14.8379 4C17.2808 4 19.4692 5.40021 20.43 7.53145L22.2533 6.70952C20.9577 3.8356 18.0388 2 14.8379 2V4ZM21.3198 8.12025C23.0866 8.15879 24.6439 9.19443 25.3188 10.7333L27.1504 9.93C26.1518 7.65301 23.8799 6.17562 21.3634 6.12072L21.3198 8.12025ZM26.1749 11.3299C28.0881 11.4443 29.5071 12.997 29.4499 14.7748L31.4488 14.8391C31.5428 11.9199 29.2289 9.50893 26.2943 9.33342L26.1749 11.3299ZM29.4499 14.7748C29.3926 16.5542 27.8739 18.0208 25.9554 18.0198L25.9543 20.0198C28.8929 20.0214 31.3549 17.7568 31.4488 14.8391L29.4499 14.7748Z" fill="#444444" mask="url(#path-3-outside-1_467_17368)"/>
<path fill-rule="evenodd" clip-rule="evenodd" d="M8.14142 15.792C8.23839 15.9224 8.39408 15.9998 8.55997 16C8.78217 16 8.97943 15.8622 9.04962 15.658L9.7922 13.5H11.4568L12.1994 15.658C12.2696 15.8622 12.4668 16 12.689 16C12.8549 15.9998 13.0106 15.9224 13.1076 15.792C13.2046 15.6616 13.231 15.4941 13.1787 15.3416L11.1156 9.34608C11.1135 9.33999 11.1114 9.33394 11.1091 9.32793C11.0818 9.25558 11.0388 9.19289 10.9851 9.14225C10.9381 9.09771 10.8816 9.06133 10.8173 9.03632C10.7567 9.01264 10.6913 8.99999 10.6245 9C10.5577 8.99999 10.4923 9.01264 10.4317 9.03632C10.3674 9.06133 10.3109 9.09771 10.2639 9.14225C10.2102 9.19289 10.1673 9.25558 10.1399 9.32793C10.1376 9.33396 10.1355 9.34002 10.1334 9.34613L8.07031 15.3416C8.018 15.4941 8.04445 15.6616 8.14142 15.792ZM11.1127 12.5H10.1363L10.6245 11.0813L11.1127 12.5ZM13.7213 15.4998C13.7213 15.776 13.9524 15.9998 14.2375 15.9998C14.5225 15.9998 14.7536 15.776 14.7536 15.4998V13H16.302C17.4422 13 18.3665 12.1046 18.3665 11.0001C18.3665 9.89562 17.4422 9.00024 16.302 9.00024H14.2375C13.9524 9.00024 13.7213 9.22408 13.7213 9.50021V12.5V15.4998ZM16.302 12.0001H14.7536V10.0002H16.302C16.8721 10.0002 17.3343 10.4479 17.3343 11.0001C17.3343 11.5524 16.8721 12.0001 16.302 12.0001ZM19.9149 14.9999V10.0002H18.8826C18.5976 10.0002 18.3665 9.77634 18.3665 9.50021C18.3665 9.22408 18.5976 9.00024 18.8826 9.00024H20.431H21.9794C22.2645 9.00024 22.4955 9.22408 22.4955 9.50021C22.4955 9.77634 22.2645 10.0002 21.9794 10.0002H20.9472V14.9999H21.9795C22.2645 14.9999 22.4956 15.2237 22.4956 15.4999C22.4956 15.776 22.2645 15.9998 21.9795 15.9998H18.8827C18.5976 15.9998 18.3665 15.776 18.3665 15.4999C18.3665 15.2237 18.5976 14.9999 18.8827 14.9999H19.9149Z" fill="#444444"/>
<defs>
<linearGradient id="paint0_linear_467_17368" x1="16.258" y1="3" x2="16.258" y2="19.0198" gradientUnits="userSpaceOnUse">
<stop stop-color="#FF8E3D"/>
<stop offset="1" stop-color="#FF6F3D"/>
</linearGradient>
</defs>
</svg>
