<svg width="33" height="32" viewBox="0 0 33 32" fill="none" xmlns="http://www.w3.org/2000/svg">
<path d="M2.79315 29.2999H29.6069C30.5137 29.2999 31.1 28.4433 31.1 27.5999C31.1 26.7565 30.5137 25.8999 29.6069 25.8999H2.79315C1.88642 25.8999 1.30005 26.7565 1.30005 27.5999C1.30005 28.4433 1.88642 29.2999 2.79315 29.2999Z" fill="#CCCCCC" stroke="#333333" stroke-miterlimit="10" stroke-linecap="round" stroke-linejoin="round"/>
<path d="M3.90002 12.8999C3.90002 11.7953 4.79546 10.8999 5.90002 10.8999H26.5C27.6046 10.8999 28.5 11.7953 28.5 12.8999V25.8999H3.90002V12.8999Z" fill="#CCCCCC" stroke="#333333"/>
<mask id="path-3-inside-1_86_20417" fill="white">
<path fill-rule="evenodd" clip-rule="evenodd" d="M19 8.26226V11.7373L17.5725 12.0727L17.0967 13.292L17.8699 14.5418L15.461 17.011L14.2119 16.2184L13.0223 16.7366L12.6952 18.1998H9.30483L8.9777 16.7366L7.7881 16.2489L6.56877 17.0414L4.15985 14.5723L4.93309 13.292L4.42751 12.0727L3 11.7373V8.26226L4.42751 7.92694L4.90335 6.70761L4.13011 5.4578L6.53903 2.98865L7.7881 3.78122L8.9777 3.263L9.30483 1.7998H12.6952L13.0223 3.263L14.2119 3.75073L15.4312 2.95817L17.8401 5.42731L17.0669 6.70761L17.5725 7.92694L19 8.26226ZM10.9842 12.5893C12.5335 12.5893 13.7895 11.3333 13.7895 9.78403C13.7895 8.23473 12.5335 6.97877 10.9842 6.97877C9.4349 6.97877 8.17894 8.23473 8.17894 9.78403C8.17894 11.3333 9.4349 12.5893 10.9842 12.5893Z"/>
</mask>
<path fill-rule="evenodd" clip-rule="evenodd" d="M19 8.26226V11.7373L17.5725 12.0727L17.0967 13.292L17.8699 14.5418L15.461 17.011L14.2119 16.2184L13.0223 16.7366L12.6952 18.1998H9.30483L8.9777 16.7366L7.7881 16.2489L6.56877 17.0414L4.15985 14.5723L4.93309 13.292L4.42751 12.0727L3 11.7373V8.26226L4.42751 7.92694L4.90335 6.70761L4.13011 5.4578L6.53903 2.98865L7.7881 3.78122L8.9777 3.263L9.30483 1.7998H12.6952L13.0223 3.263L14.2119 3.75073L15.4312 2.95817L17.8401 5.42731L17.0669 6.70761L17.5725 7.92694L19 8.26226ZM10.9842 12.5893C12.5335 12.5893 13.7895 11.3333 13.7895 9.78403C13.7895 8.23473 12.5335 6.97877 10.9842 6.97877C9.4349 6.97877 8.17894 8.23473 8.17894 9.78403C8.17894 11.3333 9.4349 12.5893 10.9842 12.5893Z" fill="#9ADAF3"/>
<path d="M19 11.7373L19.2287 12.7109L20 12.5297V11.7373H19ZM19 8.26226H20V7.46994L19.2287 7.28875L19 8.26226ZM17.5725 12.0727L17.3438 11.0992L16.832 11.2194L16.6409 11.7091L17.5725 12.0727ZM17.0967 13.292L16.1651 12.9285L15.9836 13.3936L16.2462 13.8181L17.0967 13.292ZM17.8699 14.5418L18.5857 15.2401L19.1316 14.6805L18.7203 14.0157L17.8699 14.5418ZM15.461 17.011L14.9252 17.8553L15.6102 18.29L16.1767 17.7093L15.461 17.011ZM14.2119 16.2184L14.7477 15.374L14.2993 15.0895L13.8125 15.3016L14.2119 16.2184ZM13.0223 16.7366L12.6229 15.8198L12.1572 16.0227L12.0464 16.5184L13.0223 16.7366ZM12.6952 18.1998V19.1998H13.4963L13.6711 18.418L12.6952 18.1998ZM9.30483 18.1998L8.32893 18.418L8.50372 19.1998H9.30483V18.1998ZM8.9777 16.7366L9.9536 16.5184L9.83977 16.0093L9.35705 15.8114L8.9777 16.7366ZM7.7881 16.2489L8.16746 15.3236L7.68254 15.1248L7.24312 15.4104L7.7881 16.2489ZM6.56877 17.0414L5.85299 17.7398L6.4259 18.327L7.11376 17.8799L6.56877 17.0414ZM4.15985 14.5723L3.30385 14.0553L2.90412 14.7172L3.44407 15.2706L4.15985 14.5723ZM4.93309 13.292L5.78908 13.809L6.05051 13.3761L5.85683 12.909L4.93309 13.292ZM4.42751 12.0727L5.35125 11.6897L5.155 11.2163L4.65618 11.0992L4.42751 12.0727ZM3 11.7373H2V12.5297L2.77133 12.7109L3 11.7373ZM3 8.26226L2.77133 7.28875L2 7.46994V8.26226H3ZM4.42751 7.92694L4.65618 8.90044L5.16797 8.78023L5.35909 8.29048L4.42751 7.92694ZM4.90335 6.70761L5.83492 7.07115L6.01643 6.60605L5.75375 6.18148L4.90335 6.70761ZM4.13011 5.4578L3.41433 4.75947L2.86838 5.31907L3.27971 5.98393L4.13011 5.4578ZM6.53903 2.98865L7.0748 2.14429L6.38979 1.70963L5.82325 2.29033L6.53903 2.98865ZM7.7881 3.78122L7.25234 4.62558L7.70068 4.91007L8.18748 4.698L7.7881 3.78122ZM8.9777 3.263L9.37707 4.17979L9.84277 3.97692L9.9536 3.48119L8.9777 3.263ZM9.30483 1.7998V0.799805H8.50372L8.32893 1.58161L9.30483 1.7998ZM12.6952 1.7998L13.6711 1.58161L13.4963 0.799805H12.6952V1.7998ZM13.0223 3.263L12.0464 3.48119L12.1602 3.99034L12.643 4.18825L13.0223 3.263ZM14.2119 3.75073L13.8325 4.67599L14.3175 4.8748L14.7569 4.58918L14.2119 3.75073ZM15.4312 2.95817L16.147 2.25985L15.5741 1.67261L14.8862 2.11973L15.4312 2.95817ZM17.8401 5.42731L18.6961 5.94429L19.0959 5.28243L18.5559 4.72899L17.8401 5.42731ZM17.0669 6.70761L16.2109 6.19063L15.9495 6.6235L16.1432 7.09063L17.0669 6.70761ZM17.5725 7.92694L16.6487 8.30996L16.845 8.78327L17.3438 8.90044L17.5725 7.92694ZM20 11.7373V8.26226H18V11.7373H20ZM17.8012 13.0462L19.2287 12.7109L18.7713 10.7638L17.3438 11.0992L17.8012 13.0462ZM18.0282 13.6555L18.5041 12.4362L16.6409 11.7091L16.1651 12.9285L18.0282 13.6555ZM18.7203 14.0157L17.9471 12.7659L16.2462 13.8181L17.0195 15.0679L18.7203 14.0157ZM16.1767 17.7093L18.5857 15.2401L17.1541 13.8435L14.7452 16.3126L16.1767 17.7093ZM13.6761 17.0628L14.9252 17.8553L15.9967 16.1666L14.7477 15.374L13.6761 17.0628ZM13.4217 17.6534L14.6113 17.1352L13.8125 15.3016L12.6229 15.8198L13.4217 17.6534ZM13.6711 18.418L13.9982 16.9548L12.0464 16.5184L11.7193 17.9816L13.6711 18.418ZM9.30483 19.1998H12.6952V17.1998H9.30483V19.1998ZM8.00179 16.9548L8.32893 18.418L10.2807 17.9816L9.9536 16.5184L8.00179 16.9548ZM7.40875 17.1741L8.59834 17.6619L9.35705 15.8114L8.16746 15.3236L7.40875 17.1741ZM7.11376 17.8799L8.33309 17.0873L7.24312 15.4104L6.02378 16.203L7.11376 17.8799ZM3.44407 15.2706L5.85299 17.7398L7.28456 16.3431L4.87563 13.874L3.44407 15.2706ZM4.07709 12.775L3.30385 14.0553L5.01585 15.0893L5.78908 13.809L4.07709 12.775ZM3.50377 12.4557L4.00934 13.675L5.85683 12.909L5.35125 11.6897L3.50377 12.4557ZM2.77133 12.7109L4.19884 13.0462L4.65618 11.0992L3.22867 10.7638L2.77133 12.7109ZM2 8.26226V11.7373H4V8.26226H2ZM4.19884 6.95344L2.77133 7.28875L3.22867 9.23576L4.65618 8.90044L4.19884 6.95344ZM3.97177 6.34407L3.49593 7.5634L5.35909 8.29048L5.83492 7.07115L3.97177 6.34407ZM3.27971 5.98393L4.05294 7.23374L5.75375 6.18148L4.98052 4.93167L3.27971 5.98393ZM5.82325 2.29033L3.41433 4.75947L4.84589 6.15612L7.25482 3.68698L5.82325 2.29033ZM8.32387 2.93685L7.0748 2.14429L6.00326 3.83302L7.25234 4.62558L8.32387 2.93685ZM8.57832 2.34621L7.38873 2.86443L8.18748 4.698L9.37707 4.17979L8.57832 2.34621ZM8.32893 1.58161L8.00179 3.04481L9.9536 3.48119L10.2807 2.018L8.32893 1.58161ZM12.6952 0.799805H9.30483V2.7998H12.6952V0.799805ZM13.9982 3.04481L13.6711 1.58161L11.7193 2.01799L12.0464 3.48119L13.9982 3.04481ZM14.5912 2.82548L13.4017 2.33775L12.643 4.18825L13.8325 4.67599L14.5912 2.82548ZM14.8862 2.11973L13.6669 2.91229L14.7569 4.58918L15.9762 3.79661L14.8862 2.11973ZM18.5559 4.72899L16.147 2.25985L14.7154 3.65649L17.1244 6.12564L18.5559 4.72899ZM17.9229 7.22459L18.6961 5.94429L16.9842 4.91033L16.2109 6.19063L17.9229 7.22459ZM18.4962 7.54393L17.9907 6.32459L16.1432 7.09063L16.6487 8.30996L18.4962 7.54393ZM19.2287 7.28875L17.8012 6.95344L17.3438 8.90044L18.7713 9.23576L19.2287 7.28875ZM12.7895 9.78403C12.7895 10.7811 11.9812 11.5893 10.9842 11.5893V13.5893C13.0858 13.5893 14.7895 11.8856 14.7895 9.78403H12.7895ZM10.9842 7.97877C11.9812 7.97877 12.7895 8.78701 12.7895 9.78403H14.7895C14.7895 7.68244 13.0858 5.97877 10.9842 5.97877V7.97877ZM9.17894 9.78403C9.17894 8.78701 9.98719 7.97877 10.9842 7.97877V5.97877C8.88262 5.97877 7.17894 7.68244 7.17894 9.78403H9.17894ZM10.9842 11.5893C9.98719 11.5893 9.17894 10.7811 9.17894 9.78403H7.17894C7.17894 11.8856 8.88262 13.5893 10.9842 13.5893V11.5893Z" fill="#333333" mask="url(#path-3-inside-1_86_20417)"/>
<mask id="path-5-inside-2_86_20417" fill="white">
<path fill-rule="evenodd" clip-rule="evenodd" d="M31.6667 17.1161V19.8672L30.5366 20.1327L30.1599 21.098L30.772 22.0874L28.8649 24.0422L27.8761 23.4147L26.9343 23.825L26.6753 24.9833H23.9913L23.7323 23.825L22.7906 23.4388L21.8253 24.0663L19.9182 22.1116L20.5304 21.098L20.1301 20.1327L19 19.8672V17.1161L20.1301 16.8507L20.5068 15.8853L19.8947 14.8959L21.8017 12.9412L22.7906 13.5686L23.7323 13.1584L23.9913 12H26.6753L26.9343 13.1584L27.8761 13.5445L28.8414 12.917L30.7485 14.8718L30.1363 15.8853L30.5366 16.8507L31.6667 17.1161ZM25.3208 20.5417C26.5474 20.5417 27.5417 19.5474 27.5417 18.3208C27.5417 17.0943 26.5474 16.1 25.3208 16.1C24.0943 16.1 23.1 17.0943 23.1 18.3208C23.1 19.5474 24.0943 20.5417 25.3208 20.5417Z"/>
</mask>
<path fill-rule="evenodd" clip-rule="evenodd" d="M31.6667 17.1161V19.8672L30.5366 20.1327L30.1599 21.098L30.772 22.0874L28.8649 24.0422L27.8761 23.4147L26.9343 23.825L26.6753 24.9833H23.9913L23.7323 23.825L22.7906 23.4388L21.8253 24.0663L19.9182 22.1116L20.5304 21.098L20.1301 20.1327L19 19.8672V17.1161L20.1301 16.8507L20.5068 15.8853L19.8947 14.8959L21.8017 12.9412L22.7906 13.5686L23.7323 13.1584L23.9913 12H26.6753L26.9343 13.1584L27.8761 13.5445L28.8414 12.917L30.7485 14.8718L30.1363 15.8853L30.5366 16.8507L31.6667 17.1161ZM25.3208 20.5417C26.5474 20.5417 27.5417 19.5474 27.5417 18.3208C27.5417 17.0943 26.5474 16.1 25.3208 16.1C24.0943 16.1 23.1 17.0943 23.1 18.3208C23.1 19.5474 24.0943 20.5417 25.3208 20.5417Z" fill="url(#paint0_linear_86_20417)"/>
<path d="M31.6667 19.8672L31.8953 20.8407L32.6667 20.6595V19.8672H31.6667ZM31.6667 17.1161H32.6667V16.3238L31.8953 16.1426L31.6667 17.1161ZM30.5366 20.1327L30.3079 19.1592L29.7961 19.2794L29.605 19.7691L30.5366 20.1327ZM30.1599 21.098L29.2283 20.7344L29.0468 21.1995L29.3094 21.6241L30.1599 21.098ZM30.772 22.0874L31.4878 22.7857L32.0337 22.2261L31.6224 21.5613L30.772 22.0874ZM28.8649 24.0422L28.3292 24.8865L29.0142 25.3212L29.5807 24.7405L28.8649 24.0422ZM27.8761 23.4147L28.4119 22.5704L27.9635 22.2859L27.4767 22.4979L27.8761 23.4147ZM26.9343 23.825L26.5349 22.9082L26.0693 23.111L25.9584 23.6068L26.9343 23.825ZM26.6753 24.9833V25.9833H27.4765L27.6512 25.2015L26.6753 24.9833ZM23.9913 24.9833L23.0154 25.2015L23.1902 25.9833H23.9913V24.9833ZM23.7323 23.825L24.7082 23.6068L24.5944 23.0976L24.1117 22.8997L23.7323 23.825ZM22.7906 23.4388L23.1699 22.5136L22.685 22.3148L22.2456 22.6004L22.7906 23.4388ZM21.8253 24.0663L21.1095 24.7646L21.6824 25.3519L22.3703 24.9047L21.8253 24.0663ZM19.9182 22.1116L19.0622 21.5946L18.6625 22.2564L19.2024 22.8099L19.9182 22.1116ZM20.5304 21.098L21.3864 21.615L21.6478 21.1821L21.4541 20.715L20.5304 21.098ZM20.1301 20.1327L21.0539 19.7497L20.8576 19.2763L20.3588 19.1592L20.1301 20.1327ZM19 19.8672H18V20.6595L18.7713 20.8407L19 19.8672ZM19 17.1161L18.7713 16.1426L18 16.3238V17.1161H19ZM20.1301 16.8507L20.3588 17.8242L20.8706 17.7039L21.0617 17.2142L20.1301 16.8507ZM20.5068 15.8853L21.4384 16.2489L21.6199 15.7838L21.3572 15.3592L20.5068 15.8853ZM19.8947 14.8959L19.1789 14.1976L18.6329 14.7572L19.0443 15.422L19.8947 14.8959ZM21.8017 12.9412L22.3375 12.0968L21.6525 11.6621L21.086 12.2428L21.8017 12.9412ZM22.7906 13.5686L22.2548 14.413L22.7032 14.6975L23.19 14.4854L22.7906 13.5686ZM23.7323 13.1584L24.1317 14.0752L24.5974 13.8723L24.7082 13.3766L23.7323 13.1584ZM23.9913 12V11H23.1902L23.0154 11.7818L23.9913 12ZM26.6753 12L27.6512 11.7818L27.4765 11H26.6753V12ZM26.9343 13.1584L25.9584 13.3766L26.0723 13.8857L26.555 14.0836L26.9343 13.1584ZM27.8761 13.5445L27.4967 14.4697L27.9816 14.6686L28.4211 14.3829L27.8761 13.5445ZM28.8414 12.917L29.5572 12.2187L28.9843 11.6315L28.2964 12.0786L28.8414 12.917ZM30.7485 14.8718L31.6044 15.3888L32.0042 14.7269L31.4642 14.1735L30.7485 14.8718ZM30.1363 15.8853L29.2803 15.3684L29.0189 15.8012L29.2126 16.2684L30.1363 15.8853ZM30.5366 16.8507L29.6128 17.2337L29.8091 17.707L30.3079 17.8242L30.5366 16.8507ZM32.6667 19.8672V17.1161H30.6667V19.8672H32.6667ZM30.7652 21.1062L31.8953 20.8407L31.438 18.8937L30.3079 19.1592L30.7652 21.1062ZM31.0914 21.4615L31.4681 20.4962L29.605 19.7691L29.2283 20.7344L31.0914 21.4615ZM31.6224 21.5613L31.0103 20.5719L29.3094 21.6241L29.9216 22.6136L31.6224 21.5613ZM29.5807 24.7405L31.4878 22.7857L30.0562 21.3891L28.1491 23.3438L29.5807 24.7405ZM27.3403 24.2591L28.3292 24.8865L29.4007 23.1978L28.4119 22.5704L27.3403 24.2591ZM27.3337 24.7418L28.2755 24.3315L27.4767 22.4979L26.5349 22.9082L27.3337 24.7418ZM27.6512 25.2015L27.9102 24.0432L25.9584 23.6068L25.6994 24.7651L27.6512 25.2015ZM23.9913 25.9833H26.6753V23.9833H23.9913V25.9833ZM22.7564 24.0432L23.0154 25.2015L24.9672 24.7651L24.7082 23.6068L22.7564 24.0432ZM22.4112 24.3641L23.353 24.7502L24.1117 22.8997L23.1699 22.5136L22.4112 24.3641ZM22.3703 24.9047L23.3356 24.2773L22.2456 22.6004L21.2803 23.2279L22.3703 24.9047ZM19.2024 22.8099L21.1095 24.7646L22.5411 23.368L20.634 21.4132L19.2024 22.8099ZM19.6744 20.581L19.0622 21.5946L20.7742 22.6285L21.3864 21.615L19.6744 20.581ZM19.2064 20.5157L19.6066 21.481L21.4541 20.715L21.0539 19.7497L19.2064 20.5157ZM18.7713 20.8407L19.9014 21.1062L20.3588 19.1592L19.2287 18.8937L18.7713 20.8407ZM18 17.1161V19.8672H20V17.1161H18ZM19.9014 15.8771L18.7713 16.1426L19.2287 18.0896L20.3588 17.8242L19.9014 15.8771ZM19.5752 15.5218L19.1985 16.4871L21.0617 17.2142L21.4384 16.2489L19.5752 15.5218ZM19.0443 15.422L19.6564 16.4115L21.3572 15.3592L20.7451 14.3698L19.0443 15.422ZM21.086 12.2428L19.1789 14.1976L20.6105 15.5942L22.5175 13.6395L21.086 12.2428ZM23.3264 12.7243L22.3375 12.0968L21.266 13.7855L22.2548 14.413L23.3264 12.7243ZM23.333 12.2416L22.3912 12.6518L23.19 14.4854L24.1317 14.0752L23.333 12.2416ZM23.0154 11.7818L22.7564 12.9402L24.7082 13.3766L24.9672 12.2182L23.0154 11.7818ZM26.6753 11H23.9913V13H26.6753V11ZM27.9102 12.9402L27.6512 11.7818L25.6994 12.2182L25.9584 13.3766L27.9102 12.9402ZM28.2554 12.6192L27.3137 12.2331L26.555 14.0836L27.4967 14.4697L28.2554 12.6192ZM28.2964 12.0786L27.3311 12.706L28.4211 14.3829L29.3864 13.7555L28.2964 12.0786ZM31.4642 14.1735L29.5572 12.2187L28.1256 13.6154L30.0327 15.5701L31.4642 14.1735ZM30.9923 16.4023L31.6044 15.3888L29.8925 14.3548L29.2803 15.3684L30.9923 16.4023ZM31.4603 16.4676L31.06 15.5023L29.2126 16.2684L29.6128 17.2337L31.4603 16.4676ZM31.8953 16.1426L30.7652 15.8771L30.3079 17.8242L31.438 18.0896L31.8953 16.1426ZM26.5417 18.3208C26.5417 18.9951 25.9951 19.5417 25.3208 19.5417V21.5417C27.0996 21.5417 28.5417 20.0996 28.5417 18.3208H26.5417ZM25.3208 17.1C25.9951 17.1 26.5417 17.6466 26.5417 18.3208H28.5417C28.5417 16.542 27.0996 15.1 25.3208 15.1V17.1ZM24.1 18.3208C24.1 17.6466 24.6466 17.1 25.3208 17.1V15.1C23.542 15.1 22.1 16.542 22.1 18.3208H24.1ZM25.3208 19.5417C24.6466 19.5417 24.1 18.9951 24.1 18.3208H22.1C22.1 20.0996 23.542 21.5417 25.3208 21.5417V19.5417Z" fill="#333333" mask="url(#path-5-inside-2_86_20417)"/>
<defs>
<linearGradient id="paint0_linear_86_20417" x1="19" y1="11.4928" x2="31.9917" y2="24.6627" gradientUnits="userSpaceOnUse">
<stop stop-color="#FF8E3D"/>
<stop offset="1" stop-color="#FF6F3D"/>
</linearGradient>
</defs>
</svg>
