<svg width="32" height="32" viewBox="0 0 32 32" fill="none" xmlns="http://www.w3.org/2000/svg">
<path d="M2.96552 29.5H29.0345C29.8581 29.5 30.5 28.8095 30.5 28C30.5 27.1905 29.8581 26.5 29.0345 26.5H2.96552C2.14195 26.5 1.5 27.1905 1.5 28C1.5 28.8095 2.14195 29.5 2.96552 29.5Z" fill="#EFEFEF" stroke="#333333" stroke-miterlimit="10" stroke-linecap="round" stroke-linejoin="round"/>
<path d="M4.5 12.5C4.5 11.3954 5.39543 10.5 6.5 10.5H26.5C27.6046 10.5 28.5 11.3954 28.5 12.5V26.5H4.5V12.5Z" fill="#F5F5F5" stroke="#333333"/>
<mask id="path-3-inside-1_812_37515" fill="white">
<path fill-rule="evenodd" clip-rule="evenodd" d="M29.8401 15.8569L31 16.1227V18.8773L29.8401 19.1431L29.4535 20.1097L30.0818 21.1004L28.1245 23.0576L27.1097 22.4294L26.1431 22.8401L25.8773 24H23.1227L22.8569 22.8401L21.8903 22.4535L20.8996 23.0818L18.9424 21.1245L19.5706 20.1097L19.1599 19.1431L18 18.8773V16.1227L19.1599 15.8569L19.5465 14.8903L18.9182 13.8996L20.8755 11.9424L21.8903 12.5706L22.8569 12.1599L23.1227 11H25.8773L26.1431 12.1599L27.1097 12.5465L28.1004 11.9182L30.0576 13.8755L29.4294 14.8903L29.8401 15.8569ZM24.5 19C25.3284 19 26 18.3284 26 17.5C26 16.6716 25.3284 16 24.5 16C23.6716 16 23 16.6716 23 17.5C23 18.3284 23.6716 19 24.5 19Z"/>
</mask>
<path fill-rule="evenodd" clip-rule="evenodd" d="M29.8401 15.8569L31 16.1227V18.8773L29.8401 19.1431L29.4535 20.1097L30.0818 21.1004L28.1245 23.0576L27.1097 22.4294L26.1431 22.8401L25.8773 24H23.1227L22.8569 22.8401L21.8903 22.4535L20.8996 23.0818L18.9424 21.1245L19.5706 20.1097L19.1599 19.1431L18 18.8773V16.1227L19.1599 15.8569L19.5465 14.8903L18.9182 13.8996L20.8755 11.9424L21.8903 12.5706L22.8569 12.1599L23.1227 11H25.8773L26.1431 12.1599L27.1097 12.5465L28.1004 11.9182L30.0576 13.8755L29.4294 14.8903L29.8401 15.8569ZM24.5 19C25.3284 19 26 18.3284 26 17.5C26 16.6716 25.3284 16 24.5 16C23.6716 16 23 16.6716 23 17.5C23 18.3284 23.6716 19 24.5 19Z" fill="url(#paint0_linear_812_37515)"/>
<path d="M31 16.1227H32V15.3259L31.2234 15.1479L31 16.1227ZM29.8401 15.8569L28.9198 16.248L29.1194 16.7176L29.6168 16.8316L29.8401 15.8569ZM31 18.8773L31.2234 19.8521L32 19.6741V18.8773H31ZM29.8401 19.1431L29.6168 18.1684L29.1062 18.2854L28.9117 18.7717L29.8401 19.1431ZM29.4535 20.1097L28.5251 19.7383L28.3351 20.2132L28.609 20.6452L29.4535 20.1097ZM30.0818 21.1004L30.7889 21.8075L31.3552 21.2412L30.9263 20.5648L30.0818 21.1004ZM28.1245 23.0576L27.5982 23.9079L28.2716 24.3248L28.8316 23.7647L28.1245 23.0576ZM27.1097 22.4294L27.636 21.5791L27.1954 21.3064L26.7185 21.509L27.1097 22.4294ZM26.1431 22.8401L25.752 21.9198L25.2824 22.1194L25.1684 22.6168L26.1431 22.8401ZM25.8773 24V25H26.6741L26.8521 24.2234L25.8773 24ZM23.1227 24L22.1479 24.2234L22.3259 25H23.1227V24ZM22.8569 22.8401L23.8316 22.6168L23.7146 22.1062L23.2283 21.9117L22.8569 22.8401ZM21.8903 22.4535L22.2617 21.5251L21.7868 21.3351L21.3548 21.609L21.8903 22.4535ZM20.8996 23.0818L20.1925 23.7889L20.7588 24.3552L21.4352 23.9263L20.8996 23.0818ZM18.9424 21.1245L18.0921 20.5982L17.6752 21.2716L18.2353 21.8316L18.9424 21.1245ZM19.5706 20.1097L20.4209 20.636L20.6936 20.1954L20.491 19.7185L19.5706 20.1097ZM19.1599 19.1431L20.0802 18.752L19.8806 18.2824L19.3832 18.1684L19.1599 19.1431ZM18 18.8773H17V19.6741L17.7766 19.8521L18 18.8773ZM18 16.1227L17.7766 15.1479L17 15.3259V16.1227H18ZM19.1599 15.8569L19.3832 16.8316L19.8938 16.7146L20.0883 16.2283L19.1599 15.8569ZM19.5465 14.8903L20.4749 15.2617L20.6649 14.7868L20.391 14.3548L19.5465 14.8903ZM18.9182 13.8996L18.2111 13.1925L17.6448 13.7588L18.0737 14.4352L18.9182 13.8996ZM20.8755 11.9424L21.4018 11.0921L20.7284 10.6752L20.1684 11.2353L20.8755 11.9424ZM21.8903 12.5706L21.364 13.4209L21.8046 13.6936L22.2815 13.491L21.8903 12.5706ZM22.8569 12.1599L23.248 13.0802L23.7176 12.8806L23.8316 12.3832L22.8569 12.1599ZM23.1227 11V10H22.3259L22.1479 10.7766L23.1227 11ZM25.8773 11L26.8521 10.7766L26.6741 10H25.8773V11ZM26.1431 12.1599L25.1684 12.3832L25.2854 12.8938L25.7717 13.0883L26.1431 12.1599ZM27.1097 12.5465L26.7383 13.4749L27.2132 13.6649L27.6452 13.391L27.1097 12.5465ZM28.1004 11.9182L28.8075 11.2111L28.2412 10.6448L27.5648 11.0737L28.1004 11.9182ZM30.0576 13.8755L30.9079 14.4018L31.3248 13.7284L30.7647 13.1684L30.0576 13.8755ZM29.4294 14.8903L28.5791 14.364L28.3064 14.8046L28.509 15.2815L29.4294 14.8903ZM31.2234 15.1479L30.0635 14.8821L29.6168 16.8316L30.7766 17.0974L31.2234 15.1479ZM32 18.8773V16.1227H30V18.8773H32ZM30.0635 20.1179L31.2234 19.8521L30.7766 17.9026L29.6168 18.1684L30.0635 20.1179ZM30.382 20.4811L30.7686 19.5145L28.9117 18.7717L28.5251 19.7383L30.382 20.4811ZM30.9263 20.5648L30.298 19.5741L28.609 20.6452L29.2373 21.6359L30.9263 20.5648ZM28.8316 23.7647L30.7889 21.8075L29.3747 20.3933L27.4174 22.3505L28.8316 23.7647ZM26.5833 23.2796L27.5982 23.9079L28.6509 22.2074L27.636 21.5791L26.5833 23.2796ZM26.5343 23.7605L27.5008 23.3497L26.7185 21.509L25.752 21.9198L26.5343 23.7605ZM26.8521 24.2234L27.1179 23.0635L25.1684 22.6168L24.9026 23.7766L26.8521 24.2234ZM23.1227 25H25.8773V23H23.1227V25ZM21.8821 23.0635L22.1479 24.2234L24.0974 23.7766L23.8316 22.6168L21.8821 23.0635ZM21.5189 23.382L22.4855 23.7686L23.2283 21.9117L22.2617 21.5251L21.5189 23.382ZM21.4352 23.9263L22.4259 23.298L21.3548 21.609L20.3641 22.2373L21.4352 23.9263ZM18.2353 21.8316L20.1925 23.7889L21.6067 22.3747L19.6495 20.4174L18.2353 21.8316ZM18.7204 19.5833L18.0921 20.5982L19.7926 21.6509L20.4209 20.636L18.7204 19.5833ZM18.2395 19.5343L18.6503 20.5008L20.491 19.7185L20.0802 18.752L18.2395 19.5343ZM17.7766 19.8521L18.9365 20.1179L19.3832 18.1684L18.2234 17.9026L17.7766 19.8521ZM17 16.1227V18.8773H19V16.1227H17ZM18.9365 14.8821L17.7766 15.1479L18.2234 17.0974L19.3832 16.8316L18.9365 14.8821ZM18.618 14.5189L18.2314 15.4855L20.0883 16.2283L20.4749 15.2617L18.618 14.5189ZM18.0737 14.4352L18.702 15.4259L20.391 14.3548L19.7627 13.3641L18.0737 14.4352ZM20.1684 11.2353L18.2111 13.1925L19.6253 14.6067L21.5826 12.6495L20.1684 11.2353ZM22.4167 11.7204L21.4018 11.0921L20.3491 12.7926L21.364 13.4209L22.4167 11.7204ZM22.4657 11.2395L21.4992 11.6503L22.2815 13.491L23.248 13.0802L22.4657 11.2395ZM22.1479 10.7766L21.8821 11.9365L23.8316 12.3832L24.0974 11.2234L22.1479 10.7766ZM25.8773 10H23.1227V12H25.8773V10ZM27.1179 11.9365L26.8521 10.7766L24.9026 11.2234L25.1684 12.3832L27.1179 11.9365ZM27.4811 11.618L26.5145 11.2314L25.7717 13.0883L26.7383 13.4749L27.4811 11.618ZM27.5648 11.0737L26.5741 11.702L27.6452 13.391L28.6359 12.7627L27.5648 11.0737ZM30.7647 13.1684L28.8075 11.2111L27.3933 12.6253L29.3505 14.5826L30.7647 13.1684ZM30.2796 15.4167L30.9079 14.4018L29.2074 13.3491L28.5791 14.364L30.2796 15.4167ZM30.7605 15.4657L30.3497 14.4992L28.509 15.2815L28.9198 16.248L30.7605 15.4657ZM25 17.5C25 17.7761 24.7761 18 24.5 18V20C25.8807 20 27 18.8807 27 17.5H25ZM24.5 17C24.7761 17 25 17.2239 25 17.5H27C27 16.1193 25.8807 15 24.5 15V17ZM24 17.5C24 17.2239 24.2239 17 24.5 17V15C23.1193 15 22 16.1193 22 17.5H24ZM24.5 18C24.2239 18 24 17.7761 24 17.5H22C22 18.8807 23.1193 20 24.5 20V18Z" fill="#333333" mask="url(#path-3-inside-1_812_37515)"/>
<path d="M3.5 9.08102V22.041C3.5 22.1578 3.5488 22.2691 3.64042 22.3566C3.73236 22.4445 3.85955 22.5 4.00361 22.5H14.9964C15.1405 22.5 15.2676 22.4445 15.3596 22.3566C15.4512 22.2691 15.5 22.1578 15.5 22.041V8.18576C15.1101 7.81348 14.7214 7.44341 14.3329 7.07358C13.7834 6.55044 13.2345 6.02777 12.6833 5.5H4.00361C3.85955 5.5 3.73235 5.55552 3.64042 5.64337C3.5488 5.73092 3.5 5.84218 3.5 5.95898V9.08102Z" fill="#EFEFEF" stroke="#444444"/>
<path fill-rule="evenodd" clip-rule="evenodd" d="M13 10.5C13 10.2239 12.8041 10 12.5625 10H6.4375C6.19588 10 6 10.2239 6 10.5C6 10.7761 6.19588 11 6.4375 11H12.5625C12.8041 11 13 10.7761 13 10.5Z" fill="#444444"/>
<path fill-rule="evenodd" clip-rule="evenodd" d="M11 8.5C11 8.22386 10.7958 8 10.5438 8H6.4562C6.20425 8 6 8.22386 6 8.5C6 8.77614 6.20425 9 6.4562 9H10.5438C10.7958 9 11 8.77614 11 8.5Z" fill="url(#paint1_linear_812_37515)"/>
<path fill-rule="evenodd" clip-rule="evenodd" d="M9 19.5C9 19.2239 8.83211 19 8.625 19H6.375C6.16789 19 6 19.2239 6 19.5C6 19.7761 6.16789 20 6.375 20H8.625C8.83211 20 9 19.7761 9 19.5Z" fill="url(#paint2_linear_812_37515)"/>
<path fill-rule="evenodd" clip-rule="evenodd" d="M13 19.5C13 19.2239 12.7761 19 12.5 19H10.5C10.2239 19 10 19.2239 10 19.5C10 19.7761 10.2239 20 10.5 20H12.5C12.7761 20 13 19.7761 13 19.5Z" fill="url(#paint3_linear_812_37515)"/>
<path fill-rule="evenodd" clip-rule="evenodd" d="M13 12.5C13 12.2239 12.8041 12 12.5625 12H6.4375C6.19588 12 6 12.2239 6 12.5C6 12.7761 6.19588 13 6.4375 13H12.5625C12.8041 13 13 12.7761 13 12.5Z" fill="#444444"/>
<path fill-rule="evenodd" clip-rule="evenodd" d="M13 14.5C13 14.2239 12.8041 14 12.5625 14H6.4375C6.19588 14 6 14.2239 6 14.5C6 14.7761 6.19588 15 6.4375 15H12.5625C12.8041 15 13 14.7761 13 14.5Z" fill="#444444"/>
<path fill-rule="evenodd" clip-rule="evenodd" d="M13 16.5C13 16.2239 12.8041 16 12.5625 16H6.4375C6.19588 16 6 16.2239 6 16.5C6 16.7761 6.19588 17 6.4375 17H12.5625C12.8041 17 13 16.7761 13 16.5Z" fill="#444444"/>
<path d="M12.5 7.84639C12.5 8.1802 12.755 8.45878 13.0809 8.49582H13.1548H15.5V8.20711L12.7929 5.5H12.5V7.84639Z" fill="url(#paint4_linear_812_37515)" stroke="#444444"/>
<defs>
<linearGradient id="paint0_linear_812_37515" x1="18" y1="10.4922" x2="31" y2="24" gradientUnits="userSpaceOnUse">
<stop stop-color="#FF8E3D"/>
<stop offset="1" stop-color="#FF6F3D"/>
</linearGradient>
<linearGradient id="paint1_linear_812_37515" x1="8.5" y1="8" x2="8.5" y2="9" gradientUnits="userSpaceOnUse">
<stop stop-color="#FF8E3D"/>
<stop offset="1" stop-color="#FF6F3D"/>
</linearGradient>
<linearGradient id="paint2_linear_812_37515" x1="7.5" y1="19" x2="7.5" y2="20" gradientUnits="userSpaceOnUse">
<stop stop-color="#FF8E3D"/>
<stop offset="1" stop-color="#FF6F3D"/>
</linearGradient>
<linearGradient id="paint3_linear_812_37515" x1="11.5" y1="19" x2="11.5" y2="20" gradientUnits="userSpaceOnUse">
<stop stop-color="#FF8E3D"/>
<stop offset="1" stop-color="#FF6F3D"/>
</linearGradient>
<linearGradient id="paint4_linear_812_37515" x1="14" y1="5" x2="14" y2="9" gradientUnits="userSpaceOnUse">
<stop stop-color="#FF8E3D"/>
<stop offset="1" stop-color="#FF6F3D"/>
</linearGradient>
</defs>
</svg>
