<svg width="33" height="32" viewBox="0 0 33 32" fill="none" xmlns="http://www.w3.org/2000/svg">
<mask id="path-1-inside-1_467_17375" fill="white">
<path fill-rule="evenodd" clip-rule="evenodd" d="M27 9.45725V14.5428L24.8587 15.0335L24.145 16.8178L25.3048 18.6468L21.6915 22.2602L19.8178 21.1004L18.0335 21.8587L17.5428 24H12.4572L11.9665 21.8587L10.1822 21.145L8.35316 22.3048L4.73978 18.6915L5.89963 16.8178L5.14126 15.0335L3 14.5428V9.45725L5.14126 8.96654L5.85502 7.18216L4.69517 5.35316L8.30855 1.73978L10.1822 2.89963L11.9665 2.14126L12.4572 0H17.5428L18.0335 2.14126L19.8178 2.85502L21.6468 1.69517L25.2602 5.30855L24.1004 7.18216L24.8587 8.96654L27 9.45725ZM15 16C17.2091 16 19 14.2091 19 12C19 9.79086 17.2091 8 15 8C12.7909 8 11 9.79086 11 12C11 14.2091 12.7909 16 15 16Z"/>
</mask>
<path fill-rule="evenodd" clip-rule="evenodd" d="M27 9.45725V14.5428L24.8587 15.0335L24.145 16.8178L25.3048 18.6468L21.6915 22.2602L19.8178 21.1004L18.0335 21.8587L17.5428 24H12.4572L11.9665 21.8587L10.1822 21.145L8.35316 22.3048L4.73978 18.6915L5.89963 16.8178L5.14126 15.0335L3 14.5428V9.45725L5.14126 8.96654L5.85502 7.18216L4.69517 5.35316L8.30855 1.73978L10.1822 2.89963L11.9665 2.14126L12.4572 0H17.5428L18.0335 2.14126L19.8178 2.85502L21.6468 1.69517L25.2602 5.30855L24.1004 7.18216L24.8587 8.96654L27 9.45725ZM15 16C17.2091 16 19 14.2091 19 12C19 9.79086 17.2091 8 15 8C12.7909 8 11 9.79086 11 12C11 14.2091 12.7909 16 15 16Z" fill="#EFEFEF"/>
<path d="M27 14.5428L27.2234 15.5175L28 15.3395V14.5428H27ZM27 9.45725H28V8.66049L27.2234 8.48252L27 9.45725ZM24.8587 15.0335L24.6354 14.0587L24.1248 14.1757L23.9303 14.6621L24.8587 15.0335ZM24.145 16.8178L23.2165 16.4465L23.0265 16.9214L23.3005 17.3534L24.145 16.8178ZM25.3048 18.6468L26.0119 19.3539L26.5782 18.7876L26.1493 18.1113L25.3048 18.6468ZM21.6915 22.2602L21.1651 23.1105L21.8385 23.5274L22.3986 22.9673L21.6915 22.2602ZM19.8178 21.1004L20.3442 20.2501L19.9036 19.9774L19.4267 20.18L19.8178 21.1004ZM18.0335 21.8587L17.6423 20.9384L17.1727 21.138L17.0587 21.6354L18.0335 21.8587ZM17.5428 24V25H18.3395L18.5175 24.2234L17.5428 24ZM12.4572 24L11.4825 24.2234L11.6605 25H12.4572V24ZM11.9665 21.8587L12.9413 21.6354L12.8243 21.1248L12.3379 20.9303L11.9665 21.8587ZM10.1822 21.145L10.5535 20.2165L10.0786 20.0265L9.64661 20.3005L10.1822 21.145ZM8.35316 22.3048L7.64605 23.0119L8.21236 23.5782L8.8887 23.1493L8.35316 22.3048ZM4.73978 18.6915L3.88951 18.1651L3.47263 18.8385L4.03267 19.3986L4.73978 18.6915ZM5.89963 16.8178L6.74989 17.3442L7.02264 16.9036L6.81996 16.4267L5.89963 16.8178ZM5.14126 15.0335L6.06159 14.6423L5.86201 14.1727L5.36464 14.0587L5.14126 15.0335ZM3 14.5428H2V15.3395L2.77662 15.5175L3 14.5428ZM3 9.45725L2.77662 8.48252L2 8.66049V9.45725H3ZM5.14126 8.96654L5.36464 9.94128L5.87521 9.82427L6.06974 9.33793L5.14126 8.96654ZM5.85502 7.18216L6.7835 7.55355L6.97347 7.0786L6.69953 6.64661L5.85502 7.18216ZM4.69517 5.35316L3.98806 4.64605L3.42176 5.21236L3.85066 5.8887L4.69517 5.35316ZM8.30855 1.73978L8.83491 0.889512L8.16148 0.472632L7.60144 1.03267L8.30855 1.73978ZM10.1822 2.89963L9.6558 3.74989L10.0964 4.02264L10.5733 3.81996L10.1822 2.89963ZM11.9665 2.14126L12.3577 3.0616L12.8273 2.86201L12.9413 2.36464L11.9665 2.14126ZM12.4572 0V-1H11.6605L11.4825 -0.223376L12.4572 0ZM17.5428 0L18.5175 -0.223375L18.3395 -1H17.5428V0ZM18.0335 2.14126L17.0587 2.36464L17.1757 2.87521L17.6621 3.06974L18.0335 2.14126ZM19.8178 2.85502L19.4465 3.7835L19.9214 3.97347L20.3534 3.69953L19.8178 2.85502ZM21.6468 1.69517L22.3539 0.988061L21.7876 0.421757L21.1113 0.850659L21.6468 1.69517ZM25.2602 5.30855L26.1105 5.83491L26.5274 5.16148L25.9673 4.60144L25.2602 5.30855ZM24.1004 7.18216L23.2501 6.6558L22.9774 7.0964L23.18 7.5733L24.1004 7.18216ZM24.8587 8.96654L23.9384 9.35768L24.138 9.82729L24.6354 9.94128L24.8587 8.96654ZM28 14.5428V9.45725H26V14.5428H28ZM25.0821 16.0082L27.2234 15.5175L26.7766 13.568L24.6354 14.0587L25.0821 16.0082ZM25.0735 17.1892L25.7872 15.4049L23.9303 14.6621L23.2165 16.4465L25.0735 17.1892ZM26.1493 18.1113L24.9895 16.2823L23.3005 17.3534L24.4603 19.1824L26.1493 18.1113ZM22.3986 22.9673L26.0119 19.3539L24.5977 17.9397L20.9843 21.5531L22.3986 22.9673ZM19.2915 21.9506L21.1651 23.1105L22.2178 21.41L20.3442 20.2501L19.2915 21.9506ZM18.4246 22.7791L20.209 22.0207L19.4267 20.18L17.6423 20.9384L18.4246 22.7791ZM18.5175 24.2234L19.0082 22.0821L17.0587 21.6354L16.568 23.7766L18.5175 24.2234ZM12.4572 25H17.5428V23H12.4572V25ZM10.9918 22.0821L11.4825 24.2234L13.432 23.7766L12.9413 21.6354L10.9918 22.0821ZM9.81077 22.0735L11.5952 22.7872L12.3379 20.9303L10.5535 20.2165L9.81077 22.0735ZM8.8887 23.1493L10.7177 21.9895L9.64661 20.3005L7.81762 21.4603L8.8887 23.1493ZM4.03267 19.3986L7.64605 23.0119L9.06027 21.5977L5.44688 17.9843L4.03267 19.3986ZM5.04936 16.2915L3.88951 18.1651L5.59004 19.2178L6.74989 17.3442L5.04936 16.2915ZM4.22093 15.4246L4.9793 17.209L6.81996 16.4267L6.06159 14.6423L4.22093 15.4246ZM2.77662 15.5175L4.91789 16.0082L5.36464 14.0587L3.22338 13.568L2.77662 15.5175ZM2 9.45725V14.5428H4V9.45725H2ZM4.91789 7.99181L2.77662 8.48252L3.22338 10.432L5.36464 9.94128L4.91789 7.99181ZM4.92654 6.81076L4.21279 8.59515L6.06974 9.33793L6.7835 7.55355L4.92654 6.81076ZM3.85066 5.8887L5.01051 7.7177L6.69953 6.64661L5.53968 4.81762L3.85066 5.8887ZM7.60144 1.03267L3.98806 4.64605L5.40227 6.06027L9.01566 2.44688L7.60144 1.03267ZM10.7085 2.04936L8.83491 0.889512L7.7822 2.59004L9.6558 3.74989L10.7085 2.04936ZM11.5754 1.22093L9.79102 1.9793L10.5733 3.81996L12.3577 3.0616L11.5754 1.22093ZM11.4825 -0.223376L10.9918 1.91789L12.9413 2.36464L13.432 0.223376L11.4825 -0.223376ZM17.5428 -1H12.4572V1H17.5428V-1ZM19.0082 1.91789L18.5175 -0.223375L16.568 0.223375L17.0587 2.36464L19.0082 1.91789ZM20.1892 1.92654L18.4048 1.21279L17.6621 3.06974L19.4465 3.7835L20.1892 1.92654ZM21.1113 0.850659L19.2823 2.01051L20.3534 3.69953L22.1824 2.53968L21.1113 0.850659ZM25.9673 4.60144L22.3539 0.988061L20.9397 2.40227L24.5531 6.01566L25.9673 4.60144ZM24.9506 7.70851L26.1105 5.83491L24.41 4.7822L23.2501 6.6558L24.9506 7.70851ZM25.7791 8.5754L25.0207 6.79101L23.18 7.5733L23.9384 9.35768L25.7791 8.5754ZM27.2234 8.48252L25.0821 7.99181L24.6354 9.94128L26.7766 10.432L27.2234 8.48252ZM18 12C18 13.6569 16.6569 15 15 15V17C17.7614 17 20 14.7614 20 12H18ZM15 9C16.6569 9 18 10.3431 18 12H20C20 9.23858 17.7614 7 15 7V9ZM12 12C12 10.3431 13.3431 9 15 9V7C12.2386 7 10 9.23858 10 12H12ZM15 15C13.3431 15 12 13.6569 12 12H10C10 14.7614 12.2386 17 15 17V15Z" fill="#444444" mask="url(#path-1-inside-1_467_17375)"/>
<path d="M22.2788 14.7548L21.9253 14.4013L21.5717 14.7548L12.4505 23.8761C11.2789 25.0476 11.2789 26.9471 12.4505 28.1187C13.6221 29.2903 15.5216 29.2903 16.6932 28.1187L25.8144 18.9975L26.1679 18.6439L25.8144 18.2904L22.2788 14.7548Z" fill="url(#paint0_linear_467_17375)" stroke="#444444"/>
<path d="M31.7853 11.9496L28.2791 15.4557L25.3446 14.6554L24.5443 11.7209L28.0504 8.21473C26.183 7.68119 24.0869 8.13851 22.6006 9.62482C20.4665 11.759 20.4665 15.2652 22.6006 17.3994C24.7348 19.5335 28.241 19.5335 30.3752 17.3994C31.8615 15.9131 32.3188 13.817 31.7853 11.9496Z" fill="#CCCCCC" stroke="#444444" stroke-miterlimit="10" stroke-linecap="round" stroke-linejoin="round"/>
<rect x="13" y="26.1211" width="3" height="2" rx="1" transform="rotate(-45 13 26.1211)" fill="#444444"/>
<defs>
<linearGradient id="paint0_linear_467_17375" x1="23.6931" y1="16.8762" x2="12.8041" y2="27.7652" gradientUnits="userSpaceOnUse">
<stop stop-color="#FF8E3D"/>
<stop offset="1" stop-color="#FF6F3D"/>
</linearGradient>
</defs>
</svg>
