<svg width="32" height="32" viewBox="0 0 32 32" fill="none" xmlns="http://www.w3.org/2000/svg">
<path d="M26.5 27C26.5 27.8284 25.8284 28.5 25 28.5H7C6.17157 28.5 5.5 27.8284 5.5 27V3C5.5 2.17157 6.17157 1.5 7 1.5H20.1987C20.5844 1.5 20.9554 1.64861 21.2344 1.91497L26.0357 6.49804C26.3322 6.78108 26.5 7.17315 26.5 7.58307V27Z" fill="#EFEFEF" stroke="#444444"/>
<path d="M20.5 5.98119C20.5 6.76609 21.1038 7.41715 21.8715 7.49269H22.0209H26.5V6.45711L21.5429 1.5H20.5V5.98119Z" fill="url(#paint0_linear_812_39702)" stroke="#444444"/>
<rect x="9" y="5" width="8" height="1" rx="0.5" fill="#444444"/>
<rect x="9" y="11" width="14" height="1" rx="0.5" fill="#444444"/>
<rect x="9" y="14" width="14" height="1" rx="0.5" fill="#444444"/>
<rect x="9" y="8" width="8" height="1" rx="0.5" fill="#444444"/>
<path d="M13.5 19C13.5 18.1716 14.1716 17.5 15 17.5H29C29.8284 17.5 30.5 18.1716 30.5 19V30C30.5 30.2761 30.2761 30.5 30 30.5H14C13.7239 30.5 13.5 30.2761 13.5 30V19Z" fill="#CCCCCC" stroke="#444444"/>
<path d="M13.5 19C13.5 18.1716 14.1716 17.5 15 17.5H29C29.8284 17.5 30.5 18.1716 30.5 19V20.5H13.5V19Z" fill="url(#paint1_linear_812_39702)" stroke="#444444"/>
<path fill-rule="evenodd" clip-rule="evenodd" d="M25.6486 27.8296C25.4071 27.6024 25.4071 27.2332 25.6486 27.006L27.2494 25.5L25.6486 23.9939C25.4071 23.7667 25.4071 23.3975 25.6486 23.1703C25.8901 22.9432 26.2825 22.9432 26.524 23.1703L29 25.5L26.524 27.8296C26.2825 28.0568 25.8901 28.0568 25.6486 27.8296ZM18.476 27.8296L16 25.5L18.476 23.1703C18.7175 22.9432 19.1099 22.9432 19.3514 23.1703C19.5929 23.3975 19.5929 23.7667 19.3514 23.9939L17.7506 25.5L19.3514 27.006C19.5929 27.2332 19.5929 27.6024 19.3514 27.8296C19.1099 28.0568 18.7175 28.0568 18.476 27.8296ZM20.9853 27.0481C20.8325 27.3357 20.9569 27.6858 21.2626 27.8297C21.5685 27.9735 21.9405 27.8571 22.0929 27.5688L24.0155 23.9513C24.1684 23.6643 24.0445 23.3143 23.7388 23.1703C23.433 23.0265 23.061 23.1431 22.908 23.4307L20.9853 27.0481Z" fill="#444444"/>
<defs>
<linearGradient id="paint0_linear_812_39702" x1="23.5" y1="1" x2="23.5" y2="8" gradientUnits="userSpaceOnUse">
<stop stop-color="#FF8E3D"/>
<stop offset="1" stop-color="#FF6F3D"/>
</linearGradient>
<linearGradient id="paint1_linear_812_39702" x1="22" y1="17" x2="22" y2="21" gradientUnits="userSpaceOnUse">
<stop stop-color="#FF8E3D"/>
<stop offset="1" stop-color="#FF6F3D"/>
</linearGradient>
</defs>
</svg>
