<svg width="32" height="32" viewBox="0 0 32 32" fill="none" xmlns="http://www.w3.org/2000/svg">
<path fill-rule="evenodd" clip-rule="evenodd" d="M15 28V21H16V28H15Z" fill="url(#paint0_linear_814_20964)"/>
<path fill-rule="evenodd" clip-rule="evenodd" d="M14 29.5C14 29.7761 13.8081 30 13.5714 30L2.42857 30C2.19188 30 2 29.7761 2 29.5C2 29.2239 2.19188 29 2.42857 29L13.5714 29C13.8081 29 14 29.2239 14 29.5Z" fill="url(#paint1_linear_814_20964)"/>
<path fill-rule="evenodd" clip-rule="evenodd" d="M29 29.5C29 29.7761 28.8058 30 28.5663 30L17.4337 30C17.1942 30 17 29.7761 17 29.5C17 29.2239 17.1942 29 17.4337 29L28.5663 29C28.8058 29 29 29.2239 29 29.5Z" fill="url(#paint2_linear_814_20964)"/>
<path d="M2.5 2.29048C2.5 1.2797 3.27695 0.5 4.1875 0.5H27.8125C28.7231 0.5 29.5 1.2797 29.5 2.29048V7.70952C29.5 8.7203 28.7231 9.5 27.8125 9.5H4.1875C3.27695 9.5 2.5 8.7203 2.5 7.70952V2.29048Z" fill="#CCCCCC" stroke="#444444"/>
<path d="M2.5 13.2905C2.5 12.2797 3.27695 11.5 4.1875 11.5H27.8125C28.7231 11.5 29.5 12.2797 29.5 13.2905V18.7095C29.5 19.7203 28.7231 20.5 27.8125 20.5H4.1875C3.27695 20.5 2.5 19.7203 2.5 18.7095V13.2905Z" fill="#CCCCCC" stroke="#444444"/>
<path d="M9 5C9 6.10457 8.10457 7 7 7C5.89543 7 5 6.10457 5 5C5 3.89543 5.89543 3 7 3C8.10457 3 9 3.89543 9 5Z" fill="#444444"/>
<path d="M9 16C9 17.1046 8.10457 18 7 18C5.89543 18 5 17.1046 5 16C5 14.8954 5.89543 14 7 14C8.10457 14 9 14.8954 9 16Z" fill="#444444"/>
<path fill-rule="evenodd" clip-rule="evenodd" d="M15.5 31C16.3284 31 17 30.3284 17 29.5C17 28.6716 16.3284 28 15.5 28C14.6716 28 14 28.6716 14 29.5C14 30.3284 14.6716 31 15.5 31ZM15.5 32C16.8807 32 18 30.8807 18 29.5C18 28.1193 16.8807 27 15.5 27C14.1193 27 13 28.1193 13 29.5C13 30.8807 14.1193 32 15.5 32Z" fill="url(#paint3_linear_814_20964)"/>
<rect x="16" y="3" width="3" height="1" rx="0.5" fill="#444444"/>
<rect x="15" y="6" width="3" height="1" rx="0.5" fill="#444444"/>
<rect x="20" y="3" width="3" height="1" rx="0.5" fill="#444444"/>
<rect x="19" y="6" width="3" height="1" rx="0.5" fill="#444444"/>
<rect x="24" y="3" width="3" height="1" rx="0.5" fill="#444444"/>
<rect x="23" y="6" width="3" height="1" rx="0.5" fill="#444444"/>
<rect x="16" y="14" width="3" height="1" rx="0.5" fill="#444444"/>
<rect x="15" y="17" width="3" height="1" rx="0.5" fill="#444444"/>
<rect x="20" y="14" width="3" height="1" rx="0.5" fill="#444444"/>
<rect x="19" y="17" width="3" height="1" rx="0.5" fill="#444444"/>
<rect x="24" y="14" width="3" height="1" rx="0.5" fill="#444444"/>
<rect x="23" y="17" width="3" height="1" rx="0.5" fill="#444444"/>
<defs>
<linearGradient id="paint0_linear_814_20964" x1="15.5" y1="21" x2="15.5" y2="28" gradientUnits="userSpaceOnUse">
<stop stop-color="#FF8E3D"/>
<stop offset="1" stop-color="#FF6F3D"/>
</linearGradient>
<linearGradient id="paint1_linear_814_20964" x1="14" y1="29.5" x2="2" y2="29.5" gradientUnits="userSpaceOnUse">
<stop stop-color="#FF8E3D"/>
<stop offset="1" stop-color="#FF6F3D"/>
</linearGradient>
<linearGradient id="paint2_linear_814_20964" x1="29" y1="29.5" x2="17" y2="29.5" gradientUnits="userSpaceOnUse">
<stop stop-color="#FF8E3D"/>
<stop offset="1" stop-color="#FF6F3D"/>
</linearGradient>
<linearGradient id="paint3_linear_814_20964" x1="15.5" y1="27" x2="15.5" y2="32" gradientUnits="userSpaceOnUse">
<stop stop-color="#FF8E3D"/>
<stop offset="1" stop-color="#FF6F3D"/>
</linearGradient>
</defs>
</svg>
