<svg width="33" height="270" viewBox="0 0 33 270" fill="none" xmlns="http://www.w3.org/2000/svg">
<path d="M12.652 29.9996C12.5195 29.9995 12.3884 29.973 12.2669 29.9217L8.9791 28.5996C8.73677 28.5026 8.5447 28.3153 8.44592 28.0797C8.34832 27.8473 8.35257 27.5863 8.45769 27.3569L9.2407 25.521C8.47016 24.9525 7.78263 24.2854 7.1969 23.5378L5.28705 24.3029C5.04915 24.3993 4.78127 24.3989 4.54372 24.3017C4.3063 24.2066 4.11735 24.0243 4.01821 23.7944L2.65662 20.5905C2.45035 20.1154 2.67798 19.5678 3.16636 19.3643C3.73138 19.1384 5.16121 18.3311 6.7096 17.8305C8.25799 17.3299 9.03218 18.0808 9.37802 19.0821C10.8478 23.3373 18.9281 25.4167 21.6773 20.0833C21.8272 19.7927 22.2018 18.8362 22.6117 18.1287C22.9677 17.5802 23.4974 17.317 24.4002 17.6956C25.3143 18.0789 26.4912 18.6013 27.034 18.8145L28.3845 19.3599C28.6248 19.4551 28.8152 19.6405 28.9123 19.8741C29.0096 20.1051 29.009 20.364 28.9105 20.5945L27.5434 23.7925C27.4447 24.0263 27.2533 24.2119 27.0121 24.3073C26.7709 24.4027 26.5003 24.4 26.2611 24.2997L24.3641 23.5381C23.7794 24.2852 23.092 24.9512 22.3211 25.5175L23.1088 27.3685C23.2101 27.5949 23.2125 27.8516 23.1155 28.0798C23.0165 28.316 22.8237 28.5036 22.5805 28.6005L19.2876 29.9247C19.0491 30.0216 18.7806 30.022 18.5418 29.9257C18.3031 29.8294 18.114 29.6444 18.0167 29.4121L17.2256 27.5638C16.2676 27.6935 15.2957 27.6948 14.3373 27.5678L13.5496 29.4143C13.4003 29.7677 13.0457 29.9987 12.652 29.9996Z" fill="#CCCCCC"/>
<path d="M12.652 29.9996L12.6516 30.4996L12.6532 30.4996L12.652 29.9996ZM12.2669 29.9217L12.4612 29.461L12.4534 29.4578L12.2669 29.9217ZM8.9791 28.5996L9.16565 28.1357L9.16501 28.1355L8.9791 28.5996ZM8.44592 28.0797L8.90702 27.8864L8.90693 27.8862L8.44592 28.0797ZM8.45769 27.3569L8.91238 27.5654L8.91761 27.5531L8.45769 27.3569ZM9.2407 25.521L9.70062 25.7171L9.85575 25.3533L9.53752 25.1186L9.2407 25.521ZM7.1969 23.5378L7.59048 23.2294L7.35915 22.9342L7.01096 23.0737L7.1969 23.5378ZM5.28705 24.3029L5.10111 23.8387L5.09922 23.8395L5.28705 24.3029ZM4.54372 24.3017L4.73309 23.8389L4.72952 23.8375L4.54372 24.3017ZM4.01821 23.7944L3.55803 23.99L3.5591 23.9925L4.01821 23.7944ZM2.65662 20.5905L3.1168 20.395L3.11527 20.3914L2.65662 20.5905ZM3.16636 19.3643L2.98073 18.9L2.97406 18.9028L3.16636 19.3643ZM6.7096 17.8305L6.86342 18.3063L6.7096 17.8305ZM9.37802 19.0821L9.85062 18.9188L9.37802 19.0821ZM21.6773 20.0833L21.2329 19.8542V19.8542L21.6773 20.0833ZM22.6117 18.1287L22.1923 17.8565L22.1854 17.8671L22.1791 17.8781L22.6117 18.1287ZM24.4002 17.6956L24.2068 18.1567V18.1567L24.4002 17.6956ZM27.034 18.8145L27.2212 18.3508L27.2167 18.3491L27.034 18.8145ZM28.3845 19.3599L28.1973 19.8235L28.2004 19.8247L28.3845 19.3599ZM28.9123 19.8741L28.4506 20.066L28.4515 20.0682L28.9123 19.8741ZM28.9105 20.5945L29.3703 20.7911L29.3704 20.7909L28.9105 20.5945ZM27.5434 23.7925L27.0836 23.596L27.0827 23.5982L27.5434 23.7925ZM27.0121 24.3073L26.8282 23.8423L27.0121 24.3073ZM26.2611 24.2997L26.4545 23.8386L26.4474 23.8357L26.2611 24.2997ZM24.3641 23.5381L24.5503 23.0741L24.2018 22.9342L23.9703 23.2299L24.3641 23.5381ZM22.3211 25.5175L22.025 25.1145L21.7059 25.3489L21.861 25.7133L22.3211 25.5175ZM23.1088 27.3685L22.6486 27.5643L22.6524 27.5726L23.1088 27.3685ZM23.1155 28.0798L22.6553 27.8841L22.6543 27.8865L23.1155 28.0798ZM22.5805 28.6005L22.3955 28.1359L22.3939 28.1366L22.5805 28.6005ZM19.2876 29.9247L19.101 29.4608L19.0994 29.4615L19.2876 29.9247ZM18.5418 29.9257L18.3548 30.3894L18.3548 30.3894L18.5418 29.9257ZM18.0167 29.4121L18.4779 29.2189L18.4763 29.2153L18.0167 29.4121ZM17.2256 27.5638L17.6852 27.3671L17.5355 27.0173L17.1585 27.0684L17.2256 27.5638ZM14.3373 27.5678L14.403 27.0721L14.0265 27.0223L13.8774 27.3716L14.3373 27.5678ZM13.5496 29.4143L13.0897 29.2181L13.089 29.2197L13.5496 29.4143ZM12.6525 29.4996C12.5862 29.4996 12.5211 29.4863 12.4612 29.461L12.0726 30.3824C12.2558 30.4597 12.4528 30.4994 12.6516 30.4996L12.6525 29.4996ZM12.4534 29.4578L9.16565 28.1357L8.79256 29.0635L12.0803 30.3856L12.4534 29.4578ZM9.16501 28.1355C9.0439 28.087 8.95276 27.9954 8.90702 27.8864L7.98482 28.2731C8.13664 28.6351 8.42964 28.9182 8.79319 29.0638L9.16501 28.1355ZM8.90693 27.8862C8.86353 27.7828 8.86534 27.6676 8.91222 27.5653L8.00317 27.1486C7.8398 27.505 7.83311 27.9118 7.98491 28.2733L8.90693 27.8862ZM8.91761 27.5531L9.70062 25.7171L8.78078 25.3248L7.99777 27.1608L8.91761 27.5531ZM9.53752 25.1186C8.80303 24.5768 8.14813 23.9412 7.59048 23.2294L6.80331 23.8462C7.41714 24.6296 8.13729 25.3283 8.94388 25.9233L9.53752 25.1186ZM7.01096 23.0737L5.10111 23.8387L5.47298 24.767L7.38283 24.0019L7.01096 23.0737ZM5.09922 23.8395C4.98231 23.8869 4.8498 23.8867 4.73308 23.8389L4.35435 24.7644C4.71274 24.9111 5.116 24.9117 5.47487 24.7663L5.09922 23.8395ZM4.72952 23.8375C4.6118 23.7903 4.52284 23.7019 4.47731 23.5964L3.5591 23.9925C3.71185 24.3466 4.00079 24.6229 4.35791 24.7659L4.72952 23.8375ZM4.47838 23.5989L3.11679 20.395L2.19645 20.7861L3.55804 23.99L4.47838 23.5989ZM3.11527 20.3914C3.02415 20.1815 3.11838 19.926 3.35866 19.8258L2.97406 18.9028C2.23757 19.2096 1.87655 20.0492 2.19797 20.7896L3.11527 20.3914ZM3.35197 19.8286C3.65156 19.7088 4.19383 19.4298 4.78217 19.1528C5.3962 18.8638 6.11874 18.547 6.86342 18.3063L6.55578 17.3548C5.75207 17.6146 4.9855 17.9518 4.35626 18.2481C3.70134 18.5564 3.24618 18.7939 2.98075 18.9L3.35197 19.8286ZM6.86342 18.3063C7.54241 18.0867 7.96791 18.1651 8.24336 18.3253C8.53238 18.4934 8.75452 18.8084 8.90542 19.2453L9.85062 18.9188C9.65568 18.3545 9.3178 17.7934 8.74616 17.4609C8.16096 17.1205 7.42518 17.0737 6.55578 17.3548L6.86342 18.3063ZM8.90542 19.2453C9.72004 21.6037 12.3075 23.2699 14.9731 23.6728C17.6678 24.0802 20.6219 23.2222 22.1218 20.3124L21.2329 19.8542C19.9836 22.2779 17.5228 23.0469 15.1226 22.6841C12.6933 22.3169 10.5058 20.8157 9.85062 18.9188L8.90542 19.2453ZM22.1218 20.3124C22.2046 20.1517 22.3504 19.8069 22.503 19.4674C22.6652 19.1067 22.8528 18.71 23.0444 18.3794L22.1791 17.8781C21.9607 18.255 21.756 18.6902 21.591 19.0573C21.4164 19.4455 21.2999 19.7243 21.2329 19.8542L22.1218 20.3124ZM23.0312 18.4009C23.1682 18.1897 23.3039 18.0856 23.4447 18.0433C23.588 18.0003 23.8224 17.9955 24.2068 18.1567L24.5935 17.2345C24.0751 17.0171 23.5932 16.9546 23.157 17.0856C22.7183 17.2174 22.4112 17.5193 22.1923 17.8565L23.0312 18.4009ZM24.2068 18.1567C25.0996 18.5311 26.3038 19.0649 26.8512 19.2799L27.2167 18.3491C26.6785 18.1377 25.529 17.6268 24.5935 17.2345L24.2068 18.1567ZM26.8467 19.2781L28.1973 19.8235L28.5717 18.8962L27.2212 18.3508L26.8467 19.2781ZM28.2004 19.8247C28.3182 19.8714 28.4067 19.9603 28.4507 20.066L29.374 19.6821C29.2238 19.3208 28.9314 19.0387 28.5687 18.895L28.2004 19.8247ZM28.4515 20.0682C28.4962 20.1742 28.4959 20.2923 28.4507 20.3982L29.3704 20.7909C29.522 20.4357 29.523 20.0359 29.3731 19.68L28.4515 20.0682ZM28.4508 20.398L27.0836 23.596L28.0031 23.989L29.3703 20.7911L28.4508 20.398ZM27.0827 23.5982C27.0375 23.7053 26.9476 23.7951 26.8282 23.8423L27.196 24.7722C27.5589 24.6286 27.852 24.3474 28.0041 23.9868L27.0827 23.5982ZM26.8282 23.8423C26.7083 23.8897 26.5731 23.8883 26.4545 23.8386L26.0678 24.7608C26.4274 24.9116 26.8334 24.9156 27.196 24.7722L26.8282 23.8423ZM26.4474 23.8357L24.5503 23.0741L24.1778 24.0021L26.0749 24.7637L26.4474 23.8357ZM23.9703 23.2299C23.4139 23.9409 22.7595 24.575 22.025 25.1145L22.6171 25.9205C23.4244 25.3274 24.1448 24.6296 24.7578 23.8463L23.9703 23.2299ZM21.861 25.7133L22.6487 27.5643L23.5689 27.1727L22.7811 25.3217L21.861 25.7133ZM22.6524 27.5726C22.6969 27.6722 22.6979 27.784 22.6553 27.8841L23.5756 28.2754C23.7271 27.9192 23.7233 27.5177 23.5652 27.1643L22.6524 27.5726ZM22.6543 27.8865C22.6085 27.9958 22.5171 28.0875 22.3955 28.1359L22.7655 29.065C23.1303 28.9197 23.4244 28.6361 23.5766 28.273L22.6543 27.8865ZM22.3939 28.1366L19.101 29.4609L19.4742 30.3886L22.7671 29.0643L22.3939 28.1366ZM19.0994 29.4615C18.9812 29.5095 18.8472 29.5097 18.7289 29.462L18.3548 30.3894C18.7139 30.5342 19.117 30.5337 19.4758 30.388L19.0994 29.4615ZM18.7289 29.462C18.6109 29.4144 18.5223 29.3251 18.4779 29.2189L17.5555 29.6052C17.7056 29.9638 17.9953 30.2443 18.3548 30.3894L18.7289 29.462ZM18.4763 29.2153L17.6852 27.3671L16.7659 27.7606L17.557 29.6088L18.4763 29.2153ZM17.1585 27.0684C16.2446 27.192 15.3173 27.1933 14.403 27.0721L14.2717 28.0635C15.2741 28.1963 16.2906 28.1949 17.2926 28.0593L17.1585 27.0684ZM13.8774 27.3716L13.0897 29.2181L14.0095 29.6105L14.7972 27.764L13.8774 27.3716ZM13.089 29.2197C13.0205 29.3819 12.8512 29.4992 12.6509 29.4996L12.6532 30.4996C13.2403 30.4983 13.7801 30.1535 14.0102 29.6089L13.089 29.2197Z" fill="#444444"/>
<mask id="path-3-outside-1_467_17301" maskUnits="userSpaceOnUse" x="1.06445" y="2" width="31" height="19" fill="black">
<rect fill="white" x="1.06445" y="2" width="31" height="19"/>
<path d="M25.9548 19.0198H8.21445C4.8179 19.0198 2.06445 16.3558 2.06445 13.0696C2.06445 9.78339 4.8179 7.11939 8.21445 7.11939C8.25466 7.11939 8.29459 7.11962 8.33409 7.12049C9.46224 4.6179 12.0159 3 14.8379 3C17.6598 3 20.2135 4.6179 21.3416 7.12049C23.4832 7.16721 25.3978 8.42372 26.2346 10.3316C28.6585 10.4766 30.5249 12.4584 30.4493 14.807C30.3737 17.1555 28.3834 19.0211 25.9548 19.0198Z"/>
</mask>
<path d="M25.9548 19.0198H8.21445C4.8179 19.0198 2.06445 16.3558 2.06445 13.0696C2.06445 9.78339 4.8179 7.11939 8.21445 7.11939C8.25466 7.11939 8.29459 7.11962 8.33409 7.12049C9.46224 4.6179 12.0159 3 14.8379 3C17.6598 3 20.2135 4.6179 21.3416 7.12049C23.4832 7.16721 25.3978 8.42372 26.2346 10.3316C28.6585 10.4766 30.5249 12.4584 30.4493 14.807C30.3737 17.1555 28.3834 19.0211 25.9548 19.0198Z" fill="url(#paint0_linear_467_17301)"/>
<path d="M25.9548 19.0198L25.9554 18.0198H25.9548V19.0198ZM8.33409 7.12049L8.31208 8.12024L8.97375 8.13481L9.24574 7.53145L8.33409 7.12049ZM21.3416 7.12049L20.43 7.53145L20.6892 8.10649L21.3198 8.12025L21.3416 7.12049ZM26.2346 10.3316L25.3188 10.7333L25.5644 11.2933L26.1749 11.3299L26.2346 10.3316ZM25.9548 18.0198H8.21445V20.0198H25.9548V18.0198ZM8.21445 18.0198C5.3388 18.0198 3.06445 15.7727 3.06445 13.0696H1.06445C1.06445 16.939 4.297 20.0198 8.21445 20.0198V18.0198ZM3.06445 13.0696C3.06445 10.3665 5.3388 8.11939 8.21445 8.11939V6.11939C4.297 6.11939 1.06445 9.20023 1.06445 13.0696H3.06445ZM8.21445 8.11939C8.25134 8.11939 8.28306 8.1196 8.31208 8.12024L8.35611 6.12073C8.30613 6.11963 8.25799 6.11939 8.21445 6.11939V8.11939ZM9.24574 7.53145C10.2065 5.40021 12.395 4 14.8379 4V2C11.6369 2 8.71799 3.8356 7.42244 6.70952L9.24574 7.53145ZM14.8379 4C17.2808 4 19.4692 5.40021 20.43 7.53145L22.2533 6.70952C20.9577 3.8356 18.0388 2 14.8379 2V4ZM21.3198 8.12025C23.0866 8.15879 24.6439 9.19443 25.3188 10.7333L27.1504 9.93C26.1518 7.65301 23.8799 6.17562 21.3634 6.12072L21.3198 8.12025ZM26.1749 11.3299C28.0881 11.4443 29.5071 12.997 29.4499 14.7748L31.4488 14.8391C31.5428 11.9199 29.2289 9.50893 26.2943 9.33342L26.1749 11.3299ZM29.4499 14.7748C29.3926 16.5542 27.8739 18.0208 25.9554 18.0198L25.9543 20.0198C28.8929 20.0214 31.3549 17.7568 31.4488 14.8391L29.4499 14.7748Z" fill="#444444" mask="url(#path-3-outside-1_467_17301)"/>
<path fill-rule="evenodd" clip-rule="evenodd" d="M8.14142 15.792C8.23839 15.9224 8.39408 15.9998 8.55997 16C8.78217 16 8.97943 15.8622 9.04962 15.658L9.7922 13.5H11.4568L12.1994 15.658C12.2696 15.8622 12.4668 16 12.689 16C12.8549 15.9998 13.0106 15.9224 13.1076 15.792C13.2046 15.6616 13.231 15.4941 13.1787 15.3416L11.1156 9.34608C11.1135 9.33999 11.1114 9.33394 11.1091 9.32793C11.0818 9.25558 11.0388 9.19289 10.9851 9.14225C10.9381 9.09771 10.8816 9.06133 10.8173 9.03632C10.7567 9.01264 10.6913 8.99999 10.6245 9C10.5577 8.99999 10.4923 9.01264 10.4317 9.03632C10.3674 9.06133 10.3109 9.09771 10.2639 9.14225C10.2102 9.19289 10.1673 9.25558 10.1399 9.32793C10.1376 9.33396 10.1355 9.34002 10.1334 9.34613L8.07031 15.3416C8.018 15.4941 8.04445 15.6616 8.14142 15.792ZM11.1127 12.5H10.1363L10.6245 11.0813L11.1127 12.5ZM13.7213 15.4998C13.7213 15.776 13.9524 15.9998 14.2375 15.9998C14.5225 15.9998 14.7536 15.776 14.7536 15.4998V13H16.302C17.4422 13 18.3665 12.1046 18.3665 11.0001C18.3665 9.89562 17.4422 9.00024 16.302 9.00024H14.2375C13.9524 9.00024 13.7213 9.22408 13.7213 9.50021V12.5V15.4998ZM16.302 12.0001H14.7536V10.0002H16.302C16.8721 10.0002 17.3343 10.4479 17.3343 11.0001C17.3343 11.5524 16.8721 12.0001 16.302 12.0001ZM19.9149 14.9999V10.0002H18.8826C18.5976 10.0002 18.3665 9.77634 18.3665 9.50021C18.3665 9.22408 18.5976 9.00024 18.8826 9.00024H20.431H21.9794C22.2645 9.00024 22.4955 9.22408 22.4955 9.50021C22.4955 9.77634 22.2645 10.0002 21.9794 10.0002H20.9472V14.9999H21.9795C22.2645 14.9999 22.4956 15.2237 22.4956 15.4999C22.4956 15.776 22.2645 15.9998 21.9795 15.9998H18.8827C18.5976 15.9998 18.3665 15.776 18.3665 15.4999C18.3665 15.2237 18.5976 14.9999 18.8827 14.9999H19.9149Z" fill="#444444"/>
<rect x="0.5" y="37.5" width="28" height="19" rx="1.5" fill="#CCCCCC" stroke="#444444"/>
<rect x="3" y="40" width="23" height="1" rx="0.5" fill="#444444"/>
<path d="M10.3507 48.1495C10.3656 48.408 10.4177 48.6464 10.507 48.8648C10.6 49.0796 10.7209 49.2653 10.8698 49.4218C11.0223 49.5784 11.1991 49.7003 11.4 49.7877C11.6009 49.8714 11.8223 49.9133 12.0642 49.9133C12.2763 49.9133 12.4791 49.8915 12.6726 49.8478C12.866 49.8041 13.0372 49.7349 13.186 49.6403C13.3349 49.542 13.454 49.4146 13.5433 49.258C13.6326 49.0978 13.6772 48.9031 13.6772 48.6737C13.6772 48.4662 13.6121 48.2915 13.4819 48.1495C13.3553 48.0075 13.1879 47.8856 12.9795 47.7836C12.7712 47.678 12.533 47.5834 12.2651 47.4997C11.9972 47.4123 11.7237 47.3231 11.4447 47.2321C11.1693 47.1411 10.8977 47.0391 10.6298 46.9263C10.3619 46.8098 10.1237 46.6678 9.91535 46.5003C9.70698 46.3329 9.53767 46.1327 9.40744 45.8997C9.28093 45.6667 9.21767 45.3863 9.21767 45.0587C9.21767 44.7238 9.28465 44.4289 9.4186 44.1741C9.55256 43.9156 9.74047 43.7008 9.98233 43.5297C10.2279 43.3549 10.5181 43.2239 10.853 43.1365C11.1879 43.0455 11.5563 43 11.9581 43C12.3153 43 12.6316 43.0364 12.907 43.1092C13.1823 43.1784 13.4223 43.273 13.627 43.3932C13.8353 43.5133 14.0102 43.6553 14.1516 43.8191C14.293 43.9829 14.4084 44.1577 14.4977 44.3433C14.5907 44.5254 14.6595 44.7165 14.7042 44.9167C14.7488 45.1133 14.7786 45.3063 14.7935 45.4956H13.4595C13.4372 45.2516 13.3814 45.0405 13.2921 44.8621C13.2065 44.6837 13.0967 44.5363 12.9628 44.4198C12.8326 44.3033 12.68 44.2177 12.5051 44.1631C12.334 44.1049 12.1516 44.0758 11.9581 44.0758C11.7833 44.0758 11.6102 44.094 11.4391 44.1304C11.2716 44.1631 11.1209 44.2177 10.987 44.2942C10.853 44.3706 10.7451 44.4726 10.6633 44.6C10.5814 44.7238 10.5405 44.8767 10.5405 45.0587C10.5405 45.2699 10.6037 45.4482 10.7302 45.5939C10.8605 45.7358 11.0298 45.8614 11.2381 45.9706C11.4465 46.0799 11.6847 46.1782 11.9526 46.2655C12.2205 46.3493 12.4921 46.4385 12.7674 46.5331C13.0465 46.6241 13.32 46.7279 13.5879 46.8444C13.8558 46.9572 14.094 47.0956 14.3023 47.2594C14.5107 47.4232 14.6781 47.6198 14.8047 47.8491C14.9349 48.0785 15 48.3534 15 48.6737C15 49.0596 14.9256 49.3982 14.7767 49.6894C14.6316 49.977 14.4288 50.2191 14.1684 50.4157C13.9079 50.6086 13.5972 50.7543 13.2363 50.8526C12.8791 50.9509 12.4884 51 12.0642 51C11.6809 51 11.307 50.9345 10.9423 50.8034C10.5814 50.6724 10.2577 50.4849 9.97116 50.241C9.68837 49.9934 9.45767 49.6931 9.27907 49.3399C9.10419 48.9868 9.01116 48.59 9 48.1495H10.3507Z" fill="#444444"/>
<path d="M8 43V48.628C8 49.0494 7.93123 49.4112 7.79369 49.7133C7.66019 50.0117 7.47816 50.2559 7.24757 50.4462C7.01699 50.6364 6.75 50.7762 6.4466 50.8657C6.1432 50.9552 5.82362 51 5.48786 51C5.16828 51 4.85882 50.9534 4.55947 50.8601C4.26011 50.7706 3.99515 50.6364 3.76456 50.4573C3.53398 50.2746 3.3479 50.049 3.20631 49.7804C3.06877 49.5119 3 49.2005 3 48.8462V48.0909H4.44417V48.835C4.44417 49.014 4.47451 49.1706 4.53519 49.3049C4.59992 49.4354 4.68285 49.5455 4.78398 49.635C4.88916 49.7207 5.00445 49.7841 5.12985 49.8252C5.25526 49.8662 5.38269 49.8867 5.51214 49.8867C5.61327 49.8867 5.72451 49.8718 5.84587 49.842C5.96723 49.8084 6.0805 49.7524 6.18568 49.6741C6.2949 49.5921 6.38592 49.4839 6.45874 49.3496C6.53155 49.2117 6.56796 49.0401 6.56796 48.835V43H8Z" fill="#444444"/>
<rect x="13.5" y="51.5" width="18" height="11" rx="1.5" fill="url(#paint1_linear_467_17301)" stroke="#444444"/>
<path fill-rule="evenodd" clip-rule="evenodd" d="M25.6486 59.7955C25.4071 59.5229 25.4071 59.0799 25.6486 58.8072L27.2494 57L25.6486 55.1926C25.4071 54.92 25.4071 54.477 25.6486 54.2044C25.8901 53.9319 26.2825 53.9319 26.524 54.2044L29 57L26.524 59.7955C26.2825 60.0682 25.8901 60.0682 25.6486 59.7955ZM18.476 59.7955L16 57L18.476 54.2044C18.7175 53.9319 19.1099 53.9319 19.3514 54.2044C19.5929 54.477 19.5929 54.92 19.3514 55.1927L17.7506 57L19.3514 58.8072C19.5929 59.0799 19.5929 59.5229 19.3514 59.7955C19.1099 60.0682 18.7175 60.0682 18.476 59.7955ZM20.9853 58.8577C20.8325 59.2029 20.9569 59.623 21.2626 59.7956C21.5685 59.9681 21.9405 59.8285 22.0929 59.4825L24.0155 55.1416C24.1684 54.7971 24.0445 54.3771 23.7388 54.2044C23.433 54.0318 23.061 54.1717 22.908 54.5168L20.9853 58.8577Z" fill="#444444"/>
<path fill-rule="evenodd" clip-rule="evenodd" d="M30.4788 83.8651C30.7963 83.2899 30.9749 82.6483 31 81.9919C31 80.5008 29.7501 78.2454 27.8753 78.2454C27.1683 78.2549 26.489 78.5212 25.9642 78.9947C25.6708 79.2729 25.2949 79.4483 24.893 79.4942C24.7618 79.0634 24.7805 77.5148 25.6592 73.9993C25.8731 73.1357 25.3459 72.2623 24.4815 72.0484C24.3536 72.0168 24.2223 72.0009 24.0906 72.0012H18.4886C17.9935 72.0008 17.5481 72.3015 17.3637 72.7605C17.1748 73.2265 17.2903 73.7604 17.6549 74.1068C18.1487 74.5149 18.4532 75.1077 18.4973 75.7465C18.4973 76.7793 17.1387 76.9953 15.9975 76.9953C14.8563 76.9953 13.4977 76.7792 13.4977 75.7465C13.5427 75.1064 13.8491 74.5131 14.3452 74.1055C14.7098 73.7591 14.8252 73.2252 14.6364 72.7593C14.452 72.3003 14.0065 71.9997 13.5115 72H7.90948C7.01899 71.9981 6.29554 72.7177 6.29361 73.6075C6.29331 73.7391 6.30919 73.8703 6.34083 73.9981C7.21573 77.5086 7.23823 79.0571 7.10699 79.493C6.70513 79.447 6.32917 79.2717 6.03582 78.9935C5.51104 78.52 4.8317 78.2537 4.12471 78.2442C2.24987 78.2442 1 80.4996 1 81.9907C1 83.4818 2.24987 85.7371 4.12471 85.7371C4.8317 85.7277 5.51104 85.4613 6.03582 84.9878C6.31782 84.7204 6.67615 84.548 7.06045 84.4942L7.11628 84.5217C7.23682 84.9955 7.19816 86.553 6.34083 89.9832C6.2844 90.2119 6.27988 90.4412 6.31978 90.6588C6.36756 90.9513 6.4991 91.2133 6.68833 91.4254C6.89916 91.6688 7.18477 91.8516 7.52133 91.9345C7.64876 91.9659 7.77948 91.9816 7.91071 91.9813C9.78941 92.0234 11.6763 91.9813 13.5558 91.9813C14.0508 91.9817 14.4963 91.681 14.6807 91.222C14.8695 90.7561 14.7541 90.2222 14.3895 89.8758C13.8935 89.4682 13.587 88.8749 13.542 88.2348C13.542 87.3322 14.704 86.9131 15.7996 86.9616C16.6532 86.8655 17.8083 86.215 18.4056 85.5434C18.7535 85.1523 19.1741 84.7272 19.629 84.3694C21.3965 82.9791 22.5323 82.7043 24.7097 82.7043C26.1429 82.7043 27.6809 83.4257 28.5648 83.9188C28.8871 84.0986 30.0323 84.3694 30.4788 83.8651Z" fill="#CCCCCC" stroke="#444444"/>
<mask id="path-13-inside-2_467_17301" fill="white">
<path fill-rule="evenodd" clip-rule="evenodd" d="M29.6617 86.6041L31 86.9108V90.0892L29.6617 90.3959L29.2156 91.5112L29.9405 92.6543L27.6822 94.9126L26.5112 94.1877L25.3959 94.6617L25.0892 96H21.9108L21.6041 94.6617L20.4888 94.2156L19.3457 94.9405L17.0874 92.6822L17.8123 91.5112L17.3383 90.3959L16 90.0892V86.9108L17.3383 86.6041L17.7844 85.4888L17.0595 84.3457L19.3178 82.0874L20.4888 82.8123L21.6041 82.3383L21.9108 81H25.0892L25.3959 82.3383L26.5112 82.7844L27.6543 82.0595L29.9126 84.3178L29.1877 85.4888L29.6617 86.6041ZM23.5 90.2308C24.4559 90.2308 25.2308 89.4559 25.2308 88.5C25.2308 87.5441 24.4559 86.7692 23.5 86.7692C22.5441 86.7692 21.7692 87.5441 21.7692 88.5C21.7692 89.4559 22.5441 90.2308 23.5 90.2308Z"/>
</mask>
<path fill-rule="evenodd" clip-rule="evenodd" d="M29.6617 86.6041L31 86.9108V90.0892L29.6617 90.3959L29.2156 91.5112L29.9405 92.6543L27.6822 94.9126L26.5112 94.1877L25.3959 94.6617L25.0892 96H21.9108L21.6041 94.6617L20.4888 94.2156L19.3457 94.9405L17.0874 92.6822L17.8123 91.5112L17.3383 90.3959L16 90.0892V86.9108L17.3383 86.6041L17.7844 85.4888L17.0595 84.3457L19.3178 82.0874L20.4888 82.8123L21.6041 82.3383L21.9108 81H25.0892L25.3959 82.3383L26.5112 82.7844L27.6543 82.0595L29.9126 84.3178L29.1877 85.4888L29.6617 86.6041ZM23.5 90.2308C24.4559 90.2308 25.2308 89.4559 25.2308 88.5C25.2308 87.5441 24.4559 86.7692 23.5 86.7692C22.5441 86.7692 21.7692 87.5441 21.7692 88.5C21.7692 89.4559 22.5441 90.2308 23.5 90.2308Z" fill="url(#paint2_linear_467_17301)"/>
<path d="M31 86.9108H32V86.114L31.2234 85.936L31 86.9108ZM29.6617 86.6041L28.7414 86.9952L28.941 87.4648L29.4383 87.5788L29.6617 86.6041ZM31 90.0892L31.2234 91.064L32 90.886V90.0892H31ZM29.6617 90.3959L29.4383 89.4212L28.9278 89.5382L28.7332 90.0245L29.6617 90.3959ZM29.2156 91.5112L28.2871 91.1398L28.0972 91.6147L28.3711 92.0467L29.2156 91.5112ZM29.9405 92.6543L30.6476 93.3614L31.2139 92.7951L30.785 92.1187L29.9405 92.6543ZM27.6822 94.9126L27.1558 95.7629L27.8292 96.1798L28.3893 95.6197L27.6822 94.9126ZM26.5112 94.1877L27.0375 93.3375L26.5969 93.0647L26.12 93.2674L26.5112 94.1877ZM25.3959 94.6617L25.0048 93.7414L24.5352 93.941L24.4212 94.4383L25.3959 94.6617ZM25.0892 96V97H25.886L26.064 96.2234L25.0892 96ZM21.9108 96L20.936 96.2234L21.114 97H21.9108V96ZM21.6041 94.6617L22.5788 94.4383L22.4618 93.9278L21.9755 93.7332L21.6041 94.6617ZM20.4888 94.2156L20.8602 93.2871L20.3853 93.0972L19.9533 93.3711L20.4888 94.2156ZM19.3457 94.9405L18.6386 95.6476L19.2049 96.2139L19.8813 95.785L19.3457 94.9405ZM17.0874 92.6822L16.2371 92.1558L15.8202 92.8292L16.3803 93.3893L17.0874 92.6822ZM17.8123 91.5112L18.6625 92.0375L18.9353 91.5969L18.7326 91.12L17.8123 91.5112ZM17.3383 90.3959L18.2586 90.0048L18.059 89.5352L17.5617 89.4212L17.3383 90.3959ZM16 90.0892H15V90.886L15.7766 91.064L16 90.0892ZM16 86.9108L15.7766 85.936L15 86.114V86.9108H16ZM17.3383 86.6041L17.5617 87.5788L18.0722 87.4618L18.2668 86.9755L17.3383 86.6041ZM17.7844 85.4888L18.7129 85.8602L18.9028 85.3853L18.6289 84.9533L17.7844 85.4888ZM17.0595 84.3457L16.3524 83.6386L15.7861 84.2049L16.215 84.8813L17.0595 84.3457ZM19.3178 82.0874L19.8442 81.2371L19.1708 80.8202L18.6107 81.3803L19.3178 82.0874ZM20.4888 82.8123L19.9625 83.6625L20.4031 83.9353L20.88 83.7326L20.4888 82.8123ZM21.6041 82.3383L21.9952 83.2586L22.4648 83.059L22.5788 82.5617L21.6041 82.3383ZM21.9108 81V80H21.114L20.936 80.7766L21.9108 81ZM25.0892 81L26.064 80.7766L25.886 80H25.0892V81ZM25.3959 82.3383L24.4212 82.5617L24.5382 83.0722L25.0245 83.2668L25.3959 82.3383ZM26.5112 82.7844L26.1398 83.7129L26.6147 83.9028L27.0467 83.6289L26.5112 82.7844ZM27.6543 82.0595L28.3614 81.3524L27.7951 80.7861L27.1187 81.215L27.6543 82.0595ZM29.9126 84.3178L30.7629 84.8442L31.1798 84.1708L30.6197 83.6107L29.9126 84.3178ZM29.1877 85.4888L28.3375 84.9625L28.0647 85.4031L28.2674 85.88L29.1877 85.4888ZM31.2234 85.936L29.8851 85.6294L29.4383 87.5788L30.7766 87.8855L31.2234 85.936ZM32 90.0892V86.9108H30V90.0892H32ZM29.8851 91.3706L31.2234 91.064L30.7766 89.1145L29.4383 89.4212L29.8851 91.3706ZM30.1441 91.8825L30.5902 90.7673L28.7332 90.0245L28.2871 91.1398L30.1441 91.8825ZM30.785 92.1187L30.0601 90.9756L28.3711 92.0467L29.096 93.1898L30.785 92.1187ZM28.3893 95.6197L30.6476 93.3614L29.2334 91.9472L26.975 94.2055L28.3893 95.6197ZM25.9848 95.038L27.1558 95.7629L28.2085 94.0624L27.0375 93.3375L25.9848 95.038ZM25.7871 95.582L26.9023 95.1081L26.12 93.2674L25.0048 93.7414L25.7871 95.582ZM26.064 96.2234L26.3706 94.8851L24.4212 94.4383L24.1145 95.7766L26.064 96.2234ZM21.9108 97H25.0892V95H21.9108V97ZM20.6294 94.8851L20.936 96.2234L22.8855 95.7766L22.5788 94.4383L20.6294 94.8851ZM20.1175 95.1441L21.2327 95.5902L21.9755 93.7332L20.8602 93.2871L20.1175 95.1441ZM19.8813 95.785L21.0244 95.0601L19.9533 93.3711L18.8102 94.096L19.8813 95.785ZM16.3803 93.3893L18.6386 95.6476L20.0528 94.2334L17.7945 91.975L16.3803 93.3893ZM16.962 90.9848L16.2371 92.1558L17.9376 93.2085L18.6625 92.0375L16.962 90.9848ZM16.418 90.7871L16.8919 91.9023L18.7326 91.12L18.2586 90.0048L16.418 90.7871ZM15.7766 91.064L17.1149 91.3706L17.5617 89.4212L16.2234 89.1145L15.7766 91.064ZM15 86.9108V90.0892H17V86.9108H15ZM17.1149 85.6294L15.7766 85.936L16.2234 87.8855L17.5617 87.5788L17.1149 85.6294ZM16.8559 85.1175L16.4098 86.2327L18.2668 86.9755L18.7129 85.8602L16.8559 85.1175ZM16.215 84.8813L16.9399 86.0244L18.6289 84.9533L17.904 83.8102L16.215 84.8813ZM18.6107 81.3803L16.3524 83.6386L17.7666 85.0528L20.025 82.7945L18.6107 81.3803ZM21.0152 81.962L19.8442 81.2371L18.7915 82.9376L19.9625 83.6625L21.0152 81.962ZM21.2129 81.418L20.0977 81.8919L20.88 83.7326L21.9952 83.2586L21.2129 81.418ZM20.936 80.7766L20.6294 82.1149L22.5788 82.5617L22.8855 81.2234L20.936 80.7766ZM25.0892 80H21.9108V82H25.0892V80ZM26.3706 82.1149L26.064 80.7766L24.1145 81.2234L24.4212 82.5617L26.3706 82.1149ZM26.8825 81.8559L25.7673 81.4098L25.0245 83.2668L26.1398 83.7129L26.8825 81.8559ZM27.1187 81.215L25.9756 81.9399L27.0467 83.6289L28.1898 82.904L27.1187 81.215ZM30.6197 83.6107L28.3614 81.3524L26.9472 82.7666L29.2055 85.025L30.6197 83.6107ZM30.038 86.0152L30.7629 84.8442L29.0624 83.7915L28.3375 84.9625L30.038 86.0152ZM30.582 86.2129L30.1081 85.0977L28.2674 85.88L28.7414 86.9952L30.582 86.2129ZM24.2308 88.5C24.2308 88.9036 23.9036 89.2308 23.5 89.2308V91.2308C25.0082 91.2308 26.2308 90.0082 26.2308 88.5H24.2308ZM23.5 87.7692C23.9036 87.7692 24.2308 88.0964 24.2308 88.5H26.2308C26.2308 86.9918 25.0082 85.7692 23.5 85.7692V87.7692ZM22.7692 88.5C22.7692 88.0964 23.0964 87.7692 23.5 87.7692V85.7692C21.9918 85.7692 20.7692 86.9918 20.7692 88.5H22.7692ZM23.5 89.2308C23.0964 89.2308 22.7692 88.9036 22.7692 88.5H20.7692C20.7692 90.0082 21.9918 91.2308 23.5 91.2308V89.2308Z" fill="#444444" mask="url(#path-13-inside-2_467_17301)"/>
<path fill-rule="evenodd" clip-rule="evenodd" d="M15 130V123H16V130H15Z" fill="url(#paint3_linear_467_17301)"/>
<path fill-rule="evenodd" clip-rule="evenodd" d="M14 131.5C14 131.776 13.8081 132 13.5714 132L2.42857 132C2.19188 132 2 131.776 2 131.5C2 131.224 2.19188 131 2.42857 131L13.5714 131C13.8081 131 14 131.224 14 131.5Z" fill="url(#paint4_linear_467_17301)"/>
<path fill-rule="evenodd" clip-rule="evenodd" d="M29 131.5C29 131.776 28.8058 132 28.5663 132L17.4337 132C17.1942 132 17 131.776 17 131.5C17 131.224 17.1942 131 17.4337 131L28.5663 131C28.8058 131 29 131.224 29 131.5Z" fill="url(#paint5_linear_467_17301)"/>
<path d="M1.5 104.2C1.5 103.279 2.28138 102.5 3.28571 102.5H27.9714C28.9758 102.5 29.7571 103.279 29.7571 104.2V109.406C29.7571 110.327 28.9758 111.106 27.9714 111.106H3.28571C2.28138 111.106 1.5 110.327 1.5 109.406V104.2Z" fill="#CCCCCC" stroke="#444444"/>
<path d="M1.5 115.29C1.5 114.296 2.29563 113.5 3.26562 113.5H27.7344C28.7044 113.5 29.5 114.296 29.5 115.29V120.71C29.5 121.704 28.7044 122.5 27.7344 122.5H3.26562C2.29563 122.5 1.5 121.704 1.5 120.71V115.29Z" fill="#CCCCCC" stroke="#444444"/>
<path d="M9 107C9 108.105 8.10457 109 7 109C5.89543 109 5 108.105 5 107C5 105.895 5.89543 105 7 105C8.10457 105 9 105.895 9 107Z" fill="#444444"/>
<path d="M9 118C9 119.105 8.10457 120 7 120C5.89543 120 5 119.105 5 118C5 116.895 5.89543 116 7 116C8.10457 116 9 116.895 9 118Z" fill="#444444"/>
<path fill-rule="evenodd" clip-rule="evenodd" d="M15.5 133C16.3284 133 17 132.328 17 131.5C17 130.672 16.3284 130 15.5 130C14.6716 130 14 130.672 14 131.5C14 132.328 14.6716 133 15.5 133ZM15.5 134C16.8807 134 18 132.881 18 131.5C18 130.119 16.8807 129 15.5 129C14.1193 129 13 130.119 13 131.5C13 132.881 14.1193 134 15.5 134Z" fill="url(#paint6_linear_467_17301)"/>
<rect x="16" y="105" width="3" height="1" rx="0.5" fill="#444444"/>
<rect x="15" y="108" width="3" height="1" rx="0.5" fill="#444444"/>
<rect x="20" y="105" width="3" height="1" rx="0.5" fill="#444444"/>
<rect x="19" y="108" width="3" height="1" rx="0.5" fill="#444444"/>
<rect x="24" y="105" width="3" height="1" rx="0.5" fill="#444444"/>
<rect x="23" y="108" width="3" height="1" rx="0.5" fill="#444444"/>
<rect x="16" y="116" width="3" height="1" rx="0.5" fill="#444444"/>
<rect x="15" y="119" width="3" height="1" rx="0.5" fill="#444444"/>
<rect x="20" y="116" width="3" height="1" rx="0.5" fill="#444444"/>
<rect x="19" y="119" width="3" height="1" rx="0.5" fill="#444444"/>
<rect x="24" y="116" width="3" height="1" rx="0.5" fill="#444444"/>
<rect x="23" y="119" width="3" height="1" rx="0.5" fill="#444444"/>
<path d="M7.50001 139.331L7.50001 139.33C7.49751 138.384 8.40355 137.5 9.65337 137.5H23.3433C24.5926 137.5 25.5 138.384 25.5 139.331V164.669C25.5 165.614 24.5922 166.5 23.3433 166.5H9.65337C8.40782 166.5 7.50001 165.617 7.50001 164.669L7.50001 139.331Z" fill="#CCCCCC" stroke="#444444"/>
<path d="M14 140H17H20" stroke="#444444" stroke-linecap="round"/>
<path d="M10.5 148.081V161.041C10.5 161.158 10.5488 161.269 10.6404 161.357C10.7324 161.444 10.8596 161.5 11.0036 161.5H21.9964C22.1405 161.5 22.2676 161.444 22.3596 161.357C22.4512 161.269 22.5 161.158 22.5 161.041V147.186C22.1101 146.813 21.7214 146.443 21.3329 146.074C20.7834 145.55 20.2345 145.028 19.6833 144.5H11.0036C10.8595 144.5 10.7324 144.556 10.6404 144.643C10.5488 144.731 10.5 144.842 10.5 144.959V148.081Z" fill="#EFEFEF" stroke="#444444"/>
<path fill-rule="evenodd" clip-rule="evenodd" d="M20 149.5C20 149.224 19.8041 149 19.5625 149H13.4375C13.1959 149 13 149.224 13 149.5C13 149.776 13.1959 150 13.4375 150H19.5625C19.8041 150 20 149.776 20 149.5Z" fill="#444444"/>
<path fill-rule="evenodd" clip-rule="evenodd" d="M18 147.5C18 147.224 17.7958 147 17.5438 147H13.4562C13.2042 147 13 147.224 13 147.5C13 147.776 13.2042 148 13.4562 148H17.5438C17.7958 148 18 147.776 18 147.5Z" fill="url(#paint7_linear_467_17301)"/>
<path fill-rule="evenodd" clip-rule="evenodd" d="M16 158.5C16 158.224 15.8321 158 15.625 158H13.375C13.1679 158 13 158.224 13 158.5C13 158.776 13.1679 159 13.375 159H15.625C15.8321 159 16 158.776 16 158.5Z" fill="url(#paint8_linear_467_17301)"/>
<path fill-rule="evenodd" clip-rule="evenodd" d="M20 158.5C20 158.224 19.7761 158 19.5 158H17.5C17.2239 158 17 158.224 17 158.5C17 158.776 17.2239 159 17.5 159H19.5C19.7761 159 20 158.776 20 158.5Z" fill="url(#paint9_linear_467_17301)"/>
<path fill-rule="evenodd" clip-rule="evenodd" d="M20 151.5C20 151.224 19.8041 151 19.5625 151H13.4375C13.1959 151 13 151.224 13 151.5C13 151.776 13.1959 152 13.4375 152H19.5625C19.8041 152 20 151.776 20 151.5Z" fill="#444444"/>
<path fill-rule="evenodd" clip-rule="evenodd" d="M20 153.5C20 153.224 19.8041 153 19.5625 153H13.4375C13.1959 153 13 153.224 13 153.5C13 153.776 13.1959 154 13.4375 154H19.5625C19.8041 154 20 153.776 20 153.5Z" fill="#444444"/>
<path fill-rule="evenodd" clip-rule="evenodd" d="M20 155.5C20 155.224 19.8041 155 19.5625 155H13.4375C13.1959 155 13 155.224 13 155.5C13 155.776 13.1959 156 13.4375 156H19.5625C19.8041 156 20 155.776 20 155.5Z" fill="#444444"/>
<path d="M19.5 146.846C19.5 147.18 19.755 147.459 20.0809 147.496H20.1548H22.5V147.207L19.7929 144.5H19.5V146.846Z" fill="url(#paint10_linear_467_17301)" stroke="#444444"/>
<path d="M2.96552 199.5H29.0345C29.8581 199.5 30.5 198.809 30.5 198C30.5 197.191 29.8581 196.5 29.0345 196.5H2.96552C2.14195 196.5 1.5 197.191 1.5 198C1.5 198.809 2.14195 199.5 2.96552 199.5Z" fill="#CCCCCC" stroke="#444444" stroke-miterlimit="10" stroke-linecap="round" stroke-linejoin="round"/>
<path d="M4.5 182.5C4.5 181.395 5.39543 180.5 6.5 180.5H26.5C27.6046 180.5 28.5 181.395 28.5 182.5V196.5H4.5V182.5Z" fill="#CCCCCC" stroke="#444444"/>
<mask id="path-48-inside-3_467_17301" fill="white">
<path fill-rule="evenodd" clip-rule="evenodd" d="M29.8401 185.857L31 186.123V188.877L29.8401 189.143L29.4535 190.11L30.0818 191.1L28.1245 193.058L27.1097 192.429L26.1431 192.84L25.8773 194H23.1227L22.8569 192.84L21.8903 192.454L20.8996 193.082L18.9424 191.125L19.5706 190.11L19.1599 189.143L18 188.877V186.123L19.1599 185.857L19.5465 184.89L18.9182 183.9L20.8755 181.942L21.8903 182.571L22.8569 182.16L23.1227 181H25.8773L26.1431 182.16L27.1097 182.546L28.1004 181.918L30.0576 183.875L29.4294 184.89L29.8401 185.857ZM24.5 189C25.3284 189 26 188.328 26 187.5C26 186.672 25.3284 186 24.5 186C23.6716 186 23 186.672 23 187.5C23 188.328 23.6716 189 24.5 189Z"/>
</mask>
<path fill-rule="evenodd" clip-rule="evenodd" d="M29.8401 185.857L31 186.123V188.877L29.8401 189.143L29.4535 190.11L30.0818 191.1L28.1245 193.058L27.1097 192.429L26.1431 192.84L25.8773 194H23.1227L22.8569 192.84L21.8903 192.454L20.8996 193.082L18.9424 191.125L19.5706 190.11L19.1599 189.143L18 188.877V186.123L19.1599 185.857L19.5465 184.89L18.9182 183.9L20.8755 181.942L21.8903 182.571L22.8569 182.16L23.1227 181H25.8773L26.1431 182.16L27.1097 182.546L28.1004 181.918L30.0576 183.875L29.4294 184.89L29.8401 185.857ZM24.5 189C25.3284 189 26 188.328 26 187.5C26 186.672 25.3284 186 24.5 186C23.6716 186 23 186.672 23 187.5C23 188.328 23.6716 189 24.5 189Z" fill="url(#paint11_linear_467_17301)"/>
<path d="M31 186.123H32V185.326L31.2234 185.148L31 186.123ZM29.8401 185.857L28.9198 186.248L29.1194 186.718L29.6168 186.832L29.8401 185.857ZM31 188.877L31.2234 189.852L32 189.674V188.877H31ZM29.8401 189.143L29.6168 188.168L29.1062 188.285L28.9117 188.772L29.8401 189.143ZM29.4535 190.11L28.5251 189.738L28.3351 190.213L28.609 190.645L29.4535 190.11ZM30.0818 191.1L30.7889 191.807L31.3552 191.241L30.9263 190.565L30.0818 191.1ZM28.1245 193.058L27.5982 193.908L28.2716 194.325L28.8316 193.765L28.1245 193.058ZM27.1097 192.429L27.636 191.579L27.1954 191.306L26.7185 191.509L27.1097 192.429ZM26.1431 192.84L25.752 191.92L25.2824 192.119L25.1684 192.617L26.1431 192.84ZM25.8773 194V195H26.6741L26.8521 194.223L25.8773 194ZM23.1227 194L22.1479 194.223L22.3259 195H23.1227V194ZM22.8569 192.84L23.8316 192.617L23.7146 192.106L23.2283 191.912L22.8569 192.84ZM21.8903 192.454L22.2617 191.525L21.7868 191.335L21.3548 191.609L21.8903 192.454ZM20.8996 193.082L20.1925 193.789L20.7588 194.355L21.4352 193.926L20.8996 193.082ZM18.9424 191.125L18.0921 190.598L17.6752 191.272L18.2353 191.832L18.9424 191.125ZM19.5706 190.11L20.4209 190.636L20.6936 190.195L20.491 189.719L19.5706 190.11ZM19.1599 189.143L20.0802 188.752L19.8806 188.282L19.3832 188.168L19.1599 189.143ZM18 188.877H17V189.674L17.7766 189.852L18 188.877ZM18 186.123L17.7766 185.148L17 185.326V186.123H18ZM19.1599 185.857L19.3832 186.832L19.8938 186.715L20.0883 186.228L19.1599 185.857ZM19.5465 184.89L20.4749 185.262L20.6649 184.787L20.391 184.355L19.5465 184.89ZM18.9182 183.9L18.2111 183.193L17.6448 183.759L18.0737 184.435L18.9182 183.9ZM20.8755 181.942L21.4018 181.092L20.7284 180.675L20.1684 181.235L20.8755 181.942ZM21.8903 182.571L21.364 183.421L21.8046 183.694L22.2815 183.491L21.8903 182.571ZM22.8569 182.16L23.248 183.08L23.7176 182.881L23.8316 182.383L22.8569 182.16ZM23.1227 181V180H22.3259L22.1479 180.777L23.1227 181ZM25.8773 181L26.8521 180.777L26.6741 180H25.8773V181ZM26.1431 182.16L25.1684 182.383L25.2854 182.894L25.7717 183.088L26.1431 182.16ZM27.1097 182.546L26.7383 183.475L27.2132 183.665L27.6452 183.391L27.1097 182.546ZM28.1004 181.918L28.8075 181.211L28.2412 180.645L27.5648 181.074L28.1004 181.918ZM30.0576 183.875L30.9079 184.402L31.3248 183.728L30.7647 183.168L30.0576 183.875ZM29.4294 184.89L28.5791 184.364L28.3064 184.805L28.509 185.281L29.4294 184.89ZM31.2234 185.148L30.0635 184.882L29.6168 186.832L30.7766 187.097L31.2234 185.148ZM32 188.877V186.123H30V188.877H32ZM30.0635 190.118L31.2234 189.852L30.7766 187.903L29.6168 188.168L30.0635 190.118ZM30.382 190.481L30.7686 189.515L28.9117 188.772L28.5251 189.738L30.382 190.481ZM30.9263 190.565L30.298 189.574L28.609 190.645L29.2373 191.636L30.9263 190.565ZM28.8316 193.765L30.7889 191.807L29.3747 190.393L27.4174 192.351L28.8316 193.765ZM26.5833 193.28L27.5982 193.908L28.6509 192.207L27.636 191.579L26.5833 193.28ZM26.5343 193.76L27.5008 193.35L26.7185 191.509L25.752 191.92L26.5343 193.76ZM26.8521 194.223L27.1179 193.064L25.1684 192.617L24.9026 193.777L26.8521 194.223ZM23.1227 195H25.8773V193H23.1227V195ZM21.8821 193.064L22.1479 194.223L24.0974 193.777L23.8316 192.617L21.8821 193.064ZM21.5189 193.382L22.4855 193.769L23.2283 191.912L22.2617 191.525L21.5189 193.382ZM21.4352 193.926L22.4259 193.298L21.3548 191.609L20.3641 192.237L21.4352 193.926ZM18.2353 191.832L20.1925 193.789L21.6067 192.375L19.6495 190.417L18.2353 191.832ZM18.7204 189.583L18.0921 190.598L19.7926 191.651L20.4209 190.636L18.7204 189.583ZM18.2395 189.534L18.6503 190.501L20.491 189.719L20.0802 188.752L18.2395 189.534ZM17.7766 189.852L18.9365 190.118L19.3832 188.168L18.2234 187.903L17.7766 189.852ZM17 186.123V188.877H19V186.123H17ZM18.9365 184.882L17.7766 185.148L18.2234 187.097L19.3832 186.832L18.9365 184.882ZM18.618 184.519L18.2314 185.485L20.0883 186.228L20.4749 185.262L18.618 184.519ZM18.0737 184.435L18.702 185.426L20.391 184.355L19.7627 183.364L18.0737 184.435ZM20.1684 181.235L18.2111 183.193L19.6253 184.607L21.5826 182.649L20.1684 181.235ZM22.4167 181.72L21.4018 181.092L20.3491 182.793L21.364 183.421L22.4167 181.72ZM22.4657 181.24L21.4992 181.65L22.2815 183.491L23.248 183.08L22.4657 181.24ZM22.1479 180.777L21.8821 181.936L23.8316 182.383L24.0974 181.223L22.1479 180.777ZM25.8773 180H23.1227V182H25.8773V180ZM27.1179 181.936L26.8521 180.777L24.9026 181.223L25.1684 182.383L27.1179 181.936ZM27.4811 181.618L26.5145 181.231L25.7717 183.088L26.7383 183.475L27.4811 181.618ZM27.5648 181.074L26.5741 181.702L27.6452 183.391L28.6359 182.763L27.5648 181.074ZM30.7647 183.168L28.8075 181.211L27.3933 182.625L29.3505 184.583L30.7647 183.168ZM30.2796 185.417L30.9079 184.402L29.2074 183.349L28.5791 184.364L30.2796 185.417ZM30.7605 185.466L30.3497 184.499L28.509 185.281L28.9198 186.248L30.7605 185.466ZM25 187.5C25 187.776 24.7761 188 24.5 188V190C25.8807 190 27 188.881 27 187.5H25ZM24.5 187C24.7761 187 25 187.224 25 187.5H27C27 186.119 25.8807 185 24.5 185V187ZM24 187.5C24 187.224 24.2239 187 24.5 187V185C23.1193 185 22 186.119 22 187.5H24ZM24.5 188C24.2239 188 24 187.776 24 187.5H22C22 188.881 23.1193 190 24.5 190V188Z" fill="#444444" mask="url(#path-48-inside-3_467_17301)"/>
<path d="M3.5 179.081V192.041C3.5 192.158 3.5488 192.269 3.64042 192.357C3.73236 192.444 3.85955 192.5 4.00361 192.5H14.9964C15.1405 192.5 15.2676 192.444 15.3596 192.357C15.4512 192.269 15.5 192.158 15.5 192.041V178.186C15.1101 177.813 14.7214 177.443 14.3329 177.074C13.7834 176.55 13.2345 176.028 12.6833 175.5H4.00361C3.85955 175.5 3.73235 175.556 3.64042 175.643C3.5488 175.731 3.5 175.842 3.5 175.959V179.081Z" fill="#EFEFEF" stroke="#444444"/>
<path fill-rule="evenodd" clip-rule="evenodd" d="M13 180.5C13 180.224 12.8041 180 12.5625 180H6.4375C6.19588 180 6 180.224 6 180.5C6 180.776 6.19588 181 6.4375 181H12.5625C12.8041 181 13 180.776 13 180.5Z" fill="#444444"/>
<path fill-rule="evenodd" clip-rule="evenodd" d="M11 178.5C11 178.224 10.7958 178 10.5438 178H6.4562C6.20425 178 6 178.224 6 178.5C6 178.776 6.20425 179 6.4562 179H10.5438C10.7958 179 11 178.776 11 178.5Z" fill="url(#paint12_linear_467_17301)"/>
<path fill-rule="evenodd" clip-rule="evenodd" d="M9 189.5C9 189.224 8.83211 189 8.625 189H6.375C6.16789 189 6 189.224 6 189.5C6 189.776 6.16789 190 6.375 190H8.625C8.83211 190 9 189.776 9 189.5Z" fill="url(#paint13_linear_467_17301)"/>
<path fill-rule="evenodd" clip-rule="evenodd" d="M13 189.5C13 189.224 12.7761 189 12.5 189H10.5C10.2239 189 10 189.224 10 189.5C10 189.776 10.2239 190 10.5 190H12.5C12.7761 190 13 189.776 13 189.5Z" fill="url(#paint14_linear_467_17301)"/>
<path fill-rule="evenodd" clip-rule="evenodd" d="M13 182.5C13 182.224 12.8041 182 12.5625 182H6.4375C6.19588 182 6 182.224 6 182.5C6 182.776 6.19588 183 6.4375 183H12.5625C12.8041 183 13 182.776 13 182.5Z" fill="#444444"/>
<path fill-rule="evenodd" clip-rule="evenodd" d="M13 184.5C13 184.224 12.8041 184 12.5625 184H6.4375C6.19588 184 6 184.224 6 184.5C6 184.776 6.19588 185 6.4375 185H12.5625C12.8041 185 13 184.776 13 184.5Z" fill="#444444"/>
<path fill-rule="evenodd" clip-rule="evenodd" d="M13 186.5C13 186.224 12.8041 186 12.5625 186H6.4375C6.19588 186 6 186.224 6 186.5C6 186.776 6.19588 187 6.4375 187H12.5625C12.8041 187 13 186.776 13 186.5Z" fill="#444444"/>
<path d="M12.5 177.846C12.5 178.18 12.755 178.459 13.0809 178.496H13.1548H15.5V178.207L12.7929 175.5H12.5V177.846Z" fill="url(#paint15_linear_467_17301)" stroke="#444444"/>
<path d="M26.5 231C26.5 231.828 25.8284 232.5 25 232.5H7C6.17157 232.5 5.5 231.828 5.5 231V207C5.5 206.172 6.17157 205.5 7 205.5H20.1987C20.5844 205.5 20.9554 205.649 21.2344 205.915L26.0357 210.498C26.3322 210.781 26.5 211.173 26.5 211.583V231Z" fill="#EFEFEF" stroke="#444444"/>
<path d="M20.5 209.981C20.5 210.766 21.1038 211.417 21.8715 211.493H22.0209H26.5V210.457L21.5429 205.5H20.5V209.981Z" fill="url(#paint16_linear_467_17301)" stroke="#444444"/>
<rect x="9" y="209" width="8" height="1" rx="0.5" fill="#444444"/>
<rect x="9" y="215" width="14" height="1" rx="0.5" fill="#444444"/>
<rect x="9" y="218" width="14" height="1" rx="0.5" fill="#444444"/>
<rect x="9" y="212" width="8" height="1" rx="0.5" fill="#444444"/>
<path d="M13.5 223C13.5 222.172 14.1716 221.5 15 221.5H29C29.8284 221.5 30.5 222.172 30.5 223V234C30.5 234.276 30.2761 234.5 30 234.5H14C13.7239 234.5 13.5 234.276 13.5 234V223Z" fill="#CCCCCC" stroke="#444444"/>
<path d="M13.5 223C13.5 222.172 14.1716 221.5 15 221.5H29C29.8284 221.5 30.5 222.172 30.5 223V224.5H13.5V223Z" fill="url(#paint17_linear_467_17301)" stroke="#444444"/>
<path fill-rule="evenodd" clip-rule="evenodd" d="M25.6486 231.83C25.4071 231.602 25.4071 231.233 25.6486 231.006L27.2494 229.5L25.6486 227.994C25.4071 227.767 25.4071 227.397 25.6486 227.17C25.8901 226.943 26.2825 226.943 26.524 227.17L29 229.5L26.524 231.83C26.2825 232.057 25.8901 232.057 25.6486 231.83ZM18.476 231.83L16 229.5L18.476 227.17C18.7175 226.943 19.1099 226.943 19.3514 227.17C19.5929 227.397 19.5929 227.767 19.3514 227.994L17.7506 229.5L19.3514 231.006C19.5929 231.233 19.5929 231.602 19.3514 231.83C19.1099 232.057 18.7175 232.057 18.476 231.83ZM20.9853 231.048C20.8325 231.336 20.9569 231.686 21.2626 231.83C21.5685 231.973 21.9405 231.857 22.0929 231.569L24.0155 227.951C24.1684 227.664 24.0445 227.314 23.7388 227.17C23.433 227.027 23.061 227.143 22.908 227.431L20.9853 231.048Z" fill="#444444"/>
<mask id="path-68-inside-4_467_17301" fill="white">
<path fill-rule="evenodd" clip-rule="evenodd" d="M27 247.457V252.543L24.8587 253.033L24.145 254.818L25.3048 256.647L21.6915 260.26L19.8178 259.1L18.0335 259.859L17.5428 262H12.4572L11.9665 259.859L10.1822 259.145L8.35316 260.305L4.73978 256.691L5.89963 254.818L5.14126 253.033L3 252.543V247.457L5.14126 246.967L5.85502 245.182L4.69517 243.353L8.30855 239.74L10.1822 240.9L11.9665 240.141L12.4572 238H17.5428L18.0335 240.141L19.8178 240.855L21.6468 239.695L25.2602 243.309L24.1004 245.182L24.8587 246.967L27 247.457ZM15 254C17.2091 254 19 252.209 19 250C19 247.791 17.2091 246 15 246C12.7909 246 11 247.791 11 250C11 252.209 12.7909 254 15 254Z"/>
</mask>
<path fill-rule="evenodd" clip-rule="evenodd" d="M27 247.457V252.543L24.8587 253.033L24.145 254.818L25.3048 256.647L21.6915 260.26L19.8178 259.1L18.0335 259.859L17.5428 262H12.4572L11.9665 259.859L10.1822 259.145L8.35316 260.305L4.73978 256.691L5.89963 254.818L5.14126 253.033L3 252.543V247.457L5.14126 246.967L5.85502 245.182L4.69517 243.353L8.30855 239.74L10.1822 240.9L11.9665 240.141L12.4572 238H17.5428L18.0335 240.141L19.8178 240.855L21.6468 239.695L25.2602 243.309L24.1004 245.182L24.8587 246.967L27 247.457ZM15 254C17.2091 254 19 252.209 19 250C19 247.791 17.2091 246 15 246C12.7909 246 11 247.791 11 250C11 252.209 12.7909 254 15 254Z" fill="#EFEFEF"/>
<path d="M27 252.543L27.2234 253.517L28 253.34V252.543H27ZM27 247.457H28V246.66L27.2234 246.483L27 247.457ZM24.8587 253.033L24.6354 252.059L24.1248 252.176L23.9303 252.662L24.8587 253.033ZM24.145 254.818L23.2165 254.446L23.0265 254.921L23.3005 255.353L24.145 254.818ZM25.3048 256.647L26.0119 257.354L26.5782 256.788L26.1493 256.111L25.3048 256.647ZM21.6915 260.26L21.1651 261.11L21.8385 261.527L22.3986 260.967L21.6915 260.26ZM19.8178 259.1L20.3442 258.25L19.9036 257.977L19.4267 258.18L19.8178 259.1ZM18.0335 259.859L17.6423 258.938L17.1727 259.138L17.0587 259.635L18.0335 259.859ZM17.5428 262V263H18.3395L18.5175 262.223L17.5428 262ZM12.4572 262L11.4825 262.223L11.6605 263H12.4572V262ZM11.9665 259.859L12.9413 259.635L12.8243 259.125L12.3379 258.93L11.9665 259.859ZM10.1822 259.145L10.5535 258.217L10.0786 258.027L9.64661 258.3L10.1822 259.145ZM8.35316 260.305L7.64605 261.012L8.21236 261.578L8.8887 261.149L8.35316 260.305ZM4.73978 256.691L3.88951 256.165L3.47263 256.839L4.03267 257.399L4.73978 256.691ZM5.89963 254.818L6.74989 255.344L7.02264 254.904L6.81996 254.427L5.89963 254.818ZM5.14126 253.033L6.06159 252.642L5.86201 252.173L5.36464 252.059L5.14126 253.033ZM3 252.543H2V253.34L2.77662 253.517L3 252.543ZM3 247.457L2.77662 246.483L2 246.66V247.457H3ZM5.14126 246.967L5.36464 247.941L5.87521 247.824L6.06974 247.338L5.14126 246.967ZM5.85502 245.182L6.7835 245.554L6.97347 245.079L6.69953 244.647L5.85502 245.182ZM4.69517 243.353L3.98806 242.646L3.42176 243.212L3.85066 243.889L4.69517 243.353ZM8.30855 239.74L8.83491 238.89L8.16148 238.473L7.60144 239.033L8.30855 239.74ZM10.1822 240.9L9.6558 241.75L10.0964 242.023L10.5733 241.82L10.1822 240.9ZM11.9665 240.141L12.3577 241.062L12.8273 240.862L12.9413 240.365L11.9665 240.141ZM12.4572 238V237H11.6605L11.4825 237.777L12.4572 238ZM17.5428 238L18.5175 237.777L18.3395 237H17.5428V238ZM18.0335 240.141L17.0587 240.365L17.1757 240.875L17.6621 241.07L18.0335 240.141ZM19.8178 240.855L19.4465 241.783L19.9214 241.973L20.3534 241.7L19.8178 240.855ZM21.6468 239.695L22.3539 238.988L21.7876 238.422L21.1113 238.851L21.6468 239.695ZM25.2602 243.309L26.1105 243.835L26.5274 243.161L25.9673 242.601L25.2602 243.309ZM24.1004 245.182L23.2501 244.656L22.9774 245.096L23.18 245.573L24.1004 245.182ZM24.8587 246.967L23.9384 247.358L24.138 247.827L24.6354 247.941L24.8587 246.967ZM28 252.543V247.457H26V252.543H28ZM25.0821 254.008L27.2234 253.517L26.7766 251.568L24.6354 252.059L25.0821 254.008ZM25.0735 255.189L25.7872 253.405L23.9303 252.662L23.2165 254.446L25.0735 255.189ZM26.1493 256.111L24.9895 254.282L23.3005 255.353L24.4603 257.182L26.1493 256.111ZM22.3986 260.967L26.0119 257.354L24.5977 255.94L20.9843 259.553L22.3986 260.967ZM19.2915 259.951L21.1651 261.11L22.2178 259.41L20.3442 258.25L19.2915 259.951ZM18.4246 260.779L20.209 260.021L19.4267 258.18L17.6423 258.938L18.4246 260.779ZM18.5175 262.223L19.0082 260.082L17.0587 259.635L16.568 261.777L18.5175 262.223ZM12.4572 263H17.5428V261H12.4572V263ZM10.9918 260.082L11.4825 262.223L13.432 261.777L12.9413 259.635L10.9918 260.082ZM9.81077 260.073L11.5952 260.787L12.3379 258.93L10.5535 258.217L9.81077 260.073ZM8.8887 261.149L10.7177 259.989L9.64661 258.3L7.81762 259.46L8.8887 261.149ZM4.03267 257.399L7.64605 261.012L9.06027 259.598L5.44688 255.984L4.03267 257.399ZM5.04936 254.291L3.88951 256.165L5.59004 257.218L6.74989 255.344L5.04936 254.291ZM4.22093 253.425L4.9793 255.209L6.81996 254.427L6.06159 252.642L4.22093 253.425ZM2.77662 253.517L4.91789 254.008L5.36464 252.059L3.22338 251.568L2.77662 253.517ZM2 247.457V252.543H4V247.457H2ZM4.91789 245.992L2.77662 246.483L3.22338 248.432L5.36464 247.941L4.91789 245.992ZM4.92654 244.811L4.21279 246.595L6.06974 247.338L6.7835 245.554L4.92654 244.811ZM3.85066 243.889L5.01051 245.718L6.69953 244.647L5.53968 242.818L3.85066 243.889ZM7.60144 239.033L3.98806 242.646L5.40227 244.06L9.01566 240.447L7.60144 239.033ZM10.7085 240.049L8.83491 238.89L7.7822 240.59L9.6558 241.75L10.7085 240.049ZM11.5754 239.221L9.79102 239.979L10.5733 241.82L12.3577 241.062L11.5754 239.221ZM11.4825 237.777L10.9918 239.918L12.9413 240.365L13.432 238.223L11.4825 237.777ZM17.5428 237H12.4572V239H17.5428V237ZM19.0082 239.918L18.5175 237.777L16.568 238.223L17.0587 240.365L19.0082 239.918ZM20.1892 239.927L18.4048 239.213L17.6621 241.07L19.4465 241.783L20.1892 239.927ZM21.1113 238.851L19.2823 240.011L20.3534 241.7L22.1824 240.54L21.1113 238.851ZM25.9673 242.601L22.3539 238.988L20.9397 240.402L24.5531 244.016L25.9673 242.601ZM24.9506 245.709L26.1105 243.835L24.41 242.782L23.2501 244.656L24.9506 245.709ZM25.7791 246.575L25.0207 244.791L23.18 245.573L23.9384 247.358L25.7791 246.575ZM27.2234 246.483L25.0821 245.992L24.6354 247.941L26.7766 248.432L27.2234 246.483ZM18 250C18 251.657 16.6569 253 15 253V255C17.7614 255 20 252.761 20 250H18ZM15 247C16.6569 247 18 248.343 18 250H20C20 247.239 17.7614 245 15 245V247ZM12 250C12 248.343 13.3431 247 15 247V245C12.2386 245 10 247.239 10 250H12ZM15 253C13.3431 253 12 251.657 12 250H10C10 252.761 12.2386 255 15 255V253Z" fill="#444444" mask="url(#path-68-inside-4_467_17301)"/>
<path d="M22.2788 252.755L21.9253 252.401L21.5717 252.755L12.4505 261.876C11.2789 263.048 11.2789 264.947 12.4505 266.119C13.6221 267.29 15.5216 267.29 16.6932 266.119L25.8144 256.997L26.1679 256.644L25.8144 256.29L22.2788 252.755Z" fill="url(#paint18_linear_467_17301)" stroke="#444444"/>
<path d="M31.7853 249.95L28.2791 253.456L25.3446 252.655L24.5443 249.721L28.0504 246.215C26.183 245.681 24.0869 246.139 22.6006 247.625C20.4665 249.759 20.4665 253.265 22.6006 255.399C24.7348 257.534 28.241 257.534 30.3752 255.399C31.8615 253.913 32.3188 251.817 31.7853 249.95Z" fill="#CCCCCC" stroke="#444444" stroke-miterlimit="10" stroke-linecap="round" stroke-linejoin="round"/>
<rect x="13" y="264.121" width="3" height="2" rx="1" transform="rotate(-45 13 264.121)" fill="#444444"/>
<defs>
<linearGradient id="paint0_linear_467_17301" x1="16.258" y1="3" x2="16.258" y2="19.0198" gradientUnits="userSpaceOnUse">
<stop stop-color="#FF8E3D"/>
<stop offset="1" stop-color="#FF6F3D"/>
</linearGradient>
<linearGradient id="paint1_linear_467_17301" x1="22.5" y1="52" x2="22.5" y2="62" gradientUnits="userSpaceOnUse">
<stop stop-color="#FF8E3D"/>
<stop offset="1" stop-color="#FF6F3D"/>
</linearGradient>
<linearGradient id="paint2_linear_467_17301" x1="23.5" y1="81" x2="23.5" y2="96" gradientUnits="userSpaceOnUse">
<stop stop-color="#FF8E3D"/>
<stop offset="1" stop-color="#FF6F3D"/>
</linearGradient>
<linearGradient id="paint3_linear_467_17301" x1="15.5" y1="123" x2="15.5" y2="130" gradientUnits="userSpaceOnUse">
<stop stop-color="#FF8E3D"/>
<stop offset="1" stop-color="#FF6F3D"/>
</linearGradient>
<linearGradient id="paint4_linear_467_17301" x1="14" y1="131.5" x2="2" y2="131.5" gradientUnits="userSpaceOnUse">
<stop stop-color="#FF8E3D"/>
<stop offset="1" stop-color="#FF6F3D"/>
</linearGradient>
<linearGradient id="paint5_linear_467_17301" x1="29" y1="131.5" x2="17" y2="131.5" gradientUnits="userSpaceOnUse">
<stop stop-color="#FF8E3D"/>
<stop offset="1" stop-color="#FF6F3D"/>
</linearGradient>
<linearGradient id="paint6_linear_467_17301" x1="15.5" y1="129" x2="15.5" y2="134" gradientUnits="userSpaceOnUse">
<stop stop-color="#FF8E3D"/>
<stop offset="1" stop-color="#FF6F3D"/>
</linearGradient>
<linearGradient id="paint7_linear_467_17301" x1="15.5" y1="147" x2="15.5" y2="148" gradientUnits="userSpaceOnUse">
<stop stop-color="#FF8E3D"/>
<stop offset="1" stop-color="#FF6F3D"/>
</linearGradient>
<linearGradient id="paint8_linear_467_17301" x1="14.5" y1="158" x2="14.5" y2="159" gradientUnits="userSpaceOnUse">
<stop stop-color="#FF8E3D"/>
<stop offset="1" stop-color="#FF6F3D"/>
</linearGradient>
<linearGradient id="paint9_linear_467_17301" x1="18.5" y1="158" x2="18.5" y2="159" gradientUnits="userSpaceOnUse">
<stop stop-color="#FF8E3D"/>
<stop offset="1" stop-color="#FF6F3D"/>
</linearGradient>
<linearGradient id="paint10_linear_467_17301" x1="21" y1="144" x2="21" y2="148" gradientUnits="userSpaceOnUse">
<stop stop-color="#FF8E3D"/>
<stop offset="1" stop-color="#FF6F3D"/>
</linearGradient>
<linearGradient id="paint11_linear_467_17301" x1="24.5" y1="181" x2="24.5" y2="194" gradientUnits="userSpaceOnUse">
<stop stop-color="#FF8E3D"/>
<stop offset="1" stop-color="#FF6F3D"/>
</linearGradient>
<linearGradient id="paint12_linear_467_17301" x1="8.5" y1="178" x2="8.5" y2="179" gradientUnits="userSpaceOnUse">
<stop stop-color="#FF8E3D"/>
<stop offset="1" stop-color="#FF6F3D"/>
</linearGradient>
<linearGradient id="paint13_linear_467_17301" x1="7.5" y1="189" x2="7.5" y2="190" gradientUnits="userSpaceOnUse">
<stop stop-color="#FF8E3D"/>
<stop offset="1" stop-color="#FF6F3D"/>
</linearGradient>
<linearGradient id="paint14_linear_467_17301" x1="11.5" y1="189" x2="11.5" y2="190" gradientUnits="userSpaceOnUse">
<stop stop-color="#FF8E3D"/>
<stop offset="1" stop-color="#FF6F3D"/>
</linearGradient>
<linearGradient id="paint15_linear_467_17301" x1="14" y1="175" x2="14" y2="179" gradientUnits="userSpaceOnUse">
<stop stop-color="#FF8E3D"/>
<stop offset="1" stop-color="#FF6F3D"/>
</linearGradient>
<linearGradient id="paint16_linear_467_17301" x1="23.5" y1="205" x2="23.5" y2="212" gradientUnits="userSpaceOnUse">
<stop stop-color="#FF8E3D"/>
<stop offset="1" stop-color="#FF6F3D"/>
</linearGradient>
<linearGradient id="paint17_linear_467_17301" x1="22" y1="221" x2="22" y2="225" gradientUnits="userSpaceOnUse">
<stop stop-color="#FF8E3D"/>
<stop offset="1" stop-color="#FF6F3D"/>
</linearGradient>
<linearGradient id="paint18_linear_467_17301" x1="23.6931" y1="254.876" x2="12.8041" y2="265.765" gradientUnits="userSpaceOnUse">
<stop stop-color="#FF8E3D"/>
<stop offset="1" stop-color="#FF6F3D"/>
</linearGradient>
</defs>
</svg>
