<svg width="33" height="270" viewBox="0 0 33 270" fill="none" xmlns="http://www.w3.org/2000/svg">
<path d="M12.652 29.9996C12.5195 29.9995 12.3884 29.973 12.2669 29.9217L8.9791 28.5996C8.73677 28.5026 8.5447 28.3153 8.44592 28.0797C8.34832 27.8473 8.35257 27.5863 8.45769 27.3569L9.2407 25.521C8.47016 24.9525 7.78263 24.2854 7.1969 23.5378L5.28705 24.3029C5.04915 24.3993 4.78127 24.3989 4.54372 24.3017C4.3063 24.2066 4.11735 24.0243 4.01821 23.7944L2.65662 20.5905C2.45035 20.1154 2.67798 19.5678 3.16636 19.3643C3.73138 19.1384 5.16121 18.3311 6.7096 17.8305C8.25799 17.3299 9.03218 18.0808 9.37802 19.0821C10.8478 23.3373 18.9281 25.4167 21.6773 20.0833C21.8272 19.7927 22.2018 18.8362 22.6117 18.1287C22.9677 17.5802 23.4974 17.317 24.4002 17.6956C25.3143 18.0789 26.4912 18.6013 27.034 18.8145L28.3845 19.3599C28.6248 19.4551 28.8152 19.6405 28.9123 19.8741C29.0096 20.1051 29.009 20.364 28.9105 20.5945L27.5434 23.7925C27.4447 24.0263 27.2533 24.2119 27.0121 24.3073C26.7709 24.4027 26.5003 24.4 26.2611 24.2997L24.3641 23.5381C23.7794 24.2852 23.092 24.9512 22.3211 25.5175L23.1088 27.3685C23.2101 27.5949 23.2125 27.8516 23.1155 28.0798C23.0165 28.316 22.8237 28.5036 22.5805 28.6005L19.2876 29.9247C19.0491 30.0216 18.7806 30.022 18.5418 29.9257C18.3031 29.8294 18.114 29.6444 18.0167 29.4121L17.2256 27.5638C16.2676 27.6935 15.2957 27.6948 14.3373 27.5678L13.5496 29.4143C13.4003 29.7677 13.0457 29.9987 12.652 29.9996Z" fill="#CCCCCC"/>
<path d="M12.652 29.9996L12.6516 30.4996L12.6532 30.4996L12.652 29.9996ZM12.2669 29.9217L12.4612 29.461L12.4534 29.4578L12.2669 29.9217ZM8.9791 28.5996L9.16565 28.1357L9.16501 28.1355L8.9791 28.5996ZM8.44592 28.0797L8.90702 27.8864L8.90693 27.8862L8.44592 28.0797ZM8.45769 27.3569L8.91238 27.5654L8.91761 27.5531L8.45769 27.3569ZM9.2407 25.521L9.70062 25.7171L9.85575 25.3533L9.53752 25.1186L9.2407 25.521ZM7.1969 23.5378L7.59048 23.2294L7.35915 22.9342L7.01096 23.0737L7.1969 23.5378ZM5.28705 24.3029L5.10111 23.8387L5.09922 23.8395L5.28705 24.3029ZM4.54372 24.3017L4.73309 23.8389L4.72952 23.8375L4.54372 24.3017ZM4.01821 23.7944L3.55803 23.99L3.5591 23.9925L4.01821 23.7944ZM2.65662 20.5905L3.1168 20.395L3.11527 20.3914L2.65662 20.5905ZM3.16636 19.3643L2.98073 18.9L2.97406 18.9028L3.16636 19.3643ZM21.6773 20.0833L22.1218 20.3124L21.6773 20.0833ZM27.034 18.8145L27.2212 18.3508L27.2167 18.3491L27.034 18.8145ZM28.3845 19.3599L28.1973 19.8235L28.2004 19.8247L28.3845 19.3599ZM28.9123 19.8741L28.4506 20.066L28.4515 20.0682L28.9123 19.8741ZM28.9105 20.5945L29.3703 20.7911L29.3704 20.7909L28.9105 20.5945ZM27.5434 23.7925L27.0836 23.596L27.0827 23.5982L27.5434 23.7925ZM27.0121 24.3073L27.196 24.7722L27.0121 24.3073ZM26.2611 24.2997L26.4545 23.8386L26.4474 23.8357L26.2611 24.2997ZM24.3641 23.5381L24.5503 23.0741L24.2018 22.9342L23.9703 23.2299L24.3641 23.5381ZM22.3211 25.5175L22.025 25.1145L21.7059 25.3489L21.861 25.7133L22.3211 25.5175ZM23.1088 27.3685L22.6486 27.5643L22.6524 27.5726L23.1088 27.3685ZM23.1155 28.0798L22.6553 27.8841L22.6543 27.8865L23.1155 28.0798ZM22.5805 28.6005L22.3955 28.1359L22.3939 28.1366L22.5805 28.6005ZM19.2876 29.9247L19.101 29.4608L19.0994 29.4615L19.2876 29.9247ZM18.5418 29.9257L18.7289 29.462L18.5418 29.9257ZM18.0167 29.4121L18.4779 29.2189L18.4763 29.2153L18.0167 29.4121ZM17.2256 27.5638L17.6852 27.3671L17.5355 27.0174L17.1585 27.0684L17.2256 27.5638ZM14.3373 27.5678L14.403 27.0721L14.0265 27.0223L13.8774 27.3716L14.3373 27.5678ZM13.5496 29.4143L13.0897 29.2181L13.089 29.2197L13.5496 29.4143ZM24.4002 17.6956L24.2068 18.1567L24.4002 17.6956ZM22.6117 18.1287L22.1923 17.8565L22.1854 17.8671L22.1791 17.8781L22.6117 18.1287ZM12.6525 29.4996C12.5862 29.4996 12.5211 29.4863 12.4612 29.461L12.0726 30.3824C12.2558 30.4597 12.4528 30.4994 12.6516 30.4996L12.6525 29.4996ZM12.4534 29.4578L9.16565 28.1357L8.79256 29.0635L12.0803 30.3856L12.4534 29.4578ZM9.16501 28.1355C9.04389 28.087 8.95276 27.9954 8.90702 27.8864L7.98482 28.2731C8.13664 28.6351 8.42964 28.9182 8.7932 29.0638L9.16501 28.1355ZM8.90693 27.8862C8.86353 27.7828 8.86534 27.6676 8.91222 27.5653L8.00316 27.1486C7.83981 27.505 7.83311 27.9118 7.98491 28.2733L8.90693 27.8862ZM8.91761 27.5531L9.70062 25.7171L8.78078 25.3248L7.99777 27.1608L8.91761 27.5531ZM9.53752 25.1186C8.80303 24.5768 8.14813 23.9412 7.59048 23.2294L6.80331 23.8462C7.41714 24.6296 8.13729 25.3283 8.94388 25.9233L9.53752 25.1186ZM7.01096 23.0737L5.10111 23.8387L5.47298 24.767L7.38283 24.0019L7.01096 23.0737ZM5.09922 23.8395C4.98231 23.8869 4.8498 23.8867 4.73308 23.8389L4.35435 24.7644C4.71274 24.9111 5.116 24.9117 5.47487 24.7663L5.09922 23.8395ZM4.72952 23.8375C4.6118 23.7903 4.52284 23.7019 4.47731 23.5964L3.5591 23.9925C3.71185 24.3466 4.00079 24.6229 4.35791 24.7659L4.72952 23.8375ZM4.47838 23.5989L3.11679 20.395L2.19645 20.7861L3.55804 23.99L4.47838 23.5989ZM3.11527 20.3914C3.02415 20.1815 3.11838 19.926 3.35866 19.8258L2.97406 18.9028C2.23757 19.2096 1.87655 20.0492 2.19797 20.7896L3.11527 20.3914ZM26.8467 19.2781L28.1973 19.8235L28.5717 18.8962L27.2212 18.3508L26.8467 19.2781ZM28.2004 19.8247C28.3182 19.8714 28.4067 19.9603 28.4507 20.066L29.374 19.6821C29.2238 19.3208 28.9314 19.0387 28.5687 18.895L28.2004 19.8247ZM28.4515 20.0682C28.4962 20.1742 28.4959 20.2923 28.4507 20.3982L29.3704 20.7909C29.522 20.4357 29.523 20.0359 29.3731 19.68L28.4515 20.0682ZM28.4508 20.398L27.0836 23.596L28.0031 23.989L29.3703 20.7911L28.4508 20.398ZM27.0827 23.5982C27.0375 23.7053 26.9476 23.7951 26.8282 23.8423L27.196 24.7722C27.5589 24.6286 27.852 24.3474 28.0041 23.9868L27.0827 23.5982ZM26.8282 23.8423C26.7083 23.8897 26.5731 23.8883 26.4545 23.8386L26.0678 24.7608C26.4274 24.9116 26.8334 24.9156 27.196 24.7722L26.8282 23.8423ZM26.4474 23.8357L24.5503 23.0741L24.1778 24.0021L26.0749 24.7637L26.4474 23.8357ZM23.9703 23.2299C23.4139 23.9409 22.7595 24.575 22.025 25.1145L22.6171 25.9205C23.4244 25.3274 24.1448 24.6296 24.7578 23.8463L23.9703 23.2299ZM21.861 25.7133L22.6487 27.5643L23.5689 27.1727L22.7811 25.3217L21.861 25.7133ZM22.6524 27.5726C22.6969 27.6722 22.6979 27.784 22.6553 27.8841L23.5756 28.2754C23.7271 27.9191 23.7233 27.5177 23.5652 27.1643L22.6524 27.5726ZM22.6543 27.8865C22.6085 27.9958 22.517 28.0875 22.3955 28.1359L22.7655 29.065C23.1303 28.9197 23.4244 28.6361 23.5766 28.273L22.6543 27.8865ZM22.3939 28.1366L19.101 29.4609L19.4742 30.3886L22.7671 29.0643L22.3939 28.1366ZM19.0994 29.4615C18.9812 29.5095 18.8472 29.5097 18.7289 29.462L18.3548 30.3894C18.7139 30.5342 19.117 30.5337 19.4758 30.388L19.0994 29.4615ZM18.7289 29.462C18.6109 29.4144 18.5223 29.3251 18.4779 29.2189L17.5555 29.6052C17.7056 29.9638 17.9953 30.2443 18.3548 30.3894L18.7289 29.462ZM18.4763 29.2153L17.6852 27.3671L16.7659 27.7606L17.557 29.6088L18.4763 29.2153ZM17.1585 27.0684C16.2446 27.192 15.3173 27.1933 14.403 27.0721L14.2717 28.0635C15.2741 28.1963 16.2906 28.1949 17.2926 28.0593L17.1585 27.0684ZM13.8774 27.3716L13.0897 29.2181L14.0095 29.6105L14.7972 27.764L13.8774 27.3716ZM13.089 29.2197C13.0205 29.3819 12.8512 29.4992 12.6509 29.4996L12.6532 30.4996C13.2403 30.4983 13.7801 30.1535 14.0102 29.6089L13.089 29.2197ZM27.9828 20.8018H27.9836V19.8018H27.9828V20.8018ZM24.2068 18.1567C25.0996 18.5311 26.3038 19.0649 26.8512 19.2799L27.2167 18.3491C26.6785 18.1377 25.529 17.6268 24.5935 17.2345L24.2068 18.1567ZM22.1218 20.3124C22.2046 20.1517 22.3504 19.8069 22.503 19.4674C22.6652 19.1067 22.8528 18.71 23.0444 18.3794L22.1791 17.8781C21.9607 18.255 21.756 18.6902 21.591 19.0573C21.4164 19.4455 21.2999 19.7243 21.2329 19.8542L22.1218 20.3124ZM23.0312 18.4009C23.1682 18.1897 23.3039 18.0856 23.4447 18.0433C23.588 18.0003 23.8224 17.9955 24.2068 18.1567L24.5935 17.2345C24.0751 17.0171 23.5932 16.9546 23.157 17.0856C22.7183 17.2174 22.4112 17.5193 22.1923 17.8565L23.0312 18.4009ZM3.35197 19.8286C3.65156 19.7088 4.19383 19.4298 4.78217 19.1528C5.3962 18.8638 6.11874 18.547 6.86342 18.3063L6.55578 17.3548C5.75207 17.6146 4.9855 17.9518 4.35626 18.2481C3.70134 18.5564 3.24618 18.7939 2.98075 18.9L3.35197 19.8286ZM8.90542 19.2453C9.72004 21.6037 12.3075 23.2699 14.9731 23.6728C17.6678 24.0802 20.6219 23.2222 22.1218 20.3124L21.2329 19.8542C19.9836 22.2779 17.5228 23.0469 15.1226 22.6841C12.6933 22.3169 10.5058 20.8157 9.85062 18.9188L8.90542 19.2453ZM6.86342 18.3063C7.54241 18.0867 7.96791 18.1651 8.24336 18.3253C8.53238 18.4934 8.75452 18.8084 8.90542 19.2453L9.85062 18.9188C9.65568 18.3545 9.3178 17.7934 8.74616 17.4609C8.16096 17.1205 7.42518 17.0737 6.55578 17.3548L6.86342 18.3063Z" fill="#444444"/>
<path fill-rule="evenodd" clip-rule="evenodd" d="M25.9546 19.5198H8.21447C4.53349 19.5198 1.54834 16.6326 1.54834 13.0696C1.54834 9.57494 4.42014 6.73032 8.00358 6.62255C9.27723 4.10775 11.9245 2.5 14.8379 2.5C17.7566 2.5 20.4082 4.11362 21.6791 6.63632C23.7866 6.7937 25.6534 8.02128 26.58 9.86079C29.1274 10.1674 31.0463 12.3057 30.9652 14.8226C30.8809 17.4417 28.6614 19.5212 25.9546 19.5198ZM25.9549 19.0198L25.9546 19.5198L25.9549 19.0198ZM25.9549 19.0198V19.5198H25.9546M25.9549 19.0198H8.21447C4.81792 19.0198 2.06447 16.3558 2.06447 13.0696C2.06447 9.78339 4.81792 7.11939 8.21447 7.11939C8.25468 7.11939 8.29461 7.11962 8.33411 7.12049C9.46226 4.6179 12.0159 3 14.8379 3C17.6598 3 20.2135 4.6179 21.3416 7.12049C23.4832 7.16721 25.3978 8.42372 26.2346 10.3316C28.6585 10.4766 30.525 12.4584 30.4493 14.807C30.3737 17.1555 28.3834 19.0211 25.9549 19.0198Z" fill="#444444"/>
<mask id="path-4-outside-1_467_17301" maskUnits="userSpaceOnUse" x="1.06445" y="2" width="31" height="19" fill="black">
<rect fill="white" x="1.06445" y="2" width="31" height="19"/>
<path d="M25.9548 19.0198H8.21445C4.8179 19.0198 2.06445 16.3558 2.06445 13.0696C2.06445 9.78339 4.8179 7.11939 8.21445 7.11939C8.25466 7.11939 8.29459 7.11962 8.33409 7.12049C9.46224 4.6179 12.0159 3 14.8379 3C17.6598 3 20.2135 4.6179 21.3416 7.12049C23.4832 7.16721 25.3978 8.42372 26.2346 10.3316C28.6585 10.4766 30.5249 12.4584 30.4493 14.807C30.3737 17.1555 28.3834 19.0211 25.9548 19.0198Z"/>
</mask>
<path d="M25.9548 19.0198H8.21445C4.8179 19.0198 2.06445 16.3558 2.06445 13.0696C2.06445 9.78339 4.8179 7.11939 8.21445 7.11939C8.25466 7.11939 8.29459 7.11962 8.33409 7.12049C9.46224 4.6179 12.0159 3 14.8379 3C17.6598 3 20.2135 4.6179 21.3416 7.12049C23.4832 7.16721 25.3978 8.42372 26.2346 10.3316C28.6585 10.4766 30.5249 12.4584 30.4493 14.807C30.3737 17.1555 28.3834 19.0211 25.9548 19.0198Z" fill="url(#paint0_linear_467_17301)"/>
<path d="M25.9548 19.0198L25.9554 18.0198H25.9548V19.0198ZM8.33409 7.12049L8.31208 8.12024L8.97375 8.13481L9.24574 7.53145L8.33409 7.12049ZM21.3416 7.12049L20.43 7.53145L20.6892 8.10649L21.3198 8.12025L21.3416 7.12049ZM26.2346 10.3316L25.3188 10.7333L25.5644 11.2933L26.1749 11.3299L26.2346 10.3316ZM25.9548 18.0198H8.21445V20.0198H25.9548V18.0198ZM8.21445 18.0198C5.3388 18.0198 3.06445 15.7727 3.06445 13.0696H1.06445C1.06445 16.939 4.297 20.0198 8.21445 20.0198V18.0198ZM3.06445 13.0696C3.06445 10.3665 5.3388 8.11939 8.21445 8.11939V6.11939C4.297 6.11939 1.06445 9.20023 1.06445 13.0696H3.06445ZM8.21445 8.11939C8.25133 8.11939 8.28305 8.1196 8.31208 8.12024L8.3561 6.12073C8.30613 6.11963 8.25799 6.11939 8.21445 6.11939V8.11939ZM9.24574 7.53145C10.2065 5.40021 12.395 4 14.8379 4V2C11.6369 2 8.71799 3.8356 7.42244 6.70952L9.24574 7.53145ZM14.8379 4C17.2808 4 19.4692 5.40021 20.43 7.53145L22.2533 6.70952C20.9577 3.8356 18.0388 2 14.8379 2V4ZM21.3198 8.12025C23.0866 8.15879 24.6439 9.19443 25.3188 10.7333L27.1504 9.93C26.1518 7.65301 23.8799 6.17562 21.3634 6.12072L21.3198 8.12025ZM26.1749 11.3299C28.0881 11.4443 29.5071 12.997 29.4499 14.7748L31.4488 14.8391C31.5428 11.9199 29.2289 9.50893 26.2943 9.33342L26.1749 11.3299ZM29.4499 14.7748C29.3926 16.5542 27.8739 18.0208 25.9554 18.0198L25.9543 20.0198C28.8929 20.0214 31.3549 17.7568 31.4488 14.8391L29.4499 14.7748Z" fill="#444444" mask="url(#path-4-outside-1_467_17301)"/>
<path fill-rule="evenodd" clip-rule="evenodd" d="M8.14142 15.792C8.23839 15.9224 8.39408 15.9998 8.55997 16C8.78217 16 8.97943 15.8622 9.04962 15.658L9.7922 13.5H11.4568L12.1994 15.658C12.2696 15.8622 12.4668 16 12.689 16C12.8549 15.9998 13.0106 15.9224 13.1076 15.792C13.2046 15.6616 13.231 15.4941 13.1787 15.3416L11.1156 9.34607C11.1135 9.33999 11.1114 9.33394 11.1091 9.32793C11.0818 9.25558 11.0388 9.19289 10.9851 9.14225C10.9381 9.09771 10.8816 9.06133 10.8173 9.03632C10.7567 9.01264 10.6913 8.99999 10.6245 9C10.5577 8.99999 10.4923 9.01264 10.4317 9.03632C10.3674 9.06133 10.3109 9.09771 10.2639 9.14225C10.2102 9.19289 10.1673 9.25558 10.1399 9.32793C10.1376 9.33395 10.1355 9.34001 10.1334 9.34611L8.07031 15.3416C8.018 15.4941 8.04445 15.6616 8.14142 15.792ZM11.1127 12.5H10.1363L10.6245 11.0813L11.1127 12.5ZM13.7213 15.4998C13.7213 15.776 13.9524 15.9998 14.2375 15.9998C14.5225 15.9998 14.7536 15.776 14.7536 15.4998V13H16.302C17.4422 13 18.3665 12.1046 18.3665 11.0001C18.3665 9.89562 17.4422 9.00024 16.302 9.00024H14.2375C13.9524 9.00024 13.7213 9.22408 13.7213 9.50021V12.5V15.4998ZM16.302 12.0001H14.7536V10.0002H16.302C16.8721 10.0002 17.3343 10.4479 17.3343 11.0001C17.3343 11.5524 16.8721 12.0001 16.302 12.0001ZM19.9149 14.9999V10.0002H18.8826C18.5976 10.0002 18.3665 9.77634 18.3665 9.50021C18.3665 9.22408 18.5976 9.00024 18.8826 9.00024H20.431H21.9794C22.2644 9.00024 22.4955 9.22408 22.4955 9.50021C22.4955 9.77634 22.2644 10.0002 21.9794 10.0002H20.9472V14.9999H21.9795C22.2645 14.9999 22.4956 15.2237 22.4956 15.4999C22.4956 15.776 22.2645 15.9998 21.9795 15.9998H18.8827C18.5976 15.9998 18.3665 15.776 18.3665 15.4999C18.3665 15.2237 18.5976 14.9999 18.8827 14.9999H19.9149Z" fill="#333333"/>
<rect x="0.5" y="38.5" width="27.5" height="19" rx="1.5" fill="#CCCCCC" stroke="#444444"/>
<path d="M9.9862 49.1495C10.0011 49.408 10.0532 49.6464 10.1425 49.8648C10.2355 50.0796 10.3564 50.2653 10.5053 50.4218C10.6578 50.5784 10.8346 50.7003 11.0355 50.7877C11.2364 50.8714 11.4578 50.9133 11.6997 50.9133C11.9118 50.9133 12.1146 50.8915 12.3081 50.8478C12.5015 50.8041 12.6727 50.7349 12.8215 50.6403C12.9704 50.542 13.0895 50.4146 13.1788 50.258C13.2681 50.0978 13.3127 49.9031 13.3127 49.6737C13.3127 49.4662 13.2476 49.2915 13.1174 49.1495C12.9908 49.0075 12.8234 48.8856 12.615 48.7836C12.4067 48.678 12.1685 48.5834 11.9006 48.4997C11.6327 48.4123 11.3592 48.3231 11.0801 48.2321C10.8048 48.1411 10.5332 48.0391 10.2653 47.9263C9.99736 47.8098 9.75922 47.6678 9.55085 47.5003C9.34247 47.3329 9.17317 47.1327 9.04294 46.8997C8.91643 46.6667 8.85317 46.3863 8.85317 46.0587C8.85317 45.7238 8.92015 45.4289 9.0541 45.1741C9.18806 44.9156 9.37596 44.7008 9.61782 44.5297C9.86341 44.3549 10.1536 44.2239 10.4885 44.1365C10.8234 44.0455 11.1918 44 11.5936 44C11.9508 44 12.2671 44.0364 12.5425 44.1092C12.8178 44.1784 13.0578 44.273 13.2625 44.3932C13.4708 44.5133 13.6457 44.6553 13.7871 44.8191C13.9285 44.9829 14.0439 45.1577 14.1332 45.3433C14.2262 45.5254 14.295 45.7165 14.3397 45.9167C14.3843 46.1133 14.4141 46.3063 14.429 46.4956H13.095C13.0727 46.2516 13.0169 46.0405 12.9276 45.8621C12.842 45.6837 12.7322 45.5363 12.5983 45.4198C12.4681 45.3033 12.3155 45.2177 12.1406 45.1631C11.9695 45.1049 11.7871 45.0758 11.5936 45.0758C11.4188 45.0758 11.2457 45.094 11.0746 45.1304C10.9071 45.1631 10.7564 45.2177 10.6225 45.2942C10.4885 45.3706 10.3806 45.4726 10.2988 45.6C10.2169 45.7238 10.176 45.8767 10.176 46.0587C10.176 46.2699 10.2392 46.4482 10.3657 46.5939C10.496 46.7358 10.6653 46.8614 10.8736 46.9706C11.082 47.0799 11.3201 47.1782 11.5881 47.2655C11.856 47.3493 12.1276 47.4385 12.4029 47.5331C12.682 47.6241 12.9555 47.7279 13.2234 47.8444C13.4913 47.9572 13.7295 48.0956 13.9378 48.2594C14.1462 48.4232 14.3136 48.6198 14.4401 48.8491C14.5704 49.0785 14.6355 49.3534 14.6355 49.6737C14.6355 50.0596 14.5611 50.3982 14.4122 50.6894C14.2671 50.977 14.0643 51.2191 13.8039 51.4157C13.5434 51.6086 13.2327 51.7543 12.8718 51.8526C12.5146 51.9509 12.1239 52 11.6997 52C11.3164 52 10.9425 51.9345 10.5778 51.8034C10.2169 51.6724 9.89317 51.4849 9.60666 51.241C9.32387 50.9934 9.09317 50.6931 8.91457 50.3399C8.73968 49.9868 8.64666 49.59 8.6355 49.1495H9.9862Z" fill="#333333"/>
<path d="M7.60979 44V49.628C7.60979 50.0494 7.54639 50.4112 7.41958 50.7133C7.2965 51.0117 7.12867 51.2559 6.91608 51.4462C6.7035 51.6364 6.45734 51.7762 6.17762 51.8657C5.8979 51.9552 5.60326 52 5.29371 52C4.99907 52 4.71375 51.9534 4.43776 51.8601C4.16177 51.7706 3.91748 51.6364 3.7049 51.4573C3.49231 51.2746 3.32075 51.049 3.19021 50.7804C3.0634 50.5119 3 50.2005 3 49.8462V49.0909H4.33147V49.835C4.33147 50.014 4.35944 50.1706 4.41538 50.3049C4.47506 50.4354 4.55152 50.5455 4.64476 50.635C4.74173 50.7207 4.84802 50.7841 4.96364 50.8252C5.07925 50.8662 5.19674 50.8867 5.31608 50.8867C5.40932 50.8867 5.51189 50.8718 5.62378 50.842C5.73566 50.8084 5.84009 50.7524 5.93706 50.6741C6.03776 50.5921 6.12168 50.4839 6.18881 50.3496C6.25594 50.2117 6.28951 50.0401 6.28951 49.835V44H7.60979Z" fill="#333333"/>
<rect x="14.5" y="51.5" width="17" height="10" rx="1.5" fill="url(#paint1_linear_467_17301)" stroke="#444444"/>
<path fill-rule="evenodd" clip-rule="evenodd" d="M26.2775 59.3126C26.0453 59.0626 26.0453 58.6565 26.2775 58.4066L27.8168 56.75L26.2775 55.0933C26.0453 54.8433 26.0453 54.4372 26.2775 54.1873C26.5097 53.9376 26.887 53.9376 27.1192 54.1873L29.5 56.75L27.1192 59.3126C26.887 59.5625 26.5097 59.5625 26.2775 59.3126ZM19.3808 59.3126L17 56.75L19.3808 54.1873C19.613 53.9376 19.9903 53.9376 20.2225 54.1873C20.4547 54.4372 20.4547 54.8434 20.2225 55.0933L18.6832 56.75L20.2225 58.4066C20.4547 58.6565 20.4547 59.0626 20.2225 59.3126C19.9903 59.5625 19.613 59.5625 19.3808 59.3126ZM21.7936 58.4529C21.6466 58.7693 21.7663 59.1544 22.0602 59.3126C22.3543 59.4708 22.712 59.3428 22.8585 59.0256L24.7072 55.0465C24.8542 54.7307 24.7351 54.3457 24.4412 54.1874C24.1471 54.0292 23.7894 54.1574 23.6423 54.4737L21.7936 58.4529Z" fill="#333333"/>
<rect x="2" y="41" width="24" height="1" rx="0.5" fill="#333333"/>
<g clip-path="url(#clip0_467_17301)">
<path d="M30.5203 83.2347L30.5186 83.2379C30.4514 83.6 30.8707 83.643 30.9614 83.47C31.2896 82.8654 31.474 82.1912 31.5 81.5013C31.5 79.9342 30.2085 77.5638 28.2711 77.5638C27.5406 77.5738 26.8386 77.8537 26.2963 78.3513C25.9932 78.6437 25.6047 78.828 25.1894 78.8763C25.0538 78.4235 25.0732 76.796 25.9811 73.1013C26.2022 72.1936 25.6574 71.2756 24.7643 71.0509C24.6321 71.0177 24.4964 71.001 24.3603 71.0013H18.5715C18.06 71.0009 17.5997 71.3169 17.4091 71.7993C17.214 72.289 17.3333 72.8501 17.7101 73.2142C18.2204 73.6431 18.535 74.2661 18.5806 74.9375C18.5806 76.023 17.1767 76.25 15.9975 76.25C14.8182 76.25 13.4143 76.0229 13.4143 74.9375C13.4608 74.2648 13.7775 73.6412 14.29 73.2129C14.6668 72.8488 14.7861 72.2877 14.591 71.798C14.4004 71.3156 13.9401 70.9996 13.4286 71H7.6398C6.71963 70.998 5.97206 71.7543 5.97006 72.6894C5.96976 72.8278 5.98616 72.9657 6.01886 73.1C6.92293 76.7894 6.94617 78.4169 6.81056 78.875C6.39531 78.8267 6.00681 78.6424 5.70368 78.35C5.16141 77.8524 4.45943 77.5725 3.72887 77.5625C1.79154 77.5625 0.5 79.9329 0.5 81.5C0.5 83.0671 1.79154 85.4375 3.72887 85.4375C4.45943 85.4275 5.16141 85.1476 5.70368 84.65C6.00681 84.3576 6.39531 84.1733 6.81056 84.125C6.94617 84.5778 6.9268 86.2053 6.01886 89.9C5.96055 90.1404 5.95588 90.3814 5.9971 90.6101C6.04648 90.9175 6.1824 91.1928 6.37794 91.4158C6.5958 91.6715 6.89093 91.8636 7.23871 91.9508C7.37039 91.9838 7.50546 92.0003 7.64107 92C7.65587 92.0003 7.67071 92 7.68558 92H13.4743C13.9858 92.0004 14.4461 91.6844 14.6367 91.202C14.8319 90.7123 14.7125 90.1512 14.3358 89.7871C13.8232 89.3588 13.5066 88.7352 13.4601 88.0625C13.4601 87.1139 14.6608 86.6734 15.7929 86.7244C15.7929 86.7244 16.3657 86.6588 16.0432 86.25C15.436 86.25 14.7154 86.3065 14.1293 86.5328C13.8325 86.6474 13.5402 86.8169 13.3193 87.0729C13.0901 87.3386 12.9601 87.6726 12.9601 88.0625V88.0798L12.9613 88.097C13.0166 88.897 13.3904 89.6411 13.999 90.1572C14.2203 90.3794 14.291 90.7189 14.1723 91.0169L14.1717 91.0183C14.0552 91.3132 13.7771 91.5002 13.4747 91.5H7.68448C7.34811 91.5007 7.03004 91.3669 6.80465 91.1422C6.63574 90.9659 6.52196 90.7383 6.48395 90.4907C6.47851 90.4463 6.47566 90.4008 6.47556 90.3545C6.4755 90.3262 6.47369 90.3005 6.47034 90.2772C6.47246 90.1919 6.48362 90.1053 6.50459 90.0186C6.96191 88.1575 7.19861 86.8046 7.30307 85.8513C7.40468 84.9239 7.38903 84.3138 7.28954 83.9816L7.16925 83.5799L6.7528 83.6284C6.23008 83.6892 5.74212 83.9203 5.36149 84.2854C4.91043 84.6974 4.32917 84.9284 3.72552 84.9375C2.97806 84.9361 2.30512 84.4779 1.79435 83.7652C1.28235 83.0507 1 82.1664 1 81.5C1 80.8336 1.28235 79.9493 1.79435 79.2348C2.30512 78.5221 2.97806 78.0639 3.72552 78.0625C4.32917 78.0716 4.91043 78.3026 5.36149 78.7146C5.74213 79.0797 6.23008 79.3108 6.7528 79.3716L7.1706 79.4202L7.28999 79.0169C7.38891 78.6828 7.4037 78.0721 7.30159 77.1445C7.19665 76.1913 6.95997 74.8398 6.50458 72.9813C6.48145 72.8862 6.46985 72.7885 6.47006 72.6905C6.47148 72.024 7.00222 71.4986 7.6387 71.5L13.4289 71.5C13.7313 71.4998 14.0094 71.6868 14.1259 71.9817L14.1265 71.9831C14.2452 72.2811 14.1745 72.6206 13.9532 72.8428C13.3446 73.3589 12.9708 74.103 12.9155 74.903L12.9143 74.9202V74.9375C12.9143 75.3274 13.0443 75.6614 13.2735 75.9271C13.4944 76.1831 13.7867 76.3526 14.0836 76.4672C14.6697 76.6935 15.3902 76.75 15.9975 76.75C16.6047 76.75 17.3253 76.6935 17.9113 76.4672C18.2082 76.3526 18.5005 76.1831 18.7214 75.9271C18.9506 75.6614 19.0806 75.3274 19.0806 74.9375V74.9205L19.0794 74.9036C19.0252 74.105 18.6535 73.3613 18.0472 72.8445C17.8257 72.6223 17.7548 72.2826 17.8736 71.9844L17.8741 71.983C17.9907 71.688 18.2692 71.501 18.5715 71.5013L24.3603 71.5013L24.3614 71.5013C24.456 71.5011 24.5503 71.5127 24.6424 71.5358C25.2625 71.6919 25.6527 72.3353 25.4955 72.9823C25.0381 74.8436 24.8014 76.1966 24.6969 77.15C24.5953 78.0774 24.611 78.6875 24.7105 79.0197L24.8307 79.4214L25.2472 79.3729C25.7699 79.3121 26.2579 79.081 26.6385 78.7159C27.0896 78.3038 27.6708 78.0729 28.2745 78.0638C29.0219 78.0652 29.6949 78.5234 30.2057 79.2361C30.7153 79.9473 30.9974 80.8267 31 81.4921C30.9756 82.102 30.8118 82.6976 30.522 83.2315L30.5203 83.2347Z" fill="#444444"/>
<path fill-rule="evenodd" clip-rule="evenodd" d="M30.9614 83.47C31.2896 82.8654 31.474 82.1912 31.5 81.5013C31.5 79.9342 30.2085 77.5638 28.2711 77.5638C27.5406 77.5738 26.8386 77.8537 26.2963 78.3513C25.9932 78.6437 25.6047 78.828 25.1894 78.8763C25.0538 78.4235 25.0732 76.796 25.9811 73.1013C26.2022 72.1936 25.6574 71.2756 24.7643 71.0509C24.6321 71.0177 24.4964 71.001 24.3603 71.0013H18.5715C18.06 71.0009 17.5997 71.3169 17.4091 71.7993C17.214 72.289 17.3333 72.8501 17.7101 73.2142C18.2204 73.6431 18.535 74.2661 18.5806 74.9375C18.5806 76.023 17.1767 76.25 15.9975 76.25C14.8182 76.25 13.4143 76.0229 13.4143 74.9375C13.4608 74.2648 13.7775 73.6412 14.29 73.2129C14.6668 72.8488 14.7861 72.2877 14.591 71.798C14.4004 71.3156 13.9401 70.9996 13.4286 71H7.6398C6.71963 70.998 5.97206 71.7543 5.97006 72.6894C5.96976 72.8278 5.98616 72.9657 6.01886 73.1C6.92293 76.7894 6.94617 78.4169 6.81056 78.875C6.39531 78.8267 6.00681 78.6424 5.70368 78.35C5.16141 77.8524 4.45943 77.5725 3.72887 77.5625C1.79154 77.5625 0.5 79.9329 0.5 81.5C0.5 83.0671 1.79154 85.4375 3.72887 85.4375C4.45943 85.4275 5.16141 85.1476 5.70368 84.65C5.99508 84.3689 6.36536 84.1877 6.76247 84.1312L6.82015 84.1601C6.94471 84.658 6.90476 86.295 6.01886 89.9C5.96055 90.1404 5.95588 90.3814 5.9971 90.6101C6.04648 90.9175 6.1824 91.1928 6.37794 91.4158C6.5958 91.6715 6.89093 91.8636 7.23871 91.9508C7.37039 91.9838 7.50546 92.0003 7.64107 92C9.58239 92.0442 11.5322 92 13.4743 92C13.9858 92.0004 14.4461 91.6844 14.6367 91.202C14.8319 90.7123 14.7125 90.1512 14.3358 89.7871C13.8232 89.3588 13.5066 88.7352 13.4601 88.0625C13.4601 87.1139 14.6608 86.6734 15.7929 86.7244C16.6749 86.6234 17.8686 85.9397 18.4858 85.2339C18.8452 84.8228 19.2799 84.376 19.75 84C21.5764 82.5389 22.75 82.25 25 82.25C26.481 82.25 28.0703 83.0082 28.9837 83.5264C29.3166 83.7154 30.5 84 30.9614 83.47Z" fill="#CCCCCC"/>
<path d="M30.5203 83.2347L30.5186 83.2379C30.4514 83.6 30.8707 83.643 30.9614 83.47C31.2896 82.8654 31.474 82.1912 31.5 81.5013C31.5 79.9342 30.2085 77.5638 28.2711 77.5638C27.5406 77.5738 26.8386 77.8537 26.2963 78.3513C25.9932 78.6437 25.6047 78.828 25.1894 78.8763C25.0538 78.4235 25.0732 76.796 25.9811 73.1013C26.2022 72.1936 25.6574 71.2756 24.7643 71.0509C24.6321 71.0177 24.4964 71.001 24.3603 71.0013H18.5715C18.06 71.0009 17.5997 71.3169 17.4091 71.7993C17.214 72.289 17.3333 72.8501 17.7101 73.2142C18.2204 73.6431 18.535 74.2661 18.5806 74.9375C18.5806 76.023 17.1767 76.25 15.9975 76.25C14.8182 76.25 13.4143 76.0229 13.4143 74.9375C13.4608 74.2648 13.7775 73.6412 14.29 73.2129C14.6668 72.8488 14.7861 72.2877 14.591 71.798C14.4004 71.3156 13.9401 70.9996 13.4286 71H7.6398C6.71963 70.998 5.97206 71.7543 5.97006 72.6894C5.96976 72.8278 5.98616 72.9657 6.01886 73.1C6.92293 76.7894 6.94617 78.4169 6.81056 78.875C6.39531 78.8267 6.00681 78.6424 5.70368 78.35C5.16141 77.8524 4.45943 77.5725 3.72887 77.5625C1.79154 77.5625 0.5 79.9329 0.5 81.5C0.5 83.0671 1.79154 85.4375 3.72887 85.4375C4.45943 85.4275 5.16141 85.1476 5.70368 84.65C6.00681 84.3576 6.39531 84.1733 6.81056 84.125C6.94617 84.5778 6.9268 86.2053 6.01886 89.9C5.96055 90.1404 5.95588 90.3814 5.9971 90.6101C6.04648 90.9175 6.1824 91.1928 6.37794 91.4158C6.5958 91.6715 6.89093 91.8636 7.23871 91.9508C7.37039 91.9838 7.50546 92.0003 7.64107 92C7.65587 92.0003 7.67071 92 7.68558 92H13.4743C13.9858 92.0004 14.4461 91.6844 14.6367 91.202C14.8319 90.7123 14.7125 90.1512 14.3358 89.7871C13.8232 89.3588 13.5066 88.7352 13.4601 88.0625C13.4601 87.1139 14.6608 86.6734 15.7929 86.7244C15.7929 86.7244 16.3657 86.6588 16.0432 86.25C15.436 86.25 14.7154 86.3065 14.1293 86.5328C13.8325 86.6474 13.5402 86.8169 13.3193 87.0729C13.0901 87.3386 12.9601 87.6726 12.9601 88.0625V88.0798L12.9613 88.097C13.0166 88.897 13.3904 89.6411 13.999 90.1572C14.2203 90.3794 14.291 90.7189 14.1723 91.0169L14.1717 91.0183C14.0552 91.3132 13.7771 91.5002 13.4747 91.5H7.68448C7.34811 91.5007 7.03004 91.3669 6.80465 91.1422C6.63574 90.9659 6.52196 90.7383 6.48395 90.4907C6.47851 90.4463 6.47566 90.4008 6.47556 90.3545C6.4755 90.3262 6.47369 90.3005 6.47034 90.2772C6.47246 90.1919 6.48362 90.1053 6.50459 90.0186C6.96191 88.1575 7.19861 86.8046 7.30307 85.8513C7.40468 84.9239 7.38903 84.3138 7.28954 83.9816L7.16925 83.5799L6.7528 83.6284C6.23008 83.6892 5.74212 83.9203 5.36149 84.2854C4.91043 84.6974 4.32917 84.9284 3.72552 84.9375C2.97806 84.9361 2.30512 84.4779 1.79435 83.7652C1.28235 83.0507 1 82.1664 1 81.5C1 80.8336 1.28235 79.9493 1.79435 79.2348C2.30512 78.5221 2.97806 78.0639 3.72552 78.0625C4.32917 78.0716 4.91043 78.3026 5.36149 78.7146C5.74213 79.0797 6.23008 79.3108 6.7528 79.3716L7.1706 79.4202L7.28999 79.0169C7.38891 78.6828 7.4037 78.0721 7.30159 77.1445C7.19665 76.1913 6.95997 74.8398 6.50458 72.9813C6.48145 72.8862 6.46985 72.7885 6.47006 72.6905C6.47148 72.024 7.00222 71.4986 7.6387 71.5L13.4289 71.5C13.7313 71.4998 14.0094 71.6868 14.1259 71.9817L14.1265 71.9831C14.2452 72.2811 14.1745 72.6206 13.9532 72.8428C13.3446 73.3589 12.9708 74.103 12.9155 74.903L12.9143 74.9202V74.9375C12.9143 75.3274 13.0443 75.6614 13.2735 75.9271C13.4944 76.1831 13.7867 76.3526 14.0836 76.4672C14.6697 76.6935 15.3902 76.75 15.9975 76.75C16.6047 76.75 17.3253 76.6935 17.9113 76.4672C18.2082 76.3526 18.5005 76.1831 18.7214 75.9271C18.9506 75.6614 19.0806 75.3274 19.0806 74.9375V74.9205L19.0794 74.9036C19.0252 74.105 18.6535 73.3613 18.0472 72.8445C17.8257 72.6223 17.7548 72.2826 17.8736 71.9844L17.8741 71.983C17.9907 71.688 18.2692 71.501 18.5715 71.5013L24.3603 71.5013L24.3614 71.5013C24.456 71.5011 24.5503 71.5127 24.6424 71.5358C25.2625 71.6919 25.6527 72.3353 25.4955 72.9823C25.0381 74.8436 24.8014 76.1966 24.6969 77.15C24.5953 78.0774 24.611 78.6875 24.7105 79.0197L24.8307 79.4214L25.2472 79.3729C25.7699 79.3121 26.2579 79.081 26.6385 78.7159C27.0896 78.3038 27.6708 78.0729 28.2745 78.0638C29.0219 78.0652 29.6949 78.5234 30.2057 79.2361C30.7153 79.9473 30.9974 80.8267 31 81.4921C30.9756 82.102 30.8118 82.6976 30.522 83.2315L30.5203 83.2347Z" fill="#444444"/>
<path d="M31.0935 87.7245C30.9809 87.3855 30.6199 87.2037 30.287 87.3184C30.2719 87.3236 30.257 87.3294 30.2424 87.3357C29.9548 87.4658 29.6171 87.3581 29.4536 87.0842C29.2976 86.8019 29.3767 86.4451 29.6368 86.2586C29.9179 86.044 29.9751 85.6378 29.7645 85.3513C29.7547 85.338 29.7443 85.325 29.7335 85.3124C28.7307 84.1302 27.3706 83.3214 25.8672 83.013C25.6918 82.9764 25.5094 83.0179 25.3659 83.1271C25.2221 83.2355 25.1297 83.4007 25.1115 83.582C25.096 83.9274 24.8087 84.1946 24.4697 84.179C24.1523 84.1643 23.8982 83.9054 23.8838 83.582C23.8655 83.4007 23.7731 83.2355 23.6293 83.1271C23.4857 83.0181 23.3034 82.9766 23.1281 83.013C21.6246 83.3214 20.2645 84.1303 19.2617 85.3124C19.03 85.5814 19.0562 85.9909 19.3202 86.227C19.3325 86.238 19.3453 86.2486 19.3584 86.2586C19.6386 86.4511 19.7125 86.8386 19.5235 87.1241C19.3529 87.3818 19.022 87.472 18.7477 87.3357C18.4243 87.1958 18.0509 87.3496 17.9136 87.679C17.9074 87.694 17.9017 87.7092 17.8966 87.7245C17.3697 89.1945 17.3697 90.8068 17.8966 92.2767C18.0095 92.6157 18.3707 92.7972 18.7034 92.6823C18.7179 92.6772 18.7323 92.6717 18.7465 92.6656C19.0508 92.5157 19.4167 92.6455 19.5638 92.9555C19.6955 93.2332 19.6083 93.5672 19.3585 93.7414C19.0773 93.956 19.0201 94.3622 19.2307 94.6486C19.2406 94.662 19.251 94.675 19.2617 94.6876C20.2644 95.8699 21.6246 96.6788 23.1281 96.987C23.3034 97.0236 23.4859 96.9821 23.6293 96.8729C23.7734 96.7642 23.8659 96.5985 23.8838 96.4167C23.9105 96.0713 24.207 95.8134 24.5461 95.8407C24.8479 95.8649 25.0877 96.1091 25.1115 96.4167C25.1449 96.7486 25.4202 97.0004 25.7476 96.9987C25.7904 96.999 25.833 96.9947 25.8748 96.9858C27.3783 96.6776 28.7385 95.8687 29.7411 94.6864C29.9729 94.4174 29.9467 94.0079 29.6827 93.7718C29.6703 93.7607 29.6576 93.7502 29.6445 93.7402C29.3655 93.5457 29.2942 93.1578 29.485 92.8736C29.656 92.6191 29.9839 92.5301 30.2564 92.6644C30.5801 92.8037 30.9532 92.6492 31.0899 92.3195C31.0959 92.305 31.1014 92.2904 31.1063 92.2756C31.6332 90.8056 31.6332 89.1933 31.1063 87.7234L31.0935 87.7245ZM24.4919 93.2411C22.7353 93.2411 21.3113 91.7903 21.3113 90.0007C21.3113 88.211 22.7353 86.7603 24.4919 86.7603C26.2484 86.7603 27.6724 88.211 27.6724 90.0007C27.6725 91.7903 26.2485 93.2411 24.4919 93.2411Z" fill="url(#paint2_linear_467_17301)"/>
<path d="M31.1063 92.2756C31.6332 90.8056 31.6332 89.1933 31.1063 87.7234L31.0935 87.7245C30.9809 87.3855 30.6199 87.2037 30.287 87.3184C30.2719 87.3236 30.257 87.3294 30.2424 87.3357L17.8966 87.7245C17.3697 89.1945 17.3697 90.8068 17.8966 92.2767C18.0095 92.6157 18.3707 92.7972 18.7034 92.6823C18.7179 92.6772 18.7323 92.6717 18.7465 92.6656C19.0508 92.5157 19.4167 92.6455 19.5638 92.9555C19.6955 93.2332 19.6083 93.5672 19.3585 93.7414C19.0773 93.956 19.0201 94.3622 19.2307 94.6486C19.2406 94.662 19.251 94.675 19.2617 94.6876M31.1063 92.2756C31.1014 92.2904 31.0959 92.305 31.0899 92.3195C30.9532 92.6492 30.5801 92.8037 30.2564 92.6644C29.9839 92.5301 29.656 92.6191 29.485 92.8736C29.2942 93.1578 29.3655 93.5457 29.6445 93.7402C29.6576 93.7502 29.6703 93.7607 29.6827 93.7718M31.1063 92.2756L31.5806 92.4339C31.5799 92.4359 31.5793 92.4378 31.5786 92.4397M31.1063 92.2756L31.577 92.4443C31.5775 92.4428 31.5781 92.4412 31.5786 92.4397M29.6827 93.7718C29.9467 94.0079 29.9729 94.4174 29.7411 94.6864M29.6827 93.7718L30.016 93.3991M29.6827 93.7718L30.0163 93.3994C30.0162 93.3993 30.0161 93.3992 30.016 93.3991M29.7411 94.6864C28.7385 95.8687 27.3783 96.6776 25.8748 96.9858M29.7411 94.6864L30.1225 95.0098C30.122 95.0103 30.1216 95.0108 30.1212 95.0113M29.7411 94.6864L30.1199 95.0127C30.1203 95.0122 30.1208 95.0118 30.1212 95.0113M25.8748 96.9858C25.833 96.9947 25.7904 96.999 25.7476 96.9987M25.8748 96.9858L25.9752 97.4756C25.9758 97.4755 25.9764 97.4753 25.977 97.4752C25.9777 97.4751 25.9785 97.4749 25.9793 97.4747L25.8748 96.9858ZM25.7476 96.9987C25.4202 97.0004 25.1449 96.7486 25.1115 96.4167C25.0877 96.1091 24.8479 95.8649 24.5461 95.8407C24.207 95.8134 23.9105 96.0713 23.8838 96.4167C23.8659 96.5985 23.7734 96.7642 23.6293 96.8729C23.4859 96.9821 23.3034 97.0236 23.1281 96.987M25.7476 96.9987L25.7502 97.4987C25.7492 97.4987 25.7482 97.4987 25.7472 97.4987C25.1559 97.5002 24.6723 97.0466 24.614 96.4668L24.6128 96.4553L24.613 96.4553C24.6076 96.386 24.556 96.3431 24.506 96.3391L24.506 96.339C24.4515 96.3347 24.3883 96.377 24.3823 96.4553L24.3815 96.4657L24.3814 96.4657C24.35 96.7844 24.1879 97.0774 23.9313 97.2714C23.6737 97.4672 23.3444 97.5427 23.0267 97.4766M25.7476 96.9987L23.0267 97.4766M23.1281 96.987C21.6246 96.6788 20.2644 95.8699 19.2617 94.6876M23.1281 96.987L23.0258 97.4764C23.0261 97.4765 23.0264 97.4765 23.0267 97.4766M23.1281 96.987L23.0277 97.4768C23.0273 97.4767 23.027 97.4767 23.0267 97.4766M19.2617 94.6876L18.8823 95.0132C18.882 95.0128 18.8816 95.0124 18.8813 95.012C18.8631 94.9908 18.8453 94.9684 18.8281 94.9451L18.8279 94.9448C18.4572 94.4406 18.5553 93.7254 19.0551 93.3439L19.0637 93.3374L19.0725 93.3313C19.1191 93.2988 19.1406 93.2299 19.1121 93.1699C19.0822 93.1068 19.0164 93.09 18.9675 93.1141L18.9563 93.1196L18.9449 93.1245C18.9183 93.136 18.8922 93.146 18.8671 93.1547L18.8667 93.1549C18.2663 93.3623 17.6251 93.0333 17.4243 92.4407C16.8606 90.8647 16.8605 89.1371 17.4241 87.561M19.2617 94.6876L17.4241 87.561M17.4241 87.561C17.4329 87.535 17.4423 87.5104 17.4518 87.4874L17.4521 87.4867C17.6942 86.9057 18.3612 86.6238 18.9462 86.8768L18.9584 86.8821L18.9704 86.888C19.0154 86.9104 19.0733 86.8983 19.1066 86.8481L19.1066 86.848C19.1468 86.7874 19.128 86.7069 19.0752 86.6707L19.0648 86.6635L19.0548 86.6559C19.0321 86.6385 19.0094 86.6198 18.9869 86.5997L17.4241 87.561ZM29.7645 85.3513C29.9751 85.6378 29.9179 86.044 29.6368 86.2586L29.7645 85.3513ZM29.7645 85.3513C29.7547 85.338 29.7443 85.325 29.7335 85.3124C28.7307 84.1302 27.3706 83.3214 25.8672 83.013L29.7645 85.3513ZM29.8874 86.8351C29.8579 86.7732 29.8787 86.7004 29.9282 86.6649L29.9342 86.6605L29.9401 86.6561C30.4399 86.2746 30.5381 85.5594 30.1673 85.0552L30.1672 85.0549C30.15 85.0316 30.1322 85.0093 30.114 84.988L29.8874 86.8351ZM29.8874 86.8351C29.9237 86.8885 29.9864 86.9027 30.0363 86.8801L30.0446 86.8764L30.0446 86.8765C30.0707 86.8652 30.097 86.8551 30.1234 86.8459L30.1241 86.8457C30.587 86.6861 31.0739 86.8454 31.3645 87.1981L31.4465 87.1908L31.577 87.5547C32.1424 89.1322 32.143 90.862 31.5786 92.4397M29.8874 86.8351L30.1212 95.0113M31.5786 92.4397C31.5704 92.4639 31.5615 92.4874 31.5521 92.5101L31.5518 92.511C31.3108 93.0924 30.6443 93.3756 30.0588 93.1237L30.047 93.1186L30.0355 93.1129C29.9907 93.0909 29.9334 93.1028 29.9001 93.1524L29.9001 93.1524C29.8596 93.2127 29.8777 93.2933 29.9304 93.3301L29.9394 93.3363L29.948 93.3429C29.9707 93.3602 29.9934 93.3789 30.016 93.3991M30.016 93.3991C30.4835 93.8172 30.5288 94.5366 30.1212 95.0113M24.4928 83.6795C24.4413 83.6771 24.3865 83.6325 24.3833 83.5596L24.3826 83.5458L24.3812 83.532C24.3493 83.214 24.1872 82.9218 23.931 82.7284C23.6736 82.5332 23.345 82.4576 23.0276 82.5232C21.4139 82.8542 19.9558 83.7219 18.8815 84.9877C18.4742 85.4622 18.5194 86.1814 18.9866 86.5994L24.4928 83.6795ZM27.1724 90.0007V90.0007C27.1725 91.523 25.9636 92.7411 24.4919 92.7411C23.0202 92.7411 21.8113 91.523 21.8113 90.0007C21.8113 88.4784 23.0202 87.2603 24.4919 87.2603C25.9635 87.2603 27.1724 88.4784 27.1724 90.0007Z" stroke="#444444"/>
</g>
<path fill-rule="evenodd" clip-rule="evenodd" d="M15 130V123H16V130H15Z" fill="#CCCCCC"/>
<path fill-rule="evenodd" clip-rule="evenodd" d="M14 131.5C14 131.776 13.8081 132 13.5714 132L2.42857 132C2.19188 132 2 131.776 2 131.5C2 131.224 2.19188 131 2.42857 131L13.5714 131C13.8081 131 14 131.224 14 131.5Z" fill="#CCCCCC"/>
<path fill-rule="evenodd" clip-rule="evenodd" d="M29 131.5C29 131.776 28.8058 132 28.5663 132L17.4337 132C17.1942 132 17 131.776 17 131.5C17 131.224 17.1942 131 17.4337 131L28.5663 131C28.8058 131 29 131.224 29 131.5Z" fill="#CCCCCC"/>
<path d="M1.5 104.2C1.5 103.279 2.28138 102.5 3.28571 102.5H27.9714C28.9758 102.5 29.7571 103.279 29.7571 104.2V109.406C29.7571 110.327 28.9758 111.106 27.9714 111.106H3.28571C2.28138 111.106 1.5 110.327 1.5 109.406V104.2Z" fill="url(#paint3_linear_467_17301)" stroke="#444444"/>
<path d="M1.5 115.29C1.5 114.296 2.29563 113.5 3.26562 113.5H27.7344C28.7044 113.5 29.5 114.296 29.5 115.29V120.71C29.5 121.704 28.7044 122.5 27.7344 122.5H3.26562C2.29563 122.5 1.5 121.704 1.5 120.71V115.29Z" fill="url(#paint4_linear_467_17301)" stroke="#444444"/>
<path d="M7.85723 106.912C7.85723 107.782 7.14088 108.487 6.25723 108.487C5.37357 108.487 4.65723 107.782 4.65723 106.912C4.65723 106.042 5.37357 105.337 6.25723 105.337C7.14088 105.337 7.85723 106.042 7.85723 106.912Z" fill="#333333"/>
<path d="M7.85723 117.963C7.85723 118.833 7.14088 119.538 6.25723 119.538C5.37357 119.538 4.65723 118.833 4.65723 117.963C4.65723 117.093 5.37357 116.388 6.25723 116.388C7.14088 116.388 7.85723 117.093 7.85723 117.963Z" fill="#333333"/>
<path fill-rule="evenodd" clip-rule="evenodd" d="M15.5 133C16.3284 133 17 132.328 17 131.5C17 130.672 16.3284 130 15.5 130C14.6716 130 14 130.672 14 131.5C14 132.328 14.6716 133 15.5 133ZM15.5 134C16.8807 134 18 132.881 18 131.5C18 130.119 16.8807 129 15.5 129C14.1193 129 13 130.119 13 131.5C13 132.881 14.1193 134 15.5 134Z" fill="#CCCCCC"/>
<path fill-rule="evenodd" clip-rule="evenodd" d="M19.1586 106.624C19.5373 106.624 19.8443 106.322 19.8443 105.949C19.8443 105.577 19.5373 105.274 19.1586 105.274C18.7799 105.274 18.4729 105.577 18.4729 105.949C18.4729 106.322 18.7799 106.624 19.1586 106.624ZM17.9396 108.671C18.3183 108.671 18.6253 108.369 18.6253 107.996C18.6253 107.623 18.3183 107.321 17.9396 107.321C17.5609 107.321 17.2539 107.623 17.2539 107.996C17.2539 108.369 17.5609 108.671 17.9396 108.671ZM21.0634 107.996C21.0634 108.369 20.7564 108.671 20.3777 108.671C19.999 108.671 19.692 108.369 19.692 107.996C19.692 107.623 19.999 107.321 20.3777 107.321C20.7564 107.321 21.0634 107.623 21.0634 107.996ZM21.5968 106.624C21.9755 106.624 22.2825 106.322 22.2825 105.949C22.2825 105.577 21.9755 105.274 21.5968 105.274C21.2181 105.274 20.911 105.577 20.911 105.949C20.911 106.322 21.2181 106.624 21.5968 106.624ZM23.5015 107.996C23.5015 108.369 23.1944 108.671 22.8157 108.671C22.437 108.671 22.13 108.369 22.13 107.996C22.13 107.623 22.437 107.321 22.8157 107.321C23.1944 107.321 23.5015 107.623 23.5015 107.996ZM24.0348 106.624C24.4135 106.624 24.7205 106.322 24.7205 105.949C24.7205 105.577 24.4135 105.274 24.0348 105.274C23.6561 105.274 23.3491 105.577 23.3491 105.949C23.3491 106.322 23.6561 106.624 24.0348 106.624ZM25.9396 107.996C25.9396 108.369 25.6326 108.671 25.2539 108.671C24.8752 108.671 24.5682 108.369 24.5682 107.996C24.5682 107.623 24.8752 107.321 25.2539 107.321C25.6326 107.321 25.9396 107.623 25.9396 107.996ZM26.4729 106.624C26.8516 106.624 27.1586 106.322 27.1586 105.949C27.1586 105.577 26.8516 105.274 26.4729 105.274C26.0942 105.274 25.7872 105.577 25.7872 105.949C25.7872 106.322 26.0942 106.624 26.4729 106.624Z" fill="#333333"/>
<path fill-rule="evenodd" clip-rule="evenodd" d="M19.1586 117.615C19.5373 117.615 19.8443 117.312 19.8443 116.94C19.8443 116.567 19.5373 116.265 19.1586 116.265C18.7799 116.265 18.4729 116.567 18.4729 116.94C18.4729 117.312 18.7799 117.615 19.1586 117.615ZM17.9396 119.661C18.3183 119.661 18.6253 119.359 18.6253 118.986C18.6253 118.613 18.3183 118.311 17.9396 118.311C17.5609 118.311 17.2539 118.613 17.2539 118.986C17.2539 119.359 17.5609 119.661 17.9396 119.661ZM21.0634 118.986C21.0634 119.359 20.7564 119.661 20.3777 119.661C19.999 119.661 19.692 119.359 19.692 118.986C19.692 118.613 19.999 118.311 20.3777 118.311C20.7564 118.311 21.0634 118.613 21.0634 118.986ZM21.5968 117.615C21.9755 117.615 22.2825 117.312 22.2825 116.94C22.2825 116.567 21.9755 116.265 21.5968 116.265C21.2181 116.265 20.911 116.567 20.911 116.94C20.911 117.312 21.2181 117.615 21.5968 117.615ZM23.5015 118.986C23.5015 119.359 23.1944 119.661 22.8157 119.661C22.437 119.661 22.13 119.359 22.13 118.986C22.13 118.613 22.437 118.311 22.8157 118.311C23.1944 118.311 23.5015 118.613 23.5015 118.986ZM24.0348 117.615C24.4135 117.615 24.7205 117.312 24.7205 116.94C24.7205 116.567 24.4135 116.265 24.0348 116.265C23.6561 116.265 23.3491 116.567 23.3491 116.94C23.3491 117.312 23.6561 117.615 24.0348 117.615ZM25.9396 118.986C25.9396 119.359 25.6326 119.661 25.2539 119.661C24.8752 119.661 24.5682 119.359 24.5682 118.986C24.5682 118.613 24.8752 118.311 25.2539 118.311C25.6326 118.311 25.9396 118.613 25.9396 118.986ZM26.4729 117.615C26.8516 117.615 27.1586 117.312 27.1586 116.94C27.1586 116.567 26.8516 116.265 26.4729 116.265C26.0942 116.265 25.7872 116.567 25.7872 116.94C25.7872 117.312 26.0942 117.615 26.4729 117.615Z" fill="#333333"/>
<path d="M7.50001 139.331L7.50001 139.33C7.49751 138.384 8.40355 137.5 9.65337 137.5H23.3433C24.5926 137.5 25.5 138.384 25.5 139.331V164.669C25.5 165.614 24.5922 166.5 23.3433 166.5H9.65337C8.40782 166.5 7.50001 165.617 7.50001 164.669L7.50001 139.331Z" fill="#CCCCCC" stroke="#333333"/>
<path d="M13 140H16H19" stroke="#333333" stroke-linecap="round"/>
<path d="M22.5 148.081V161.041C22.5 161.158 22.4512 161.269 22.3596 161.357C22.2676 161.444 22.1404 161.5 21.9964 161.5H11.0036C10.8595 161.5 10.7324 161.444 10.6404 161.357C10.5488 161.269 10.5 161.158 10.5 161.041V147.186C10.8899 146.813 11.2786 146.443 11.6671 146.074C12.2166 145.55 12.7655 145.028 13.3167 144.5H21.9964C22.1405 144.5 22.2676 144.556 22.3596 144.643C22.4512 144.731 22.5 144.842 22.5 144.959V148.081Z" fill="url(#paint5_linear_467_17301)" stroke="#333333"/>
<path d="M13 150H16.5H20" stroke="#333333" stroke-linecap="round"/>
<path d="M15 148L17.24 148L19.48 148" stroke="#333333" stroke-linecap="round"/>
<path d="M17 159H19.4964H20" stroke="#333333" stroke-linecap="round"/>
<path d="M13 159H15" stroke="#333333" stroke-linecap="round"/>
<path d="M13 152H16.5H20" stroke="#333333" stroke-linecap="round"/>
<path d="M13 154H16.5H20" stroke="#333333" stroke-linecap="round"/>
<path d="M13 156H16.5H20" stroke="#333333" stroke-linecap="round"/>
<path fill-rule="evenodd" clip-rule="evenodd" d="M12.8452 148C13.4812 148 14 147.482 14 146.846V144.241C14 144.152 13.8923 144.108 13.8293 144.17L10.1709 147.825C10.1079 147.888 10.1525 147.996 10.2416 147.996H12.8452V148Z" fill="#333333"/>
<path d="M2.96552 199.5H29.0345C29.8581 199.5 30.5 198.809 30.5 198C30.5 197.191 29.8581 196.5 29.0345 196.5H2.96552C2.14195 196.5 1.5 197.191 1.5 198C1.5 198.809 2.14195 199.5 2.96552 199.5Z" fill="#CCCCCC" stroke="#333333" stroke-miterlimit="10" stroke-linecap="round" stroke-linejoin="round"/>
<path d="M4.5 182.5C4.5 181.395 5.39543 180.5 6.5 180.5H26.5C27.6046 180.5 28.5 181.395 28.5 182.5V196.5H4.5V182.5Z" fill="#CCCCCC" stroke="#333333"/>
<mask id="path-41-inside-2_467_17301" fill="white">
<path fill-rule="evenodd" clip-rule="evenodd" d="M29.8401 185.857L31 186.123V188.877L29.8401 189.143L29.4535 190.11L30.0818 191.1L28.1245 193.058L27.1097 192.429L26.1431 192.84L25.8773 194H23.1227L22.8569 192.84L21.8903 192.454L20.8996 193.082L18.9424 191.125L19.5706 190.11L19.1599 189.143L18 188.877V186.123L19.1599 185.857L19.5465 184.89L18.9182 183.9L20.8755 181.942L21.8903 182.571L22.8569 182.16L23.1227 181H25.8773L26.1431 182.16L27.1097 182.546L28.1004 181.918L30.0576 183.875L29.4294 184.89L29.8401 185.857ZM24.5 189C25.3284 189 26 188.328 26 187.5C26 186.672 25.3284 186 24.5 186C23.6716 186 23 186.672 23 187.5C23 188.328 23.6716 189 24.5 189Z"/>
</mask>
<path fill-rule="evenodd" clip-rule="evenodd" d="M29.8401 185.857L31 186.123V188.877L29.8401 189.143L29.4535 190.11L30.0818 191.1L28.1245 193.058L27.1097 192.429L26.1431 192.84L25.8773 194H23.1227L22.8569 192.84L21.8903 192.454L20.8996 193.082L18.9424 191.125L19.5706 190.11L19.1599 189.143L18 188.877V186.123L19.1599 185.857L19.5465 184.89L18.9182 183.9L20.8755 181.942L21.8903 182.571L22.8569 182.16L23.1227 181H25.8773L26.1431 182.16L27.1097 182.546L28.1004 181.918L30.0576 183.875L29.4294 184.89L29.8401 185.857ZM24.5 189C25.3284 189 26 188.328 26 187.5C26 186.672 25.3284 186 24.5 186C23.6716 186 23 186.672 23 187.5C23 188.328 23.6716 189 24.5 189Z" fill="url(#paint6_linear_467_17301)"/>
<path d="M31 186.123H32V185.326L31.2234 185.148L31 186.123ZM29.8401 185.857L28.9198 186.248L29.1194 186.718L29.6168 186.832L29.8401 185.857ZM31 188.877L31.2234 189.852L32 189.674V188.877H31ZM29.8401 189.143L29.6168 188.168L29.1062 188.285L28.9117 188.772L29.8401 189.143ZM29.4535 190.11L28.5251 189.738L28.3351 190.213L28.609 190.645L29.4535 190.11ZM30.0818 191.1L30.7889 191.807L31.3552 191.241L30.9263 190.565L30.0818 191.1ZM28.1245 193.058L27.5982 193.908L28.2716 194.325L28.8316 193.765L28.1245 193.058ZM27.1097 192.429L27.636 191.579L27.1954 191.306L26.7185 191.509L27.1097 192.429ZM26.1431 192.84L25.752 191.92L25.2824 192.119L25.1684 192.617L26.1431 192.84ZM25.8773 194V195H26.6741L26.8521 194.223L25.8773 194ZM23.1227 194L22.1479 194.223L22.3259 195H23.1227V194ZM22.8569 192.84L23.8316 192.617L23.7146 192.106L23.2283 191.912L22.8569 192.84ZM21.8903 192.454L22.2617 191.525L21.7868 191.335L21.3548 191.609L21.8903 192.454ZM20.8996 193.082L20.1925 193.789L20.7588 194.355L21.4352 193.926L20.8996 193.082ZM18.9424 191.125L18.0921 190.598L17.6752 191.272L18.2353 191.832L18.9424 191.125ZM19.5706 190.11L20.4209 190.636L20.6936 190.195L20.491 189.719L19.5706 190.11ZM19.1599 189.143L20.0802 188.752L19.8806 188.282L19.3832 188.168L19.1599 189.143ZM18 188.877H17V189.674L17.7766 189.852L18 188.877ZM18 186.123L17.7766 185.148L17 185.326V186.123H18ZM19.1599 185.857L19.3832 186.832L19.8938 186.715L20.0883 186.228L19.1599 185.857ZM19.5465 184.89L20.4749 185.262L20.6649 184.787L20.391 184.355L19.5465 184.89ZM18.9182 183.9L18.2111 183.193L17.6448 183.759L18.0737 184.435L18.9182 183.9ZM20.8755 181.942L21.4018 181.092L20.7284 180.675L20.1684 181.235L20.8755 181.942ZM21.8903 182.571L21.364 183.421L21.8046 183.694L22.2815 183.491L21.8903 182.571ZM22.8569 182.16L23.248 183.08L23.7176 182.881L23.8316 182.383L22.8569 182.16ZM23.1227 181V180H22.3259L22.1479 180.777L23.1227 181ZM25.8773 181L26.8521 180.777L26.6741 180H25.8773V181ZM26.1431 182.16L25.1684 182.383L25.2854 182.894L25.7717 183.088L26.1431 182.16ZM27.1097 182.546L26.7383 183.475L27.2132 183.665L27.6452 183.391L27.1097 182.546ZM28.1004 181.918L28.8075 181.211L28.2412 180.645L27.5648 181.074L28.1004 181.918ZM30.0576 183.875L30.9079 184.402L31.3248 183.728L30.7647 183.168L30.0576 183.875ZM29.4294 184.89L28.5791 184.364L28.3064 184.805L28.509 185.281L29.4294 184.89ZM31.2234 185.148L30.0635 184.882L29.6168 186.832L30.7766 187.097L31.2234 185.148ZM32 188.877V186.123H30V188.877H32ZM30.0635 190.118L31.2234 189.852L30.7766 187.903L29.6168 188.168L30.0635 190.118ZM30.382 190.481L30.7686 189.515L28.9117 188.772L28.5251 189.738L30.382 190.481ZM30.9263 190.565L30.298 189.574L28.609 190.645L29.2373 191.636L30.9263 190.565ZM28.8316 193.765L30.7889 191.807L29.3747 190.393L27.4174 192.351L28.8316 193.765ZM26.5833 193.28L27.5982 193.908L28.6509 192.207L27.636 191.579L26.5833 193.28ZM26.5343 193.76L27.5008 193.35L26.7185 191.509L25.752 191.92L26.5343 193.76ZM26.8521 194.223L27.1179 193.064L25.1684 192.617L24.9026 193.777L26.8521 194.223ZM23.1227 195H25.8773V193H23.1227V195ZM21.8821 193.064L22.1479 194.223L24.0974 193.777L23.8316 192.617L21.8821 193.064ZM21.5189 193.382L22.4855 193.769L23.2283 191.912L22.2617 191.525L21.5189 193.382ZM21.4352 193.926L22.4259 193.298L21.3548 191.609L20.3641 192.237L21.4352 193.926ZM18.2353 191.832L20.1925 193.789L21.6067 192.375L19.6495 190.417L18.2353 191.832ZM18.7204 189.583L18.0921 190.598L19.7926 191.651L20.4209 190.636L18.7204 189.583ZM18.2395 189.534L18.6503 190.501L20.491 189.719L20.0802 188.752L18.2395 189.534ZM17.7766 189.852L18.9365 190.118L19.3832 188.168L18.2234 187.903L17.7766 189.852ZM17 186.123V188.877H19V186.123H17ZM18.9365 184.882L17.7766 185.148L18.2234 187.097L19.3832 186.832L18.9365 184.882ZM18.618 184.519L18.2314 185.485L20.0883 186.228L20.4749 185.262L18.618 184.519ZM18.0737 184.435L18.702 185.426L20.391 184.355L19.7627 183.364L18.0737 184.435ZM20.1684 181.235L18.2111 183.193L19.6253 184.607L21.5826 182.649L20.1684 181.235ZM22.4167 181.72L21.4018 181.092L20.3491 182.793L21.364 183.421L22.4167 181.72ZM22.4657 181.24L21.4992 181.65L22.2815 183.491L23.248 183.08L22.4657 181.24ZM22.1479 180.777L21.8821 181.936L23.8316 182.383L24.0974 181.223L22.1479 180.777ZM25.8773 180H23.1227V182H25.8773V180ZM27.1179 181.936L26.8521 180.777L24.9026 181.223L25.1684 182.383L27.1179 181.936ZM27.4811 181.618L26.5145 181.231L25.7717 183.088L26.7383 183.475L27.4811 181.618ZM27.5648 181.074L26.5741 181.702L27.6452 183.391L28.6359 182.763L27.5648 181.074ZM30.7647 183.168L28.8075 181.211L27.3933 182.625L29.3505 184.583L30.7647 183.168ZM30.2796 185.417L30.9079 184.402L29.2074 183.349L28.5791 184.364L30.2796 185.417ZM30.7605 185.466L30.3497 184.499L28.509 185.281L28.9198 186.248L30.7605 185.466ZM25 187.5C25 187.776 24.7761 188 24.5 188V190C25.8807 190 27 188.881 27 187.5H25ZM24.5 187C24.7761 187 25 187.224 25 187.5H27C27 186.119 25.8807 185 24.5 185V187ZM24 187.5C24 187.224 24.2239 187 24.5 187V185C23.1193 185 22 186.119 22 187.5H24ZM24.5 188C24.2239 188 24 187.776 24 187.5H22C22 188.881 23.1193 190 24.5 190V188Z" fill="#444444" mask="url(#path-41-inside-2_467_17301)"/>
<path d="M15.5 179.081V192.041C15.5 192.158 15.4512 192.269 15.3596 192.357C15.2676 192.444 15.1404 192.5 14.9964 192.5H4.00361C3.85955 192.5 3.73235 192.444 3.64041 192.357C3.5488 192.269 3.5 192.158 3.5 192.041V178.186C3.88991 177.813 4.27862 177.443 4.66707 177.074C5.21655 176.55 5.76554 176.028 6.31674 175.5H14.9964C15.1405 175.5 15.2676 175.556 15.3596 175.643C15.4512 175.731 15.5 175.842 15.5 175.959V179.081Z" fill="#CCCCCC" stroke="#444444"/>
<path d="M6 181H9.5H13" stroke="#333333" stroke-linecap="round"/>
<path d="M8 179L10.24 179L12.48 179" stroke="#333333" stroke-linecap="round"/>
<path d="M10 190H12.4964H13" stroke="#333333" stroke-linecap="round"/>
<path d="M6 190H8" stroke="#333333" stroke-linecap="round"/>
<path d="M6 183H9.5H13" stroke="#333333" stroke-linecap="round"/>
<path d="M6 185H9.5H13" stroke="#333333" stroke-linecap="round"/>
<path d="M6 187H9.5H13" stroke="#333333" stroke-linecap="round"/>
<path fill-rule="evenodd" clip-rule="evenodd" d="M5.84519 179C6.48117 179 7 178.482 7 177.846V175.241C7 175.152 6.89234 175.108 6.82933 175.17L3.17093 178.825C3.10788 178.888 3.15248 178.996 3.2416 178.996H5.84519V179Z" fill="#444444"/>
<path d="M10.5 205C10.5 204.724 10.7239 204.5 11 204.5H23.381C23.5178 204.5 23.6487 204.556 23.743 204.655L23.9236 204.845L29.3621 210.555C29.4506 210.648 29.5 210.772 29.5 210.9V231C29.5 231.276 29.2761 231.5 29 231.5H11C10.7239 231.5 10.5 231.276 10.5 231V205Z" fill="#CCCCCC" stroke="#444444"/>
<path d="M23 204L30 211H24.2121C23.4088 211 23 210.571 23 209.727V204Z" fill="#444444"/>
<path d="M28 230H12C14.4369 230 14.5 227 16.5 227C18.5 227 18.2857 229 20 229C21.7143 229 21.4286 225 24 225C26.2857 225 27.1429 229.25 28 230Z" fill="url(#paint7_linear_467_17301)"/>
<circle cx="13.5" cy="216.5" r="0.5" fill="#333333"/>
<circle cx="21.5" cy="216.5" r="0.5" fill="#333333"/>
<path d="M0 205C0 204.448 0.447715 204 1 204H2C2.55228 204 3 204.448 3 205V231C3 231.552 2.55228 232 2 232H1C0.447715 232 0 231.552 0 231V205Z" fill="#D9D9D9"/>
<path fill-rule="evenodd" clip-rule="evenodd" d="M0 205V231C0 231.552 0.447715 232 1 232H2.5C2.77614 232 3 231.776 3 231.5C3 231.224 2.77614 231 2.5 231H1V205H2.5C2.77614 205 3 204.776 3 204.5C3 204.224 2.77614 204 2.5 204H1C0.447715 204 0 204.448 0 205Z" fill="#444444"/>
<path d="M5 205C5 204.448 5.44772 204 6 204H7C7.55228 204 8 204.448 8 205V231C8 231.552 7.55228 232 7 232H6C5.44772 232 5 231.552 5 231V205Z" fill="#D9D9D9"/>
<path fill-rule="evenodd" clip-rule="evenodd" d="M5 205V231C5 231.552 5.44772 232 6 232H7.5C7.77614 232 8 231.776 8 231.5C8 231.224 7.77614 231 7.5 231H6V205H7.5C7.77614 205 8 204.776 8 204.5C8 204.224 7.77614 204 7.5 204H6C5.44772 204 5 204.448 5 205Z" fill="#444444"/>
<rect x="13" y="207" width="8" height="1" rx="0.5" fill="#333333"/>
<rect x="13" y="210" width="8" height="1" rx="0.5" fill="#333333"/>
<rect x="13" y="219" width="14" height="1" rx="0.5" fill="#333333"/>
<rect x="14" y="219" width="5" height="1" rx="0.5" transform="rotate(90 14 219)" fill="#333333"/>
<rect x="27" y="219" width="5" height="1" rx="0.5" transform="rotate(90 27 219)" fill="#333333"/>
<rect x="18" y="219" width="5" height="1" rx="0.5" transform="rotate(90 18 219)" fill="#333333"/>
<rect x="23" y="219" width="5" height="1" rx="0.5" transform="rotate(90 23 219)" fill="#333333"/>
<rect x="13" y="221" width="14" height="1" rx="0.5" fill="#333333"/>
<rect x="13" y="223" width="14" height="1" rx="0.5" fill="#333333"/>
<rect x="13" y="213" width="6" height="1" rx="0.5" fill="url(#paint8_linear_467_17301)"/>
<rect x="15" y="216" width="4" height="1" rx="0.5" fill="url(#paint9_linear_467_17301)"/>
<rect x="23" y="216" width="4" height="1" rx="0.5" fill="url(#paint10_linear_467_17301)"/>
<rect x="21" y="213" width="6" height="1" rx="0.5" fill="url(#paint11_linear_467_17301)"/>
<mask id="path-74-inside-3_467_17301" fill="white">
<path fill-rule="evenodd" clip-rule="evenodd" d="M27 247.457V252.543L24.8587 253.033L24.145 254.818L25.3048 256.647L21.6915 260.26L19.8178 259.1L18.0335 259.859L17.5428 262H12.4572L11.9665 259.859L10.1822 259.145L8.35316 260.305L4.73978 256.691L5.89963 254.818L5.14126 253.033L3 252.543V247.457L5.14126 246.967L5.85502 245.182L4.69517 243.353L8.30855 239.74L10.1822 240.9L11.9665 240.141L12.4572 238H17.5428L18.0335 240.141L19.8178 240.855L21.6468 239.695L25.2602 243.309L24.1004 245.182L24.8587 246.967L27 247.457ZM15 254C17.2091 254 19 252.209 19 250C19 247.791 17.2091 246 15 246C12.7909 246 11 247.791 11 250C11 252.209 12.7909 254 15 254Z"/>
</mask>
<path fill-rule="evenodd" clip-rule="evenodd" d="M27 247.457V252.543L24.8587 253.033L24.145 254.818L25.3048 256.647L21.6915 260.26L19.8178 259.1L18.0335 259.859L17.5428 262H12.4572L11.9665 259.859L10.1822 259.145L8.35316 260.305L4.73978 256.691L5.89963 254.818L5.14126 253.033L3 252.543V247.457L5.14126 246.967L5.85502 245.182L4.69517 243.353L8.30855 239.74L10.1822 240.9L11.9665 240.141L12.4572 238H17.5428L18.0335 240.141L19.8178 240.855L21.6468 239.695L25.2602 243.309L24.1004 245.182L24.8587 246.967L27 247.457ZM15 254C17.2091 254 19 252.209 19 250C19 247.791 17.2091 246 15 246C12.7909 246 11 247.791 11 250C11 252.209 12.7909 254 15 254Z" fill="#CCCCCC"/>
<path d="M27 252.543L27.2234 253.517L28 253.34V252.543H27ZM27 247.457H28V246.66L27.2234 246.483L27 247.457ZM24.8587 253.033L24.6354 252.059L24.1248 252.176L23.9303 252.662L24.8587 253.033ZM24.145 254.818L23.2165 254.446L23.0265 254.921L23.3005 255.353L24.145 254.818ZM25.3048 256.647L26.0119 257.354L26.5782 256.788L26.1493 256.111L25.3048 256.647ZM21.6915 260.26L21.1651 261.11L21.8385 261.527L22.3986 260.967L21.6915 260.26ZM19.8178 259.1L20.3442 258.25L19.9036 257.977L19.4267 258.18L19.8178 259.1ZM18.0335 259.859L17.6423 258.938L17.1727 259.138L17.0587 259.635L18.0335 259.859ZM17.5428 262V263H18.3395L18.5175 262.223L17.5428 262ZM12.4572 262L11.4825 262.223L11.6605 263H12.4572V262ZM11.9665 259.859L12.9413 259.635L12.8243 259.125L12.3379 258.93L11.9665 259.859ZM10.1822 259.145L10.5535 258.217L10.0786 258.027L9.64661 258.3L10.1822 259.145ZM8.35316 260.305L7.64605 261.012L8.21236 261.578L8.8887 261.149L8.35316 260.305ZM4.73978 256.691L3.88951 256.165L3.47263 256.839L4.03267 257.399L4.73978 256.691ZM5.89963 254.818L6.74989 255.344L7.02264 254.904L6.81996 254.427L5.89963 254.818ZM5.14126 253.033L6.06159 252.642L5.86201 252.173L5.36464 252.059L5.14126 253.033ZM3 252.543H2V253.34L2.77662 253.517L3 252.543ZM3 247.457L2.77662 246.483L2 246.66V247.457H3ZM5.14126 246.967L5.36464 247.941L5.87521 247.824L6.06974 247.338L5.14126 246.967ZM5.85502 245.182L6.7835 245.554L6.97347 245.079L6.69953 244.647L5.85502 245.182ZM4.69517 243.353L3.98806 242.646L3.42176 243.212L3.85066 243.889L4.69517 243.353ZM8.30855 239.74L8.83491 238.89L8.16148 238.473L7.60144 239.033L8.30855 239.74ZM10.1822 240.9L9.6558 241.75L10.0964 242.023L10.5733 241.82L10.1822 240.9ZM11.9665 240.141L12.3577 241.062L12.8273 240.862L12.9413 240.365L11.9665 240.141ZM12.4572 238V237H11.6605L11.4825 237.777L12.4572 238ZM17.5428 238L18.5175 237.777L18.3395 237H17.5428V238ZM18.0335 240.141L17.0587 240.365L17.1757 240.875L17.6621 241.07L18.0335 240.141ZM19.8178 240.855L19.4465 241.783L19.9214 241.973L20.3534 241.7L19.8178 240.855ZM21.6468 239.695L22.3539 238.988L21.7876 238.422L21.1113 238.851L21.6468 239.695ZM25.2602 243.309L26.1105 243.835L26.5274 243.161L25.9673 242.601L25.2602 243.309ZM24.1004 245.182L23.2501 244.656L22.9774 245.096L23.18 245.573L24.1004 245.182ZM24.8587 246.967L23.9384 247.358L24.138 247.827L24.6354 247.941L24.8587 246.967ZM28 252.543V247.457H26V252.543H28ZM25.0821 254.008L27.2234 253.517L26.7766 251.568L24.6354 252.059L25.0821 254.008ZM25.0735 255.189L25.7872 253.405L23.9303 252.662L23.2165 254.446L25.0735 255.189ZM26.1493 256.111L24.9895 254.282L23.3005 255.353L24.4603 257.182L26.1493 256.111ZM22.3986 260.967L26.0119 257.354L24.5977 255.94L20.9843 259.553L22.3986 260.967ZM19.2915 259.951L21.1651 261.11L22.2178 259.41L20.3442 258.25L19.2915 259.951ZM18.4246 260.779L20.209 260.021L19.4267 258.18L17.6423 258.938L18.4246 260.779ZM18.5175 262.223L19.0082 260.082L17.0587 259.635L16.568 261.777L18.5175 262.223ZM12.4572 263H17.5428V261H12.4572V263ZM10.9918 260.082L11.4825 262.223L13.432 261.777L12.9413 259.635L10.9918 260.082ZM9.81077 260.073L11.5952 260.787L12.3379 258.93L10.5535 258.217L9.81077 260.073ZM8.8887 261.149L10.7177 259.989L9.64661 258.3L7.81762 259.46L8.8887 261.149ZM4.03267 257.399L7.64605 261.012L9.06027 259.598L5.44688 255.984L4.03267 257.399ZM5.04936 254.291L3.88951 256.165L5.59004 257.218L6.74989 255.344L5.04936 254.291ZM4.22093 253.425L4.9793 255.209L6.81996 254.427L6.06159 252.642L4.22093 253.425ZM2.77662 253.517L4.91789 254.008L5.36464 252.059L3.22338 251.568L2.77662 253.517ZM2 247.457V252.543H4V247.457H2ZM4.91789 245.992L2.77662 246.483L3.22338 248.432L5.36464 247.941L4.91789 245.992ZM4.92654 244.811L4.21279 246.595L6.06974 247.338L6.7835 245.554L4.92654 244.811ZM3.85066 243.889L5.01051 245.718L6.69953 244.647L5.53968 242.818L3.85066 243.889ZM7.60144 239.033L3.98806 242.646L5.40227 244.06L9.01566 240.447L7.60144 239.033ZM10.7085 240.049L8.83491 238.89L7.7822 240.59L9.6558 241.75L10.7085 240.049ZM11.5754 239.221L9.79102 239.979L10.5733 241.82L12.3577 241.062L11.5754 239.221ZM11.4825 237.777L10.9918 239.918L12.9413 240.365L13.432 238.223L11.4825 237.777ZM17.5428 237H12.4572V239H17.5428V237ZM19.0082 239.918L18.5175 237.777L16.568 238.223L17.0587 240.365L19.0082 239.918ZM20.1892 239.927L18.4048 239.213L17.6621 241.07L19.4465 241.783L20.1892 239.927ZM21.1113 238.851L19.2823 240.011L20.3534 241.7L22.1824 240.54L21.1113 238.851ZM25.9673 242.601L22.3539 238.988L20.9397 240.402L24.5531 244.016L25.9673 242.601ZM24.9506 245.709L26.1105 243.835L24.41 242.782L23.2501 244.656L24.9506 245.709ZM25.7791 246.575L25.0207 244.791L23.18 245.573L23.9384 247.358L25.7791 246.575ZM27.2234 246.483L25.0821 245.992L24.6354 247.941L26.7766 248.432L27.2234 246.483ZM18 250C18 251.657 16.6569 253 15 253V255C17.7614 255 20 252.761 20 250H18ZM15 247C16.6569 247 18 248.343 18 250H20C20 247.239 17.7614 245 15 245V247ZM12 250C12 248.343 13.3431 247 15 247V245C12.2386 245 10 247.239 10 250H12ZM15 253C13.3431 253 12 251.657 12 250H10C10 252.761 12.2386 255 15 255V253Z" fill="#333333" mask="url(#path-74-inside-3_467_17301)"/>
<path d="M32.048 250.088L28.4781 253.658L25.4902 252.843L24.6754 249.855L28.2453 246.285C26.3439 245.742 24.2097 246.207 22.6964 247.721C20.5234 249.894 20.5234 253.464 22.6964 255.637C24.8694 257.81 28.4393 257.81 30.6123 255.637C32.1256 254.123 32.5913 251.989 32.048 250.088Z" fill="#CCCCCC" stroke="#333333" stroke-miterlimit="10" stroke-linecap="round" stroke-linejoin="round"/>
<path d="M21.2891 253.744L20.9355 253.391L20.582 253.744L12.4608 261.865C11.3283 262.998 11.3283 264.834 12.4608 265.966C13.5934 267.099 15.4295 267.099 16.5621 265.966L24.6832 257.845L25.0368 257.492L24.6832 257.138L21.2891 253.744Z" fill="url(#paint12_linear_467_17301)" stroke="#333333"/>
<path d="M14.3999 264.8C14.9522 264.8 15.3999 264.352 15.3999 263.8C15.3999 263.248 14.9522 262.8 14.3999 262.8C13.8476 262.8 13.3999 263.248 13.3999 263.8C13.3999 264.352 13.8476 264.8 14.3999 264.8Z" fill="#444444"/>
<defs>
<linearGradient id="paint0_linear_467_17301" x1="2.06451" y1="2.37423" x2="15.5119" y2="27.1338" gradientUnits="userSpaceOnUse">
<stop stop-color="#FFC671"/>
<stop offset="0.59375" stop-color="#FF7541"/>
<stop offset="1" stop-color="#FF6F3D"/>
</linearGradient>
<linearGradient id="paint1_linear_467_17301" x1="15" y1="51.6484" x2="22.5414" y2="65.5791" gradientUnits="userSpaceOnUse">
<stop stop-color="#FFC671"/>
<stop offset="0.59375" stop-color="#FF7541"/>
<stop offset="1" stop-color="#FF6F3D"/>
</linearGradient>
<linearGradient id="paint2_linear_467_17301" x1="17.5015" y1="82.4531" x2="31.5015" y2="97" gradientUnits="userSpaceOnUse">
<stop stop-color="#FF8E3D"/>
<stop offset="1" stop-color="#FF6F3D"/>
</linearGradient>
<linearGradient id="paint3_linear_467_17301" x1="1.00006" y1="101.625" x2="6.52407" y2="119.106" gradientUnits="userSpaceOnUse">
<stop stop-color="#FF8E3D"/>
<stop offset="1" stop-color="#FF6F3D"/>
</linearGradient>
<linearGradient id="paint4_linear_467_17301" x1="1.00006" y1="112.609" x2="6.98326" y2="130.638" gradientUnits="userSpaceOnUse">
<stop stop-color="#FF8E3D"/>
<stop offset="1" stop-color="#FF6F3D"/>
</linearGradient>
<linearGradient id="paint5_linear_467_17301" x1="10" y1="143.297" x2="27.2955" y2="156.276" gradientUnits="userSpaceOnUse">
<stop stop-color="#FF8E3D"/>
<stop offset="1" stop-color="#FF6F3D"/>
</linearGradient>
<linearGradient id="paint6_linear_467_17301" x1="18" y1="180.492" x2="31" y2="194" gradientUnits="userSpaceOnUse">
<stop stop-color="#FF8E3D"/>
<stop offset="1" stop-color="#FF6F3D"/>
</linearGradient>
<linearGradient id="paint7_linear_467_17301" x1="12" y1="224.805" x2="14.7601" y2="233.982" gradientUnits="userSpaceOnUse">
<stop stop-color="#FF8E3D"/>
<stop offset="1" stop-color="#FF6F3D"/>
</linearGradient>
<linearGradient id="paint8_linear_467_17301" x1="13" y1="212.961" x2="13.313" y2="214.912" gradientUnits="userSpaceOnUse">
<stop stop-color="#FF8E3D"/>
<stop offset="1" stop-color="#FF6F3D"/>
</linearGradient>
<linearGradient id="paint9_linear_467_17301" x1="15" y1="215.961" x2="15.4552" y2="217.853" gradientUnits="userSpaceOnUse">
<stop stop-color="#FF8E3D"/>
<stop offset="1" stop-color="#FF6F3D"/>
</linearGradient>
<linearGradient id="paint10_linear_467_17301" x1="23" y1="215.961" x2="23.4552" y2="217.853" gradientUnits="userSpaceOnUse">
<stop stop-color="#FF8E3D"/>
<stop offset="1" stop-color="#FF6F3D"/>
</linearGradient>
<linearGradient id="paint11_linear_467_17301" x1="21" y1="212.961" x2="21.313" y2="214.912" gradientUnits="userSpaceOnUse">
<stop stop-color="#FF8E3D"/>
<stop offset="1" stop-color="#FF6F3D"/>
</linearGradient>
<linearGradient id="paint12_linear_467_17301" x1="22.6326" y1="255.795" x2="12.8144" y2="265.613" gradientUnits="userSpaceOnUse">
<stop stop-color="#FF8E3D"/>
<stop offset="1" stop-color="#FF6F3D"/>
</linearGradient>
<clipPath id="clip0_467_17301">
<rect width="32" height="32" fill="white" transform="translate(0 68)"/>
</clipPath>
</defs>
</svg>
