<svg width="106" height="895" viewBox="0 0 106 895" fill="none" xmlns="http://www.w3.org/2000/svg">
<path d="M94.5 833V652L61.5 631V334" stroke="url(#paint0_linear_104_17150)"/>
<ellipse cx="94" cy="675.684" rx="2" ry="29.6842" fill="url(#paint1_radial_104_17150)"/>
<g style="mix-blend-mode:hard-light">
<ellipse cx="94" cy="676.316" rx="2" ry="29.6842" fill="url(#paint2_radial_104_17150)"/>
</g>
<circle cx="94.5" cy="832.5" r="1.5" fill="#D9D9D9"/>
<g style="mix-blend-mode:plus-lighter">
<path d="M105.968 833.858C105.499 840.464 99.7563 845.447 93.1502 844.968C86.5348 844.499 81.5615 838.756 82.0306 832.15C82.5092 825.535 88.2426 820.561 94.858 821.031C101.464 821.5 106.447 827.243 105.968 833.849V833.858Z" fill="url(#paint3_radial_104_17150)" style="mix-blend-mode:color-dodge"/>
</g>
<ellipse cx="30" cy="344.682" rx="2" ry="29.6842" fill="url(#paint4_radial_104_17150)"/>
<g style="mix-blend-mode:hard-light">
<ellipse cx="30" cy="344.682" rx="2" ry="29.6842" fill="url(#paint5_radial_104_17150)"/>
</g>
<path d="M62 633V279" stroke="url(#paint6_linear_104_17150)"/>
<circle cx="61.5" cy="631.5" r="1.5" fill="#D9D9D9"/>
<g style="mix-blend-mode:plus-lighter">
<path d="M72.9682 632.858C72.499 639.464 66.7563 644.447 60.1502 643.968C53.5348 643.499 48.5615 637.756 49.0306 631.15C49.5092 624.535 55.2426 619.561 61.858 620.031C68.4641 620.5 73.4468 626.243 72.9682 632.849V632.858Z" fill="url(#paint7_radial_104_17150)" style="mix-blend-mode:color-dodge"/>
</g>
<path d="M30 389V315L63 294V187" stroke="url(#paint8_linear_104_17150)"/>
<circle cx="29.5" cy="388.5" r="1.5" fill="#D9D9D9"/>
<g style="mix-blend-mode:plus-lighter">
<path d="M41.9682 389.858C41.499 396.464 35.7563 401.447 29.1502 400.968C22.5348 400.499 17.5615 394.756 18.0306 388.15C18.5092 381.535 24.2426 376.561 30.858 377.031C37.4641 377.5 42.4468 383.243 41.9682 389.849V389.858Z" fill="url(#paint9_radial_104_17150)" style="mix-blend-mode:color-dodge"/>
</g>
<defs>
<linearGradient id="paint0_linear_104_17150" x1="78" y1="334" x2="78" y2="881" gradientUnits="userSpaceOnUse">
<stop stop-color="#313131" stop-opacity="0.52"/>
<stop offset="1" stop-color="#A3A3A3"/>
</linearGradient>
<radialGradient id="paint1_radial_104_17150" cx="0" cy="0" r="1" gradientUnits="userSpaceOnUse" gradientTransform="translate(94 675.684) rotate(90) scale(29.6842 2)">
<stop offset="0.302083" stop-color="#FF6F3D"/>
<stop offset="1" stop-opacity="0"/>
</radialGradient>
<radialGradient id="paint2_radial_104_17150" cx="0" cy="0" r="1" gradientUnits="userSpaceOnUse" gradientTransform="translate(94 676.316) rotate(90) scale(29.6842 2)">
<stop offset="0.302083" stop-color="#FF6F3D"/>
<stop offset="1" stop-opacity="0"/>
</radialGradient>
<radialGradient id="paint3_radial_104_17150" cx="0" cy="0" r="1" gradientUnits="userSpaceOnUse" gradientTransform="translate(93.9968 832.984) rotate(4.08) scale(12.0016)">
<stop stop-color="#A1A1A1"/>
<stop offset="1" stop-opacity="0"/>
</radialGradient>
<radialGradient id="paint4_radial_104_17150" cx="0" cy="0" r="1" gradientUnits="userSpaceOnUse" gradientTransform="translate(30 344.682) rotate(90) scale(29.6842 2)">
<stop offset="0.302083" stop-color="#FF6F3D"/>
<stop offset="1" stop-opacity="0"/>
</radialGradient>
<radialGradient id="paint5_radial_104_17150" cx="0" cy="0" r="1" gradientUnits="userSpaceOnUse" gradientTransform="translate(30 344.682) rotate(90) scale(29.6842 2)">
<stop offset="0.302083" stop-color="#FF6F3D"/>
<stop offset="1" stop-opacity="0"/>
</radialGradient>
<linearGradient id="paint6_linear_104_17150" x1="46" y1="379.5" x2="46" y2="618" gradientUnits="userSpaceOnUse">
<stop stop-color="#313131" stop-opacity="0.52"/>
<stop offset="1" stop-color="#A3A3A3"/>
</linearGradient>
<radialGradient id="paint7_radial_104_17150" cx="0" cy="0" r="1" gradientUnits="userSpaceOnUse" gradientTransform="translate(60.9968 631.984) rotate(4.08) scale(12.0016)">
<stop stop-color="#A1A1A1"/>
<stop offset="1" stop-opacity="0"/>
</radialGradient>
<linearGradient id="paint8_linear_104_17150" x1="46.5" y1="158" x2="46.5" y2="397.5" gradientUnits="userSpaceOnUse">
<stop stop-color="#313131" stop-opacity="0.52"/>
<stop offset="1" stop-color="#A3A3A3"/>
</linearGradient>
<radialGradient id="paint9_radial_104_17150" cx="0" cy="0" r="1" gradientUnits="userSpaceOnUse" gradientTransform="translate(29.9968 388.984) rotate(4.08) scale(12.0016)">
<stop stop-color="#A1A1A1"/>
<stop offset="1" stop-opacity="0"/>
</radialGradient>
</defs>
</svg>
