<svg width="32" height="32" viewBox="0 0 32 32" fill="none" xmlns="http://www.w3.org/2000/svg">
<path d="M12.6522 30.0001C12.5196 30 12.3885 29.9735 12.267 29.9222L8.97922 28.6001C8.73689 28.5031 8.54482 28.3158 8.44604 28.0802C8.34844 27.8478 8.35269 27.5868 8.45782 27.3574L9.24082 25.5214C8.47028 24.953 7.78275 24.2859 7.19702 23.5383L5.28717 24.3034C5.04927 24.3998 4.78139 24.3994 4.54384 24.3021C4.30642 24.2071 4.11747 24.0247 4.01833 23.7949L2.65674 20.591C2.45047 20.1158 2.6781 19.5683 3.16648 19.3648C3.7315 19.1389 5.16133 18.3316 6.70972 17.831C8.25811 17.3304 9.0323 18.0813 9.37814 19.0826C10.848 23.3378 18.9282 25.4172 21.6775 20.0838C21.8273 19.7931 22.2019 18.8367 22.6119 18.1292C22.9678 17.5807 23.4975 17.3175 24.4003 17.6961C25.3145 18.0794 26.4913 18.6018 27.0341 18.815L28.3846 19.3604C28.625 19.4556 28.8153 19.641 28.9125 19.8746C29.0098 20.1056 29.0091 20.3645 28.9107 20.595L27.5435 23.793C27.4449 24.0268 27.2534 24.2123 27.0122 24.3078C26.771 24.4032 26.5004 24.4004 26.2613 24.3002L24.3642 23.5386C23.7795 24.2857 23.0921 24.9517 22.3212 25.518L23.1089 27.369C23.2102 27.5954 23.2126 27.852 23.1156 28.0803C23.0166 28.3165 22.8238 28.5041 22.5806 28.6009L19.2877 29.9252C19.0492 30.0221 18.7807 30.0225 18.542 29.9262C18.3032 29.8299 18.1141 29.6449 18.0168 29.4126L17.2257 27.5643C16.2677 27.6939 15.2958 27.6953 14.3375 27.5683L13.5497 29.4148C13.4004 29.7682 13.0459 29.9992 12.6522 30.0001Z" fill="#CCCCCC"/>
<path d="M12.6522 30.0001L12.6517 30.5001L12.6533 30.5001L12.6522 30.0001ZM12.267 29.9222L12.4613 29.4614L12.4536 29.4583L12.267 29.9222ZM8.97922 28.6001L9.16577 28.1362L9.16513 28.136L8.97922 28.6001ZM8.44604 28.0802L8.90714 27.8869L8.90705 27.8866L8.44604 28.0802ZM8.45782 27.3574L8.91251 27.5658L8.91774 27.5536L8.45782 27.3574ZM9.24082 25.5214L9.70074 25.7176L9.85587 25.3538L9.53764 25.1191L9.24082 25.5214ZM7.19702 23.5383L7.5906 23.2299L7.35927 22.9347L7.01108 23.0741L7.19702 23.5383ZM5.28717 24.3034L5.10123 23.8392L5.09934 23.84L5.28717 24.3034ZM4.54384 24.3021L4.73321 23.8394L4.72964 23.838L4.54384 24.3021ZM4.01833 23.7949L3.55815 23.9905L3.55923 23.993L4.01833 23.7949ZM2.65674 20.591L3.11692 20.3954L3.11539 20.3919L2.65674 20.591ZM3.16648 19.3648L2.98086 18.9005L2.97418 18.9032L3.16648 19.3648ZM21.6775 20.0838L22.1219 20.3129L21.6775 20.0838ZM27.0341 18.815L27.2213 18.3513L27.2168 18.3495L27.0341 18.815ZM28.3846 19.3604L28.1974 19.824L28.2005 19.8252L28.3846 19.3604ZM28.9125 19.8746L28.4508 20.0665L28.4517 20.0686L28.9125 19.8746ZM28.9107 20.595L29.3704 20.7916L29.3705 20.7914L28.9107 20.595ZM27.5435 23.793L27.0838 23.5964L27.0828 23.5987L27.5435 23.793ZM27.0122 24.3078L27.1961 24.7727L27.0122 24.3078ZM26.2613 24.3002L26.4546 23.839L26.4476 23.8362L26.2613 24.3002ZM24.3642 23.5386L24.5505 23.0746L24.2019 22.9347L23.9704 23.2304L24.3642 23.5386ZM22.3212 25.518L22.0252 25.115L21.706 25.3494L21.8611 25.7138L22.3212 25.518ZM23.1089 27.369L22.6488 27.5648L22.6525 27.5731L23.1089 27.369ZM23.1156 28.0803L22.6554 27.8846L22.6544 27.887L23.1156 28.0803ZM22.5806 28.6009L22.3957 28.1364L22.3941 28.137L22.5806 28.6009ZM19.2877 29.9252L19.1012 29.4613L19.0995 29.462L19.2877 29.9252ZM18.542 29.9262L18.729 29.4625L18.542 29.9262ZM18.0168 29.4126L18.478 29.2194L18.4765 29.2158L18.0168 29.4126ZM17.2257 27.5643L17.6854 27.3676L17.5357 27.0178L17.1587 27.0688L17.2257 27.5643ZM14.3375 27.5683L14.4031 27.0726L14.0266 27.0227L13.8776 27.3721L14.3375 27.5683ZM13.5497 29.4148L13.0898 29.2186L13.0891 29.2202L13.5497 29.4148ZM24.4003 17.6961L24.2069 18.1572L24.4003 17.6961ZM22.6119 18.1292L22.1924 17.857L22.1856 17.8676L22.1792 17.8785L22.6119 18.1292ZM12.6526 29.5001C12.5864 29.5 12.5212 29.4868 12.4613 29.4615L12.0727 30.3829C12.2559 30.4602 12.4529 30.4999 12.6517 30.5001L12.6526 29.5001ZM12.4536 29.4583L9.16577 28.1362L8.79268 29.064L12.0805 30.3861L12.4536 29.4583ZM9.16513 28.136C9.04402 28.0875 8.95288 27.9959 8.90714 27.8869L7.98494 28.2736C8.13676 28.6356 8.42977 28.9187 8.79332 29.0643L9.16513 28.136ZM8.90705 27.8866C8.86365 27.7833 8.86546 27.6681 8.91234 27.5658L8.00329 27.1491C7.83993 27.5055 7.83323 27.9122 7.98503 28.2738L8.90705 27.8866ZM8.91774 27.5536L9.70074 25.7176L8.7809 25.3253L7.99789 27.1613L8.91774 27.5536ZM9.53764 25.1191C8.80316 24.5772 8.14825 23.9417 7.5906 23.2299L6.80343 23.8467C7.41726 24.6301 8.13741 25.3288 8.944 25.9238L9.53764 25.1191ZM7.01108 23.0741L5.10123 23.8392L5.4731 24.7675L7.38295 24.0024L7.01108 23.0741ZM5.09934 23.84C4.98243 23.8874 4.84992 23.8872 4.7332 23.8394L4.35447 24.7649C4.71286 24.9116 5.11612 24.9122 5.475 24.7667L5.09934 23.84ZM4.72964 23.838C4.61192 23.7908 4.52296 23.7024 4.47743 23.5969L3.55923 23.993C3.71198 24.3471 4.00091 24.6234 4.35804 24.7663L4.72964 23.838ZM4.4785 23.5994L3.11691 20.3954L2.19657 20.7866L3.55816 23.9905L4.4785 23.5994ZM3.11539 20.3919C3.02427 20.182 3.11851 19.9264 3.35879 19.8263L2.97418 18.9032C2.23769 19.2101 1.87667 20.0497 2.19809 20.7901L3.11539 20.3919ZM26.8469 19.2786L28.1974 19.824L28.5719 18.8967L27.2213 18.3513L26.8469 19.2786ZM28.2005 19.8252C28.3184 19.8719 28.4068 19.9608 28.4508 20.0665L29.3741 19.6826C29.2239 19.3213 28.9316 19.0392 28.5688 18.8955L28.2005 19.8252ZM28.4517 20.0686C28.4963 20.1747 28.4961 20.2928 28.4508 20.3987L29.3705 20.7914C29.5222 20.4362 29.5232 20.0364 29.3732 19.6805L28.4517 20.0686ZM28.4509 20.3985L27.0838 23.5964L28.0033 23.9895L29.3704 20.7916L28.4509 20.3985ZM27.0828 23.5987C27.0376 23.7058 26.9477 23.7956 26.8283 23.8428L27.1961 24.7727C27.5591 24.6291 27.8521 24.3479 28.0042 23.9873L27.0828 23.5987ZM26.8283 23.8428C26.7084 23.8902 26.5732 23.8888 26.4546 23.8391L26.068 24.7613C26.4275 24.9121 26.8336 24.9161 27.1961 24.7727L26.8283 23.8428ZM26.4476 23.8362L24.5505 23.0746L24.1779 24.0026L26.075 24.7642L26.4476 23.8362ZM23.9704 23.2304C23.4141 23.9413 22.7596 24.5755 22.0252 25.115L22.6172 25.9209C23.4245 25.3279 24.1449 24.6301 24.7579 23.8467L23.9704 23.2304ZM21.8611 25.7138L22.6488 27.5648L23.569 27.1732L22.7812 25.3222L21.8611 25.7138ZM22.6525 27.5731C22.697 27.6727 22.698 27.7844 22.6554 27.8846L23.5757 28.2759C23.7272 27.9196 23.7234 27.5182 23.5653 27.1648L22.6525 27.5731ZM22.6544 27.887C22.6086 27.9963 22.5172 28.088 22.3957 28.1364L22.7656 29.0655C23.1304 28.9202 23.4246 28.6366 23.5767 28.2735L22.6544 27.887ZM22.3941 28.137L19.1012 29.4613L19.4743 30.3891L22.7672 29.0648L22.3941 28.137ZM19.0995 29.462C18.9813 29.51 18.8474 29.5102 18.729 29.4625L18.3549 30.3899C18.7141 30.5347 19.1172 30.5342 19.4759 30.3885L19.0995 29.462ZM18.729 29.4625C18.6111 29.4149 18.5225 29.3256 18.478 29.2194L17.5556 29.6057C17.7058 29.9642 17.9954 30.2448 18.3549 30.3899L18.729 29.4625ZM18.4765 29.2158L17.6854 27.3676L16.766 27.7611L17.5571 29.6093L18.4765 29.2158ZM17.1587 27.0688C16.2447 27.1925 15.3175 27.1938 14.4031 27.0726L14.2718 28.064C15.2742 28.1968 16.2907 28.1954 17.2927 28.0598L17.1587 27.0688ZM13.8776 27.3721L13.0898 29.2186L14.0096 29.611L14.7974 27.7645L13.8776 27.3721ZM13.0891 29.2202C13.0206 29.3823 12.8513 29.4997 12.651 29.5001L12.6533 30.5001C13.2404 30.4988 13.7802 30.154 14.0103 29.6094L13.0891 29.2202ZM27.9829 20.8023H27.9837V19.8023H27.9829V20.8023ZM24.2069 18.1572C25.0998 18.5316 26.3039 19.0654 26.8513 19.2804L27.2168 18.3495C26.6786 18.1382 25.5292 17.6273 24.5937 17.235L24.2069 18.1572ZM22.1219 20.3129C22.2047 20.1522 22.3505 19.8074 22.5031 19.4679C22.6653 19.1072 22.8529 18.7105 23.0445 18.3799L22.1792 17.8785C21.9608 18.2554 21.7562 18.6907 21.5911 19.0578C21.4165 19.446 21.3 19.7248 21.233 19.8547L22.1219 20.3129ZM23.0313 18.4014C23.1683 18.1902 23.304 18.0861 23.4448 18.0438C23.5882 18.0008 23.8225 17.996 24.2069 18.1572L24.5937 17.235C24.0752 17.0176 23.5934 16.9551 23.1571 17.0861C22.7184 17.2179 22.4113 17.5198 22.1924 17.857L23.0313 18.4014ZM3.35209 19.8291C3.65168 19.7093 4.19395 19.4303 4.78229 19.1533C5.39632 18.8643 6.11886 18.5475 6.86354 18.3068L6.5559 17.3553C5.75219 17.6151 4.98563 17.9523 4.35638 18.2485C3.70146 18.5568 3.2463 18.7944 2.98088 18.9005L3.35209 19.8291ZM8.90554 19.2458C9.72016 21.6042 12.3077 23.2704 14.9733 23.6733C17.6679 24.0807 20.622 23.2226 22.1219 20.3129L21.233 19.8547C19.9837 22.2784 17.523 23.0474 15.1227 22.6846C12.6935 22.3173 10.5059 20.8162 9.85074 18.9193L8.90554 19.2458ZM6.86354 18.3068C7.54253 18.0872 7.96803 18.1656 8.24349 18.3258C8.5325 18.4939 8.75464 18.8089 8.90554 19.2458L9.85074 18.9193C9.6558 18.355 9.31792 17.7939 8.74629 17.4614C8.16108 17.121 7.4253 17.0742 6.5559 17.3553L6.86354 18.3068Z" fill="#444444"/>
<path fill-rule="evenodd" clip-rule="evenodd" d="M25.9546 19.5198H8.21453C4.53355 19.5198 1.5484 16.6326 1.5484 13.0696C1.5484 9.57494 4.42021 6.73032 8.00364 6.62255C9.2773 4.10775 11.9245 2.5 14.8379 2.5C17.7566 2.5 20.4082 4.11362 21.6792 6.63632C23.7867 6.7937 25.6534 8.02128 26.5801 9.86079C29.1275 10.1674 31.0463 12.3057 30.9653 14.8226C30.881 17.4417 28.6615 19.5212 25.9546 19.5198ZM25.9549 19.0198L25.9546 19.5198L25.9549 19.0198ZM25.9549 19.0198V19.5198H25.9546M25.9549 19.0198H8.21453C4.81798 19.0198 2.06453 16.3558 2.06453 13.0696C2.06453 9.78339 4.81798 7.11939 8.21453 7.11939C8.25474 7.11939 8.29467 7.11962 8.33417 7.12049C9.46232 4.6179 12.016 3 14.8379 3C17.6599 3 20.2136 4.6179 21.3417 7.12049C23.4833 7.16721 25.3979 8.42372 26.2346 10.3316C28.6586 10.4766 30.525 12.4584 30.4494 14.807C30.3738 17.1555 28.3835 19.0211 25.9549 19.0198Z" fill="#444444"/>
<mask id="path-4-outside-1_130_40840" maskUnits="userSpaceOnUse" x="1.06451" y="2" width="31" height="19" fill="black">
<rect fill="white" x="1.06451" y="2" width="31" height="19"/>
<path fill-rule="evenodd" clip-rule="evenodd" d="M8.21451 19.0198H25.9549C28.3835 19.0211 30.3738 17.1555 30.4494 14.807C30.525 12.4584 28.6586 10.4766 26.2346 10.3316C25.3979 8.42372 23.4833 7.16721 21.3417 7.12049C20.2135 4.6179 17.6598 3 14.8379 3C12.016 3 9.4623 4.6179 8.33415 7.12049C8.29465 7.11962 8.25472 7.11939 8.21451 7.11939C4.81796 7.11939 2.06451 9.78339 2.06451 13.0696C2.06451 16.3558 4.81796 19.0198 8.21451 19.0198ZM8.56 16C8.39411 15.9998 8.23842 15.9224 8.14145 15.792C8.04448 15.6616 8.01803 15.4941 8.07034 15.3416L10.1334 9.34611C10.1355 9.34001 10.1377 9.33395 10.1399 9.32793C10.1673 9.25558 10.2103 9.19289 10.2639 9.14225C10.3109 9.09771 10.3674 9.06133 10.4317 9.03632C10.4923 9.01264 10.5577 8.99999 10.6245 9C10.6913 8.99999 10.7567 9.01264 10.8174 9.03632C10.8816 9.06133 10.9381 9.09771 10.9851 9.14225C11.0388 9.19289 11.0818 9.25558 11.1091 9.32793C11.1114 9.33394 11.1136 9.33999 11.1156 9.34608L13.1787 15.3416C13.231 15.4941 13.2046 15.6616 13.1076 15.792C13.0107 15.9224 12.855 15.9998 12.6891 16C12.4669 16 12.2696 15.8622 12.1994 15.658L11.4568 13.5H9.79223L9.04965 15.658C8.97946 15.8622 8.7822 16 8.56 16ZM10.6245 11.0813L10.1363 12.5H11.1127L10.6245 11.0813ZM14.2375 15.9998C13.9524 15.9998 13.7213 15.776 13.7213 15.4998V12.5V9.50021C13.7213 9.22408 13.9524 9.00024 14.2375 9.00024H16.302C17.4422 9.00024 18.3665 9.89562 18.3665 11.0001C18.3665 12.1046 17.4422 13 16.302 13H14.7536V15.4998C14.7536 15.776 14.5225 15.9998 14.2375 15.9998ZM14.7536 12.0001H16.302C16.8721 12.0001 17.3343 11.5524 17.3343 11.0001C17.3343 10.4479 16.8721 10.0002 16.302 10.0002H14.7536V12.0001ZM19.9149 10.0002V14.9999H18.8827C18.5976 14.9999 18.3666 15.2237 18.3666 15.4999C18.3666 15.776 18.5976 15.9998 18.8827 15.9998H21.9795C22.2645 15.9998 22.4956 15.776 22.4956 15.4999C22.4956 15.2237 22.2645 14.9999 21.9795 14.9999H20.9472V10.0002H21.9794C22.2645 10.0002 22.4956 9.77634 22.4956 9.50021C22.4956 9.22408 22.2645 9.00024 21.9794 9.00024H20.4311H18.8826C18.5976 9.00024 18.3665 9.22408 18.3665 9.50021C18.3665 9.77634 18.5976 10.0002 18.8826 10.0002H19.9149Z"/>
</mask>
<path fill-rule="evenodd" clip-rule="evenodd" d="M8.21451 19.0198H25.9549C28.3835 19.0211 30.3738 17.1555 30.4494 14.807C30.525 12.4584 28.6586 10.4766 26.2346 10.3316C25.3979 8.42372 23.4833 7.16721 21.3417 7.12049C20.2135 4.6179 17.6598 3 14.8379 3C12.016 3 9.4623 4.6179 8.33415 7.12049C8.29465 7.11962 8.25472 7.11939 8.21451 7.11939C4.81796 7.11939 2.06451 9.78339 2.06451 13.0696C2.06451 16.3558 4.81796 19.0198 8.21451 19.0198ZM8.56 16C8.39411 15.9998 8.23842 15.9224 8.14145 15.792C8.04448 15.6616 8.01803 15.4941 8.07034 15.3416L10.1334 9.34611C10.1355 9.34001 10.1377 9.33395 10.1399 9.32793C10.1673 9.25558 10.2103 9.19289 10.2639 9.14225C10.3109 9.09771 10.3674 9.06133 10.4317 9.03632C10.4923 9.01264 10.5577 8.99999 10.6245 9C10.6913 8.99999 10.7567 9.01264 10.8174 9.03632C10.8816 9.06133 10.9381 9.09771 10.9851 9.14225C11.0388 9.19289 11.0818 9.25558 11.1091 9.32793C11.1114 9.33394 11.1136 9.33999 11.1156 9.34608L13.1787 15.3416C13.231 15.4941 13.2046 15.6616 13.1076 15.792C13.0107 15.9224 12.855 15.9998 12.6891 16C12.4669 16 12.2696 15.8622 12.1994 15.658L11.4568 13.5H9.79223L9.04965 15.658C8.97946 15.8622 8.7822 16 8.56 16ZM10.6245 11.0813L10.1363 12.5H11.1127L10.6245 11.0813ZM14.2375 15.9998C13.9524 15.9998 13.7213 15.776 13.7213 15.4998V12.5V9.50021C13.7213 9.22408 13.9524 9.00024 14.2375 9.00024H16.302C17.4422 9.00024 18.3665 9.89562 18.3665 11.0001C18.3665 12.1046 17.4422 13 16.302 13H14.7536V15.4998C14.7536 15.776 14.5225 15.9998 14.2375 15.9998ZM14.7536 12.0001H16.302C16.8721 12.0001 17.3343 11.5524 17.3343 11.0001C17.3343 10.4479 16.8721 10.0002 16.302 10.0002H14.7536V12.0001ZM19.9149 10.0002V14.9999H18.8827C18.5976 14.9999 18.3666 15.2237 18.3666 15.4999C18.3666 15.776 18.5976 15.9998 18.8827 15.9998H21.9795C22.2645 15.9998 22.4956 15.776 22.4956 15.4999C22.4956 15.2237 22.2645 14.9999 21.9795 14.9999H20.9472V10.0002H21.9794C22.2645 10.0002 22.4956 9.77634 22.4956 9.50021C22.4956 9.22408 22.2645 9.00024 21.9794 9.00024H20.4311H18.8826C18.5976 9.00024 18.3665 9.22408 18.3665 9.50021C18.3665 9.77634 18.5976 10.0002 18.8826 10.0002H19.9149Z" fill="url(#paint0_linear_130_40840)"/>
<path d="M25.9549 19.0198L25.9554 18.0198H25.9549V19.0198ZM26.2346 10.3316L25.3188 10.7333L25.5645 11.2933L26.1749 11.3299L26.2346 10.3316ZM21.3417 7.12049L20.43 7.53145L20.6893 8.10649L21.3199 8.12025L21.3417 7.12049ZM8.33415 7.12049L8.31214 8.12024L8.97381 8.13481L9.24581 7.53145L8.33415 7.12049ZM8.14145 15.792L7.33903 16.3888L7.33903 16.3888L8.14145 15.792ZM8.56 16L8.55862 17H8.56009L8.56 16ZM8.07034 15.3416L7.12476 15.0162L7.12444 15.0171L8.07034 15.3416ZM10.1334 9.34611L11.0791 9.6715L11.0816 9.66393L10.1334 9.34611ZM10.1399 9.32793L11.0749 9.68273L11.0753 9.68158L10.1399 9.32793ZM10.2639 9.14225L10.9503 9.86945L10.9515 9.86838L10.2639 9.14225ZM10.4317 9.03632L10.7943 9.96827L10.7956 9.96778L10.4317 9.03632ZM10.6245 9L10.6244 10H10.6247L10.6245 9ZM10.8174 9.03632L10.4535 9.96778L10.4548 9.96827L10.8174 9.03632ZM10.9851 9.14225L10.2976 9.86838L10.2987 9.86945L10.9851 9.14225ZM11.1091 9.32793L10.1738 9.68158L10.1741 9.68259L11.1091 9.32793ZM11.1156 9.34608L10.1675 9.66398L10.17 9.67146L11.1156 9.34608ZM13.1787 15.3416L14.1246 15.0171L14.1243 15.0162L13.1787 15.3416ZM13.1076 15.792L12.3052 15.1953L12.3052 15.1953L13.1076 15.792ZM12.6891 16L12.689 17L12.6905 17L12.6891 16ZM12.1994 15.658L13.1451 15.3329L13.145 15.3326L12.1994 15.658ZM11.4568 13.5L12.4024 13.1746L12.1703 12.5H11.4568V13.5ZM9.79223 13.5V12.5H9.07879L8.84665 13.1746L9.79223 13.5ZM9.04965 15.658L8.10407 15.3326L8.10395 15.3329L9.04965 15.658ZM10.1363 12.5L9.19076 12.1746L8.73468 13.5H10.1363V12.5ZM10.6245 11.0813L11.5701 10.7559L10.6245 8.00798L9.67895 10.7559L10.6245 11.0813ZM11.1127 12.5V13.5H12.5144L12.0583 12.1746L11.1127 12.5ZM14.7536 13V12H13.7536V13H14.7536ZM14.7536 12.0001H13.7536V13.0001H14.7536V12.0001ZM14.7536 10.0002V9.00018H13.7536V10.0002H14.7536ZM19.9149 14.9999V15.9999H20.9149V14.9999H19.9149ZM19.9149 10.0002H20.9149V9.00018H19.9149V10.0002ZM20.9472 14.9999H19.9472V15.9999H20.9472V14.9999ZM20.9472 10.0002V9.00018H19.9472V10.0002H20.9472ZM25.9549 18.0198H8.21451V20.0198H25.9549V18.0198ZM29.4499 14.7748C29.3926 16.5542 27.8739 18.0208 25.9554 18.0198L25.9544 20.0198C28.893 20.0214 31.3549 17.7568 31.4489 14.8391L29.4499 14.7748ZM26.1749 11.3299C28.0882 11.4443 29.5071 12.997 29.4499 14.7748L31.4489 14.8391C31.5429 11.9199 29.2289 9.50893 26.2943 9.33342L26.1749 11.3299ZM21.3199 8.12025C23.0866 8.15879 24.644 9.19443 25.3188 10.7333L27.1504 9.93C26.1518 7.65301 23.88 6.17562 21.3635 6.12072L21.3199 8.12025ZM14.8379 4C17.2808 4 19.4693 5.40021 20.43 7.53145L22.2533 6.70952C20.9578 3.8356 18.0389 2 14.8379 2V4ZM9.24581 7.53145C10.2066 5.40021 12.395 4 14.8379 4V2C11.637 2 8.71805 3.8356 7.4225 6.70952L9.24581 7.53145ZM8.21451 8.11939C8.2514 8.11939 8.28312 8.1196 8.31214 8.12024L8.35617 6.12073C8.30619 6.11963 8.25805 6.11939 8.21451 6.11939V8.11939ZM3.06451 13.0696C3.06451 10.3665 5.33886 8.11939 8.21451 8.11939V6.11939C4.29706 6.11939 1.06451 9.20023 1.06451 13.0696H3.06451ZM8.21451 18.0198C5.33886 18.0198 3.06451 15.7727 3.06451 13.0696H1.06451C1.06451 16.939 4.29706 20.0198 8.21451 20.0198V18.0198ZM7.33903 16.3888C7.62899 16.7787 8.08482 16.9993 8.55862 17L8.56137 15C8.70339 15.0002 8.84784 15.0661 8.94387 15.1953L7.33903 16.3888ZM7.12444 15.0171C6.96412 15.4845 7.04712 15.9963 7.33903 16.3888L8.94387 15.1953C9.04184 15.327 9.07194 15.5037 9.01624 15.666L7.12444 15.0171ZM9.18786 9.02072L7.12476 15.0162L9.01592 15.667L11.079 9.67149L9.18786 9.02072ZM9.20499 8.97314C9.19806 8.99139 9.1915 9.00978 9.18529 9.02828L11.0816 9.66393C11.0795 9.67024 11.0772 9.6765 11.0749 9.68273L9.20499 8.97314ZM9.5775 8.41504C9.41762 8.56595 9.28742 8.7551 9.20455 8.97429L11.0753 9.68158C11.0472 9.75606 11.0029 9.81982 10.9503 9.86945L9.5775 8.41504ZM10.0691 8.10437C9.88316 8.17672 9.71654 8.28338 9.57637 8.41611L10.9515 9.86838C10.9054 9.91205 10.8517 9.94593 10.7943 9.96827L10.0691 8.10437ZM10.6247 8C10.4316 7.99997 10.2428 8.03652 10.0679 8.10486L10.7956 9.96778C10.7418 9.98877 10.6839 10 10.6244 10L10.6247 8ZM11.1812 8.10486C11.0062 8.03651 10.8175 7.99997 10.6244 8L10.6247 10C10.5652 10 10.5073 9.98877 10.4535 9.96778L11.1812 8.10486ZM11.6727 8.41612C11.5325 8.28339 11.3659 8.17672 11.1799 8.10437L10.4548 9.96827C10.3973 9.94593 10.3437 9.91204 10.2976 9.86838L11.6727 8.41612ZM12.0445 8.97429C11.9616 8.75509 11.8314 8.56594 11.6716 8.41504L10.2987 9.86945C10.2462 9.81984 10.2019 9.75608 10.1738 9.68158L12.0445 8.97429ZM12.0637 9.02818C12.0575 9.00967 12.051 8.99136 12.0441 8.97327L10.1741 9.68259C10.1718 9.67651 10.1696 9.6703 10.1675 9.66397L12.0637 9.02818ZM14.1243 15.0162L12.0612 9.02069L10.17 9.67146L12.2331 15.667L14.1243 15.0162ZM13.91 16.3888C14.2019 15.9963 14.2849 15.4845 14.1246 15.0171L12.2328 15.666C12.1771 15.5037 12.2072 15.327 12.3052 15.1953L13.91 16.3888ZM12.6905 17C13.1642 16.9993 13.6201 16.7787 13.91 16.3888L12.3052 15.1953C12.4012 15.0661 12.5457 15.0002 12.6877 15L12.6905 17ZM11.2537 15.983C11.4681 16.6067 12.0566 16.9999 12.689 17L12.6892 15C12.8771 15 13.0711 15.1177 13.1451 15.3329L11.2537 15.983ZM10.5113 13.8254L11.2538 15.9834L13.145 15.3326L12.4024 13.1746L10.5113 13.8254ZM9.79223 14.5H11.4568V12.5H9.79223V14.5ZM9.99523 15.9834L10.7378 13.8254L8.84665 13.1746L8.10407 15.3326L9.99523 15.9834ZM8.56009 17C9.19246 16.9999 9.78098 16.6067 9.99535 15.983L8.10395 15.3329C8.17793 15.1177 8.37194 15 8.55991 15L8.56009 17ZM11.0819 12.8254L11.5701 11.4067L9.67895 10.7559L9.19076 12.1746L11.0819 12.8254ZM11.1127 11.5H10.1363V13.5H11.1127V11.5ZM9.67895 11.4067L10.1671 12.8254L12.0583 12.1746L11.5701 10.7559L9.67895 11.4067ZM12.7213 15.4998C12.7213 16.358 13.4304 16.9998 14.2375 16.9998V14.9998C14.4745 14.9998 14.7213 15.1939 14.7213 15.4998H12.7213ZM12.7213 12.5V15.4998H14.7213V12.5H12.7213ZM12.7213 9.50021V12.5H14.7213V9.50021H12.7213ZM14.2375 8.00024C13.4304 8.00024 12.7213 8.64204 12.7213 9.50021H14.7213C14.7213 9.80612 14.4745 10.0002 14.2375 10.0002V8.00024ZM16.302 8.00024H14.2375V10.0002H16.302V8.00024ZM19.3665 11.0001C19.3665 9.31358 17.9643 8.00024 16.302 8.00024V10.0002C16.9202 10.0002 17.3665 10.4777 17.3665 11.0001H19.3665ZM16.302 14C17.9643 14 19.3665 12.6867 19.3665 11.0001H17.3665C17.3665 11.5226 16.9202 12 16.302 12V14ZM14.7536 14H16.302V12H14.7536V14ZM15.7536 15.4998V13H13.7536V15.4998H15.7536ZM14.2375 16.9998C15.0446 16.9998 15.7536 16.358 15.7536 15.4998H13.7536C13.7536 15.1939 14.0005 14.9998 14.2375 14.9998V16.9998ZM16.302 11.0001H14.7536V13.0001H16.302V11.0001ZM16.3343 11.0001C16.3343 10.9973 16.3351 10.9928 16.3367 10.9892C16.338 10.9863 16.3384 10.9867 16.3362 10.9889C16.3339 10.9911 16.33 10.9939 16.3247 10.9961C16.3199 10.9981 16.3128 11.0001 16.302 11.0001V13.0001C17.3942 13.0001 18.3343 12.1344 18.3343 11.0001H16.3343ZM16.302 11.0002C16.3128 11.0002 16.3199 11.0022 16.3247 11.0041C16.33 11.0063 16.3339 11.0091 16.3362 11.0113C16.3384 11.0135 16.338 11.0139 16.3367 11.0111C16.3351 11.0074 16.3343 11.0029 16.3343 11.0001H18.3343C18.3343 9.86583 17.3942 9.00018 16.302 9.00018V11.0002ZM14.7536 11.0002H16.302V9.00018H14.7536V11.0002ZM15.7536 12.0001V10.0002H13.7536V12.0001H15.7536ZM20.9149 14.9999V10.0002H18.9149V14.9999H20.9149ZM18.8827 15.9999H19.9149V13.9999H18.8827V15.9999ZM19.3666 15.4999C19.3666 15.8058 19.1197 15.9999 18.8827 15.9999V13.9999C18.0756 13.9999 17.3666 14.6417 17.3666 15.4999H19.3666ZM18.8827 14.9998C19.1197 14.9998 19.3666 15.1939 19.3666 15.4999H17.3666C17.3666 16.358 18.0756 16.9998 18.8827 16.9998V14.9998ZM21.9795 14.9998H18.8827V16.9998H21.9795V14.9998ZM21.4956 15.4999C21.4956 15.1939 21.7425 14.9998 21.9795 14.9998V16.9998C22.7866 16.9998 23.4956 16.358 23.4956 15.4999H21.4956ZM21.9795 15.9999C21.7425 15.9999 21.4956 15.8058 21.4956 15.4999H23.4956C23.4956 14.6417 22.7866 13.9999 21.9795 13.9999V15.9999ZM20.9472 15.9999H21.9795V13.9999H20.9472V15.9999ZM19.9472 10.0002V14.9999H21.9472V10.0002H19.9472ZM21.9794 9.00018H20.9472V11.0002H21.9794V9.00018ZM21.4956 9.50021C21.4956 9.1943 21.7424 9.00018 21.9794 9.00018V11.0002C22.7865 11.0002 23.4956 10.3584 23.4956 9.50021H21.4956ZM21.9794 10.0002C21.7424 10.0002 21.4956 9.80612 21.4956 9.50021H23.4956C23.4956 8.64205 22.7865 8.00024 21.9794 8.00024V10.0002ZM20.4311 10.0002H21.9794V8.00024H20.4311V10.0002ZM18.8826 10.0002H20.4311V8.00024H18.8826V10.0002ZM19.3665 9.50021C19.3665 9.80612 19.1196 10.0002 18.8826 10.0002V8.00024C18.0755 8.00024 17.3665 8.64205 17.3665 9.50021H19.3665ZM18.8826 9.00018C19.1196 9.00018 19.3665 9.1943 19.3665 9.50021H17.3665C17.3665 10.3584 18.0755 11.0002 18.8826 11.0002V9.00018ZM19.9149 9.00018H18.8826V11.0002H19.9149V9.00018Z" fill="#444444" mask="url(#path-4-outside-1_130_40840)"/>
<defs>
<linearGradient id="paint0_linear_130_40840" x1="2.06457" y1="2.37423" x2="15.512" y2="27.1338" gradientUnits="userSpaceOnUse">
<stop stop-color="#FFC671"/>
<stop offset="0.59375" stop-color="#FF7541"/>
<stop offset="1" stop-color="#FF6F3D"/>
</linearGradient>
</defs>
</svg>
