<svg width="32" height="32" viewBox="0 0 32 32" fill="none" xmlns="http://www.w3.org/2000/svg">
<path d="M12.652 30.0001C12.5195 30 12.3884 29.9735 12.2669 29.9222L8.9791 28.6001C8.73677 28.5031 8.5447 28.3158 8.44592 28.0802C8.34832 27.8478 8.35257 27.5868 8.45769 27.3574L9.2407 25.5214C8.47016 24.953 7.78263 24.2859 7.1969 23.5383L5.28705 24.3034C5.04915 24.3998 4.78127 24.3994 4.54372 24.3021C4.3063 24.2071 4.11735 24.0247 4.01821 23.7949L2.65662 20.591C2.45035 20.1158 2.67798 19.5683 3.16636 19.3648C3.73138 19.1389 5.16121 18.3316 6.7096 17.831C8.25799 17.3304 9.03218 18.0813 9.37802 19.0826C10.8478 23.3378 18.9281 25.4172 21.6773 20.0838C21.8272 19.7931 22.2018 18.8367 22.6117 18.1292C22.9677 17.5807 23.4974 17.3175 24.4002 17.6961C25.3143 18.0794 26.4912 18.6018 27.034 18.815L28.3845 19.3604C28.6248 19.4556 28.8152 19.641 28.9123 19.8746C29.0096 20.1056 29.009 20.3645 28.9105 20.595L27.5434 23.793C27.4447 24.0268 27.2533 24.2123 27.0121 24.3078C26.7709 24.4032 26.5003 24.4004 26.2611 24.3002L24.3641 23.5386C23.7794 24.2857 23.092 24.9517 22.3211 25.518L23.1088 27.369C23.2101 27.5954 23.2125 27.852 23.1155 28.0803C23.0165 28.3165 22.8237 28.5041 22.5805 28.6009L19.2876 29.9252C19.0491 30.0221 18.7806 30.0225 18.5418 29.9262C18.3031 29.8299 18.114 29.6449 18.0167 29.4126L17.2256 27.5643C16.2676 27.6939 15.2957 27.6953 14.3373 27.5683L13.5496 29.4148C13.4003 29.7682 13.0457 29.9992 12.652 30.0001Z" fill="#EFEFEF"/>
<path d="M12.652 30.0001L12.6516 30.5001L12.6532 30.5001L12.652 30.0001ZM12.2669 29.9222L12.4612 29.4614L12.4534 29.4583L12.2669 29.9222ZM8.9791 28.6001L9.16565 28.1362L9.16501 28.136L8.9791 28.6001ZM8.44592 28.0802L8.90702 27.8869L8.90693 27.8866L8.44592 28.0802ZM8.45769 27.3574L8.91238 27.5658L8.91761 27.5536L8.45769 27.3574ZM9.2407 25.5214L9.70062 25.7176L9.85575 25.3538L9.53752 25.1191L9.2407 25.5214ZM7.1969 23.5383L7.59048 23.2299L7.35915 22.9347L7.01096 23.0741L7.1969 23.5383ZM5.28705 24.3034L5.10111 23.8392L5.09922 23.84L5.28705 24.3034ZM4.54372 24.3021L4.73309 23.8394L4.72952 23.838L4.54372 24.3021ZM4.01821 23.7949L3.55803 23.9905L3.5591 23.993L4.01821 23.7949ZM2.65662 20.591L3.1168 20.3954L3.11527 20.3919L2.65662 20.591ZM3.16636 19.3648L2.98073 18.9005L2.97406 18.9032L3.16636 19.3648ZM21.6773 20.0838L22.1218 20.3129L21.6773 20.0838ZM27.034 18.815L27.2212 18.3513L27.2167 18.3495L27.034 18.815ZM28.3845 19.3604L28.1973 19.824L28.2004 19.8252L28.3845 19.3604ZM28.9123 19.8746L28.4506 20.0665L28.4515 20.0686L28.9123 19.8746ZM28.9105 20.595L29.3703 20.7916L29.3704 20.7914L28.9105 20.595ZM27.5434 23.793L27.0836 23.5964L27.0827 23.5987L27.5434 23.793ZM27.0121 24.3078L27.196 24.7727L27.0121 24.3078ZM26.2611 24.3002L26.4545 23.839L26.4474 23.8362L26.2611 24.3002ZM24.3641 23.5386L24.5503 23.0746L24.2018 22.9347L23.9703 23.2304L24.3641 23.5386ZM22.3211 25.518L22.025 25.115L21.7059 25.3494L21.861 25.7138L22.3211 25.518ZM23.1088 27.369L22.6486 27.5648L22.6524 27.5731L23.1088 27.369ZM23.1155 28.0803L22.6553 27.8846L22.6543 27.887L23.1155 28.0803ZM22.5805 28.6009L22.3955 28.1364L22.3939 28.137L22.5805 28.6009ZM19.2876 29.9252L19.101 29.4613L19.0994 29.462L19.2876 29.9252ZM18.5418 29.9262L18.7289 29.4625L18.5418 29.9262ZM18.0167 29.4126L18.4779 29.2194L18.4763 29.2158L18.0167 29.4126ZM17.2256 27.5643L17.6852 27.3676L17.5355 27.0178L17.1585 27.0688L17.2256 27.5643ZM14.3373 27.5683L14.403 27.0726L14.0265 27.0227L13.8774 27.3721L14.3373 27.5683ZM13.5496 29.4148L13.0897 29.2186L13.089 29.2202L13.5496 29.4148ZM24.4002 17.6961L24.2068 18.1572L24.4002 17.6961ZM22.6117 18.1292L22.1923 17.857L22.1854 17.8676L22.1791 17.8785L22.6117 18.1292ZM12.6525 29.5001C12.5862 29.5 12.5211 29.4868 12.4612 29.4615L12.0726 30.3829C12.2558 30.4602 12.4528 30.4999 12.6516 30.5001L12.6525 29.5001ZM12.4534 29.4583L9.16565 28.1362L8.79256 29.064L12.0803 30.3861L12.4534 29.4583ZM9.16501 28.136C9.04389 28.0875 8.95276 27.9959 8.90702 27.8869L7.98482 28.2736C8.13664 28.6356 8.42964 28.9187 8.7932 29.0643L9.16501 28.136ZM8.90693 27.8866C8.86353 27.7833 8.86534 27.6681 8.91222 27.5658L8.00316 27.1491C7.83981 27.5055 7.83311 27.9122 7.98491 28.2738L8.90693 27.8866ZM8.91761 27.5536L9.70062 25.7176L8.78078 25.3253L7.99777 27.1613L8.91761 27.5536ZM9.53752 25.1191C8.80303 24.5772 8.14813 23.9417 7.59048 23.2299L6.80331 23.8467C7.41714 24.6301 8.13729 25.3288 8.94388 25.9238L9.53752 25.1191ZM7.01096 23.0741L5.10111 23.8392L5.47298 24.7675L7.38283 24.0024L7.01096 23.0741ZM5.09922 23.84C4.98231 23.8874 4.8498 23.8872 4.73308 23.8394L4.35435 24.7649C4.71274 24.9116 5.116 24.9122 5.47487 24.7667L5.09922 23.84ZM4.72952 23.838C4.6118 23.7908 4.52284 23.7024 4.47731 23.5969L3.5591 23.993C3.71185 24.3471 4.00079 24.6234 4.35791 24.7663L4.72952 23.838ZM4.47838 23.5994L3.11679 20.3954L2.19645 20.7866L3.55804 23.9905L4.47838 23.5994ZM3.11527 20.3919C3.02415 20.182 3.11838 19.9264 3.35866 19.8263L2.97406 18.9032C2.23757 19.2101 1.87655 20.0497 2.19797 20.7901L3.11527 20.3919ZM26.8467 19.2786L28.1973 19.824L28.5717 18.8967L27.2212 18.3513L26.8467 19.2786ZM28.2004 19.8252C28.3182 19.8719 28.4067 19.9608 28.4507 20.0665L29.374 19.6826C29.2238 19.3213 28.9314 19.0392 28.5687 18.8955L28.2004 19.8252ZM28.4515 20.0686C28.4962 20.1747 28.4959 20.2928 28.4507 20.3987L29.3704 20.7914C29.522 20.4362 29.523 20.0364 29.3731 19.6805L28.4515 20.0686ZM28.4508 20.3985L27.0836 23.5964L28.0031 23.9895L29.3703 20.7916L28.4508 20.3985ZM27.0827 23.5987C27.0375 23.7058 26.9476 23.7956 26.8282 23.8428L27.196 24.7727C27.5589 24.6291 27.852 24.3479 28.0041 23.9873L27.0827 23.5987ZM26.8282 23.8428C26.7083 23.8902 26.5731 23.8888 26.4545 23.8391L26.0678 24.7613C26.4274 24.9121 26.8334 24.9161 27.196 24.7727L26.8282 23.8428ZM26.4474 23.8362L24.5503 23.0746L24.1778 24.0026L26.0749 24.7642L26.4474 23.8362ZM23.9703 23.2304C23.4139 23.9413 22.7595 24.5755 22.025 25.115L22.6171 25.9209C23.4244 25.3279 24.1448 24.6301 24.7578 23.8467L23.9703 23.2304ZM21.861 25.7138L22.6487 27.5648L23.5689 27.1732L22.7811 25.3222L21.861 25.7138ZM22.6524 27.5731C22.6969 27.6727 22.6979 27.7844 22.6553 27.8846L23.5756 28.2759C23.7271 27.9196 23.7233 27.5182 23.5652 27.1648L22.6524 27.5731ZM22.6543 27.887C22.6085 27.9963 22.517 28.088 22.3955 28.1364L22.7655 29.0655C23.1303 28.9202 23.4244 28.6366 23.5766 28.2735L22.6543 27.887ZM22.3939 28.137L19.101 29.4613L19.4742 30.3891L22.7671 29.0648L22.3939 28.137ZM19.0994 29.462C18.9812 29.51 18.8472 29.5102 18.7289 29.4625L18.3548 30.3899C18.7139 30.5347 19.117 30.5342 19.4758 30.3885L19.0994 29.462ZM18.7289 29.4625C18.6109 29.4149 18.5223 29.3256 18.4779 29.2194L17.5555 29.6057C17.7056 29.9642 17.9953 30.2448 18.3548 30.3899L18.7289 29.4625ZM18.4763 29.2158L17.6852 27.3676L16.7659 27.7611L17.557 29.6093L18.4763 29.2158ZM17.1585 27.0688C16.2446 27.1925 15.3173 27.1938 14.403 27.0726L14.2717 28.064C15.2741 28.1968 16.2906 28.1954 17.2926 28.0598L17.1585 27.0688ZM13.8774 27.3721L13.0897 29.2186L14.0095 29.611L14.7972 27.7645L13.8774 27.3721ZM13.089 29.2202C13.0205 29.3823 12.8512 29.4997 12.6509 29.5001L12.6532 30.5001C13.2403 30.4988 13.7801 30.154 14.0102 29.6094L13.089 29.2202ZM27.9828 20.8023H27.9836V19.8023H27.9828V20.8023ZM24.2068 18.1572C25.0996 18.5316 26.3038 19.0654 26.8512 19.2804L27.2167 18.3495C26.6785 18.1382 25.529 17.6273 24.5935 17.235L24.2068 18.1572ZM22.1218 20.3129C22.2046 20.1522 22.3504 19.8074 22.503 19.4679C22.6652 19.1072 22.8528 18.7105 23.0444 18.3799L22.1791 17.8785C21.9607 18.2554 21.756 18.6907 21.591 19.0578C21.4164 19.446 21.2999 19.7248 21.2329 19.8547L22.1218 20.3129ZM23.0312 18.4014C23.1682 18.1902 23.3039 18.0861 23.4447 18.0438C23.588 18.0008 23.8224 17.996 24.2068 18.1572L24.5935 17.235C24.0751 17.0176 23.5932 16.9551 23.157 17.0861C22.7183 17.2179 22.4112 17.5198 22.1923 17.857L23.0312 18.4014ZM3.35197 19.8291C3.65156 19.7093 4.19383 19.4303 4.78217 19.1533C5.3962 18.8643 6.11874 18.5475 6.86342 18.3068L6.55578 17.3553C5.75207 17.6151 4.9855 17.9523 4.35626 18.2485C3.70134 18.5568 3.24618 18.7944 2.98075 18.9005L3.35197 19.8291ZM8.90542 19.2458C9.72004 21.6042 12.3075 23.2704 14.9731 23.6733C17.6678 24.0807 20.6219 23.2226 22.1218 20.3129L21.2329 19.8547C19.9836 22.2784 17.5228 23.0474 15.1226 22.6846C12.6933 22.3173 10.5058 20.8162 9.85062 18.9193L8.90542 19.2458ZM6.86342 18.3068C7.54241 18.0872 7.96791 18.1656 8.24336 18.3258C8.53238 18.4939 8.75452 18.8089 8.90542 19.2458L9.85062 18.9193C9.65568 18.355 9.3178 17.7939 8.74616 17.4614C8.16096 17.121 7.42518 17.0742 6.55578 17.3553L6.86342 18.3068Z" fill="#333333"/>
<mask id="path-3-outside-1_812_37502" maskUnits="userSpaceOnUse" x="1.06445" y="2" width="31" height="19" fill="black">
<rect fill="white" x="1.06445" y="2" width="31" height="19"/>
<path d="M25.9548 19.0198H8.21445C4.8179 19.0198 2.06445 16.3558 2.06445 13.0696C2.06445 9.78339 4.8179 7.11939 8.21445 7.11939C8.25466 7.11939 8.29459 7.11962 8.33409 7.12049C9.46224 4.6179 12.0159 3 14.8379 3C17.6598 3 20.2135 4.6179 21.3416 7.12049C23.4832 7.16721 25.3978 8.42372 26.2346 10.3316C28.6585 10.4766 30.5249 12.4584 30.4493 14.807C30.3737 17.1555 28.3834 19.0211 25.9548 19.0198Z"/>
</mask>
<path d="M25.9548 19.0198H8.21445C4.8179 19.0198 2.06445 16.3558 2.06445 13.0696C2.06445 9.78339 4.8179 7.11939 8.21445 7.11939C8.25466 7.11939 8.29459 7.11962 8.33409 7.12049C9.46224 4.6179 12.0159 3 14.8379 3C17.6598 3 20.2135 4.6179 21.3416 7.12049C23.4832 7.16721 25.3978 8.42372 26.2346 10.3316C28.6585 10.4766 30.5249 12.4584 30.4493 14.807C30.3737 17.1555 28.3834 19.0211 25.9548 19.0198Z" fill="url(#paint0_linear_812_37502)"/>
<path d="M25.9548 19.0198L25.9554 18.0198H25.9548V19.0198ZM8.33409 7.12049L8.31208 8.12024L8.97375 8.13481L9.24574 7.53145L8.33409 7.12049ZM21.3416 7.12049L20.43 7.53145L20.6892 8.10649L21.3198 8.12025L21.3416 7.12049ZM26.2346 10.3316L25.3188 10.7333L25.5644 11.2933L26.1749 11.3299L26.2346 10.3316ZM25.9548 18.0198H8.21445V20.0198H25.9548V18.0198ZM8.21445 18.0198C5.3388 18.0198 3.06445 15.7727 3.06445 13.0696H1.06445C1.06445 16.939 4.297 20.0198 8.21445 20.0198V18.0198ZM3.06445 13.0696C3.06445 10.3665 5.3388 8.11939 8.21445 8.11939V6.11939C4.297 6.11939 1.06445 9.20023 1.06445 13.0696H3.06445ZM8.21445 8.11939C8.25133 8.11939 8.28305 8.1196 8.31208 8.12024L8.3561 6.12073C8.30613 6.11963 8.25799 6.11939 8.21445 6.11939V8.11939ZM9.24574 7.53145C10.2065 5.40021 12.395 4 14.8379 4V2C11.6369 2 8.71799 3.8356 7.42244 6.70952L9.24574 7.53145ZM14.8379 4C17.2808 4 19.4692 5.40021 20.43 7.53145L22.2533 6.70952C20.9577 3.8356 18.0388 2 14.8379 2V4ZM21.3198 8.12025C23.0866 8.15879 24.6439 9.19443 25.3188 10.7333L27.1504 9.93C26.1518 7.65301 23.8799 6.17562 21.3634 6.12072L21.3198 8.12025ZM26.1749 11.3299C28.0881 11.4443 29.5071 12.997 29.4499 14.7748L31.4488 14.8391C31.5428 11.9199 29.2289 9.50893 26.2943 9.33342L26.1749 11.3299ZM29.4499 14.7748C29.3926 16.5542 27.8739 18.0208 25.9554 18.0198L25.9543 20.0198C28.8929 20.0214 31.3549 17.7568 31.4488 14.8391L29.4499 14.7748Z" fill="#444444" mask="url(#path-3-outside-1_812_37502)"/>
<path fill-rule="evenodd" clip-rule="evenodd" d="M8.14142 15.792C8.23839 15.9224 8.39408 15.9998 8.55997 16C8.78217 16 8.97943 15.8622 9.04962 15.658L9.7922 13.5H11.4568L12.1994 15.658C12.2696 15.8622 12.4668 16 12.689 16C12.8549 15.9998 13.0106 15.9224 13.1076 15.792C13.2046 15.6616 13.231 15.4941 13.1787 15.3416L11.1156 9.34607C11.1135 9.33999 11.1114 9.33394 11.1091 9.32793C11.0818 9.25558 11.0388 9.19289 10.9851 9.14225C10.9381 9.09771 10.8816 9.06133 10.8173 9.03632C10.7567 9.01264 10.6913 8.99999 10.6245 9C10.5577 8.99999 10.4923 9.01264 10.4317 9.03632C10.3674 9.06133 10.3109 9.09771 10.2639 9.14225C10.2102 9.19289 10.1673 9.25558 10.1399 9.32793C10.1376 9.33395 10.1355 9.34001 10.1334 9.34611L8.07031 15.3416C8.018 15.4941 8.04445 15.6616 8.14142 15.792ZM11.1127 12.5H10.1363L10.6245 11.0813L11.1127 12.5ZM13.7213 15.4998C13.7213 15.776 13.9524 15.9998 14.2375 15.9998C14.5225 15.9998 14.7536 15.776 14.7536 15.4998V13H16.302C17.4422 13 18.3665 12.1046 18.3665 11.0001C18.3665 9.89562 17.4422 9.00024 16.302 9.00024H14.2375C13.9524 9.00024 13.7213 9.22408 13.7213 9.50021V12.5V15.4998ZM16.302 12.0001H14.7536V10.0002H16.302C16.8721 10.0002 17.3343 10.4479 17.3343 11.0001C17.3343 11.5524 16.8721 12.0001 16.302 12.0001ZM19.9149 14.9999V10.0002H18.8826C18.5976 10.0002 18.3665 9.77634 18.3665 9.50021C18.3665 9.22408 18.5976 9.00024 18.8826 9.00024H20.431H21.9794C22.2644 9.00024 22.4955 9.22408 22.4955 9.50021C22.4955 9.77634 22.2644 10.0002 21.9794 10.0002H20.9472V14.9999H21.9795C22.2645 14.9999 22.4956 15.2237 22.4956 15.4999C22.4956 15.776 22.2645 15.9998 21.9795 15.9998H18.8827C18.5976 15.9998 18.3665 15.776 18.3665 15.4999C18.3665 15.2237 18.5976 14.9999 18.8827 14.9999H19.9149Z" fill="white"/>
<defs>
<linearGradient id="paint0_linear_812_37502" x1="16.258" y1="3" x2="16.258" y2="19.0198" gradientUnits="userSpaceOnUse">
<stop stop-color="#FF8E3D"/>
<stop offset="1" stop-color="#FF6F3D"/>
</linearGradient>
</defs>
</svg>
