<svg width="32" height="32" viewBox="0 0 32 32" fill="none" xmlns="http://www.w3.org/2000/svg">
<path fill-rule="evenodd" clip-rule="evenodd" d="M30.4788 15.8651C30.7963 15.2899 30.9749 14.6483 31 13.9919C31 12.5008 29.7501 10.2454 27.8753 10.2454C27.1683 10.2549 26.489 10.5212 25.9642 10.9947C25.6708 11.2729 25.2949 11.4483 24.893 11.4942C24.7618 11.0634 24.7805 9.51483 25.6592 5.99934C25.8731 5.13572 25.3459 4.26226 24.4815 4.04842C24.3536 4.0168 24.2223 4.00094 24.0906 4.00123H18.4886C17.9935 4.00082 17.5481 4.30154 17.3637 4.76054C17.1748 5.22645 17.2903 5.76038 17.6549 6.10676C18.1487 6.51489 18.4532 7.10766 18.4973 7.74649C18.4973 8.77929 17.1387 8.9953 15.9975 8.9953C14.8563 8.9953 13.4977 8.77923 13.4977 7.74649C13.5427 7.10643 13.8491 6.51308 14.3452 6.10553C14.7098 5.7591 14.8252 5.22522 14.6364 4.75931C14.452 4.30031 14.0065 3.99965 13.5115 4H7.90948C7.01899 3.99807 6.29554 4.71775 6.29361 5.60748C6.29331 5.73913 6.30919 5.87032 6.34083 5.99811C7.21573 9.50857 7.23823 11.0571 7.10699 11.493C6.70513 11.447 6.32917 11.2717 6.03582 10.9935C5.51104 10.52 4.8317 10.2537 4.12471 10.2442C2.24987 10.2442 1 12.4996 1 13.9907C1 15.4818 2.24987 17.7371 4.12471 17.7371C4.8317 17.7277 5.51104 17.4613 6.03582 16.9878C6.31782 16.7204 6.67615 16.548 7.06045 16.4942L7.11628 16.5217C7.23682 16.9955 7.19816 18.553 6.34083 21.9832C6.2844 22.2119 6.27988 22.4412 6.31978 22.6588C6.36756 22.9513 6.4991 23.2133 6.68833 23.4254C6.89916 23.6688 7.18477 23.8516 7.52133 23.9345C7.64876 23.9659 7.77948 23.9816 7.91071 23.9813C9.78941 24.0234 11.6763 23.9813 13.5558 23.9813C14.0508 23.9817 14.4963 23.681 14.6807 23.222C14.8695 22.7561 14.7541 22.2222 14.3895 21.8758C13.8935 21.4682 13.587 20.8749 13.542 20.2348C13.542 19.3322 14.704 18.9131 15.7996 18.9616C16.6532 18.8655 17.8083 18.215 18.4056 17.5434C18.7535 17.1523 19.1741 16.7272 19.629 16.3694C21.3965 14.9791 22.5323 14.7043 24.7097 14.7043C26.1429 14.7043 27.6809 15.4257 28.5648 15.9188C28.8871 16.0986 30.0323 16.3694 30.4788 15.8651Z" fill="#D9F4FF" stroke="#444444"/>
<mask id="path-2-inside-1_812_39517" fill="white">
<path fill-rule="evenodd" clip-rule="evenodd" d="M29.6617 18.6041L31 18.9108V22.0892L29.6617 22.3959L29.2156 23.5112L29.9405 24.6543L27.6822 26.9126L26.5112 26.1877L25.3959 26.6617L25.0892 28H21.9108L21.6041 26.6617L20.4888 26.2156L19.3457 26.9405L17.0874 24.6822L17.8123 23.5112L17.3383 22.3959L16 22.0892V18.9108L17.3383 18.6041L17.7844 17.4888L17.0595 16.3457L19.3178 14.0874L20.4888 14.8123L21.6041 14.3383L21.9108 13H25.0892L25.3959 14.3383L26.5112 14.7844L27.6543 14.0595L29.9126 16.3178L29.1877 17.4888L29.6617 18.6041ZM23.5 22.2308C24.4559 22.2308 25.2308 21.4559 25.2308 20.5C25.2308 19.5441 24.4559 18.7692 23.5 18.7692C22.5441 18.7692 21.7692 19.5441 21.7692 20.5C21.7692 21.4559 22.5441 22.2308 23.5 22.2308Z"/>
</mask>
<path fill-rule="evenodd" clip-rule="evenodd" d="M29.6617 18.6041L31 18.9108V22.0892L29.6617 22.3959L29.2156 23.5112L29.9405 24.6543L27.6822 26.9126L26.5112 26.1877L25.3959 26.6617L25.0892 28H21.9108L21.6041 26.6617L20.4888 26.2156L19.3457 26.9405L17.0874 24.6822L17.8123 23.5112L17.3383 22.3959L16 22.0892V18.9108L17.3383 18.6041L17.7844 17.4888L17.0595 16.3457L19.3178 14.0874L20.4888 14.8123L21.6041 14.3383L21.9108 13H25.0892L25.3959 14.3383L26.5112 14.7844L27.6543 14.0595L29.9126 16.3178L29.1877 17.4888L29.6617 18.6041ZM23.5 22.2308C24.4559 22.2308 25.2308 21.4559 25.2308 20.5C25.2308 19.5441 24.4559 18.7692 23.5 18.7692C22.5441 18.7692 21.7692 19.5441 21.7692 20.5C21.7692 21.4559 22.5441 22.2308 23.5 22.2308Z" fill="url(#paint0_linear_812_39517)"/>
<path d="M31 18.9108H32V18.114L31.2234 17.936L31 18.9108ZM29.6617 18.6041L28.7414 18.9952L28.941 19.4648L29.4383 19.5788L29.6617 18.6041ZM31 22.0892L31.2234 23.064L32 22.886V22.0892H31ZM29.6617 22.3959L29.4383 21.4212L28.9278 21.5382L28.7332 22.0245L29.6617 22.3959ZM29.2156 23.5112L28.2871 23.1398L28.0972 23.6147L28.3711 24.0467L29.2156 23.5112ZM29.9405 24.6543L30.6476 25.3614L31.2139 24.7951L30.785 24.1187L29.9405 24.6543ZM27.6822 26.9126L27.1558 27.7629L27.8292 28.1798L28.3893 27.6197L27.6822 26.9126ZM26.5112 26.1877L27.0375 25.3375L26.5969 25.0647L26.12 25.2674L26.5112 26.1877ZM25.3959 26.6617L25.0048 25.7414L24.5352 25.941L24.4212 26.4383L25.3959 26.6617ZM25.0892 28V29H25.886L26.064 28.2234L25.0892 28ZM21.9108 28L20.936 28.2234L21.114 29H21.9108V28ZM21.6041 26.6617L22.5788 26.4383L22.4618 25.9278L21.9755 25.7332L21.6041 26.6617ZM20.4888 26.2156L20.8602 25.2871L20.3853 25.0972L19.9533 25.3711L20.4888 26.2156ZM19.3457 26.9405L18.6386 27.6476L19.2049 28.2139L19.8813 27.785L19.3457 26.9405ZM17.0874 24.6822L16.2371 24.1558L15.8202 24.8292L16.3803 25.3893L17.0874 24.6822ZM17.8123 23.5112L18.6625 24.0375L18.9353 23.5969L18.7326 23.12L17.8123 23.5112ZM17.3383 22.3959L18.2586 22.0048L18.059 21.5352L17.5617 21.4212L17.3383 22.3959ZM16 22.0892H15V22.886L15.7766 23.064L16 22.0892ZM16 18.9108L15.7766 17.936L15 18.114V18.9108H16ZM17.3383 18.6041L17.5617 19.5788L18.0722 19.4618L18.2668 18.9755L17.3383 18.6041ZM17.7844 17.4888L18.7129 17.8602L18.9028 17.3853L18.6289 16.9533L17.7844 17.4888ZM17.0595 16.3457L16.3524 15.6386L15.7861 16.2049L16.215 16.8813L17.0595 16.3457ZM19.3178 14.0874L19.8442 13.2371L19.1708 12.8202L18.6107 13.3803L19.3178 14.0874ZM20.4888 14.8123L19.9625 15.6625L20.4031 15.9353L20.88 15.7326L20.4888 14.8123ZM21.6041 14.3383L21.9952 15.2586L22.4648 15.059L22.5788 14.5617L21.6041 14.3383ZM21.9108 13V12H21.114L20.936 12.7766L21.9108 13ZM25.0892 13L26.064 12.7766L25.886 12H25.0892V13ZM25.3959 14.3383L24.4212 14.5617L24.5382 15.0722L25.0245 15.2668L25.3959 14.3383ZM26.5112 14.7844L26.1398 15.7129L26.6147 15.9028L27.0467 15.6289L26.5112 14.7844ZM27.6543 14.0595L28.3614 13.3524L27.7951 12.7861L27.1187 13.215L27.6543 14.0595ZM29.9126 16.3178L30.7629 16.8442L31.1798 16.1708L30.6197 15.6107L29.9126 16.3178ZM29.1877 17.4888L28.3375 16.9625L28.0647 17.4031L28.2674 17.88L29.1877 17.4888ZM31.2234 17.936L29.8851 17.6294L29.4383 19.5788L30.7766 19.8855L31.2234 17.936ZM32 22.0892V18.9108H30V22.0892H32ZM29.8851 23.3706L31.2234 23.064L30.7766 21.1145L29.4383 21.4212L29.8851 23.3706ZM30.1441 23.8825L30.5902 22.7673L28.7332 22.0245L28.2871 23.1398L30.1441 23.8825ZM30.785 24.1187L30.0601 22.9756L28.3711 24.0467L29.096 25.1898L30.785 24.1187ZM28.3893 27.6197L30.6476 25.3614L29.2334 23.9472L26.975 26.2055L28.3893 27.6197ZM25.9848 27.038L27.1558 27.7629L28.2085 26.0624L27.0375 25.3375L25.9848 27.038ZM25.7871 27.582L26.9023 27.1081L26.12 25.2674L25.0048 25.7414L25.7871 27.582ZM26.064 28.2234L26.3706 26.8851L24.4212 26.4383L24.1145 27.7766L26.064 28.2234ZM21.9108 29H25.0892V27H21.9108V29ZM20.6294 26.8851L20.936 28.2234L22.8855 27.7766L22.5788 26.4383L20.6294 26.8851ZM20.1175 27.1441L21.2327 27.5902L21.9755 25.7332L20.8602 25.2871L20.1175 27.1441ZM19.8813 27.785L21.0244 27.0601L19.9533 25.3711L18.8102 26.096L19.8813 27.785ZM16.3803 25.3893L18.6386 27.6476L20.0528 26.2334L17.7945 23.975L16.3803 25.3893ZM16.962 22.9848L16.2371 24.1558L17.9376 25.2085L18.6625 24.0375L16.962 22.9848ZM16.418 22.7871L16.8919 23.9023L18.7326 23.12L18.2586 22.0048L16.418 22.7871ZM15.7766 23.064L17.1149 23.3706L17.5617 21.4212L16.2234 21.1145L15.7766 23.064ZM15 18.9108V22.0892H17V18.9108H15ZM17.1149 17.6294L15.7766 17.936L16.2234 19.8855L17.5617 19.5788L17.1149 17.6294ZM16.8559 17.1175L16.4098 18.2327L18.2668 18.9755L18.7129 17.8602L16.8559 17.1175ZM16.215 16.8813L16.9399 18.0244L18.6289 16.9533L17.904 15.8102L16.215 16.8813ZM18.6107 13.3803L16.3524 15.6386L17.7666 17.0528L20.025 14.7945L18.6107 13.3803ZM21.0152 13.962L19.8442 13.2371L18.7915 14.9376L19.9625 15.6625L21.0152 13.962ZM21.2129 13.418L20.0977 13.8919L20.88 15.7326L21.9952 15.2586L21.2129 13.418ZM20.936 12.7766L20.6294 14.1149L22.5788 14.5617L22.8855 13.2234L20.936 12.7766ZM25.0892 12H21.9108V14H25.0892V12ZM26.3706 14.1149L26.064 12.7766L24.1145 13.2234L24.4212 14.5617L26.3706 14.1149ZM26.8825 13.8559L25.7673 13.4098L25.0245 15.2668L26.1398 15.7129L26.8825 13.8559ZM27.1187 13.215L25.9756 13.9399L27.0467 15.6289L28.1898 14.904L27.1187 13.215ZM30.6197 15.6107L28.3614 13.3524L26.9472 14.7666L29.2055 17.025L30.6197 15.6107ZM30.038 18.0152L30.7629 16.8442L29.0624 15.7915L28.3375 16.9625L30.038 18.0152ZM30.582 18.2129L30.1081 17.0977L28.2674 17.88L28.7414 18.9952L30.582 18.2129ZM24.2308 20.5C24.2308 20.9036 23.9036 21.2308 23.5 21.2308V23.2308C25.0082 23.2308 26.2308 22.0082 26.2308 20.5H24.2308ZM23.5 19.7692C23.9036 19.7692 24.2308 20.0964 24.2308 20.5H26.2308C26.2308 18.9918 25.0082 17.7692 23.5 17.7692V19.7692ZM22.7692 20.5C22.7692 20.0964 23.0964 19.7692 23.5 19.7692V17.7692C21.9918 17.7692 20.7692 18.9918 20.7692 20.5H22.7692ZM23.5 21.2308C23.0964 21.2308 22.7692 20.9036 22.7692 20.5H20.7692C20.7692 22.0082 21.9918 23.2308 23.5 23.2308V21.2308Z" fill="#444444" mask="url(#path-2-inside-1_812_39517)"/>
<defs>
<linearGradient id="paint0_linear_812_39517" x1="23.5" y1="13" x2="23.5" y2="28" gradientUnits="userSpaceOnUse">
<stop stop-color="#FF8E3D"/>
<stop offset="1" stop-color="#FF6F3D"/>
</linearGradient>
</defs>
</svg>
