<svg width="32" height="32" viewBox="0 0 32 32" fill="none" xmlns="http://www.w3.org/2000/svg">
<path fill-rule="evenodd" clip-rule="evenodd" d="M12.8889 21.6441V22.1404C12.8889 22.5263 13.0444 22.8571 13.3556 23.0226C14.1852 23.5739 14.2889 24.8421 13.5111 25.5589L13.4593 25.614C13.2 25.8897 12.837 26 12.4222 26H9.77778H7.96296C6.92593 26 6.2 24.9524 6.45926 23.8496L7.91111 18.7218C8.11852 18.005 7.39259 17.4536 6.77037 17.8396L6.14815 18.3358C5.73333 18.6667 5.16296 18.8872 4.59259 18.8872C3.14074 18.8872 2 17.6742 2 16.1303V13.9248C2 12.381 3.14074 11.1679 4.59259 11.1679C5.16296 11.1679 5.73333 11.3885 6.14815 11.7193L6.82222 12.1053C7.44444 12.4912 8.17037 11.9398 7.96296 11.2231L6.51111 6.15038C6.2 5.04762 6.92593 4 7.96296 4H9.77778H12.4222C12.7852 4 13.1481 4.16541 13.4593 4.4411L13.5111 4.49624C14.237 5.21303 14.1852 6.42606 13.3556 7.03258C13.0444 7.19799 12.8889 7.52882 12.8889 7.85965V8.41103C12.8889 9.34837 13.563 10.0652 14.4444 10.0652H18.0741C18.9556 10.0652 19.6296 9.34837 19.6296 8.41103V7.91479C19.6296 7.52882 19.4741 7.19799 19.163 7.03258C18.3333 6.4812 18.2296 5.21303 19.0074 4.49624L19.0593 4.4411C19.3185 4.16541 19.6815 4.05514 20.0963 4.05514H22.7407H24.2963C25.3333 4.05514 26.0593 5.10276 25.8 6.20551L24.3481 11.3333C24.1926 11.995 24.8148 12.4361 25.3333 12.1053L25.8519 11.7744C26.2667 11.4436 26.837 11.2231 27.4074 11.2231C28.8593 11.2231 30 12.4361 30 13.9799V16.1855C30 16.7368 29.8444 17.2331 29.5852 17.6742C28.0815 15.6892 25.8 14.4762 23.2593 14.4762C19.7852 14.4762 16.7778 16.7368 15.5852 19.99H14.4444C13.563 19.99 12.8889 20.7068 12.8889 21.6441Z" fill="#D9F4FF"/>
<path d="M15.4906 19.725H14.5C13.6716 19.725 13 20.4301 13 21.3L13 21.7978C13 22.1418 13.167 22.4622 13.443 22.6477C14.2519 23.1911 14.338 24.3975 13.6153 25.0615L13.5622 25.1103C13.2888 25.3615 12.9378 25.5 12.5744 25.5H10H8.27295C7.26865 25.5 6.54805 24.4839 6.83588 23.4736L8.2212 18.6111C8.41519 17.9302 7.72186 17.4169 7.13417 17.7695L6.50102 18.1494C6.08301 18.4794 5.56326 18.675 5 18.675C3.61929 18.675 2.5 17.4997 2.5 16.05V13.95C2.5 12.5003 3.61929 11.325 5 11.325C5.56326 11.325 6.08301 11.5206 6.50102 11.8506L7.13417 12.2305C7.72186 12.5831 8.41519 12.0698 8.2212 11.3889L6.83588 6.52639C6.54805 5.51611 7.26865 4.5 8.27295 4.5H10H12.5593C12.9265 4.5 13.281 4.64148 13.5556 4.89762L13.6078 4.94632C14.32 5.61078 14.2353 6.80452 13.4371 7.3508C13.1644 7.53745 13 7.85611 13 8.1979V8.7C13 9.56985 13.6716 10.275 14.5 10.275H18C18.8284 10.275 19.5 9.56985 19.5 8.70001L19.5 8.20225C19.5 7.85817 19.333 7.5378 19.057 7.35235C18.2481 6.80888 18.162 5.60251 18.8847 4.93851L18.9378 4.88973C19.2112 4.63848 19.5622 4.5 19.9256 4.5H22.5H23.9856C24.9899 4.5 25.7105 5.51611 25.4227 6.52639L24.0374 11.3889C23.8642 11.9967 24.4827 12.4604 25.0074 12.1456L25.499 11.8506C25.917 11.5206 26.4367 11.325 27 11.325C28.3807 11.325 29.5 12.5003 29.5 13.95V16.05C29.5 16.4647 29.4084 16.857 29.2453 17.2057" stroke="#333333" stroke-linecap="round"/>
<mask id="path-3-inside-1_1717_6667" fill="white">
<path fill-rule="evenodd" clip-rule="evenodd" d="M30 21.1227V23.8773L28.8401 24.1431L28.4535 25.1097L29.0818 26.1004L27.1245 28.0576L26.1097 27.4294L25.1431 27.8401L24.8773 29H22.1227L21.8569 27.8401L20.8903 27.4535L19.8996 28.0818L17.9424 26.1245L18.5706 25.1097L18.1599 24.1431L17 23.8773V21.1227L18.1599 20.8569L18.5465 19.8903L17.9182 18.8996L19.8755 16.9424L20.8903 17.5706L21.8569 17.1599L22.1227 16H24.8773L25.1431 17.1599L26.1097 17.5465L27.1004 16.9182L29.0576 18.8755L28.4294 19.8903L28.8401 20.8569L30 21.1227ZM23.5 24C24.3284 24 25 23.3284 25 22.5C25 21.6716 24.3284 21 23.5 21C22.6716 21 22 21.6716 22 22.5C22 23.3284 22.6716 24 23.5 24Z"/>
</mask>
<path fill-rule="evenodd" clip-rule="evenodd" d="M30 21.1227V23.8773L28.8401 24.1431L28.4535 25.1097L29.0818 26.1004L27.1245 28.0576L26.1097 27.4294L25.1431 27.8401L24.8773 29H22.1227L21.8569 27.8401L20.8903 27.4535L19.8996 28.0818L17.9424 26.1245L18.5706 25.1097L18.1599 24.1431L17 23.8773V21.1227L18.1599 20.8569L18.5465 19.8903L17.9182 18.8996L19.8755 16.9424L20.8903 17.5706L21.8569 17.1599L22.1227 16H24.8773L25.1431 17.1599L26.1097 17.5465L27.1004 16.9182L29.0576 18.8755L28.4294 19.8903L28.8401 20.8569L30 21.1227ZM23.5 24C24.3284 24 25 23.3284 25 22.5C25 21.6716 24.3284 21 23.5 21C22.6716 21 22 21.6716 22 22.5C22 23.3284 22.6716 24 23.5 24Z" fill="url(#paint0_linear_1717_6667)"/>
<path d="M30 23.8773L30.2234 24.8521L31 24.6741V23.8773H30ZM30 21.1227H31V20.3259L30.2234 20.1479L30 21.1227ZM28.8401 24.1431L28.6168 23.1684L28.1062 23.2854L27.9117 23.7717L28.8401 24.1431ZM28.4535 25.1097L27.5251 24.7383L27.3351 25.2132L27.609 25.6452L28.4535 25.1097ZM29.0818 26.1004L29.7889 26.8075L30.3552 26.2412L29.9263 25.5648L29.0818 26.1004ZM27.1245 28.0576L26.5982 28.9079L27.2716 29.3248L27.8316 28.7647L27.1245 28.0576ZM26.1097 27.4294L26.636 26.5791L26.1954 26.3064L25.7185 26.509L26.1097 27.4294ZM25.1431 27.8401L24.752 26.9198L24.2824 27.1194L24.1684 27.6168L25.1431 27.8401ZM24.8773 29V30H25.6741L25.8521 29.2234L24.8773 29ZM22.1227 29L21.1479 29.2234L21.3259 30H22.1227V29ZM21.8569 27.8401L22.8316 27.6168L22.7146 27.1062L22.2283 26.9117L21.8569 27.8401ZM20.8903 27.4535L21.2617 26.5251L20.7868 26.3351L20.3548 26.609L20.8903 27.4535ZM19.8996 28.0818L19.1925 28.7889L19.7588 29.3552L20.4352 28.9263L19.8996 28.0818ZM17.9424 26.1245L17.0921 25.5982L16.6752 26.2716L17.2353 26.8316L17.9424 26.1245ZM18.5706 25.1097L19.4209 25.636L19.6936 25.1954L19.491 24.7185L18.5706 25.1097ZM18.1599 24.1431L19.0802 23.752L18.8806 23.2824L18.3832 23.1684L18.1599 24.1431ZM17 23.8773H16V24.6741L16.7766 24.8521L17 23.8773ZM17 21.1227L16.7766 20.1479L16 20.3259V21.1227H17ZM18.1599 20.8569L18.3832 21.8316L18.8938 21.7146L19.0883 21.2283L18.1599 20.8569ZM18.5465 19.8903L19.4749 20.2617L19.6649 19.7868L19.391 19.3548L18.5465 19.8903ZM17.9182 18.8996L17.2111 18.1925L16.6448 18.7588L17.0737 19.4352L17.9182 18.8996ZM19.8755 16.9424L20.4018 16.0921L19.7284 15.6752L19.1684 16.2353L19.8755 16.9424ZM20.8903 17.5706L20.364 18.4209L20.8046 18.6936L21.2815 18.491L20.8903 17.5706ZM21.8569 17.1599L22.248 18.0802L22.7176 17.8806L22.8316 17.3832L21.8569 17.1599ZM22.1227 16V15H21.3259L21.1479 15.7766L22.1227 16ZM24.8773 16L25.8521 15.7766L25.6741 15H24.8773V16ZM25.1431 17.1599L24.1684 17.3832L24.2854 17.8938L24.7717 18.0883L25.1431 17.1599ZM26.1097 17.5465L25.7383 18.4749L26.2132 18.6649L26.6452 18.391L26.1097 17.5465ZM27.1004 16.9182L27.8075 16.2111L27.2412 15.6448L26.5648 16.0737L27.1004 16.9182ZM29.0576 18.8755L29.9079 19.4018L30.3248 18.7284L29.7647 18.1684L29.0576 18.8755ZM28.4294 19.8903L27.5791 19.364L27.3064 19.8046L27.509 20.2815L28.4294 19.8903ZM28.8401 20.8569L27.9198 21.248L28.1194 21.7176L28.6168 21.8316L28.8401 20.8569ZM31 23.8773V21.1227H29V23.8773H31ZM29.0635 25.1179L30.2234 24.8521L29.7766 22.9026L28.6168 23.1684L29.0635 25.1179ZM29.382 25.4811L29.7686 24.5145L27.9117 23.7717L27.5251 24.7383L29.382 25.4811ZM29.9263 25.5648L29.298 24.5741L27.609 25.6452L28.2373 26.6359L29.9263 25.5648ZM27.8316 28.7647L29.7889 26.8075L28.3747 25.3933L26.4174 27.3505L27.8316 28.7647ZM25.5833 28.2796L26.5982 28.9079L27.6509 27.2074L26.636 26.5791L25.5833 28.2796ZM25.5343 28.7605L26.5008 28.3497L25.7185 26.509L24.752 26.9198L25.5343 28.7605ZM25.8521 29.2234L26.1179 28.0635L24.1684 27.6168L23.9026 28.7766L25.8521 29.2234ZM22.1227 30H24.8773V28H22.1227V30ZM20.8821 28.0635L21.1479 29.2234L23.0974 28.7766L22.8316 27.6168L20.8821 28.0635ZM20.5189 28.382L21.4855 28.7686L22.2283 26.9117L21.2617 26.5251L20.5189 28.382ZM20.4352 28.9263L21.4259 28.298L20.3548 26.609L19.3641 27.2373L20.4352 28.9263ZM17.2353 26.8316L19.1925 28.7889L20.6067 27.3747L18.6495 25.4174L17.2353 26.8316ZM17.7204 24.5833L17.0921 25.5982L18.7926 26.6509L19.4209 25.636L17.7204 24.5833ZM17.2395 24.5343L17.6503 25.5008L19.491 24.7185L19.0802 23.752L17.2395 24.5343ZM16.7766 24.8521L17.9365 25.1179L18.3832 23.1684L17.2234 22.9026L16.7766 24.8521ZM16 21.1227V23.8773H18V21.1227H16ZM17.9365 19.8821L16.7766 20.1479L17.2234 22.0974L18.3832 21.8316L17.9365 19.8821ZM17.618 19.5189L17.2314 20.4855L19.0883 21.2283L19.4749 20.2617L17.618 19.5189ZM17.0737 19.4352L17.702 20.4259L19.391 19.3548L18.7627 18.3641L17.0737 19.4352ZM19.1684 16.2353L17.2111 18.1925L18.6253 19.6067L20.5826 17.6495L19.1684 16.2353ZM21.4167 16.7204L20.4018 16.0921L19.3491 17.7926L20.364 18.4209L21.4167 16.7204ZM21.4657 16.2395L20.4992 16.6503L21.2815 18.491L22.248 18.0802L21.4657 16.2395ZM21.1479 15.7766L20.8821 16.9365L22.8316 17.3832L23.0974 16.2234L21.1479 15.7766ZM24.8773 15H22.1227V17H24.8773V15ZM26.1179 16.9365L25.8521 15.7766L23.9026 16.2234L24.1684 17.3832L26.1179 16.9365ZM26.4811 16.618L25.5145 16.2314L24.7717 18.0883L25.7383 18.4749L26.4811 16.618ZM26.5648 16.0737L25.5741 16.702L26.6452 18.391L27.6359 17.7627L26.5648 16.0737ZM29.7647 18.1684L27.8075 16.2111L26.3933 17.6253L28.3505 19.5826L29.7647 18.1684ZM29.2796 20.4167L29.9079 19.4018L28.2074 18.3491L27.5791 19.364L29.2796 20.4167ZM29.7605 20.4657L29.3497 19.4992L27.509 20.2815L27.9198 21.248L29.7605 20.4657ZM30.2234 20.1479L29.0635 19.8821L28.6168 21.8316L29.7766 22.0974L30.2234 20.1479ZM24 22.5C24 22.7761 23.7761 23 23.5 23V25C24.8807 25 26 23.8807 26 22.5H24ZM23.5 22C23.7761 22 24 22.2239 24 22.5H26C26 21.1193 24.8807 20 23.5 20V22ZM23 22.5C23 22.2239 23.2239 22 23.5 22V20C22.1193 20 21 21.1193 21 22.5H23ZM23.5 23C23.2239 23 23 22.7761 23 22.5H21C21 23.8807 22.1193 25 23.5 25V23Z" fill="#333333" mask="url(#path-3-inside-1_1717_6667)"/>
<defs>
<linearGradient id="paint0_linear_1717_6667" x1="17" y1="15.4922" x2="30" y2="29" gradientUnits="userSpaceOnUse">
<stop stop-color="#FFC671"/>
<stop offset="0.59375" stop-color="#FF7541"/>
<stop offset="1" stop-color="#FF6F3D"/>
</linearGradient>
</defs>
</svg>
