<svg width="208" height="80" viewBox="0 0 208 80" fill="none" xmlns="http://www.w3.org/2000/svg">
<rect width="208" height="80" fill="white"/>
<rect x="0.5" y="0.5" width="167" height="79" rx="1.5" fill="#F5F5F5" stroke="#CCCCCC"/>
<rect x="22" y="9" width="63" height="64" fill="white"/>
<path fill-rule="evenodd" clip-rule="evenodd" d="M27 17C27 16.4477 27.6531 16 28.4587 16H47.5413C48.3469 16 49 16.4477 49 17C49 17.5523 48.3469 18 47.5413 18H28.4587C27.6531 18 27 17.5523 27 17Z" fill="url(#paint0_linear)"/>
<path fill-rule="evenodd" clip-rule="evenodd" d="M59 49C59 48.4477 59.6531 48 60.4587 48H79.5413C80.3469 48 81 48.4477 81 49C81 49.5523 80.3469 50 79.5413 50H60.4587C59.6531 50 59 49.5523 59 49Z" fill="#808080"/>
<path fill-rule="evenodd" clip-rule="evenodd" d="M27 33C27 32.4477 27.6531 32 28.4587 32H47.5413C48.3469 32 49 32.4477 49 33C49 33.5523 48.3469 34 47.5413 34H28.4587C27.6531 34 27 33.5523 27 33Z" fill="url(#paint1_linear)"/>
<path fill-rule="evenodd" clip-rule="evenodd" d="M59 65C59 64.4477 59.6531 64 60.4587 64H79.5413C80.3469 64 81 64.4477 81 65C81 65.5523 80.3469 66 79.5413 66H60.4587C59.6531 66 59 65.5523 59 65Z" fill="#808080"/>
<path fill-rule="evenodd" clip-rule="evenodd" d="M27 49C27 48.4477 27.6531 48 28.4587 48H47.5413C48.3469 48 49 48.4477 49 49C49 49.5523 48.3469 50 47.5413 50H28.4587C27.6531 50 27 49.5523 27 49Z" fill="url(#paint2_linear)"/>
<path fill-rule="evenodd" clip-rule="evenodd" d="M27 65C27 64.4477 27.6531 64 28.4587 64H47.5413C48.3469 64 49 64.4477 49 65C49 65.5523 48.3469 66 47.5413 66H28.4587C27.6531 66 27 65.5523 27 65Z" fill="url(#paint3_linear)"/>
<line y1="9.5" x2="168" y2="9.5" stroke="#CCCCCC"/>
<line x1="149.5" y1="2.18557e-08" x2="149.5" y2="80" stroke="#CCCCCC"/>
<line x1="117.5" y1="2.18557e-08" x2="117.5" y2="80" stroke="#CCCCCC"/>
<line x1="85.5" y1="2.18557e-08" x2="85.5" y2="80" stroke="#CCCCCC"/>
<line y1="41.5" x2="168" y2="41.5" stroke="#CCCCCC"/>
<line y1="25.5" x2="168" y2="25.5" stroke="#CCCCCC"/>
<line y1="57.5" x2="168" y2="57.5" stroke="#CCCCCC"/>
<line y1="72.5" x2="168" y2="72.5" stroke="#CCCCCC"/>
<line x1="53.5" y1="2.18557e-08" x2="53.5" y2="80" stroke="#CCCCCC"/>
<line x1="21.5" y1="2.18557e-08" x2="21.5" y2="80" stroke="#CCCCCC"/>
<rect x="98.5" y="14.5" width="55" height="51" fill="white" stroke="#444444"/>
<circle cx="98.5" cy="14.5" r="1.5" fill="#444444"/>
<circle cx="98.5" cy="65.5" r="1.5" fill="#444444"/>
<circle cx="153.5" cy="14.5" r="1.5" fill="#444444"/>
<circle cx="153.5" cy="65.5" r="1.5" fill="#444444"/>
<path d="M123.945 40.0439C123.969 41.1311 124.857 42 125.945 42L140 42C141.105 42 142.012 42.899 141.888 43.9966C140.883 52.9495 133.204 60 124 60C114.122 60 106 51.8785 106 42C106 32.9583 112.812 25.3475 121.598 24.1571C122.693 24.0087 123.612 24.8961 123.637 26.001L123.945 40.0439Z" fill="url(#paint4_linear)"/>
<path d="M128.426 39.9701C127.328 39.9867 126.422 39.1148 126.396 38.0169L126.048 23.0466C126.022 21.9241 126.926 20.9912 128.044 21.1016C132.486 21.5406 136.916 23.3879 140.083 26.3794C143.238 29.3594 145.252 33.4475 145.833 37.6867C145.985 38.7912 145.089 39.719 143.974 39.7358L128.426 39.9701Z" fill="#808080"/>
<rect x="21.5" y="9.5" width="64" height="63" stroke="#444444"/>
<circle cx="21.5" cy="9.5" r="1.5" fill="#444444"/>
<circle cx="21.5" cy="72.5" r="1.5" fill="#444444"/>
<circle cx="85.5" cy="9.5" r="1.5" fill="#444444"/>
<circle cx="85.5" cy="72.5" r="1.5" fill="#444444"/>
<defs>
<linearGradient id="paint0_linear" x1="38" y1="16" x2="38" y2="18" gradientUnits="userSpaceOnUse">
<stop stop-color="#FF8E3D"/>
<stop offset="1" stop-color="#FF6F3D"/>
</linearGradient>
<linearGradient id="paint1_linear" x1="38" y1="32" x2="38" y2="34" gradientUnits="userSpaceOnUse">
<stop stop-color="#FF8E3D"/>
<stop offset="1" stop-color="#FF6F3D"/>
</linearGradient>
<linearGradient id="paint2_linear" x1="38" y1="48" x2="38" y2="50" gradientUnits="userSpaceOnUse">
<stop stop-color="#FF8E3D"/>
<stop offset="1" stop-color="#FF6F3D"/>
</linearGradient>
<linearGradient id="paint3_linear" x1="38" y1="64" x2="38" y2="66" gradientUnits="userSpaceOnUse">
<stop stop-color="#FF8E3D"/>
<stop offset="1" stop-color="#FF6F3D"/>
</linearGradient>
<linearGradient id="paint4_linear" x1="142" y1="42" x2="106" y2="42" gradientUnits="userSpaceOnUse">
<stop stop-color="#FF8E3D"/>
<stop offset="1" stop-color="#FF6F3D"/>
</linearGradient>
</defs>
</svg>
