<svg width="208" height="80" viewBox="0 0 208 80" fill="none" xmlns="http://www.w3.org/2000/svg">
<rect opacity="0.5" x="20.5" y="0.5" width="167" height="79" rx="1.5" stroke="#AAAAAA"/>
<rect x="42" y="9" width="63" height="64" fill="white"/>
<path fill-rule="evenodd" clip-rule="evenodd" d="M47 17C47 16.4477 47.6531 16 48.4587 16H67.5413C68.3469 16 69 16.4477 69 17C69 17.5523 68.3469 18 67.5413 18H48.4587C47.6531 18 47 17.5523 47 17Z" fill="url(#paint0_linear_1505_1325)"/>
<path fill-rule="evenodd" clip-rule="evenodd" d="M79 49C79 48.4477 79.6531 48 80.4587 48H99.5413C100.347 48 101 48.4477 101 49C101 49.5523 100.347 50 99.5413 50H80.4587C79.6531 50 79 49.5523 79 49Z" fill="#808080"/>
<path fill-rule="evenodd" clip-rule="evenodd" d="M47 33C47 32.4477 47.6531 32 48.4587 32H67.5413C68.3469 32 69 32.4477 69 33C69 33.5523 68.3469 34 67.5413 34H48.4587C47.6531 34 47 33.5523 47 33Z" fill="url(#paint1_linear_1505_1325)"/>
<path fill-rule="evenodd" clip-rule="evenodd" d="M79 65C79 64.4477 79.6531 64 80.4587 64H99.5413C100.347 64 101 64.4477 101 65C101 65.5523 100.347 66 99.5413 66H80.4587C79.6531 66 79 65.5523 79 65Z" fill="#808080"/>
<path fill-rule="evenodd" clip-rule="evenodd" d="M47 49C47 48.4477 47.6531 48 48.4587 48H67.5413C68.3469 48 69 48.4477 69 49C69 49.5523 68.3469 50 67.5413 50H48.4587C47.6531 50 47 49.5523 47 49Z" fill="url(#paint2_linear_1505_1325)"/>
<path fill-rule="evenodd" clip-rule="evenodd" d="M47 65C47 64.4477 47.6531 64 48.4587 64H67.5413C68.3469 64 69 64.4477 69 65C69 65.5523 68.3469 66 67.5413 66H48.4587C47.6531 66 47 65.5523 47 65Z" fill="url(#paint3_linear_1505_1325)"/>
<g opacity="0.5">
<line x1="20" y1="9.5" x2="188" y2="9.5" stroke="#AAAAAA"/>
<line x1="169.5" y1="2.18557e-08" x2="169.5" y2="80" stroke="#AAAAAA"/>
<line x1="137.5" y1="2.18557e-08" x2="137.5" y2="80" stroke="#AAAAAA"/>
<line x1="105.5" y1="2.18557e-08" x2="105.5" y2="80" stroke="#AAAAAA"/>
<line x1="20" y1="41.5" x2="188" y2="41.5" stroke="#AAAAAA"/>
<line x1="20" y1="25.5" x2="188" y2="25.5" stroke="#AAAAAA"/>
<line x1="20" y1="57.5" x2="188" y2="57.5" stroke="#AAAAAA"/>
<line x1="20" y1="72.5" x2="188" y2="72.5" stroke="#AAAAAA"/>
<line x1="73.5" y1="2.18557e-08" x2="73.5" y2="80" stroke="#AAAAAA"/>
<line x1="41.5" y1="2.18557e-08" x2="41.5" y2="80" stroke="#AAAAAA"/>
</g>
<rect x="118.5" y="14.5" width="55" height="51" fill="white" stroke="#808080"/>
<circle cx="118.5" cy="14.5" r="1.5" fill="#808080"/>
<circle cx="118.5" cy="65.5" r="1.5" fill="#808080"/>
<circle cx="173.5" cy="14.5" r="1.5" fill="#808080"/>
<circle cx="173.5" cy="65.5" r="1.5" fill="#808080"/>
<path d="M143.945 40.0439C143.969 41.1311 144.857 42 145.945 42L160 42C161.105 42 162.012 42.899 161.888 43.9966C160.883 52.9495 153.204 60 144 60C134.122 60 126 51.8785 126 42C126 32.9583 132.812 25.3475 141.598 24.1571C142.693 24.0087 143.612 24.8961 143.637 26.001L143.945 40.0439Z" fill="url(#paint4_linear_1505_1325)"/>
<path d="M148.426 39.9701C147.328 39.9867 146.422 39.1148 146.396 38.0169L146.048 23.0466C146.022 21.9241 146.926 20.9912 148.044 21.1016C152.486 21.5406 156.916 23.3879 160.083 26.3794C163.238 29.3594 165.252 33.4475 165.833 37.6867C165.985 38.7912 165.089 39.719 163.974 39.7358L148.426 39.9701Z" fill="#808080"/>
<rect x="41.5" y="9.5" width="64" height="63" stroke="#808080"/>
<circle cx="41.5" cy="9.5" r="1.5" fill="#808080"/>
<circle cx="41.5" cy="72.5" r="1.5" fill="#808080"/>
<circle cx="105.5" cy="9.5" r="1.5" fill="#808080"/>
<circle cx="105.5" cy="72.5" r="1.5" fill="#808080"/>
<defs>
<linearGradient id="paint0_linear_1505_1325" x1="58" y1="16" x2="58" y2="18" gradientUnits="userSpaceOnUse">
<stop stop-color="#FF8E3D"/>
<stop offset="1" stop-color="#FF6F3D"/>
</linearGradient>
<linearGradient id="paint1_linear_1505_1325" x1="58" y1="32" x2="58" y2="34" gradientUnits="userSpaceOnUse">
<stop stop-color="#FF8E3D"/>
<stop offset="1" stop-color="#FF6F3D"/>
</linearGradient>
<linearGradient id="paint2_linear_1505_1325" x1="58" y1="48" x2="58" y2="50" gradientUnits="userSpaceOnUse">
<stop stop-color="#FF8E3D"/>
<stop offset="1" stop-color="#FF6F3D"/>
</linearGradient>
<linearGradient id="paint3_linear_1505_1325" x1="58" y1="64" x2="58" y2="66" gradientUnits="userSpaceOnUse">
<stop stop-color="#FF8E3D"/>
<stop offset="1" stop-color="#FF6F3D"/>
</linearGradient>
<linearGradient id="paint4_linear_1505_1325" x1="162" y1="42" x2="126" y2="42" gradientUnits="userSpaceOnUse">
<stop stop-color="#FF8E3D"/>
<stop offset="1" stop-color="#FF6F3D"/>
</linearGradient>
</defs>
</svg>
