<svg width="208" height="80" viewBox="0 0 208 80" fill="none" xmlns="http://www.w3.org/2000/svg">
<g clip-path="url(#clip0_1480_741)">
<path d="M177 17.2667V71.2889C177 71.7427 176.817 72.1779 176.492 72.4988C176.167 72.8197 175.726 73 175.267 73H126.733C126.274 73 125.833 72.8197 125.508 72.4988C125.183 72.1779 125 71.7427 125 71.2889V8.71111C125 8.2573 125.183 7.82207 125.508 7.50117C125.833 7.18028 126.274 7 126.733 7H166.6L177 17.2667Z" fill="#188079"/>
<path d="M135 30H162.286H168V32.8571V46H135V30Z" stroke="white" stroke-width="2"/>
<rect x="138" y="33" width="2" height="1" fill="white"/>
<rect x="141" y="33" width="2" height="1" fill="white"/>
<rect x="138" y="42" width="2" height="1" fill="white"/>
<rect x="141" y="42" width="2" height="1" fill="white"/>
<rect width="8" height="1" transform="matrix(-7.39315e-08 1 1 2.5844e-08 140 34)" fill="white"/>
<path opacity="0.2" d="M176.5 17H167.667C167.225 17 166.801 16.8244 166.488 16.5118C166.176 16.1993 166 15.7754 166 15.3333V7H166.5L176.5 17Z" fill="black"/>
<path d="M140.157 61.4209C140.157 62.6025 139.864 63.5107 139.278 64.1455C138.692 64.7803 137.853 65.0977 136.759 65.0977C135.665 65.0977 134.825 64.7803 134.239 64.1455C133.653 63.5107 133.36 62.5993 133.36 61.4111C133.36 60.223 133.653 59.3164 134.239 58.6914C134.828 58.0632 135.672 57.749 136.769 57.749C137.866 57.749 138.704 58.0648 139.283 58.6963C139.866 59.3278 140.157 60.236 140.157 61.4209ZM134.947 61.4209C134.947 62.2184 135.099 62.819 135.401 63.2227C135.704 63.6263 136.157 63.8281 136.759 63.8281C137.966 63.8281 138.57 63.0257 138.57 61.4209C138.57 59.8128 137.97 59.0088 136.769 59.0088C136.166 59.0088 135.712 59.2122 135.406 59.6191C135.1 60.0228 134.947 60.6234 134.947 61.4209ZM143.126 65H141.637V57.8613H145.729V59.1016H143.126V60.9424H145.548V62.1777H143.126V65ZM153.604 61.4209C153.604 62.6025 153.312 63.5107 152.726 64.1455C152.14 64.7803 151.3 65.0977 150.206 65.0977C149.112 65.0977 148.272 64.7803 147.687 64.1455C147.101 63.5107 146.808 62.5993 146.808 61.4111C146.808 60.223 147.101 59.3164 147.687 58.6914C148.276 58.0632 149.119 57.749 150.216 57.749C151.313 57.749 152.151 58.0648 152.73 58.6963C153.313 59.3278 153.604 60.236 153.604 61.4209ZM148.395 61.4209C148.395 62.2184 148.546 62.819 148.849 63.2227C149.151 63.6263 149.604 63.8281 150.206 63.8281C151.414 63.8281 152.018 63.0257 152.018 61.4209C152.018 59.8128 151.417 59.0088 150.216 59.0088C149.614 59.0088 149.16 59.2122 148.854 59.6191C148.548 60.0228 148.395 60.6234 148.395 61.4209ZM156.598 61.0303H157.086C157.564 61.0303 157.918 60.9505 158.146 60.791C158.373 60.6315 158.487 60.3809 158.487 60.0391C158.487 59.7005 158.37 59.4596 158.136 59.3164C157.905 59.1732 157.545 59.1016 157.057 59.1016H156.598V61.0303ZM156.598 62.2607V65H155.084V57.8613H157.164C158.134 57.8613 158.852 58.0387 159.317 58.3936C159.783 58.7451 160.016 59.2806 160.016 60C160.016 60.4199 159.9 60.7943 159.669 61.123C159.438 61.4486 159.111 61.7041 158.688 61.8896C159.762 63.4945 160.462 64.5312 160.787 65H159.107L157.403 62.2607H156.598ZM164.708 65L162.989 59.3994H162.945C163.007 60.5387 163.038 61.2988 163.038 61.6797V65H161.686V57.8613H163.746L165.436 63.3203H165.465L167.257 57.8613H169.317V65H167.906V61.6211C167.906 61.4616 167.908 61.2777 167.911 61.0693C167.918 60.861 167.94 60.3076 167.979 59.4092H167.936L166.095 65H164.708Z" fill="white"/>
</g>
<rect x="21.5" y="21.5" width="108" height="31" fill="white" stroke="#666666"/>
<path d="M31.0869 34.1738V44H28.4062V34.1738H31.0869ZM29.751 30.3242C30.1494 30.3242 30.4922 30.418 30.7793 30.6055C31.0664 30.7871 31.21 31.1299 31.21 31.6338C31.21 32.1318 31.0664 32.4775 30.7793 32.6709C30.4922 32.8584 30.1494 32.9521 29.751 32.9521C29.3467 32.9521 29.001 32.8584 28.7139 32.6709C28.4326 32.4775 28.292 32.1318 28.292 31.6338C28.292 31.1299 28.4326 30.7871 28.7139 30.6055C29.001 30.418 29.3467 30.3242 29.751 30.3242ZM37.0195 44.1758C35.9238 44.1758 35.0303 43.748 34.3389 42.8926C33.6533 42.0312 33.3105 40.7686 33.3105 39.1045C33.3105 37.4229 33.6592 36.1514 34.3564 35.29C35.0537 34.4229 35.9648 33.9893 37.0898 33.9893C37.5586 33.9893 37.9717 34.0537 38.3291 34.1826C38.6865 34.3115 38.9941 34.4844 39.252 34.7012C39.5156 34.918 39.7383 35.1611 39.9199 35.4307H40.0078C39.9727 35.2432 39.9287 34.9678 39.876 34.6045C39.8291 34.2354 39.8057 33.8574 39.8057 33.4707V30.3242H42.4951V44H40.4385L39.9199 42.7256H39.8057C39.6357 42.9951 39.4219 43.2412 39.1641 43.4639C38.9121 43.6807 38.6104 43.8535 38.2588 43.9824C37.9072 44.1113 37.4941 44.1758 37.0195 44.1758ZM37.96 42.04C38.6924 42.04 39.208 41.8232 39.5068 41.3896C39.8115 40.9502 39.9727 40.291 39.9902 39.4121V39.1221C39.9902 38.167 39.8438 37.4375 39.5508 36.9336C39.2578 36.4238 38.7129 36.1689 37.916 36.1689C37.3242 36.1689 36.8613 36.4238 36.5273 36.9336C36.1934 37.4434 36.0264 38.1787 36.0264 39.1396C36.0264 40.1006 36.1934 40.8242 36.5273 41.3105C36.8672 41.7969 37.3447 42.04 37.96 42.04ZM49.3418 36.9072V35H58.0693V36.9072H49.3418ZM49.3418 40.3262V38.4014H58.0693V40.3262H49.3418Z" fill="#444444"/>
<path d="M75.5508 44H72.4395L69.4512 39.1396L66.4629 44H63.5449L67.8076 37.373L63.8174 31.1504H66.8232L69.5918 35.7734L72.3076 31.1504H75.2432L71.209 37.5225L75.5508 44ZM87.5566 44H84.4453L81.457 39.1396L78.4688 44H75.5508L79.8135 37.373L75.8232 31.1504H78.8291L81.5977 35.7734L84.3135 31.1504H87.249L83.2148 37.5225L87.5566 44ZM99.5625 44H96.4512L93.4629 39.1396L90.4746 44H87.5566L91.8193 37.373L87.8291 31.1504H90.835L93.6035 35.7734L96.3193 31.1504H99.2549L95.2207 37.5225L99.5625 44ZM111.568 44H108.457L105.469 39.1396L102.48 44H99.5625L103.825 37.373L99.835 31.1504H102.841L105.609 35.7734L108.325 31.1504H111.261L107.227 37.5225L111.568 44ZM123.574 44H120.463L117.475 39.1396L114.486 44H111.568L115.831 37.373L111.841 31.1504H114.847L117.615 35.7734L120.331 31.1504H123.267L119.232 37.5225L123.574 44Z" fill="url(#paint0_linear_1480_741)"/>
<circle cx="21.5" cy="21.5" r="1.5" fill="#666666"/>
<circle cx="21.5" cy="52.5" r="1.5" fill="#666666"/>
<circle cx="129.5" cy="21.5" r="1.5" fill="#666666"/>
<circle cx="129.5" cy="52.5" r="1.5" fill="#666666"/>
<defs>
<linearGradient id="paint0_linear_1480_741" x1="75.5" y1="25" x2="75.5" y2="50" gradientUnits="userSpaceOnUse">
<stop stop-color="#FF8E3D"/>
<stop offset="1" stop-color="#FF6F3D"/>
</linearGradient>
<clipPath id="clip0_1480_741">
<rect width="59" height="74" fill="white" transform="translate(122 3)"/>
</clipPath>
</defs>
</svg>
