<svg width="208" height="80" viewBox="0 0 208 80" fill="none" xmlns="http://www.w3.org/2000/svg">
<rect width="208" height="80" fill="white"/>
<rect x="0.5" y="0.5" width="167" height="79" rx="1.5" fill="#F5F5F5" stroke="#CCCCCC"/>
<line y1="20.5" x2="168" y2="20.5" stroke="#CCCCCC"/>
<line x1="147.5" y1="2.18557e-08" x2="147.5" y2="80" stroke="#CCCCCC"/>
<line x1="84.5" y1="2.18557e-08" x2="84.5" y2="80" stroke="#CCCCCC"/>
<line y1="51.5" x2="168" y2="51.5" stroke="#CCCCCC"/>
<line x1="19.5" y1="2.18557e-08" x2="19.5" y2="80" stroke="#CCCCCC"/>
<rect x="20" y="21" width="64" height="30" fill="white"/>
<path d="M34.0215 43V28.7227H35.0176V42.0625H41.8242V43H34.0215ZM45.0176 43H44.0508V32.3848H45.0176V43ZM43.9141 29.4355C43.9141 28.8105 44.1191 28.498 44.5293 28.498C44.7311 28.498 44.8874 28.5794 44.998 28.7422C45.1152 28.9049 45.1738 29.1361 45.1738 29.4355C45.1738 29.7285 45.1152 29.9596 44.998 30.1289C44.8874 30.2982 44.7311 30.3828 44.5293 30.3828C44.1191 30.3828 43.9141 30.0671 43.9141 29.4355ZM56.8633 32.3848V33.0586L54.666 33.1953C55.252 33.9245 55.5449 34.7253 55.5449 35.5977C55.5449 36.6198 55.2031 37.4499 54.5195 38.0879C53.8424 38.7194 52.931 39.0352 51.7852 39.0352C51.3034 39.0352 50.9648 39.0156 50.7695 38.9766C50.3854 39.1784 50.0924 39.416 49.8906 39.6895C49.6888 39.9629 49.5879 40.2526 49.5879 40.5586C49.5879 40.8971 49.7148 41.1445 49.9688 41.3008C50.2292 41.457 50.6621 41.5352 51.2676 41.5352H53.123C54.2754 41.5352 55.1576 41.7695 55.7695 42.2383C56.3815 42.7005 56.6875 43.3874 56.6875 44.2988C56.6875 45.4186 56.2318 46.2812 55.3203 46.8867C54.4154 47.4987 53.123 47.8047 51.4434 47.8047C50.1087 47.8047 49.0736 47.5475 48.3379 47.0332C47.6087 46.5189 47.2441 45.8027 47.2441 44.8848C47.2441 44.1556 47.4688 43.5501 47.918 43.0684C48.3737 42.5866 48.9889 42.2578 49.7637 42.082C49.4447 41.9453 49.1875 41.7533 48.9922 41.5059C48.8034 41.252 48.709 40.9622 48.709 40.6367C48.709 39.9271 49.1615 39.3021 50.0664 38.7617C49.4479 38.5078 48.9661 38.1107 48.6211 37.5703C48.276 37.0234 48.1035 36.3984 48.1035 35.6953C48.1035 34.6341 48.4388 33.7845 49.1094 33.1465C49.7865 32.502 50.6979 32.1797 51.8438 32.1797C52.5404 32.1797 53.0807 32.248 53.4648 32.3848H56.8633ZM48.2695 44.7969C48.2695 46.2552 49.3535 46.9844 51.5215 46.9844C54.3079 46.9844 55.7012 46.0957 55.7012 44.3184C55.7012 43.6803 55.4831 43.2181 55.0469 42.9316C54.6107 42.6452 53.9043 42.502 52.9277 42.502H51.1895C49.2428 42.502 48.2695 43.2669 48.2695 44.7969ZM49.0801 35.6953C49.0801 36.5156 49.3275 37.1536 49.8223 37.6094C50.3236 38.0586 50.9909 38.2832 51.8242 38.2832C52.7096 38.2832 53.3867 38.0586 53.8555 37.6094C54.3307 37.1602 54.5684 36.5091 54.5684 35.6562C54.5684 34.7513 54.3242 34.0742 53.8359 33.625C53.3542 33.1693 52.6771 32.9414 51.8047 32.9414C50.9583 32.9414 50.291 33.1855 49.8027 33.6738C49.321 34.1556 49.0801 34.8294 49.0801 35.6953ZM66.4531 43V36.1152C66.4531 35.0475 66.2285 34.2728 65.7793 33.791C65.3301 33.3027 64.6335 33.0586 63.6895 33.0586C62.4199 33.0586 61.4889 33.3809 60.8965 34.0254C60.3105 34.6634 60.0176 35.7018 60.0176 37.1406V43H59.0508V27.8047H60.0176V32.6387L59.9688 33.9961H60.0371C60.4342 33.3581 60.9355 32.8958 61.541 32.6094C62.1465 32.3229 62.8984 32.1797 63.7969 32.1797C66.2057 32.1797 67.4102 33.472 67.4102 36.0566V43H66.4531ZM73.6504 42.3359C74.2624 42.3359 74.7962 42.2839 75.252 42.1797V42.9609C74.7832 43.1172 74.2428 43.1953 73.6309 43.1953C72.6934 43.1953 72 42.9447 71.5508 42.4434C71.1081 41.9421 70.8867 41.1543 70.8867 40.0801V33.2246H69.3145V32.6582L70.8867 32.2188L71.375 29.8164H71.873V32.3848H74.9883V33.2246H71.873V39.9434C71.873 40.7572 72.0163 41.3594 72.3027 41.75C72.5892 42.1406 73.0384 42.3359 73.6504 42.3359Z" fill="#444444"/>
<rect x="82.5" y="7.5" width="63" height="31" fill="white" stroke="#444444"/>
<path d="M95.3887 16.1504H99.8711C101.617 16.1504 102.912 16.4111 103.756 16.9326C104.605 17.4482 105.03 18.2539 105.03 19.3496C105.03 20.0703 104.846 20.6855 104.477 21.1953C104.107 21.7051 103.621 22.0332 103.018 22.1797V22.2676C103.814 22.4785 104.392 22.8301 104.749 23.3223C105.106 23.8145 105.285 24.4531 105.285 25.2383C105.285 26.4043 104.846 27.3242 103.967 27.998C103.094 28.666 101.901 29 100.39 29H95.3887V16.1504ZM98.8604 21.0811H99.9062C100.404 21.0811 100.788 20.9785 101.058 20.7734C101.333 20.5684 101.471 20.2637 101.471 19.8594C101.471 19.1387 100.926 18.7783 99.8359 18.7783H98.8604V21.0811ZM98.8604 23.6211V26.3193H100.082C101.166 26.3193 101.708 25.8623 101.708 24.9482C101.708 24.5205 101.562 24.1924 101.269 23.9639C100.981 23.7354 100.562 23.6211 100.012 23.6211H98.8604ZM116.825 23.999C116.825 25.6279 116.386 26.8994 115.507 27.8135C114.634 28.7217 113.409 29.1758 111.833 29.1758C110.321 29.1758 109.117 28.71 108.221 27.7783C107.33 26.8467 106.885 25.5869 106.885 23.999C106.885 22.376 107.321 21.1162 108.194 20.2197C109.073 19.3174 110.304 18.8662 111.886 18.8662C112.864 18.8662 113.729 19.0742 114.479 19.4902C115.229 19.9062 115.806 20.5039 116.21 21.2832C116.62 22.0566 116.825 22.9619 116.825 23.999ZM110.374 23.999C110.374 24.8545 110.488 25.5078 110.717 25.959C110.945 26.4043 111.329 26.627 111.868 26.627C112.401 26.627 112.776 26.4043 112.993 25.959C113.216 25.5078 113.327 24.8545 113.327 23.999C113.327 23.1494 113.216 22.5078 112.993 22.0742C112.771 21.6406 112.39 21.4238 111.851 21.4238C111.323 21.4238 110.945 21.6406 110.717 22.0742C110.488 22.502 110.374 23.1436 110.374 23.999ZM122.23 29H118.794V15.3242H122.23V29ZM127.706 29.1758C126.997 29.1758 126.376 28.9736 125.843 28.5693C125.315 28.165 124.905 27.5703 124.612 26.7852C124.325 26 124.182 25.083 124.182 24.0342C124.182 22.417 124.507 21.1514 125.157 20.2373C125.808 19.3232 126.701 18.8662 127.838 18.8662C128.395 18.8662 128.881 18.9775 129.297 19.2002C129.719 19.4229 130.103 19.7979 130.448 20.3252H130.519C130.407 19.5459 130.352 18.7666 130.352 17.9873V15.3242H133.814V29H131.222L130.483 27.7432H130.352C129.76 28.6982 128.878 29.1758 127.706 29.1758ZM129.112 26.46C129.663 26.46 130.05 26.2871 130.272 25.9414C130.501 25.5957 130.624 25.0625 130.642 24.3418V24.0693C130.642 23.1904 130.516 22.5664 130.264 22.1973C130.012 21.8223 129.616 21.6348 129.077 21.6348C128.626 21.6348 128.274 21.8486 128.022 22.2764C127.776 22.6982 127.653 23.3018 127.653 24.0869C127.653 24.8604 127.779 25.4492 128.031 25.8535C128.283 26.2578 128.644 26.46 129.112 26.46Z" fill="url(#paint0_linear)"/>
<circle cx="82.5" cy="7.5" r="1.5" fill="#444444"/>
<circle cx="82.5" cy="38.5" r="1.5" fill="#444444"/>
<circle cx="145.5" cy="7.5" r="1.5" fill="#444444"/>
<circle cx="145.5" cy="38.5" r="1.5" fill="#444444"/>
<defs>
<linearGradient id="paint0_linear" x1="115" y1="10" x2="115" y2="35" gradientUnits="userSpaceOnUse">
<stop stop-color="#FF8E3D"/>
<stop offset="1" stop-color="#FF6F3D"/>
</linearGradient>
</defs>
</svg>
