<svg width="208" height="80" viewBox="0 0 208 80" fill="none" xmlns="http://www.w3.org/2000/svg">
<rect opacity="0.5" x="20.5" y="0.5" width="167" height="79" rx="1.5" stroke="#AAAAAA"/>
<g opacity="0.5">
<line x1="20" y1="20.5" x2="188" y2="20.5" stroke="#AAAAAA"/>
<line x1="167.5" y1="2.18557e-08" x2="167.5" y2="80" stroke="#AAAAAA"/>
<line x1="104.5" y1="2.18557e-08" x2="104.5" y2="80" stroke="#AAAAAA"/>
<line x1="20" y1="51.5" x2="188" y2="51.5" stroke="#AAAAAA"/>
<line x1="39.5" y1="2.18557e-08" x2="39.5" y2="80" stroke="#AAAAAA"/>
</g>
<rect x="40" y="21" width="64" height="30" fill="white"/>
<path d="M52.0215 43V28.7227H53.0176V42.0625H59.8242V43H52.0215ZM63.0176 43H62.0508V32.3848H63.0176V43ZM61.9141 29.4355C61.9141 28.8105 62.1191 28.498 62.5293 28.498C62.7311 28.498 62.8874 28.5794 62.998 28.7422C63.1152 28.9049 63.1738 29.1361 63.1738 29.4355C63.1738 29.7285 63.1152 29.9596 62.998 30.1289C62.8874 30.2982 62.7311 30.3828 62.5293 30.3828C62.1191 30.3828 61.9141 30.0671 61.9141 29.4355ZM74.8633 32.3848V33.0586L72.666 33.1953C73.252 33.9245 73.5449 34.7253 73.5449 35.5977C73.5449 36.6198 73.2031 37.4499 72.5195 38.0879C71.8424 38.7194 70.931 39.0352 69.7852 39.0352C69.3034 39.0352 68.9648 39.0156 68.7695 38.9766C68.3854 39.1784 68.0924 39.416 67.8906 39.6895C67.6888 39.9629 67.5879 40.2526 67.5879 40.5586C67.5879 40.8971 67.7148 41.1445 67.9688 41.3008C68.2292 41.457 68.6621 41.5352 69.2676 41.5352H71.123C72.2754 41.5352 73.1576 41.7695 73.7695 42.2383C74.3815 42.7005 74.6875 43.3874 74.6875 44.2988C74.6875 45.4186 74.2318 46.2812 73.3203 46.8867C72.4154 47.4987 71.123 47.8047 69.4434 47.8047C68.1087 47.8047 67.0736 47.5475 66.3379 47.0332C65.6087 46.5189 65.2441 45.8027 65.2441 44.8848C65.2441 44.1556 65.4688 43.5501 65.918 43.0684C66.3737 42.5866 66.9889 42.2578 67.7637 42.082C67.4447 41.9453 67.1875 41.7533 66.9922 41.5059C66.8034 41.252 66.709 40.9622 66.709 40.6367C66.709 39.9271 67.1615 39.3021 68.0664 38.7617C67.4479 38.5078 66.9661 38.1107 66.6211 37.5703C66.276 37.0234 66.1035 36.3984 66.1035 35.6953C66.1035 34.6341 66.4388 33.7845 67.1094 33.1465C67.7865 32.502 68.6979 32.1797 69.8438 32.1797C70.5404 32.1797 71.0807 32.248 71.4648 32.3848H74.8633ZM66.2695 44.7969C66.2695 46.2552 67.3535 46.9844 69.5215 46.9844C72.3079 46.9844 73.7012 46.0957 73.7012 44.3184C73.7012 43.6803 73.4831 43.2181 73.0469 42.9316C72.6107 42.6452 71.9043 42.502 70.9277 42.502H69.1895C67.2428 42.502 66.2695 43.2669 66.2695 44.7969ZM67.0801 35.6953C67.0801 36.5156 67.3275 37.1536 67.8223 37.6094C68.3236 38.0586 68.9909 38.2832 69.8242 38.2832C70.7096 38.2832 71.3867 38.0586 71.8555 37.6094C72.3307 37.1602 72.5684 36.5091 72.5684 35.6562C72.5684 34.7513 72.3242 34.0742 71.8359 33.625C71.3542 33.1693 70.6771 32.9414 69.8047 32.9414C68.9583 32.9414 68.291 33.1855 67.8027 33.6738C67.321 34.1556 67.0801 34.8294 67.0801 35.6953ZM84.4531 43V36.1152C84.4531 35.0475 84.2285 34.2728 83.7793 33.791C83.3301 33.3027 82.6335 33.0586 81.6895 33.0586C80.4199 33.0586 79.4889 33.3809 78.8965 34.0254C78.3105 34.6634 78.0176 35.7018 78.0176 37.1406V43H77.0508V27.8047H78.0176V32.6387L77.9688 33.9961H78.0371C78.4342 33.3581 78.9355 32.8958 79.541 32.6094C80.1465 32.3229 80.8984 32.1797 81.7969 32.1797C84.2057 32.1797 85.4102 33.472 85.4102 36.0566V43H84.4531ZM91.6504 42.3359C92.2624 42.3359 92.7962 42.2839 93.252 42.1797V42.9609C92.7832 43.1172 92.2428 43.1953 91.6309 43.1953C90.6934 43.1953 90 42.9447 89.5508 42.4434C89.1081 41.9421 88.8867 41.1543 88.8867 40.0801V33.2246H87.3145V32.6582L88.8867 32.2188L89.375 29.8164H89.873V32.3848H92.9883V33.2246H89.873V39.9434C89.873 40.7572 90.0163 41.3594 90.3027 41.75C90.5892 42.1406 91.0384 42.3359 91.6504 42.3359Z" fill="#444444"/>
<rect x="102.5" y="7.5" width="63" height="31" fill="white" stroke="#808080"/>
<path d="M115.389 16.1504H119.871C121.617 16.1504 122.912 16.4111 123.756 16.9326C124.605 17.4482 125.03 18.2539 125.03 19.3496C125.03 20.0703 124.846 20.6855 124.477 21.1953C124.107 21.7051 123.621 22.0332 123.018 22.1797V22.2676C123.814 22.4785 124.392 22.8301 124.749 23.3223C125.106 23.8145 125.285 24.4531 125.285 25.2383C125.285 26.4043 124.846 27.3242 123.967 27.998C123.094 28.666 121.901 29 120.39 29H115.389V16.1504ZM118.86 21.0811H119.906C120.404 21.0811 120.788 20.9785 121.058 20.7734C121.333 20.5684 121.471 20.2637 121.471 19.8594C121.471 19.1387 120.926 18.7783 119.836 18.7783H118.86V21.0811ZM118.86 23.6211V26.3193H120.082C121.166 26.3193 121.708 25.8623 121.708 24.9482C121.708 24.5205 121.562 24.1924 121.269 23.9639C120.981 23.7354 120.562 23.6211 120.012 23.6211H118.86ZM136.825 23.999C136.825 25.6279 136.386 26.8994 135.507 27.8135C134.634 28.7217 133.409 29.1758 131.833 29.1758C130.321 29.1758 129.117 28.71 128.221 27.7783C127.33 26.8467 126.885 25.5869 126.885 23.999C126.885 22.376 127.321 21.1162 128.194 20.2197C129.073 19.3174 130.304 18.8662 131.886 18.8662C132.864 18.8662 133.729 19.0742 134.479 19.4902C135.229 19.9062 135.806 20.5039 136.21 21.2832C136.62 22.0566 136.825 22.9619 136.825 23.999ZM130.374 23.999C130.374 24.8545 130.488 25.5078 130.717 25.959C130.945 26.4043 131.329 26.627 131.868 26.627C132.401 26.627 132.776 26.4043 132.993 25.959C133.216 25.5078 133.327 24.8545 133.327 23.999C133.327 23.1494 133.216 22.5078 132.993 22.0742C132.771 21.6406 132.39 21.4238 131.851 21.4238C131.323 21.4238 130.945 21.6406 130.717 22.0742C130.488 22.502 130.374 23.1436 130.374 23.999ZM142.23 29H138.794V15.3242H142.23V29ZM147.706 29.1758C146.997 29.1758 146.376 28.9736 145.843 28.5693C145.315 28.165 144.905 27.5703 144.612 26.7852C144.325 26 144.182 25.083 144.182 24.0342C144.182 22.417 144.507 21.1514 145.157 20.2373C145.808 19.3232 146.701 18.8662 147.838 18.8662C148.395 18.8662 148.881 18.9775 149.297 19.2002C149.719 19.4229 150.103 19.7979 150.448 20.3252H150.519C150.407 19.5459 150.352 18.7666 150.352 17.9873V15.3242H153.814V29H151.222L150.483 27.7432H150.352C149.76 28.6982 148.878 29.1758 147.706 29.1758ZM149.112 26.46C149.663 26.46 150.05 26.2871 150.272 25.9414C150.501 25.5957 150.624 25.0625 150.642 24.3418V24.0693C150.642 23.1904 150.516 22.5664 150.264 22.1973C150.012 21.8223 149.616 21.6348 149.077 21.6348C148.626 21.6348 148.274 21.8486 148.022 22.2764C147.776 22.6982 147.653 23.3018 147.653 24.0869C147.653 24.8604 147.779 25.4492 148.031 25.8535C148.283 26.2578 148.644 26.46 149.112 26.46Z" fill="url(#paint0_linear_1505_1094)"/>
<circle cx="102.5" cy="7.5" r="1" fill="#808080" stroke="#808080"/>
<circle cx="102.5" cy="38.5" r="1" fill="#808080" stroke="#808080"/>
<circle cx="165.5" cy="7.5" r="1" fill="#808080" stroke="#808080"/>
<circle cx="165.5" cy="38.5" r="1" fill="#808080" stroke="#808080"/>
<defs>
<linearGradient id="paint0_linear_1505_1094" x1="135" y1="10" x2="135" y2="35" gradientUnits="userSpaceOnUse">
<stop stop-color="#FF8E3D"/>
<stop offset="1" stop-color="#FF6F3D"/>
</linearGradient>
</defs>
</svg>
