<svg width="208" height="80" viewBox="0 0 208 80" fill="none" xmlns="http://www.w3.org/2000/svg">
<rect width="208" height="80" fill="white"/>
<rect x="0.5" y="0.5" width="167" height="79" rx="1.5" fill="#F5F5F5" stroke="#CCCCCC"/>
<line y1="20.5" x2="168" y2="20.5" stroke="#CCCCCC"/>
<line x1="147.5" y1="2.18557e-08" x2="147.5" y2="80" stroke="#CCCCCC"/>
<line x1="84.5" y1="2.18557e-08" x2="84.5" y2="80" stroke="#CCCCCC"/>
<line y1="51.5" x2="168" y2="51.5" stroke="#CCCCCC"/>
<line x1="19.5" y1="2.18557e-08" x2="19.5" y2="80" stroke="#CCCCCC"/>
<rect x="20" y="20" width="64" height="32" fill="#CCCCCC"/>
<path d="M38.3574 43H36.6973V30.1973H32.1758V28.7227H42.8789V30.1973H38.3574V43ZM49.3145 43.1953C47.7324 43.1953 46.4824 42.7135 45.5645 41.75C44.653 40.7865 44.1973 39.4486 44.1973 37.7363C44.1973 36.0111 44.6204 34.6406 45.4668 33.625C46.3197 32.6094 47.4622 32.1016 48.8945 32.1016C50.2357 32.1016 51.2969 32.5443 52.0781 33.4297C52.8594 34.3086 53.25 35.4707 53.25 36.916V37.9414H45.877C45.9095 39.1979 46.2253 40.1517 46.8242 40.8027C47.4297 41.4538 48.2793 41.7793 49.373 41.7793C50.5254 41.7793 51.6647 41.5384 52.791 41.0566V42.502C52.2181 42.7493 51.6745 42.9251 51.1602 43.0293C50.6523 43.14 50.0371 43.1953 49.3145 43.1953ZM48.875 33.459C48.0156 33.459 47.3288 33.7389 46.8145 34.2988C46.3066 34.8587 46.0072 35.6335 45.916 36.623H51.5117C51.5117 35.6009 51.2839 34.8197 50.8281 34.2793C50.3724 33.7324 49.7214 33.459 48.875 33.459ZM58.6016 37.5215L54.8809 32.2969H56.7266L59.5488 36.3984L62.3613 32.2969H64.1875L60.4668 37.5215L64.3828 43H62.5469L59.5488 38.6641L56.5215 43H54.6855L58.6016 37.5215ZM69.9688 41.8574C70.2552 41.8574 70.5319 41.8379 70.7988 41.7988C71.0658 41.7533 71.2773 41.7077 71.4336 41.6621V42.9023C71.2578 42.987 70.9974 43.0553 70.6523 43.1074C70.3138 43.166 70.0078 43.1953 69.7344 43.1953C67.6641 43.1953 66.6289 42.1048 66.6289 39.9238V33.5566H65.0957V32.7754L66.6289 32.1016L67.3125 29.8164H68.25V32.2969H71.3555V33.5566H68.25V39.8555C68.25 40.5 68.403 40.9948 68.709 41.3398C69.015 41.6849 69.4349 41.8574 69.9688 41.8574Z" fill="#444444"/>
<rect x="82.5" y="7.5" width="63" height="31" fill="white" stroke="#444444"/>
<path d="M100.574 29H97.8496V18.418H94.3604V16.1504H104.063V18.418H100.574V29ZM109.899 20.8965C109.331 20.8965 108.886 21.0781 108.563 21.4414C108.241 21.7988 108.057 22.3086 108.01 22.9707H111.771C111.76 22.3086 111.587 21.7988 111.253 21.4414C110.919 21.0781 110.468 20.8965 109.899 20.8965ZM110.277 29.1758C108.695 29.1758 107.459 28.7393 106.568 27.8662C105.678 26.9932 105.232 25.7568 105.232 24.1572C105.232 22.5107 105.643 21.2393 106.463 20.3428C107.289 19.4404 108.429 18.9893 109.882 18.9893C111.271 18.9893 112.352 19.3848 113.125 20.1758C113.898 20.9668 114.285 22.0596 114.285 23.4541V24.7549H107.948C107.978 25.5166 108.203 26.1113 108.625 26.5391C109.047 26.9668 109.639 27.1807 110.4 27.1807C110.992 27.1807 111.552 27.1191 112.079 26.9961C112.606 26.873 113.157 26.6768 113.731 26.4072V28.4814C113.263 28.7158 112.762 28.8887 112.229 29C111.695 29.1172 111.045 29.1758 110.277 29.1758ZM118.478 23.9814L115.313 19.1738H118.354L120.262 22.3027L122.187 19.1738H125.228L122.028 23.9814L125.377 29H122.327L120.262 25.6338L118.188 29H115.146L118.478 23.9814ZM131.011 27.04C131.479 27.04 132.042 26.9375 132.698 26.7324V28.7275C132.03 29.0264 131.21 29.1758 130.237 29.1758C129.165 29.1758 128.383 28.9062 127.891 28.3672C127.404 27.8223 127.161 27.0078 127.161 25.9238V21.1865H125.878V20.0527L127.354 19.1562L128.128 17.082H129.842V19.1738H132.593V21.1865H129.842V25.9238C129.842 26.3047 129.947 26.5859 130.158 26.7676C130.375 26.9492 130.659 27.04 131.011 27.04Z" fill="url(#paint0_linear)"/>
<circle cx="82.5" cy="7.5" r="1.5" fill="#444444"/>
<circle cx="82.5" cy="38.5" r="1.5" fill="#444444"/>
<circle cx="145.5" cy="7.5" r="1.5" fill="#444444"/>
<circle cx="145.5" cy="38.5" r="1.5" fill="#444444"/>
<defs>
<linearGradient id="paint0_linear" x1="114" y1="10" x2="114" y2="35" gradientUnits="userSpaceOnUse">
<stop stop-color="#FF8E3D"/>
<stop offset="1" stop-color="#FF6F3D"/>
</linearGradient>
</defs>
</svg>
