<svg width="208" height="80" viewBox="0 0 208 80" fill="none" xmlns="http://www.w3.org/2000/svg">
<rect opacity="0.5" x="20.5" y="0.5" width="167" height="79" rx="1.5" stroke="#AAAAAA"/>
<line opacity="0.5" x1="20" y1="20.5" x2="188" y2="20.5" stroke="#AAAAAA"/>
<line opacity="0.5" x1="167.5" y1="2.18557e-08" x2="167.5" y2="80" stroke="#AAAAAA"/>
<line opacity="0.5" x1="104.5" y1="2.18557e-08" x2="104.5" y2="80" stroke="#AAAAAA"/>
<line opacity="0.5" x1="20" y1="51.5" x2="188" y2="51.5" stroke="#AAAAAA"/>
<line opacity="0.5" x1="39.5" y1="2.18557e-08" x2="39.5" y2="80" stroke="#AAAAAA"/>
<rect x="40" y="21" width="64" height="30" fill="white"/>
<path d="M57.3379 43H55.668V30.1875H51.1758V28.7227H61.8105V30.1875H57.3379V43ZM67.8457 32.1016C68.7572 32.1016 69.5384 32.3034 70.1895 32.707C70.8405 33.1107 71.3385 33.6771 71.6836 34.4062C72.0286 35.1289 72.2012 35.9753 72.2012 36.9453V37.9512H64.8086C64.8281 39.2077 65.1406 40.1647 65.7461 40.8223C66.3516 41.4798 67.2044 41.8086 68.3047 41.8086C68.9818 41.8086 69.5807 41.7467 70.1016 41.623C70.6224 41.4993 71.1628 41.3171 71.7227 41.0762V42.502C71.1823 42.7428 70.6452 42.9186 70.1113 43.0293C69.584 43.14 68.959 43.1953 68.2363 43.1953C67.2077 43.1953 66.3092 42.987 65.541 42.5703C64.7793 42.1471 64.1868 41.5286 63.7637 40.7148C63.3405 39.901 63.1289 38.9049 63.1289 37.7266C63.1289 36.5742 63.321 35.5781 63.7051 34.7383C64.0957 33.8919 64.6426 33.2409 65.3457 32.7852C66.0553 32.3294 66.8887 32.1016 67.8457 32.1016ZM67.8262 33.4297C66.9603 33.4297 66.2702 33.7129 65.7559 34.2793C65.2415 34.8457 64.9355 35.6367 64.8379 36.6523H70.502C70.4954 36.0143 70.3945 35.4544 70.1992 34.9727C70.0104 34.4844 69.7207 34.1068 69.3301 33.8398C68.9395 33.5664 68.4382 33.4297 67.8262 33.4297ZM77.5039 37.5215L73.8027 32.2969H75.6582L78.4805 36.418L81.293 32.2969H83.1289L79.4277 37.5215L83.334 43H81.4785L78.4805 38.6348L75.4629 43H73.627L77.5039 37.5215ZM88.8809 41.8672C89.1478 41.8672 89.4212 41.8444 89.7012 41.7988C89.9811 41.7533 90.209 41.6979 90.3848 41.6328V42.8926C90.196 42.9772 89.9323 43.0488 89.5938 43.1074C89.2617 43.166 88.9362 43.1953 88.6172 43.1953C88.0508 43.1953 87.5365 43.0977 87.0742 42.9023C86.612 42.7005 86.2409 42.362 85.9609 41.8867C85.6875 41.4115 85.5508 40.7539 85.5508 39.9141V33.5664H84.0273V32.7754L85.5605 32.1406L86.2051 29.8164H87.1816V32.2969H90.3164V33.5664H87.1816V39.8652C87.1816 40.5358 87.3346 41.0371 87.6406 41.3691C87.9531 41.7012 88.3665 41.8672 88.8809 41.8672Z" fill="#333333"/>
<rect x="98.5" y="7.5" width="63" height="31" fill="white" stroke="#808080"/>
<path d="M116.574 29H113.85V18.418H110.36V16.1504H120.063V18.418H116.574V29ZM125.882 18.9893C126.79 18.9893 127.572 19.165 128.229 19.5166C128.885 19.8623 129.392 20.3662 129.749 21.0283C130.106 21.6904 130.285 22.499 130.285 23.4541V24.7549H123.948C123.978 25.5107 124.203 26.1055 124.625 26.5391C125.053 26.9668 125.645 27.1807 126.4 27.1807C127.027 27.1807 127.602 27.1162 128.123 26.9873C128.645 26.8584 129.181 26.665 129.731 26.4072V28.4814C129.245 28.7217 128.735 28.8975 128.202 29.0088C127.675 29.1201 127.033 29.1758 126.277 29.1758C125.293 29.1758 124.42 28.9941 123.658 28.6309C122.902 28.2676 122.308 27.7139 121.874 26.9697C121.446 26.2256 121.232 25.2881 121.232 24.1572C121.232 23.0088 121.426 22.0537 121.812 21.292C122.205 20.5244 122.75 19.9502 123.447 19.5693C124.145 19.1826 124.956 18.9893 125.882 18.9893ZM125.899 20.8965C125.378 20.8965 124.944 21.0635 124.599 21.3975C124.259 21.7314 124.062 22.2559 124.01 22.9707H127.771C127.766 22.5723 127.692 22.2178 127.552 21.9072C127.417 21.5967 127.212 21.3506 126.937 21.1689C126.667 20.9873 126.321 20.8965 125.899 20.8965ZM134.478 23.9814L131.313 19.1738H134.354L136.262 22.3027L138.187 19.1738H141.228L138.028 23.9814L141.377 29H138.327L136.262 25.6338L134.188 29H131.146L134.478 23.9814ZM147.011 27.04C147.304 27.04 147.588 27.0107 147.863 26.9521C148.145 26.8936 148.423 26.8203 148.698 26.7324V28.7275C148.411 28.8564 148.054 28.9619 147.626 29.0439C147.204 29.1318 146.741 29.1758 146.237 29.1758C145.651 29.1758 145.124 29.082 144.655 28.8945C144.192 28.7012 143.826 28.3701 143.557 27.9014C143.293 27.4268 143.161 26.7676 143.161 25.9238V21.1865H141.878V20.0527L143.354 19.1562L144.128 17.082H145.842V19.1738H148.593V21.1865H145.842V25.9238C145.842 26.2988 145.947 26.5801 146.158 26.7676C146.375 26.9492 146.659 27.04 147.011 27.04Z" fill="url(#paint0_linear_1503_8127)"/>
<circle cx="98.5" cy="7.5" r="1.5" fill="#808080"/>
<circle cx="98.5" cy="38.5" r="1.5" fill="#808080"/>
<circle cx="161.5" cy="7.5" r="1.5" fill="#808080"/>
<circle cx="161.5" cy="38.5" r="1.5" fill="#808080"/>
<defs>
<linearGradient id="paint0_linear_1503_8127" x1="130" y1="10" x2="130" y2="35" gradientUnits="userSpaceOnUse">
<stop stop-color="#FF8E3D"/>
<stop offset="1" stop-color="#FF6F3D"/>
</linearGradient>
</defs>
</svg>
