<svg width="208" height="80" viewBox="0 0 208 80" fill="none" xmlns="http://www.w3.org/2000/svg">
<g clip-path="url(#clip0_1505_1113)">
<rect opacity="0.5" x="0.5" y="0.5" width="207" height="79" rx="1.5" stroke="#AAAAAA"/>
<g opacity="0.5">
<line y1="15.5" x2="208" y2="15.5" stroke="#AAAAAA"/>
<line y1="39.5" x2="208" y2="39.5" stroke="#AAAAAA"/>
<line y1="63.5" x2="208" y2="63.5" stroke="#AAAAAA"/>
</g>
<line x1="61.5" y1="2.18557e-08" x2="61.5" y2="80" stroke="#D4D4D4"/>
<line x1="145.5" y1="2.18557e-08" x2="145.5" y2="80" stroke="#D4D4D4"/>
<path d="M40.2929 39.2929C39.9024 39.6834 39.9024 40.3166 40.2929 40.7071L46.6569 47.0711C47.0474 47.4616 47.6805 47.4616 48.0711 47.0711C48.4616 46.6805 48.4616 46.0474 48.0711 45.6569L42.4142 40L48.0711 34.3431C48.4616 33.9526 48.4616 33.3195 48.0711 32.9289C47.6805 32.5384 47.0474 32.5384 46.6569 32.9289L40.2929 39.2929ZM165.707 40.7071C166.098 40.3166 166.098 39.6834 165.707 39.2929L159.343 32.9289C158.953 32.5384 158.319 32.5384 157.929 32.9289C157.538 33.3195 157.538 33.9526 157.929 34.3431L163.586 40L157.929 45.6569C157.538 46.0474 157.538 46.6805 157.929 47.0711C158.319 47.4616 158.953 47.4616 159.343 47.0711L165.707 40.7071ZM41 41H165V39H41V41Z" fill="#FF6F3D"/>
<rect x="61.5" y="15.5" width="84" height="49" fill="white" stroke="#808080"/>
<circle cx="61.5" cy="15.5" r="1.5" fill="#808080"/>
<circle cx="61.5" cy="64.5" r="1.5" fill="#808080"/>
<circle cx="145.5" cy="15.5" r="1.5" fill="#808080"/>
<circle cx="145.5" cy="64.5" r="1.5" fill="#808080"/>
</g>
<defs>
<clipPath id="clip0_1505_1113">
<rect width="208" height="80" fill="white"/>
</clipPath>
</defs>
</svg>
