<svg width="208" height="80" viewBox="0 0 208 80" fill="none" xmlns="http://www.w3.org/2000/svg">
<rect width="208" height="80" fill="white"/>
<rect x="0.5" y="0.5" width="167" height="79" rx="1.5" fill="#F5F5F5" stroke="#CCCCCC"/>
<line y1="15.5" x2="168" y2="15.5" stroke="#CCCCCC"/>
<line x1="125.5" y1="2.18557e-08" x2="125.5" y2="80" stroke="#CCCCCC"/>
<line x1="83.5" y1="2.18557e-08" x2="83.5" y2="80" stroke="#CCCCCC"/>
<line y1="39.5" x2="168" y2="39.5" stroke="#CCCCCC"/>
<line y1="63.5" x2="168" y2="63.5" stroke="#CCCCCC"/>
<line x1="41.5" y1="2.18557e-08" x2="41.5" y2="80" stroke="#CCCCCC"/>
<path d="M20.2929 39.2929C19.9024 39.6834 19.9024 40.3166 20.2929 40.7071L26.6569 47.0711C27.0474 47.4616 27.6805 47.4616 28.0711 47.0711C28.4616 46.6805 28.4616 46.0474 28.0711 45.6569L22.4142 40L28.0711 34.3431C28.4616 33.9526 28.4616 33.3195 28.0711 32.9289C27.6805 32.5384 27.0474 32.5384 26.6569 32.9289L20.2929 39.2929ZM145.707 40.7071C146.098 40.3166 146.098 39.6834 145.707 39.2929L139.343 32.9289C138.953 32.5384 138.319 32.5384 137.929 32.9289C137.538 33.3195 137.538 33.9526 137.929 34.3431L143.586 40L137.929 45.6569C137.538 46.0474 137.538 46.6805 137.929 47.0711C138.319 47.4616 138.953 47.4616 139.343 47.0711L145.707 40.7071ZM21 41H145V39H21V41Z" fill="#FF6F3D"/>
<rect x="41.5" y="1.5" width="84" height="77" fill="white" stroke="#444444"/>
<circle cx="41.5" cy="1.5" r="1.5" fill="#444444"/>
<circle cx="41.5" cy="78.5" r="1.5" fill="#444444"/>
<circle cx="125.5" cy="1.5" r="1.5" fill="#444444"/>
<circle cx="125.5" cy="78.5" r="1.5" fill="#444444"/>
</svg>
