<svg width="208" height="80" viewBox="0 0 208 80" fill="none" xmlns="http://www.w3.org/2000/svg">
<rect x="55" y="12" width="2" height="57" rx="1" fill="#808080"/>
<path d="M56.5 15C56.5 14.7239 56.7239 14.5 57 14.5H77.6667C77.7749 14.5 77.8801 14.5351 77.9667 14.6L78.2659 14.201L77.9667 14.6L84.6333 19.6C84.9 19.8 84.9 20.2 84.6333 20.4L77.9667 25.4C77.8801 25.4649 77.7749 25.5 77.6667 25.5H57C56.7239 25.5 56.5 25.2761 56.5 25V15Z" fill="#8BB825" stroke="#808080"/>
<path d="M56.5 29C56.5 28.7239 56.7239 28.5 57 28.5H85.6667C85.7749 28.5 85.8801 28.5351 85.9667 28.6L86.2652 28.202L85.9667 28.6L92.6333 33.6C92.9 33.8 92.9 34.2 92.6333 34.4L85.9667 39.4C85.8801 39.4649 85.7749 39.5 85.6667 39.5H57C56.7239 39.5 56.5 39.2761 56.5 39V29Z" fill="#9ADAF3" stroke="#808080"/>
<path d="M56.5 43C56.5 42.7239 56.7239 42.5 57 42.5H93.6667C93.7749 42.5 93.8801 42.5351 93.9667 42.6L100.633 47.6C100.9 47.8 100.9 48.2 100.633 48.4L93.9667 53.4C93.8801 53.4649 93.7749 53.5 93.6667 53.5H57C56.7239 53.5 56.5 53.2761 56.5 53V43Z" fill="url(#paint0_linear_1503_8015)" stroke="#808080"/>
<rect x="108.5" y="10.5" width="43" height="17" fill="#F9FEEF" stroke="#666666"/>
<rect x="108.5" y="31.5" width="43" height="17" fill="#D9F4FF" stroke="#666666"/>
<rect x="108.5" y="52.5" width="43" height="17" fill="#FCC196" stroke="#666666"/>
<circle cx="108.5" cy="10.5" r="1.5" fill="#666666"/>
<circle cx="108.5" cy="27.5" r="1.5" fill="#666666"/>
<circle cx="108.5" cy="31.5" r="1.5" fill="#666666"/>
<circle cx="108.5" cy="48.5" r="1.5" fill="#666666"/>
<circle cx="108.5" cy="52.5" r="1.5" fill="#666666"/>
<circle cx="108.5" cy="69.5" r="1.5" fill="#666666"/>
<circle cx="151.5" cy="69.5" r="1.5" fill="#666666"/>
<circle cx="151.5" cy="10.5" r="1.5" fill="#666666"/>
<circle cx="151.5" cy="27.5" r="1.5" fill="#666666"/>
<circle cx="151.5" cy="31.5" r="1.5" fill="#666666"/>
<circle cx="151.5" cy="48.5" r="1.5" fill="#666666"/>
<circle cx="151.5" cy="52.5" r="1.5" fill="#666666"/>
<defs>
<linearGradient id="paint0_linear_1503_8015" x1="79" y1="42" x2="79" y2="54" gradientUnits="userSpaceOnUse">
<stop stop-color="#FF8E3D"/>
<stop offset="1" stop-color="#FF6F3D"/>
</linearGradient>
</defs>
</svg>
