<svg width="208" height="80" viewBox="0 0 208 80" fill="none" xmlns="http://www.w3.org/2000/svg">
<rect x="6.5" y="4.5" width="70" height="71" rx="1.5" fill="white" stroke="#E2E2E2"/>
<rect x="80" y="38" width="98" height="33" rx="3" fill="#FF6F3D"/>
<path d="M106.037 51.1475H108.368C109.449 51.1475 110.23 51.305 110.709 51.6201C111.193 51.9352 111.435 52.4329 111.435 53.1133C111.435 53.5716 111.316 53.953 111.08 54.2573C110.844 54.5617 110.504 54.7533 110.06 54.832V54.8857C110.611 54.9896 111.016 55.1955 111.273 55.5034C111.535 55.8078 111.666 56.2214 111.666 56.7441C111.666 57.4495 111.418 58.0028 110.924 58.4038C110.434 58.8013 109.75 59 108.873 59H106.037V51.1475ZM107.32 54.3916H108.556C109.093 54.3916 109.485 54.3075 109.732 54.1392C109.979 53.9673 110.103 53.6772 110.103 53.269C110.103 52.9002 109.968 52.6335 109.7 52.4688C109.435 52.304 109.012 52.2217 108.432 52.2217H107.32V54.3916ZM107.32 55.4336V57.9204H108.685C109.222 57.9204 109.626 57.8184 109.898 57.6143C110.174 57.4066 110.312 57.0807 110.312 56.6367C110.312 56.2285 110.172 55.9259 109.893 55.729C109.614 55.5321 109.189 55.4336 108.62 55.4336H107.32ZM119.894 51.1475V56.2285C119.894 56.8086 119.768 57.3171 119.518 57.7539C119.271 58.1872 118.911 58.522 118.438 58.7583C117.969 58.991 117.407 59.1074 116.752 59.1074C115.778 59.1074 115.02 58.8496 114.48 58.334C113.939 57.8184 113.669 57.1094 113.669 56.207V51.1475H114.958V56.1157C114.958 56.7638 115.108 57.2419 115.409 57.5498C115.71 57.8577 116.171 58.0117 116.794 58.0117C118.005 58.0117 118.61 57.3761 118.61 56.105V51.1475H119.894ZM125.055 59H123.771V52.2485H121.462V51.1475H127.364V52.2485H125.055V59ZM131.725 59H130.442V52.2485H128.132V51.1475H134.035V52.2485H131.725V59ZM142.655 55.063C142.655 56.3413 142.335 57.335 141.694 58.0439C141.056 58.7529 140.152 59.1074 138.981 59.1074C137.796 59.1074 136.885 58.7565 136.247 58.0547C135.614 57.3493 135.297 56.3485 135.297 55.0522C135.297 53.756 135.615 52.7606 136.253 52.0659C136.894 51.3713 137.807 51.0239 138.992 51.0239C140.159 51.0239 141.062 51.3766 141.699 52.082C142.336 52.7874 142.655 53.7811 142.655 55.063ZM136.661 55.063C136.661 56.0298 136.856 56.7638 137.246 57.2651C137.637 57.7629 138.215 58.0117 138.981 58.0117C139.744 58.0117 140.319 57.7646 140.705 57.2705C141.096 56.7764 141.291 56.0405 141.291 55.063C141.291 54.0998 141.097 53.3693 140.711 52.8716C140.328 52.3739 139.755 52.125 138.992 52.125C138.222 52.125 137.64 52.3739 137.246 52.8716C136.856 53.3693 136.661 54.0998 136.661 55.063ZM151.324 59H149.75L145.888 52.7427H145.845L145.872 53.0918C145.922 53.7578 145.947 54.3665 145.947 54.918V59H144.782V51.1475H146.339L150.19 57.3726H150.222C150.215 57.2902 150.201 56.9912 150.179 56.4756C150.158 55.9564 150.147 55.5518 150.147 55.2617V51.1475H151.324V59Z" fill="white"/>
<path d="M12.4852 13H12.5148C13.335 13 14 12.3283 14 11.5C14 10.6717 13.335 10 12.5148 10H12.4852C11.665 10 11 10.6717 11 11.5C11 12.3283 11.665 13 12.4852 13Z" fill="#444444"/>
<path d="M20.4702 13H20.5298C21.3417 13 22 12.3283 22 11.5C22 10.6717 21.3417 10 20.5298 10H20.4702C19.6583 10 19 10.6717 19 11.5C19 12.3283 19.6583 13 20.4702 13Z" fill="#444444"/>
<path d="M28.4702 13H28.5298C29.3417 13 30 12.3283 30 11.5C30 10.6717 29.3417 10 28.5298 10H28.4702C27.6583 10 27 10.6717 27 11.5C27 12.3283 27.6583 13 28.4702 13Z" fill="#444444"/>
<path d="M36.4702 13H36.5298C37.3417 13 38 12.3283 38 11.5C38 10.6717 37.3417 10 36.5298 10H36.4702C35.6583 10 35 10.6717 35 11.5C35 12.3283 35.6583 13 36.4702 13Z" fill="#444444"/>
<path d="M44.4702 13H44.5298C45.3417 13 46 12.3283 46 11.5C46 10.6717 45.3417 10 44.5298 10H44.4702C43.6583 10 43 10.6717 43 11.5C43 12.3283 43.6583 13 44.4702 13Z" fill="#444444"/>
<path d="M52.4702 13H52.5298C53.3417 13 54 12.3283 54 11.5C54 10.6717 53.3417 10 52.5298 10H52.4702C51.6583 10 51 10.6717 51 11.5C51 12.3283 51.6583 13 52.4702 13Z" fill="#444444"/>
<path d="M60.4699 13H60.5301C61.3418 13 62 12.3283 62 11.5C62 10.6717 61.3418 10 60.5301 10H60.4699C59.6582 10 59 10.6717 59 11.5C59 12.3283 59.6582 13 60.4699 13Z" fill="#444444"/>
<path d="M68.5075 13C69.3317 13 70 12.3283 70 11.5C70 10.6717 69.3317 10 68.5075 10H68.4776C67.6534 10 67 10.6717 67 11.5C67 12.3283 67.6832 13 68.5075 13Z" fill="#444444"/>
<path d="M12.4852 45H12.5148C13.335 45 14 44.3283 14 43.5C14 42.6717 13.335 42 12.5148 42H12.4852C11.665 42 11 42.6717 11 43.5C11 44.3283 11.665 45 12.4852 45Z" fill="#444444"/>
<path d="M20.4702 45H20.5298C21.3417 45 22 44.3283 22 43.5C22 42.6717 21.3417 42 20.5298 42H20.4702C19.6583 42 19 42.6717 19 43.5C19 44.3283 19.6583 45 20.4702 45Z" fill="#444444"/>
<path d="M28.4702 45H28.5298C29.3417 45 30 44.3283 30 43.5C30 42.6717 29.3417 42 28.5298 42H28.4702C27.6583 42 27 42.6717 27 43.5C27 44.3283 27.6583 45 28.4702 45Z" fill="#444444"/>
<path d="M36.4702 45H36.5298C37.3417 45 38 44.3283 38 43.5C38 42.6717 37.3417 42 36.5298 42H36.4702C35.6583 42 35 42.6717 35 43.5C35 44.3283 35.6583 45 36.4702 45Z" fill="#444444"/>
<path d="M44.4702 45H44.5298C45.3417 45 46 44.3283 46 43.5C46 42.6717 45.3417 42 44.5298 42H44.4702C43.6583 42 43 42.6717 43 43.5C43 44.3283 43.6583 45 44.4702 45Z" fill="#444444"/>
<path d="M52.4702 45H52.5298C53.3417 45 54 44.3283 54 43.5C54 42.6717 53.3417 42 52.5298 42H52.4702C51.6583 42 51 42.6717 51 43.5C51 44.3283 51.6583 45 52.4702 45Z" fill="#444444"/>
<path d="M60.4699 45H60.5301C61.3418 45 62 44.3283 62 43.5C62 42.6717 61.3418 42 60.5301 42H60.4699C59.6582 42 59 42.6717 59 43.5C59 44.3283 59.6582 45 60.4699 45Z" fill="#444444"/>
<path d="M68.5075 45C69.3317 45 70 44.3283 70 43.5C70 42.6717 69.3317 42 68.5075 42H68.4776C67.6534 42 67 42.6717 67 43.5C67 44.3283 67.6832 45 68.5075 45Z" fill="#444444"/>
<path d="M12.4852 21H12.5148C13.335 21 14 20.3283 14 19.5C14 18.6717 13.335 18 12.5148 18H12.4852C11.665 18 11 18.6717 11 19.5C11 20.3283 11.665 21 12.4852 21Z" fill="#444444"/>
<path d="M20.4702 21H20.5298C21.3417 21 22 20.3283 22 19.5C22 18.6717 21.3417 18 20.5298 18H20.4702C19.6583 18 19 18.6717 19 19.5C19 20.3283 19.6583 21 20.4702 21Z" fill="#444444"/>
<path d="M28.4702 21H28.5298C29.3417 21 30 20.3283 30 19.5C30 18.6717 29.3417 18 28.5298 18H28.4702C27.6583 18 27 18.6717 27 19.5C27 20.3283 27.6583 21 28.4702 21Z" fill="#444444"/>
<path d="M36.4702 21H36.5298C37.3417 21 38 20.3283 38 19.5C38 18.6717 37.3417 18 36.5298 18H36.4702C35.6583 18 35 18.6717 35 19.5C35 20.3283 35.6583 21 36.4702 21Z" fill="#444444"/>
<path d="M44.4702 21H44.5298C45.3417 21 46 20.3283 46 19.5C46 18.6717 45.3417 18 44.5298 18H44.4702C43.6583 18 43 18.6717 43 19.5C43 20.3283 43.6583 21 44.4702 21Z" fill="#444444"/>
<path d="M52.4702 21H52.5298C53.3417 21 54 20.3283 54 19.5C54 18.6717 53.3417 18 52.5298 18H52.4702C51.6583 18 51 18.6717 51 19.5C51 20.3283 51.6583 21 52.4702 21Z" fill="#444444"/>
<path d="M60.4699 21H60.5301C61.3418 21 62 20.3283 62 19.5C62 18.6717 61.3418 18 60.5301 18H60.4699C59.6582 18 59 18.6717 59 19.5C59 20.3283 59.6582 21 60.4699 21Z" fill="#444444"/>
<path d="M68.5075 21C69.3317 21 70 20.3283 70 19.5C70 18.6717 69.3317 18 68.5075 18H68.4776C67.6534 18 67 18.6717 67 19.5C67 20.3283 67.6832 21 68.5075 21Z" fill="#444444"/>
<path d="M12.4852 53H12.5148C13.335 53 14 52.3283 14 51.5C14 50.6717 13.335 50 12.5148 50H12.4852C11.665 50 11 50.6717 11 51.5C11 52.3283 11.665 53 12.4852 53Z" fill="#444444"/>
<path d="M20.4702 53H20.5298C21.3417 53 22 52.3283 22 51.5C22 50.6717 21.3417 50 20.5298 50H20.4702C19.6583 50 19 50.6717 19 51.5C19 52.3283 19.6583 53 20.4702 53Z" fill="#444444"/>
<path d="M28.4702 53H28.5298C29.3417 53 30 52.3283 30 51.5C30 50.6717 29.3417 50 28.5298 50H28.4702C27.6583 50 27 50.6717 27 51.5C27 52.3283 27.6583 53 28.4702 53Z" fill="#444444"/>
<path d="M36.4702 53H36.5298C37.3417 53 38 52.3283 38 51.5C38 50.6717 37.3417 50 36.5298 50H36.4702C35.6583 50 35 50.6717 35 51.5C35 52.3283 35.6583 53 36.4702 53Z" fill="#444444"/>
<path d="M44.4702 53H44.5298C45.3417 53 46 52.3283 46 51.5C46 50.6717 45.3417 50 44.5298 50H44.4702C43.6583 50 43 50.6717 43 51.5C43 52.3283 43.6583 53 44.4702 53Z" fill="#444444"/>
<path d="M52.4702 53H52.5298C53.3417 53 54 52.3283 54 51.5C54 50.6717 53.3417 50 52.5298 50H52.4702C51.6583 50 51 50.6717 51 51.5C51 52.3283 51.6583 53 52.4702 53Z" fill="#444444"/>
<path d="M60.4699 53H60.5301C61.3418 53 62 52.3283 62 51.5C62 50.6717 61.3418 50 60.5301 50H60.4699C59.6582 50 59 50.6717 59 51.5C59 52.3283 59.6582 53 60.4699 53Z" fill="#444444"/>
<path d="M68.5075 53C69.3317 53 70 52.3283 70 51.5C70 50.6717 69.3317 50 68.5075 50H68.4776C67.6534 50 67 50.6717 67 51.5C67 52.3283 67.6832 53 68.5075 53Z" fill="#444444"/>
<path d="M12.4852 29H12.5148C13.335 29 14 28.3283 14 27.5C14 26.6717 13.335 26 12.5148 26H12.4852C11.665 26 11 26.6717 11 27.5C11 28.3283 11.665 29 12.4852 29Z" fill="#444444"/>
<path d="M20.4702 29H20.5298C21.3417 29 22 28.3283 22 27.5C22 26.6717 21.3417 26 20.5298 26H20.4702C19.6583 26 19 26.6717 19 27.5C19 28.3283 19.6583 29 20.4702 29Z" fill="#444444"/>
<path d="M28.4702 29H28.5298C29.3417 29 30 28.3283 30 27.5C30 26.6717 29.3417 26 28.5298 26H28.4702C27.6583 26 27 26.6717 27 27.5C27 28.3283 27.6583 29 28.4702 29Z" fill="#444444"/>
<path d="M36.4702 29H36.5298C37.3417 29 38 28.3283 38 27.5C38 26.6717 37.3417 26 36.5298 26H36.4702C35.6583 26 35 26.6717 35 27.5C35 28.3283 35.6583 29 36.4702 29Z" fill="#444444"/>
<path d="M44.4702 29H44.5298C45.3417 29 46 28.3283 46 27.5C46 26.6717 45.3417 26 44.5298 26H44.4702C43.6583 26 43 26.6717 43 27.5C43 28.3283 43.6583 29 44.4702 29Z" fill="#444444"/>
<path d="M52.4702 29H52.5298C53.3417 29 54 28.3283 54 27.5C54 26.6717 53.3417 26 52.5298 26H52.4702C51.6583 26 51 26.6717 51 27.5C51 28.3283 51.6583 29 52.4702 29Z" fill="#444444"/>
<path d="M60.4699 29H60.5301C61.3418 29 62 28.3283 62 27.5C62 26.6717 61.3418 26 60.5301 26H60.4699C59.6582 26 59 26.6717 59 27.5C59 28.3283 59.6582 29 60.4699 29Z" fill="#444444"/>
<path d="M68.5075 29C69.3317 29 70 28.3283 70 27.5C70 26.6717 69.3317 26 68.5075 26H68.4776C67.6534 26 67 26.6717 67 27.5C67 28.3283 67.6832 29 68.5075 29Z" fill="#444444"/>
<path d="M12.4852 61H12.5148C13.335 61 14 60.3283 14 59.5C14 58.6717 13.335 58 12.5148 58H12.4852C11.665 58 11 58.6717 11 59.5C11 60.3283 11.665 61 12.4852 61Z" fill="#444444"/>
<path d="M20.4702 61H20.5298C21.3417 61 22 60.3283 22 59.5C22 58.6717 21.3417 58 20.5298 58H20.4702C19.6583 58 19 58.6717 19 59.5C19 60.3283 19.6583 61 20.4702 61Z" fill="#444444"/>
<path d="M28.4702 61H28.5298C29.3417 61 30 60.3283 30 59.5C30 58.6717 29.3417 58 28.5298 58H28.4702C27.6583 58 27 58.6717 27 59.5C27 60.3283 27.6583 61 28.4702 61Z" fill="#444444"/>
<path d="M36.4702 61H36.5298C37.3417 61 38 60.3283 38 59.5C38 58.6717 37.3417 58 36.5298 58H36.4702C35.6583 58 35 58.6717 35 59.5C35 60.3283 35.6583 61 36.4702 61Z" fill="#444444"/>
<path d="M44.4702 61H44.5298C45.3417 61 46 60.3283 46 59.5C46 58.6717 45.3417 58 44.5298 58H44.4702C43.6583 58 43 58.6717 43 59.5C43 60.3283 43.6583 61 44.4702 61Z" fill="#444444"/>
<path d="M52.4702 61H52.5298C53.3417 61 54 60.3283 54 59.5C54 58.6717 53.3417 58 52.5298 58H52.4702C51.6583 58 51 58.6717 51 59.5C51 60.3283 51.6583 61 52.4702 61Z" fill="#444444"/>
<path d="M60.4699 61H60.5301C61.3418 61 62 60.3283 62 59.5C62 58.6717 61.3418 58 60.5301 58H60.4699C59.6582 58 59 58.6717 59 59.5C59 60.3283 59.6582 61 60.4699 61Z" fill="#444444"/>
<path d="M68.5075 61C69.3317 61 70 60.3283 70 59.5C70 58.6717 69.3317 58 68.5075 58H68.4776C67.6534 58 67 58.6717 67 59.5C67 60.3283 67.6832 61 68.5075 61Z" fill="#444444"/>
<path d="M12.4852 37H12.5148C13.335 37 14 36.3283 14 35.5C14 34.6717 13.335 34 12.5148 34H12.4852C11.665 34 11 34.6717 11 35.5C11 36.3283 11.665 37 12.4852 37Z" fill="#444444"/>
<path d="M20.4702 37H20.5298C21.3417 37 22 36.3283 22 35.5C22 34.6717 21.3417 34 20.5298 34H20.4702C19.6583 34 19 34.6717 19 35.5C19 36.3283 19.6583 37 20.4702 37Z" fill="#444444"/>
<path d="M28.4702 37H28.5298C29.3417 37 30 36.3283 30 35.5C30 34.6717 29.3417 34 28.5298 34H28.4702C27.6583 34 27 34.6717 27 35.5C27 36.3283 27.6583 37 28.4702 37Z" fill="#444444"/>
<path d="M36.4702 37H36.5298C37.3417 37 38 36.3283 38 35.5C38 34.6717 37.3417 34 36.5298 34H36.4702C35.6583 34 35 34.6717 35 35.5C35 36.3283 35.6583 37 36.4702 37Z" fill="#444444"/>
<path d="M44.4702 37H44.5298C45.3417 37 46 36.3283 46 35.5C46 34.6717 45.3417 34 44.5298 34H44.4702C43.6583 34 43 34.6717 43 35.5C43 36.3283 43.6583 37 44.4702 37Z" fill="#444444"/>
<path d="M52.4702 37H52.5298C53.3417 37 54 36.3283 54 35.5C54 34.6717 53.3417 34 52.5298 34H52.4702C51.6583 34 51 34.6717 51 35.5C51 36.3283 51.6583 37 52.4702 37Z" fill="#444444"/>
<path d="M60.4699 37H60.5301C61.3418 37 62 36.3283 62 35.5C62 34.6717 61.3418 34 60.5301 34H60.4699C59.6582 34 59 34.6717 59 35.5C59 36.3283 59.6582 37 60.4699 37Z" fill="#444444"/>
<path d="M68.5075 37C69.3317 37 70 36.3283 70 35.5C70 34.6717 69.3317 34 68.5075 34H68.4776C67.6534 34 67 34.6717 67 35.5C67 36.3283 67.6832 37 68.5075 37Z" fill="#444444"/>
<path d="M12.4852 69H12.5148C13.335 69 14 68.3283 14 67.5C14 66.6717 13.335 66 12.5148 66H12.4852C11.665 66 11 66.6717 11 67.5C11 68.3283 11.665 69 12.4852 69Z" fill="#444444"/>
<path d="M20.4702 69H20.5298C21.3417 69 22 68.3283 22 67.5C22 66.6717 21.3417 66 20.5298 66H20.4702C19.6583 66 19 66.6717 19 67.5C19 68.3283 19.6583 69 20.4702 69Z" fill="#444444"/>
<path d="M28.4702 69H28.5298C29.3417 69 30 68.3283 30 67.5C30 66.6717 29.3417 66 28.5298 66H28.4702C27.6583 66 27 66.6717 27 67.5C27 68.3283 27.6583 69 28.4702 69Z" fill="#444444"/>
<path d="M36.4702 69H36.5298C37.3417 69 38 68.3283 38 67.5C38 66.6717 37.3417 66 36.5298 66H36.4702C35.6583 66 35 66.6717 35 67.5C35 68.3283 35.6583 69 36.4702 69Z" fill="#444444"/>
<path d="M44.4702 69H44.5298C45.3417 69 46 68.3283 46 67.5C46 66.6717 45.3417 66 44.5298 66H44.4702C43.6583 66 43 66.6717 43 67.5C43 68.3283 43.6583 69 44.4702 69Z" fill="#444444"/>
<path d="M52.4702 69H52.5298C53.3417 69 54 68.3283 54 67.5C54 66.6717 53.3417 66 52.5298 66H52.4702C51.6583 66 51 66.6717 51 67.5C51 68.3283 51.6583 69 52.4702 69Z" fill="#444444"/>
<path d="M60.4699 69H60.5301C61.3418 69 62 68.3283 62 67.5C62 66.6717 61.3418 66 60.5301 66H60.4699C59.6582 66 59 66.6717 59 67.5C59 68.3283 59.6582 69 60.4699 69Z" fill="#444444"/>
<path d="M68.5075 69C69.3317 69 70 68.3283 70 67.5C70 66.6717 69.3317 66 68.5075 66H68.4776C67.6534 66 67 66.6717 67 67.5C67 68.3283 67.6832 69 68.5075 69Z" fill="#444444"/>
<circle cx="20.5" cy="51.5" r="2.5" fill="#FF6F3D"/>
<circle cx="12.5" cy="67.5" r="2.5" fill="#FF6F3D"/>
<circle cx="28.5" cy="59.5" r="2.5" fill="#FF6F3D"/>
<circle cx="36.5" cy="19.5" r="2.5" fill="#FF6F3D"/>
<circle cx="44.5" cy="43.5" r="2.5" fill="#FF6F3D"/>
<circle cx="52.5" cy="51.5" r="2.5" fill="#FF6F3D"/>
<circle cx="68.5" cy="43.5" r="2.5" fill="#FF6F3D"/>
<circle cx="60.5" cy="35.5" r="2.5" fill="#FF6F3D"/>
<path d="M12.5 67.5L20.5 51.5L28 59.5L36.5 19L44.5 43.5L52.5 51.5L60.5 35L68.5 43.5" stroke="#FF6F3D" stroke-width="2" stroke-linejoin="round"/>
<circle cx="90" cy="20" r="10.5" fill="white" stroke="white"/>
<path d="M89.9991 10C84.4866 10 80 14.4875 80 20.0009C80 25.5142 84.4866 30 89.9991 30C95.5116 30 100 25.5142 100 20.0009C100 14.4875 95.5116 10 89.9991 10ZM90.1035 13.161C91.6914 13.161 92.8856 13.7623 93.6177 14.5552C94.3498 15.3481 94.6541 16.2535 94.6541 17.0218C94.6813 18.2208 92.8733 18.2208 92.9005 17.0218C92.9005 16.7968 92.7453 16.2069 92.3297 15.7569C91.9141 15.3068 91.2705 14.9191 90.1035 14.9191C88.4384 14.9191 87.3634 16.1507 86.8531 17.7488H90.1622C91.3582 17.7215 91.3582 19.5341 90.1622 19.5069H86.5313C86.5015 19.9912 86.5007 20.4817 86.5585 20.9608H90.1622C91.3582 20.9335 91.3582 22.7461 90.1622 22.7189H87.0039C87.566 24.0893 88.5989 25.0879 90.1035 25.0879C91.2705 25.0879 91.9141 24.7002 92.3297 24.2502C92.7453 23.8001 92.9005 23.2103 92.9005 22.9852C92.8733 21.7862 94.6813 21.7862 94.6541 22.9852C94.6541 23.7535 94.3498 24.6528 93.6177 25.4448C92.8856 26.2377 91.6914 26.846 90.1035 26.846C87.5055 26.846 85.858 25.0281 85.153 22.7189H84.1938C83.0495 22.7523 82.961 21.0461 84.1026 20.9608C84.1333 20.959 84.1631 20.959 84.1938 20.9608H84.8172C84.7698 20.4782 84.7619 19.9921 84.7865 19.5069H84.1938C83.0495 19.5403 82.961 17.8332 84.1026 17.7488C84.1333 17.747 84.1631 17.747 84.1938 17.7488H85.0259C85.6449 15.225 87.3345 13.161 90.1035 13.161Z" fill="#333333"/>
<circle cx="116" cy="20" r="10.5" fill="white" stroke="white"/>
<path d="M116.003 10C110.492 10 106 14.4858 106 19.9991C106 25.5125 110.492 30 116.003 30C121.513 30 126 25.5125 126 19.9991C126 14.4858 121.513 10 116.003 10ZM116.47 13.2481C116.943 13.2507 117.406 13.3404 117.828 13.5039C118.953 13.9399 119.899 14.9675 119.899 16.2816C119.926 17.4807 118.118 17.4807 118.146 16.2816C118.146 15.8184 117.795 15.3789 117.194 15.145C116.593 14.9121 115.848 14.942 115.227 15.4255C114.418 16.0549 114.194 16.6034 114.126 17.2882C114.101 17.5545 114.119 17.8516 114.152 18.1637H116.166H117.707C118.902 18.1364 118.902 19.949 117.707 19.9218H116.166H114.457C114.644 20.8193 114.837 21.8003 114.69 22.849C114.612 23.3984 114.442 23.7456 114.272 24.0304C115.551 23.6647 116.714 23.9873 117.562 24.2308C118.119 24.3451 118.419 24.3486 118.528 24.3082C118.637 24.2686 118.815 24.1614 119.103 23.4916C119.549 22.3778 121.212 23.0934 120.714 24.1851C120.334 25.0703 119.827 25.7076 119.129 25.9634C118.431 26.2192 117.806 26.0707 117.213 25.9494C116.027 25.7068 114.749 25.3525 112.497 26.1709C111.546 26.541 110.838 25.2584 111.656 24.6466C112.563 23.9408 112.85 23.3166 112.951 22.602C113.051 21.8864 112.903 21.0408 112.71 20.116C112.698 20.0536 112.686 19.9851 112.673 19.9218H112.101C110.906 19.949 110.906 18.1364 112.101 18.1637H112.384C112.356 17.8226 112.345 17.4763 112.38 17.1185C112.485 16.0434 113.023 14.9156 114.154 14.0366C114.863 13.4854 115.681 13.2445 116.47 13.2481Z" fill="#333333"/>
<circle cx="142" cy="20" r="10.5" fill="white" stroke="white"/>
<path d="M141.997 10C136.487 10 132 14.4858 132 19.9991C132 25.5125 136.487 30 141.997 30C147.508 30 152 25.5125 152 19.9991C152 14.4858 147.508 10 141.997 10ZM141.983 12.7778C142.48 12.7681 142.886 13.1742 142.877 13.6726V14.7714C144.222 15.0993 145.296 16.1463 145.296 17.5334C145.323 18.7324 143.515 18.7324 143.543 17.5334C143.543 17.0113 142.957 16.4293 142.033 16.4144C142.011 16.4144 141.989 16.4135 141.968 16.4126C141.04 16.4249 140.456 17.0095 140.456 17.5334C140.456 18.0635 141.052 18.6568 141.997 18.6568C144.033 18.6568 145.852 20.0624 145.852 21.9989C145.852 23.6489 144.528 24.9042 142.877 25.2426V26.3274C142.851 27.4727 141.15 27.4727 141.124 26.3274V25.2444C139.472 24.9086 138.147 23.6515 138.147 21.9989C138.033 20.7226 140.008 20.7226 139.893 21.9989C139.893 22.7637 140.703 23.5355 141.903 23.5751C141.93 23.5716 141.956 23.5698 141.983 23.568C142.021 23.568 142.059 23.5698 142.096 23.5733C143.294 23.5311 144.099 22.762 144.099 21.9989C144.099 21.214 143.251 20.4149 141.997 20.4149C140.27 20.4149 138.703 19.215 138.703 17.5334C138.703 16.1436 139.778 15.0958 141.124 14.7697V13.6726C141.116 13.1874 141.5 12.7874 141.983 12.7778Z" fill="#333333"/>
<circle cx="168" cy="20" r="10.5" fill="white" stroke="white"/>
<path d="M168.003 10C162.492 10 158 14.4875 158 20.0009C158 25.5142 162.492 30 168.003 30C173.513 30 178 25.5142 178 20.0009C178 14.4875 173.513 10 168.003 10ZM163.796 14.375C164.033 14.375 164.26 14.4708 164.425 14.6405L167.999 18.2138L171.573 14.6405C171.733 14.477 171.949 14.3812 172.177 14.375C172.976 14.353 173.385 15.3279 172.81 15.8852L168.876 19.8189V19.8312H170.934C172.104 19.8312 172.104 21.5911 170.934 21.5911H168.876V22.4851H170.934C172.076 22.5114 172.076 24.2177 170.934 24.2431H168.876V26.1647C168.903 27.3638 167.095 27.3638 167.123 26.1647V24.2431H165.065C163.923 24.2177 163.923 22.5114 165.065 22.4851H167.123V21.5911H165.065C163.895 21.5911 163.895 19.8312 165.065 19.8312H167.123V19.8189L163.189 15.8852C162.624 15.3367 163.01 14.3768 163.796 14.375Z" fill="#333333"/>
</svg>
