<svg width="208" height="80" viewBox="0 0 208 80" fill="none" xmlns="http://www.w3.org/2000/svg">
<rect opacity="0.5" x="0.5" y="0.5" width="167" height="79" rx="1.5" stroke="#AAAAAA"/>
<g opacity="0.5">
<line y1="15.5" x2="168" y2="15.5" stroke="#AAAAAA"/>
<line x1="131.5" y1="2.18557e-08" x2="131.5" y2="80" stroke="#AAAAAA"/>
<line x1="84.5" y1="2.18557e-08" x2="84.5" y2="80" stroke="#AAAAAA"/>
<line y1="41.5" x2="168" y2="41.5" stroke="#AAAAAA"/>
<line y1="67.5" x2="168" y2="67.5" stroke="#AAAAAA"/>
<line x1="37.5" y1="2.18557e-08" x2="37.5" y2="80" stroke="#AAAAAA"/>
</g>
<rect x="37.5" y="10.5" width="145" height="61" fill="white" stroke="#808080"/>
<path d="M43.5 16.5H84.5V21.5H43.5V16.5Z" fill="#8BB825" stroke="#8BB825"/>
<path d="M43 22H85V26H43V22Z" fill="#EFEFEF"/>
<path d="M43 30H85V34H43V30Z" fill="#EFEFEF"/>
<path d="M43.5 16.5H84.5V38.5H43.5V16.5Z" stroke="#666666"/>
<path d="M46 19H51" stroke="white" stroke-linecap="round"/>
<path d="M56 19H61" stroke="white" stroke-linecap="round"/>
<path d="M66 19H71" stroke="white" stroke-linecap="round"/>
<path d="M76 19H81" stroke="white" stroke-linecap="round"/>
<path d="M46 24H51" stroke="#808080" stroke-linecap="round"/>
<path d="M46 28H51" stroke="#808080" stroke-linecap="round"/>
<path d="M46 32H51" stroke="#808080" stroke-linecap="round"/>
<path d="M46 36H51" stroke="#808080" stroke-linecap="round"/>
<path d="M56 24H61" stroke="#808080" stroke-linecap="round"/>
<path d="M56 28H61" stroke="#808080" stroke-linecap="round"/>
<path d="M56 32H61" stroke="#808080" stroke-linecap="round"/>
<path d="M56 36H61" stroke="#808080" stroke-linecap="round"/>
<path d="M66 24H71" stroke="#808080" stroke-linecap="round"/>
<path d="M66 28H71" stroke="#808080" stroke-linecap="round"/>
<path d="M66 32H71" stroke="#808080" stroke-linecap="round"/>
<path d="M66 36H71" stroke="#808080" stroke-linecap="round"/>
<path d="M76 24H81" stroke="#808080" stroke-linecap="round"/>
<path d="M76 28H81" stroke="#808080" stroke-linecap="round"/>
<path d="M76 32H81" stroke="#808080" stroke-linecap="round"/>
<path d="M76 36H81" stroke="#808080" stroke-linecap="round"/>
<path opacity="0.3" d="M43 49H85V53H43V49Z" fill="#8BB825"/>
<path opacity="0.3" d="M43 57H85V61H43V57Z" fill="#8BB825"/>
<path d="M43.5 43.5H84.5V65.5H43.5V43.5Z" stroke="#808080"/>
<path d="M43.5 43.5H84.5V48.5H43.5V43.5Z" fill="#F9FEEF" stroke="#8BB825"/>
<path d="M46 46H51" stroke="#8BB825" stroke-linecap="round"/>
<path d="M56 46H61" stroke="#8BB825" stroke-linecap="round"/>
<path d="M66 46H71" stroke="#8BB825" stroke-linecap="round"/>
<path d="M76 46H81" stroke="#8BB825" stroke-linecap="round"/>
<path d="M46 51H51" stroke="#808080" stroke-linecap="round"/>
<path d="M46 55H51" stroke="#808080" stroke-linecap="round"/>
<path d="M46 59H51" stroke="#808080" stroke-linecap="round"/>
<path d="M46 63H51" stroke="#808080" stroke-linecap="round"/>
<path d="M56 51H61" stroke="#808080" stroke-linecap="round"/>
<path d="M56 55H61" stroke="#808080" stroke-linecap="round"/>
<path d="M56 59H61" stroke="#808080" stroke-linecap="round"/>
<path d="M56 63H61" stroke="#808080" stroke-linecap="round"/>
<path d="M66 51H71" stroke="#808080" stroke-linecap="round"/>
<path d="M66 55H71" stroke="#808080" stroke-linecap="round"/>
<path d="M66 59H71" stroke="#808080" stroke-linecap="round"/>
<path d="M66 63H71" stroke="#808080" stroke-linecap="round"/>
<path d="M76 51H81" stroke="#808080" stroke-linecap="round"/>
<path d="M76 55H81" stroke="#808080" stroke-linecap="round"/>
<path d="M76 59H81" stroke="#808080" stroke-linecap="round"/>
<path d="M76 63H81" stroke="#808080" stroke-linecap="round"/>
<path opacity="0.3" d="M89 49H131V53H89V49Z" fill="#4472C4"/>
<path opacity="0.3" d="M89 57H131V61H89V57Z" fill="#4472C4"/>
<path d="M89.5 48.5H130.5V65.5H89.5V48.5Z" stroke="#666666"/>
<path d="M89.5 43.5H130.5V48.5H89.5V43.5Z" fill="#F9FEEF" stroke="#4472C4"/>
<path d="M92 46H97" stroke="#4472C4" stroke-linecap="round"/>
<path d="M102 46H107" stroke="#4472C4" stroke-linecap="round"/>
<path d="M112 46H117" stroke="#4472C4" stroke-linecap="round"/>
<path d="M122 46H127" stroke="#4472C4" stroke-linecap="round"/>
<path d="M92 51H97" stroke="#808080" stroke-linecap="round"/>
<path d="M92 55H97" stroke="#808080" stroke-linecap="round"/>
<path d="M92 59H97" stroke="#808080" stroke-linecap="round"/>
<path d="M92 63H97" stroke="#808080" stroke-linecap="round"/>
<path d="M102 51H107" stroke="#808080" stroke-linecap="round"/>
<path d="M102 55H107" stroke="#808080" stroke-linecap="round"/>
<path d="M102 59H107" stroke="#808080" stroke-linecap="round"/>
<path d="M102 63H107" stroke="#808080" stroke-linecap="round"/>
<path d="M112 51H117" stroke="#808080" stroke-linecap="round"/>
<path d="M112 55H117" stroke="#808080" stroke-linecap="round"/>
<path d="M112 59H117" stroke="#808080" stroke-linecap="round"/>
<path d="M112 63H117" stroke="#808080" stroke-linecap="round"/>
<path d="M122 51H127" stroke="#808080" stroke-linecap="round"/>
<path d="M122 55H127" stroke="#808080" stroke-linecap="round"/>
<path d="M122 59H127" stroke="#808080" stroke-linecap="round"/>
<path d="M122 63H127" stroke="#808080" stroke-linecap="round"/>
<path opacity="0.3" d="M135 49H177V53H135V49Z" fill="url(#paint0_linear_1505_1130)"/>
<path opacity="0.3" d="M135 57H177V61H135V57Z" fill="url(#paint1_linear_1505_1130)"/>
<path d="M135.5 48.5H176.5V65.5H135.5V48.5Z" stroke="#666666"/>
<path d="M135.5 43.5H176.5V48.5H135.5V43.5Z" fill="#F9FEEF" stroke="url(#paint2_linear_1505_1130)"/>
<path d="M138 46H143" stroke="url(#paint3_linear_1505_1130)" stroke-linecap="round"/>
<path d="M148 46H153" stroke="url(#paint4_linear_1505_1130)" stroke-linecap="round"/>
<path d="M158 46H163" stroke="url(#paint5_linear_1505_1130)" stroke-linecap="round"/>
<path d="M168 46H173" stroke="url(#paint6_linear_1505_1130)" stroke-linecap="round"/>
<path d="M138 51H143" stroke="#808080" stroke-linecap="round"/>
<path d="M138 55H143" stroke="#808080" stroke-linecap="round"/>
<path d="M138 59H143" stroke="#808080" stroke-linecap="round"/>
<path d="M138 63H143" stroke="#808080" stroke-linecap="round"/>
<path d="M148 51H153" stroke="#808080" stroke-linecap="round"/>
<path d="M148 55H153" stroke="#808080" stroke-linecap="round"/>
<path d="M148 59H153" stroke="#808080" stroke-linecap="round"/>
<path d="M148 63H153" stroke="#808080" stroke-linecap="round"/>
<path d="M158 51H163" stroke="#808080" stroke-linecap="round"/>
<path d="M158 55H163" stroke="#808080" stroke-linecap="round"/>
<path d="M158 59H163" stroke="#808080" stroke-linecap="round"/>
<path d="M158 63H163" stroke="#808080" stroke-linecap="round"/>
<path d="M168 51H173" stroke="#808080" stroke-linecap="round"/>
<path d="M168 55H173" stroke="#808080" stroke-linecap="round"/>
<path d="M168 59H173" stroke="#808080" stroke-linecap="round"/>
<path d="M168 63H173" stroke="#808080" stroke-linecap="round"/>
<path d="M89 22H131V26H89V22Z" fill="#EFEFEF"/>
<path d="M89 30H131V34H89V30Z" fill="#EFEFEF"/>
<path d="M89.5 21.5H130.5V38.5H89.5V21.5Z" stroke="#666666"/>
<path d="M89.5 16.5H130.5V21.5H89.5V16.5Z" fill="#4472C4" stroke="#4472C4"/>
<path d="M92 19H97" stroke="white" stroke-linecap="round"/>
<path d="M102 19H107" stroke="white" stroke-linecap="round"/>
<path d="M112 19H117" stroke="white" stroke-linecap="round"/>
<path d="M122 19H127" stroke="white" stroke-linecap="round"/>
<path d="M92 24H97" stroke="#808080" stroke-linecap="round"/>
<path d="M92 28H97" stroke="#808080" stroke-linecap="round"/>
<path d="M92 32H97" stroke="#808080" stroke-linecap="round"/>
<path d="M92 36H97" stroke="#808080" stroke-linecap="round"/>
<path d="M102 24H107" stroke="#808080" stroke-linecap="round"/>
<path d="M102 28H107" stroke="#808080" stroke-linecap="round"/>
<path d="M102 32H107" stroke="#808080" stroke-linecap="round"/>
<path d="M102 36H107" stroke="#808080" stroke-linecap="round"/>
<path d="M112 24H117" stroke="#808080" stroke-linecap="round"/>
<path d="M112 28H117" stroke="#808080" stroke-linecap="round"/>
<path d="M112 32H117" stroke="#808080" stroke-linecap="round"/>
<path d="M112 36H117" stroke="#808080" stroke-linecap="round"/>
<path d="M122 24H127" stroke="#808080" stroke-linecap="round"/>
<path d="M122 28H127" stroke="#808080" stroke-linecap="round"/>
<path d="M122 32H127" stroke="#808080" stroke-linecap="round"/>
<path d="M122 36H127" stroke="#808080" stroke-linecap="round"/>
<path d="M135 22H177V26H135V22Z" fill="#EFEFEF"/>
<path d="M135 30H177V34H135V30Z" fill="#EFEFEF"/>
<path d="M135.5 21.5H176.5V38.5H135.5V21.5Z" stroke="#666666"/>
<path d="M135 16H177V22H135V16Z" fill="url(#paint7_linear_1505_1130)"/>
<path d="M138 19H143" stroke="white" stroke-linecap="round"/>
<path d="M148 19H153" stroke="white" stroke-linecap="round"/>
<path d="M158 19H163" stroke="white" stroke-linecap="round"/>
<path d="M168 19H173" stroke="white" stroke-linecap="round"/>
<path d="M138 24H143" stroke="#808080" stroke-linecap="round"/>
<path d="M138 28H143" stroke="#808080" stroke-linecap="round"/>
<path d="M138 32H143" stroke="#808080" stroke-linecap="round"/>
<path d="M138 36H143" stroke="#808080" stroke-linecap="round"/>
<path d="M148 24H153" stroke="#808080" stroke-linecap="round"/>
<path d="M148 28H153" stroke="#808080" stroke-linecap="round"/>
<path d="M148 32H153" stroke="#808080" stroke-linecap="round"/>
<path d="M148 36H153" stroke="#808080" stroke-linecap="round"/>
<path d="M158 24H163" stroke="#808080" stroke-linecap="round"/>
<path d="M158 28H163" stroke="#808080" stroke-linecap="round"/>
<path d="M158 32H163" stroke="#808080" stroke-linecap="round"/>
<path d="M158 36H163" stroke="#808080" stroke-linecap="round"/>
<path d="M168 24H173" stroke="#808080" stroke-linecap="round"/>
<path d="M168 28H173" stroke="#808080" stroke-linecap="round"/>
<path d="M168 32H173" stroke="#808080" stroke-linecap="round"/>
<path d="M168 36H173" stroke="#808080" stroke-linecap="round"/>
<circle cx="182.5" cy="10.5" r="1.5" fill="#808080"/>
<circle cx="37.5" cy="10.5" r="1.5" fill="#808080"/>
<circle cx="182.5" cy="71.5" r="1.5" fill="#808080"/>
<circle cx="37.5" cy="71.5" r="1.5" fill="#808080"/>
<defs>
<linearGradient id="paint0_linear_1505_1130" x1="156" y1="49" x2="156" y2="53" gradientUnits="userSpaceOnUse">
<stop stop-color="#FF8E3D"/>
<stop offset="1" stop-color="#FF6F3D"/>
</linearGradient>
<linearGradient id="paint1_linear_1505_1130" x1="156" y1="57" x2="156" y2="61" gradientUnits="userSpaceOnUse">
<stop stop-color="#FF8E3D"/>
<stop offset="1" stop-color="#FF6F3D"/>
</linearGradient>
<linearGradient id="paint2_linear_1505_1130" x1="156" y1="43" x2="156" y2="49" gradientUnits="userSpaceOnUse">
<stop stop-color="#FF8E3D"/>
<stop offset="1" stop-color="#FF6F3D"/>
</linearGradient>
<linearGradient id="paint3_linear_1505_1130" x1="140.5" y1="46" x2="140.5" y2="47" gradientUnits="userSpaceOnUse">
<stop stop-color="#FF8E3D"/>
<stop offset="1" stop-color="#FF6F3D"/>
</linearGradient>
<linearGradient id="paint4_linear_1505_1130" x1="150.5" y1="46" x2="150.5" y2="47" gradientUnits="userSpaceOnUse">
<stop stop-color="#FF8E3D"/>
<stop offset="1" stop-color="#FF6F3D"/>
</linearGradient>
<linearGradient id="paint5_linear_1505_1130" x1="160.5" y1="46" x2="160.5" y2="47" gradientUnits="userSpaceOnUse">
<stop stop-color="#FF8E3D"/>
<stop offset="1" stop-color="#FF6F3D"/>
</linearGradient>
<linearGradient id="paint6_linear_1505_1130" x1="170.5" y1="46" x2="170.5" y2="47" gradientUnits="userSpaceOnUse">
<stop stop-color="#FF8E3D"/>
<stop offset="1" stop-color="#FF6F3D"/>
</linearGradient>
<linearGradient id="paint7_linear_1505_1130" x1="135" y1="15.7656" x2="136.621" y2="27.5516" gradientUnits="userSpaceOnUse">
<stop stop-color="#FFC671"/>
<stop offset="0.59375" stop-color="#FF7541"/>
<stop offset="1" stop-color="#FF6F3D"/>
</linearGradient>
</defs>
</svg>
