<svg width="208" height="80" viewBox="0 0 208 80" fill="none" xmlns="http://www.w3.org/2000/svg">
<g clip-path="url(#clip0_1489_1124)">
<rect opacity="0.5" x="20.5" y="0.5" width="167" height="79" rx="1.5" stroke="#AAAAAA"/>
<g opacity="0.5">
<line x1="20" y1="67.5" x2="188" y2="67.5" stroke="#AAAAAA"/>
<line x1="20" y1="13.5" x2="188" y2="13.5" stroke="#AAAAAA"/>
<line x1="20" y1="31.5" x2="188" y2="31.5" stroke="#AAAAAA"/>
<line x1="20" y1="49.5" x2="188" y2="49.5" stroke="#AAAAAA"/>
<path fill-rule="evenodd" clip-rule="evenodd" d="M176 80.0123L176 1L177 1L177 80.0123L176 80.0123Z" fill="#AAAAAA"/>
<path fill-rule="evenodd" clip-rule="evenodd" d="M137 80.0123L137 1L138 1L138 80.0123L137 80.0123Z" fill="#AAAAAA"/>
<path fill-rule="evenodd" clip-rule="evenodd" d="M71 80L71 -4.37112e-08L72 0L72 80L71 80Z" fill="#AAAAAA"/>
<path fill-rule="evenodd" clip-rule="evenodd" d="M30 79.0123L30 -4.31717e-08L31 0L31 79.0123L30 79.0123Z" fill="#AAAAAA"/>
</g>
<rect x="-0.5" y="0.5" width="66" height="18" transform="matrix(1 0 0 -1 72 68)" fill="#FF6F3D" stroke="#808080"/>
<rect x="-0.5" y="0.5" width="66" height="18" transform="matrix(1 0 0 -1 72 32)" fill="#FF6F3D" stroke="#808080"/>
<circle cx="71.5" cy="13.5" r="1.5" fill="#808080"/>
<circle cx="71.5" cy="49.5" r="1.5" fill="#808080"/>
<circle cx="137.5" cy="13.5" r="1.5" fill="#808080"/>
<circle cx="137.5" cy="49.5" r="1.5" fill="#808080"/>
<circle cx="71.5" cy="31.5" r="1.5" fill="#808080"/>
<circle cx="71.5" cy="67.5" r="1.5" fill="#808080"/>
<circle cx="137.5" cy="31.5" r="1.5" fill="#808080"/>
<circle cx="137.5" cy="67.5" r="1.5" fill="#808080"/>
</g>
<defs>
<clipPath id="clip0_1489_1124">
<rect width="208" height="80" fill="white"/>
</clipPath>
</defs>
</svg>
