<svg width="208" height="80" viewBox="0 0 208 80" fill="none" xmlns="http://www.w3.org/2000/svg">
<g clip-path="url(#clip0)">
<rect width="208" height="80" fill="white"/>
<rect x="0.5" y="0.5" width="167" height="79" rx="1.5" fill="#F5F5F5" stroke="#CCCCCC"/>
<line y1="67.5" x2="168" y2="67.5" stroke="#CCCCCC"/>
<line y1="13.5" x2="168" y2="13.5" stroke="#CCCCCC"/>
<line y1="31.5" x2="168" y2="31.5" stroke="#CCCCCC"/>
<line y1="49.5" x2="168" y2="49.5" stroke="#CCCCCC"/>
<line x1="156.5" y1="1" x2="156.5" y2="80.0123" stroke="#CCCCCC"/>
<line x1="117.5" y1="1" x2="117.5" y2="80.0123" stroke="#CCCCCC"/>
<line x1="51.5" y1="2.18557e-08" x2="51.5" y2="79.0123" stroke="#CCCCCC"/>
<line x1="10.4999" y1="2.15859e-08" x2="10.4999" y2="79.0123" stroke="#CCCCCC"/>
<rect x="0.5" y="-0.5" width="66" height="18" transform="matrix(1 0 0 -1 51 67)" fill="url(#paint0_linear)" stroke="#444444"/>
<rect x="0.5" y="-0.5" width="66" height="18" transform="matrix(1 0 0 -1 51 31)" fill="url(#paint1_linear)" stroke="#444444"/>
<circle cx="51.5" cy="13.5" r="1.5" fill="#444444"/>
<circle cx="51.5" cy="49.5" r="1.5" fill="#444444"/>
<circle cx="117.5" cy="13.5" r="1.5" fill="#444444"/>
<circle cx="117.5" cy="49.5" r="1.5" fill="#444444"/>
<circle cx="51.5" cy="31.5" r="1.5" fill="#444444"/>
<circle cx="51.5" cy="67.5" r="1.5" fill="#444444"/>
<circle cx="117.5" cy="31.5" r="1.5" fill="#444444"/>
<circle cx="117.5" cy="67.5" r="1.5" fill="#444444"/>
</g>
<defs>
<linearGradient id="paint0_linear" x1="33.5" y1="0" x2="33.5" y2="19" gradientUnits="userSpaceOnUse">
<stop stop-color="#FF8E3D"/>
<stop offset="1" stop-color="#FF6F3D"/>
</linearGradient>
<linearGradient id="paint1_linear" x1="33.5" y1="0" x2="33.5" y2="19" gradientUnits="userSpaceOnUse">
<stop stop-color="#FF8E3D"/>
<stop offset="1" stop-color="#FF6F3D"/>
</linearGradient>
<clipPath id="clip0">
<rect width="208" height="80" fill="white"/>
</clipPath>
</defs>
</svg>
