<svg width="208" height="80" viewBox="0 0 208 80" fill="none" xmlns="http://www.w3.org/2000/svg">
<g clip-path="url(#clip0_1485_801)">
<rect opacity="0.5" x="159" y="16" width="35" height="47" fill="#D6D6D6"/>
<rect opacity="0.5" x="123" y="16" width="35" height="47" fill="#5D5D5D"/>
<rect opacity="0.5" x="0.5" y="0.5" width="207" height="79" rx="1.5" stroke="#AAAAAA"/>
<line x1="14.5" y1="2.18557e-08" x2="14.5" y2="80" stroke="#AAAAAA"/>
<line x1="50.5" y1="2.18557e-08" x2="50.5" y2="80" stroke="#AAAAAA"/>
<line x1="86.5" y1="2.18557e-08" x2="86.5" y2="80" stroke="#AAAAAA"/>
<line x1="122.5" y1="2.18557e-08" x2="122.5" y2="80" stroke="#AAAAAA"/>
<line x1="158.5" y1="2.18557e-08" x2="158.5" y2="80" stroke="#AAAAAA"/>
<line x1="194.5" y1="2.18557e-08" x2="194.5" y2="80" stroke="#AAAAAA"/>
<g opacity="0.5">
<line y1="15.5" x2="208" y2="15.5" stroke="#CCCCCC"/>
<line y1="31.5" x2="208" y2="31.5" stroke="#CCCCCC"/>
<line y1="47.5" x2="208" y2="47.5" stroke="#CCCCCC"/>
<line y1="63.5" x2="208" y2="63.5" stroke="#CCCCCC"/>
</g>
<path d="M39 9L70 9.00014L89 28L89 70.9999H39V9Z" fill="white"/>
<circle cx="38.5" cy="8.5" r="1.5" fill="#AAAAAA"/>
<circle cx="38.5" cy="71.5" r="1.5" fill="#AAAAAA"/>
<circle cx="89.5" cy="71.5" r="1.5" fill="#AAAAAA"/>
<circle cx="89.5" cy="27.5" r="1.5" fill="#AAAAAA"/>
<circle cx="69.5" cy="8.5" r="1.5" fill="#AAAAAA"/>
<path fill-rule="evenodd" clip-rule="evenodd" d="M39 71H89V28H88.5L70 9.5V9H39V71ZM70 8H38V72H90V28L70 8Z" fill="#AAAAAA"/>
<path fill-rule="evenodd" clip-rule="evenodd" d="M46 48C44.8954 48 44 48.8955 44 50V64C44 65.1045 44.8954 66 46 66H82C83.1046 66 84 65.1045 84 64V50C84 48.8955 83.1046 48 82 48H46ZM56.2317 58.5786L58.0535 59.1562C57.7742 60.1719 57.3087 60.9272 56.657 61.4224C56.0096 61.9131 55.1865 62.1587 54.1878 62.1587C52.9521 62.1587 51.9365 61.7378 51.1409 60.8955C50.3453 60.0493 49.9476 58.894 49.9476 57.4297C49.9476 55.8809 50.3475 54.6792 51.1473 53.8242C51.9471 52.9653 52.9987 52.5356 54.302 52.5356C55.4404 52.5356 56.365 52.8721 57.076 53.5449C57.4991 53.9429 57.8165 54.5142 58.0281 55.2588L56.1683 55.7031C56.0582 55.2207 55.8276 54.8398 55.4764 54.5605C55.1294 54.2812 54.7062 54.1416 54.2068 54.1416C53.5171 54.1416 52.9563 54.3892 52.5247 54.8843C52.0973 55.3794 51.8836 56.1812 51.8836 57.29C51.8836 58.4663 52.0952 59.3042 52.5184 59.8037C52.9415 60.3032 53.4917 60.5527 54.1687 60.5527C54.6681 60.5527 55.0976 60.394 55.4573 60.0767C55.817 59.7593 56.0752 59.2598 56.2317 58.5786ZM60.4961 58.9722L62.3242 58.7944C62.4342 59.4082 62.6564 59.8589 62.9907 60.1465C63.3293 60.4341 63.7842 60.5781 64.3555 60.5781C64.9606 60.5781 65.4155 60.4512 65.7202 60.1973C66.0291 59.939 66.1836 59.6387 66.1836 59.2959C66.1836 59.1851 66.167 59.083 66.1338 58.9893C66.101 58.897 66.052 58.813 65.9868 58.7373C65.8599 58.5806 65.6356 58.4453 65.314 58.3311C65.1776 58.2837 64.9331 58.2139 64.5805 58.1211C64.3642 58.0645 64.1072 57.999 63.8096 57.9248C62.8024 57.6753 62.0957 57.3682 61.6895 57.0044C61.1182 56.4922 60.8325 55.8682 60.8325 55.1318C60.8325 54.6577 60.9658 54.2158 61.2324 53.8052C61.5033 53.3906 61.8905 53.0752 62.394 52.8594C62.9019 52.6436 63.5133 52.5356 64.2285 52.5356C65.3965 52.5356 66.2746 52.7915 66.8628 53.3037C67.4552 53.8159 67.7663 54.499 67.7959 55.354L65.917 55.4365C65.8366 54.9585 65.6631 54.6157 65.3965 54.4082C65.1341 54.1968 64.7384 54.0908 64.2095 54.0908C63.6636 54.0908 63.2362 54.2031 62.9272 54.4272C62.7283 54.5713 62.6289 54.7637 62.6289 55.0049C62.6289 55.2251 62.722 55.4131 62.9082 55.5698C63.1452 55.7686 63.7207 55.9761 64.6348 56.1919C65.5488 56.4077 66.2238 56.6318 66.6597 56.8647C67.0998 57.0933 67.4425 57.4087 67.688 57.8105C67.9377 58.2085 68.0625 58.7012 68.0625 59.2896C68.0625 59.8228 67.9144 60.3223 67.6182 60.7876C67.3219 61.2529 66.903 61.6001 66.3613 61.8286C65.8197 62.0527 65.1447 62.165 64.3364 62.165C63.16 62.165 62.2565 61.894 61.626 61.3525C60.9954 60.8066 60.6188 60.0132 60.4961 58.9722ZM69.9909 52.6943L73.3171 62H75.3229L78.6555 52.6943H76.6623L74.3835 59.5815L72.0285 52.6943H69.9909Z" fill="#6AAA1E"/>
<path d="M80 32H62V30H80V32Z" fill="#BFBFBF"/>
<path d="M62 40H80V38H62V40Z" fill="#BFBFBF"/>
<path d="M56 40H48V38H56V40Z" fill="#BFBFBF"/>
<path d="M56 32H48V30H56V32Z" fill="#BFBFBF"/>
<path d="M48 24H56V22H48V24Z" fill="#BFBFBF"/>
<path fill-rule="evenodd" clip-rule="evenodd" d="M44 18H70V20H60V26H70V27H84V44H44V18ZM82 28H60V34H82V28ZM60 36H82V42H60V36ZM58 36V42H46V36H58ZM58 28V34H46V28H58ZM58 26H46V20H58V26Z" fill="#BFBFBF"/>
<path d="M70 22H62V24H70V22Z" fill="#BFBFBF"/>
<path opacity="0.3" d="M69 28.0002V9.00019L70 9V27.0002H89L90 27.9998L69 28.0002Z" fill="#AAAAAA"/>
<rect x="104.5" y="29.5" width="23" height="23" rx="2.5" fill="#FF6F3D" stroke="#444444"/>
<path d="M104 44L104 38L112.75 38C113.302 38 113.75 37.5523 113.75 37L113.75 34.4888C113.75 33.5876 114.848 33.1462 115.472 33.7969L121.712 40.3081C122.083 40.6949 122.083 41.3051 121.712 41.6919L115.472 48.2031C114.848 48.8538 113.75 48.4124 113.75 47.5112L113.75 45C113.75 44.4477 113.302 44 112.75 44L104 44Z" fill="white"/>
</g>
<defs>
<clipPath id="clip0_1485_801">
<rect width="208" height="80" rx="1" fill="white"/>
</clipPath>
</defs>
</svg>
