<svg width="306" height="383" viewBox="0 0 306 383" fill="none" xmlns="http://www.w3.org/2000/svg">
<g filter="url(#filter0_d)">
<rect x="25" y="18" width="256" height="333" rx="3" fill="white"/>
<rect width="208" height="80" transform="translate(49 42)" fill="white"/>
<rect x="49.5" y="42.5" width="167" height="79" rx="1.5" fill="#F5F5F5" stroke="#CCCCCC"/>
<rect x="124.5" y="66.5" width="119" height="31" fill="white" stroke="#444444"/>
<path d="M134.228 76.5781L133.908 80.7031H132.369L132.049 76.5781H134.228ZM137.525 76.5781L137.205 80.7031H135.666L135.346 76.5781H137.525ZM149.049 88H146.635V83.0703H142.112V88H139.69V76.5781H142.112V81.0547H146.635V76.5781H149.049V88ZM155.049 80.7969C154.544 80.7969 154.148 80.9583 153.862 81.2812C153.575 81.599 153.411 82.0521 153.37 82.6406H156.713C156.703 82.0521 156.549 81.599 156.253 81.2812C155.956 80.9583 155.555 80.7969 155.049 80.7969ZM155.385 88.1562C153.979 88.1562 152.88 87.7682 152.088 86.9922C151.297 86.2161 150.901 85.1172 150.901 83.6953C150.901 82.2318 151.266 81.1016 151.995 80.3047C152.729 79.5026 153.742 79.1016 155.034 79.1016C156.268 79.1016 157.229 79.4531 157.917 80.1562C158.604 80.8594 158.948 81.8307 158.948 83.0703V84.2266H153.315C153.341 84.9036 153.542 85.4323 153.917 85.8125C154.292 86.1927 154.818 86.3828 155.495 86.3828C156.021 86.3828 156.518 86.3281 156.987 86.2188C157.456 86.1094 157.945 85.9349 158.456 85.6953V87.5391C158.039 87.7474 157.594 87.901 157.12 88C156.646 88.1042 156.068 88.1562 155.385 88.1562ZM162.948 88H160.565V75.8438H162.948V88ZM167.519 88H165.136V75.8438H167.519V88ZM171.605 83.6172C171.605 84.4818 171.746 85.1354 172.027 85.5781C172.313 86.0208 172.777 86.2422 173.418 86.2422C174.053 86.2422 174.509 86.0234 174.785 85.5859C175.066 85.1432 175.207 84.487 175.207 83.6172C175.207 82.7526 175.066 82.1042 174.785 81.6719C174.503 81.2396 174.043 81.0234 173.402 81.0234C172.766 81.0234 172.308 81.2396 172.027 81.6719C171.746 82.099 171.605 82.7474 171.605 83.6172ZM177.644 83.6172C177.644 85.0391 177.269 86.151 176.519 86.9531C175.769 87.7552 174.725 88.1562 173.386 88.1562C172.548 88.1562 171.808 87.974 171.168 87.6094C170.527 87.2396 170.035 86.7109 169.691 86.0234C169.347 85.3359 169.175 84.5339 169.175 83.6172C169.175 82.1901 169.548 81.0807 170.293 80.2891C171.037 79.4974 172.084 79.1016 173.433 79.1016C174.272 79.1016 175.011 79.2839 175.652 79.6484C176.293 80.013 176.785 80.5365 177.128 81.2188C177.472 81.901 177.644 82.7005 177.644 83.6172ZM190.309 88L189.637 84.9453L188.731 81.0859H188.676L187.082 88H184.52L182.035 79.2656H184.41L185.418 83.1328C185.58 83.8255 185.744 84.7812 185.91 86H185.957C185.978 85.6042 186.069 84.9766 186.231 84.1172L186.356 83.4531L187.434 79.2656H190.059L191.082 83.4531C191.103 83.5677 191.134 83.737 191.176 83.9609C191.223 84.1849 191.267 84.4245 191.309 84.6797C191.35 84.9297 191.387 85.1771 191.418 85.4219C191.455 85.6615 191.475 85.8542 191.481 86H191.528C191.574 85.625 191.658 85.112 191.778 84.4609C191.897 83.8047 191.983 83.362 192.035 83.1328L193.082 79.2656H195.418L192.903 88H190.309ZM198.411 83.6172C198.411 84.4818 198.551 85.1354 198.833 85.5781C199.119 86.0208 199.583 86.2422 200.223 86.2422C200.859 86.2422 201.314 86.0234 201.59 85.5859C201.872 85.1432 202.012 84.487 202.012 83.6172C202.012 82.7526 201.872 82.1042 201.59 81.6719C201.309 81.2396 200.848 81.0234 200.208 81.0234C199.572 81.0234 199.114 81.2396 198.833 81.6719C198.551 82.099 198.411 82.7474 198.411 83.6172ZM204.45 83.6172C204.45 85.0391 204.075 86.151 203.325 86.9531C202.575 87.7552 201.53 88.1562 200.192 88.1562C199.353 88.1562 198.614 87.974 197.973 87.6094C197.333 87.2396 196.84 86.7109 196.497 86.0234C196.153 85.3359 195.981 84.5339 195.981 83.6172C195.981 82.1901 196.353 81.0807 197.098 80.2891C197.843 79.4974 198.89 79.1016 200.239 79.1016C201.077 79.1016 201.817 79.2839 202.458 79.6484C203.098 80.013 203.59 80.5365 203.934 81.2188C204.278 81.901 204.45 82.7005 204.45 83.6172ZM210.973 79.1016C211.296 79.1016 211.565 79.125 211.778 79.1719L211.598 81.4062C211.406 81.3542 211.171 81.3281 210.895 81.3281C210.135 81.3281 209.541 81.5234 209.114 81.9141C208.692 82.3047 208.481 82.8516 208.481 83.5547V88H206.098V79.2656H207.903L208.255 80.7344H208.372C208.643 80.2448 209.007 79.8516 209.466 79.5547C209.929 79.2526 210.432 79.1016 210.973 79.1016ZM215.427 88H213.044V75.8438H215.427V88ZM220.38 88.1562C219.354 88.1562 218.547 87.7578 217.958 86.9609C217.375 86.1641 217.083 85.0599 217.083 83.6484C217.083 82.2161 217.38 81.1016 217.974 80.3047C218.573 79.5026 219.396 79.1016 220.443 79.1016C221.542 79.1016 222.38 79.5286 222.958 80.3828H223.037C222.917 79.7318 222.857 79.151 222.857 78.6406V75.8438H225.248V88H223.419L222.958 86.8672H222.857C222.315 87.7266 221.49 88.1562 220.38 88.1562ZM221.216 86.2578C221.826 86.2578 222.271 86.0807 222.552 85.7266C222.839 85.3724 222.995 84.7708 223.021 83.9219V83.6641C223.021 82.7266 222.875 82.0547 222.583 81.6484C222.297 81.2422 221.828 81.0391 221.177 81.0391C220.646 81.0391 220.232 81.2656 219.935 81.7188C219.643 82.1667 219.498 82.8203 219.498 83.6797C219.498 84.5391 219.646 85.1849 219.943 85.6172C220.24 86.0443 220.664 86.2578 221.216 86.2578ZM229.42 84.2109H227.513L227.115 76.5781H229.818L229.42 84.2109ZM227.084 86.8828C227.084 86.4453 227.201 86.1146 227.435 85.8906C227.67 85.6667 228.011 85.5547 228.459 85.5547C228.891 85.5547 229.224 85.6693 229.459 85.8984C229.698 86.1276 229.818 86.4557 229.818 86.8828C229.818 87.2943 229.698 87.6198 229.459 87.8594C229.219 88.0938 228.886 88.2109 228.459 88.2109C228.021 88.2109 227.683 88.0964 227.443 87.8672C227.204 87.6328 227.084 87.3047 227.084 86.8828ZM233.647 76.5781L233.326 80.7031H231.787L231.467 76.5781H233.647ZM236.943 76.5781L236.623 80.7031H235.084L234.764 76.5781H236.943Z" fill="url(#paint0_linear)"/>
<circle cx="124.5" cy="66.5" r="1.5" fill="#444444"/>
<circle cx="124.5" cy="97.5" r="1.5" fill="#444444"/>
<circle cx="243.5" cy="66.5" r="1.5" fill="#444444"/>
<circle cx="243.5" cy="97.5" r="1.5" fill="#444444"/>
<path d="M67.376 88L66.6514 85.6211H63.0078L62.2832 88H60L63.5273 77.9648H66.1182L69.6592 88H67.376ZM66.1455 83.8438C65.4756 81.6882 65.0973 80.4691 65.0107 80.1865C64.9287 79.904 64.8695 79.6807 64.833 79.5166C64.6826 80.0999 64.252 81.5423 63.541 83.8438H66.1455ZM73.1797 88.1367C72.2819 88.1367 71.5755 87.7881 71.0605 87.0908C70.5501 86.3936 70.2949 85.4274 70.2949 84.1924C70.2949 82.9391 70.5547 81.9639 71.0742 81.2666C71.5983 80.5648 72.3184 80.2139 73.2344 80.2139C74.196 80.2139 74.9297 80.5876 75.4355 81.335H75.5039C75.3991 80.7653 75.3467 80.2572 75.3467 79.8105V77.3633H77.4385V88H75.8389L75.4355 87.0088H75.3467C74.8727 87.7607 74.1504 88.1367 73.1797 88.1367ZM73.9111 86.4756C74.4443 86.4756 74.834 86.3206 75.0801 86.0107C75.3307 85.7008 75.4674 85.1745 75.4902 84.4316V84.2061C75.4902 83.3857 75.3626 82.7979 75.1074 82.4424C74.8568 82.0869 74.4466 81.9092 73.877 81.9092C73.4121 81.9092 73.0498 82.1074 72.79 82.5039C72.5348 82.8958 72.4072 83.4678 72.4072 84.2197C72.4072 84.9717 72.5371 85.5368 72.7969 85.915C73.0566 86.2887 73.4281 86.4756 73.9111 86.4756ZM82.0391 88.1367C81.1413 88.1367 80.4349 87.7881 79.9199 87.0908C79.4095 86.3936 79.1543 85.4274 79.1543 84.1924C79.1543 82.9391 79.4141 81.9639 79.9336 81.2666C80.4577 80.5648 81.1777 80.2139 82.0938 80.2139C83.0553 80.2139 83.7891 80.5876 84.2949 81.335H84.3633C84.2585 80.7653 84.2061 80.2572 84.2061 79.8105V77.3633H86.2979V88H84.6982L84.2949 87.0088H84.2061C83.7321 87.7607 83.0098 88.1367 82.0391 88.1367ZM82.7705 86.4756C83.3037 86.4756 83.6934 86.3206 83.9395 86.0107C84.1901 85.7008 84.3268 85.1745 84.3496 84.4316V84.2061C84.3496 83.3857 84.222 82.7979 83.9668 82.4424C83.7161 82.0869 83.306 81.9092 82.7363 81.9092C82.2715 81.9092 81.9092 82.1074 81.6494 82.5039C81.3942 82.8958 81.2666 83.4678 81.2666 84.2197C81.2666 84.9717 81.3965 85.5368 81.6562 85.915C81.916 86.2887 82.2874 86.4756 82.7705 86.4756ZM92.498 88H90.3789V79.7695H87.665V78.0059H95.2119V79.7695H92.498V88ZM99.751 81.6973C99.3089 81.6973 98.9626 81.8385 98.7119 82.1211C98.4613 82.3991 98.3177 82.7956 98.2812 83.3105H101.207C101.198 82.7956 101.063 82.3991 100.804 82.1211C100.544 81.8385 100.193 81.6973 99.751 81.6973ZM100.045 88.1367C98.8145 88.1367 97.8529 87.7972 97.1602 87.1182C96.4674 86.4391 96.1211 85.4775 96.1211 84.2334C96.1211 82.9528 96.4401 81.9639 97.0781 81.2666C97.7207 80.5648 98.6071 80.2139 99.7373 80.2139C100.817 80.2139 101.658 80.5215 102.26 81.1367C102.861 81.752 103.162 82.6019 103.162 83.6865V84.6982H98.2334C98.2562 85.2907 98.4316 85.7533 98.7598 86.0859C99.0879 86.4186 99.5482 86.585 100.141 86.585C100.601 86.585 101.036 86.5371 101.446 86.4414C101.856 86.3457 102.285 86.193 102.731 85.9834V87.5967C102.367 87.779 101.977 87.9134 101.562 88C101.148 88.0911 100.642 88.1367 100.045 88.1367ZM106.423 84.0967L103.962 80.3574H106.327L107.811 82.791L109.308 80.3574H111.673L109.185 84.0967L111.789 88H109.417L107.811 85.3818L106.197 88H103.832L106.423 84.0967ZM116.171 86.4756C116.535 86.4756 116.973 86.3958 117.483 86.2363V87.7881C116.964 88.0205 116.326 88.1367 115.569 88.1367C114.735 88.1367 114.127 87.9271 113.744 87.5078C113.366 87.084 113.177 86.4505 113.177 85.6074V81.9229H112.179V81.041L113.327 80.3438L113.929 78.7305H115.262V80.3574H117.401V81.9229H115.262V85.6074C115.262 85.9036 115.344 86.1224 115.508 86.2637C115.676 86.4049 115.897 86.4756 116.171 86.4756Z" fill="#808080"/>
<path d="M50.4375 171V159.578H52.8594V171H50.4375ZM63.2894 171H60.9066V165.898C60.9066 165.268 60.7946 164.797 60.5706 164.484C60.3467 164.167 59.9899 164.008 59.5003 164.008C58.8336 164.008 58.3519 164.232 58.055 164.68C57.7581 165.122 57.6097 165.859 57.6097 166.891V171H55.2269V162.266H57.0472L57.3675 163.383H57.5003C57.7659 162.961 58.1305 162.643 58.5941 162.43C59.0628 162.211 59.5941 162.102 60.1878 162.102C61.2034 162.102 61.9743 162.378 62.5003 162.93C63.0264 163.477 63.2894 164.268 63.2894 165.305V171ZM71.5162 168.406C71.5162 169.302 71.2037 169.984 70.5787 170.453C69.959 170.922 69.0293 171.156 67.7897 171.156C67.1543 171.156 66.6126 171.112 66.1647 171.023C65.7168 170.94 65.2975 170.815 64.9069 170.648V168.68C65.3496 168.888 65.847 169.062 66.3991 169.203C66.9564 169.344 67.4459 169.414 67.8678 169.414C68.7324 169.414 69.1647 169.164 69.1647 168.664C69.1647 168.477 69.1074 168.326 68.9928 168.211C68.8782 168.091 68.6803 167.958 68.3991 167.812C68.1178 167.661 67.7428 167.487 67.2741 167.289C66.6022 167.008 66.1074 166.747 65.7897 166.508C65.4772 166.268 65.248 165.995 65.1022 165.688C64.9616 165.375 64.8912 164.992 64.8912 164.539C64.8912 163.763 65.1907 163.164 65.7897 162.742C66.3939 162.315 67.248 162.102 68.3522 162.102C69.4043 162.102 70.4277 162.331 71.4225 162.789L70.7037 164.508C70.2662 164.32 69.8574 164.167 69.4772 164.047C69.097 163.927 68.709 163.867 68.3131 163.867C67.61 163.867 67.2584 164.057 67.2584 164.438C67.2584 164.651 67.3704 164.836 67.5944 164.992C67.8235 165.148 68.3209 165.38 69.0866 165.688C69.7689 165.964 70.2689 166.221 70.5866 166.461C70.9043 166.701 71.1386 166.977 71.2897 167.289C71.4407 167.602 71.5162 167.974 71.5162 168.406ZM76.6728 163.797C76.1676 163.797 75.7718 163.958 75.4853 164.281C75.1989 164.599 75.0348 165.052 74.9931 165.641H78.3369C78.3265 165.052 78.1728 164.599 77.8759 164.281C77.5791 163.958 77.178 163.797 76.6728 163.797ZM77.0088 171.156C75.6025 171.156 74.5035 170.768 73.7119 169.992C72.9202 169.216 72.5244 168.117 72.5244 166.695C72.5244 165.232 72.889 164.102 73.6181 163.305C74.3525 162.503 75.3655 162.102 76.6572 162.102C77.8916 162.102 78.8525 162.453 79.54 163.156C80.2275 163.859 80.5713 164.831 80.5713 166.07V167.227H74.9384C74.9645 167.904 75.165 168.432 75.54 168.812C75.915 169.193 76.441 169.383 77.1181 169.383C77.6442 169.383 78.1416 169.328 78.6103 169.219C79.0791 169.109 79.5686 168.935 80.0791 168.695V170.539C79.6624 170.747 79.2171 170.901 78.7431 171C78.2692 171.104 77.691 171.156 77.0088 171.156ZM87.0637 162.102C87.3867 162.102 87.6549 162.125 87.8684 162.172L87.6887 164.406C87.496 164.354 87.2617 164.328 86.9856 164.328C86.2252 164.328 85.6315 164.523 85.2044 164.914C84.7825 165.305 84.5716 165.852 84.5716 166.555V171H82.1887V162.266H83.9934L84.345 163.734H84.4622C84.733 163.245 85.0976 162.852 85.5559 162.555C86.0195 162.253 86.5221 162.102 87.0637 162.102ZM92.8141 169.258C93.2307 169.258 93.7307 169.167 94.3141 168.984V170.758C93.7203 171.023 92.9911 171.156 92.1266 171.156C91.1734 171.156 90.4781 170.917 90.0406 170.438C89.6083 169.953 89.3922 169.229 89.3922 168.266V164.055H88.2516V163.047L89.5641 162.25L90.2516 160.406H91.775V162.266H94.2203V164.055H91.775V168.266C91.775 168.604 91.8688 168.854 92.0563 169.016C92.249 169.177 92.5016 169.258 92.8141 169.258ZM103.283 169.258C103.7 169.258 104.2 169.167 104.783 168.984V170.758C104.19 171.023 103.461 171.156 102.596 171.156C101.643 171.156 100.947 170.917 100.51 170.438C100.078 169.953 99.8616 169.229 99.8616 168.266V164.055H98.7209V163.047L100.033 162.25L100.721 160.406H102.244V162.266H104.69V164.055H102.244V168.266C102.244 168.604 102.338 168.854 102.526 169.016C102.718 169.177 102.971 169.258 103.283 169.258ZM109.854 163.797C109.349 163.797 108.953 163.958 108.667 164.281C108.38 164.599 108.216 165.052 108.174 165.641H111.518C111.508 165.052 111.354 164.599 111.057 164.281C110.76 163.958 110.359 163.797 109.854 163.797ZM110.19 171.156C108.784 171.156 107.685 170.768 106.893 169.992C106.101 169.216 105.706 168.117 105.706 166.695C105.706 165.232 106.07 164.102 106.799 163.305C107.534 162.503 108.547 162.102 109.838 162.102C111.073 162.102 112.034 162.453 112.721 163.156C113.409 163.859 113.752 164.831 113.752 166.07V167.227H108.12C108.146 167.904 108.346 168.432 108.721 168.812C109.096 169.193 109.622 169.383 110.299 169.383C110.825 169.383 111.323 169.328 111.792 169.219C112.26 169.109 112.75 168.935 113.26 168.695V170.539C112.844 170.747 112.398 170.901 111.924 171C111.45 171.104 110.872 171.156 110.19 171.156ZM117.159 166.539L114.347 162.266H117.05L118.745 165.047L120.456 162.266H123.159L120.315 166.539L123.292 171H120.581L118.745 168.008L116.901 171H114.198L117.159 166.539ZM127.98 169.258C128.396 169.258 128.896 169.167 129.48 168.984V170.758C128.886 171.023 128.157 171.156 127.292 171.156C126.339 171.156 125.644 170.917 125.206 170.438C124.774 169.953 124.558 169.229 124.558 168.266V164.055H123.417V163.047L124.73 162.25L125.417 160.406H126.941V162.266H129.386V164.055H126.941V168.266C126.941 168.604 127.034 168.854 127.222 169.016C127.415 169.177 127.667 169.258 127.98 169.258Z" fill="#333333"/>
<path d="M50.374 203V193.006H51.5361V203H50.374ZM59.2402 203V198.153C59.2402 197.543 59.1012 197.087 58.8232 196.786C58.5452 196.485 58.11 196.335 57.5176 196.335C56.7337 196.335 56.1595 196.547 55.7949 196.971C55.4303 197.395 55.248 198.094 55.248 199.069V203H54.1133V195.508H55.0361L55.2207 196.533H55.2754C55.5078 196.164 55.8337 195.879 56.2529 195.679C56.6722 195.474 57.1393 195.371 57.6543 195.371C58.5566 195.371 59.2357 195.59 59.6914 196.027C60.1471 196.46 60.375 197.155 60.375 198.112V203H59.2402ZM68.7695 202.2C68.9701 202.2 69.1637 202.187 69.3506 202.159C69.5374 202.127 69.6855 202.095 69.7949 202.063V202.932C69.6719 202.991 69.4896 203.039 69.248 203.075C69.0111 203.116 68.7969 203.137 68.6055 203.137C67.1562 203.137 66.4316 202.373 66.4316 200.847V196.39H65.3584V195.843L66.4316 195.371L66.9102 193.771H67.5664V195.508H69.7402V196.39H67.5664V200.799C67.5664 201.25 67.6735 201.596 67.8877 201.838C68.1019 202.079 68.3958 202.2 68.7695 202.2ZM76.4258 203V198.153C76.4258 197.543 76.2868 197.087 76.0088 196.786C75.7308 196.485 75.2956 196.335 74.7031 196.335C73.9147 196.335 73.3382 196.549 72.9736 196.978C72.6136 197.406 72.4336 198.108 72.4336 199.083V203H71.2988V192.363H72.4336V195.583C72.4336 195.97 72.4154 196.292 72.3789 196.547H72.4473C72.6706 196.187 72.9873 195.904 73.3975 195.699C73.8122 195.49 74.2839 195.385 74.8125 195.385C75.7285 195.385 76.4144 195.604 76.8701 196.041C77.3304 196.474 77.5605 197.164 77.5605 198.112V203H76.4258ZM81.0332 203H79.8984V195.508H81.0332V203ZM79.8027 193.478C79.8027 193.218 79.8665 193.029 79.9941 192.91C80.1217 192.787 80.2812 192.726 80.4727 192.726C80.6549 192.726 80.8122 192.787 80.9443 192.91C81.0765 193.033 81.1426 193.222 81.1426 193.478C81.1426 193.733 81.0765 193.924 80.9443 194.052C80.8122 194.175 80.6549 194.236 80.4727 194.236C80.2812 194.236 80.1217 194.175 79.9941 194.052C79.8665 193.924 79.8027 193.733 79.8027 193.478ZM88.2725 200.956C88.2725 201.653 88.0127 202.191 87.4932 202.569C86.9736 202.948 86.2445 203.137 85.3057 203.137C84.3122 203.137 83.5374 202.979 82.9814 202.665V201.612C83.3415 201.795 83.7266 201.938 84.1367 202.043C84.5514 202.148 84.9502 202.2 85.333 202.2C85.9255 202.2 86.3812 202.107 86.7002 201.92C87.0192 201.729 87.1787 201.439 87.1787 201.052C87.1787 200.76 87.0511 200.512 86.7959 200.307C86.5452 200.097 86.0531 199.851 85.3193 199.568C84.6221 199.309 84.1253 199.083 83.8291 198.892C83.5374 198.696 83.3187 198.475 83.1729 198.229C83.0316 197.982 82.9609 197.688 82.9609 197.347C82.9609 196.736 83.2093 196.255 83.7061 195.904C84.2028 195.549 84.8841 195.371 85.75 195.371C86.5566 195.371 87.3451 195.535 88.1152 195.863L87.7119 196.786C86.96 196.476 86.2786 196.321 85.668 196.321C85.1302 196.321 84.7246 196.406 84.4512 196.574C84.1777 196.743 84.041 196.975 84.041 197.271C84.041 197.472 84.0911 197.643 84.1914 197.784C84.2962 197.925 84.4626 198.06 84.6904 198.188C84.9183 198.315 85.3558 198.5 86.0029 198.741C86.8916 199.065 87.4909 199.391 87.8008 199.719C88.1152 200.047 88.2725 200.459 88.2725 200.956ZM96.9268 203.137C95.8193 203.137 94.9443 202.799 94.3018 202.125C93.6637 201.451 93.3447 200.514 93.3447 199.315C93.3447 198.108 93.641 197.148 94.2334 196.438C94.8304 195.727 95.6302 195.371 96.6328 195.371C97.5716 195.371 98.3145 195.681 98.8613 196.301C99.4082 196.916 99.6816 197.729 99.6816 198.741V199.459H94.5205C94.5433 200.339 94.7643 201.006 95.1836 201.462C95.6074 201.918 96.2021 202.146 96.9678 202.146C97.7744 202.146 98.5719 201.977 99.3604 201.64V202.651C98.9593 202.825 98.5788 202.948 98.2188 203.021C97.8633 203.098 97.4326 203.137 96.9268 203.137ZM96.6191 196.321C96.0176 196.321 95.5368 196.517 95.1768 196.909C94.8213 197.301 94.6117 197.843 94.5479 198.536H98.4648C98.4648 197.821 98.3053 197.274 97.9863 196.896C97.6673 196.513 97.2116 196.321 96.6191 196.321ZM103.428 199.165L100.823 195.508H102.115L104.091 198.379L106.06 195.508H107.338L104.733 199.165L107.475 203H106.189L104.091 199.965L101.972 203H100.687L103.428 199.165ZM113.572 203L113.347 201.934H113.292C112.918 202.403 112.545 202.722 112.171 202.891C111.802 203.055 111.339 203.137 110.783 203.137C110.04 203.137 109.457 202.945 109.033 202.562C108.614 202.18 108.404 201.635 108.404 200.929C108.404 199.416 109.614 198.623 112.034 198.55L113.306 198.509V198.044C113.306 197.456 113.178 197.023 112.923 196.745C112.672 196.463 112.269 196.321 111.713 196.321C111.089 196.321 110.382 196.513 109.594 196.896L109.245 196.027C109.614 195.827 110.018 195.67 110.455 195.556C110.897 195.442 111.339 195.385 111.781 195.385C112.674 195.385 113.335 195.583 113.764 195.979C114.197 196.376 114.413 197.012 114.413 197.887V203H113.572ZM111.009 202.2C111.715 202.2 112.269 202.007 112.67 201.619C113.076 201.232 113.278 200.689 113.278 199.992V199.315L112.144 199.363C111.241 199.395 110.59 199.536 110.188 199.787C109.792 200.033 109.594 200.418 109.594 200.942C109.594 201.353 109.717 201.665 109.963 201.879C110.214 202.093 110.562 202.2 111.009 202.2ZM126.308 203V198.126C126.308 197.529 126.18 197.082 125.925 196.786C125.67 196.485 125.273 196.335 124.735 196.335C124.029 196.335 123.507 196.538 123.17 196.943C122.833 197.349 122.664 197.973 122.664 198.816V203H121.529V198.126C121.529 197.529 121.402 197.082 121.146 196.786C120.891 196.485 120.493 196.335 119.95 196.335C119.239 196.335 118.717 196.549 118.385 196.978C118.057 197.401 117.893 198.099 117.893 199.069V203H116.758V195.508H117.681L117.865 196.533H117.92C118.134 196.169 118.435 195.884 118.822 195.679C119.214 195.474 119.652 195.371 120.135 195.371C121.306 195.371 122.072 195.795 122.432 196.643H122.486C122.71 196.251 123.033 195.941 123.457 195.713C123.881 195.485 124.364 195.371 124.906 195.371C125.754 195.371 126.387 195.59 126.807 196.027C127.23 196.46 127.442 197.155 127.442 198.112V203H126.308ZM133.273 203.137C132.786 203.137 132.339 203.048 131.934 202.87C131.533 202.688 131.195 202.41 130.922 202.036H130.84C130.895 202.474 130.922 202.888 130.922 203.28V206.363H129.787V195.508H130.71L130.867 196.533H130.922C131.214 196.123 131.553 195.827 131.94 195.645C132.328 195.462 132.772 195.371 133.273 195.371C134.267 195.371 135.033 195.711 135.57 196.39C136.113 197.069 136.384 198.021 136.384 199.247C136.384 200.478 136.108 201.435 135.557 202.118C135.01 202.797 134.249 203.137 133.273 203.137ZM133.109 196.335C132.344 196.335 131.79 196.547 131.448 196.971C131.106 197.395 130.931 198.069 130.922 198.994V199.247C130.922 200.3 131.097 201.054 131.448 201.51C131.799 201.961 132.362 202.187 133.137 202.187C133.784 202.187 134.29 201.924 134.654 201.4C135.023 200.876 135.208 200.154 135.208 199.233C135.208 198.299 135.023 197.584 134.654 197.087C134.29 196.586 133.775 196.335 133.109 196.335ZM139.508 203H138.373V192.363H139.508V203ZM145.079 203.137C143.972 203.137 143.097 202.799 142.454 202.125C141.816 201.451 141.497 200.514 141.497 199.315C141.497 198.108 141.793 197.148 142.386 196.438C142.983 195.727 143.783 195.371 144.785 195.371C145.724 195.371 146.467 195.681 147.014 196.301C147.561 196.916 147.834 197.729 147.834 198.741V199.459H142.673C142.696 200.339 142.917 201.006 143.336 201.462C143.76 201.918 144.354 202.146 145.12 202.146C145.927 202.146 146.724 201.977 147.513 201.64V202.651C147.112 202.825 146.731 202.948 146.371 203.021C146.016 203.098 145.585 203.137 145.079 203.137ZM144.771 196.321C144.17 196.321 143.689 196.517 143.329 196.909C142.974 197.301 142.764 197.843 142.7 198.536H146.617C146.617 197.821 146.458 197.274 146.139 196.896C145.82 196.513 145.364 196.321 144.771 196.321ZM159.53 203L158.156 198.604C158.07 198.336 157.908 197.725 157.671 196.772H157.616C157.434 197.57 157.274 198.185 157.138 198.618L155.723 203H154.41L152.366 195.508H153.556C154.039 197.39 154.406 198.823 154.656 199.808C154.911 200.792 155.057 201.455 155.094 201.797H155.148C155.199 201.537 155.278 201.202 155.388 200.792C155.502 200.377 155.6 200.049 155.682 199.808L157.056 195.508H158.286L159.626 199.808C159.881 200.591 160.054 201.25 160.146 201.783H160.2C160.218 201.619 160.266 201.366 160.344 201.024C160.426 200.683 160.902 198.844 161.772 195.508H162.948L160.877 203H159.53ZM167.474 203.137C166.366 203.137 165.491 202.799 164.849 202.125C164.211 201.451 163.892 200.514 163.892 199.315C163.892 198.108 164.188 197.148 164.78 196.438C165.377 195.727 166.177 195.371 167.18 195.371C168.118 195.371 168.861 195.681 169.408 196.301C169.955 196.916 170.229 197.729 170.229 198.741V199.459H165.067C165.09 200.339 165.311 201.006 165.73 201.462C166.154 201.918 166.749 202.146 167.515 202.146C168.321 202.146 169.119 201.977 169.907 201.64V202.651C169.506 202.825 169.126 202.948 168.766 203.021C168.41 203.098 167.979 203.137 167.474 203.137ZM167.166 196.321C166.564 196.321 166.084 196.517 165.724 196.909C165.368 197.301 165.159 197.843 165.095 198.536H169.012C169.012 197.821 168.852 197.274 168.533 196.896C168.214 196.513 167.758 196.321 167.166 196.321ZM180.414 203L180.188 201.934H180.134C179.76 202.403 179.386 202.722 179.013 202.891C178.644 203.055 178.181 203.137 177.625 203.137C176.882 203.137 176.299 202.945 175.875 202.562C175.456 202.18 175.246 201.635 175.246 200.929C175.246 199.416 176.456 198.623 178.876 198.55L180.147 198.509V198.044C180.147 197.456 180.02 197.023 179.765 196.745C179.514 196.463 179.111 196.321 178.555 196.321C177.93 196.321 177.224 196.513 176.436 196.896L176.087 196.027C176.456 195.827 176.859 195.67 177.297 195.556C177.739 195.442 178.181 195.385 178.623 195.385C179.516 195.385 180.177 195.583 180.605 195.979C181.038 196.376 181.255 197.012 181.255 197.887V203H180.414ZM177.851 202.2C178.557 202.2 179.111 202.007 179.512 201.619C179.917 201.232 180.12 200.689 180.12 199.992V199.315L178.985 199.363C178.083 199.395 177.431 199.536 177.03 199.787C176.634 200.033 176.436 200.418 176.436 200.942C176.436 201.353 176.559 201.665 176.805 201.879C177.055 202.093 177.404 202.2 177.851 202.2ZM187.018 195.371C187.35 195.371 187.649 195.398 187.913 195.453L187.756 196.506C187.446 196.438 187.173 196.403 186.936 196.403C186.329 196.403 185.81 196.649 185.377 197.142C184.949 197.634 184.734 198.247 184.734 198.98V203H183.6V195.508H184.536L184.666 196.896H184.721C184.999 196.408 185.334 196.032 185.726 195.768C186.118 195.503 186.548 195.371 187.018 195.371ZM192.479 203.137C191.372 203.137 190.497 202.799 189.854 202.125C189.216 201.451 188.897 200.514 188.897 199.315C188.897 198.108 189.194 197.148 189.786 196.438C190.383 195.727 191.183 195.371 192.186 195.371C193.124 195.371 193.867 195.681 194.414 196.301C194.961 196.916 195.234 197.729 195.234 198.741V199.459H190.073C190.096 200.339 190.317 201.006 190.736 201.462C191.16 201.918 191.755 202.146 192.521 202.146C193.327 202.146 194.125 201.977 194.913 201.64V202.651C194.512 202.825 194.132 202.948 193.771 203.021C193.416 203.098 192.985 203.137 192.479 203.137ZM192.172 196.321C191.57 196.321 191.09 196.517 190.729 196.909C190.374 197.301 190.164 197.843 190.101 198.536H194.018C194.018 197.821 193.858 197.274 193.539 196.896C193.22 196.513 192.764 196.321 192.172 196.321ZM50.374 225V215.006H51.5361V225H50.374ZM59.2402 225V220.153C59.2402 219.543 59.1012 219.087 58.8232 218.786C58.5452 218.485 58.11 218.335 57.5176 218.335C56.7337 218.335 56.1595 218.547 55.7949 218.971C55.4303 219.395 55.248 220.094 55.248 221.069V225H54.1133V217.508H55.0361L55.2207 218.533H55.2754C55.5078 218.164 55.8337 217.879 56.2529 217.679C56.6722 217.474 57.1393 217.371 57.6543 217.371C58.5566 217.371 59.2357 217.59 59.6914 218.027C60.1471 218.46 60.375 219.155 60.375 220.112V225H59.2402ZM67.5459 222.956C67.5459 223.653 67.2861 224.191 66.7666 224.569C66.2471 224.948 65.5179 225.137 64.5791 225.137C63.5856 225.137 62.8109 224.979 62.2549 224.665V223.612C62.6149 223.795 63 223.938 63.4102 224.043C63.8249 224.148 64.2236 224.2 64.6064 224.2C65.1989 224.2 65.6546 224.107 65.9736 223.92C66.2926 223.729 66.4521 223.439 66.4521 223.052C66.4521 222.76 66.3245 222.512 66.0693 222.307C65.8187 222.097 65.3265 221.851 64.5928 221.568C63.8955 221.309 63.3988 221.083 63.1025 220.892C62.8109 220.696 62.5921 220.475 62.4463 220.229C62.305 219.982 62.2344 219.688 62.2344 219.347C62.2344 218.736 62.4827 218.255 62.9795 217.904C63.4762 217.549 64.1576 217.371 65.0234 217.371C65.8301 217.371 66.6185 217.535 67.3887 217.863L66.9854 218.786C66.2334 218.476 65.5521 218.321 64.9414 218.321C64.4036 218.321 63.998 218.406 63.7246 218.574C63.4512 218.743 63.3145 218.975 63.3145 219.271C63.3145 219.472 63.3646 219.643 63.4648 219.784C63.5697 219.925 63.736 220.06 63.9639 220.188C64.1917 220.315 64.6292 220.5 65.2764 220.741C66.165 221.065 66.7643 221.391 67.0742 221.719C67.3887 222.047 67.5459 222.459 67.5459 222.956ZM72.5635 225.137C71.4561 225.137 70.5811 224.799 69.9385 224.125C69.3005 223.451 68.9814 222.514 68.9814 221.315C68.9814 220.108 69.2777 219.148 69.8701 218.438C70.4671 217.727 71.2669 217.371 72.2695 217.371C73.2083 217.371 73.9512 217.681 74.498 218.301C75.0449 218.916 75.3184 219.729 75.3184 220.741V221.459H70.1572C70.18 222.339 70.401 223.006 70.8203 223.462C71.2441 223.918 71.8389 224.146 72.6045 224.146C73.4111 224.146 74.2087 223.977 74.9971 223.64V224.651C74.596 224.825 74.2155 224.948 73.8555 225.021C73.5 225.098 73.0693 225.137 72.5635 225.137ZM72.2559 218.321C71.6543 218.321 71.1735 218.517 70.8135 218.909C70.458 219.301 70.2484 219.843 70.1846 220.536H74.1016C74.1016 219.821 73.9421 219.274 73.623 218.896C73.304 218.513 72.8483 218.321 72.2559 218.321ZM80.6777 217.371C81.0104 217.371 81.3089 217.398 81.5732 217.453L81.416 218.506C81.1061 218.438 80.8327 218.403 80.5957 218.403C79.9896 218.403 79.4701 218.649 79.0371 219.142C78.6087 219.634 78.3945 220.247 78.3945 220.98V225H77.2598V217.508H78.1963L78.3262 218.896H78.3809C78.6589 218.408 78.9938 218.032 79.3857 217.768C79.7777 217.503 80.2083 217.371 80.6777 217.371ZM85.3945 224.2C85.5951 224.2 85.7887 224.187 85.9756 224.159C86.1624 224.127 86.3105 224.095 86.4199 224.063V224.932C86.2969 224.991 86.1146 225.039 85.873 225.075C85.6361 225.116 85.4219 225.137 85.2305 225.137C83.7812 225.137 83.0566 224.373 83.0566 222.847V218.39H81.9834V217.843L83.0566 217.371L83.5352 215.771H84.1914V217.508H86.3652V218.39H84.1914V222.799C84.1914 223.25 84.2985 223.596 84.5127 223.838C84.7269 224.079 85.0208 224.2 85.3945 224.2ZM89.0586 225H87.9238V217.508H89.0586V225ZM87.8281 215.478C87.8281 215.218 87.8919 215.029 88.0195 214.91C88.1471 214.787 88.3066 214.726 88.498 214.726C88.6803 214.726 88.8376 214.787 88.9697 214.91C89.1019 215.033 89.168 215.222 89.168 215.478C89.168 215.733 89.1019 215.924 88.9697 216.052C88.8376 216.175 88.6803 216.236 88.498 216.236C88.3066 216.236 88.1471 216.175 88.0195 216.052C87.8919 215.924 87.8281 215.733 87.8281 215.478ZM96.5918 225V220.153C96.5918 219.543 96.4528 219.087 96.1748 218.786C95.8968 218.485 95.4616 218.335 94.8691 218.335C94.0853 218.335 93.5111 218.547 93.1465 218.971C92.7819 219.395 92.5996 220.094 92.5996 221.069V225H91.4648V217.508H92.3877L92.5723 218.533H92.627C92.8594 218.164 93.1852 217.879 93.6045 217.679C94.0238 217.474 94.4909 217.371 95.0059 217.371C95.9082 217.371 96.5872 217.59 97.043 218.027C97.4987 218.46 97.7266 219.155 97.7266 220.112V225H96.5918ZM106.196 217.508V218.226L104.809 218.39C104.936 218.549 105.05 218.759 105.15 219.019C105.251 219.274 105.301 219.563 105.301 219.887C105.301 220.62 105.05 221.206 104.549 221.644C104.048 222.081 103.359 222.3 102.484 222.3C102.261 222.3 102.051 222.282 101.855 222.245C101.372 222.5 101.131 222.822 101.131 223.209C101.131 223.414 101.215 223.567 101.384 223.667C101.552 223.763 101.842 223.811 102.252 223.811H103.578C104.389 223.811 105.011 223.981 105.444 224.323C105.882 224.665 106.101 225.162 106.101 225.813C106.101 226.643 105.768 227.274 105.103 227.707C104.437 228.145 103.466 228.363 102.19 228.363C101.211 228.363 100.454 228.181 99.9209 227.816C99.3923 227.452 99.1279 226.937 99.1279 226.271C99.1279 225.816 99.2738 225.422 99.5654 225.089C99.8571 224.756 100.267 224.531 100.796 224.412C100.604 224.326 100.443 224.191 100.311 224.009C100.183 223.826 100.119 223.615 100.119 223.373C100.119 223.1 100.192 222.86 100.338 222.655C100.484 222.45 100.714 222.252 101.028 222.061C100.641 221.901 100.324 221.63 100.078 221.247C99.8366 220.864 99.7158 220.427 99.7158 219.935C99.7158 219.114 99.9619 218.483 100.454 218.041C100.946 217.594 101.644 217.371 102.546 217.371C102.938 217.371 103.291 217.417 103.605 217.508H106.196ZM100.222 226.258C100.222 226.663 100.393 226.971 100.734 227.181C101.076 227.39 101.566 227.495 102.204 227.495C103.157 227.495 103.861 227.352 104.316 227.064C104.777 226.782 105.007 226.397 105.007 225.909C105.007 225.504 104.882 225.221 104.631 225.062C104.38 224.907 103.909 224.829 103.216 224.829H101.855C101.34 224.829 100.939 224.952 100.652 225.198C100.365 225.444 100.222 225.798 100.222 226.258ZM100.837 219.907C100.837 220.431 100.985 220.828 101.281 221.097C101.577 221.366 101.99 221.5 102.519 221.5C103.626 221.5 104.18 220.962 104.18 219.887C104.18 218.761 103.619 218.198 102.498 218.198C101.965 218.198 101.555 218.342 101.268 218.629C100.98 218.916 100.837 219.342 100.837 219.907ZM113.791 224.2C113.992 224.2 114.185 224.187 114.372 224.159C114.559 224.127 114.707 224.095 114.816 224.063V224.932C114.693 224.991 114.511 225.039 114.27 225.075C114.033 225.116 113.818 225.137 113.627 225.137C112.178 225.137 111.453 224.373 111.453 222.847V218.39H110.38V217.843L111.453 217.371L111.932 215.771H112.588V217.508H114.762V218.39H112.588V222.799C112.588 223.25 112.695 223.596 112.909 223.838C113.123 224.079 113.417 224.2 113.791 224.2ZM119.485 225.137C118.378 225.137 117.503 224.799 116.86 224.125C116.222 223.451 115.903 222.514 115.903 221.315C115.903 220.108 116.2 219.148 116.792 218.438C117.389 217.727 118.189 217.371 119.191 217.371C120.13 217.371 120.873 217.681 121.42 218.301C121.967 218.916 122.24 219.729 122.24 220.741V221.459H117.079C117.102 222.339 117.323 223.006 117.742 223.462C118.166 223.918 118.761 224.146 119.526 224.146C120.333 224.146 121.131 223.977 121.919 223.64V224.651C121.518 224.825 121.137 224.948 120.777 225.021C120.422 225.098 119.991 225.137 119.485 225.137ZM119.178 218.321C118.576 218.321 118.095 218.517 117.735 218.909C117.38 219.301 117.17 219.843 117.106 220.536H121.023C121.023 219.821 120.864 219.274 120.545 218.896C120.226 218.513 119.77 218.321 119.178 218.321ZM125.986 221.165L123.382 217.508H124.674L126.649 220.379L128.618 217.508H129.896L127.292 221.165L130.033 225H128.748L126.649 221.965L124.53 225H123.245L125.986 221.165ZM133.943 224.2C134.144 224.2 134.338 224.187 134.524 224.159C134.711 224.127 134.859 224.095 134.969 224.063V224.932C134.846 224.991 134.663 225.039 134.422 225.075C134.185 225.116 133.971 225.137 133.779 225.137C132.33 225.137 131.605 224.373 131.605 222.847V218.39H130.532V217.843L131.605 217.371L132.084 215.771H132.74V217.508H134.914V218.39H132.74V222.799C132.74 223.25 132.847 223.596 133.062 223.838C133.276 224.079 133.57 224.2 133.943 224.2ZM141.244 225H140.109V217.508H141.244V225ZM140.014 215.478C140.014 215.218 140.077 215.029 140.205 214.91C140.333 214.787 140.492 214.726 140.684 214.726C140.866 214.726 141.023 214.787 141.155 214.91C141.287 215.033 141.354 215.222 141.354 215.478C141.354 215.733 141.287 215.924 141.155 216.052C141.023 216.175 140.866 216.236 140.684 216.236C140.492 216.236 140.333 216.175 140.205 216.052C140.077 215.924 140.014 215.733 140.014 215.478ZM148.777 225V220.153C148.777 219.543 148.638 219.087 148.36 218.786C148.082 218.485 147.647 218.335 147.055 218.335C146.271 218.335 145.697 218.547 145.332 218.971C144.967 219.395 144.785 220.094 144.785 221.069V225H143.65V217.508H144.573L144.758 218.533H144.812C145.045 218.164 145.371 217.879 145.79 217.679C146.209 217.474 146.676 217.371 147.191 217.371C148.094 217.371 148.773 217.59 149.229 218.027C149.684 218.46 149.912 219.155 149.912 220.112V225H148.777ZM154.67 224.2C154.87 224.2 155.064 224.187 155.251 224.159C155.438 224.127 155.586 224.095 155.695 224.063V224.932C155.572 224.991 155.39 225.039 155.148 225.075C154.911 225.116 154.697 225.137 154.506 225.137C153.057 225.137 152.332 224.373 152.332 222.847V218.39H151.259V217.843L152.332 217.371L152.811 215.771H153.467V217.508H155.641V218.39H153.467V222.799C153.467 223.25 153.574 223.596 153.788 223.838C154.002 224.079 154.296 224.2 154.67 224.2ZM163.666 221.247C163.666 222.468 163.358 223.423 162.743 224.111C162.128 224.795 161.278 225.137 160.193 225.137C159.523 225.137 158.929 224.979 158.409 224.665C157.89 224.351 157.489 223.899 157.206 223.312C156.924 222.724 156.782 222.035 156.782 221.247C156.782 220.026 157.088 219.076 157.698 218.396C158.309 217.713 159.157 217.371 160.241 217.371C161.289 217.371 162.121 217.72 162.736 218.417C163.356 219.114 163.666 220.058 163.666 221.247ZM157.958 221.247C157.958 222.204 158.149 222.933 158.532 223.435C158.915 223.936 159.478 224.187 160.221 224.187C160.964 224.187 161.526 223.938 161.909 223.441C162.297 222.94 162.49 222.209 162.49 221.247C162.49 220.295 162.297 219.572 161.909 219.08C161.526 218.583 160.959 218.335 160.207 218.335C159.464 218.335 158.904 218.579 158.525 219.066C158.147 219.554 157.958 220.281 157.958 221.247ZM171.719 224.2C171.919 224.2 172.113 224.187 172.3 224.159C172.487 224.127 172.635 224.095 172.744 224.063V224.932C172.621 224.991 172.439 225.039 172.197 225.075C171.96 225.116 171.746 225.137 171.555 225.137C170.105 225.137 169.381 224.373 169.381 222.847V218.39H168.308V217.843L169.381 217.371L169.859 215.771H170.516V217.508H172.689V218.39H170.516V222.799C170.516 223.25 170.623 223.596 170.837 223.838C171.051 224.079 171.345 224.2 171.719 224.2ZM179.375 225V220.153C179.375 219.543 179.236 219.087 178.958 218.786C178.68 218.485 178.245 218.335 177.652 218.335C176.864 218.335 176.287 218.549 175.923 218.978C175.563 219.406 175.383 220.108 175.383 221.083V225H174.248V214.363H175.383V217.583C175.383 217.97 175.365 218.292 175.328 218.547H175.396C175.62 218.187 175.937 217.904 176.347 217.699C176.761 217.49 177.233 217.385 177.762 217.385C178.678 217.385 179.364 217.604 179.819 218.041C180.28 218.474 180.51 219.164 180.51 220.112V225H179.375ZM186.013 225.137C184.905 225.137 184.03 224.799 183.388 224.125C182.75 223.451 182.431 222.514 182.431 221.315C182.431 220.108 182.727 219.148 183.319 218.438C183.916 217.727 184.716 217.371 185.719 217.371C186.658 217.371 187.4 217.681 187.947 218.301C188.494 218.916 188.768 219.729 188.768 220.741V221.459H183.606C183.629 222.339 183.85 223.006 184.27 223.462C184.693 223.918 185.288 224.146 186.054 224.146C186.86 224.146 187.658 223.977 188.446 223.64V224.651C188.045 224.825 187.665 224.948 187.305 225.021C186.949 225.098 186.519 225.137 186.013 225.137ZM185.705 218.321C185.104 218.321 184.623 218.517 184.263 218.909C183.907 219.301 183.698 219.843 183.634 220.536H187.551C187.551 219.821 187.391 219.274 187.072 218.896C186.753 218.513 186.298 218.321 185.705 218.321ZM55.3027 245.995H55.2412C54.7171 246.756 53.9333 247.137 52.8896 247.137C51.9098 247.137 51.1465 246.802 50.5996 246.132C50.0573 245.462 49.7861 244.509 49.7861 243.274C49.7861 242.039 50.0596 241.08 50.6064 240.396C51.1533 239.713 51.9144 239.371 52.8896 239.371C53.9059 239.371 54.6852 239.74 55.2275 240.479H55.3164L55.2686 239.938L55.2412 239.412V236.363H56.376V247H55.4531L55.3027 245.995ZM53.0332 246.187C53.8079 246.187 54.3685 245.977 54.7148 245.558C55.0658 245.134 55.2412 244.452 55.2412 243.514V243.274C55.2412 242.213 55.0635 241.456 54.708 241.005C54.3571 240.549 53.7943 240.321 53.0195 240.321C52.3542 240.321 51.8438 240.581 51.4883 241.101C51.1374 241.616 50.9619 242.345 50.9619 243.288C50.9619 244.245 51.1374 244.967 51.4883 245.455C51.8392 245.943 52.3542 246.187 53.0332 246.187ZM65.2559 243.247C65.2559 244.468 64.9482 245.423 64.333 246.111C63.7178 246.795 62.8678 247.137 61.7832 247.137C61.1133 247.137 60.5186 246.979 59.999 246.665C59.4795 246.351 59.0785 245.899 58.7959 245.312C58.5133 244.724 58.3721 244.035 58.3721 243.247C58.3721 242.026 58.6774 241.076 59.2881 240.396C59.8988 239.713 60.7464 239.371 61.8311 239.371C62.8792 239.371 63.7109 239.72 64.3262 240.417C64.946 241.114 65.2559 242.058 65.2559 243.247ZM59.5479 243.247C59.5479 244.204 59.7393 244.933 60.1221 245.435C60.5049 245.936 61.0677 246.187 61.8105 246.187C62.5534 246.187 63.1162 245.938 63.499 245.441C63.8864 244.94 64.0801 244.209 64.0801 243.247C64.0801 242.295 63.8864 241.572 63.499 241.08C63.1162 240.583 62.5488 240.335 61.7969 240.335C61.054 240.335 60.4935 240.579 60.1152 241.066C59.737 241.554 59.5479 242.281 59.5479 243.247ZM70.2461 247.137C69.1615 247.137 68.3206 246.804 67.7236 246.139C67.1312 245.469 66.835 244.523 66.835 243.302C66.835 242.049 67.1357 241.08 67.7373 240.396C68.3434 239.713 69.2048 239.371 70.3213 239.371C70.6813 239.371 71.0413 239.41 71.4014 239.487C71.7614 239.565 72.0439 239.656 72.249 239.761L71.9004 240.725C71.6497 240.624 71.3763 240.542 71.0801 240.479C70.7839 240.41 70.5218 240.376 70.2939 240.376C68.7718 240.376 68.0107 241.347 68.0107 243.288C68.0107 244.209 68.1953 244.915 68.5645 245.407C68.9382 245.899 69.4896 246.146 70.2188 246.146C70.8431 246.146 71.4834 246.011 72.1396 245.742V246.747C71.6383 247.007 71.0072 247.137 70.2461 247.137ZM74.9902 239.508V244.368C74.9902 244.979 75.1292 245.435 75.4072 245.735C75.6852 246.036 76.1204 246.187 76.7129 246.187C77.4967 246.187 78.0687 245.972 78.4287 245.544C78.7933 245.116 78.9756 244.416 78.9756 243.445V239.508H80.1104V247H79.1738L79.0098 245.995H78.9482C78.7158 246.364 78.3923 246.647 77.9775 246.843C77.5674 247.039 77.098 247.137 76.5693 247.137C75.6579 247.137 74.9743 246.92 74.5186 246.487C74.0674 246.054 73.8418 245.362 73.8418 244.409V239.508H74.9902ZM92.0732 247V242.126C92.0732 241.529 91.9456 241.082 91.6904 240.786C91.4352 240.485 91.0387 240.335 90.501 240.335C89.7946 240.335 89.2728 240.538 88.9355 240.943C88.5983 241.349 88.4297 241.973 88.4297 242.816V247H87.2949V242.126C87.2949 241.529 87.1673 241.082 86.9121 240.786C86.6569 240.485 86.2581 240.335 85.7158 240.335C85.0049 240.335 84.4831 240.549 84.1504 240.978C83.8223 241.401 83.6582 242.099 83.6582 243.069V247H82.5234V239.508H83.4463L83.6309 240.533H83.6855C83.8997 240.169 84.2005 239.884 84.5879 239.679C84.9798 239.474 85.4173 239.371 85.9004 239.371C87.0716 239.371 87.8372 239.795 88.1973 240.643H88.252C88.4753 240.251 88.7988 239.941 89.2227 239.713C89.6465 239.485 90.1296 239.371 90.6719 239.371C91.5195 239.371 92.153 239.59 92.5723 240.027C92.9961 240.46 93.208 241.155 93.208 242.112V247H92.0732ZM98.7178 247.137C97.6104 247.137 96.7354 246.799 96.0928 246.125C95.4548 245.451 95.1357 244.514 95.1357 243.315C95.1357 242.108 95.432 241.148 96.0244 240.438C96.6214 239.727 97.4212 239.371 98.4238 239.371C99.3626 239.371 100.105 239.681 100.652 240.301C101.199 240.916 101.473 241.729 101.473 242.741V243.459H96.3115C96.3343 244.339 96.5553 245.006 96.9746 245.462C97.3984 245.918 97.9932 246.146 98.7588 246.146C99.5654 246.146 100.363 245.977 101.151 245.64V246.651C100.75 246.825 100.37 246.948 100.01 247.021C99.6543 247.098 99.2236 247.137 98.7178 247.137ZM98.4102 240.321C97.8086 240.321 97.3278 240.517 96.9678 240.909C96.6123 241.301 96.4027 241.843 96.3389 242.536H100.256C100.256 241.821 100.096 241.274 99.7773 240.896C99.4583 240.513 99.0026 240.321 98.4102 240.321ZM108.541 247V242.153C108.541 241.543 108.402 241.087 108.124 240.786C107.846 240.485 107.411 240.335 106.818 240.335C106.035 240.335 105.46 240.547 105.096 240.971C104.731 241.395 104.549 242.094 104.549 243.069V247H103.414V239.508H104.337L104.521 240.533H104.576C104.809 240.164 105.134 239.879 105.554 239.679C105.973 239.474 106.44 239.371 106.955 239.371C107.857 239.371 108.536 239.59 108.992 240.027C109.448 240.46 109.676 241.155 109.676 242.112V247H108.541ZM114.434 246.2C114.634 246.2 114.828 246.187 115.015 246.159C115.201 246.127 115.35 246.095 115.459 246.063V246.932C115.336 246.991 115.154 247.039 114.912 247.075C114.675 247.116 114.461 247.137 114.27 247.137C112.82 247.137 112.096 246.373 112.096 244.847V240.39H111.022V239.843L112.096 239.371L112.574 237.771H113.23V239.508H115.404V240.39H113.23V244.799C113.23 245.25 113.338 245.596 113.552 245.838C113.766 246.079 114.06 246.2 114.434 246.2ZM125.207 247L124.981 245.934H124.927C124.553 246.403 124.179 246.722 123.806 246.891C123.437 247.055 122.974 247.137 122.418 247.137C121.675 247.137 121.092 246.945 120.668 246.562C120.249 246.18 120.039 245.635 120.039 244.929C120.039 243.416 121.249 242.623 123.669 242.55L124.94 242.509V242.044C124.94 241.456 124.813 241.023 124.558 240.745C124.307 240.463 123.904 240.321 123.348 240.321C122.723 240.321 122.017 240.513 121.229 240.896L120.88 240.027C121.249 239.827 121.652 239.67 122.09 239.556C122.532 239.442 122.974 239.385 123.416 239.385C124.309 239.385 124.97 239.583 125.398 239.979C125.831 240.376 126.048 241.012 126.048 241.887V247H125.207ZM122.644 246.2C123.35 246.2 123.904 246.007 124.305 245.619C124.71 245.232 124.913 244.689 124.913 243.992V243.315L123.778 243.363C122.876 243.395 122.224 243.536 121.823 243.787C121.427 244.033 121.229 244.418 121.229 244.942C121.229 245.353 121.352 245.665 121.598 245.879C121.848 246.093 122.197 246.2 122.644 246.2ZM130.812 246.2C131.013 246.2 131.207 246.187 131.394 246.159C131.58 246.127 131.729 246.095 131.838 246.063V246.932C131.715 246.991 131.533 247.039 131.291 247.075C131.054 247.116 130.84 247.137 130.648 247.137C129.199 247.137 128.475 246.373 128.475 244.847V240.39H127.401V239.843L128.475 239.371L128.953 237.771H129.609V239.508H131.783V240.39H129.609V244.799C129.609 245.25 129.716 245.596 129.931 245.838C130.145 246.079 130.439 246.2 130.812 246.2ZM139.398 246.2C139.599 246.2 139.793 246.187 139.979 246.159C140.166 246.127 140.314 246.095 140.424 246.063V246.932C140.301 246.991 140.118 247.039 139.877 247.075C139.64 247.116 139.426 247.137 139.234 247.137C137.785 247.137 137.061 246.373 137.061 244.847V240.39H135.987V239.843L137.061 239.371L137.539 237.771H138.195V239.508H140.369V240.39H138.195V244.799C138.195 245.25 138.302 245.596 138.517 245.838C138.731 246.079 139.025 246.2 139.398 246.2ZM147.055 247V242.153C147.055 241.543 146.916 241.087 146.638 240.786C146.36 240.485 145.924 240.335 145.332 240.335C144.544 240.335 143.967 240.549 143.603 240.978C143.243 241.406 143.062 242.108 143.062 243.083V247H141.928V236.363H143.062V239.583C143.062 239.97 143.044 240.292 143.008 240.547H143.076C143.299 240.187 143.616 239.904 144.026 239.699C144.441 239.49 144.913 239.385 145.441 239.385C146.357 239.385 147.043 239.604 147.499 240.041C147.959 240.474 148.189 241.164 148.189 242.112V247H147.055ZM153.692 247.137C152.585 247.137 151.71 246.799 151.067 246.125C150.429 245.451 150.11 244.514 150.11 243.315C150.11 242.108 150.407 241.148 150.999 240.438C151.596 239.727 152.396 239.371 153.398 239.371C154.337 239.371 155.08 239.681 155.627 240.301C156.174 240.916 156.447 241.729 156.447 242.741V243.459H151.286C151.309 244.339 151.53 245.006 151.949 245.462C152.373 245.918 152.968 246.146 153.733 246.146C154.54 246.146 155.338 245.977 156.126 245.64V246.651C155.725 246.825 155.344 246.948 154.984 247.021C154.629 247.098 154.198 247.137 153.692 247.137ZM153.385 240.321C152.783 240.321 152.302 240.517 151.942 240.909C151.587 241.301 151.377 241.843 151.313 242.536H155.23C155.23 241.821 155.071 241.274 154.752 240.896C154.433 240.513 153.977 240.321 153.385 240.321ZM165.02 247.137C163.935 247.137 163.094 246.804 162.497 246.139C161.905 245.469 161.608 244.523 161.608 243.302C161.608 242.049 161.909 241.08 162.511 240.396C163.117 239.713 163.978 239.371 165.095 239.371C165.455 239.371 165.815 239.41 166.175 239.487C166.535 239.565 166.817 239.656 167.022 239.761L166.674 240.725C166.423 240.624 166.15 240.542 165.854 240.479C165.557 240.41 165.295 240.376 165.067 240.376C163.545 240.376 162.784 241.347 162.784 243.288C162.784 244.209 162.969 244.915 163.338 245.407C163.712 245.899 164.263 246.146 164.992 246.146C165.617 246.146 166.257 246.011 166.913 245.742V246.747C166.412 247.007 165.781 247.137 165.02 247.137ZM169.764 239.508V244.368C169.764 244.979 169.903 245.435 170.181 245.735C170.459 246.036 170.894 246.187 171.486 246.187C172.27 246.187 172.842 245.972 173.202 245.544C173.567 245.116 173.749 244.416 173.749 243.445V239.508H174.884V247H173.947L173.783 245.995H173.722C173.489 246.364 173.166 246.647 172.751 246.843C172.341 247.039 171.871 247.137 171.343 247.137C170.431 247.137 169.748 246.92 169.292 246.487C168.841 246.054 168.615 245.362 168.615 244.409V239.508H169.764ZM180.715 239.371C181.048 239.371 181.346 239.398 181.61 239.453L181.453 240.506C181.143 240.438 180.87 240.403 180.633 240.403C180.027 240.403 179.507 240.649 179.074 241.142C178.646 241.634 178.432 242.247 178.432 242.98V247H177.297V239.508H178.233L178.363 240.896H178.418C178.696 240.408 179.031 240.032 179.423 239.768C179.815 239.503 180.245 239.371 180.715 239.371ZM186.43 239.371C186.762 239.371 187.061 239.398 187.325 239.453L187.168 240.506C186.858 240.438 186.585 240.403 186.348 240.403C185.742 240.403 185.222 240.649 184.789 241.142C184.361 241.634 184.146 242.247 184.146 242.98V247H183.012V239.508H183.948L184.078 240.896H184.133C184.411 240.408 184.746 240.032 185.138 239.768C185.53 239.503 185.96 239.371 186.43 239.371ZM191.892 247.137C190.784 247.137 189.909 246.799 189.267 246.125C188.629 245.451 188.31 244.514 188.31 243.315C188.31 242.108 188.606 241.148 189.198 240.438C189.795 239.727 190.595 239.371 191.598 239.371C192.536 239.371 193.279 239.681 193.826 240.301C194.373 240.916 194.646 241.729 194.646 242.741V243.459H189.485C189.508 244.339 189.729 245.006 190.148 245.462C190.572 245.918 191.167 246.146 191.933 246.146C192.739 246.146 193.537 245.977 194.325 245.64V246.651C193.924 246.825 193.544 246.948 193.184 247.021C192.828 247.098 192.397 247.137 191.892 247.137ZM191.584 240.321C190.982 240.321 190.502 240.517 190.142 240.909C189.786 241.301 189.576 241.843 189.513 242.536H193.43C193.43 241.821 193.27 241.274 192.951 240.896C192.632 240.513 192.176 240.321 191.584 240.321ZM201.715 247V242.153C201.715 241.543 201.576 241.087 201.298 240.786C201.02 240.485 200.585 240.335 199.992 240.335C199.208 240.335 198.634 240.547 198.27 240.971C197.905 241.395 197.723 242.094 197.723 243.069V247H196.588V239.508H197.511L197.695 240.533H197.75C197.982 240.164 198.308 239.879 198.728 239.679C199.147 239.474 199.614 239.371 200.129 239.371C201.031 239.371 201.71 239.59 202.166 240.027C202.622 240.46 202.85 241.155 202.85 242.112V247H201.715ZM207.607 246.2C207.808 246.2 208.002 246.187 208.188 246.159C208.375 246.127 208.523 246.095 208.633 246.063V246.932C208.51 246.991 208.327 247.039 208.086 247.075C207.849 247.116 207.635 247.137 207.443 247.137C205.994 247.137 205.27 246.373 205.27 244.847V240.39H204.196V239.843L205.27 239.371L205.748 237.771H206.404V239.508H208.578V240.39H206.404V244.799C206.404 245.25 206.511 245.596 206.726 245.838C206.94 246.079 207.234 246.2 207.607 246.2ZM216.768 247.137C215.683 247.137 214.842 246.804 214.245 246.139C213.653 245.469 213.356 244.523 213.356 243.302C213.356 242.049 213.657 241.08 214.259 240.396C214.865 239.713 215.726 239.371 216.843 239.371C217.203 239.371 217.563 239.41 217.923 239.487C218.283 239.565 218.565 239.656 218.771 239.761L218.422 240.725C218.171 240.624 217.898 240.542 217.602 240.479C217.305 240.41 217.043 240.376 216.815 240.376C215.293 240.376 214.532 241.347 214.532 243.288C214.532 244.209 214.717 244.915 215.086 245.407C215.46 245.899 216.011 246.146 216.74 246.146C217.365 246.146 218.005 246.011 218.661 245.742V246.747C218.16 247.007 217.529 247.137 216.768 247.137ZM221.512 239.508V244.368C221.512 244.979 221.651 245.435 221.929 245.735C222.207 246.036 222.642 246.187 223.234 246.187C224.018 246.187 224.59 245.972 224.95 245.544C225.315 245.116 225.497 244.416 225.497 243.445V239.508H226.632V247H225.695L225.531 245.995H225.47C225.237 246.364 224.914 246.647 224.499 246.843C224.089 247.039 223.619 247.137 223.091 247.137C222.179 247.137 221.496 246.92 221.04 246.487C220.589 246.054 220.363 245.362 220.363 244.409V239.508H221.512ZM232.463 239.371C232.796 239.371 233.094 239.398 233.358 239.453L233.201 240.506C232.891 240.438 232.618 240.403 232.381 240.403C231.775 240.403 231.255 240.649 230.822 241.142C230.394 241.634 230.18 242.247 230.18 242.98V247H229.045V239.508H229.981L230.111 240.896H230.166C230.444 240.408 230.779 240.032 231.171 239.768C231.563 239.503 231.993 239.371 232.463 239.371ZM239.593 244.956C239.593 245.653 239.333 246.191 238.813 246.569C238.294 246.948 237.565 247.137 236.626 247.137C235.632 247.137 234.858 246.979 234.302 246.665V245.612C234.662 245.795 235.047 245.938 235.457 246.043C235.872 246.148 236.271 246.2 236.653 246.2C237.246 246.2 237.701 246.107 238.021 245.92C238.34 245.729 238.499 245.439 238.499 245.052C238.499 244.76 238.371 244.512 238.116 244.307C237.866 244.097 237.373 243.851 236.64 243.568C235.942 243.309 235.446 243.083 235.149 242.892C234.858 242.696 234.639 242.475 234.493 242.229C234.352 241.982 234.281 241.688 234.281 241.347C234.281 240.736 234.53 240.255 235.026 239.904C235.523 239.549 236.204 239.371 237.07 239.371C237.877 239.371 238.665 239.535 239.436 239.863L239.032 240.786C238.28 240.476 237.599 240.321 236.988 240.321C236.451 240.321 236.045 240.406 235.771 240.574C235.498 240.743 235.361 240.975 235.361 241.271C235.361 241.472 235.411 241.643 235.512 241.784C235.617 241.925 235.783 242.06 236.011 242.188C236.239 242.315 236.676 242.5 237.323 242.741C238.212 243.065 238.811 243.391 239.121 243.719C239.436 244.047 239.593 244.459 239.593 244.956ZM247.912 243.247C247.912 244.468 247.604 245.423 246.989 246.111C246.374 246.795 245.524 247.137 244.439 247.137C243.77 247.137 243.175 246.979 242.655 246.665C242.136 246.351 241.735 245.899 241.452 245.312C241.17 244.724 241.028 244.035 241.028 243.247C241.028 242.026 241.334 241.076 241.944 240.396C242.555 239.713 243.403 239.371 244.487 239.371C245.535 239.371 246.367 239.72 246.982 240.417C247.602 241.114 247.912 242.058 247.912 243.247ZM242.204 243.247C242.204 244.204 242.396 244.933 242.778 245.435C243.161 245.936 243.724 246.187 244.467 246.187C245.21 246.187 245.772 245.938 246.155 245.441C246.543 244.94 246.736 244.209 246.736 243.247C246.736 242.295 246.543 241.572 246.155 241.08C245.772 240.583 245.205 240.335 244.453 240.335C243.71 240.335 243.15 240.579 242.771 241.066C242.393 241.554 242.204 242.281 242.204 243.247ZM253.326 239.371C253.659 239.371 253.957 239.398 254.222 239.453L254.064 240.506C253.755 240.438 253.481 240.403 253.244 240.403C252.638 240.403 252.118 240.649 251.686 241.142C251.257 241.634 251.043 242.247 251.043 242.98V247H249.908V239.508H250.845L250.975 240.896H251.029C251.307 240.408 251.642 240.032 252.034 239.768C252.426 239.503 252.857 239.371 253.326 239.371ZM53.6895 269.137C53.2018 269.137 52.7552 269.048 52.3496 268.87C51.9486 268.688 51.6113 268.41 51.3379 268.036H51.2559C51.3105 268.474 51.3379 268.888 51.3379 269.28V272.363H50.2031V261.508H51.126L51.2832 262.533H51.3379C51.6296 262.123 51.9691 261.827 52.3564 261.645C52.7438 261.462 53.1882 261.371 53.6895 261.371C54.6829 261.371 55.4486 261.711 55.9863 262.39C56.5286 263.069 56.7998 264.021 56.7998 265.247C56.7998 266.478 56.5241 267.435 55.9727 268.118C55.4258 268.797 54.6647 269.137 53.6895 269.137ZM53.5254 262.335C52.7598 262.335 52.2061 262.547 51.8643 262.971C51.5225 263.395 51.347 264.069 51.3379 264.994V265.247C51.3379 266.3 51.5133 267.054 51.8643 267.51C52.2152 267.961 52.778 268.187 53.5527 268.187C54.1999 268.187 54.7057 267.924 55.0703 267.4C55.4395 266.876 55.624 266.154 55.624 265.233C55.624 264.299 55.4395 263.584 55.0703 263.087C54.7057 262.586 54.1908 262.335 53.5254 262.335ZM65.2559 265.247C65.2559 266.468 64.9482 267.423 64.333 268.111C63.7178 268.795 62.8678 269.137 61.7832 269.137C61.1133 269.137 60.5186 268.979 59.999 268.665C59.4795 268.351 59.0785 267.899 58.7959 267.312C58.5133 266.724 58.3721 266.035 58.3721 265.247C58.3721 264.026 58.6774 263.076 59.2881 262.396C59.8988 261.713 60.7464 261.371 61.8311 261.371C62.8792 261.371 63.7109 261.72 64.3262 262.417C64.946 263.114 65.2559 264.058 65.2559 265.247ZM59.5479 265.247C59.5479 266.204 59.7393 266.933 60.1221 267.435C60.5049 267.936 61.0677 268.187 61.8105 268.187C62.5534 268.187 63.1162 267.938 63.499 267.441C63.8864 266.94 64.0801 266.209 64.0801 265.247C64.0801 264.295 63.8864 263.572 63.499 263.08C63.1162 262.583 62.5488 262.335 61.7969 262.335C61.054 262.335 60.4935 262.579 60.1152 263.066C59.737 263.554 59.5479 264.281 59.5479 265.247ZM72.085 266.956C72.085 267.653 71.8252 268.191 71.3057 268.569C70.7861 268.948 70.057 269.137 69.1182 269.137C68.1247 269.137 67.3499 268.979 66.7939 268.665V267.612C67.154 267.795 67.5391 267.938 67.9492 268.043C68.3639 268.148 68.7627 268.2 69.1455 268.2C69.738 268.2 70.1937 268.107 70.5127 267.92C70.8317 267.729 70.9912 267.439 70.9912 267.052C70.9912 266.76 70.8636 266.512 70.6084 266.307C70.3577 266.097 69.8656 265.851 69.1318 265.568C68.4346 265.309 67.9378 265.083 67.6416 264.892C67.3499 264.696 67.1312 264.475 66.9854 264.229C66.8441 263.982 66.7734 263.688 66.7734 263.347C66.7734 262.736 67.0218 262.255 67.5186 261.904C68.0153 261.549 68.6966 261.371 69.5625 261.371C70.3691 261.371 71.1576 261.535 71.9277 261.863L71.5244 262.786C70.7725 262.476 70.0911 262.321 69.4805 262.321C68.9427 262.321 68.5371 262.406 68.2637 262.574C67.9902 262.743 67.8535 262.975 67.8535 263.271C67.8535 263.472 67.9036 263.643 68.0039 263.784C68.1087 263.925 68.2751 264.06 68.5029 264.188C68.7308 264.315 69.1683 264.5 69.8154 264.741C70.7041 265.065 71.3034 265.391 71.6133 265.719C71.9277 266.047 72.085 266.459 72.085 266.956ZM75.0723 269H73.9375V261.508H75.0723V269ZM73.8418 259.478C73.8418 259.218 73.9056 259.029 74.0332 258.91C74.1608 258.787 74.3203 258.726 74.5117 258.726C74.694 258.726 74.8512 258.787 74.9834 258.91C75.1156 259.033 75.1816 259.222 75.1816 259.478C75.1816 259.733 75.1156 259.924 74.9834 260.052C74.8512 260.175 74.694 260.236 74.5117 260.236C74.3203 260.236 74.1608 260.175 74.0332 260.052C73.9056 259.924 73.8418 259.733 73.8418 259.478ZM79.8984 268.2C80.099 268.2 80.2926 268.187 80.4795 268.159C80.6663 268.127 80.8145 268.095 80.9238 268.063V268.932C80.8008 268.991 80.6185 269.039 80.377 269.075C80.14 269.116 79.9258 269.137 79.7344 269.137C78.2852 269.137 77.5605 268.373 77.5605 266.847V262.39H76.4873V261.843L77.5605 261.371L78.0391 259.771H78.6953V261.508H80.8691V262.39H78.6953V266.799C78.6953 267.25 78.8024 267.596 79.0166 267.838C79.2308 268.079 79.5247 268.2 79.8984 268.2ZM83.5625 269H82.4277V261.508H83.5625V269ZM82.332 259.478C82.332 259.218 82.3958 259.029 82.5234 258.91C82.651 258.787 82.8105 258.726 83.002 258.726C83.1842 258.726 83.3415 258.787 83.4736 258.91C83.6058 259.033 83.6719 259.222 83.6719 259.478C83.6719 259.733 83.6058 259.924 83.4736 260.052C83.3415 260.175 83.1842 260.236 83.002 260.236C82.8105 260.236 82.651 260.175 82.5234 260.052C82.3958 259.924 82.332 259.733 82.332 259.478ZM92.4355 265.247C92.4355 266.468 92.1279 267.423 91.5127 268.111C90.8975 268.795 90.0475 269.137 88.9629 269.137C88.293 269.137 87.6982 268.979 87.1787 268.665C86.6592 268.351 86.2581 267.899 85.9756 267.312C85.693 266.724 85.5518 266.035 85.5518 265.247C85.5518 264.026 85.8571 263.076 86.4678 262.396C87.0785 261.713 87.9261 261.371 89.0107 261.371C90.0589 261.371 90.8906 261.72 91.5059 262.417C92.1257 263.114 92.4355 264.058 92.4355 265.247ZM86.7275 265.247C86.7275 266.204 86.9189 266.933 87.3018 267.435C87.6846 267.936 88.2474 268.187 88.9902 268.187C89.7331 268.187 90.2959 267.938 90.6787 267.441C91.0661 266.94 91.2598 266.209 91.2598 265.247C91.2598 264.295 91.0661 263.572 90.6787 263.08C90.2959 262.583 89.7285 262.335 88.9766 262.335C88.2337 262.335 87.6732 262.579 87.2949 263.066C86.9167 263.554 86.7275 264.281 86.7275 265.247ZM99.5586 269V264.153C99.5586 263.543 99.4196 263.087 99.1416 262.786C98.8636 262.485 98.4284 262.335 97.8359 262.335C97.0521 262.335 96.4779 262.547 96.1133 262.971C95.7487 263.395 95.5664 264.094 95.5664 265.069V269H94.4316V261.508H95.3545L95.5391 262.533H95.5938C95.8262 262.164 96.152 261.879 96.5713 261.679C96.9906 261.474 97.4577 261.371 97.9727 261.371C98.875 261.371 99.554 261.59 100.01 262.027C100.465 262.46 100.693 263.155 100.693 264.112V269H99.5586ZM102.867 268.275C102.867 267.97 102.936 267.74 103.072 267.585C103.214 267.425 103.414 267.346 103.674 267.346C103.938 267.346 104.143 267.425 104.289 267.585C104.439 267.74 104.515 267.97 104.515 268.275C104.515 268.572 104.439 268.799 104.289 268.959C104.139 269.118 103.934 269.198 103.674 269.198C103.441 269.198 103.248 269.128 103.093 268.986C102.942 268.84 102.867 268.604 102.867 268.275Z" fill="#333333"/>
<path d="M54.7969 323L51.4062 314.141H51.3516C51.4154 314.842 51.4473 315.676 51.4473 316.643V323H50.374V313.006H52.124L55.2891 321.25H55.3438L58.5361 313.006H60.2725V323H59.1104V316.561C59.1104 315.822 59.1423 315.02 59.2061 314.154H59.1514L55.7334 323H54.7969ZM69.3164 319.247C69.3164 320.468 69.0088 321.423 68.3936 322.111C67.7783 322.795 66.9284 323.137 65.8438 323.137C65.1738 323.137 64.5791 322.979 64.0596 322.665C63.54 322.351 63.139 321.899 62.8564 321.312C62.5739 320.724 62.4326 320.035 62.4326 319.247C62.4326 318.026 62.738 317.076 63.3486 316.396C63.9593 315.713 64.807 315.371 65.8916 315.371C66.9398 315.371 67.7715 315.72 68.3867 316.417C69.0065 317.114 69.3164 318.058 69.3164 319.247ZM63.6084 319.247C63.6084 320.204 63.7998 320.933 64.1826 321.435C64.5654 321.936 65.1283 322.187 65.8711 322.187C66.6139 322.187 67.1768 321.938 67.5596 321.441C67.9469 320.94 68.1406 320.209 68.1406 319.247C68.1406 318.295 67.9469 317.572 67.5596 317.08C67.1768 316.583 66.6094 316.335 65.8574 316.335C65.1146 316.335 64.554 316.579 64.1758 317.066C63.7975 317.554 63.6084 318.281 63.6084 319.247ZM74.7305 315.371C75.0632 315.371 75.3617 315.398 75.626 315.453L75.4688 316.506C75.1589 316.438 74.8854 316.403 74.6484 316.403C74.0423 316.403 73.5228 316.649 73.0898 317.142C72.6615 317.634 72.4473 318.247 72.4473 318.98V323H71.3125V315.508H72.249L72.3789 316.896H72.4336C72.7116 316.408 73.0465 316.032 73.4385 315.768C73.8304 315.503 74.2611 315.371 74.7305 315.371ZM80.1924 323.137C79.085 323.137 78.21 322.799 77.5674 322.125C76.9294 321.451 76.6104 320.514 76.6104 319.315C76.6104 318.108 76.9066 317.148 77.499 316.438C78.096 315.727 78.8958 315.371 79.8984 315.371C80.8372 315.371 81.5801 315.681 82.127 316.301C82.6738 316.916 82.9473 317.729 82.9473 318.741V319.459H77.7861C77.8089 320.339 78.0299 321.006 78.4492 321.462C78.873 321.918 79.4678 322.146 80.2334 322.146C81.04 322.146 81.8376 321.977 82.626 321.64V322.651C82.2249 322.825 81.8444 322.948 81.4844 323.021C81.1289 323.098 80.6982 323.137 80.1924 323.137ZM79.8848 316.321C79.2832 316.321 78.8024 316.517 78.4424 316.909C78.0869 317.301 77.8773 317.843 77.8135 318.536H81.7305C81.7305 317.821 81.571 317.274 81.252 316.896C80.9329 316.513 80.4772 316.321 79.8848 316.321Z" fill="#FF6F3D"/>
<path d="M49 324.401H83.6787V325.099H49V324.401Z" fill="#FF6F3D"/>
<rect x="25.5" y="18.5" width="255" height="332" rx="2.5" stroke="#EFEFEF"/>
</g>
<defs>
<filter id="filter0_d" x="0" y="0" width="306" height="383" filterUnits="userSpaceOnUse" color-interpolation-filters="sRGB">
<feFlood flood-opacity="0" result="BackgroundImageFix"/>
<feColorMatrix in="SourceAlpha" type="matrix" values="0 0 0 0 0 0 0 0 0 0 0 0 0 0 0 0 0 0 127 0"/>
<feOffset dy="7"/>
<feGaussianBlur stdDeviation="12.5"/>
<feColorMatrix type="matrix" values="0 0 0 0 0.333333 0 0 0 0 0.333333 0 0 0 0 0.333333 0 0 0 0.15 0"/>
<feBlend mode="normal" in2="BackgroundImageFix" result="effect1_dropShadow"/>
<feBlend mode="normal" in="SourceGraphic" in2="effect1_dropShadow" result="shape"/>
</filter>
<linearGradient id="paint0_linear" x1="131" y1="70.1797" x2="138.666" y2="110.763" gradientUnits="userSpaceOnUse">
<stop stop-color="#FFC671"/>
<stop offset="0.59375" stop-color="#FF7541"/>
<stop offset="1" stop-color="#FF6F3D"/>
</linearGradient>
</defs>
</svg>
