<svg width="208" height="80" viewBox="0 0 208 80" fill="none" xmlns="http://www.w3.org/2000/svg">
<rect opacity="0.5" x="0.5" y="0.5" width="167" height="79" rx="1.5" stroke="#AAAAAA"/>
<rect x="75.5" y="24.5" width="119" height="31" fill="white" stroke="#808080"/>
<path d="M85.2284 34.5781L84.9081 38.7031H83.3691L83.0488 34.5781H85.2284ZM88.5253 34.5781L88.205 38.7031H86.6659L86.3456 34.5781H88.5253ZM100.049 46H97.635V41.0703H93.1116V46H90.6897V34.5781H93.1116V39.0547H97.635V34.5781H100.049V46ZM106.049 38.7969C105.544 38.7969 105.148 38.9583 104.862 39.2812C104.575 39.599 104.411 40.0521 104.37 40.6406H107.713C107.703 40.0521 107.549 39.599 107.253 39.2812C106.956 38.9583 106.555 38.7969 106.049 38.7969ZM106.385 46.1562C104.979 46.1562 103.88 45.7682 103.088 44.9922C102.297 44.2161 101.901 43.1172 101.901 41.6953C101.901 40.2318 102.266 39.1016 102.995 38.3047C103.729 37.5026 104.742 37.1016 106.034 37.1016C107.268 37.1016 108.229 37.4531 108.917 38.1562C109.604 38.8594 109.948 39.8307 109.948 41.0703V42.2266H104.315C104.341 42.9036 104.542 43.4323 104.917 43.8125C105.292 44.1927 105.818 44.3828 106.495 44.3828C107.021 44.3828 107.518 44.3281 107.987 44.2188C108.456 44.1094 108.945 43.9349 109.456 43.6953V45.5391C109.039 45.7474 108.594 45.901 108.12 46C107.646 46.1042 107.068 46.1562 106.385 46.1562ZM113.948 46H111.565V33.8438H113.948V46ZM118.519 46H116.136V33.8438H118.519V46ZM122.605 41.6172C122.605 42.4818 122.746 43.1354 123.027 43.5781C123.313 44.0208 123.777 44.2422 124.418 44.2422C125.053 44.2422 125.509 44.0234 125.785 43.5859C126.066 43.1432 126.207 42.487 126.207 41.6172C126.207 40.7526 126.066 40.1042 125.785 39.6719C125.503 39.2396 125.043 39.0234 124.402 39.0234C123.766 39.0234 123.308 39.2396 123.027 39.6719C122.746 40.099 122.605 40.7474 122.605 41.6172ZM128.644 41.6172C128.644 43.0391 128.269 44.151 127.519 44.9531C126.769 45.7552 125.725 46.1562 124.386 46.1562C123.548 46.1562 122.808 45.974 122.168 45.6094C121.527 45.2396 121.035 44.7109 120.691 44.0234C120.347 43.3359 120.175 42.5339 120.175 41.6172C120.175 40.1901 120.548 39.0807 121.293 38.2891C122.037 37.4974 123.084 37.1016 124.433 37.1016C125.272 37.1016 126.011 37.2839 126.652 37.6484C127.293 38.013 127.785 38.5365 128.128 39.2188C128.472 39.901 128.644 40.7005 128.644 41.6172ZM141.309 46L140.637 42.9453L139.731 39.0859H139.676L138.082 46H135.52L133.035 37.2656H135.41L136.418 41.1328C136.58 41.8255 136.744 42.7812 136.91 44H136.957C136.978 43.6042 137.069 42.9766 137.231 42.1172L137.356 41.4531L138.434 37.2656H141.059L142.082 41.4531C142.103 41.5677 142.134 41.737 142.176 41.9609C142.223 42.1849 142.267 42.4245 142.309 42.6797C142.35 42.9297 142.387 43.1771 142.418 43.4219C142.455 43.6615 142.475 43.8542 142.481 44H142.528C142.574 43.625 142.658 43.112 142.778 42.4609C142.897 41.8047 142.983 41.362 143.035 41.1328L144.082 37.2656H146.418L143.903 46H141.309ZM149.411 41.6172C149.411 42.4818 149.551 43.1354 149.833 43.5781C150.119 44.0208 150.583 44.2422 151.223 44.2422C151.859 44.2422 152.314 44.0234 152.59 43.5859C152.872 43.1432 153.012 42.487 153.012 41.6172C153.012 40.7526 152.872 40.1042 152.59 39.6719C152.309 39.2396 151.848 39.0234 151.208 39.0234C150.572 39.0234 150.114 39.2396 149.833 39.6719C149.551 40.099 149.411 40.7474 149.411 41.6172ZM155.45 41.6172C155.45 43.0391 155.075 44.151 154.325 44.9531C153.575 45.7552 152.53 46.1562 151.192 46.1562C150.353 46.1562 149.614 45.974 148.973 45.6094C148.333 45.2396 147.84 44.7109 147.497 44.0234C147.153 43.3359 146.981 42.5339 146.981 41.6172C146.981 40.1901 147.353 39.0807 148.098 38.2891C148.843 37.4974 149.89 37.1016 151.239 37.1016C152.077 37.1016 152.817 37.2839 153.458 37.6484C154.098 38.013 154.59 38.5365 154.934 39.2188C155.278 39.901 155.45 40.7005 155.45 41.6172ZM161.973 37.1016C162.296 37.1016 162.565 37.125 162.778 37.1719L162.598 39.4062C162.406 39.3542 162.171 39.3281 161.895 39.3281C161.135 39.3281 160.541 39.5234 160.114 39.9141C159.692 40.3047 159.481 40.8516 159.481 41.5547V46H157.098V37.2656H158.903L159.255 38.7344H159.372C159.643 38.2448 160.007 37.8516 160.466 37.5547C160.929 37.2526 161.432 37.1016 161.973 37.1016ZM166.427 46H164.044V33.8438H166.427V46ZM171.38 46.1562C170.354 46.1562 169.547 45.7578 168.958 44.9609C168.375 44.1641 168.083 43.0599 168.083 41.6484C168.083 40.2161 168.38 39.1016 168.974 38.3047C169.573 37.5026 170.396 37.1016 171.443 37.1016C172.542 37.1016 173.38 37.5286 173.958 38.3828H174.037C173.917 37.7318 173.857 37.151 173.857 36.6406V33.8438H176.248V46H174.419L173.958 44.8672H173.857C173.315 45.7266 172.49 46.1562 171.38 46.1562ZM172.216 44.2578C172.826 44.2578 173.271 44.0807 173.552 43.7266C173.839 43.3724 173.995 42.7708 174.021 41.9219V41.6641C174.021 40.7266 173.875 40.0547 173.583 39.6484C173.297 39.2422 172.828 39.0391 172.177 39.0391C171.646 39.0391 171.232 39.2656 170.935 39.7188C170.643 40.1667 170.498 40.8203 170.498 41.6797C170.498 42.5391 170.646 43.1849 170.943 43.6172C171.24 44.0443 171.664 44.2578 172.216 44.2578ZM180.42 42.2109H178.513L178.115 34.5781H180.818L180.42 42.2109ZM178.084 44.8828C178.084 44.4453 178.201 44.1146 178.435 43.8906C178.67 43.6667 179.011 43.5547 179.459 43.5547C179.891 43.5547 180.224 43.6693 180.459 43.8984C180.698 44.1276 180.818 44.4557 180.818 44.8828C180.818 45.2943 180.698 45.6198 180.459 45.8594C180.219 46.0938 179.886 46.2109 179.459 46.2109C179.021 46.2109 178.683 46.0964 178.443 45.8672C178.204 45.6328 178.084 45.3047 178.084 44.8828ZM184.647 34.5781L184.326 38.7031H182.787L182.467 34.5781H184.647ZM187.943 34.5781L187.623 38.7031H186.084L185.764 34.5781H187.943Z" fill="url(#paint0_linear_1489_959)"/>
<circle cx="75.5" cy="24.5" r="1.5" fill="#808080"/>
<circle cx="75.5" cy="55.5" r="1.5" fill="#808080"/>
<circle cx="194.5" cy="24.5" r="1.5" fill="#808080"/>
<circle cx="194.5" cy="55.5" r="1.5" fill="#808080"/>
<path d="M18.376 46L17.6514 43.6211H14.0078L13.2832 46H11L14.5273 35.9648H17.1182L20.6592 46H18.376ZM17.1455 41.8438C16.4756 39.6882 16.0973 38.4691 16.0107 38.1865C15.9287 37.904 15.8695 37.6807 15.833 37.5166C15.6826 38.0999 15.252 39.5423 14.541 41.8438H17.1455ZM24.1797 46.1367C23.2819 46.1367 22.5755 45.7881 22.0605 45.0908C21.5501 44.3936 21.2949 43.4274 21.2949 42.1924C21.2949 40.9391 21.5547 39.9639 22.0742 39.2666C22.5983 38.5648 23.3184 38.2139 24.2344 38.2139C25.196 38.2139 25.9297 38.5876 26.4355 39.335H26.5039C26.3991 38.7653 26.3467 38.2572 26.3467 37.8105V35.3633H28.4385V46H26.8389L26.4355 45.0088H26.3467C25.8727 45.7607 25.1504 46.1367 24.1797 46.1367ZM24.9111 44.4756C25.4443 44.4756 25.834 44.3206 26.0801 44.0107C26.3307 43.7008 26.4674 43.1745 26.4902 42.4316V42.2061C26.4902 41.3857 26.3626 40.7979 26.1074 40.4424C25.8568 40.0869 25.4466 39.9092 24.877 39.9092C24.4121 39.9092 24.0498 40.1074 23.79 40.5039C23.5348 40.8958 23.4072 41.4678 23.4072 42.2197C23.4072 42.9717 23.5371 43.5368 23.7969 43.915C24.0566 44.2887 24.4281 44.4756 24.9111 44.4756ZM33.0391 46.1367C32.1413 46.1367 31.4349 45.7881 30.9199 45.0908C30.4095 44.3936 30.1543 43.4274 30.1543 42.1924C30.1543 40.9391 30.4141 39.9639 30.9336 39.2666C31.4577 38.5648 32.1777 38.2139 33.0938 38.2139C34.0553 38.2139 34.7891 38.5876 35.2949 39.335H35.3633C35.2585 38.7653 35.2061 38.2572 35.2061 37.8105V35.3633H37.2979V46H35.6982L35.2949 45.0088H35.2061C34.7321 45.7607 34.0098 46.1367 33.0391 46.1367ZM33.7705 44.4756C34.3037 44.4756 34.6934 44.3206 34.9395 44.0107C35.1901 43.7008 35.3268 43.1745 35.3496 42.4316V42.2061C35.3496 41.3857 35.222 40.7979 34.9668 40.4424C34.7161 40.0869 34.306 39.9092 33.7363 39.9092C33.2715 39.9092 32.9092 40.1074 32.6494 40.5039C32.3942 40.8958 32.2666 41.4678 32.2666 42.2197C32.2666 42.9717 32.3965 43.5368 32.6562 43.915C32.916 44.2887 33.2874 44.4756 33.7705 44.4756ZM43.498 46H41.3789V37.7695H38.665V36.0059H46.2119V37.7695H43.498V46ZM50.751 39.6973C50.3089 39.6973 49.9626 39.8385 49.7119 40.1211C49.4613 40.3991 49.3177 40.7956 49.2812 41.3105H52.207C52.1979 40.7956 52.0635 40.3991 51.8037 40.1211C51.5439 39.8385 51.193 39.6973 50.751 39.6973ZM51.0449 46.1367C49.8145 46.1367 48.8529 45.7972 48.1602 45.1182C47.4674 44.4391 47.1211 43.4775 47.1211 42.2334C47.1211 40.9528 47.4401 39.9639 48.0781 39.2666C48.7207 38.5648 49.6071 38.2139 50.7373 38.2139C51.8174 38.2139 52.6582 38.5215 53.2598 39.1367C53.8613 39.752 54.1621 40.6019 54.1621 41.6865V42.6982H49.2334C49.2562 43.2907 49.4316 43.7533 49.7598 44.0859C50.0879 44.4186 50.5482 44.585 51.1406 44.585C51.6009 44.585 52.0361 44.5371 52.4463 44.4414C52.8564 44.3457 53.2848 44.193 53.7314 43.9834V45.5967C53.3669 45.779 52.9772 45.9134 52.5625 46C52.1478 46.0911 51.6419 46.1367 51.0449 46.1367ZM57.4229 42.0967L54.9619 38.3574H57.3271L58.8105 40.791L60.3076 38.3574H62.6729L60.1846 42.0967L62.7891 46H60.417L58.8105 43.3818L57.1973 46H54.832L57.4229 42.0967ZM67.1709 44.4756C67.5355 44.4756 67.973 44.3958 68.4834 44.2363V45.7881C67.9639 46.0205 67.3258 46.1367 66.5693 46.1367C65.7354 46.1367 65.127 45.9271 64.7441 45.5078C64.3659 45.084 64.1768 44.4505 64.1768 43.6074V39.9229H63.1787V39.041L64.3271 38.3438L64.9287 36.7305H66.2617V38.3574H68.4014V39.9229H66.2617V43.6074C66.2617 43.9036 66.3438 44.1224 66.5078 44.2637C66.6764 44.4049 66.8975 44.4756 67.1709 44.4756Z" fill="#808080"/>
<defs>
<linearGradient id="paint0_linear_1489_959" x1="82.0002" y1="28.1797" x2="89.6657" y2="68.7626" gradientUnits="userSpaceOnUse">
<stop stop-color="#FFC671"/>
<stop offset="0.59375" stop-color="#FF7541"/>
<stop offset="1" stop-color="#FF6F3D"/>
</linearGradient>
</defs>
</svg>
