<svg width="208" height="80" viewBox="0 0 208 80" fill="none" xmlns="http://www.w3.org/2000/svg">
<g clip-path="url(#clip0_1505_1075)">
<rect opacity="0.5" x="0.5" y="0.5" width="207" height="79" rx="1.5" stroke="#AAAAAA"/>
<g opacity="0.5">
<line y1="20.5" x2="208" y2="20.5" stroke="#AAAAAA"/>
<line x1="167.5" y1="2.18557e-08" x2="167.5" y2="80" stroke="#AAAAAA"/>
<line y1="51.5" x2="208" y2="51.5" stroke="#AAAAAA"/>
<line x1="39.5" y1="2.18557e-08" x2="39.5" y2="80" stroke="#AAAAAA"/>
</g>
<rect x="39.5" y="20.5" width="128" height="31" fill="white" stroke="#808080"/>
<circle cx="39.5" cy="20.5" r="1.5" fill="#808080"/>
<circle cx="39.5" cy="51.5" r="1.5" fill="#808080"/>
<circle cx="103.5" cy="51.5" r="1.5" fill="#808080"/>
<circle cx="103.5" cy="20.5" r="1.5" fill="#808080"/>
<circle cx="167.5" cy="20.5" r="1.5" fill="#808080"/>
<circle cx="167.5" cy="51.5" r="1.5" fill="#808080"/>
<line x1="103.5" y1="20" x2="103.5" y2="51" stroke="#808080"/>
<path d="M59.2929 35.2929C58.9024 35.6834 58.9024 36.3166 59.2929 36.7071L65.6569 43.0711C66.0474 43.4616 66.6805 43.4616 67.0711 43.0711C67.4616 42.6805 67.4616 42.0474 67.0711 41.6569L61.4142 36L67.0711 30.3431C67.4616 29.9526 67.4616 29.3195 67.0711 28.9289C66.6805 28.5384 66.0474 28.5384 65.6569 28.9289L59.2929 35.2929ZM100 35L80 35L80 37L100 37L100 35ZM80 35L60 35L60 37L80 37L80 35Z" fill="#FF6F3D"/>
<path d="M146.707 36.7071C147.098 36.3166 147.098 35.6834 146.707 35.2929L140.343 28.9289C139.953 28.5384 139.319 28.5384 138.929 28.9289C138.538 29.3195 138.538 29.9526 138.929 30.3431L144.586 36L138.929 41.6569C138.538 42.0474 138.538 42.6805 138.929 43.0711C139.319 43.4616 139.953 43.4616 140.343 43.0711L146.707 36.7071ZM106 37H126V35H106V37ZM126 37L146 37V35L126 35V37Z" fill="#FF6F3D"/>
</g>
<defs>
<clipPath id="clip0_1505_1075">
<rect width="208" height="80" fill="white"/>
</clipPath>
</defs>
</svg>
