<svg width="208" height="80" viewBox="0 0 208 80" fill="none" xmlns="http://www.w3.org/2000/svg">
<rect width="208" height="80" fill="white"/>
<rect x="0.5" y="0.5" width="167" height="79" rx="1.5" fill="#F5F5F5" stroke="#CCCCCC"/>
<line y1="20.5" x2="168" y2="20.5" stroke="#CCCCCC"/>
<line x1="147.5" y1="2.18557e-08" x2="147.5" y2="80" stroke="#CCCCCC"/>
<line x1="84.5" y1="2.18557e-08" x2="84.5" y2="80" stroke="#CCCCCC"/>
<line y1="51.5" x2="168" y2="51.5" stroke="#CCCCCC"/>
<line x1="19.5" y1="2.18557e-08" x2="19.5" y2="80" stroke="#CCCCCC"/>
<rect x="19.5" y="20.5" width="128" height="31" fill="white" stroke="#444444"/>
<circle cx="19.5" cy="20.5" r="1.5" fill="#444444"/>
<circle cx="19.5" cy="51.5" r="1.5" fill="#444444"/>
<circle cx="147.5" cy="20.5" r="1.5" fill="#444444"/>
<circle cx="147.5" cy="51.5" r="1.5" fill="#444444"/>
<path d="M33.2929 35.2929C32.9024 35.6834 32.9024 36.3166 33.2929 36.7071L39.6569 43.0711C40.0474 43.4616 40.6805 43.4616 41.0711 43.0711C41.4616 42.6805 41.4616 42.0474 41.0711 41.6569L35.4142 36L41.0711 30.3431C41.4616 29.9526 41.4616 29.3195 41.0711 28.9289C40.6805 28.5384 40.0474 28.5384 39.6569 28.9289L33.2929 35.2929ZM136.707 36.7071C137.098 36.3166 137.098 35.6834 136.707 35.2929L130.343 28.9289C129.953 28.5384 129.319 28.5384 128.929 28.9289C128.538 29.3195 128.538 29.9526 128.929 30.3431L134.586 36L128.929 41.6569C128.538 42.0474 128.538 42.6805 128.929 43.0711C129.319 43.4616 129.953 43.4616 130.343 43.0711L136.707 36.7071ZM34 37L136 37V35L34 35V37Z" fill="#FF6F3D"/>
</svg>
