<svg width="208" height="80" viewBox="0 0 208 80" fill="none" xmlns="http://www.w3.org/2000/svg">
<g clip-path="url(#clip0)">
<rect width="208" height="80" fill="white"/>
<rect x="0.5" y="0.5" width="167" height="79" rx="1.5" fill="#F5F5F5" stroke="#CCCCCC"/>
<line y1="9.5" x2="168" y2="9.5" stroke="#CCCCCC"/>
<line y1="21.5" x2="168" y2="21.5" stroke="#CCCCCC"/>
<line y1="33.5" x2="168" y2="33.5" stroke="#CCCCCC"/>
<line y1="45.5" x2="168" y2="45.5" stroke="#CCCCCC"/>
<line y1="57.5" x2="168" y2="57.5" stroke="#CCCCCC"/>
<line y1="69.5" x2="168" y2="69.5" stroke="#CCCCCC"/>
<line x1="156.5" y1="1" x2="156.5" y2="80.0123" stroke="#CCCCCC"/>
<line x1="117.5" y1="1" x2="117.5" y2="80.0123" stroke="#CCCCCC"/>
<line x1="51.5001" y1="2.18557e-08" x2="51.5001" y2="79.0123" stroke="#CCCCCC"/>
<line x1="10.5" y1="2.15859e-08" x2="10.5" y2="79.0123" stroke="#CCCCCC"/>
<rect width="65" height="11" transform="matrix(1 0 0 -1 52 57)" fill="#AAAAAA"/>
<rect width="65" height="11" transform="matrix(1 0 0 -1 52 33)" fill="#AAAAAA"/>
<rect width="65" height="11" transform="matrix(1 0 0 -1 52 21)" fill="#AAAAAA"/>
<rect x="0.5" y="-0.5" width="66" height="12" transform="matrix(1 0 0 -1 51 69)" fill="url(#paint0_linear)" stroke="#444444"/>
<circle cx="51.5" cy="57.5" r="1.5" fill="#444444"/>
<circle cx="117.5" cy="57.5" r="1.5" fill="#444444"/>
<circle cx="51.5" cy="69.5" r="1.5" fill="#444444"/>
<circle cx="117.5" cy="69.5" r="1.5" fill="#444444"/>
</g>
<defs>
<linearGradient id="paint0_linear" x1="33.5" y1="0" x2="33.5" y2="13" gradientUnits="userSpaceOnUse">
<stop stop-color="#FF8E3D"/>
<stop offset="1" stop-color="#FF6F3D"/>
</linearGradient>
<clipPath id="clip0">
<rect width="208" height="80" fill="white"/>
</clipPath>
</defs>
</svg>
