<svg width="208" height="80" viewBox="0 0 208 80" fill="none" xmlns="http://www.w3.org/2000/svg">
<g clip-path="url(#clip0_1505_1363)">
<rect opacity="0.5" x="20.5" y="0.5" width="167" height="79" rx="1.5" stroke="#AAAAAA"/>
<g opacity="0.5">
<line x1="176.5" y1="1" x2="176.5" y2="80.0123" stroke="#AAAAAA"/>
<line x1="137.5" y1="1" x2="137.5" y2="80.0123" stroke="#AAAAAA"/>
<line x1="71.5" y1="2.18557e-08" x2="71.5" y2="79.0123" stroke="#AAAAAA"/>
<line x1="30.5" y1="2.15859e-08" x2="30.5" y2="79.0123" stroke="#AAAAAA"/>
<line x1="20" y1="9.5" x2="188" y2="9.5" stroke="#AAAAAA"/>
<line x1="20" y1="21.5" x2="188" y2="21.5" stroke="#AAAAAA"/>
<line x1="20" y1="33.5" x2="188" y2="33.5" stroke="#AAAAAA"/>
<line x1="20" y1="45.5" x2="188" y2="45.5" stroke="#AAAAAA"/>
<line x1="20" y1="57.5" x2="188" y2="57.5" stroke="#AAAAAA"/>
<line x1="20" y1="69.5" x2="188" y2="69.5" stroke="#AAAAAA"/>
</g>
<rect opacity="0.5" width="65" height="11" transform="matrix(1 0 0 -1 72 57)" fill="#D6D6D6"/>
<rect opacity="0.5" width="65" height="11" transform="matrix(1 0 0 -1 72 33)" fill="#D6D6D6"/>
<rect opacity="0.5" width="65" height="11" transform="matrix(1 0 0 -1 72 21)" fill="#D6D6D6"/>
<rect x="0.5" y="-0.5" width="66" height="12" transform="matrix(1 0 0 -1 71 69)" fill="url(#paint0_linear_1505_1363)" stroke="#808080"/>
<circle cx="71.5" cy="57.5" r="1.5" fill="#808080"/>
<circle cx="137.5" cy="57.5" r="1.5" fill="#808080"/>
<circle cx="71.5" cy="69.5" r="1.5" fill="#808080"/>
<circle cx="137.5" cy="69.5" r="1.5" fill="#808080"/>
</g>
<defs>
<linearGradient id="paint0_linear_1505_1363" x1="33.5" y1="0" x2="33.5" y2="13" gradientUnits="userSpaceOnUse">
<stop stop-color="#FF8E3D"/>
<stop offset="1" stop-color="#FF6F3D"/>
</linearGradient>
<clipPath id="clip0_1505_1363">
<rect width="208" height="80" fill="white"/>
</clipPath>
</defs>
</svg>
