<svg width="208" height="80" viewBox="0 0 208 80" fill="none" xmlns="http://www.w3.org/2000/svg">
<rect x="89.5" y="7.5" width="92" height="66" rx="2.5" fill="white" stroke="#E2E2E2"/>
<rect x="103" y="16" width="47" height="3" rx="1.5" fill="#CCCCCC"/>
<rect x="103.5" y="44.5" width="21" height="9" rx="1.5" fill="white" stroke="#CCCCCC"/>
<rect x="128.5" y="44.5" width="21" height="9" rx="1.5" fill="white" stroke="#CCCCCC"/>
<rect x="153.5" y="44.5" width="21" height="9" rx="1.5" fill="#CCCCCC" stroke="#CCCCCC"/>
<rect x="103.5" y="57.5" width="21" height="9" rx="1.5" fill="white" stroke="#CCCCCC"/>
<rect x="128.5" y="57.5" width="21" height="9" rx="1.5" fill="white" stroke="#CCCCCC"/>
<rect x="153" y="57" width="22" height="10" rx="2" fill="#808080"/>
<path d="M104 30.5H112.657C112.879 30.5 113.095 30.5741 113.271 30.7106L121.109 36.8071C121.583 37.1755 122.272 37.0468 122.581 36.5323L128.915 25.9748C129.225 25.4578 129.919 25.3308 130.392 25.7044L138.401 32.0273C138.755 32.3065 139.251 32.3147 139.614 32.0475L148.5 25.5" stroke="#808080" stroke-linecap="round"/>
<circle cx="148.5" cy="25.5" r="1.5" fill="#444444"/>
<circle cx="104.5" cy="30.5" r="1.5" fill="#444444"/>
<rect x="47.5" y="13.5" width="49" height="54" fill="#E2E2E2" stroke="#808080"/>
<rect x="51.5" y="17.5" width="41" height="11" rx="1.5" fill="white" stroke="#808080"/>
<circle cx="47.5" cy="13.5" r="1.5" fill="#808080"/>
<circle cx="47.5" cy="67.5" r="1.5" fill="#808080"/>
<circle cx="96.5" cy="13.5" r="1.5" fill="#808080"/>
<circle cx="96.5" cy="67.5" r="1.5" fill="#808080"/>
<rect x="51" y="34" width="12" height="8" rx="1" fill="#808080"/>
<rect x="51" y="45" width="12" height="8" rx="1" fill="#808080"/>
<rect x="51" y="56" width="12" height="8" rx="1" fill="#808080"/>
<rect x="66" y="34" width="12" height="8" rx="1" fill="#808080"/>
<rect x="66" y="45" width="12" height="8" rx="1" fill="#808080"/>
<rect x="66" y="56" width="12" height="8" rx="1" fill="#808080"/>
<rect x="81" y="34" width="12" height="8" rx="1" fill="#808080"/>
<rect x="82" y="45" width="11" height="19" rx="1" fill="#FF6F3D"/>
<circle cx="164" cy="30" r="10" fill="white"/>
<path d="M163.997 18C158.487 18 154 22.4858 154 27.9991C154 33.5125 158.487 38 163.997 38C169.508 38 174 33.5125 174 27.9991C174 22.4858 169.508 18 163.997 18ZM163.983 20.7778C164.48 20.7681 164.886 21.1742 164.877 21.6726V22.7714C166.222 23.0993 167.296 24.1463 167.296 25.5334C167.323 26.7324 165.515 26.7324 165.543 25.5334C165.543 25.0113 164.957 24.4293 164.033 24.4144C164.011 24.4144 163.989 24.4135 163.968 24.4126C163.04 24.4249 162.456 25.0095 162.456 25.5334C162.456 26.0635 163.052 26.6568 163.997 26.6568C166.033 26.6568 167.852 28.0624 167.852 29.9989C167.852 31.6489 166.528 32.9042 164.877 33.2426V34.3274C164.851 35.4727 163.15 35.4727 163.124 34.3274V33.2444C161.472 32.9086 160.147 31.6515 160.147 29.9989C160.033 28.7226 162.008 28.7226 161.893 29.9989C161.893 30.7637 162.703 31.5355 163.903 31.5751C163.93 31.5716 163.956 31.5698 163.983 31.568C164.021 31.568 164.059 31.5698 164.096 31.5733C165.294 31.5311 166.099 30.762 166.099 29.9989C166.099 29.214 165.251 28.4149 163.997 28.4149C162.27 28.4149 160.703 27.215 160.703 25.5334C160.703 24.1436 161.778 23.0958 163.124 22.7697V21.6726C163.116 21.1874 163.5 20.7874 163.983 20.7778Z" fill="#808080"/>
</svg>
