<svg width="208" height="80" viewBox="0 0 208 80" fill="none" xmlns="http://www.w3.org/2000/svg">
<g clip-path="url(#clip0_1485_916)">
<rect opacity="0.5" x="0.5" y="0.5" width="207" height="79" rx="1.5" stroke="#AAAAAA"/>
<rect x="123" y="49" width="14" height="17" rx="1" fill="#808080"/>
<rect x="142" y="37" width="14" height="29" rx="1" fill="#808080"/>
<rect x="161" y="30" width="14" height="36" rx="1" fill="#808080"/>
<rect x="180" y="17" width="14" height="49" rx="1" fill="#808080"/>
<rect x="16.5" y="15.5" width="44" height="35" fill="white" stroke="#808080"/>
<circle cx="16.5" cy="50.5" r="1.5" fill="#808080"/>
<circle cx="16.5" cy="15.5" r="1.5" fill="#808080"/>
<circle cx="60.5" cy="15.5" r="1.5" fill="#808080"/>
<circle cx="60.5" cy="42.5" r="16" fill="white" stroke="#808080"/>
<circle cx="46.5" cy="50.5" r="1.5" fill="#808080"/>
<circle cx="60.5" cy="26.5" r="1.5" fill="#808080"/>
<rect x="88.5" y="30.5" width="23" height="23" rx="2.5" fill="#FF6F3D" stroke="#444444"/>
<path d="M88 45L88 39L96.75 39C97.3023 39 97.75 38.5523 97.75 38L97.75 35.4888C97.75 34.5876 98.8484 34.1462 99.472 34.7969L105.712 41.3081C106.083 41.6949 106.083 42.3051 105.712 42.6919L99.472 49.2031C98.8484 49.8538 97.75 49.4124 97.75 48.5112L97.75 46C97.75 45.4477 97.3023 45 96.75 45L88 45Z" fill="white"/>
</g>
<defs>
<clipPath id="clip0_1485_916">
<rect width="208" height="80" rx="1" fill="white"/>
</clipPath>
</defs>
</svg>
