<svg width="208" height="80" viewBox="0 0 208 80" fill="none" xmlns="http://www.w3.org/2000/svg">
<g clip-path="url(#clip0_1485_839)">
<rect opacity="0.5" x="0.5" y="0.5" width="207" height="79" rx="1.5" stroke="#AAAAAA"/>
<g opacity="0.5">
<rect x="50" y="48" width="36" height="15" fill="#D6D6D6"/>
<rect x="50" y="32" width="36" height="15" fill="#D6D6D6"/>
<rect x="50" y="16" width="36" height="15" fill="#D6D6D6"/>
</g>
<rect x="87" y="48" width="35" height="15" fill="#FF6F3D"/>
<rect x="87" y="32" width="35" height="15" fill="#FF6F3D"/>
<rect x="87" y="16" width="35" height="15" fill="#FF6F3D"/>
<g opacity="0.5">
<rect x="123" y="48" width="35" height="15" fill="#D6D6D6"/>
<rect x="123" y="32" width="35" height="15" fill="#D6D6D6"/>
<rect x="123" y="16" width="35" height="15" fill="#D6D6D6"/>
</g>
<line opacity="0.5" x1="14.5" y1="2.18557e-08" x2="14.5" y2="80" stroke="#AAAAAA"/>
<line opacity="0.5" x1="50.5" y1="2.18557e-08" x2="50.5" y2="80" stroke="#AAAAAA"/>
<line opacity="0.5" x1="86.5" y1="2.18557e-08" x2="86.5" y2="80" stroke="#AAAAAA"/>
<line opacity="0.5" x1="122.5" y1="2.18557e-08" x2="122.5" y2="80" stroke="#AAAAAA"/>
<line opacity="0.5" x1="158.5" y1="2.18557e-08" x2="158.5" y2="80" stroke="#AAAAAA"/>
<line opacity="0.5" x1="194.5" y1="2.18557e-08" x2="194.5" y2="80" stroke="#AAAAAA"/>
<g opacity="0.5">
<line y1="15.5" x2="208" y2="15.5" stroke="#AAAAAA"/>
<line y1="31.5" x2="208" y2="31.5" stroke="#AAAAAA"/>
<line y1="47.5" x2="208" y2="47.5" stroke="#AAAAAA"/>
<line y1="63.5" x2="208" y2="63.5" stroke="#AAAAAA"/>
</g>
<rect x="28.5" y="36.5" width="46" height="31" fill="white"/>
<rect x="28.5" y="36.5" width="46" height="31" stroke="#808080"/>
<path fill-rule="evenodd" clip-rule="evenodd" d="M51.4998 42.5C45.4496 42.5 39.9629 45.8318 35.9143 51.2437C35.5839 51.687 35.5839 52.3065 35.9143 52.7498C39.9629 58.1682 45.4496 61.5 51.4998 61.5C57.5501 61.5 63.0368 58.1682 67.0854 52.7563C67.4158 52.313 67.4158 51.6935 67.0854 51.2502C63.0368 45.8318 57.5501 42.5 51.4998 42.5ZM51.9126 58.3204C48.0932 58.5607 44.9391 55.4128 45.1794 51.5873C45.3765 48.4332 47.933 45.8767 51.0871 45.6796C54.9065 45.4393 58.0605 48.5872 57.8203 52.4127C57.617 55.5606 55.0605 58.1171 51.9126 58.3204ZM51.7029 55.1602C49.7928 55.2803 48.2144 53.7074 48.3402 51.7969C48.4374 50.2183 49.7184 48.9427 51.2968 48.8398C53.2069 48.7197 54.7853 50.2926 54.6595 52.2031C54.5565 53.7875 53.2755 55.063 51.7029 55.1602Z" fill="#FF6F3D"/>
<circle cx="28.5" cy="67.5" r="1.5" fill="#808080"/>
<circle cx="28.5" cy="36.5" r="1.5" fill="#808080"/>
<circle cx="74.5" cy="67.5" r="1.5" fill="#808080"/>
<circle cx="74.5" cy="36.5" r="1.5" fill="#808080"/>
</g>
<defs>
<clipPath id="clip0_1485_839">
<rect width="208" height="80" rx="1" fill="white"/>
</clipPath>
</defs>
</svg>
