<svg width="208" height="80" viewBox="0 0 208 80" fill="none" xmlns="http://www.w3.org/2000/svg">
<rect width="208" height="80" fill="white"/>
<rect x="0.5" y="0.5" width="167" height="79" rx="1.5" fill="#F5F5F5" stroke="#CCCCCC"/>
<line y1="20.5" x2="168" y2="20.5" stroke="#CCCCCC"/>
<line x1="147.5" y1="2.18557e-08" x2="147.5" y2="80" stroke="#CCCCCC"/>
<line y1="51.5" x2="168" y2="51.5" stroke="#CCCCCC"/>
<line x1="19.5" y1="2.18557e-08" x2="19.5" y2="80" stroke="#CCCCCC"/>
<rect x="19.5" y="20.5" width="128" height="31" fill="white" stroke="#444444"/>
<circle cx="19.5" cy="20.5" r="1.5" fill="#444444"/>
<circle cx="19.5" cy="51.5" r="1.5" fill="#444444"/>
<circle cx="83.5" cy="51.5" r="1.5" fill="#444444"/>
<circle cx="83.5" cy="20.5" r="1.5" fill="#444444"/>
<circle cx="147.5" cy="20.5" r="1.5" fill="#444444"/>
<circle cx="147.5" cy="51.5" r="1.5" fill="#444444"/>
<line x1="83.5" y1="20" x2="83.5" y2="51" stroke="#444444"/>
<path d="M39.2929 35.2929C38.9024 35.6834 38.9024 36.3166 39.2929 36.7071L45.6569 43.0711C46.0474 43.4616 46.6805 43.4616 47.0711 43.0711C47.4616 42.6805 47.4616 42.0474 47.0711 41.6569L41.4142 36L47.0711 30.3431C47.4616 29.9526 47.4616 29.3195 47.0711 28.9289C46.6805 28.5384 46.0474 28.5384 45.6569 28.9289L39.2929 35.2929ZM80 35L60 35L60 37L80 37L80 35ZM60 35L40 35L40 37L60 37L60 35Z" fill="#FF6F3D"/>
<path d="M126.707 36.7071C127.098 36.3166 127.098 35.6834 126.707 35.2929L120.343 28.9289C119.953 28.5384 119.319 28.5384 118.929 28.9289C118.538 29.3195 118.538 29.9526 118.929 30.3431L124.586 36L118.929 41.6569C118.538 42.0474 118.538 42.6805 118.929 43.0711C119.319 43.4616 119.953 43.4616 120.343 43.0711L126.707 36.7071ZM86 37H106V35H86V37ZM106 37L126 37V35L106 35V37Z" fill="#FF6F3D"/>
</svg>
