<svg width="208" height="80" viewBox="0 0 208 80" fill="none" xmlns="http://www.w3.org/2000/svg">
<rect opacity="0.5" x="20.5" y="0.5" width="167" height="79" rx="1.5" stroke="#AAAAAA"/>
<g opacity="0.5">
<line x1="20" y1="20.5" x2="188" y2="20.5" stroke="#AAAAAA"/>
<line x1="167.5" y1="2.18557e-08" x2="167.5" y2="80" stroke="#AAAAAA"/>
<line x1="104.5" y1="2.18557e-08" x2="104.5" y2="80" stroke="#AAAAAA"/>
<line x1="20" y1="51.5" x2="188" y2="51.5" stroke="#AAAAAA"/>
<line x1="39.5" y1="2.18557e-08" x2="39.5" y2="80" stroke="#AAAAAA"/>
</g>
<rect x="39.5" y="20.5" width="128" height="31" fill="white" stroke="#808080"/>
<circle cx="39.5" cy="20.5" r="1.5" fill="#808080"/>
<circle cx="39.5" cy="51.5" r="1.5" fill="#808080"/>
<circle cx="167.5" cy="20.5" r="1.5" fill="#808080"/>
<circle cx="167.5" cy="51.5" r="1.5" fill="#808080"/>
<path d="M53.2929 35.2929C52.9024 35.6834 52.9024 36.3166 53.2929 36.7071L59.6569 43.0711C60.0474 43.4616 60.6805 43.4616 61.0711 43.0711C61.4616 42.6805 61.4616 42.0474 61.0711 41.6569L55.4142 36L61.0711 30.3431C61.4616 29.9526 61.4616 29.3195 61.0711 28.9289C60.6805 28.5384 60.0474 28.5384 59.6569 28.9289L53.2929 35.2929ZM156.707 36.7071C157.098 36.3166 157.098 35.6834 156.707 35.2929L150.343 28.9289C149.953 28.5384 149.319 28.5384 148.929 28.9289C148.538 29.3195 148.538 29.9526 148.929 30.3431L154.586 36L148.929 41.6569C148.538 42.0474 148.538 42.6805 148.929 43.0711C149.319 43.4616 149.953 43.4616 150.343 43.0711L156.707 36.7071ZM54 37L156 37V35L54 35V37Z" fill="#FF6F3D"/>
</svg>
