<svg width="208" height="80" viewBox="0 0 208 80" fill="none" xmlns="http://www.w3.org/2000/svg">
<rect width="208" height="80" fill="white"/>
<rect x="0.5" y="0.5" width="167" height="79" rx="1.5" fill="#F5F5F5" stroke="#CCCCCC"/>
<line y1="15.5" x2="168" y2="15.5" stroke="#CCCCCC"/>
<line x1="125.5" y1="2.18557e-08" x2="125.5" y2="80" stroke="#CCCCCC"/>
<line x1="94.5" y1="2.18557e-08" x2="94.5" y2="80" stroke="#CCCCCC"/>
<line y1="46.5" x2="168" y2="46.5" stroke="#CCCCCC"/>
<line y1="66.5" x2="168" y2="66.5" stroke="#CCCCCC"/>
<line x1="31.5" y1="2.18557e-08" x2="31.5" y2="80" stroke="#CCCCCC"/>
<rect x="31.5" y="15.5" width="63" height="31" fill="white" stroke="#444444"/>
<circle cx="31.5" cy="15.5" r="1.5" fill="#444444"/>
<circle cx="31.5" cy="46.5" r="1.5" fill="#444444"/>
<circle cx="94.5" cy="15.5" r="1.5" fill="#444444"/>
<circle cx="94.5" cy="46.5" r="1.5" fill="#444444"/>
<path d="M49.2783 31.4521C49.2783 33.5674 48.6748 35.1875 47.4678 36.3125C46.2666 37.4375 44.5293 38 42.2559 38H38.6172V25.1504H42.6514C44.749 25.1504 46.3779 25.7041 47.5381 26.8115C48.6982 27.9189 49.2783 29.4658 49.2783 31.4521ZM46.4482 31.5225C46.4482 28.7627 45.2295 27.3828 42.792 27.3828H41.3418V35.75H42.5107C45.1357 35.75 46.4482 34.3408 46.4482 31.5225ZM57.9707 38L57.4521 36.6641H57.3818C56.9307 37.2324 56.4648 37.6279 55.9844 37.8506C55.5098 38.0674 54.8887 38.1758 54.1211 38.1758C53.1777 38.1758 52.4336 37.9062 51.8887 37.3672C51.3496 36.8281 51.0801 36.0605 51.0801 35.0645C51.0801 34.0215 51.4434 33.2539 52.1699 32.7617C52.9023 32.2637 54.0039 31.9883 55.4746 31.9355L57.1797 31.8828V31.4521C57.1797 30.4561 56.6699 29.958 55.6504 29.958C54.8652 29.958 53.9424 30.1953 52.8818 30.6699L51.9941 28.8594C53.125 28.2676 54.3789 27.9717 55.7559 27.9717C57.0742 27.9717 58.085 28.2588 58.7881 28.833C59.4912 29.4072 59.8428 30.2803 59.8428 31.4521V38H57.9707ZM57.1797 33.4473L56.1426 33.4824C55.3633 33.5059 54.7832 33.6465 54.4023 33.9043C54.0215 34.1621 53.8311 34.5547 53.8311 35.082C53.8311 35.8379 54.2646 36.2158 55.1318 36.2158C55.7529 36.2158 56.248 36.0371 56.6172 35.6797C56.9922 35.3223 57.1797 34.8477 57.1797 34.2559V33.4473ZM66.751 36.04C67.2197 36.04 67.7822 35.9375 68.4385 35.7324V37.7275C67.7705 38.0264 66.9502 38.1758 65.9775 38.1758C64.9053 38.1758 64.123 37.9062 63.6309 37.3672C63.1445 36.8223 62.9014 36.0078 62.9014 34.9238V30.1865H61.6182V29.0527L63.0947 28.1562L63.8682 26.082H65.582V28.1738H68.333V30.1865H65.582V34.9238C65.582 35.3047 65.6875 35.5859 65.8984 35.7676C66.1152 35.9492 66.3994 36.04 66.751 36.04ZM76.6738 38L76.1553 36.6641H76.085C75.6338 37.2324 75.168 37.6279 74.6875 37.8506C74.2129 38.0674 73.5918 38.1758 72.8242 38.1758C71.8809 38.1758 71.1367 37.9062 70.5918 37.3672C70.0527 36.8281 69.7832 36.0605 69.7832 35.0645C69.7832 34.0215 70.1465 33.2539 70.873 32.7617C71.6055 32.2637 72.707 31.9883 74.1777 31.9355L75.8828 31.8828V31.4521C75.8828 30.4561 75.373 29.958 74.3535 29.958C73.5684 29.958 72.6455 30.1953 71.585 30.6699L70.6973 28.8594C71.8281 28.2676 73.082 27.9717 74.459 27.9717C75.7773 27.9717 76.7881 28.2588 77.4912 28.833C78.1943 29.4072 78.5459 30.2803 78.5459 31.4521V38H76.6738ZM75.8828 33.4473L74.8457 33.4824C74.0664 33.5059 73.4863 33.6465 73.1055 33.9043C72.7246 34.1621 72.5342 34.5547 72.5342 35.082C72.5342 35.8379 72.9678 36.2158 73.835 36.2158C74.4561 36.2158 74.9512 36.0371 75.3203 35.6797C75.6953 35.3223 75.8828 34.8477 75.8828 34.2559V33.4473Z" fill="url(#paint0_linear)"/>
<path d="M87.257 29.3433L98.775 15.1996C99.1178 14.7786 99.0629 14.1625 98.6511 13.8083L95.6703 11.244C95.24 10.8739 94.5878 10.9315 94.2297 11.3713L82.7555 25.4612C82.6391 25.6041 82.5644 25.7762 82.5396 25.9586L82.0095 29.8609C81.9075 30.6117 82.6457 31.1999 83.3587 30.9358L86.8258 29.6516C86.9946 29.5891 87.1435 29.4826 87.257 29.3433Z" fill="url(#paint1_linear)"/>
<defs>
<linearGradient id="paint0_linear" x1="58.5" y1="19" x2="58.5" y2="44" gradientUnits="userSpaceOnUse">
<stop stop-color="#FF8E3D"/>
<stop offset="1" stop-color="#FF6F3D"/>
</linearGradient>
<linearGradient id="paint1_linear" x1="89.3215" y1="10.6119" x2="91.2204" y2="29.868" gradientUnits="userSpaceOnUse">
<stop stop-color="#FF8E3D"/>
<stop offset="1" stop-color="#FF6F3D"/>
</linearGradient>
</defs>
</svg>
