<svg width="208" height="80" viewBox="0 0 208 80" fill="none" xmlns="http://www.w3.org/2000/svg">
<rect opacity="0.5" x="20.5" y="0.5" width="167" height="79" rx="1.5" stroke="#AAAAAA"/>
<g opacity="0.5">
<line x1="20" y1="15.5" x2="188" y2="15.5" stroke="#AAAAAA"/>
<line x1="145.5" y1="2.18557e-08" x2="145.5" y2="80" stroke="#AAAAAA"/>
<line x1="114.5" y1="2.18557e-08" x2="114.5" y2="80" stroke="#AAAAAA"/>
<line x1="20" y1="46.5" x2="188" y2="46.5" stroke="#AAAAAA"/>
<line x1="20" y1="66.5" x2="188" y2="66.5" stroke="#AAAAAA"/>
<line x1="51.5" y1="2.18557e-08" x2="51.5" y2="80" stroke="#AAAAAA"/>
</g>
<rect x="51.5" y="15.5" width="63" height="31" fill="white" stroke="#808080"/>
<circle cx="51.5" cy="15.5" r="1.5" fill="#808080"/>
<circle cx="51.5" cy="46.5" r="1.5" fill="#808080"/>
<circle cx="114.5" cy="15.5" r="1.5" fill="#808080"/>
<circle cx="114.5" cy="46.5" r="1.5" fill="#808080"/>
<path d="M69.2783 31.4521C69.2783 32.8994 69 34.1094 68.4434 35.082C67.8926 36.0488 67.0928 36.7783 66.0439 37.2705C64.9951 37.7568 63.7324 38 62.2559 38H58.6172V25.1504H62.6514C63.999 25.1504 65.168 25.3906 66.1582 25.8711C67.1484 26.3457 67.916 27.0518 68.4609 27.9893C69.0059 28.9209 69.2783 30.0752 69.2783 31.4521ZM66.4482 31.5225C66.4482 30.5732 66.3076 29.7939 66.0264 29.1846C65.751 28.5693 65.3408 28.1152 64.7959 27.8223C64.2568 27.5293 63.5889 27.3828 62.792 27.3828H61.3418V35.75H62.5107C63.8408 35.75 64.8281 35.3955 65.4727 34.6865C66.123 33.9775 66.4482 32.9229 66.4482 31.5225ZM75.7559 27.9717C77.0742 27.9717 78.085 28.2588 78.7881 28.833C79.4912 29.4072 79.8428 30.2803 79.8428 31.4521V38H77.9707L77.4521 36.6641H77.3818C77.1006 37.0156 76.8135 37.3027 76.5205 37.5254C76.2275 37.748 75.8906 37.9121 75.5098 38.0176C75.1289 38.123 74.666 38.1758 74.1211 38.1758C73.541 38.1758 73.0195 38.0645 72.5566 37.8418C72.0996 37.6191 71.7393 37.2793 71.4756 36.8223C71.2119 36.3594 71.0801 35.7734 71.0801 35.0645C71.0801 34.0215 71.4463 33.2539 72.1787 32.7617C72.9111 32.2637 74.0098 31.9883 75.4746 31.9355L77.1797 31.8828V31.4521C77.1797 30.9365 77.0449 30.5586 76.7754 30.3184C76.5059 30.0781 76.1309 29.958 75.6504 29.958C75.1758 29.958 74.71 30.0254 74.2529 30.1602C73.7959 30.2949 73.3389 30.4648 72.8818 30.6699L71.9941 28.8594C72.5156 28.584 73.0986 28.3672 73.7432 28.209C74.3936 28.0508 75.0645 27.9717 75.7559 27.9717ZM77.1797 33.4473L76.1426 33.4824C75.2754 33.5059 74.6719 33.6611 74.332 33.9482C73.998 34.2354 73.8311 34.6133 73.8311 35.082C73.8311 35.4922 73.9512 35.7852 74.1914 35.9609C74.4316 36.1309 74.7451 36.2158 75.1318 36.2158C75.7061 36.2158 76.1895 36.0459 76.582 35.7061C76.9805 35.3662 77.1797 34.8828 77.1797 34.2559V33.4473ZM86.751 36.04C87.0439 36.04 87.3281 36.0107 87.6035 35.9521C87.8848 35.8936 88.1631 35.8203 88.4385 35.7324V37.7275C88.1514 37.8564 87.7939 37.9619 87.3662 38.0439C86.9443 38.1318 86.4814 38.1758 85.9775 38.1758C85.3916 38.1758 84.8643 38.082 84.3955 37.8945C83.9326 37.7012 83.5664 37.3701 83.2969 36.9014C83.0332 36.4268 82.9014 35.7676 82.9014 34.9238V30.1865H81.6182V29.0527L83.0947 28.1562L83.8682 26.082H85.582V28.1738H88.333V30.1865H85.582V34.9238C85.582 35.2988 85.6875 35.5801 85.8984 35.7676C86.1152 35.9492 86.3994 36.04 86.751 36.04ZM94.459 27.9717C95.7773 27.9717 96.7881 28.2588 97.4912 28.833C98.1943 29.4072 98.5459 30.2803 98.5459 31.4521V38H96.6738L96.1553 36.6641H96.085C95.8037 37.0156 95.5166 37.3027 95.2236 37.5254C94.9307 37.748 94.5938 37.9121 94.2129 38.0176C93.832 38.123 93.3691 38.1758 92.8242 38.1758C92.2441 38.1758 91.7227 38.0645 91.2598 37.8418C90.8027 37.6191 90.4424 37.2793 90.1787 36.8223C89.915 36.3594 89.7832 35.7734 89.7832 35.0645C89.7832 34.0215 90.1494 33.2539 90.8818 32.7617C91.6143 32.2637 92.7129 31.9883 94.1777 31.9355L95.8828 31.8828V31.4521C95.8828 30.9365 95.748 30.5586 95.4785 30.3184C95.209 30.0781 94.834 29.958 94.3535 29.958C93.8789 29.958 93.4131 30.0254 92.9561 30.1602C92.499 30.2949 92.042 30.4648 91.585 30.6699L90.6973 28.8594C91.2188 28.584 91.8018 28.3672 92.4463 28.209C93.0967 28.0508 93.7676 27.9717 94.459 27.9717ZM95.8828 33.4473L94.8457 33.4824C93.9785 33.5059 93.375 33.6611 93.0352 33.9482C92.7012 34.2354 92.5342 34.6133 92.5342 35.082C92.5342 35.4922 92.6543 35.7852 92.8945 35.9609C93.1348 36.1309 93.4482 36.2158 93.835 36.2158C94.4092 36.2158 94.8926 36.0459 95.2852 35.7061C95.6836 35.3662 95.8828 34.8828 95.8828 34.2559V33.4473Z" fill="url(#paint0_linear_1503_8093)"/>
<path d="M107.257 29.3433L118.775 15.1996C119.118 14.7786 119.063 14.1625 118.651 13.8083L115.67 11.244C115.24 10.8739 114.588 10.9315 114.23 11.3713L102.756 25.4612C102.639 25.6041 102.564 25.7762 102.54 25.9586L102.009 29.8609C101.907 30.6117 102.646 31.1999 103.359 30.9358L106.826 29.6516C106.995 29.5891 107.144 29.4826 107.257 29.3433Z" fill="url(#paint1_linear_1503_8093)"/>
<defs>
<linearGradient id="paint0_linear_1503_8093" x1="78.5" y1="19" x2="78.5" y2="44" gradientUnits="userSpaceOnUse">
<stop stop-color="#FF8E3D"/>
<stop offset="1" stop-color="#FF6F3D"/>
</linearGradient>
<linearGradient id="paint1_linear_1503_8093" x1="109.322" y1="10.6119" x2="111.22" y2="29.868" gradientUnits="userSpaceOnUse">
<stop stop-color="#FF8E3D"/>
<stop offset="1" stop-color="#FF6F3D"/>
</linearGradient>
</defs>
</svg>
