<svg width="208" height="80" viewBox="0 0 208 80" fill="none" xmlns="http://www.w3.org/2000/svg">
<path d="M29 23.5H81C81.2761 23.5 81.5 23.7239 81.5 24V54C81.5 54.2761 81.2761 54.5 81 54.5H67C66.1716 54.5 65.5 55.1716 65.5 56V63.0287C65.5 63.3816 65.1442 63.6235 64.816 63.4936L42.3614 54.6053C42.1856 54.5357 41.9983 54.5 41.8093 54.5H29C28.7239 54.5 28.5 54.2761 28.5 54V24C28.5 23.7239 28.7239 23.5 29 23.5Z" fill="white" stroke="#808080"/>
<circle cx="28.5" cy="23.5" r="1.5" fill="#808080"/>
<circle cx="28.5" cy="54.5" r="1.5" fill="#808080"/>
<circle cx="81.5" cy="23.5" r="1.5" fill="#808080"/>
<circle cx="81.5" cy="54.5" r="1.5" fill="#808080"/>
<circle cx="65.5" cy="54.5" r="1.5" fill="#808080"/>
<circle cx="41.5" cy="54.5" r="1.5" fill="#808080"/>
<circle cx="65.5" cy="63.5" r="1.5" fill="#808080"/>
<path d="M61.1373 32C61.3529 32 61.5447 32.1104 61.7124 32.3313C61.8802 32.5321 61.976 32.7329 62 32.9337C62 33.0944 61.9281 33.2249 61.7843 33.3253C60.2266 34.2892 59.1122 35.1325 58.4412 35.8554C57.7702 36.5783 57.4346 37.4016 57.4346 38.3253C57.4346 38.8675 57.6144 39.3092 57.9739 39.6506C58.3333 39.9719 58.9205 40.2631 59.7353 40.5241C61.2451 41.0462 62 42.0602 62 43.5663C62 44.5301 61.6166 45.3434 60.8497 46.006C60.0828 46.6687 58.9684 47 57.5065 47C55.9009 47 54.6187 46.508 53.6601 45.5241C52.7015 44.5402 52.2222 43.3052 52.2222 41.8193C52.2222 40.1125 52.7255 38.5261 53.732 37.0602C54.7386 35.5944 56.1046 34.3896 57.8301 33.4458C59.5556 32.4819 60.658 32 61.1373 32ZM48.915 32C49.1307 32 49.3224 32.1104 49.4902 32.3313C49.658 32.5321 49.7538 32.7329 49.7778 32.9337C49.7778 33.0944 49.7059 33.2249 49.5621 33.3253C48.0044 34.2892 46.89 35.1325 46.219 35.8554C45.5479 36.5783 45.2124 37.4016 45.2124 38.3253C45.2124 38.8675 45.3922 39.3092 45.7516 39.6506C46.1111 39.9719 46.6983 40.2631 47.5131 40.5241C49.0229 41.0462 49.7778 42.0602 49.7778 43.5663C49.7778 44.5301 49.3943 45.3434 48.6275 46.006C47.8606 46.6687 46.7462 47 45.2843 47C43.6786 47 42.3965 46.508 41.4379 45.5241C40.4793 44.5402 40 43.3052 40 41.8193C40 40.1125 40.5033 38.5261 41.5098 37.0602C42.5163 35.5944 43.8824 34.3896 45.6078 33.4458C47.3333 32.4819 48.4357 32 48.915 32Z" fill="#FF6F3D"/>
<rect x="72.5" y="39.5" width="27" height="27" rx="3.5" fill="#444444" stroke="white"/>
<rect x="78.375" y="51.8799" width="15.25" height="2.25" rx="0.5" fill="white" stroke="white"/>
<path d="M169 15.5H117C116.724 15.5 116.5 15.7239 116.5 16V46C116.5 46.2761 116.724 46.5 117 46.5H131C131.828 46.5 132.5 47.1716 132.5 48V53.8898C132.5 54.3116 132.99 54.5438 133.317 54.2767L142.407 46.8391C142.675 46.6198 143.011 46.5 143.357 46.5H169C169.276 46.5 169.5 46.2761 169.5 46V16C169.5 15.7239 169.276 15.5 169 15.5Z" fill="white" stroke="#808080"/>
<circle cx="1.5" cy="1.5" r="1.5" transform="matrix(-1 0 0 1 171 14)" fill="#808080"/>
<circle cx="1.5" cy="1.5" r="1.5" transform="matrix(-1 0 0 1 171 45)" fill="#808080"/>
<circle cx="1.5" cy="1.5" r="1.5" transform="matrix(-1 0 0 1 134 53)" fill="#808080"/>
<circle cx="1.5" cy="1.5" r="1.5" transform="matrix(-1 0 0 1 118 14)" fill="#808080"/>
<circle cx="1.5" cy="1.5" r="1.5" transform="matrix(-1 0 0 1 118 45)" fill="#808080"/>
<path d="M130.863 23C130.647 23 130.455 23.1104 130.288 23.3313C130.12 23.5321 130.024 23.7329 130 23.9337C130 24.0944 130.072 24.2249 130.216 24.3253C131.773 25.2892 132.888 26.1325 133.559 26.8554C134.23 27.5783 134.565 28.4016 134.565 29.3253C134.565 29.8675 134.386 30.3092 134.026 30.6506C133.667 30.9719 133.08 31.2631 132.265 31.5241C130.755 32.0462 130 33.0602 130 34.5663C130 35.5301 130.383 36.3434 131.15 37.006C131.917 37.6687 133.032 38 134.493 38C136.099 38 137.381 37.508 138.34 36.5241C139.298 35.5402 139.778 34.3052 139.778 32.8193C139.778 31.1125 139.275 29.5261 138.268 28.0602C137.261 26.5944 135.895 25.3896 134.17 24.4458C132.444 23.4819 131.342 23 130.863 23ZM143.085 23C142.869 23 142.678 23.1104 142.51 23.3313C142.342 23.5321 142.246 23.7329 142.222 23.9337C142.222 24.0944 142.294 24.2249 142.438 24.3253C143.996 25.2892 145.11 26.1325 145.781 26.8554C146.452 27.5783 146.788 28.4016 146.788 29.3253C146.788 29.8675 146.608 30.3092 146.248 30.6506C145.889 30.9719 145.302 31.2631 144.487 31.5241C142.977 32.0462 142.222 33.0602 142.222 34.5663C142.222 35.5301 142.606 36.3434 143.373 37.006C144.139 37.6687 145.254 38 146.716 38C148.321 38 149.603 37.508 150.562 36.5241C151.521 35.5402 152 34.3052 152 32.8193C152 31.1125 151.497 29.5261 150.49 28.0602C149.484 26.5944 148.118 25.3896 146.392 24.4458C144.667 23.4819 143.564 23 143.085 23Z" fill="#FF6F3D"/>
<rect x="154.5" y="35.5" width="27" height="27" rx="3.5" fill="#FF6F3D" stroke="white"/>
<rect x="159.875" y="47.3799" width="16.25" height="3.25" rx="1" fill="white"/>
<rect x="166.353" y="57.125" width="16.25" height="3.25" rx="1" transform="rotate(-90 166.353 57.125)" fill="white"/>
</svg>
