<svg width="208" height="80" viewBox="0 0 208 80" fill="none" xmlns="http://www.w3.org/2000/svg">
<rect x="97.5" y="8.5" width="100" height="59" rx="2.5" fill="white" stroke="#E2E2E2"/>
<rect x="62.5" y="41.5" width="53" height="21" fill="white" stroke="#808080"/>
<path d="M79.1855 51.6348C79.1855 53.0449 78.7832 54.125 77.9785 54.875C77.1777 55.625 76.0195 56 74.5039 56H72.0781V47.4336H74.7676C76.166 47.4336 77.252 47.8027 78.0254 48.541C78.7988 49.2793 79.1855 50.3105 79.1855 51.6348ZM77.2988 51.6816C77.2988 49.8418 76.4863 48.9219 74.8613 48.9219H73.8945V54.5H74.6738C76.4238 54.5 77.2988 53.5605 77.2988 51.6816Z" fill="#444444"/>
<path d="M84.9805 56L84.6348 55.1094H84.5879C84.2871 55.4883 83.9766 55.752 83.6562 55.9004C83.3398 56.0449 82.9258 56.1172 82.4141 56.1172C81.7852 56.1172 81.2891 55.9375 80.9258 55.5781C80.5664 55.2188 80.3867 54.707 80.3867 54.043C80.3867 53.3477 80.6289 52.8359 81.1133 52.5078C81.6016 52.1758 82.3359 51.9922 83.3164 51.957L84.4531 51.9219V51.6348C84.4531 50.9707 84.1133 50.6387 83.4336 50.6387C82.9102 50.6387 82.2949 50.7969 81.5879 51.1133L80.9961 49.9062C81.75 49.5117 82.5859 49.3145 83.5039 49.3145C84.3828 49.3145 85.0566 49.5059 85.5254 49.8887C85.9941 50.2715 86.2285 50.8535 86.2285 51.6348V56H84.9805ZM84.4531 52.9648L83.7617 52.9883C83.2422 53.0039 82.8555 53.0977 82.6016 53.2695C82.3477 53.4414 82.2207 53.7031 82.2207 54.0547C82.2207 54.5586 82.5098 54.8105 83.0879 54.8105C83.502 54.8105 83.832 54.6914 84.0781 54.4531C84.3281 54.2148 84.4531 53.8984 84.4531 53.5039V52.9648Z" fill="#444444"/>
<path d="M90.834 54.6934C91.1465 54.6934 91.5215 54.625 91.959 54.4883V55.8184C91.5137 56.0176 90.9668 56.1172 90.3184 56.1172C89.6035 56.1172 89.082 55.9375 88.7539 55.5781C88.4297 55.2148 88.2676 54.6719 88.2676 53.9492V50.791H87.4121V50.0352L88.3965 49.4375L88.9121 48.0547H90.0547V49.4492H91.8887V50.791H90.0547V53.9492C90.0547 54.2031 90.125 54.3906 90.2656 54.5117C90.4102 54.6328 90.5996 54.6934 90.834 54.6934Z" fill="#444444"/>
<path d="M96.002 50.5977C95.623 50.5977 95.3262 50.7188 95.1113 50.9609C94.8965 51.1992 94.7734 51.5391 94.7422 51.9805H97.25C97.2422 51.5391 97.127 51.1992 96.9043 50.9609C96.6816 50.7188 96.3809 50.5977 96.002 50.5977ZM96.2539 56.1172C95.1992 56.1172 94.375 55.8262 93.7812 55.2441C93.1875 54.6621 92.8906 53.8379 92.8906 52.7715C92.8906 51.6738 93.1641 50.8262 93.7109 50.2285C94.2617 49.627 95.0215 49.3262 95.9902 49.3262C96.916 49.3262 97.6367 49.5898 98.1523 50.1172C98.668 50.6445 98.9258 51.373 98.9258 52.3027V53.1699H94.7012C94.7207 53.6777 94.8711 54.0742 95.1523 54.3594C95.4336 54.6445 95.8281 54.7871 96.3359 54.7871C96.7305 54.7871 97.1035 54.7461 97.4551 54.6641C97.8066 54.582 98.1738 54.4512 98.5566 54.2715V55.6543C98.2441 55.8105 97.9102 55.9258 97.5547 56C97.1992 56.0781 96.7656 56.1172 96.2539 56.1172Z" fill="#444444"/>
<circle cx="62.5" cy="41.5" r="1.5" fill="#808080"/>
<circle cx="62.5" cy="62.5" r="1.5" fill="#808080"/>
<circle cx="115.5" cy="41.5" r="1.5" fill="#808080"/>
<circle cx="115.5" cy="62.5" r="1.5" fill="#808080"/>
<rect x="62.5" y="13.5" width="53" height="21" fill="white" stroke="#808080"/>
<path d="M79.6777 28H77.3691L73.6426 21.5195H73.5898C73.6641 22.6641 73.7012 23.4805 73.7012 23.9688V28H72.0781V19.4336H74.3691L78.0898 25.8496H78.1309C78.0723 24.7363 78.043 23.9492 78.043 23.4883V19.4336H79.6777V28Z" fill="#444444"/>
<path d="M85.8594 28L85.5137 27.1094H85.4668C85.166 27.4883 84.8555 27.752 84.5352 27.9004C84.2188 28.0449 83.8047 28.1172 83.293 28.1172C82.6641 28.1172 82.168 27.9375 81.8047 27.5781C81.4453 27.2188 81.2656 26.707 81.2656 26.043C81.2656 25.3477 81.5078 24.8359 81.9922 24.5078C82.4805 24.1758 83.2148 23.9922 84.1953 23.957L85.332 23.9219V23.6348C85.332 22.9707 84.9922 22.6387 84.3125 22.6387C83.7891 22.6387 83.1738 22.7969 82.4668 23.1133L81.875 21.9062C82.6289 21.5117 83.4648 21.3145 84.3828 21.3145C85.2617 21.3145 85.9355 21.5059 86.4043 21.8887C86.873 22.2715 87.1074 22.8535 87.1074 23.6348V28H85.8594ZM85.332 24.9648L84.6406 24.9883C84.1211 25.0039 83.7344 25.0977 83.4805 25.2695C83.2266 25.4414 83.0996 25.7031 83.0996 26.0547C83.0996 26.5586 83.3887 26.8105 83.9668 26.8105C84.3809 26.8105 84.7109 26.6914 84.957 26.4531C85.207 26.2148 85.332 25.8984 85.332 25.5039V24.9648Z" fill="#444444"/>
<path d="M94.8184 28H93.0312V24.1738C93.0312 23.7012 92.9512 23.3477 92.791 23.1133C92.6348 22.875 92.3867 22.7559 92.0469 22.7559C91.5898 22.7559 91.2578 22.9238 91.0508 23.2598C90.8438 23.5957 90.7402 24.1484 90.7402 24.918V28H88.9531V21.4492H90.3184L90.5586 22.2871H90.6582C90.834 21.9863 91.0879 21.752 91.4199 21.584C91.752 21.4121 92.1328 21.3262 92.5625 21.3262C93.543 21.3262 94.207 21.6465 94.5547 22.2871H94.7129C94.8887 21.9824 95.1465 21.7461 95.4863 21.5781C95.8301 21.4102 96.2168 21.3262 96.6465 21.3262C97.3887 21.3262 97.9492 21.5176 98.3281 21.9004C98.7109 22.2793 98.9023 22.8887 98.9023 23.7285V28H97.1094V24.1738C97.1094 23.7012 97.0293 23.3477 96.8691 23.1133C96.7129 22.875 96.4648 22.7559 96.125 22.7559C95.6875 22.7559 95.3594 22.9121 95.1406 23.2246C94.9258 23.5371 94.8184 24.0332 94.8184 24.7129V28Z" fill="#444444"/>
<path d="M103.455 22.5977C103.076 22.5977 102.779 22.7188 102.564 22.9609C102.35 23.1992 102.227 23.5391 102.195 23.9805H104.703C104.695 23.5391 104.58 23.1992 104.357 22.9609C104.135 22.7188 103.834 22.5977 103.455 22.5977ZM103.707 28.1172C102.652 28.1172 101.828 27.8262 101.234 27.2441C100.641 26.6621 100.344 25.8379 100.344 24.7715C100.344 23.6738 100.617 22.8262 101.164 22.2285C101.715 21.627 102.475 21.3262 103.443 21.3262C104.369 21.3262 105.09 21.5898 105.605 22.1172C106.121 22.6445 106.379 23.373 106.379 24.3027V25.1699H102.154C102.174 25.6777 102.324 26.0742 102.605 26.3594C102.887 26.6445 103.281 26.7871 103.789 26.7871C104.184 26.7871 104.557 26.7461 104.908 26.6641C105.26 26.582 105.627 26.4512 106.01 26.2715V27.6543C105.697 27.8105 105.363 27.9258 105.008 28C104.652 28.0781 104.219 28.1172 103.707 28.1172Z" fill="#444444"/>
<circle cx="62.5" cy="13.5" r="1.5" fill="#808080"/>
<circle cx="62.5" cy="34.5" r="1.5" fill="#808080"/>
<circle cx="115.5" cy="13.5" r="1.5" fill="#808080"/>
<circle cx="115.5" cy="34.5" r="1.5" fill="#808080"/>
<rect x="140.5" y="17.5" width="47" height="15" rx="0.5" fill="#D9F4FF" stroke="#9ADAF3"/>
<rect x="140.5" y="43.5" width="47" height="15" rx="0.5" fill="#D9F4FF" stroke="#9ADAF3"/>
<path d="M36.0887 39.5148L35.7136 39.4215L35.5288 39.7608C34.3811 41.8681 33.8427 42.7363 33.4894 43.306L33.4879 43.3085C32.9956 44.1023 32.8366 44.3652 32.0148 46.298L31.9274 46.5036L32.0222 46.7058C33.8637 50.635 33.8906 55.4619 33.9078 60.0308L33.9078 60.0316C33.9103 60.698 33.9128 61.3585 33.9213 62.0065L33.9282 62.5426L34.4626 62.4983C37.1595 62.2745 39.9419 61.6431 42.4088 60.8978L42.4088 60.8979L42.4154 60.8958C43.3195 60.609 43.7353 60.4665 44.8391 60.0576L44.8392 60.0577L44.8486 60.054C47.1319 59.1551 49.2096 57.9378 51.2593 56.6944L51.541 56.5235L51.4951 56.1973C51.4708 56.0241 51.4465 55.8496 51.422 55.6737L51.4182 55.6466C51.0983 53.3494 50.7441 50.8057 49.894 48.5282C49.0357 46.2287 47.6575 44.1596 45.2657 42.8606L45.262 42.8586C42.39 41.3299 37.87 39.9582 36.0887 39.5148ZM29.8671 46.9264L29.9753 46.6984L29.856 46.476L27.7914 42.6238L27.7452 42.5376L27.6699 42.4752C26.7633 41.723 25.5929 41.3543 24.5968 41.0405L24.5542 41.0271C23.9336 40.8316 23.3865 40.6579 22.9334 40.4324L22.7452 40.3387L22.5466 40.4077C22.1548 40.5437 21.7504 40.6805 21.3384 40.8199L21.3287 40.8232C20.0943 41.2407 18.7901 41.6819 17.6218 42.1742C16.4575 42.6646 15.3815 43.2244 14.6306 43.8962L14.6306 43.8963C13.1739 45.1999 12.3113 47.055 11.7503 49.0048C11.1905 50.9503 10.9155 53.0486 10.675 54.8841L10.6728 54.9013C10.616 55.3345 10.5612 55.7528 10.5049 56.1536L10.4705 56.3983L10.644 56.5742C12.2781 58.2314 15.2453 59.6505 18.381 60.6804C21.5336 61.716 24.9475 62.3871 27.5438 62.4995L28.0654 62.5221V62C28.0654 61.8335 28.0658 61.6647 28.0661 61.4942C28.0668 61.1478 28.0675 60.7946 28.0654 60.4394C28.0383 55.8549 28.0181 50.8251 29.8671 46.9264Z" fill="#FEFEFE" stroke="#333333"/>
<path d="M25.4027 39.6697L25.3388 39.9336L25.5253 40.1309C26.684 41.3566 28.8215 41.8824 30.8225 41.873C31.8403 41.8682 32.8628 41.7259 33.7657 41.4435C34.6629 41.163 35.4772 40.7329 36.0388 40.1275L36.2404 39.9102L36.1465 39.6291C35.7532 38.4514 35.7233 37.1707 35.7233 35.8433V34.8423L34.923 35.4435C33.6666 36.3873 32.1989 36.9261 30.6322 36.9261C29.1592 36.9261 27.7714 36.4508 26.5691 35.6099L25.7826 35.0597V36.0196C25.7826 37.2391 25.6833 38.5126 25.4027 39.6697Z" fill="#FEFEFE" stroke="#333333"/>
<path d="M39.4701 26.4283C39.676 29.307 38.8204 32.2781 36.8715 34.4963C35.2284 36.36 32.9785 37.5 30.4999 37.5C27.7447 37.5 25.505 36.1689 23.941 34.2155C22.3711 32.2546 21.5 29.685 21.5 27.279C21.5 26.2418 21.6376 25.2436 21.8887 24.3002C24.0092 23.6177 25.3935 22.966 26.3741 22.177C27.1016 21.5916 27.5881 20.9457 27.9899 20.2025C29.3528 22.9108 31.6474 24.4201 33.8782 25.2721C36.0821 26.1138 38.2586 26.3275 39.4701 26.4283Z" fill="#FEFEFE" stroke="#333333"/>
<path d="M34.1558 53.9945L34.1557 53.9938C34.0606 52.8044 33.9335 51.5932 33.7702 50.4554L33.769 50.4471L33.7675 50.4388L33.4642 48.7346L33.4627 48.7262L33.4609 48.7178C33.2957 47.944 33.1033 47.2195 32.8752 46.5674C32.8308 46.4406 32.8311 46.3115 32.8704 46.201L33.4294 44.6296C33.5776 44.2131 33.5332 43.7534 33.3142 43.3731C33.2172 43.2047 33.1247 43.0432 33.0363 42.889C32.6676 42.2455 32.3716 41.7287 32.1226 41.3613C31.9681 41.1332 31.8102 40.9294 31.6411 40.7803C31.4698 40.6293 31.2388 40.4925 30.9506 40.5003C30.6679 40.5079 30.4442 40.6522 30.2789 40.8023C30.1128 40.953 29.9543 41.1565 29.7968 41.3844C29.5731 41.708 29.3087 42.1459 28.9883 42.6764C28.8598 42.8891 28.7224 43.1166 28.575 43.3577C28.3272 43.763 28.2807 44.2666 28.4614 44.7124L28.9044 44.5328L28.4614 44.7124L28.7618 45.4534L28.7627 45.4558L29.0555 46.1885C29.0878 46.2694 29.0881 46.3595 29.0563 46.4406C28.7021 47.3373 28.4314 48.5174 28.2207 49.7955C28.0609 50.7646 27.9336 51.7975 27.8343 52.8417C27.7986 53.2072 27.7668 53.5727 27.739 53.9382C27.628 55.3217 27.5568 56.722 27.5016 58.0235L27.5015 58.0244C27.492 58.2601 27.537 60.522 27.5632 61.833C27.5794 62.6463 28.2348 63.2931 29.0262 63.3426C29.2284 63.3552 29.4371 63.3695 29.6517 63.3843C30.6813 63.455 31.8479 63.5351 33.1033 63.4835C33.9092 63.4504 34.4993 62.7701 34.4887 61.996C34.4708 60.6836 34.4435 59.369 34.3893 58.0531C34.3418 56.8097 34.2667 55.405 34.1558 53.9945Z" fill="url(#paint0_linear_1477_792)" stroke="#333333"/>
<path fill-rule="evenodd" clip-rule="evenodd" d="M33.851 44.0124C33.9713 44.0489 34.0308 44.1546 33.9841 44.2484C33.5694 45.0806 32.7444 46.1307 32.2668 46.5005C31.7845 46.8737 31.2665 47.0346 30.7435 46.9938C30.23 46.9537 29.7584 46.7226 29.3499 46.3887C28.9399 46.0536 28.3202 44.9693 28.021 44.4556C27.9676 44.364 28.0195 44.2559 28.137 44.2143C28.2544 44.1726 28.4727 44.0589 28.5261 44.1505C28.8107 44.6393 29.2475 45.3647 29.6111 45.6618C29.9762 45.9602 30.3339 46.1373 30.6961 46.1656C31.0489 46.1931 31.8586 45.9777 32.2668 45.6618C32.6795 45.3424 33.146 44.9244 33.5487 44.1162C33.5955 44.0224 33.7308 43.976 33.851 44.0124Z" fill="#333333"/>
<path fill-rule="evenodd" clip-rule="evenodd" d="M28.0669 18.6771C30.4183 25.8083 37.6906 26.261 39.8237 26.4654C39.9987 28.3201 39.8405 30.2132 39.3416 32C45.9968 14.8577 30.6592 11.6724 27.844 15.3816C21.6314 14.8577 18.0683 23.5185 21.0975 30.0541C20.7989 28.0434 21.1274 26.1271 21.6314 24.163C26.0657 22.581 27.0891 21.257 28.0669 18.6771Z" fill="#CCCCCC" stroke="#333333" stroke-linejoin="round"/>
<path d="M31.5439 41.2159C31.8886 41.5912 32.3054 42.1952 32.8548 42.9915C33.01 43.2164 33.1758 43.4567 33.3535 43.7115C33.4157 43.7871 33.4768 43.8664 33.5355 43.9515L34.2577 44.7523L34.2597 44.7545L34.2597 44.7545C34.4003 44.9124 34.5243 45.039 34.633 45.1351C34.9011 45.372 35.1203 45.4941 35.3097 45.4941H35.3213L35.3213 45.4942C35.4405 45.4969 35.5433 45.4744 35.6546 45.4187C35.7911 45.3432 35.9478 45.2181 36.1326 45.0223C36.3549 44.7793 36.6122 44.4485 36.9105 44.0223C37.2159 43.5847 37.5262 43.1122 37.8832 42.5686L37.9343 42.4908L37.9346 42.4904C38.078 42.2725 38.2159 42.0668 38.3495 41.8674C38.6883 41.3619 38.9997 40.8972 39.3045 40.3796C39.2015 40.3445 39.101 40.3106 38.9999 40.2778C38.9434 40.2625 38.8922 40.2436 38.8607 40.2318C38.2917 40.0466 37.7473 39.8895 37.2556 39.765C37.2554 39.7649 37.2553 39.7649 37.2551 39.7648L31.5439 41.2159ZM31.5439 41.2159C32.3994 41.1541 33.2369 41.0091 33.9973 40.7801C34.9138 40.5042 35.7498 40.0969 36.3644 39.538" fill="#9ADAF3" stroke="#333333"/>
<path d="M50 49.5C44.7514 49.5 40.5 53.7514 40.5 59C40.5 64.2486 44.7514 68.5 50 68.5C55.2486 68.5 59.5 64.2486 59.5 59C59.5 53.7514 55.2486 49.5 50 49.5Z" fill="#FF6F3D" stroke="white"/>
<path fill-rule="evenodd" clip-rule="evenodd" d="M45.7071 58.7065C45.3166 59.097 45.3166 59.7302 45.7071 60.1207L48.3644 62.778C48.5643 62.9779 48.8277 63.0754 49.0896 63.0708C49.3538 63.0773 49.6201 62.9798 49.8217 62.7782L55.4786 57.1213C55.8691 56.7308 55.8691 56.0976 55.4786 55.7071C55.0881 55.3166 54.4549 55.3166 54.0644 55.7071L49.0932 60.6783L47.1213 58.7065C46.7308 58.3159 46.0976 58.3159 45.7071 58.7065Z" fill="white"/>
<rect x="111" y="26" width="24" height="24" rx="3" fill="#FF6F3D"/>
<path d="M111 41L111 35L120 35C120.552 35 121 34.5523 121 34L121 31.5426C121 30.6342 122.113 30.1964 122.732 30.8613L128.741 37.3188C129.098 37.7027 129.098 38.2973 128.741 38.6812L122.732 45.1387C122.113 45.8036 121 45.3658 121 44.4574L121 42C121 41.4477 120.552 41 120 41L111 41Z" fill="white"/>
<path d="M152.558 29H151.61L147.709 23.0088H147.67C147.722 23.7119 147.748 24.3564 147.748 24.9424V29H146.981V21.8613H147.919L151.811 27.8281H151.85C151.843 27.7402 151.828 27.4587 151.806 26.9834C151.783 26.5049 151.775 26.1631 151.781 25.958V21.8613H152.558V29Z" fill="#444444"/>
<path d="M157.689 29L157.528 28.2383H157.489C157.222 28.5736 156.955 28.8014 156.688 28.9219C156.425 29.0391 156.094 29.0977 155.697 29.0977C155.167 29.0977 154.75 28.9609 154.447 28.6875C154.148 28.4141 153.998 28.0251 153.998 27.5205C153.998 26.4398 154.862 25.8734 156.591 25.8213L157.499 25.792V25.46C157.499 25.04 157.408 24.7308 157.226 24.5322C157.047 24.3304 156.758 24.2295 156.361 24.2295C155.915 24.2295 155.411 24.3662 154.848 24.6396L154.599 24.0195C154.862 23.8763 155.15 23.764 155.463 23.6826C155.779 23.6012 156.094 23.5605 156.41 23.5605C157.048 23.5605 157.52 23.7021 157.826 23.9854C158.135 24.2686 158.29 24.7227 158.29 25.3477V29H157.689ZM155.858 28.4287C156.363 28.4287 156.758 28.2904 157.045 28.0137C157.335 27.737 157.479 27.3496 157.479 26.8516V26.3682L156.669 26.4023C156.024 26.4251 155.559 26.526 155.272 26.7051C154.989 26.8809 154.848 27.1559 154.848 27.5303C154.848 27.8232 154.936 28.0462 155.111 28.1992C155.29 28.3522 155.539 28.4287 155.858 28.4287Z" fill="#444444"/>
<path d="M166.786 29V25.5186C166.786 25.0921 166.695 24.7731 166.513 24.5615C166.33 24.3467 166.047 24.2393 165.663 24.2393C165.159 24.2393 164.786 24.3841 164.545 24.6738C164.304 24.9635 164.184 25.4095 164.184 26.0117V29H163.373V25.5186C163.373 25.0921 163.282 24.7731 163.1 24.5615C162.917 24.3467 162.632 24.2393 162.245 24.2393C161.737 24.2393 161.365 24.3923 161.127 24.6982C160.893 25.001 160.775 25.499 160.775 26.1924V29H159.965V23.6484H160.624L160.756 24.3809H160.795C160.948 24.1204 161.163 23.917 161.439 23.7705C161.719 23.624 162.032 23.5508 162.377 23.5508C163.214 23.5508 163.76 23.8535 164.018 24.459H164.057C164.216 24.179 164.447 23.9577 164.75 23.7949C165.053 23.6322 165.398 23.5508 165.785 23.5508C166.391 23.5508 166.843 23.707 167.143 24.0195C167.445 24.3288 167.597 24.8252 167.597 25.5088V29H166.786Z" fill="#444444"/>
<path d="M171.532 29.0977C170.741 29.0977 170.116 28.8568 169.657 28.375C169.201 27.8932 168.974 27.2243 168.974 26.3682C168.974 25.5055 169.185 24.8203 169.608 24.3125C170.035 23.8047 170.606 23.5508 171.322 23.5508C171.993 23.5508 172.523 23.7721 172.914 24.2148C173.305 24.6543 173.5 25.2354 173.5 25.958V26.4707H169.813C169.83 27.099 169.988 27.5758 170.287 27.9014C170.59 28.2269 171.015 28.3896 171.562 28.3896C172.138 28.3896 172.707 28.2692 173.271 28.0283V28.751C172.984 28.8747 172.712 28.9626 172.455 29.0146C172.201 29.07 171.894 29.0977 171.532 29.0977ZM171.312 24.2295C170.883 24.2295 170.539 24.3695 170.282 24.6494C170.028 24.9294 169.879 25.3167 169.833 25.8115H172.631C172.631 25.3005 172.517 24.9098 172.289 24.6396C172.061 24.3662 171.736 24.2295 171.312 24.2295Z" fill="#444444"/>
<path d="M152.68 51.3623C152.68 52.5407 152.359 53.4424 151.718 54.0674C151.08 54.6891 150.16 55 148.959 55H146.981V47.8613H149.169C150.279 47.8613 151.142 48.1689 151.757 48.7842C152.372 49.3994 152.68 50.2588 152.68 51.3623ZM151.801 51.3916C151.801 50.4606 151.566 49.7591 151.098 49.2871C150.632 48.8151 149.939 48.5791 149.018 48.5791H147.812V54.2822H148.822C149.812 54.2822 150.556 54.0397 151.054 53.5547C151.552 53.0664 151.801 52.3454 151.801 51.3916Z" fill="#444444"/>
<path d="M157.445 55L157.284 54.2383H157.245C156.978 54.5736 156.711 54.8014 156.444 54.9219C156.181 55.0391 155.85 55.0977 155.453 55.0977C154.923 55.0977 154.506 54.9609 154.203 54.6875C153.904 54.4141 153.754 54.0251 153.754 53.5205C153.754 52.4398 154.618 51.8734 156.347 51.8213L157.255 51.792V51.46C157.255 51.04 157.164 50.7308 156.981 50.5322C156.802 50.3304 156.514 50.2295 156.117 50.2295C155.671 50.2295 155.167 50.3662 154.604 50.6396L154.354 50.0195C154.618 49.8763 154.906 49.764 155.219 49.6826C155.535 49.6012 155.85 49.5605 156.166 49.5605C156.804 49.5605 157.276 49.7021 157.582 49.9854C157.891 50.2686 158.046 50.7227 158.046 51.3477V55H157.445ZM155.614 54.4287C156.119 54.4287 156.514 54.2904 156.801 54.0137C157.09 53.737 157.235 53.3496 157.235 52.8516V52.3682L156.425 52.4023C155.78 52.4251 155.315 52.526 155.028 52.7051C154.745 52.8809 154.604 53.1559 154.604 53.5303C154.604 53.8232 154.691 54.0462 154.867 54.1992C155.046 54.3522 155.295 54.4287 155.614 54.4287Z" fill="#444444"/>
<path d="M161.449 54.4287C161.592 54.4287 161.731 54.4189 161.864 54.3994C161.998 54.3766 162.104 54.3538 162.182 54.3311V54.9512C162.094 54.9935 161.964 55.0277 161.791 55.0537C161.622 55.083 161.469 55.0977 161.332 55.0977C160.297 55.0977 159.779 54.5524 159.779 53.4619V50.2783H159.013V49.8877L159.779 49.5508L160.121 48.4082H160.59V49.6484H162.143V50.2783H160.59V53.4277C160.59 53.75 160.666 53.9974 160.819 54.1699C160.972 54.3424 161.182 54.4287 161.449 54.4287Z" fill="#444444"/>
<path d="M165.517 55.0977C164.726 55.0977 164.101 54.8568 163.642 54.375C163.186 53.8932 162.958 53.2243 162.958 52.3682C162.958 51.5055 163.17 50.8203 163.593 50.3125C164.019 49.8047 164.59 49.5508 165.307 49.5508C165.977 49.5508 166.508 49.7721 166.898 50.2148C167.289 50.6543 167.484 51.2354 167.484 51.958V52.4707H163.798C163.814 53.099 163.972 53.5758 164.271 53.9014C164.574 54.2269 164.999 54.3896 165.546 54.3896C166.122 54.3896 166.692 54.2692 167.255 54.0283V54.751C166.968 54.8747 166.697 54.9626 166.439 55.0146C166.186 55.07 165.878 55.0977 165.517 55.0977ZM165.297 50.2295C164.867 50.2295 164.524 50.3695 164.267 50.6494C164.013 50.9294 163.863 51.3167 163.817 51.8115H166.615C166.615 51.3005 166.501 50.9098 166.273 50.6396C166.046 50.3662 165.72 50.2295 165.297 50.2295Z" fill="#444444"/>
<defs>
<linearGradient id="paint0_linear_1477_792" x1="24.713" y1="42.8012" x2="33.973" y2="54.7567" gradientUnits="userSpaceOnUse">
<stop stop-color="#FFC671"/>
<stop offset="1" stop-color="#FF6F3D"/>
</linearGradient>
</defs>
</svg>
