<svg width="208" height="80" viewBox="0 0 208 80" fill="none" xmlns="http://www.w3.org/2000/svg">
<g clip-path="url(#clip0_2378_6502)">
<rect width="208" height="80" fill="#F5F5F5"/>
<rect x="97.5" y="11.5" width="100" height="69" fill="white" stroke="#D0D5DA"/>
<rect x="62.5" y="41.5" width="53" height="21" fill="white" stroke="#444444"/>
<path d="M79.1855 52.6348C79.1855 54.0449 78.7832 55.125 77.9785 55.875C77.1777 56.625 76.0195 57 74.5039 57H72.0781V48.4336H74.7676C76.166 48.4336 77.252 48.8027 78.0254 49.541C78.7988 50.2793 79.1855 51.3105 79.1855 52.6348ZM77.2988 52.6816C77.2988 50.8418 76.4863 49.9219 74.8613 49.9219H73.8945V55.5H74.6738C76.4238 55.5 77.2988 54.5605 77.2988 52.6816Z" fill="#333333"/>
<path d="M84.9805 57L84.6348 56.1094H84.5879C84.2871 56.4883 83.9766 56.752 83.6562 56.9004C83.3398 57.0449 82.9258 57.1172 82.4141 57.1172C81.7852 57.1172 81.2891 56.9375 80.9258 56.5781C80.5664 56.2188 80.3867 55.707 80.3867 55.043C80.3867 54.3477 80.6289 53.8359 81.1133 53.5078C81.6016 53.1758 82.3359 52.9922 83.3164 52.957L84.4531 52.9219V52.6348C84.4531 51.9707 84.1133 51.6387 83.4336 51.6387C82.9102 51.6387 82.2949 51.7969 81.5879 52.1133L80.9961 50.9062C81.75 50.5117 82.5859 50.3145 83.5039 50.3145C84.3828 50.3145 85.0566 50.5059 85.5254 50.8887C85.9941 51.2715 86.2285 51.8535 86.2285 52.6348V57H84.9805ZM84.4531 53.9648L83.7617 53.9883C83.2422 54.0039 82.8555 54.0977 82.6016 54.2695C82.3477 54.4414 82.2207 54.7031 82.2207 55.0547C82.2207 55.5586 82.5098 55.8105 83.0879 55.8105C83.502 55.8105 83.832 55.6914 84.0781 55.4531C84.3281 55.2148 84.4531 54.8984 84.4531 54.5039V53.9648Z" fill="#333333"/>
<path d="M90.834 55.6934C91.1465 55.6934 91.5215 55.625 91.959 55.4883V56.8184C91.5137 57.0176 90.9668 57.1172 90.3184 57.1172C89.6035 57.1172 89.082 56.9375 88.7539 56.5781C88.4297 56.2148 88.2676 55.6719 88.2676 54.9492V51.791H87.4121V51.0352L88.3965 50.4375L88.9121 49.0547H90.0547V50.4492H91.8887V51.791H90.0547V54.9492C90.0547 55.2031 90.125 55.3906 90.2656 55.5117C90.4102 55.6328 90.5996 55.6934 90.834 55.6934Z" fill="#333333"/>
<path d="M96.002 51.5977C95.623 51.5977 95.3262 51.7188 95.1113 51.9609C94.8965 52.1992 94.7734 52.5391 94.7422 52.9805H97.25C97.2422 52.5391 97.127 52.1992 96.9043 51.9609C96.6816 51.7188 96.3809 51.5977 96.002 51.5977ZM96.2539 57.1172C95.1992 57.1172 94.375 56.8262 93.7812 56.2441C93.1875 55.6621 92.8906 54.8379 92.8906 53.7715C92.8906 52.6738 93.1641 51.8262 93.7109 51.2285C94.2617 50.627 95.0215 50.3262 95.9902 50.3262C96.916 50.3262 97.6367 50.5898 98.1523 51.1172C98.668 51.6445 98.9258 52.373 98.9258 53.3027V54.1699H94.7012C94.7207 54.6777 94.8711 55.0742 95.1523 55.3594C95.4336 55.6445 95.8281 55.7871 96.3359 55.7871C96.7305 55.7871 97.1035 55.7461 97.4551 55.6641C97.8066 55.582 98.1738 55.4512 98.5566 55.2715V56.6543C98.2441 56.8105 97.9102 56.9258 97.5547 57C97.1992 57.0781 96.7656 57.1172 96.2539 57.1172Z" fill="#333333"/>
<circle cx="62.5" cy="41.5" r="1.5" fill="#444444"/>
<circle cx="62.5" cy="62.5" r="1.5" fill="#444444"/>
<circle cx="115.5" cy="41.5" r="1.5" fill="#444444"/>
<circle cx="115.5" cy="62.5" r="1.5" fill="#444444"/>
<rect x="62.5" y="13.5" width="53" height="21" fill="white" stroke="#444444"/>
<path d="M79.6777 29H77.3691L73.6426 22.5195H73.5898C73.6641 23.6641 73.7012 24.4805 73.7012 24.9688V29H72.0781V20.4336H74.3691L78.0898 26.8496H78.1309C78.0723 25.7363 78.043 24.9492 78.043 24.4883V20.4336H79.6777V29Z" fill="#333333"/>
<path d="M85.8594 29L85.5137 28.1094H85.4668C85.166 28.4883 84.8555 28.752 84.5352 28.9004C84.2188 29.0449 83.8047 29.1172 83.293 29.1172C82.6641 29.1172 82.168 28.9375 81.8047 28.5781C81.4453 28.2188 81.2656 27.707 81.2656 27.043C81.2656 26.3477 81.5078 25.8359 81.9922 25.5078C82.4805 25.1758 83.2148 24.9922 84.1953 24.957L85.332 24.9219V24.6348C85.332 23.9707 84.9922 23.6387 84.3125 23.6387C83.7891 23.6387 83.1738 23.7969 82.4668 24.1133L81.875 22.9062C82.6289 22.5117 83.4648 22.3145 84.3828 22.3145C85.2617 22.3145 85.9355 22.5059 86.4043 22.8887C86.873 23.2715 87.1074 23.8535 87.1074 24.6348V29H85.8594ZM85.332 25.9648L84.6406 25.9883C84.1211 26.0039 83.7344 26.0977 83.4805 26.2695C83.2266 26.4414 83.0996 26.7031 83.0996 27.0547C83.0996 27.5586 83.3887 27.8105 83.9668 27.8105C84.3809 27.8105 84.7109 27.6914 84.957 27.4531C85.207 27.2148 85.332 26.8984 85.332 26.5039V25.9648Z" fill="#333333"/>
<path d="M94.8184 29H93.0312V25.1738C93.0312 24.7012 92.9512 24.3477 92.791 24.1133C92.6348 23.875 92.3867 23.7559 92.0469 23.7559C91.5898 23.7559 91.2578 23.9238 91.0508 24.2598C90.8438 24.5957 90.7402 25.1484 90.7402 25.918V29H88.9531V22.4492H90.3184L90.5586 23.2871H90.6582C90.834 22.9863 91.0879 22.752 91.4199 22.584C91.752 22.4121 92.1328 22.3262 92.5625 22.3262C93.543 22.3262 94.207 22.6465 94.5547 23.2871H94.7129C94.8887 22.9824 95.1465 22.7461 95.4863 22.5781C95.8301 22.4102 96.2168 22.3262 96.6465 22.3262C97.3887 22.3262 97.9492 22.5176 98.3281 22.9004C98.7109 23.2793 98.9023 23.8887 98.9023 24.7285V29H97.1094V25.1738C97.1094 24.7012 97.0293 24.3477 96.8691 24.1133C96.7129 23.875 96.4648 23.7559 96.125 23.7559C95.6875 23.7559 95.3594 23.9121 95.1406 24.2246C94.9258 24.5371 94.8184 25.0332 94.8184 25.7129V29Z" fill="#333333"/>
<path d="M103.455 23.5977C103.076 23.5977 102.779 23.7188 102.564 23.9609C102.35 24.1992 102.227 24.5391 102.195 24.9805H104.703C104.695 24.5391 104.58 24.1992 104.357 23.9609C104.135 23.7188 103.834 23.5977 103.455 23.5977ZM103.707 29.1172C102.652 29.1172 101.828 28.8262 101.234 28.2441C100.641 27.6621 100.344 26.8379 100.344 25.7715C100.344 24.6738 100.617 23.8262 101.164 23.2285C101.715 22.627 102.475 22.3262 103.443 22.3262C104.369 22.3262 105.09 22.5898 105.605 23.1172C106.121 23.6445 106.379 24.373 106.379 25.3027V26.1699H102.154C102.174 26.6777 102.324 27.0742 102.605 27.3594C102.887 27.6445 103.281 27.7871 103.789 27.7871C104.184 27.7871 104.557 27.7461 104.908 27.6641C105.26 27.582 105.627 27.4512 106.01 27.2715V28.6543C105.697 28.8105 105.363 28.9258 105.008 29C104.652 29.0781 104.219 29.1172 103.707 29.1172Z" fill="#333333"/>
<circle cx="62.5" cy="13.5" r="1.5" fill="#444444"/>
<circle cx="62.5" cy="34.5" r="1.5" fill="#444444"/>
<circle cx="115.5" cy="13.5" r="1.5" fill="#444444"/>
<circle cx="115.5" cy="34.5" r="1.5" fill="#444444"/>
<rect x="140.5" y="23.5" width="47" height="15" rx="0.5" fill="#D9F4FF" stroke="#9ADAF3"/>
<rect x="140.5" y="49.5" width="47" height="15" rx="0.5" fill="#D9F4FF" stroke="#9ADAF3"/>
<path d="M45.2657 42.8606L45.262 42.8586C42.39 41.3299 37.87 39.9582 36.0887 39.5148L35.7136 39.4215L35.5288 39.7608C34.3811 41.8681 33.8427 42.7363 33.4894 43.306L33.4879 43.3085C32.9956 44.1023 32.8366 44.3652 32.0148 46.298L31.9274 46.5036L32.0222 46.7058C33.8637 50.635 33.8906 55.4619 33.9078 60.0308L33.9078 60.0322C33.9103 60.6984 33.9128 61.3587 33.9213 62.0065L33.9282 62.5426L34.4626 62.4983C37.1595 62.2745 39.9419 61.6431 42.4088 60.8978L42.4088 60.8979L42.4154 60.8958C43.3195 60.609 43.7353 60.4665 44.8391 60.0576L44.8392 60.0577L44.8486 60.054C47.1319 59.1551 49.2096 57.9378 51.2593 56.6944L51.541 56.5235L51.4951 56.1973C51.4708 56.0241 51.4465 55.8496 51.422 55.6737L51.4182 55.6465C51.0983 53.3493 50.7441 50.8056 49.894 48.5282C49.0357 46.2287 47.6575 44.1596 45.2657 42.8606ZM27.7914 42.6238L27.7452 42.5376L27.6699 42.4752C26.7633 41.723 25.5929 41.3543 24.5968 41.0405L24.5542 41.0271C23.9336 40.8316 23.3865 40.6579 22.9334 40.4324L22.7452 40.3387L22.5466 40.4077C22.1548 40.5437 21.7504 40.6805 21.3384 40.8199L21.3287 40.8231C20.0943 41.2407 18.7901 41.6819 17.6218 42.1742C16.4575 42.6646 15.3815 43.2244 14.6306 43.8962L14.6306 43.8963C13.1739 45.1999 12.3113 47.055 11.7503 49.0048C11.1905 50.9503 10.9155 53.0486 10.675 54.8841L10.6728 54.9013C10.616 55.3345 10.5612 55.7528 10.5049 56.1536L10.4705 56.3983L10.644 56.5742C12.2781 58.2314 15.2453 59.6505 18.381 60.6804C21.5336 61.7159 24.9475 62.3871 27.5438 62.4995L28.0654 62.5221V62C28.0654 61.8334 28.0658 61.6646 28.0661 61.4941C28.0668 61.1477 28.0675 60.7945 28.0654 60.4394C28.0383 55.8549 28.0181 50.8251 29.8671 46.9264L29.9753 46.6984L29.856 46.476L27.7914 42.6238Z" fill="#FEFEFE" stroke="#333333"/>
<path d="M25.4023 39.6697L25.3383 39.9336L25.5248 40.1309C26.6835 41.3566 28.8211 41.8824 30.822 41.873C31.8398 41.8682 32.8623 41.7259 33.7652 41.4435C34.6624 41.163 35.4767 40.7329 36.0383 40.1275L36.2399 39.9102L36.146 39.6291C35.7527 38.4514 35.7228 37.1707 35.7228 35.8433V34.8423L34.9225 35.4435C33.6661 36.3873 32.1984 36.9261 30.6317 36.9261C29.1587 36.9261 27.7709 36.4508 26.5686 35.6099L25.7821 35.0597V36.0196C25.7821 37.2391 25.6828 38.5126 25.4023 39.6697Z" fill="#FEFEFE" stroke="#333333"/>
<path d="M26.3741 22.177C27.1016 21.5916 27.5881 20.9457 27.9899 20.2025C29.3528 22.9108 31.6474 24.4201 33.8782 25.2721C36.0821 26.1138 38.2585 26.3275 39.4701 26.4283C39.676 29.307 38.8204 32.2781 36.8715 34.4963C35.2284 36.36 32.9785 37.5 30.4999 37.5C27.7447 37.5 25.505 36.1689 23.941 34.2155C22.3711 32.2546 21.5 29.685 21.5 27.279C21.5 26.2418 21.6376 25.2436 21.8887 24.3002C24.0092 23.6177 25.3935 22.966 26.3741 22.177Z" fill="#FEFEFE" stroke="#333333"/>
<path d="M34.1557 53.9938L34.1558 53.9945C34.2667 55.405 34.3418 56.8097 34.3893 58.0531C34.3893 58.0533 34.3893 58.0536 34.3893 58.0538L33.8897 58.0729L34.1557 53.9938ZM34.1557 53.9938C34.0606 52.8044 33.9335 51.5932 33.7702 50.4554L33.769 50.4471M34.1557 53.9938L33.769 50.4471M33.769 50.4471L33.7675 50.4388M33.769 50.4471L33.7675 50.4388M33.7675 50.4388L33.4642 48.7346L33.4627 48.7262M33.7675 50.4388L33.4627 48.7262M33.4627 48.7262L33.4609 48.7178M33.4627 48.7262L33.4609 48.7178M33.4609 48.7178C33.2957 47.944 33.1033 47.2195 32.8752 46.5674M33.4609 48.7178L32.8752 46.5674M32.8752 46.5674C32.8308 46.4406 32.8311 46.3115 32.8704 46.201L33.4294 44.6296M32.8752 46.5674L33.4294 44.6296M33.4294 44.6296C33.5776 44.2131 33.5332 43.7534 33.3142 43.3731C33.2172 43.2047 33.1246 43.0432 33.0363 42.889M33.4294 44.6296L33.0363 42.889M33.0363 42.889C32.6676 42.2455 32.3716 41.7287 32.1226 41.3613M33.0363 42.889L32.1226 41.3613M32.1226 41.3613C31.9681 41.1332 31.8102 40.9294 31.6411 40.7803M32.1226 41.3613L31.6411 40.7803M31.6411 40.7803C31.4698 40.6293 31.2388 40.4925 30.9506 40.5003M31.6411 40.7803L30.9506 40.5003M30.9506 40.5003C30.6679 40.5079 30.4442 40.6522 30.2789 40.8023M30.9506 40.5003L30.2789 40.8023M30.2789 40.8023C30.1128 40.953 29.9543 41.1565 29.7968 41.3844M30.2789 40.8023L29.7968 41.3844M29.7968 41.3844C29.5731 41.708 29.3087 42.1459 28.9883 42.6764M29.7968 41.3844L28.9883 42.6764M28.9883 42.6764C28.8598 42.8891 28.7224 43.1166 28.575 43.3577M28.9883 42.6764L28.575 43.3577M28.575 43.3577C28.3272 43.763 28.2807 44.2666 28.4614 44.7124L28.7618 45.4534M28.575 43.3577L28.7618 45.4534M28.7618 45.4534L28.7627 45.4558M28.7618 45.4534L28.7627 45.4558M28.7627 45.4558L29.0555 46.1885C29.0878 46.2694 29.0881 46.3595 29.0563 46.4406C29.0562 46.4407 29.0562 46.4408 29.0562 46.4409L29.5215 46.6237C29.1867 47.4711 28.9228 48.6104 28.7141 49.8768C28.5565 50.8325 28.4305 51.854 28.332 52.8897M28.7627 45.4558L27.8343 52.8417M28.332 52.8897L27.8344 52.8411C27.8343 52.8413 27.8343 52.8415 27.8343 52.8417M28.332 52.8897L27.8342 52.8424C27.8343 52.8422 27.8343 52.8419 27.8343 52.8417M28.332 52.8897C28.2965 53.2522 28.265 53.6147 28.2375 53.9772M27.8343 52.8417C27.7986 53.2072 27.7668 53.5727 27.739 53.9383M28.2375 53.9772L27.7391 53.9372C27.739 53.9376 27.739 53.9379 27.739 53.9383M28.2375 53.9772L27.7389 53.9393C27.7389 53.9389 27.7389 53.9386 27.739 53.9383M28.2375 53.9772L27.739 53.9383M28.0011 58.0447L28.0006 58.0447L28.0011 58.0447Z" fill="url(#paint0_linear_2378_6502)" stroke="#333333"/>
<path fill-rule="evenodd" clip-rule="evenodd" d="M33.851 44.0124C33.9713 44.0489 34.0308 44.1546 33.9841 44.2484C33.5694 45.0806 32.7444 46.1307 32.2668 46.5005C31.7845 46.8737 31.2665 47.0346 30.7435 46.9938C30.23 46.9537 29.7584 46.7226 29.3499 46.3887C28.9399 46.0536 28.3202 44.9693 28.021 44.4556C27.9676 44.364 28.0195 44.2559 28.137 44.2143C28.2544 44.1726 28.4727 44.0589 28.5261 44.1505C28.8107 44.6393 29.2475 45.3647 29.6111 45.6618C29.9762 45.9602 30.3339 46.1373 30.6961 46.1656C31.0489 46.1931 31.8586 45.9777 32.2668 45.6618C32.6795 45.3424 33.146 44.9244 33.5487 44.1162C33.5955 44.0224 33.7308 43.976 33.851 44.0124Z" fill="#333333"/>
<path fill-rule="evenodd" clip-rule="evenodd" d="M28.0669 18.6771C30.4183 25.8083 37.6906 26.261 39.8237 26.4654C39.9987 28.3201 39.8405 30.2132 39.3416 32C45.9968 14.8577 30.6592 11.6724 27.844 15.3816C21.6314 14.8577 18.0683 23.5185 21.0975 30.0541C20.7989 28.0434 21.1274 26.1271 21.6314 24.163C26.0657 22.581 27.0891 21.257 28.0669 18.6771Z" fill="#CCCCCC" stroke="#333333" stroke-linejoin="round"/>
<path d="M38.9999 40.2778C39.101 40.3106 39.2015 40.3445 39.3045 40.3796L37.2551 39.7648C37.2553 39.7649 37.2554 39.7649 37.2556 39.765C37.7473 39.8895 38.2917 40.0466 38.8607 40.2318C38.8922 40.2436 38.9434 40.2625 38.9999 40.2778ZM23.1606 40.0671C23.7325 39.8353 24.2834 39.6396 24.8317 39.5345L29.5268 41.2084C29.0212 41.8547 28.5335 42.5138 28.0487 43.1689C27.8406 43.4501 27.6331 43.7306 27.4249 44.009L27.4248 44.009L27.4192 44.0167C27.4072 44.0335 27.3967 44.0492 27.3894 44.0603L27.3792 44.0759L27.3716 44.0876L27.3658 44.0961C27.1746 44.3139 26.9784 44.5321 26.78 44.7529L26.7799 44.7528L26.7732 44.7607C26.6416 44.9132 26.5189 45.0388 26.4052 45.1398C26.2895 45.2415 26.1906 45.3192 26.1028 45.3729L26.1017 45.3736C25.9738 45.4523 25.844 45.4936 25.7117 45.4993L25.7102 45.4993C25.6023 45.5043 25.4991 45.4811 25.3889 45.4238C25.2599 45.3546 25.1032 45.2311 24.9104 45.027C24.4377 44.5095 24.0446 43.9126 23.6312 43.2848C23.6225 43.2717 23.6138 43.2585 23.6051 43.2452L23.6047 43.2446C23.2757 42.7468 22.9477 42.3073 22.6335 41.8864C22.5803 41.8152 22.5276 41.7446 22.4753 41.6743C22.2261 41.3391 21.9849 41.0085 21.7499 40.6531C22.0166 40.5471 22.2834 40.4344 22.5449 40.3239C22.7544 40.2353 22.9606 40.1482 23.1606 40.0671Z" fill="#9ADAF3" stroke="#333333"/>
<path d="M50 50C45.0275 50 41 54.0275 41 59C41 63.9725 45.0275 68 50 68C54.9725 68 59 63.9725 59 59C59 54.0275 54.9725 50 50 50Z" fill="#FF6F3D"/>
<path fill-rule="evenodd" clip-rule="evenodd" d="M45.7071 58.7065C45.3166 59.097 45.3166 59.7302 45.7071 60.1207L48.3644 62.778C48.5643 62.9779 48.8277 63.0754 49.0896 63.0708C49.3538 63.0773 49.6201 62.9798 49.8217 62.7782L55.4786 57.1213C55.8691 56.7308 55.8691 56.0976 55.4786 55.7071C55.0881 55.3166 54.4549 55.3166 54.0644 55.7071L49.0932 60.6783L47.1213 58.7065C46.7308 58.3159 46.0976 58.3159 45.7071 58.7065Z" fill="white"/>
<rect x="111.5" y="26.5" width="23" height="23" rx="2.5" fill="#FF6F3D" stroke="#444444"/>
<path d="M111 41L111 35L119.75 35C120.302 35 120.75 34.5523 120.75 34L120.75 31.4888C120.75 30.5876 121.848 30.1462 122.472 30.7969L128.712 37.3081C129.083 37.6949 129.083 38.3051 128.712 38.6919L122.472 45.2031C121.848 45.8538 120.75 45.4124 120.75 44.5112L120.75 42C120.75 41.4477 120.302 41 119.75 41L111 41Z" fill="white"/>
<path d="M152.558 35H151.61L147.709 29.0088H147.67C147.722 29.7119 147.748 30.3564 147.748 30.9424V35H146.981V27.8613H147.919L151.811 33.8281H151.85C151.843 33.7402 151.828 33.4587 151.806 32.9834C151.783 32.5049 151.775 32.1631 151.781 31.958V27.8613H152.558V35Z" fill="#444444"/>
<path d="M157.689 35L157.528 34.2383H157.489C157.222 34.5736 156.955 34.8014 156.688 34.9219C156.425 35.0391 156.094 35.0977 155.697 35.0977C155.167 35.0977 154.75 34.9609 154.447 34.6875C154.148 34.4141 153.998 34.0251 153.998 33.5205C153.998 32.4398 154.862 31.8734 156.591 31.8213L157.499 31.792V31.46C157.499 31.04 157.408 30.7308 157.226 30.5322C157.047 30.3304 156.758 30.2295 156.361 30.2295C155.915 30.2295 155.411 30.3662 154.848 30.6396L154.599 30.0195C154.862 29.8763 155.15 29.764 155.463 29.6826C155.779 29.6012 156.094 29.5605 156.41 29.5605C157.048 29.5605 157.52 29.7021 157.826 29.9854C158.135 30.2686 158.29 30.7227 158.29 31.3477V35H157.689ZM155.858 34.4287C156.363 34.4287 156.758 34.2904 157.045 34.0137C157.335 33.737 157.479 33.3496 157.479 32.8516V32.3682L156.669 32.4023C156.024 32.4251 155.559 32.526 155.272 32.7051C154.989 32.8809 154.848 33.1559 154.848 33.5303C154.848 33.8232 154.936 34.0462 155.111 34.1992C155.29 34.3522 155.539 34.4287 155.858 34.4287Z" fill="#444444"/>
<path d="M166.786 35V31.5186C166.786 31.0921 166.695 30.7731 166.513 30.5615C166.33 30.3467 166.047 30.2393 165.663 30.2393C165.159 30.2393 164.786 30.3841 164.545 30.6738C164.304 30.9635 164.184 31.4095 164.184 32.0117V35H163.373V31.5186C163.373 31.0921 163.282 30.7731 163.1 30.5615C162.917 30.3467 162.632 30.2393 162.245 30.2393C161.737 30.2393 161.365 30.3923 161.127 30.6982C160.893 31.001 160.775 31.499 160.775 32.1924V35H159.965V29.6484H160.624L160.756 30.3809H160.795C160.948 30.1204 161.163 29.917 161.439 29.7705C161.719 29.624 162.032 29.5508 162.377 29.5508C163.214 29.5508 163.76 29.8535 164.018 30.459H164.057C164.216 30.179 164.447 29.9577 164.75 29.7949C165.053 29.6322 165.398 29.5508 165.785 29.5508C166.391 29.5508 166.843 29.707 167.143 30.0195C167.445 30.3288 167.597 30.8252 167.597 31.5088V35H166.786Z" fill="#444444"/>
<path d="M171.532 35.0977C170.741 35.0977 170.116 34.8568 169.657 34.375C169.201 33.8932 168.974 33.2243 168.974 32.3682C168.974 31.5055 169.185 30.8203 169.608 30.3125C170.035 29.8047 170.606 29.5508 171.322 29.5508C171.993 29.5508 172.523 29.7721 172.914 30.2148C173.305 30.6543 173.5 31.2354 173.5 31.958V32.4707H169.813C169.83 33.099 169.988 33.5758 170.287 33.9014C170.59 34.2269 171.015 34.3896 171.562 34.3896C172.138 34.3896 172.707 34.2692 173.271 34.0283V34.751C172.984 34.8747 172.712 34.9626 172.455 35.0146C172.201 35.07 171.894 35.0977 171.532 35.0977ZM171.312 30.2295C170.883 30.2295 170.539 30.3695 170.282 30.6494C170.028 30.9294 169.879 31.3167 169.833 31.8115H172.631C172.631 31.3005 172.517 30.9098 172.289 30.6396C172.061 30.3662 171.736 30.2295 171.312 30.2295Z" fill="#444444"/>
<path d="M152.68 57.3623C152.68 58.5407 152.359 59.4424 151.718 60.0674C151.08 60.6891 150.16 61 148.959 61H146.981V53.8613H149.169C150.279 53.8613 151.142 54.1689 151.757 54.7842C152.372 55.3994 152.68 56.2588 152.68 57.3623ZM151.801 57.3916C151.801 56.4606 151.566 55.7591 151.098 55.2871C150.632 54.8151 149.939 54.5791 149.018 54.5791H147.812V60.2822H148.822C149.812 60.2822 150.556 60.0397 151.054 59.5547C151.552 59.0664 151.801 58.3454 151.801 57.3916Z" fill="#444444"/>
<path d="M157.445 61L157.284 60.2383H157.245C156.978 60.5736 156.711 60.8014 156.444 60.9219C156.181 61.0391 155.85 61.0977 155.453 61.0977C154.923 61.0977 154.506 60.9609 154.203 60.6875C153.904 60.4141 153.754 60.0251 153.754 59.5205C153.754 58.4398 154.618 57.8734 156.347 57.8213L157.255 57.792V57.46C157.255 57.04 157.164 56.7308 156.981 56.5322C156.802 56.3304 156.514 56.2295 156.117 56.2295C155.671 56.2295 155.167 56.3662 154.604 56.6396L154.354 56.0195C154.618 55.8763 154.906 55.764 155.219 55.6826C155.535 55.6012 155.85 55.5605 156.166 55.5605C156.804 55.5605 157.276 55.7021 157.582 55.9854C157.891 56.2686 158.046 56.7227 158.046 57.3477V61H157.445ZM155.614 60.4287C156.119 60.4287 156.514 60.2904 156.801 60.0137C157.09 59.737 157.235 59.3496 157.235 58.8516V58.3682L156.425 58.4023C155.78 58.4251 155.315 58.526 155.028 58.7051C154.745 58.8809 154.604 59.1559 154.604 59.5303C154.604 59.8232 154.691 60.0462 154.867 60.1992C155.046 60.3522 155.295 60.4287 155.614 60.4287Z" fill="#444444"/>
<path d="M161.449 60.4287C161.592 60.4287 161.731 60.4189 161.864 60.3994C161.998 60.3766 162.104 60.3538 162.182 60.3311V60.9512C162.094 60.9935 161.964 61.0277 161.791 61.0537C161.622 61.083 161.469 61.0977 161.332 61.0977C160.297 61.0977 159.779 60.5524 159.779 59.4619V56.2783H159.013V55.8877L159.779 55.5508L160.121 54.4082H160.59V55.6484H162.143V56.2783H160.59V59.4277C160.59 59.75 160.666 59.9974 160.819 60.1699C160.972 60.3424 161.182 60.4287 161.449 60.4287Z" fill="#444444"/>
<path d="M165.517 61.0977C164.726 61.0977 164.101 60.8568 163.642 60.375C163.186 59.8932 162.958 59.2243 162.958 58.3682C162.958 57.5055 163.17 56.8203 163.593 56.3125C164.019 55.8047 164.59 55.5508 165.307 55.5508C165.977 55.5508 166.508 55.7721 166.898 56.2148C167.289 56.6543 167.484 57.2354 167.484 57.958V58.4707H163.798C163.814 59.099 163.972 59.5758 164.271 59.9014C164.574 60.2269 164.999 60.3896 165.546 60.3896C166.122 60.3896 166.692 60.2692 167.255 60.0283V60.751C166.968 60.8747 166.697 60.9626 166.439 61.0146C166.186 61.07 165.878 61.0977 165.517 61.0977ZM165.297 56.2295C164.867 56.2295 164.524 56.3695 164.267 56.6494C164.013 56.9294 163.863 57.3167 163.817 57.8115H166.615C166.615 57.3005 166.501 56.9098 166.273 56.6396C166.046 56.3662 165.72 56.2295 165.297 56.2295Z" fill="#444444"/>
</g>
<defs>
<linearGradient id="paint0_linear_2378_6502" x1="24.713" y1="42.8012" x2="33.973" y2="54.7567" gradientUnits="userSpaceOnUse">
<stop stop-color="#FFC671"/>
<stop offset="1" stop-color="#FF6F3D"/>
</linearGradient>
<clipPath id="clip0_2378_6502">
<rect width="208" height="80" fill="white"/>
</clipPath>
</defs>
</svg>
