<svg width="208" height="80" viewBox="0 0 208 80" fill="none" xmlns="http://www.w3.org/2000/svg">
<g clip-path="url(#clip0_2378_6473)">
<rect width="208" height="80" fill="#F5F5F5"/>
<rect x="80.5" y="12.5" width="116" height="69" fill="white" stroke="#D0D5DA"/>
<rect x="17.5" y="17.5" width="53" height="21" fill="white" stroke="#444444"/>
<path d="M30.0547 33L29.4336 30.9609H26.3105L25.6895 33H23.7324L26.7559 24.3984H28.9766L32.0117 33H30.0547ZM29 29.4375C28.4258 27.5898 28.1016 26.5449 28.0273 26.3027C27.957 26.0605 27.9062 25.8691 27.875 25.7285C27.7461 26.2285 27.377 27.4648 26.7676 29.4375H29Z" fill="#333333"/>
<path d="M35.6152 33.1172C33.5762 33.1172 32.5566 31.998 32.5566 29.7598C32.5566 28.6465 32.834 27.7969 33.3887 27.2109C33.9434 26.6211 34.7383 26.3262 35.7734 26.3262C36.5312 26.3262 37.2109 26.4746 37.8125 26.7715L37.2852 28.1543C37.0039 28.041 36.7422 27.9492 36.5 27.8789C36.2578 27.8047 36.0156 27.7676 35.7734 27.7676C34.8438 27.7676 34.3789 28.4277 34.3789 29.748C34.3789 31.0293 34.8438 31.6699 35.7734 31.6699C36.1172 31.6699 36.4355 31.625 36.7285 31.5352C37.0215 31.4414 37.3145 31.2969 37.6074 31.1016V32.6309C37.3184 32.8145 37.0254 32.9414 36.7285 33.0117C36.4355 33.082 36.0645 33.1172 35.6152 33.1172Z" fill="#333333"/>
<path d="M41.791 33.1172C39.752 33.1172 38.7324 31.998 38.7324 29.7598C38.7324 28.6465 39.0098 27.7969 39.5645 27.2109C40.1191 26.6211 40.9141 26.3262 41.9492 26.3262C42.707 26.3262 43.3867 26.4746 43.9883 26.7715L43.4609 28.1543C43.1797 28.041 42.918 27.9492 42.6758 27.8789C42.4336 27.8047 42.1914 27.7676 41.9492 27.7676C41.0195 27.7676 40.5547 28.4277 40.5547 29.748C40.5547 31.0293 41.0195 31.6699 41.9492 31.6699C42.293 31.6699 42.6113 31.625 42.9043 31.5352C43.1973 31.4414 43.4902 31.2969 43.7832 31.1016V32.6309C43.4941 32.8145 43.2012 32.9414 42.9043 33.0117C42.6113 33.082 42.2402 33.1172 41.791 33.1172Z" fill="#333333"/>
<path d="M48.0195 27.5977C47.6406 27.5977 47.3438 27.7188 47.1289 27.9609C46.9141 28.1992 46.791 28.5391 46.7598 28.9805H49.2676C49.2598 28.5391 49.1445 28.1992 48.9219 27.9609C48.6992 27.7188 48.3984 27.5977 48.0195 27.5977ZM48.2715 33.1172C47.2168 33.1172 46.3926 32.8262 45.7988 32.2441C45.2051 31.6621 44.9082 30.8379 44.9082 29.7715C44.9082 28.6738 45.1816 27.8262 45.7285 27.2285C46.2793 26.627 47.0391 26.3262 48.0078 26.3262C48.9336 26.3262 49.6543 26.5898 50.1699 27.1172C50.6855 27.6445 50.9434 28.373 50.9434 29.3027V30.1699H46.7188C46.7383 30.6777 46.8887 31.0742 47.1699 31.3594C47.4512 31.6445 47.8457 31.7871 48.3535 31.7871C48.748 31.7871 49.1211 31.7461 49.4727 31.6641C49.8242 31.582 50.1914 31.4512 50.5742 31.2715V32.6543C50.2617 32.8105 49.9277 32.9258 49.5723 33C49.2168 33.0781 48.7832 33.1172 48.2715 33.1172Z" fill="#333333"/>
<path d="M55.9941 33.1172C55.2246 33.1172 54.6211 32.8379 54.1836 32.2793H54.0898C54.1523 32.8262 54.1836 33.1426 54.1836 33.2285V35.8828H52.3965V26.4492H53.8496L54.1016 27.2988H54.1836C54.6016 26.6504 55.2207 26.3262 56.041 26.3262C56.8145 26.3262 57.4199 26.625 57.8574 27.2227C58.2949 27.8203 58.5137 28.6504 58.5137 29.7129C58.5137 30.4121 58.4102 31.0195 58.2031 31.5352C58 32.0508 57.709 32.4434 57.3301 32.7129C56.9512 32.9824 56.5059 33.1172 55.9941 33.1172ZM55.4668 27.7559C55.0254 27.7559 54.7031 27.8926 54.5 28.166C54.2969 28.4355 54.1914 28.8828 54.1836 29.5078V29.7012C54.1836 30.4043 54.2871 30.9082 54.4941 31.2129C54.7051 31.5176 55.0371 31.6699 55.4902 31.6699C56.291 31.6699 56.6914 31.0098 56.6914 29.6895C56.6914 29.0449 56.5918 28.5625 56.3926 28.2422C56.1973 27.918 55.8887 27.7559 55.4668 27.7559Z" fill="#333333"/>
<path d="M62.75 31.6934C63.0625 31.6934 63.4375 31.625 63.875 31.4883V32.8184C63.4297 33.0176 62.8828 33.1172 62.2344 33.1172C61.5195 33.1172 60.998 32.9375 60.6699 32.5781C60.3457 32.2148 60.1836 31.6719 60.1836 30.9492V27.791H59.3281V27.0352L60.3125 26.4375L60.8281 25.0547H61.9707V26.4492H63.8047V27.791H61.9707V30.9492C61.9707 31.2031 62.041 31.3906 62.1816 31.5117C62.3262 31.6328 62.5156 31.6934 62.75 31.6934Z" fill="#333333"/>
<circle cx="17.5" cy="17.5" r="1.5" fill="#444444"/>
<circle cx="17.5" cy="38.5" r="1.5" fill="#444444"/>
<circle cx="70.5" cy="17.5" r="1.5" fill="#444444"/>
<circle cx="70.5" cy="38.5" r="1.5" fill="#444444"/>
<rect x="17.5" y="47.5" width="53" height="21" fill="white" stroke="#444444"/>
<path d="M28.3145 58.2363H28.9004C29.4746 58.2363 29.8984 58.1406 30.1719 57.9492C30.4453 57.7578 30.582 57.457 30.582 57.0469C30.582 56.6406 30.4414 56.3516 30.1602 56.1797C29.8828 56.0078 29.4512 55.9219 28.8652 55.9219H28.3145V58.2363ZM28.3145 59.7129V63H26.498V54.4336H28.9941C30.1582 54.4336 31.0195 54.6465 31.5781 55.0723C32.1367 55.4941 32.416 56.1367 32.416 57C32.416 57.5039 32.2773 57.9531 32 58.3477C31.7227 58.7383 31.3301 59.0449 30.8223 59.2676C32.1113 61.1934 32.9512 62.4375 33.3418 63H31.3262L29.2812 59.7129H28.3145Z" fill="#333333"/>
<path d="M36.9922 57.5977C36.6133 57.5977 36.3164 57.7188 36.1016 57.9609C35.8867 58.1992 35.7637 58.5391 35.7324 58.9805H38.2402C38.2324 58.5391 38.1172 58.1992 37.8945 57.9609C37.6719 57.7188 37.3711 57.5977 36.9922 57.5977ZM37.2441 63.1172C36.1895 63.1172 35.3652 62.8262 34.7715 62.2441C34.1777 61.6621 33.8809 60.8379 33.8809 59.7715C33.8809 58.6738 34.1543 57.8262 34.7012 57.2285C35.252 56.627 36.0117 56.3262 36.9805 56.3262C37.9062 56.3262 38.627 56.5898 39.1426 57.1172C39.6582 57.6445 39.916 58.373 39.916 59.3027V60.1699H35.6914C35.7109 60.6777 35.8613 61.0742 36.1426 61.3594C36.4238 61.6445 36.8184 61.7871 37.3262 61.7871C37.7207 61.7871 38.0938 61.7461 38.4453 61.6641C38.7969 61.582 39.1641 61.4512 39.5469 61.2715V62.6543C39.2344 62.8105 38.9004 62.9258 38.5449 63C38.1895 63.0781 37.7559 63.1172 37.2441 63.1172Z" fill="#333333"/>
<path d="M40.8418 65.8828C40.3848 65.8828 39.9922 65.834 39.6641 65.7363V64.3301C39.9375 64.4043 40.2168 64.4414 40.502 64.4414C40.8027 64.4414 41.0215 64.3574 41.1582 64.1895C41.2988 64.0215 41.3691 63.7734 41.3691 63.4453V56.4492H43.1562V63.709C43.1562 64.4043 42.9551 64.9395 42.5527 65.3145C42.1504 65.6934 41.5801 65.8828 40.8418 65.8828ZM41.293 54.7559C41.293 54.1738 41.6172 53.8828 42.2656 53.8828C42.9141 53.8828 43.2383 54.1738 43.2383 54.7559C43.2383 55.0332 43.1562 55.25 42.9922 55.4062C42.832 55.5586 42.5898 55.6348 42.2656 55.6348C41.6172 55.6348 41.293 55.3418 41.293 54.7559Z" fill="#333333"/>
<path d="M47.75 57.5977C47.3711 57.5977 47.0742 57.7188 46.8594 57.9609C46.6445 58.1992 46.5215 58.5391 46.4902 58.9805H48.998C48.9902 58.5391 48.875 58.1992 48.6523 57.9609C48.4297 57.7188 48.1289 57.5977 47.75 57.5977ZM48.002 63.1172C46.9473 63.1172 46.123 62.8262 45.5293 62.2441C44.9355 61.6621 44.6387 60.8379 44.6387 59.7715C44.6387 58.6738 44.9121 57.8262 45.459 57.2285C46.0098 56.627 46.7695 56.3262 47.7383 56.3262C48.6641 56.3262 49.3848 56.5898 49.9004 57.1172C50.416 57.6445 50.6738 58.373 50.6738 59.3027V60.1699H46.4492C46.4688 60.6777 46.6191 61.0742 46.9004 61.3594C47.1816 61.6445 47.5762 61.7871 48.084 61.7871C48.4785 61.7871 48.8516 61.7461 49.2031 61.6641C49.5547 61.582 49.9219 61.4512 50.3047 61.2715V62.6543C49.9922 62.8105 49.6582 62.9258 49.3027 63C48.9473 63.0781 48.5137 63.1172 48.002 63.1172Z" fill="#333333"/>
<path d="M54.7871 63.1172C52.748 63.1172 51.7285 61.998 51.7285 59.7598C51.7285 58.6465 52.0059 57.7969 52.5605 57.2109C53.1152 56.6211 53.9102 56.3262 54.9453 56.3262C55.7031 56.3262 56.3828 56.4746 56.9844 56.7715L56.457 58.1543C56.1758 58.041 55.9141 57.9492 55.6719 57.8789C55.4297 57.8047 55.1875 57.7676 54.9453 57.7676C54.0156 57.7676 53.5508 58.4277 53.5508 59.748C53.5508 61.0293 54.0156 61.6699 54.9453 61.6699C55.2891 61.6699 55.6074 61.625 55.9004 61.5352C56.1934 61.4414 56.4863 61.2969 56.7793 61.1016V62.6309C56.4902 62.8145 56.1973 62.9414 55.9004 63.0117C55.6074 63.082 55.2363 63.1172 54.7871 63.1172Z" fill="#333333"/>
<path d="M61.0625 61.6934C61.375 61.6934 61.75 61.625 62.1875 61.4883V62.8184C61.7422 63.0176 61.1953 63.1172 60.5469 63.1172C59.832 63.1172 59.3105 62.9375 58.9824 62.5781C58.6582 62.2148 58.4961 61.6719 58.4961 60.9492V57.791H57.6406V57.0352L58.625 56.4375L59.1406 55.0547H60.2832V56.4492H62.1172V57.791H60.2832V60.9492C60.2832 61.2031 60.3535 61.3906 60.4941 61.5117C60.6387 61.6328 60.8281 61.6934 61.0625 61.6934Z" fill="#333333"/>
<circle cx="17.5" cy="47.5" r="1.5" fill="#444444"/>
<circle cx="17.5" cy="68.5" r="1.5" fill="#444444"/>
<circle cx="70.5" cy="47.5" r="1.5" fill="#444444"/>
<circle cx="70.5" cy="68.5" r="1.5" fill="#444444"/>
<path d="M73 25C68.0275 25 64 29.0275 64 34C64 38.9725 68.0275 43 73 43C77.9725 43 82 38.9725 82 34C82 29.0275 77.9725 25 73 25Z" fill="#8BB825"/>
<path fill-rule="evenodd" clip-rule="evenodd" d="M68.7071 33.7065C68.3166 34.097 68.3166 34.7302 68.7071 35.1207L71.3644 37.778C71.5643 37.9779 71.8277 38.0754 72.0896 38.0708C72.3538 38.0773 72.6201 37.9798 72.8217 37.7782L78.4786 32.1213C78.8691 31.7308 78.8691 31.0976 78.4786 30.7071C78.0881 30.3166 77.4549 30.3166 77.0644 30.7071L72.0932 35.6783L70.1213 33.7065C69.7308 33.3159 69.0976 33.3159 68.7071 33.7065Z" fill="white"/>
<path d="M73 58C68.0275 58 64 62.0275 64 67C64 71.9725 68.0275 76 73 76C77.9725 76 82 71.9725 82 67C82 62.0275 77.9725 58 73 58Z" fill="#444444"/>
<path fill-rule="evenodd" clip-rule="evenodd" d="M69.4642 63.4645C69.0737 63.855 69.0737 64.4882 69.4642 64.8787L71.5856 67L69.4642 69.1213C69.0737 69.5118 69.0737 70.145 69.4642 70.5355C69.8548 70.9261 70.4879 70.9261 70.8785 70.5355L72.9998 68.4142L75.1211 70.5355C75.5116 70.9261 76.1448 70.9261 76.5353 70.5355C76.9258 70.145 76.9258 69.5118 76.5353 69.1213L74.414 67L76.5353 64.8787C76.9258 64.4882 76.9258 63.855 76.5353 63.4645C76.1448 63.0739 75.5116 63.0739 75.1211 63.4645L72.9998 65.5858L70.8785 63.4645C70.4879 63.0739 69.8548 63.0739 69.4642 63.4645Z" fill="white"/>
<path d="M97.1133 39H94.9941V30.7695H92.2803V29.0059H99.8271V30.7695H97.1133V39ZM108.256 39H106.171V34.5361C106.171 33.4333 105.761 32.8818 104.94 32.8818C104.357 32.8818 103.936 33.0801 103.676 33.4766C103.416 33.873 103.286 34.5156 103.286 35.4043V39H101.201V28.3633H103.286V30.5303C103.286 30.6989 103.27 31.0954 103.238 31.7197L103.19 32.335H103.3C103.765 31.5876 104.503 31.2139 105.515 31.2139C106.412 31.2139 107.094 31.4554 107.559 31.9385C108.023 32.4215 108.256 33.1143 108.256 34.0166V39ZM110.313 29.3818C110.313 28.7028 110.692 28.3633 111.448 28.3633C112.205 28.3633 112.583 28.7028 112.583 29.3818C112.583 29.7054 112.487 29.9583 112.296 30.1406C112.109 30.3184 111.826 30.4072 111.448 30.4072C110.692 30.4072 110.313 30.0654 110.313 29.3818ZM112.487 39H110.402V31.3574H112.487V39ZM120.014 36.7305C120.014 37.5143 119.74 38.1113 119.193 38.5215C118.651 38.9316 117.838 39.1367 116.753 39.1367C116.197 39.1367 115.723 39.098 115.331 39.0205C114.939 38.9476 114.572 38.8382 114.23 38.6924V36.9697C114.618 37.152 115.053 37.3047 115.536 37.4277C116.024 37.5508 116.452 37.6123 116.821 37.6123C117.578 37.6123 117.956 37.3936 117.956 36.9561C117.956 36.792 117.906 36.6598 117.806 36.5596C117.705 36.4548 117.532 36.3385 117.286 36.2109C117.04 36.0788 116.712 35.9261 116.302 35.7529C115.714 35.5068 115.281 35.279 115.003 35.0693C114.729 34.8597 114.529 34.6204 114.401 34.3516C114.278 34.0781 114.217 33.7432 114.217 33.3467C114.217 32.6676 114.479 32.1436 115.003 31.7744C115.532 31.4007 116.279 31.2139 117.245 31.2139C118.166 31.2139 119.061 31.4144 119.932 31.8154L119.303 33.3193C118.92 33.1553 118.562 33.0208 118.229 32.916C117.897 32.8112 117.557 32.7588 117.211 32.7588C116.596 32.7588 116.288 32.9251 116.288 33.2578C116.288 33.4447 116.386 33.6064 116.582 33.7432C116.783 33.8799 117.218 34.0827 117.888 34.3516C118.485 34.5931 118.922 34.8187 119.2 35.0283C119.478 35.238 119.683 35.4795 119.815 35.7529C119.948 36.0264 120.014 36.3522 120.014 36.7305ZM128.497 37.4756C128.862 37.4756 129.299 37.3958 129.81 37.2363V38.7881C129.29 39.0205 128.652 39.1367 127.896 39.1367C127.062 39.1367 126.453 38.9271 126.07 38.5078C125.692 38.084 125.503 37.4505 125.503 36.6074V32.9229H124.505V32.041L125.653 31.3438L126.255 29.7305H127.588V31.3574H129.728V32.9229H127.588V36.6074C127.588 36.9036 127.67 37.1224 127.834 37.2637C128.003 37.4049 128.224 37.4756 128.497 37.4756ZM134.526 32.6973C134.084 32.6973 133.738 32.8385 133.487 33.1211C133.237 33.3991 133.093 33.7956 133.057 34.3105H135.982C135.973 33.7956 135.839 33.3991 135.579 33.1211C135.319 32.8385 134.968 32.6973 134.526 32.6973ZM134.82 39.1367C133.59 39.1367 132.628 38.7972 131.936 38.1182C131.243 37.4391 130.896 36.4775 130.896 35.2334C130.896 33.9528 131.215 32.9639 131.854 32.2666C132.496 31.5648 133.382 31.2139 134.513 31.2139C135.593 31.2139 136.434 31.5215 137.035 32.1367C137.637 32.752 137.938 33.6019 137.938 34.6865V35.6982H133.009C133.032 36.2907 133.207 36.7533 133.535 37.0859C133.863 37.4186 134.324 37.585 134.916 37.585C135.376 37.585 135.812 37.5371 136.222 37.4414C136.632 37.3457 137.06 37.193 137.507 36.9834V38.5967C137.142 38.779 136.753 38.9134 136.338 39C135.923 39.0911 135.417 39.1367 134.82 39.1367ZM141.198 35.0967L138.737 31.3574H141.103L142.586 33.791L144.083 31.3574H146.448L143.96 35.0967L146.564 39H144.192L142.586 36.3818L140.973 39H138.607L141.198 35.0967ZM150.946 37.4756C151.311 37.4756 151.748 37.3958 152.259 37.2363V38.7881C151.739 39.0205 151.101 39.1367 150.345 39.1367C149.511 39.1367 148.902 38.9271 148.52 38.5078C148.141 38.084 147.952 37.4505 147.952 36.6074V32.9229H146.954V32.041L148.103 31.3438L148.704 29.7305H150.037V31.3574H152.177V32.9229H150.037V36.6074C150.037 36.9036 150.119 37.1224 150.283 37.2637C150.452 37.4049 150.673 37.4756 150.946 37.4756Z" fill="#FF6F3D"/>
<path d="M162.684 39V34.1533C162.684 33.5426 162.545 33.0869 162.267 32.7861C161.989 32.4854 161.553 32.335 160.961 32.335C160.173 32.335 159.596 32.5492 159.231 32.9775C158.871 33.4059 158.691 34.1077 158.691 35.083V39H157.557V28.3633H158.691V31.583C158.691 31.9704 158.673 32.2917 158.637 32.5469H158.705C158.928 32.1868 159.245 31.9043 159.655 31.6992C160.07 31.4896 160.542 31.3848 161.07 31.3848C161.986 31.3848 162.672 31.6035 163.128 32.041C163.588 32.474 163.818 33.1644 163.818 34.1123V39H162.684ZM170.764 39L170.538 37.9336H170.483C170.11 38.403 169.736 38.722 169.362 38.8906C168.993 39.0547 168.531 39.1367 167.975 39.1367C167.232 39.1367 166.648 38.9453 166.225 38.5625C165.805 38.1797 165.596 37.6351 165.596 36.9287C165.596 35.4157 166.806 34.6227 169.226 34.5498L170.497 34.5088V34.0439C170.497 33.4561 170.369 33.0231 170.114 32.7451C169.864 32.4626 169.46 32.3213 168.904 32.3213C168.28 32.3213 167.574 32.5127 166.785 32.8955L166.437 32.0273C166.806 31.8268 167.209 31.6696 167.646 31.5557C168.089 31.4417 168.531 31.3848 168.973 31.3848C169.866 31.3848 170.527 31.583 170.955 31.9795C171.388 32.376 171.604 33.0117 171.604 33.8867V39H170.764ZM168.2 38.2002C168.907 38.2002 169.46 38.0065 169.861 37.6191C170.267 37.2318 170.47 36.6895 170.47 35.9922V35.3154L169.335 35.3633C168.433 35.3952 167.781 35.5365 167.38 35.7871C166.983 36.0332 166.785 36.4183 166.785 36.9424C166.785 37.3525 166.908 37.6647 167.154 37.8789C167.405 38.0931 167.754 38.2002 168.2 38.2002ZM178.782 36.9561C178.782 37.6533 178.522 38.1911 178.003 38.5693C177.483 38.9476 176.754 39.1367 175.815 39.1367C174.822 39.1367 174.047 38.9795 173.491 38.665V37.6123C173.851 37.7946 174.236 37.9382 174.646 38.043C175.061 38.1478 175.46 38.2002 175.843 38.2002C176.435 38.2002 176.891 38.1068 177.21 37.9199C177.529 37.7285 177.688 37.4391 177.688 37.0518C177.688 36.7601 177.561 36.5117 177.306 36.3066C177.055 36.097 176.563 35.8509 175.829 35.5684C175.132 35.3086 174.635 35.083 174.339 34.8916C174.047 34.6956 173.828 34.4746 173.683 34.2285C173.541 33.9824 173.471 33.6885 173.471 33.3467C173.471 32.736 173.719 32.2552 174.216 31.9043C174.713 31.5488 175.394 31.3711 176.26 31.3711C177.066 31.3711 177.855 31.5352 178.625 31.8633L178.222 32.7861C177.47 32.4762 176.788 32.3213 176.178 32.3213C175.64 32.3213 175.234 32.4056 174.961 32.5742C174.688 32.7428 174.551 32.9753 174.551 33.2715C174.551 33.472 174.601 33.6429 174.701 33.7842C174.806 33.9255 174.972 34.0599 175.2 34.1875C175.428 34.3151 175.866 34.4997 176.513 34.7412C177.401 35.0648 178.001 35.3906 178.311 35.7188C178.625 36.0469 178.782 36.4593 178.782 36.9561ZM96.6895 50.3848C97.6738 50.3848 98.4372 50.722 98.9795 51.3965C99.5264 52.0664 99.7998 53.0166 99.7998 54.2471C99.7998 55.4775 99.5241 56.4346 98.9727 57.1182C98.4258 57.7972 97.6647 58.1367 96.6895 58.1367C96.2018 58.1367 95.7552 58.0479 95.3496 57.8701C94.9486 57.6878 94.6113 57.4098 94.3379 57.0361H94.2559L94.0166 58H93.2031V47.3633H94.3379V49.9473C94.3379 50.526 94.3197 51.0456 94.2832 51.5059H94.3379C94.8665 50.7585 95.6504 50.3848 96.6895 50.3848ZM96.5254 51.335C95.7507 51.335 95.1924 51.5583 94.8506 52.0049C94.5088 52.4469 94.3379 53.1943 94.3379 54.2471C94.3379 55.2998 94.5133 56.054 94.8643 56.5098C95.2152 56.9609 95.778 57.1865 96.5527 57.1865C97.25 57.1865 97.7695 56.9336 98.1113 56.4277C98.4531 55.9173 98.624 55.1859 98.624 54.2334C98.624 53.2581 98.4531 52.5312 98.1113 52.0527C97.7695 51.5742 97.2409 51.335 96.5254 51.335ZM104.954 58.1367C103.847 58.1367 102.972 57.7995 102.329 57.125C101.691 56.4505 101.372 55.514 101.372 54.3154C101.372 53.1077 101.668 52.1484 102.261 51.4375C102.858 50.7266 103.658 50.3711 104.66 50.3711C105.599 50.3711 106.342 50.681 106.889 51.3008C107.436 51.916 107.709 52.7295 107.709 53.7412V54.459H102.548C102.571 55.3385 102.792 56.0062 103.211 56.4619C103.635 56.9176 104.229 57.1455 104.995 57.1455C105.802 57.1455 106.599 56.9769 107.388 56.6396V57.6514C106.987 57.8245 106.606 57.9476 106.246 58.0205C105.891 58.098 105.46 58.1367 104.954 58.1367ZM104.646 51.3213C104.045 51.3213 103.564 51.5173 103.204 51.9092C102.849 52.3011 102.639 52.8434 102.575 53.5361H106.492C106.492 52.8206 106.333 52.2738 106.014 51.8955C105.695 51.5127 105.239 51.3213 104.646 51.3213ZM112.815 58.1367C111.708 58.1367 110.833 57.7995 110.19 57.125C109.552 56.4505 109.233 55.514 109.233 54.3154C109.233 53.1077 109.53 52.1484 110.122 51.4375C110.719 50.7266 111.519 50.3711 112.521 50.3711C113.46 50.3711 114.203 50.681 114.75 51.3008C115.297 51.916 115.57 52.7295 115.57 53.7412V54.459H110.409C110.432 55.3385 110.653 56.0062 111.072 56.4619C111.496 56.9176 112.091 57.1455 112.856 57.1455C113.663 57.1455 114.461 56.9769 115.249 56.6396V57.6514C114.848 57.8245 114.467 57.9476 114.107 58.0205C113.752 58.098 113.321 58.1367 112.815 58.1367ZM112.508 51.3213C111.906 51.3213 111.425 51.5173 111.065 51.9092C110.71 52.3011 110.5 52.8434 110.437 53.5361H114.354C114.354 52.8206 114.194 52.2738 113.875 51.8955C113.556 51.5127 113.1 51.3213 112.508 51.3213ZM122.639 58V53.1533C122.639 52.5426 122.5 52.0869 122.222 51.7861C121.944 51.4854 121.508 51.335 120.916 51.335C120.132 51.335 119.558 51.5469 119.193 51.9707C118.829 52.3945 118.646 53.0941 118.646 54.0693V58H117.512V50.5078H118.435L118.619 51.5332H118.674C118.906 51.1641 119.232 50.8792 119.651 50.6787C120.071 50.4736 120.538 50.3711 121.053 50.3711C121.955 50.3711 122.634 50.5898 123.09 51.0273C123.546 51.4603 123.773 52.1553 123.773 53.1123V58H122.639Z" fill="black"/>
<path d="M132.742 58.1367C131.658 58.1367 130.817 57.804 130.22 57.1387C129.627 56.4688 129.331 55.5231 129.331 54.3018C129.331 53.0485 129.632 52.0801 130.233 51.3965C130.84 50.7129 131.701 50.3711 132.817 50.3711C133.177 50.3711 133.537 50.4098 133.897 50.4873C134.257 50.5648 134.54 50.6559 134.745 50.7607L134.396 51.7246C134.146 51.6243 133.872 51.5423 133.576 51.4785C133.28 51.4102 133.018 51.376 132.79 51.376C131.268 51.376 130.507 52.3467 130.507 54.2881C130.507 55.2087 130.691 55.915 131.061 56.4072C131.434 56.8994 131.986 57.1455 132.715 57.1455C133.339 57.1455 133.979 57.0111 134.636 56.7422V57.7471C134.134 58.0068 133.503 58.1367 132.742 58.1367ZM141.547 58V53.1533C141.547 52.5426 141.408 52.0869 141.13 51.7861C140.852 51.4854 140.417 51.335 139.824 51.335C139.036 51.335 138.459 51.5492 138.095 51.9775C137.735 52.4059 137.555 53.1077 137.555 54.083V58H136.42V47.3633H137.555V50.583C137.555 50.9704 137.536 51.2917 137.5 51.5469H137.568C137.792 51.1868 138.108 50.9043 138.519 50.6992C138.933 50.4896 139.405 50.3848 139.934 50.3848C140.85 50.3848 141.535 50.6035 141.991 51.041C142.451 51.474 142.682 52.1644 142.682 53.1123V58H141.547ZM149.627 58L149.401 56.9336H149.347C148.973 57.403 148.599 57.722 148.226 57.8906C147.856 58.0547 147.394 58.1367 146.838 58.1367C146.095 58.1367 145.512 57.9453 145.088 57.5625C144.669 57.1797 144.459 56.6351 144.459 55.9287C144.459 54.4157 145.669 53.6227 148.089 53.5498L149.36 53.5088V53.0439C149.36 52.4561 149.233 52.0231 148.978 51.7451C148.727 51.4626 148.324 51.3213 147.768 51.3213C147.143 51.3213 146.437 51.5127 145.648 51.8955L145.3 51.0273C145.669 50.8268 146.072 50.6696 146.51 50.5557C146.952 50.4417 147.394 50.3848 147.836 50.3848C148.729 50.3848 149.39 50.583 149.818 50.9795C150.251 51.376 150.468 52.0117 150.468 52.8867V58H149.627ZM147.063 57.2002C147.77 57.2002 148.324 57.0065 148.725 56.6191C149.13 56.2318 149.333 55.6895 149.333 54.9922V54.3154L148.198 54.3633C147.296 54.3952 146.644 54.5365 146.243 54.7871C145.847 55.0332 145.648 55.4183 145.648 55.9424C145.648 56.3525 145.771 56.6647 146.018 56.8789C146.268 57.0931 146.617 57.2002 147.063 57.2002ZM157.939 58V53.1533C157.939 52.5426 157.8 52.0869 157.522 51.7861C157.244 51.4854 156.809 51.335 156.217 51.335C155.433 51.335 154.859 51.5469 154.494 51.9707C154.13 52.3945 153.947 53.0941 153.947 54.0693V58H152.812V50.5078H153.735L153.92 51.5332H153.975C154.207 51.1641 154.533 50.8792 154.952 50.6787C155.371 50.4736 155.839 50.3711 156.354 50.3711C157.256 50.3711 157.935 50.5898 158.391 51.0273C158.846 51.4603 159.074 52.1553 159.074 53.1123V58H157.939ZM167.544 50.5078V51.2256L166.156 51.3896C166.284 51.5492 166.398 51.7588 166.498 52.0186C166.598 52.2738 166.648 52.5632 166.648 52.8867C166.648 53.6204 166.398 54.2061 165.896 54.6436C165.395 55.0811 164.707 55.2998 163.832 55.2998C163.609 55.2998 163.399 55.2816 163.203 55.2451C162.72 55.5003 162.479 55.8216 162.479 56.209C162.479 56.4141 162.563 56.5667 162.731 56.667C162.9 56.7627 163.189 56.8105 163.6 56.8105H164.926C165.737 56.8105 166.359 56.9814 166.792 57.3232C167.229 57.665 167.448 58.1618 167.448 58.8135C167.448 59.6429 167.116 60.2741 166.45 60.707C165.785 61.1445 164.814 61.3633 163.538 61.3633C162.558 61.3633 161.802 61.181 161.269 60.8164C160.74 60.4518 160.476 59.9368 160.476 59.2715C160.476 58.8158 160.621 58.4215 160.913 58.0889C161.205 57.7562 161.615 57.5306 162.144 57.4121C161.952 57.3255 161.79 57.1911 161.658 57.0088C161.531 56.8265 161.467 56.6146 161.467 56.373C161.467 56.0996 161.54 55.8604 161.686 55.6553C161.831 55.4502 162.062 55.252 162.376 55.0605C161.989 54.901 161.672 54.6299 161.426 54.2471C161.184 53.8643 161.063 53.4268 161.063 52.9346C161.063 52.1143 161.31 51.4831 161.802 51.041C162.294 50.5944 162.991 50.3711 163.894 50.3711C164.285 50.3711 164.639 50.4167 164.953 50.5078H167.544ZM161.569 59.2578C161.569 59.6634 161.74 59.971 162.082 60.1807C162.424 60.3903 162.914 60.4951 163.552 60.4951C164.504 60.4951 165.208 60.3516 165.664 60.0645C166.124 59.7819 166.354 59.3968 166.354 58.9092C166.354 58.5036 166.229 58.221 165.979 58.0615C165.728 57.9066 165.256 57.8291 164.563 57.8291H163.203C162.688 57.8291 162.287 57.9521 162 58.1982C161.713 58.4443 161.569 58.7975 161.569 59.2578ZM162.185 52.9072C162.185 53.4313 162.333 53.8278 162.629 54.0967C162.925 54.3656 163.338 54.5 163.866 54.5C164.974 54.5 165.527 53.9622 165.527 52.8867C165.527 51.7611 164.967 51.1982 163.846 51.1982C163.312 51.1982 162.902 51.3418 162.615 51.6289C162.328 51.916 162.185 52.3421 162.185 52.9072ZM172.247 58.1367C171.14 58.1367 170.265 57.7995 169.622 57.125C168.984 56.4505 168.665 55.514 168.665 54.3154C168.665 53.1077 168.961 52.1484 169.554 51.4375C170.151 50.7266 170.951 50.3711 171.953 50.3711C172.892 50.3711 173.635 50.681 174.182 51.3008C174.729 51.916 175.002 52.7295 175.002 53.7412V54.459H169.841C169.864 55.3385 170.085 56.0062 170.504 56.4619C170.928 56.9176 171.522 57.1455 172.288 57.1455C173.095 57.1455 173.892 56.9769 174.681 56.6396V57.6514C174.28 57.8245 173.899 57.9476 173.539 58.0205C173.184 58.098 172.753 58.1367 172.247 58.1367ZM171.939 51.3213C171.338 51.3213 170.857 51.5173 170.497 51.9092C170.142 52.3011 169.932 52.8434 169.868 53.5361H173.785C173.785 52.8206 173.626 52.2738 173.307 51.8955C172.988 51.5127 172.532 51.3213 171.939 51.3213ZM182.043 56.9951H181.981C181.457 57.7562 180.674 58.1367 179.63 58.1367C178.65 58.1367 177.887 57.8018 177.34 57.1318C176.798 56.4619 176.526 55.5094 176.526 54.2744C176.526 53.0394 176.8 52.0801 177.347 51.3965C177.894 50.7129 178.655 50.3711 179.63 50.3711C180.646 50.3711 181.425 50.7402 181.968 51.4785H182.057L182.009 50.9385L181.981 50.4121V47.3633H183.116V58H182.193L182.043 56.9951ZM179.773 57.1865C180.548 57.1865 181.109 56.9769 181.455 56.5576C181.806 56.1338 181.981 55.4525 181.981 54.5137V54.2744C181.981 53.2126 181.804 52.4561 181.448 52.0049C181.097 51.5492 180.535 51.3213 179.76 51.3213C179.094 51.3213 178.584 51.5811 178.229 52.1006C177.878 52.6156 177.702 53.3447 177.702 54.2881C177.702 55.2451 177.878 55.9674 178.229 56.4551C178.579 56.9427 179.094 57.1865 179.773 57.1865Z" fill="#CB0000"/>
<path d="M156.354 40.4014H179.425V41.0986H156.354V40.4014ZM92 59.4014H128.545V60.0986H92V59.4014Z" fill="black"/>
<path d="M128.545 54.6025H184.319V55.2998H128.545V54.6025Z" fill="#CB0000"/>
</g>
<defs>
<clipPath id="clip0_2378_6473">
<rect width="208" height="80" fill="white"/>
</clipPath>
</defs>
</svg>
