<svg width="208" height="80" viewBox="0 0 208 80" fill="none" xmlns="http://www.w3.org/2000/svg">
<rect x="80.5" y="12.5" width="116" height="55" rx="2.5" fill="white" stroke="#E2E2E2"/>
<rect x="17.5" y="12.5" width="53" height="21" fill="white" stroke="#808080"/>
<path d="M30.0547 26.6016L29.4336 24.5625H26.3105L25.6895 26.6016H23.7324L26.7559 18H28.9766L32.0117 26.6016H30.0547ZM29 23.0391C28.4258 21.1914 28.1016 20.1465 28.0273 19.9043C27.957 19.6621 27.9062 19.4707 27.875 19.3301C27.7461 19.8301 27.377 21.0664 26.7676 23.0391H29Z" fill="#444444"/>
<path d="M35.6152 26.7188C33.5762 26.7188 32.5566 25.5996 32.5566 23.3613C32.5566 22.248 32.834 21.3984 33.3887 20.8125C33.9434 20.2227 34.7383 19.9277 35.7734 19.9277C36.5312 19.9277 37.2109 20.0762 37.8125 20.373L37.2852 21.7559C37.0039 21.6426 36.7422 21.5508 36.5 21.4805C36.2578 21.4062 36.0156 21.3691 35.7734 21.3691C34.8438 21.3691 34.3789 22.0293 34.3789 23.3496C34.3789 24.6309 34.8438 25.2715 35.7734 25.2715C36.1172 25.2715 36.4355 25.2266 36.7285 25.1367C37.0215 25.043 37.3145 24.8984 37.6074 24.7031V26.2324C37.3184 26.416 37.0254 26.543 36.7285 26.6133C36.4355 26.6836 36.0645 26.7188 35.6152 26.7188Z" fill="#444444"/>
<path d="M41.791 26.7188C39.752 26.7188 38.7324 25.5996 38.7324 23.3613C38.7324 22.248 39.0098 21.3984 39.5645 20.8125C40.1191 20.2227 40.9141 19.9277 41.9492 19.9277C42.707 19.9277 43.3867 20.0762 43.9883 20.373L43.4609 21.7559C43.1797 21.6426 42.918 21.5508 42.6758 21.4805C42.4336 21.4062 42.1914 21.3691 41.9492 21.3691C41.0195 21.3691 40.5547 22.0293 40.5547 23.3496C40.5547 24.6309 41.0195 25.2715 41.9492 25.2715C42.293 25.2715 42.6113 25.2266 42.9043 25.1367C43.1973 25.043 43.4902 24.8984 43.7832 24.7031V26.2324C43.4941 26.416 43.2012 26.543 42.9043 26.6133C42.6113 26.6836 42.2402 26.7188 41.791 26.7188Z" fill="#444444"/>
<path d="M48.0195 21.1992C47.6406 21.1992 47.3438 21.3203 47.1289 21.5625C46.9141 21.8008 46.791 22.1406 46.7598 22.582H49.2676C49.2598 22.1406 49.1445 21.8008 48.9219 21.5625C48.6992 21.3203 48.3984 21.1992 48.0195 21.1992ZM48.2715 26.7188C47.2168 26.7188 46.3926 26.4277 45.7988 25.8457C45.2051 25.2637 44.9082 24.4395 44.9082 23.373C44.9082 22.2754 45.1816 21.4277 45.7285 20.8301C46.2793 20.2285 47.0391 19.9277 48.0078 19.9277C48.9336 19.9277 49.6543 20.1914 50.1699 20.7188C50.6855 21.2461 50.9434 21.9746 50.9434 22.9043V23.7715H46.7188C46.7383 24.2793 46.8887 24.6758 47.1699 24.9609C47.4512 25.2461 47.8457 25.3887 48.3535 25.3887C48.748 25.3887 49.1211 25.3477 49.4727 25.2656C49.8242 25.1836 50.1914 25.0527 50.5742 24.873V26.2559C50.2617 26.4121 49.9277 26.5273 49.5723 26.6016C49.2168 26.6797 48.7832 26.7188 48.2715 26.7188Z" fill="#444444"/>
<path d="M55.9941 26.7188C55.2246 26.7188 54.6211 26.4395 54.1836 25.8809H54.0898C54.1523 26.4277 54.1836 26.7441 54.1836 26.8301V29.4844H52.3965V20.0508H53.8496L54.1016 20.9004H54.1836C54.6016 20.252 55.2207 19.9277 56.041 19.9277C56.8145 19.9277 57.4199 20.2266 57.8574 20.8242C58.2949 21.4219 58.5137 22.252 58.5137 23.3145C58.5137 24.0137 58.4102 24.6211 58.2031 25.1367C58 25.6523 57.709 26.0449 57.3301 26.3145C56.9512 26.584 56.5059 26.7188 55.9941 26.7188ZM55.4668 21.3574C55.0254 21.3574 54.7031 21.4941 54.5 21.7676C54.2969 22.0371 54.1914 22.4844 54.1836 23.1094V23.3027C54.1836 24.0059 54.2871 24.5098 54.4941 24.8145C54.7051 25.1191 55.0371 25.2715 55.4902 25.2715C56.291 25.2715 56.6914 24.6113 56.6914 23.291C56.6914 22.6465 56.5918 22.1641 56.3926 21.8438C56.1973 21.5195 55.8887 21.3574 55.4668 21.3574Z" fill="#444444"/>
<path d="M62.75 25.2949C63.0625 25.2949 63.4375 25.2266 63.875 25.0898V26.4199C63.4297 26.6191 62.8828 26.7188 62.2344 26.7188C61.5195 26.7188 60.998 26.5391 60.6699 26.1797C60.3457 25.8164 60.1836 25.2734 60.1836 24.5508V21.3926H59.3281V20.6367L60.3125 20.0391L60.8281 18.6562H61.9707V20.0508H63.8047V21.3926H61.9707V24.5508C61.9707 24.8047 62.041 24.9922 62.1816 25.1133C62.3262 25.2344 62.5156 25.2949 62.75 25.2949Z" fill="#444444"/>
<circle cx="17.5" cy="12.5" r="1.5" fill="#808080"/>
<circle cx="17.5" cy="33.5" r="1.5" fill="#808080"/>
<circle cx="70.5" cy="12.5" r="1.5" fill="#808080"/>
<circle cx="70.5" cy="33.5" r="1.5" fill="#808080"/>
<rect x="17.5" y="42.5" width="53" height="21" fill="white" stroke="#808080"/>
<path d="M28.3145 52.3535H28.9004C29.4746 52.3535 29.8984 52.2578 30.1719 52.0664C30.4453 51.875 30.582 51.5742 30.582 51.1641C30.582 50.7578 30.4414 50.4688 30.1602 50.2969C29.8828 50.125 29.4512 50.0391 28.8652 50.0391H28.3145V52.3535ZM28.3145 53.8301V57.1172H26.498V48.5508H28.9941C30.1582 48.5508 31.0195 48.7637 31.5781 49.1895C32.1367 49.6113 32.416 50.2539 32.416 51.1172C32.416 51.6211 32.2773 52.0703 32 52.4648C31.7227 52.8555 31.3301 53.1621 30.8223 53.3848C32.1113 55.3105 32.9512 56.5547 33.3418 57.1172H31.3262L29.2812 53.8301H28.3145Z" fill="#444444"/>
<path d="M36.9922 51.7148C36.6133 51.7148 36.3164 51.8359 36.1016 52.0781C35.8867 52.3164 35.7637 52.6562 35.7324 53.0977H38.2402C38.2324 52.6562 38.1172 52.3164 37.8945 52.0781C37.6719 51.8359 37.3711 51.7148 36.9922 51.7148ZM37.2441 57.2344C36.1895 57.2344 35.3652 56.9434 34.7715 56.3613C34.1777 55.7793 33.8809 54.9551 33.8809 53.8887C33.8809 52.791 34.1543 51.9434 34.7012 51.3457C35.252 50.7441 36.0117 50.4434 36.9805 50.4434C37.9062 50.4434 38.627 50.707 39.1426 51.2344C39.6582 51.7617 39.916 52.4902 39.916 53.4199V54.2871H35.6914C35.7109 54.7949 35.8613 55.1914 36.1426 55.4766C36.4238 55.7617 36.8184 55.9043 37.3262 55.9043C37.7207 55.9043 38.0938 55.8633 38.4453 55.7812C38.7969 55.6992 39.1641 55.5684 39.5469 55.3887V56.7715C39.2344 56.9277 38.9004 57.043 38.5449 57.1172C38.1895 57.1953 37.7559 57.2344 37.2441 57.2344Z" fill="#444444"/>
<path d="M40.8418 60C40.3848 60 39.9922 59.9512 39.6641 59.8535V58.4473C39.9375 58.5215 40.2168 58.5586 40.502 58.5586C40.8027 58.5586 41.0215 58.4746 41.1582 58.3066C41.2988 58.1387 41.3691 57.8906 41.3691 57.5625V50.5664H43.1562V57.8262C43.1562 58.5215 42.9551 59.0566 42.5527 59.4316C42.1504 59.8105 41.5801 60 40.8418 60ZM41.293 48.873C41.293 48.291 41.6172 48 42.2656 48C42.9141 48 43.2383 48.291 43.2383 48.873C43.2383 49.1504 43.1562 49.3672 42.9922 49.5234C42.832 49.6758 42.5898 49.752 42.2656 49.752C41.6172 49.752 41.293 49.459 41.293 48.873Z" fill="#444444"/>
<path d="M47.75 51.7148C47.3711 51.7148 47.0742 51.8359 46.8594 52.0781C46.6445 52.3164 46.5215 52.6562 46.4902 53.0977H48.998C48.9902 52.6562 48.875 52.3164 48.6523 52.0781C48.4297 51.8359 48.1289 51.7148 47.75 51.7148ZM48.002 57.2344C46.9473 57.2344 46.123 56.9434 45.5293 56.3613C44.9355 55.7793 44.6387 54.9551 44.6387 53.8887C44.6387 52.791 44.9121 51.9434 45.459 51.3457C46.0098 50.7441 46.7695 50.4434 47.7383 50.4434C48.6641 50.4434 49.3848 50.707 49.9004 51.2344C50.416 51.7617 50.6738 52.4902 50.6738 53.4199V54.2871H46.4492C46.4688 54.7949 46.6191 55.1914 46.9004 55.4766C47.1816 55.7617 47.5762 55.9043 48.084 55.9043C48.4785 55.9043 48.8516 55.8633 49.2031 55.7812C49.5547 55.6992 49.9219 55.5684 50.3047 55.3887V56.7715C49.9922 56.9277 49.6582 57.043 49.3027 57.1172C48.9473 57.1953 48.5137 57.2344 48.002 57.2344Z" fill="#444444"/>
<path d="M54.7871 57.2344C52.748 57.2344 51.7285 56.1152 51.7285 53.877C51.7285 52.7637 52.0059 51.9141 52.5605 51.3281C53.1152 50.7383 53.9102 50.4434 54.9453 50.4434C55.7031 50.4434 56.3828 50.5918 56.9844 50.8887L56.457 52.2715C56.1758 52.1582 55.9141 52.0664 55.6719 51.9961C55.4297 51.9219 55.1875 51.8848 54.9453 51.8848C54.0156 51.8848 53.5508 52.5449 53.5508 53.8652C53.5508 55.1465 54.0156 55.7871 54.9453 55.7871C55.2891 55.7871 55.6074 55.7422 55.9004 55.6523C56.1934 55.5586 56.4863 55.4141 56.7793 55.2188V56.748C56.4902 56.9316 56.1973 57.0586 55.9004 57.1289C55.6074 57.1992 55.2363 57.2344 54.7871 57.2344Z" fill="#444444"/>
<path d="M61.0625 55.8105C61.375 55.8105 61.75 55.7422 62.1875 55.6055V56.9355C61.7422 57.1348 61.1953 57.2344 60.5469 57.2344C59.832 57.2344 59.3105 57.0547 58.9824 56.6953C58.6582 56.332 58.4961 55.7891 58.4961 55.0664V51.9082H57.6406V51.1523L58.625 50.5547L59.1406 49.1719H60.2832V50.5664H62.1172V51.9082H60.2832V55.0664C60.2832 55.3203 60.3535 55.5078 60.4941 55.6289C60.6387 55.75 60.8281 55.8105 61.0625 55.8105Z" fill="#444444"/>
<circle cx="17.5" cy="42.5" r="1.5" fill="#808080"/>
<circle cx="17.5" cy="63.5" r="1.5" fill="#808080"/>
<circle cx="70.5" cy="42.5" r="1.5" fill="#808080"/>
<circle cx="70.5" cy="63.5" r="1.5" fill="#808080"/>
<path d="M73 19.5C67.7514 19.5 63.5 23.7514 63.5 29C63.5 34.2486 67.7514 38.5 73 38.5C78.2486 38.5 82.5 34.2486 82.5 29C82.5 23.7514 78.2486 19.5 73 19.5Z" fill="#8BB825" stroke="white"/>
<path fill-rule="evenodd" clip-rule="evenodd" d="M68.7071 28.707C68.3166 29.0975 68.3166 29.7306 68.7071 30.1212L71.3644 32.7785C71.5643 32.9784 71.8277 33.0759 72.0896 33.0712C72.3538 33.0778 72.6201 32.9803 72.8217 32.7787L78.4786 27.1218C78.8691 26.7313 78.8691 26.0981 78.4786 25.7076C78.0881 25.3171 77.4549 25.3171 77.0644 25.7076L72.0932 30.6788L70.1213 28.707C69.7308 28.3164 69.0976 28.3164 68.7071 28.707Z" fill="white"/>
<path d="M73 52.5C67.7514 52.5 63.5 56.7514 63.5 62C63.5 67.2486 67.7514 71.5 73 71.5C78.2486 71.5 82.5 67.2486 82.5 62C82.5 56.7514 78.2486 52.5 73 52.5Z" fill="#444444" stroke="white"/>
<path fill-rule="evenodd" clip-rule="evenodd" d="M69.4641 58.4646C69.0735 58.8552 69.0735 59.4883 69.4641 59.8789L71.5855 62.0003L69.4644 64.1214C69.0738 64.512 69.0738 65.1451 69.4644 65.5357C69.8549 65.9262 70.4881 65.9262 70.8786 65.5357L72.9997 63.4145L75.1209 65.5357C75.5114 65.9262 76.1446 65.9262 76.5351 65.5357C76.9257 65.1452 76.9257 64.512 76.5351 64.1215L74.4139 62.0003L76.5354 59.8788C76.926 59.4883 76.926 58.8551 76.5354 58.4646C76.1449 58.0741 75.5117 58.0741 75.1212 58.4646L72.9997 60.5861L70.8783 58.4646C70.4878 58.0741 69.8546 58.0741 69.4641 58.4646Z" fill="white"/>
<path d="M98.1133 35H95.9941V26.7695H93.2803V25.0059H100.827V26.7695H98.1133V35ZM109.256 35H107.171V30.5361C107.171 29.4333 106.761 28.8818 105.94 28.8818C105.357 28.8818 104.936 29.0801 104.676 29.4766C104.416 29.873 104.286 30.5156 104.286 31.4043V35H102.201V24.3633H104.286V26.5303C104.286 26.6989 104.27 27.0954 104.238 27.7197L104.19 28.335H104.3C104.765 27.5876 105.503 27.2139 106.515 27.2139C107.412 27.2139 108.094 27.4554 108.559 27.9385C109.023 28.4215 109.256 29.1143 109.256 30.0166V35ZM111.313 25.3818C111.313 24.7028 111.692 24.3633 112.448 24.3633C113.205 24.3633 113.583 24.7028 113.583 25.3818C113.583 25.7054 113.487 25.9583 113.296 26.1406C113.109 26.3184 112.826 26.4072 112.448 26.4072C111.692 26.4072 111.313 26.0654 111.313 25.3818ZM113.487 35H111.402V27.3574H113.487V35ZM121.014 32.7305C121.014 33.5143 120.74 34.1113 120.193 34.5215C119.651 34.9316 118.838 35.1367 117.753 35.1367C117.197 35.1367 116.723 35.098 116.331 35.0205C115.939 34.9476 115.572 34.8382 115.23 34.6924V32.9697C115.618 33.152 116.053 33.3047 116.536 33.4277C117.024 33.5508 117.452 33.6123 117.821 33.6123C118.578 33.6123 118.956 33.3936 118.956 32.9561C118.956 32.792 118.906 32.6598 118.806 32.5596C118.705 32.4548 118.532 32.3385 118.286 32.2109C118.04 32.0788 117.712 31.9261 117.302 31.7529C116.714 31.5068 116.281 31.279 116.003 31.0693C115.729 30.8597 115.529 30.6204 115.401 30.3516C115.278 30.0781 115.217 29.7432 115.217 29.3467C115.217 28.6676 115.479 28.1436 116.003 27.7744C116.532 27.4007 117.279 27.2139 118.245 27.2139C119.166 27.2139 120.061 27.4144 120.932 27.8154L120.303 29.3193C119.92 29.1553 119.562 29.0208 119.229 28.916C118.897 28.8112 118.557 28.7588 118.211 28.7588C117.596 28.7588 117.288 28.9251 117.288 29.2578C117.288 29.4447 117.386 29.6064 117.582 29.7432C117.783 29.8799 118.218 30.0827 118.888 30.3516C119.485 30.5931 119.922 30.8187 120.2 31.0283C120.478 31.238 120.683 31.4795 120.815 31.7529C120.948 32.0264 121.014 32.3522 121.014 32.7305ZM129.497 33.4756C129.862 33.4756 130.299 33.3958 130.81 33.2363V34.7881C130.29 35.0205 129.652 35.1367 128.896 35.1367C128.062 35.1367 127.453 34.9271 127.07 34.5078C126.692 34.084 126.503 33.4505 126.503 32.6074V28.9229H125.505V28.041L126.653 27.3438L127.255 25.7305H128.588V27.3574H130.728V28.9229H128.588V32.6074C128.588 32.9036 128.67 33.1224 128.834 33.2637C129.003 33.4049 129.224 33.4756 129.497 33.4756ZM135.526 28.6973C135.084 28.6973 134.738 28.8385 134.487 29.1211C134.237 29.3991 134.093 29.7956 134.057 30.3105H136.982C136.973 29.7956 136.839 29.3991 136.579 29.1211C136.319 28.8385 135.968 28.6973 135.526 28.6973ZM135.82 35.1367C134.59 35.1367 133.628 34.7972 132.936 34.1182C132.243 33.4391 131.896 32.4775 131.896 31.2334C131.896 29.9528 132.215 28.9639 132.854 28.2666C133.496 27.5648 134.382 27.2139 135.513 27.2139C136.593 27.2139 137.434 27.5215 138.035 28.1367C138.637 28.752 138.938 29.6019 138.938 30.6865V31.6982H134.009C134.032 32.2907 134.207 32.7533 134.535 33.0859C134.863 33.4186 135.324 33.585 135.916 33.585C136.376 33.585 136.812 33.5371 137.222 33.4414C137.632 33.3457 138.06 33.193 138.507 32.9834V34.5967C138.142 34.779 137.753 34.9134 137.338 35C136.923 35.0911 136.417 35.1367 135.82 35.1367ZM142.198 31.0967L139.737 27.3574H142.103L143.586 29.791L145.083 27.3574H147.448L144.96 31.0967L147.564 35H145.192L143.586 32.3818L141.973 35H139.607L142.198 31.0967ZM151.946 33.4756C152.311 33.4756 152.748 33.3958 153.259 33.2363V34.7881C152.739 35.0205 152.101 35.1367 151.345 35.1367C150.511 35.1367 149.902 34.9271 149.52 34.5078C149.141 34.084 148.952 33.4505 148.952 32.6074V28.9229H147.954V28.041L149.103 27.3438L149.704 25.7305H151.037V27.3574H153.177V28.9229H151.037V32.6074C151.037 32.9036 151.119 33.1224 151.283 33.2637C151.452 33.4049 151.673 33.4756 151.946 33.4756Z" fill="#FF6F3D"/>
<path d="M163.684 35V30.1533C163.684 29.5426 163.545 29.0869 163.267 28.7861C162.989 28.4854 162.553 28.335 161.961 28.335C161.173 28.335 160.596 28.5492 160.231 28.9775C159.871 29.4059 159.691 30.1077 159.691 31.083V35H158.557V24.3633H159.691V27.583C159.691 27.9704 159.673 28.2917 159.637 28.5469H159.705C159.928 28.1868 160.245 27.9043 160.655 27.6992C161.07 27.4896 161.542 27.3848 162.07 27.3848C162.986 27.3848 163.672 27.6035 164.128 28.041C164.588 28.474 164.818 29.1644 164.818 30.1123V35H163.684ZM171.764 35L171.538 33.9336H171.483C171.11 34.403 170.736 34.722 170.362 34.8906C169.993 35.0547 169.531 35.1367 168.975 35.1367C168.232 35.1367 167.648 34.9453 167.225 34.5625C166.805 34.1797 166.596 33.6351 166.596 32.9287C166.596 31.4157 167.806 30.6227 170.226 30.5498L171.497 30.5088V30.0439C171.497 29.4561 171.369 29.0231 171.114 28.7451C170.864 28.4626 170.46 28.3213 169.904 28.3213C169.28 28.3213 168.574 28.5127 167.785 28.8955L167.437 28.0273C167.806 27.8268 168.209 27.6696 168.646 27.5557C169.089 27.4417 169.531 27.3848 169.973 27.3848C170.866 27.3848 171.527 27.583 171.955 27.9795C172.388 28.376 172.604 29.0117 172.604 29.8867V35H171.764ZM169.2 34.2002C169.907 34.2002 170.46 34.0065 170.861 33.6191C171.267 33.2318 171.47 32.6895 171.47 31.9922V31.3154L170.335 31.3633C169.433 31.3952 168.781 31.5365 168.38 31.7871C167.983 32.0332 167.785 32.4183 167.785 32.9424C167.785 33.3525 167.908 33.6647 168.154 33.8789C168.405 34.0931 168.754 34.2002 169.2 34.2002ZM179.782 32.9561C179.782 33.6533 179.522 34.1911 179.003 34.5693C178.483 34.9476 177.754 35.1367 176.815 35.1367C175.822 35.1367 175.047 34.9795 174.491 34.665V33.6123C174.851 33.7946 175.236 33.9382 175.646 34.043C176.061 34.1478 176.46 34.2002 176.843 34.2002C177.435 34.2002 177.891 34.1068 178.21 33.9199C178.529 33.7285 178.688 33.4391 178.688 33.0518C178.688 32.7601 178.561 32.5117 178.306 32.3066C178.055 32.097 177.563 31.8509 176.829 31.5684C176.132 31.3086 175.635 31.083 175.339 30.8916C175.047 30.6956 174.828 30.4746 174.683 30.2285C174.541 29.9824 174.471 29.6885 174.471 29.3467C174.471 28.736 174.719 28.2552 175.216 27.9043C175.713 27.5488 176.394 27.3711 177.26 27.3711C178.066 27.3711 178.855 27.5352 179.625 27.8633L179.222 28.7861C178.47 28.4762 177.788 28.3213 177.178 28.3213C176.64 28.3213 176.234 28.4056 175.961 28.5742C175.688 28.7428 175.551 28.9753 175.551 29.2715C175.551 29.472 175.601 29.6429 175.701 29.7842C175.806 29.9255 175.972 30.0599 176.2 30.1875C176.428 30.3151 176.866 30.4997 177.513 30.7412C178.401 31.0648 179.001 31.3906 179.311 31.7188C179.625 32.0469 179.782 32.4593 179.782 32.9561ZM97.6895 46.3848C98.6738 46.3848 99.4372 46.722 99.9795 47.3965C100.526 48.0664 100.8 49.0166 100.8 50.2471C100.8 51.4775 100.524 52.4346 99.9727 53.1182C99.4258 53.7972 98.6647 54.1367 97.6895 54.1367C97.2018 54.1367 96.7552 54.0479 96.3496 53.8701C95.9486 53.6878 95.6113 53.4098 95.3379 53.0361H95.2559L95.0166 54H94.2031V43.3633H95.3379V45.9473C95.3379 46.526 95.3197 47.0456 95.2832 47.5059H95.3379C95.8665 46.7585 96.6504 46.3848 97.6895 46.3848ZM97.5254 47.335C96.7507 47.335 96.1924 47.5583 95.8506 48.0049C95.5088 48.4469 95.3379 49.1943 95.3379 50.2471C95.3379 51.2998 95.5133 52.054 95.8643 52.5098C96.2152 52.9609 96.778 53.1865 97.5527 53.1865C98.25 53.1865 98.7695 52.9336 99.1113 52.4277C99.4531 51.9173 99.624 51.1859 99.624 50.2334C99.624 49.2581 99.4531 48.5312 99.1113 48.0527C98.7695 47.5742 98.2409 47.335 97.5254 47.335ZM105.954 54.1367C104.847 54.1367 103.972 53.7995 103.329 53.125C102.691 52.4505 102.372 51.514 102.372 50.3154C102.372 49.1077 102.668 48.1484 103.261 47.4375C103.858 46.7266 104.658 46.3711 105.66 46.3711C106.599 46.3711 107.342 46.681 107.889 47.3008C108.436 47.916 108.709 48.7295 108.709 49.7412V50.459H103.548C103.571 51.3385 103.792 52.0062 104.211 52.4619C104.635 52.9176 105.229 53.1455 105.995 53.1455C106.802 53.1455 107.599 52.9769 108.388 52.6396V53.6514C107.987 53.8245 107.606 53.9476 107.246 54.0205C106.891 54.098 106.46 54.1367 105.954 54.1367ZM105.646 47.3213C105.045 47.3213 104.564 47.5173 104.204 47.9092C103.849 48.3011 103.639 48.8434 103.575 49.5361H107.492C107.492 48.8206 107.333 48.2738 107.014 47.8955C106.695 47.5127 106.239 47.3213 105.646 47.3213ZM113.815 54.1367C112.708 54.1367 111.833 53.7995 111.19 53.125C110.552 52.4505 110.233 51.514 110.233 50.3154C110.233 49.1077 110.53 48.1484 111.122 47.4375C111.719 46.7266 112.519 46.3711 113.521 46.3711C114.46 46.3711 115.203 46.681 115.75 47.3008C116.297 47.916 116.57 48.7295 116.57 49.7412V50.459H111.409C111.432 51.3385 111.653 52.0062 112.072 52.4619C112.496 52.9176 113.091 53.1455 113.856 53.1455C114.663 53.1455 115.461 52.9769 116.249 52.6396V53.6514C115.848 53.8245 115.467 53.9476 115.107 54.0205C114.752 54.098 114.321 54.1367 113.815 54.1367ZM113.508 47.3213C112.906 47.3213 112.425 47.5173 112.065 47.9092C111.71 48.3011 111.5 48.8434 111.437 49.5361H115.354C115.354 48.8206 115.194 48.2738 114.875 47.8955C114.556 47.5127 114.1 47.3213 113.508 47.3213ZM123.639 54V49.1533C123.639 48.5426 123.5 48.0869 123.222 47.7861C122.944 47.4854 122.508 47.335 121.916 47.335C121.132 47.335 120.558 47.5469 120.193 47.9707C119.829 48.3945 119.646 49.0941 119.646 50.0693V54H118.512V46.5078H119.435L119.619 47.5332H119.674C119.906 47.1641 120.232 46.8792 120.651 46.6787C121.071 46.4736 121.538 46.3711 122.053 46.3711C122.955 46.3711 123.634 46.5898 124.09 47.0273C124.546 47.4603 124.773 48.1553 124.773 49.1123V54H123.639Z" fill="black"/>
<path d="M133.742 54.1367C132.658 54.1367 131.817 53.804 131.22 53.1387C130.627 52.4688 130.331 51.5231 130.331 50.3018C130.331 49.0485 130.632 48.0801 131.233 47.3965C131.84 46.7129 132.701 46.3711 133.817 46.3711C134.177 46.3711 134.537 46.4098 134.897 46.4873C135.257 46.5648 135.54 46.6559 135.745 46.7607L135.396 47.7246C135.146 47.6243 134.872 47.5423 134.576 47.4785C134.28 47.4102 134.018 47.376 133.79 47.376C132.268 47.376 131.507 48.3467 131.507 50.2881C131.507 51.2087 131.691 51.915 132.061 52.4072C132.434 52.8994 132.986 53.1455 133.715 53.1455C134.339 53.1455 134.979 53.0111 135.636 52.7422V53.7471C135.134 54.0068 134.503 54.1367 133.742 54.1367ZM142.547 54V49.1533C142.547 48.5426 142.408 48.0869 142.13 47.7861C141.852 47.4854 141.417 47.335 140.824 47.335C140.036 47.335 139.459 47.5492 139.095 47.9775C138.735 48.4059 138.555 49.1077 138.555 50.083V54H137.42V43.3633H138.555V46.583C138.555 46.9704 138.536 47.2917 138.5 47.5469H138.568C138.792 47.1868 139.108 46.9043 139.519 46.6992C139.933 46.4896 140.405 46.3848 140.934 46.3848C141.85 46.3848 142.535 46.6035 142.991 47.041C143.451 47.474 143.682 48.1644 143.682 49.1123V54H142.547ZM150.627 54L150.401 52.9336H150.347C149.973 53.403 149.599 53.722 149.226 53.8906C148.856 54.0547 148.394 54.1367 147.838 54.1367C147.095 54.1367 146.512 53.9453 146.088 53.5625C145.669 53.1797 145.459 52.6351 145.459 51.9287C145.459 50.4157 146.669 49.6227 149.089 49.5498L150.36 49.5088V49.0439C150.36 48.4561 150.233 48.0231 149.978 47.7451C149.727 47.4626 149.324 47.3213 148.768 47.3213C148.143 47.3213 147.437 47.5127 146.648 47.8955L146.3 47.0273C146.669 46.8268 147.072 46.6696 147.51 46.5557C147.952 46.4417 148.394 46.3848 148.836 46.3848C149.729 46.3848 150.39 46.583 150.818 46.9795C151.251 47.376 151.468 48.0117 151.468 48.8867V54H150.627ZM148.063 53.2002C148.77 53.2002 149.324 53.0065 149.725 52.6191C150.13 52.2318 150.333 51.6895 150.333 50.9922V50.3154L149.198 50.3633C148.296 50.3952 147.644 50.5365 147.243 50.7871C146.847 51.0332 146.648 51.4183 146.648 51.9424C146.648 52.3525 146.771 52.6647 147.018 52.8789C147.268 53.0931 147.617 53.2002 148.063 53.2002ZM158.939 54V49.1533C158.939 48.5426 158.8 48.0869 158.522 47.7861C158.244 47.4854 157.809 47.335 157.217 47.335C156.433 47.335 155.859 47.5469 155.494 47.9707C155.13 48.3945 154.947 49.0941 154.947 50.0693V54H153.812V46.5078H154.735L154.92 47.5332H154.975C155.207 47.1641 155.533 46.8792 155.952 46.6787C156.371 46.4736 156.839 46.3711 157.354 46.3711C158.256 46.3711 158.935 46.5898 159.391 47.0273C159.846 47.4603 160.074 48.1553 160.074 49.1123V54H158.939ZM168.544 46.5078V47.2256L167.156 47.3896C167.284 47.5492 167.398 47.7588 167.498 48.0186C167.598 48.2738 167.648 48.5632 167.648 48.8867C167.648 49.6204 167.398 50.2061 166.896 50.6436C166.395 51.0811 165.707 51.2998 164.832 51.2998C164.609 51.2998 164.399 51.2816 164.203 51.2451C163.72 51.5003 163.479 51.8216 163.479 52.209C163.479 52.4141 163.563 52.5667 163.731 52.667C163.9 52.7627 164.189 52.8105 164.6 52.8105H165.926C166.737 52.8105 167.359 52.9814 167.792 53.3232C168.229 53.665 168.448 54.1618 168.448 54.8135C168.448 55.6429 168.116 56.2741 167.45 56.707C166.785 57.1445 165.814 57.3633 164.538 57.3633C163.558 57.3633 162.802 57.181 162.269 56.8164C161.74 56.4518 161.476 55.9368 161.476 55.2715C161.476 54.8158 161.621 54.4215 161.913 54.0889C162.205 53.7562 162.615 53.5306 163.144 53.4121C162.952 53.3255 162.79 53.1911 162.658 53.0088C162.531 52.8265 162.467 52.6146 162.467 52.373C162.467 52.0996 162.54 51.8604 162.686 51.6553C162.831 51.4502 163.062 51.252 163.376 51.0605C162.989 50.901 162.672 50.6299 162.426 50.2471C162.184 49.8643 162.063 49.4268 162.063 48.9346C162.063 48.1143 162.31 47.4831 162.802 47.041C163.294 46.5944 163.991 46.3711 164.894 46.3711C165.285 46.3711 165.639 46.4167 165.953 46.5078H168.544ZM162.569 55.2578C162.569 55.6634 162.74 55.971 163.082 56.1807C163.424 56.3903 163.914 56.4951 164.552 56.4951C165.504 56.4951 166.208 56.3516 166.664 56.0645C167.124 55.7819 167.354 55.3968 167.354 54.9092C167.354 54.5036 167.229 54.221 166.979 54.0615C166.728 53.9066 166.256 53.8291 165.563 53.8291H164.203C163.688 53.8291 163.287 53.9521 163 54.1982C162.713 54.4443 162.569 54.7975 162.569 55.2578ZM163.185 48.9072C163.185 49.4313 163.333 49.8278 163.629 50.0967C163.925 50.3656 164.338 50.5 164.866 50.5C165.974 50.5 166.527 49.9622 166.527 48.8867C166.527 47.7611 165.967 47.1982 164.846 47.1982C164.312 47.1982 163.902 47.3418 163.615 47.6289C163.328 47.916 163.185 48.3421 163.185 48.9072ZM173.247 54.1367C172.14 54.1367 171.265 53.7995 170.622 53.125C169.984 52.4505 169.665 51.514 169.665 50.3154C169.665 49.1077 169.961 48.1484 170.554 47.4375C171.151 46.7266 171.951 46.3711 172.953 46.3711C173.892 46.3711 174.635 46.681 175.182 47.3008C175.729 47.916 176.002 48.7295 176.002 49.7412V50.459H170.841C170.864 51.3385 171.085 52.0062 171.504 52.4619C171.928 52.9176 172.522 53.1455 173.288 53.1455C174.095 53.1455 174.892 52.9769 175.681 52.6396V53.6514C175.28 53.8245 174.899 53.9476 174.539 54.0205C174.184 54.098 173.753 54.1367 173.247 54.1367ZM172.939 47.3213C172.338 47.3213 171.857 47.5173 171.497 47.9092C171.142 48.3011 170.932 48.8434 170.868 49.5361H174.785C174.785 48.8206 174.626 48.2738 174.307 47.8955C173.988 47.5127 173.532 47.3213 172.939 47.3213ZM183.043 52.9951H182.981C182.457 53.7562 181.674 54.1367 180.63 54.1367C179.65 54.1367 178.887 53.8018 178.34 53.1318C177.798 52.4619 177.526 51.5094 177.526 50.2744C177.526 49.0394 177.8 48.0801 178.347 47.3965C178.894 46.7129 179.655 46.3711 180.63 46.3711C181.646 46.3711 182.425 46.7402 182.968 47.4785H183.057L183.009 46.9385L182.981 46.4121V43.3633H184.116V54H183.193L183.043 52.9951ZM180.773 53.1865C181.548 53.1865 182.109 52.9769 182.455 52.5576C182.806 52.1338 182.981 51.4525 182.981 50.5137V50.2744C182.981 49.2126 182.804 48.4561 182.448 48.0049C182.097 47.5492 181.535 47.3213 180.76 47.3213C180.094 47.3213 179.584 47.5811 179.229 48.1006C178.878 48.6156 178.702 49.3447 178.702 50.2881C178.702 51.2451 178.878 51.9674 179.229 52.4551C179.579 52.9427 180.094 53.1865 180.773 53.1865Z" fill="#CB0000"/>
<path d="M157.354 36.4014H180.425V37.0986H157.354V36.4014ZM93 55.4014H129.545V56.0986H93V55.4014Z" fill="black"/>
<path d="M129.545 50.6025H185.319V51.2998H129.545V50.6025Z" fill="#CB0000"/>
</svg>
