<svg width="24" height="24" viewBox="0 0 24 24" fill="none" xmlns="http://www.w3.org/2000/svg">
<path fill-rule="evenodd" clip-rule="evenodd" d="M5.29443 5.29446C4.90391 5.68498 4.90023 6.32183 5.29075 6.71235L10.5784 12L10.5784 12L5.29084 17.2876C4.90032 17.6782 4.904 18.315 5.29452 18.7055C5.68505 19.0961 6.32189 19.0997 6.71241 18.7092L12 13.4216L17.2876 18.7092C17.6781 19.0997 18.315 19.0961 18.7055 18.7055C19.096 18.315 19.0997 17.6782 18.7092 17.2876L13.4216 12L13.4216 12L18.7093 6.71235C19.0998 6.32183 19.0961 5.68498 18.7056 5.29446C18.3151 4.90393 17.6782 4.90025 17.2877 5.29078L12.0001 10.5784L12 10.5785L12 10.5784L6.71233 5.29078C6.3218 4.90025 5.68496 4.90393 5.29443 5.29446Z" fill="white"/>
</svg>
