<svg width="24" height="24" viewBox="0 0 24 24" fill="none" xmlns="http://www.w3.org/2000/svg">
<path fill-rule="evenodd" clip-rule="evenodd" d="M5.29474 5.29474C4.90422 5.68526 4.90054 6.32211 5.29106 6.71263L10.5787 12.0003L10.5787 12.0003L5.29115 17.2879C4.90062 17.6785 4.9043 18.3153 5.29483 18.7058C5.68535 19.0963 6.3222 19.1 6.71272 18.7095L12.0003 13.4219L17.2879 18.7095C17.6784 19.1 18.3153 19.0963 18.7058 18.7058C19.0963 18.3153 19.1 17.6785 18.7095 17.2879L13.4219 12.0003L13.4219 12.0003L18.7096 6.71263C19.1001 6.32211 19.0964 5.68526 18.7059 5.29474C18.3154 4.90422 17.6785 4.90054 17.288 5.29106L12.0004 10.5787L12.0003 10.5787L12.0003 10.5787L6.71263 5.29106C6.32211 4.90054 5.68526 4.90422 5.29474 5.29474Z" fill="#F5F5F5"/>
</svg>
