<svg width="27" height="24" viewBox="0 0 27 24" fill="none" xmlns="http://www.w3.org/2000/svg">
<path fill-rule="evenodd" clip-rule="evenodd" d="M11.4346 23.7061L0.686671 18.7629C-0.22889 18.3313 -0.22889 17.6644 0.686671 17.2721L4.42853 15.5459L11.3948 18.7629C12.3103 19.1944 13.7832 19.1944 14.6589 18.7629L21.6252 15.5459L25.367 17.2721C26.2826 17.7036 26.2826 18.3706 25.367 18.7629L14.6191 23.7061C13.7832 24.0984 12.3103 24.0984 11.4346 23.7061Z" fill="#FF6F3D"/>
<path fill-rule="evenodd" clip-rule="evenodd" d="M11.4346 17.6249L0.686671 12.6817C-0.22889 12.2501 -0.22889 11.5832 0.686671 11.1909L4.34891 9.50391L11.4346 12.7601C12.3501 13.1917 13.823 13.1917 14.6987 12.7601L21.7844 9.50391L25.4466 11.1909C26.3622 11.6224 26.3622 12.2894 25.4466 12.6817L14.6987 17.6249C13.7832 18.0564 12.3103 18.0564 11.4346 17.6249Z" fill="#95C038"/>
<path fill-rule="evenodd" clip-rule="evenodd" d="M11.4346 11.7008L0.686671 6.75765C-0.22889 6.3261 -0.22889 5.65916 0.686671 5.26685L11.4346 0.323661C12.3501 -0.107887 13.823 -0.107887 14.6987 0.323661L25.4466 5.26685C26.3622 5.6984 26.3622 6.36533 25.4466 6.75765L14.6987 11.7008C13.7832 12.0932 12.3103 12.0932 11.4346 11.7008Z" fill="#5DC0E8"/>
</svg>
