<svg width="134" height="28" viewBox="0 0 134 28" fill="none" xmlns="http://www.w3.org/2000/svg">
<path fill-rule="evenodd" clip-rule="evenodd" d="M13.9838 27.6567L0.839757 21.8921C-0.279919 21.3889 -0.279919 20.6111 0.839757 20.1536L5.41582 18.1406L13.9351 21.8921C15.0548 22.3954 16.856 22.3954 17.927 21.8921L26.4462 18.1406L31.0223 20.1536C32.142 20.6569 32.142 21.4346 31.0223 21.8921L17.8783 27.6567C16.856 28.1142 15.0548 28.1142 13.9838 27.6567Z" fill="#FF6F3D"/>
<path fill-rule="evenodd" clip-rule="evenodd" d="M13.9412 20.5238L0.837198 14.7525C-0.279066 14.2487 -0.279066 13.4701 0.837198 13.012L5.30226 11.0425L13.9412 14.8441C15.0574 15.348 16.8532 15.348 17.9209 14.8441L26.5598 11.0425L31.0249 13.012C32.1411 13.5159 32.1411 14.2945 31.0249 14.7525L17.9209 20.5238C16.8046 21.0276 15.0089 21.0276 13.9412 20.5238Z" fill="#95C038"/>
<path fill-rule="evenodd" clip-rule="evenodd" d="M13.9412 13.4642L0.837198 7.77608C-0.279066 7.27949 -0.279066 6.51204 0.837198 6.0606L13.9412 0.372439C15.0574 -0.124146 16.8532 -0.124146 17.9209 0.372439L31.0249 6.0606C32.1411 6.55719 32.1411 7.32464 31.0249 7.77608L17.9209 13.4642C16.8046 13.9157 15.0089 13.9157 13.9412 13.4642Z" fill="#5DC0E8"/>
<path fill-rule="evenodd" clip-rule="evenodd" d="M38.6895 11.034C38.6895 9.07522 39.2539 7.59692 40.4204 6.63602C41.5492 5.63816 42.9039 5.15771 44.4467 5.15771C45.9895 5.15771 47.3065 5.63816 48.4353 6.63602C49.5642 7.63387 50.1286 9.07522 50.1286 11.0709C50.1286 13.0297 49.5642 14.508 48.4353 15.4689C47.3065 16.4667 45.9518 16.9472 44.4467 16.9472C42.9039 16.9472 41.5869 16.4667 40.4204 15.4689C39.2539 14.471 38.6895 12.9927 38.6895 11.034ZM41.173 11.034C41.173 12.4014 41.4364 13.3623 41.9255 13.9906C42.4523 14.6189 43.0168 15.0254 43.6188 15.1732C43.6444 15.1795 43.6689 15.1858 43.6926 15.1919L43.6927 15.1919L43.6931 15.192L43.6932 15.192L43.6934 15.1921C43.8092 15.2218 43.9081 15.2471 44.0328 15.2471C44.0892 15.2471 44.155 15.2564 44.2209 15.2656C44.2867 15.2749 44.3526 15.2841 44.409 15.2841C44.5596 15.2841 44.6724 15.2841 44.823 15.2471C44.9477 15.2471 45.0465 15.2218 45.1624 15.1921C45.1863 15.1859 45.2111 15.1796 45.2369 15.1732C45.8389 15.0254 46.4034 14.6189 46.8925 13.9906C47.3817 13.3623 47.6451 12.3644 47.6451 11.0709C47.6451 9.74046 47.3817 8.77956 46.8925 8.15128C46.4034 7.523 45.8389 7.11647 45.2369 6.96864C45.0864 6.93168 44.9358 6.89472 44.823 6.89472C44.7477 6.89472 44.6818 6.88548 44.616 6.87624C44.5501 6.867 44.4843 6.85776 44.409 6.85776C44.2585 6.85776 44.1456 6.85776 44.0328 6.89472C43.9199 6.89472 43.7693 6.93168 43.6188 6.96864C43.0168 7.11647 42.4523 7.523 41.9255 8.15128C41.4364 8.70564 41.173 9.7035 41.173 11.034ZM51.3704 5.26859H54.4559L58.5199 12.5123L59.1219 14.1015H59.1595L59.1219 12.0318V5.26859H61.4925V16.7994H58.407L54.343 9.26001L53.741 7.96649H53.7034L53.741 9.99916V16.7994H51.3704V5.26859ZM63.9385 5.26859H66.3091V14.8406H70.9751V16.7994H63.9385V5.26859ZM69.5076 5.26859H72.2545L74.6627 9.29697L75.039 10.11H75.1143L75.4906 9.29697L77.9364 5.26859H80.4576L76.2055 12.1057V16.7994H73.8349V12.0688L69.5076 5.26859ZM81.8874 6.63602C80.7209 7.59692 80.1565 9.07522 80.1565 11.034C80.1565 12.9927 80.7585 14.471 81.8874 15.4689C83.0539 16.4667 84.3709 16.9472 85.9137 16.9472C87.4188 16.9472 88.7735 16.4667 89.9023 15.4689C91.0312 14.508 91.5956 13.0297 91.5956 11.0709C91.5956 9.07522 91.0312 7.63387 89.9023 6.63602C88.7735 5.63816 87.4565 5.15771 85.9137 5.15771C84.3709 5.15771 83.0163 5.63816 81.8874 6.63602ZM83.3925 13.9906C82.9034 13.3623 82.64 12.4014 82.64 11.034C82.64 9.7035 82.9034 8.70564 83.3925 8.15128C83.9194 7.523 84.4838 7.11647 85.0858 6.96864C85.2364 6.93168 85.3869 6.89472 85.4998 6.89472C85.6127 6.85776 85.7255 6.85776 85.8761 6.85776C85.9513 6.85776 86.0172 6.867 86.083 6.87624C86.1489 6.88548 86.2147 6.89472 86.29 6.89472C86.4029 6.89472 86.5534 6.93168 86.7039 6.96864C87.306 7.11647 87.8704 7.523 88.3596 8.15128C88.8487 8.77956 89.1121 9.74046 89.1121 11.0709C89.1121 12.3644 88.8487 13.3623 88.3596 13.9906C87.8704 14.6189 87.306 15.0254 86.7039 15.1732L86.6761 15.1801L86.6294 15.1921C86.5135 15.2218 86.4147 15.2471 86.29 15.2471C86.1395 15.2841 86.0266 15.2841 85.8761 15.2841C85.8196 15.2841 85.7538 15.2749 85.6879 15.2656C85.6221 15.2564 85.5562 15.2471 85.4998 15.2471C85.3751 15.2471 85.2762 15.2218 85.1604 15.1921L85.1327 15.185L85.0858 15.1732C84.4462 15.0254 83.9194 14.6189 83.3925 13.9906ZM99.7987 5.26859H93.2513V16.7994H95.6219V11.9579H99.6106V9.99916H95.6219V7.19038H99.7987V5.26859ZM101.567 5.26859H108.115V7.19038H103.938V9.99916H107.927V11.9579H103.938V16.7994H101.567V5.26859ZM109.507 5.26859V16.7994H111.878V5.26859H109.507ZM122.323 5.5272V7.52291C121.909 7.37508 121.495 7.26421 121.044 7.19029C120.592 7.11637 120.065 7.07942 119.539 7.07942C118.297 7.07942 117.356 7.44899 116.679 8.2251C116.001 8.96426 115.663 9.92515 115.663 11.0708C115.663 12.1796 115.964 13.1035 116.604 13.8427C117.243 14.5818 118.146 14.9883 119.313 14.9883C119.671 14.9883 120.028 14.9607 120.434 14.9294L120.63 14.9144C121.119 14.8405 121.608 14.7296 122.135 14.5079L122.285 16.4666C122.21 16.5036 122.097 16.5406 121.984 16.5775C121.834 16.6145 121.683 16.6514 121.495 16.6884C121.301 16.7361 121.075 16.7684 120.818 16.8053C120.677 16.8255 120.526 16.847 120.366 16.8732C119.915 16.9101 119.463 16.9471 118.974 16.9471H118.786H118.598C117.243 16.8732 116.001 16.3558 114.873 15.4688C113.744 14.5449 113.179 13.1035 113.179 11.1817C113.179 9.29687 113.744 7.81857 114.835 6.78376C115.926 5.74894 117.431 5.23154 119.275 5.23154C119.764 5.23154 120.216 5.23154 120.592 5.2685C120.95 5.30048 121.28 5.36015 121.631 5.42354L121.631 5.42355L121.796 5.45328C121.834 5.47176 121.881 5.481 121.928 5.49024C121.975 5.49948 122.022 5.50872 122.06 5.5272C122.108 5.50364 122.156 5.51012 122.213 5.51791C122.246 5.52234 122.282 5.5272 122.323 5.5272ZM131.241 5.26859H124.205V16.7994H131.241V14.9884H126.613V11.7362H130.79V9.9622H126.613V7.07951H131.241V5.26859Z" fill="#F5F5F5"/>
<path d="M43.0938 22.5569C43.0938 23.4252 42.8456 24.0896 42.3492 24.5502C41.8528 25.0083 41.1379 25.2374 40.2045 25.2374H38.6895V19.9773H40.3638C41.2256 19.9773 41.8961 20.2027 42.3751 20.6537C42.8542 21.1046 43.0938 21.739 43.0938 22.5569ZM42.1603 22.5857C42.1603 21.3265 41.554 20.6969 40.3415 20.6969H39.5748V24.5142H40.2045C41.5084 24.5142 42.1603 23.8714 42.1603 22.5857Z" fill="#CCCCCC"/>
<path d="M52.4067 25.2374H49.3433V19.9773H52.4067V20.7041H50.2286V22.136H52.2697V22.8556H50.2286V24.507H52.4067V25.2374Z" fill="#CCCCCC"/>
<path d="M61.7493 19.9773H62.6679L60.7714 25.2374H59.8379L57.9488 19.9773H58.86L59.9898 23.2477C60.0491 23.4036 60.112 23.6051 60.1787 23.8522C60.2454 24.0968 60.2886 24.2791 60.3084 24.3991C60.3405 24.2168 60.3899 24.0057 60.4565 23.7658C60.5232 23.526 60.5775 23.3485 60.6195 23.2333L61.7493 19.9773Z" fill="#CCCCCC"/>
<path d="M71.529 25.2374H68.4656V19.9773H71.529V20.7041H69.3509V22.136H71.3919V22.8556H69.3509V24.507H71.529V25.2374Z" fill="#CCCCCC"/>
<path d="M77.786 25.2374V19.9773H78.6713V24.4998H80.9642V25.2374H77.786Z" fill="#CCCCCC"/>
<path d="M91.7885 22.6001C91.7885 23.4564 91.5674 24.122 91.1254 24.5969C90.6858 25.0719 90.0623 25.3093 89.2548 25.3093C88.4374 25.3093 87.8089 25.0743 87.3694 24.6041C86.9323 24.1316 86.7137 23.4612 86.7137 22.5929C86.7137 21.7246 86.9335 21.0578 87.3731 20.5925C87.8151 20.1272 88.4448 19.8945 89.2622 19.8945C90.0672 19.8945 90.6896 20.1308 91.1291 20.6033C91.5687 21.0758 91.7885 21.7414 91.7885 22.6001ZM87.6546 22.6001C87.6546 23.2477 87.7892 23.7394 88.0583 24.0752C88.3275 24.4086 88.7263 24.5753 89.2548 24.5753C89.7808 24.5753 90.1771 24.4098 90.4438 24.0788C90.713 23.7478 90.8476 23.2549 90.8476 22.6001C90.8476 21.9549 90.7142 21.4656 90.4475 21.1322C90.1833 20.7988 89.7882 20.6321 89.2622 20.6321C88.7313 20.6321 88.33 20.7988 88.0583 21.1322C87.7892 21.4656 87.6546 21.9549 87.6546 22.6001Z" fill="#CCCCCC"/>
<path d="M101.62 21.5675C101.62 22.1168 101.435 22.5378 101.064 22.8304C100.694 23.123 100.167 23.2693 99.4827 23.2693H98.9196V25.2374H98.0343V19.9773H99.5938C100.27 19.9773 100.777 20.1116 101.113 20.3802C101.451 20.6489 101.62 21.0446 101.62 21.5675ZM98.9196 22.5462H99.3901C99.8445 22.5462 100.178 22.4694 100.39 22.3159C100.603 22.1624 100.709 21.9225 100.709 21.5963C100.709 21.2941 100.614 21.0686 100.424 20.9199C100.233 20.7712 99.9371 20.6969 99.5345 20.6969H98.9196V22.5462Z" fill="#CCCCCC"/>
<path d="M110.848 25.2374H107.784V19.9773H110.848V20.7041H108.67V22.136H110.711V22.8556H108.67V24.507H110.848V25.2374Z" fill="#CCCCCC"/>
<path d="M117.99 22.4238H118.605C119.017 22.4238 119.316 22.3495 119.501 22.2008C119.687 22.052 119.779 21.8314 119.779 21.5388C119.779 21.2413 119.679 21.0279 119.479 20.8983C119.279 20.7688 118.978 20.7041 118.575 20.7041H117.99V22.4238ZM117.99 23.1362V25.2374H117.105V19.9773H118.635C119.333 19.9773 119.851 20.1044 120.187 20.3587C120.523 20.6129 120.69 20.9967 120.69 21.51C120.69 22.1648 120.34 22.6313 119.638 22.9095L121.168 25.2374H120.161L118.864 23.1362H117.99Z" fill="#CCCCCC"/>
<path d="M130.163 23.809C130.163 24.2767 129.989 24.6437 129.64 24.91C129.292 25.1762 128.812 25.3093 128.199 25.3093C127.587 25.3093 127.086 25.217 126.696 25.0323V24.2192C126.942 24.3319 127.204 24.4206 127.481 24.4854C127.76 24.5502 128.019 24.5825 128.259 24.5825C128.609 24.5825 128.867 24.5178 129.033 24.3883C129.201 24.2587 129.285 24.0848 129.285 23.8666C129.285 23.6699 129.208 23.5032 129.055 23.3665C128.902 23.2297 128.586 23.0678 128.107 22.8808C127.613 22.6865 127.265 22.4646 127.062 22.2152C126.86 21.9657 126.759 21.6659 126.759 21.3157C126.759 20.8767 126.919 20.5314 127.24 20.2795C127.561 20.0277 127.992 19.9017 128.533 19.9017C129.051 19.9017 129.568 20.0121 130.081 20.2327L129.8 20.9343C129.318 20.7376 128.888 20.6393 128.511 20.6393C128.224 20.6393 128.007 20.7005 127.859 20.8228C127.71 20.9427 127.636 21.1022 127.636 21.3013C127.636 21.438 127.666 21.5555 127.725 21.6539C127.785 21.7498 127.882 21.841 128.018 21.9273C128.154 22.0137 128.398 22.1276 128.751 22.2691C129.149 22.4298 129.44 22.5797 129.626 22.7189C129.811 22.858 129.947 23.0151 130.033 23.1902C130.119 23.3653 130.163 23.5715 130.163 23.809Z" fill="#CCCCCC"/>
</svg>
