<svg width="24" height="180" viewBox="0 0 24 180" fill="none" xmlns="http://www.w3.org/2000/svg">
<g clip-path="url(#clip0_465_4233)">
<path d="M3.36958 19.5773C-0.691999 15.4593 -0.609006 8.39951 3.88043 3.91007C7.33922 0.451281 13.2068 -0.618575 17.5089 1.92228M6.41585 22.0169C10.7006 24.5195 16.4951 23.8108 20.1381 20.1678C24.4821 15.8238 24.6229 8.86843 20.5605 4.35521" stroke="#F5F5F5" stroke-linecap="round"/>
<path fill-rule="evenodd" clip-rule="evenodd" d="M18.0113 15.4992C18.0117 15.7754 17.7882 15.9996 17.512 16C17.2359 16.0004 17.0117 15.7769 17.0113 15.5007L17.0007 8.50075C17.0003 8.22461 17.2238 8.00042 17.5 8C17.7761 7.99959 18.0003 8.22311 18.0007 8.49925L18.0017 9.1421L18.0017 9.14794L18.0051 11.4278L18.0052 11.44L18.0069 12.5684L18.0113 15.4992ZM5.48755 15.5925C5.40905 15.8573 5.1308 16.0083 4.86605 15.9298C4.6013 15.8513 4.45032 15.573 4.52882 15.3083L6.52118 8.58879C6.61356 8.27723 6.88306 8.05844 7.19594 8.02325L7.201 8.01946C7.23359 8.01711 7.26593 8.01678 7.2979 8.01837C7.31736 8.01869 7.33692 8.01972 7.35656 8.02148L7.35984 8.0239C7.66595 8.06341 7.92762 8.27962 8.01812 8.58484L10.0153 15.3207C10.0938 15.5854 9.94284 15.8637 9.6781 15.9422C9.41335 16.0207 9.13509 15.8697 9.05659 15.6049L8.56976 13.9631L7.29633 13.9631L6.73356 13.9631H6.72747H5.9707L5.48755 15.5925ZM6.26721 12.9631L7.27023 9.58026L8.27326 12.9631H6.26721ZM11 8.5C11 8.22363 11.2239 8 11.5 8H13.5C13.9953 8 14.4869 8.15144 14.8955 8.42676C15.5715 8.87743 16 9.68357 16 10.5C16 11.1554 15.7328 11.8022 15.2678 12.2676C14.8033 12.7326 14.1565 13 13.5 13H12V15.5C12 15.7764 11.7761 16 11.5 16C11.2239 16 11 15.7764 11 15.5V12.5V8.5ZM12 9H13.5C13.7864 9 14.071 9.08401 14.3103 9.23731C14.5661 9.40323 14.7695 9.64498 14.8857 9.92578C14.9612 10.1084 15 10.3027 15 10.5C15 10.8935 14.8401 11.2805 14.5605 11.5605C14.2824 11.8397 13.8943 12 13.5 12H12V9Z" fill="#FF6F3D"/>
<path d="M3.93392 17.7483L1.61846 20.048L4.76781 20.9034L3.93392 17.7483Z" fill="#F5F5F5"/>
<path d="M19.3714 3.23521L22.5051 4.14624L20.1492 6.40459L19.3714 3.23521Z" fill="#F5F5F5"/>
</g>
<g clip-path="url(#clip1_465_4233)">
<path d="M8.5 35.5V29.5C8.5 28.9477 8.94772 28.5 9.5 28.5H17.0858C17.351 28.5 17.6054 28.6054 17.7929 28.7929L22.2071 33.2071C22.3946 33.3946 22.5 33.649 22.5 33.9142V46.5C22.5 47.0523 22.0523 47.5 21.5 47.5H19.5" stroke="#F9F9F9" stroke-linecap="round"/>
<path d="M4.5 35.5V29.5C4.5 28.9477 4.94772 28.5 5.5 28.5H7" stroke="#F9F9F9" stroke-linecap="round"/>
<path d="M0.5 35.5V29.5C0.5 28.9477 0.947715 28.5 1.5 28.5H3" stroke="#F9F9F9" stroke-linecap="round"/>
<path fill-rule="evenodd" clip-rule="evenodd" d="M16.5 30C16.7761 30 17 30.2239 17 30.5V34H20.5C20.7761 34 21 34.2239 21 34.5C21 34.7761 20.7761 35 20.5 35H16.5C16.2239 35 16 34.7761 16 34.5V30.5C16 30.2239 16.2239 30 16.5 30Z" fill="#F9F9F9"/>
<path fill-rule="evenodd" clip-rule="evenodd" d="M14.0004 46.5C14.0004 46.7762 13.7766 47 13.5004 47C13.2243 47 13.0004 46.7762 13.0004 46.5V40.5C13.0004 40.2239 13.2243 40 13.5004 40C13.7766 40 14.0004 40.2239 14.0004 40.5V41V41.0051V43V43.0107V43.998L14.0004 46.5ZM2.99219 46.638C2.91369 46.9028 2.63543 47.0538 2.37069 46.9753C2.10594 46.8968 1.95496 46.6185 2.03345 46.3538L3.74797 40.5714C3.83975 40.2618 4.11098 40.0472 4.42236 40.0197L4.42259 40.0195C4.78906 39.9837 5.12941 40.2129 5.23408 40.5659L6.95298 46.3631C7.03148 46.6279 6.8805 46.9061 6.61575 46.9846C6.351 47.0631 6.07274 46.9121 5.99425 46.6474L5.49483 44.9631L4.64173 44.9631L4.22025 44.9631L4.21569 44.9631H3.48883L2.99219 46.638ZM3.78188 43.9747L4.49183 41.5804L5.19833 43.9631H3.93501C3.88294 43.9631 3.8318 43.9671 3.78188 43.9747ZM8.50043 47C8.77657 47 9.00043 46.7762 9.00043 46.5L9.00044 43.998H11.0024C11.5536 43.998 12.0004 43.5512 12.0004 43V41C12.0004 40.4477 11.5527 40 11.0004 40H8.00044V46.5C8.00044 46.7762 8.22429 47 8.50043 47ZM11.0004 41V43.0053L9.00044 43.0107V41H11.0004Z" fill="#FF6F3D"/>
<path fill-rule="evenodd" clip-rule="evenodd" d="M16.9898 38.3992C16.9432 38.1714 16.7416 38 16.5 38C16.4991 38 16.4982 38 16.4973 38L11.6854 38H10.6363H10.625H1.06793H1.0625H0.5C0.223858 38 0 38.2239 0 38.5L6.93397e-06 48.4973L0 48.5C0 48.6268 0.0472049 48.7426 0.125001 48.8307C0.216619 48.9345 0.350664 49 0.5 49H16.5C16.5173 49 16.5343 48.9991 16.5511 48.9974C16.8033 48.9718 17 48.7589 17 48.5V48.4884V48.4772V39.0531V39.0477V38.5C17 38.4978 17 38.4957 17 38.4935C16.9996 38.4613 16.9961 38.4298 16.9898 38.3992ZM16 39H1V39.0477V39.0531V48H1.0625H1.06793H10.625H10.6363H11.6854L16 48L16 39Z" fill="#FF6F3D"/>
</g>
<path fill-rule="evenodd" clip-rule="evenodd" d="M9.51999 55.9987C9.76888 53.7505 11.6777 52.002 13.9954 52.002C16.3132 52.002 18.222 53.7505 18.4709 55.9987H21C21.2763 55.9987 21.5003 56.2224 21.5003 56.4983C21.5003 56.7742 21.2763 56.9979 21 56.9979H17.4977V56.4983C17.4977 54.5669 15.9297 53.0011 13.9954 53.0011C12.0612 53.0011 10.4932 54.5669 10.4932 56.4983V56.9979L6.50618 56.9979C5.67721 56.9979 5.0052 57.6689 5.0052 58.4966L5.00521 62.4974H4.50488C2.57063 62.4974 1.0026 64.0631 1.0026 65.9945C1.0026 67.9259 2.57063 69.4917 4.50488 69.4917H5.0052L5.00521 73.504C5.00521 74.3317 5.67722 75.0028 6.50618 75.0028H10.4932V73.504C10.4932 71.5726 12.0612 70.0069 13.9954 70.0069C15.9297 70.0069 17.4977 71.5726 17.4977 73.504V75.0028H21.5003C22.3293 75.0028 23.0013 74.3317 23.0013 73.504L23.0013 69.4917H21.5003C19.5661 69.4917 17.998 67.9259 17.998 65.9945C17.998 64.0631 19.5661 62.4974 21.5003 62.4974H23.0013V59.488C23.0013 59.2121 23.2253 58.9884 23.5016 58.9884C23.7779 58.9884 24.002 59.2121 24.002 59.488L24.002 63.4966H21.5003C20.1187 63.4966 18.9987 64.6149 18.9987 65.9945C18.9987 67.3741 20.1187 68.4925 21.5003 68.4925H24.002L24.002 73.504C24.002 74.8836 22.8819 76.002 21.5003 76.002H16.4971V73.504C16.4971 72.1244 15.3771 71.006 13.9954 71.006C12.6138 71.006 11.4938 72.1244 11.4938 73.504V76.002H6.50618C5.12457 76.002 4.00456 74.8836 4.00456 73.504L4.00455 70.4634C1.75312 70.2149 0.00195313 68.3089 0.00195313 65.9945C0.00195313 63.6801 1.75312 61.7742 4.00455 61.5256L4.00455 58.4966C4.00455 57.1171 5.12457 55.9987 6.50618 55.9987L9.51999 55.9987Z" fill="#FF6F3D"/>
<g clip-path="url(#clip2_465_4233)">
<path d="M22.5 99C22.5 99.2761 22.2761 99.5 22 99.5H9C8.72386 99.5 8.5 99.2761 8.5 99V81C8.5 80.7239 8.72386 80.5 9 80.5H17.0872C17.2194 80.5 17.3462 80.5524 17.4399 80.6456L22.3527 85.5353C22.447 85.6291 22.5 85.7566 22.5 85.8896V99Z" stroke="#F9F9F9"/>
<path d="M7 80.5H5.5C4.94772 80.5 4.5 80.9477 4.5 81.5V98.5C4.5 99.0523 4.94772 99.5 5.5 99.5H7" stroke="#FF6F3D" stroke-linecap="round"/>
<path d="M3 80.5H1.5C0.947715 80.5 0.5 80.9477 0.5 81.5V98.5C0.5 99.0523 0.947715 99.5 1.5 99.5H3" stroke="#FF6F3D" stroke-linecap="round"/>
<path fill-rule="evenodd" clip-rule="evenodd" d="M16.5 82C16.7761 82 17 82.2239 17 82.5V86H20.5C20.7761 86 21 86.2239 21 86.5C21 86.7761 20.7761 87 20.5 87H16.5C16.2239 87 16 86.7761 16 86.5V82.5C16 82.2239 16.2239 82 16.5 82Z" fill="#F9F9F9"/>
<path fill-rule="evenodd" clip-rule="evenodd" d="M16 89.5C16 89.2239 15.7761 89 15.5 89C15.2239 89 15 89.2239 15 89.5V92.0684H12.5C12.2239 92.0684 12 92.2922 12 92.5684C12 92.8445 12.2239 93.0684 12.5 93.0684H15V95.5453C15 95.8214 15.2239 96.0453 15.5 96.0453C15.7761 96.0453 16 95.8214 16 95.5453V93.0684H18.5C18.7761 93.0684 19 92.8445 19 92.5684C19 92.2922 18.7761 92.0684 18.5 92.0684H16V89.5Z" fill="#FF6F3D"/>
</g>
<g clip-path="url(#clip3_465_4233)">
<path fill-rule="evenodd" clip-rule="evenodd" d="M2.5 107C1.68677 107 1 107.704 1 108.548V118.548C1 119.361 1.6556 120 2.5 120H13.5C13.7761 120 14 120.224 14 120.5C14 120.776 13.7761 121 13.5 121H2.5C1.13526 121 0 119.944 0 118.548V108.548C0 107.183 1.10409 106 2.5 106H20.5C21.1176 106 21.754 106.139 22.241 106.559C22.7417 106.991 23 107.648 23 108.5C23 108.776 22.7761 109 22.5 109C22.2239 109 22 108.776 22 108.5C22 107.852 21.8106 107.509 21.5874 107.316C21.3506 107.111 20.987 107 20.5 107H2.5Z" fill="#F9F9F9"/>
<path fill-rule="evenodd" clip-rule="evenodd" d="M4 124.5C4 124.224 4.1599 124 4.35714 124H13.6429C13.8401 124 14 124.224 14 124.5C14 124.776 13.8401 125 13.6429 125H4.35714C4.1599 125 4 124.776 4 124.5Z" fill="#F9F9F9"/>
<path fill-rule="evenodd" clip-rule="evenodd" d="M8.5 124.952C8.22386 124.952 8 124.728 8 124.452L8 120.952L9 120.952L9 124.452C9 124.728 8.77614 124.952 8.5 124.952Z" fill="#F9F9F9"/>
<path fill-rule="evenodd" clip-rule="evenodd" d="M22 111H17C16.4477 111 16 111.448 16 112V123C16 123.552 16.4477 124 17 124H22C22.5523 124 23 123.552 23 123V112C23 111.448 22.5523 111 22 111ZM17 110C15.8954 110 15 110.895 15 112V123C15 124.105 15.8954 125 17 125H22C23.1046 125 24 124.105 24 123V112C24 110.895 23.1046 110 22 110H17Z" fill="#FF6F3D"/>
<path fill-rule="evenodd" clip-rule="evenodd" d="M18 122.5C18 122.224 18.2929 122 18.5 122H20.5C20.7071 122 21 122.224 21 122.5C21 122.776 20.7071 123 20.5 123H18.5C18.2929 123 18 122.776 18 122.5Z" fill="#FF6F3D"/>
</g>
<g clip-path="url(#clip4_465_4233)">
<path fill-rule="evenodd" clip-rule="evenodd" d="M21.7113 135.819C21.9505 135.681 22.2563 135.763 22.3943 136.002C25.708 141.741 23.7415 149.081 18.002 152.394C12.2625 155.708 4.92343 153.741 1.60972 148.002C-1.70399 142.262 0.262516 134.923 6.00203 131.61C8.66341 130.073 11.6699 129.672 14.4582 130.256C15.8838 130.554 17.2529 131.111 18.4905 131.905C19.2359 132.383 19.9336 132.947 20.5671 133.593C20.7604 133.79 20.7573 134.107 20.5601 134.3C20.3629 134.494 20.0463 134.49 19.853 134.293C19.2727 133.701 18.6336 133.184 17.9506 132.746C16.8163 132.019 15.5609 131.508 14.2532 131.235C11.6965 130.699 8.94216 131.067 6.50203 132.476C1.24081 135.513 -0.56182 142.241 2.47575 147.502C5.51331 152.763 12.2408 154.566 17.502 151.528C22.7632 148.491 24.5659 141.763 21.5283 136.502C21.3902 136.263 21.4722 135.957 21.7113 135.819Z" fill="#F9F9F9"/>
<path fill-rule="evenodd" clip-rule="evenodd" d="M13.6989 138.043C13.9527 138.151 14.0703 138.445 13.9615 138.699L10.9615 145.699C10.8528 145.953 10.5588 146.07 10.305 145.962C10.0512 145.853 9.93362 145.559 10.0424 145.305L13.0424 138.305C13.1512 138.051 13.4451 137.934 13.6989 138.043ZM15.1257 138.173C15.3075 137.965 15.6234 137.944 15.8312 138.126L19.8312 141.626L20.2613 142.002L19.8312 142.378L15.8312 145.878C15.6234 146.06 15.3075 146.039 15.1257 145.831C14.9438 145.624 14.9649 145.308 15.1727 145.126L18.7427 142.002L15.1727 138.878C14.9649 138.697 14.9438 138.381 15.1257 138.173ZM8.17272 138.126C8.38054 137.944 8.69642 137.965 8.87826 138.173C9.0601 138.381 9.03904 138.697 8.83122 138.878L5.26127 142.002L8.83122 145.126C9.03904 145.308 9.0601 145.624 8.87826 145.831C8.69642 146.039 8.38054 146.06 8.17272 145.878L4.17272 142.378L3.74268 142.002L4.17272 141.626L8.17272 138.126Z" fill="#FF6F3D"/>
</g>
<path fill-rule="evenodd" clip-rule="evenodd" d="M1 168.25C1 167.007 2.02196 166 3.28261 166H19.7174C20.978 166 22 167.007 22 168.25V172.75C22 173.993 20.978 175 19.7174 175H13.8864C13.6342 175 13.4091 174.749 13.4091 174.5C13.4091 174.251 13.6342 174 13.8864 174H19.7174C20.4738 174 21.087 173.496 21.087 172.75V168.25C21.087 167.504 20.4738 167 19.7174 167H3.28261C2.52622 167 1.91304 167.504 1.91304 168.25V172.75C1.91304 173.496 2.52622 174 3.28261 174H9.11364C9.36577 174 9.59091 174.251 9.59091 174.5C9.59091 174.749 9.36577 175 9.11364 175H3.28261C2.02196 175 1 173.993 1 172.75V168.25Z" fill="#F9F9F9"/>
<path d="M7 170.5C7 171.328 6.32843 172 5.5 172C4.67157 172 4 171.328 4 170.5C4 169.672 4.67157 169 5.5 169C6.32843 169 7 169.672 7 170.5Z" fill="#FF6F3D"/>
<path d="M13 178.5C13 179.328 12.3284 180 11.5 180C10.6716 180 10 179.328 10 178.5C10 177.672 10.6716 177 11.5 177C12.3284 177 13 177.672 13 178.5Z" fill="#FF6F3D"/>
<path d="M19 169.5C19 169.776 18.7761 170 18.5 170C18.2239 170 18 169.776 18 169.5C18 169.224 18.2239 169 18.5 169C18.7761 169 19 169.224 19 169.5Z" fill="#FF6F3D"/>
<path d="M18 171.5C18 171.776 17.7761 172 17.5 172C17.2239 172 17 171.776 17 171.5C17 171.224 17.2239 171 17.5 171C17.7761 171 18 171.224 18 171.5Z" fill="#FF6F3D"/>
<path d="M17 169.5C17 169.776 16.7761 170 16.5 170C16.2239 170 16 169.776 16 169.5C16 169.224 16.2239 169 16.5 169C16.7761 169 17 169.224 17 169.5Z" fill="#FF6F3D"/>
<path d="M16 171.5C16 171.776 15.7761 172 15.5 172C15.2239 172 15 171.776 15 171.5C15 171.224 15.2239 171 15.5 171C15.7761 171 16 171.224 16 171.5Z" fill="#FF6F3D"/>
<path d="M15 169.5C15 169.776 14.7761 170 14.5 170C14.2239 170 14 169.776 14 169.5C14 169.224 14.2239 169 14.5 169C14.7761 169 15 169.224 15 169.5Z" fill="#FF6F3D"/>
<path d="M14 171.5C14 171.776 13.7761 172 13.5 172C13.2239 172 13 171.776 13 171.5C13 171.224 13.2239 171 13.5 171C13.7761 171 14 171.224 14 171.5Z" fill="#FF6F3D"/>
<path d="M13 169.5C13 169.776 12.7761 170 12.5 170C12.2239 170 12 169.776 12 169.5C12 169.224 12.2239 169 12.5 169C12.7761 169 13 169.224 13 169.5Z" fill="#FF6F3D"/>
<path d="M12 171.5C12 171.776 11.7761 172 11.5 172C11.2239 172 11 171.776 11 171.5C11 171.224 11.2239 171 11.5 171C11.7761 171 12 171.224 12 171.5Z" fill="#FF6F3D"/>
<rect x="1.5" y="156.5" width="20" height="8" rx="1.5" stroke="#F9F9F9"/>
<path d="M7 160.5C7 161.328 6.32843 162 5.5 162C4.67157 162 4 161.328 4 160.5C4 159.672 4.67157 159 5.5 159C6.32843 159 7 159.672 7 160.5Z" fill="#FF6F3D"/>
<path d="M19 159.5C19 159.776 18.7761 160 18.5 160C18.2239 160 18 159.776 18 159.5C18 159.224 18.2239 159 18.5 159C18.7761 159 19 159.224 19 159.5Z" fill="#FF6F3D"/>
<path d="M18 161.5C18 161.776 17.7761 162 17.5 162C17.2239 162 17 161.776 17 161.5C17 161.224 17.2239 161 17.5 161C17.7761 161 18 161.224 18 161.5Z" fill="#FF6F3D"/>
<path d="M17 159.5C17 159.776 16.7761 160 16.5 160C16.2239 160 16 159.776 16 159.5C16 159.224 16.2239 159 16.5 159C16.7761 159 17 159.224 17 159.5Z" fill="#FF6F3D"/>
<path d="M16 161.5C16 161.776 15.7761 162 15.5 162C15.2239 162 15 161.776 15 161.5C15 161.224 15.2239 161 15.5 161C15.7761 161 16 161.224 16 161.5Z" fill="#FF6F3D"/>
<path d="M15 159.5C15 159.776 14.7761 160 14.5 160C14.2239 160 14 159.776 14 159.5C14 159.224 14.2239 159 14.5 159C14.7761 159 15 159.224 15 159.5Z" fill="#FF6F3D"/>
<path d="M14 161.5C14 161.776 13.7761 162 13.5 162C13.2239 162 13 161.776 13 161.5C13 161.224 13.2239 161 13.5 161C13.7761 161 14 161.224 14 161.5Z" fill="#FF6F3D"/>
<path d="M13 159.5C13 159.776 12.7761 160 12.5 160C12.2239 160 12 159.776 12 159.5C12 159.224 12.2239 159 12.5 159C12.7761 159 13 159.224 13 159.5Z" fill="#FF6F3D"/>
<path d="M12 161.5C12 161.776 11.7761 162 11.5 162C11.2239 162 11 161.776 11 161.5C11 161.224 11.2239 161 11.5 161C11.7761 161 12 161.224 12 161.5Z" fill="#FF6F3D"/>
<rect x="1" y="178" width="8" height="1" rx="0.5" fill="#F9F9F9"/>
<rect x="14" y="178" width="8" height="1" rx="0.5" fill="#F9F9F9"/>
<rect x="12" y="173" width="3" height="1" rx="0.5" transform="rotate(90 12 173)" fill="#F9F9F9"/>
<defs>
<clipPath id="clip0_465_4233">
<rect width="24" height="24" fill="white"/>
</clipPath>
<clipPath id="clip1_465_4233">
<rect width="24" height="24" fill="white" transform="translate(0 26)"/>
</clipPath>
<clipPath id="clip2_465_4233">
<rect width="24" height="24" fill="white" transform="translate(0 78)"/>
</clipPath>
<clipPath id="clip3_465_4233">
<rect width="24" height="24" fill="white" transform="translate(0 104)"/>
</clipPath>
<clipPath id="clip4_465_4233">
<rect width="24" height="24" fill="white" transform="translate(0 130)"/>
</clipPath>
</defs>
</svg>
