<svg width="607" height="323" viewBox="0 0 607 323" fill="none" xmlns="http://www.w3.org/2000/svg">
<g style="mix-blend-mode:luminosity">
<path d="M482.774 258.073L402.21 262.551C208.081 262.551 287.769 270.68 219.419 270.68C149.742 270.68 122.512 274.436 70.965 274.064C22.2426 270.68 -19.7368 181.037 33.7465 134.663C94.5676 70.8039 103.298 3.93398e-06 208.335 0C288.795 -3.01348e-06 309.163 51.4292 461.421 36.5418C566.853 26.2329 619.373 204.363 590.671 262.551C567.653 309.214 482.774 258.073 482.774 258.073Z" fill="#E9F7FF"/>
<path fill-rule="evenodd" clip-rule="evenodd" d="M149.429 183.057L210.832 265.484C212.987 268.377 220.041 272.28 220.041 272.28C220.041 272.28 186.42 271.265 140.066 278.032C93.712 284.799 70.4902 272.032 70.4902 272.032C70.4902 272.032 73.5274 268.3 75.7822 265.409L140.066 182.982C142.23 180.207 147.337 180.248 149.429 183.057Z" fill="#E1C6C6"/>
<path fill-rule="evenodd" clip-rule="evenodd" d="M145.288 182.982C165.261 207.555 170.352 247.108 195.023 272.032C195.023 272.032 186.42 271.265 140.066 278.032C93.712 284.799 70.4902 272.032 70.4902 272.032C70.4902 272.032 73.5274 268.3 75.7822 265.409L140.066 182.982C142.23 180.207 143.196 180.173 145.288 182.982Z" fill="#E6CECE"/>
<path d="M155.47 205.205C158.995 200.898 165.177 204.604 164.477 202.856C163.694 200.898 157.162 191.963 155.47 189.932L148.421 181.317C145.288 177.792 140.981 178.967 137.064 184.45L131.973 191.107C128.841 195.034 122.575 204.422 122.575 204.422C131.19 196.59 134.794 204.117 138.631 200.506C145.288 194.24 150.382 211.424 155.47 205.205Z" fill="white"/>
<path fill-rule="evenodd" clip-rule="evenodd" d="M392.418 200.357H345.118C344.682 199.372 344.44 198.283 344.44 197.137C344.44 193.328 347.114 190.143 350.686 189.356C351.987 183.613 357.122 179.325 363.258 179.325C367.757 179.325 371.718 181.63 374.024 185.123C375.238 184.438 376.64 184.047 378.134 184.047C382.756 184.047 386.503 187.794 386.503 192.416C386.503 192.915 386.46 193.403 386.376 193.877C386.536 193.863 386.698 193.856 386.861 193.856C389.968 193.856 392.486 196.375 392.486 199.481C392.486 199.779 392.463 200.072 392.418 200.357Z" fill="white"/>
<path fill-rule="evenodd" clip-rule="evenodd" d="M450.399 164.765L523.869 263.082C526.448 266.532 529.18 272.71 529.18 272.71C529.18 272.71 512.939 294.365 444.592 282.184C376.245 270.003 349.516 282.184 349.516 282.184C349.516 282.184 359.578 266.44 362.276 262.992L439.195 164.675C441.784 161.365 447.894 161.414 450.399 164.765Z" fill="#B59C9C"/>
<path fill-rule="evenodd" clip-rule="evenodd" d="M450.399 164.765C461.712 204.813 493.529 238.906 510.663 277.654C510.663 277.654 512.939 294.364 444.592 282.184C376.245 270.003 349.516 282.184 349.516 282.184C349.516 282.184 359.578 266.44 362.276 262.992L439.195 164.675C441.784 161.365 447.894 161.414 450.399 164.765Z" fill="#BCA7A7"/>
<path d="M434.69 191.107C431.84 194.169 430.774 183.275 424.117 182.492C424.117 182.492 424.693 180.477 426.23 178.611L439.269 162.222C441.684 159.289 447.085 159.374 449.355 162.381L463.061 180.534C463.776 181.481 468.255 186.664 467.6 187.639C462.103 187.639 457.931 178.569 452.704 184.45C446.439 191.499 445.264 179.75 434.69 191.107Z" fill="white"/>
<path fill-rule="evenodd" clip-rule="evenodd" d="M308.468 139.91L425.239 290.435C429.337 295.718 438.84 307.56 438.84 307.56C438.84 307.56 384.027 334.635 295.718 313.65C207.409 292.666 158.348 302.392 158.348 302.392C158.348 302.392 164.124 295.577 168.412 290.298L290.662 139.772C294.778 134.705 304.488 134.78 308.468 139.91Z" fill="#FAE0D2"/>
<path fill-rule="evenodd" clip-rule="evenodd" d="M304.675 137.743C351.541 198.156 374.382 279.612 415.832 315.342C415.832 315.342 366.433 331.245 290.662 315.342C214.89 299.44 154.964 304.853 154.964 304.853C200.126 251.57 246.628 191.96 290.662 137.743C294.777 132.675 300.695 132.612 304.675 137.743Z" fill="#FFE9DD"/>
<path d="M270.003 205.04C261.883 202.672 271.629 181.188 248.283 190.324C242.182 187.932 272.964 157.108 286.583 140.396C293.011 133.011 299.778 129.429 308.575 139.062C321.578 155.475 349.871 184.016 346.578 189.149C329.66 182.085 351.789 211.5 324.478 194.799C314.666 188.799 312.636 180.002 308.575 180.002C304.515 180.002 300.117 192.859 290.304 192.859C280.492 192.859 278.124 207.409 270.003 205.04Z" fill="white"/>
<path fill-rule="evenodd" clip-rule="evenodd" d="M251.678 236.649H195.051C194.529 235.471 194.24 234.167 194.24 232.795C194.24 228.235 197.44 224.421 201.717 223.479C203.275 216.604 209.422 211.471 216.768 211.471C222.154 211.471 226.896 214.23 229.657 218.412C231.11 217.592 232.789 217.123 234.577 217.123C240.111 217.123 244.597 221.609 244.597 227.143C244.597 227.74 244.545 228.324 244.445 228.892C244.636 228.875 244.83 228.867 245.026 228.867C248.745 228.867 251.76 231.882 251.76 235.601C251.76 235.958 251.732 236.308 251.678 236.649Z" fill="white"/>
<path fill-rule="evenodd" clip-rule="evenodd" d="M582.472 94.2209C581.581 80.1555 569.891 69.0234 555.6 69.0234C546.074 69.0234 537.703 73.9709 532.916 81.4366C531.73 81.0755 530.472 80.8812 529.168 80.8812C522.073 80.8812 516.322 86.6324 516.322 93.7269C516.322 93.8923 516.325 94.057 516.332 94.2209H582.472Z" fill="#D0E7F9"/>
<path fill-rule="evenodd" clip-rule="evenodd" d="M57.5119 145.161H8.79712C8.90317 134.861 17.2863 126.543 27.6121 126.543C34.2539 126.543 40.092 129.984 43.4406 135.181C44.6107 134.719 45.8858 134.466 47.2202 134.466C52.9083 134.466 57.5194 139.077 57.5194 144.765C57.5194 144.898 57.5169 145.03 57.5119 145.161Z" fill="#D0E7F9"/>
<path fill-rule="evenodd" clip-rule="evenodd" d="M140.16 289.715H2.37031C0.852342 286.621 0 283.142 0 279.463C0 266.593 10.4337 256.159 23.3044 256.159C24.4591 256.159 25.5942 256.243 26.7039 256.405C30.6184 239.761 45.5631 227.371 63.4016 227.371C81.1923 227.371 96.1047 239.695 100.068 256.271C108.143 257.884 114.724 263.64 117.499 271.228C119.51 270.353 121.729 269.867 124.061 269.867C133.147 269.867 140.512 277.232 140.512 286.317C140.512 287.482 140.391 288.619 140.16 289.715Z" fill="white"/>
<path fill-rule="evenodd" clip-rule="evenodd" d="M606.823 302.473H483.575C482.441 299.907 481.811 297.069 481.811 294.084C481.811 284.158 488.776 275.859 498.085 273.808C501.475 258.844 514.854 247.672 530.843 247.672C542.565 247.672 552.886 253.678 558.894 262.78C562.057 260.994 565.711 259.975 569.603 259.975C581.647 259.975 591.411 269.738 591.411 281.783C591.411 283.081 591.298 284.352 591.08 285.588C591.497 285.553 591.918 285.535 592.344 285.535C600.438 285.535 607 292.096 607 300.191C607 300.967 606.94 301.729 606.823 302.473Z" fill="white"/>
<path d="M353.412 91.0667C359.841 91.0667 362.209 99.1871 362.209 99.1871C362.209 99.1871 364.578 91.0667 370.33 91.0667" stroke="#BADAF4" stroke-width="2" stroke-linecap="round" stroke-linejoin="round"/>
<path d="M371.683 74.8257C376.826 74.8257 378.721 80.916 378.721 80.916C378.721 80.916 380.616 74.8257 385.217 74.8257" stroke="#BADAF4" stroke-width="2" stroke-linecap="round" stroke-linejoin="round"/>
<path d="M339.201 79.5625C342.544 79.5625 343.776 83.6227 343.776 83.6227C343.776 83.6227 345.008 79.5625 347.999 79.5625" stroke="#BADAF4" stroke-width="2" stroke-linecap="round" stroke-linejoin="round"/>
<path d="M530.533 165.792C533.876 165.792 535.107 169.852 535.107 169.852C535.107 169.852 536.339 165.792 539.33 165.792" stroke="#BADAF4" stroke-width="2" stroke-linecap="round" stroke-linejoin="round"/>
<path d="M165.854 90.8285L198.527 148.608M198.527 148.608L180.065 105.039M198.527 148.608L183.787 71.8809M198.527 148.608L213.224 71.8809M198.527 148.608L217.284 105.039M198.527 148.608L231.494 90.8285M198.527 148.608V86.4299" stroke="#CBE4F6"/>
<path d="M193.599 141.243H203.073V147.716C203.073 149.373 201.73 150.716 200.073 150.716H196.599C194.942 150.716 193.599 149.373 193.599 147.716V141.243Z" fill="#BCA7A7"/>
<rect x="192.922" y="140.566" width="10.8272" height="1.3534" fill="#CBE4F6"/>
<rect x="194.953" y="143.273" width="1.3534" height="5.4136" fill="#E1C6C6"/>
<rect x="197.659" y="143.273" width="1.3534" height="5.4136" fill="#E1C6C6"/>
<rect x="200.366" y="143.273" width="1.3534" height="5.4136" fill="#E1C6C6"/>
<circle cx="198.156" cy="78.3226" r="36.0284" fill="#D0E7F9"/>
<ellipse cx="198.156" cy="78.3226" rx="23.4968" ry="36.0284" fill="#E9F7FF"/>
<ellipse cx="198.156" cy="78.3226" rx="9.39871" ry="36.0284" fill="#D0E7F9"/>
</g>
</svg>
