<svg width="24" height="24" viewBox="0 0 24 24" fill="none" xmlns="http://www.w3.org/2000/svg">
<path fill-rule="evenodd" clip-rule="evenodd" d="M15 9.99976C15 12.7612 12.7614 14.9998 10 14.9998C7.23858 14.9998 5 12.7612 5 9.99976C5 7.23833 7.23858 4.99976 10 4.99976C12.7614 4.99976 15 7.23833 15 9.99976ZM14.1922 15.6062C13.0236 16.4814 11.5723 16.9998 10 16.9998C6.13401 16.9998 3 13.8657 3 9.99976C3 6.13376 6.13401 2.99976 10 2.99976C13.866 2.99976 17 6.13376 17 9.99976C17 11.5721 16.4816 13.0234 15.6064 14.1919L19.7031 18.2887C20.0936 18.6792 20.0936 19.3124 19.7031 19.7029C19.3126 20.0934 18.6794 20.0934 18.2889 19.7029L14.1922 15.6062Z" fill="#333333"/>
</svg>
