<svg width="17" height="18" viewBox="0 0 17 18" fill="none" xmlns="http://www.w3.org/2000/svg">
<path fill-rule="evenodd" clip-rule="evenodd" d="M12 7.5C12 10.2614 9.76142 12.5 7 12.5C4.23858 12.5 2 10.2614 2 7.5C2 4.73858 4.23858 2.5 7 2.5C9.76142 2.5 12 4.73858 12 7.5ZM11.1922 13.1064C10.0236 13.9816 8.57233 14.5 7 14.5C3.13401 14.5 0 11.366 0 7.5C0 3.63401 3.13401 0.5 7 0.5C10.866 0.5 14 3.63401 14 7.5C14 9.07234 13.4816 10.5236 12.6064 11.6922L16.7031 15.7889C17.0936 16.1795 17.0936 16.8126 16.7031 17.2031C16.3126 17.5937 15.6794 17.5937 15.2889 17.2031L11.1922 13.1064Z" fill="#595959"/>
</svg>
