<svg width="180" height="207" viewBox="0 0 180 207" fill="none" xmlns="http://www.w3.org/2000/svg">
<path d="M5 88.5403L5 94.4597C5 94.8789 5.48497 95.112 5.81235 94.8501L9.51196 91.8904C9.76216 91.6903 9.76216 91.3097 9.51196 91.1096L5.81235 88.1499C5.48497 87.888 5 88.1211 5 88.5403Z" fill="#808080"/>
<path d="M9.45969 110H3.54031C3.12106 110 2.88797 110.485 3.14988 110.812L6.10957 114.512C6.30973 114.762 6.69027 114.762 6.89043 114.512L9.85012 110.812C10.112 110.485 9.87894 110 9.45969 110Z" fill="#808080"/>
<path fill-rule="evenodd" clip-rule="evenodd" d="M3 200C3 196.687 5.68579 194 8.99893 194C12.3138 194 15 196.687 15 200C15 203.313 12.3138 206 8.99893 206C7.28338 206 5.73604 205.28 4.64267 204.125C3.62449 203.05 3 201.598 3 200ZM10.8887 203L12 201.89L10.1113 200.003L12 198.113L10.8887 197L8.9995 198.888L7.11178 197L6 198.113L7.88822 200.003L6 201.89L7.11178 203L8.9995 201.113L10.8887 203Z" fill="#808080"/>
<path opacity="0.5" fill-rule="evenodd" clip-rule="evenodd" d="M3 180C3 176.687 5.68579 174 8.99893 174C12.3138 174 15 176.687 15 180C15 183.313 12.3138 186 8.99893 186C7.28338 186 5.73604 185.28 4.64267 184.125C3.62449 183.05 3 181.598 3 180ZM10.8887 183L12 181.89L10.1113 180.003L12 178.113L10.8887 177L8.9995 178.888L7.11178 177L6 178.113L7.88822 180.003L6 181.89L7.11178 183L8.9995 181.113L10.8887 183Z" fill="#B2B2B2"/>
<path fill-rule="evenodd" clip-rule="evenodd" d="M21.4332 38.5344L4.10695 30.7111C2.63102 30.0281 2.63102 28.9726 4.10695 28.3517L10.139 25.6198L21.369 30.7111C22.8449 31.3941 25.2193 31.3941 26.631 30.7111L37.861 25.6198L43.8931 28.3517C45.369 29.0347 45.369 30.0902 43.8931 30.7111L26.5668 38.5344C25.2193 39.1553 22.8449 39.1553 21.4332 38.5344Z" fill="#FF6F3D"/>
<path fill-rule="evenodd" clip-rule="evenodd" d="M21.377 28.8534L4.10358 21.021C2.63214 20.3373 2.63214 19.2805 4.10358 18.6589L9.98934 15.986L21.377 21.1454C22.8484 21.8291 25.2155 21.8291 26.623 21.1454L38.0107 15.986L43.8964 18.6589C45.3679 19.3427 45.3679 20.3994 43.8964 21.021L26.623 28.8534C25.1516 29.5372 22.7845 29.5372 21.377 28.8534Z" fill="#95C038"/>
<path fill-rule="evenodd" clip-rule="evenodd" d="M21.377 19.2729L4.10358 11.5532C2.63214 10.8793 2.63214 9.83777 4.10358 9.2251L21.377 1.50545C22.8484 0.831516 25.2155 0.831516 26.623 1.50545L43.8964 9.2251C45.3679 9.89904 45.3679 10.9406 43.8964 11.5532L26.623 19.2729C25.1516 19.8856 22.7845 19.8856 21.377 19.2729Z" fill="#5DC0E8"/>
<path fill-rule="evenodd" clip-rule="evenodd" d="M54 15.9749C54 13.3166 54.744 11.3103 56.2817 10.0063C57.7697 8.65204 59.5554 8 61.5891 8C63.6227 8 65.3588 8.65204 66.8468 10.0063C68.3349 11.3605 69.0789 13.3166 69.0789 16.0251C69.0789 18.6834 68.3349 20.6897 66.8468 21.9937C65.3588 23.348 63.5731 24 61.5891 24C59.5554 24 57.8193 23.348 56.2817 21.9937C54.744 20.6395 54 18.6332 54 15.9749ZM57.2737 15.9749C57.2737 17.8307 57.6209 19.1348 58.2657 19.9875C58.9602 20.8401 59.7042 21.3919 60.4978 21.5925C60.5319 21.6011 60.5644 21.6097 60.5961 21.618C60.7487 21.6584 60.8791 21.6928 61.0434 21.6928C61.1178 21.6928 61.2046 21.7053 61.2914 21.7179C61.3783 21.7304 61.4651 21.7429 61.5395 21.7429C61.7379 21.7429 61.8867 21.7429 62.0851 21.6928C62.2494 21.6928 62.3798 21.6584 62.5325 21.618L62.5325 21.618C62.5641 21.6097 62.5967 21.6011 62.6307 21.5925C63.4243 21.3919 64.1683 20.8401 64.8132 19.9875C65.458 19.1348 65.8052 17.7806 65.8052 16.0251C65.8052 14.2194 65.458 12.9154 64.8132 12.0627C64.1683 11.21 63.4243 10.6583 62.6307 10.4577C62.4323 10.4075 62.2339 10.3574 62.0851 10.3574C61.9859 10.3574 61.8991 10.3448 61.8123 10.3323C61.7255 10.3197 61.6387 10.3072 61.5395 10.3072C61.341 10.3072 61.1922 10.3072 61.0434 10.3574C60.8946 10.3574 60.6962 10.4075 60.4978 10.4577C59.7042 10.6583 58.9602 11.21 58.2657 12.0627C57.6209 12.815 57.2737 14.1693 57.2737 15.9749ZM70.7157 8.15047H74.7831L80.1401 17.9812L80.9337 20.1379H80.9833L80.9337 17.3292V8.15047H84.0586V23.7994H79.9913L74.6343 13.5674L73.8407 11.8119H73.7911L73.8407 14.5705V23.7994H70.7157V8.15047ZM87.2828 8.15047H90.4077V21.1411H96.5583V23.7994H87.2828V8.15047ZM94.6239 8.15047H98.2448L101.419 13.6176L101.915 14.721H102.015L102.511 13.6176L105.735 8.15047H109.058L103.453 17.4295V23.7994H100.328V17.3793L94.6239 8.15047ZM110.943 10.0063C109.405 11.3103 108.661 13.3166 108.661 15.9749C108.661 18.6332 109.455 20.6395 110.943 21.9937C112.48 23.348 114.216 24 116.25 24C118.234 24 120.02 23.348 121.508 21.9937C122.996 20.6897 123.74 18.6834 123.74 16.0251C123.74 13.3166 122.996 11.3605 121.508 10.0063C120.02 8.65204 118.284 8 116.25 8C114.216 8 112.431 8.65204 110.943 10.0063ZM112.927 19.9875C112.282 19.1348 111.935 17.8307 111.935 15.9749C111.935 14.1693 112.282 12.815 112.927 12.0627C113.621 11.21 114.365 10.6583 115.159 10.4577C115.357 10.4075 115.556 10.3574 115.705 10.3574C115.853 10.3072 116.002 10.3072 116.201 10.3072C116.3 10.3072 116.387 10.3197 116.473 10.3323C116.56 10.3448 116.647 10.3574 116.746 10.3574C116.895 10.3574 117.093 10.4075 117.292 10.4577C118.085 10.6583 118.829 11.21 119.474 12.0627C120.119 12.9154 120.466 14.2194 120.466 16.0251C120.466 17.7806 120.119 19.1348 119.474 19.9875C118.829 20.8401 118.085 21.3918 117.292 21.5925C117.258 21.6011 117.225 21.6097 117.194 21.618C117.041 21.6584 116.911 21.6928 116.746 21.6928C116.548 21.7429 116.399 21.7429 116.201 21.7429C116.126 21.7429 116.039 21.7304 115.953 21.7179C115.866 21.7053 115.779 21.6928 115.705 21.6928C115.54 21.6928 115.41 21.6584 115.257 21.618C115.225 21.6097 115.193 21.6011 115.159 21.5925C114.316 21.3918 113.621 20.8401 112.927 19.9875ZM134.553 8.15047H125.922V23.7994H129.047V17.2288H134.305V14.5705H129.047V10.7586H134.553V8.15047ZM136.884 8.15047H145.515V10.7586H140.009V14.5705H145.267V17.2288H140.009V23.7994H136.884V8.15047ZM147.35 8.15047V23.7994H150.475V8.15047H147.35ZM164.244 8.50144V11.2099C163.699 11.0093 163.153 10.8588 162.558 10.7585C161.963 10.6582 161.268 10.608 160.574 10.608C158.937 10.608 157.697 11.1096 156.804 12.1629C155.911 13.166 155.465 14.4701 155.465 16.025C155.465 17.5297 155.862 18.7836 156.705 19.7867C157.548 20.7898 158.739 21.3416 160.276 21.3416C160.748 21.3416 161.219 21.3041 161.755 21.2616L162.012 21.2413C162.657 21.1409 163.302 20.9905 163.996 20.6895L164.195 23.3478C164.096 23.398 163.947 23.4481 163.798 23.4983C163.6 23.5485 163.401 23.5986 163.153 23.6488C162.897 23.7136 162.599 23.7574 162.26 23.8074C162.074 23.8348 161.876 23.864 161.665 23.8996C161.07 23.9497 160.475 23.9999 159.83 23.9999H159.582H159.334C157.548 23.8996 155.911 23.1974 154.423 21.9936C152.935 20.7397 152.191 18.7836 152.191 16.1754C152.191 13.6174 152.935 11.6112 154.374 10.2068C155.812 8.80238 157.796 8.10019 160.227 8.10019C160.871 8.10019 161.467 8.10019 161.963 8.15035C162.435 8.19375 162.87 8.27473 163.332 8.36077C163.404 8.37414 163.477 8.38763 163.55 8.40113C163.6 8.42621 163.662 8.43875 163.724 8.45129C163.786 8.46382 163.848 8.47636 163.897 8.50144C163.96 8.46947 164.024 8.47826 164.1 8.48883C164.143 8.49485 164.19 8.50144 164.244 8.50144ZM176 8.15047H166.724V23.7994H176V21.3417H169.899V16.9279H175.405V14.5204H169.899V10.6082H176V8.15047Z" fill="#F5F5F5"/>
<path d="M59.8057 31.6133C59.8057 32.7917 59.4785 33.6934 58.8242 34.3184C58.1699 34.9401 57.2275 35.251 55.9971 35.251H54V28.1123H56.207C57.3431 28.1123 58.2269 28.4183 58.8584 29.0303C59.4899 29.6423 59.8057 30.5033 59.8057 31.6133ZM58.5752 31.6523C58.5752 29.9434 57.776 29.0889 56.1777 29.0889H55.167V34.2695H55.9971C57.7158 34.2695 58.5752 33.3971 58.5752 31.6523Z" fill="#CCCCCC"/>
<path d="M72.0818 35.251H68.0437V28.1123H72.0818V29.0986H69.2107V31.042H71.9012V32.0186H69.2107V34.2598H72.0818V35.251Z" fill="#CCCCCC"/>
<path d="M84.3971 28.1123H85.608L83.108 35.251H81.8775L79.3873 28.1123H80.5885L82.0777 32.5508C82.1559 32.7624 82.2389 33.0358 82.3268 33.3711C82.4146 33.7031 82.4716 33.9505 82.4977 34.1133C82.54 33.8659 82.6051 33.5794 82.693 33.2539C82.7809 32.9284 82.8525 32.6875 82.9078 32.5312L84.3971 28.1123Z" fill="#CCCCCC"/>
<path d="M97.2885 35.251H93.2504V28.1123H97.2885V29.0986H94.4174V31.042H97.1078V32.0186H94.4174V34.2598H97.2885V35.251Z" fill="#CCCCCC"/>
<path d="M105.536 35.251V28.1123H106.703V34.25H109.726V35.251H105.536Z" fill="#CCCCCC"/>
<path d="M123.994 31.6719C123.994 32.834 123.703 33.7373 123.12 34.3818C122.541 35.0264 121.719 35.3486 120.654 35.3486C119.577 35.3486 118.748 35.0296 118.169 34.3916C117.593 33.7503 117.305 32.8405 117.305 31.6621C117.305 30.4837 117.594 29.5788 118.174 28.9473C118.757 28.3158 119.587 28 120.664 28C121.725 28 122.546 28.3206 123.125 28.9619C123.704 29.6032 123.994 30.5065 123.994 31.6719ZM118.545 31.6719C118.545 32.5508 118.722 33.2181 119.077 33.6738C119.432 34.1263 119.958 34.3525 120.654 34.3525C121.348 34.3525 121.87 34.1279 122.222 33.6787C122.576 33.2295 122.754 32.5605 122.754 31.6719C122.754 30.7962 122.578 30.1322 122.227 29.6797C121.878 29.2272 121.357 29.001 120.664 29.001C119.964 29.001 119.435 29.2272 119.077 29.6797C118.722 30.1322 118.545 30.7962 118.545 31.6719Z" fill="#CCCCCC"/>
<path d="M136.954 30.2705C136.954 31.016 136.71 31.5872 136.221 31.9844C135.733 32.3815 135.038 32.5801 134.137 32.5801H133.394V35.251H132.227V28.1123H134.283C135.175 28.1123 135.842 28.2946 136.285 28.6592C136.731 29.0238 136.954 29.5609 136.954 30.2705ZM133.394 31.5986H134.014C134.613 31.5986 135.053 31.4945 135.333 31.2861C135.613 31.0778 135.753 30.7523 135.753 30.3096C135.753 29.8994 135.627 29.5934 135.377 29.3916C135.126 29.1898 134.735 29.0889 134.205 29.0889H133.394V31.5986Z" fill="#CCCCCC"/>
<path d="M149.118 35.251H145.08V28.1123H149.118V29.0986H146.247V31.042H148.937V32.0186H146.247V34.2598H149.118V35.251Z" fill="#CCCCCC"/>
<path d="M158.533 31.4326H159.343C159.887 31.4326 160.281 31.3317 160.525 31.1299C160.769 30.9281 160.891 30.6286 160.891 30.2314C160.891 29.8278 160.759 29.5381 160.496 29.3623C160.232 29.1865 159.835 29.0986 159.304 29.0986H158.533V31.4326ZM158.533 32.3994V35.251H157.366V28.1123H159.382C160.303 28.1123 160.985 28.2848 161.428 28.6299C161.871 28.9749 162.092 29.4958 162.092 30.1924C162.092 31.0811 161.63 31.7142 160.705 32.0918L162.722 35.251H161.394L159.685 32.3994H158.533Z" fill="#CCCCCC"/>
<path d="M174.578 33.3125C174.578 33.9473 174.349 34.4453 173.89 34.8066C173.431 35.168 172.798 35.3486 171.99 35.3486C171.183 35.3486 170.522 35.2233 170.008 34.9727V33.8691C170.334 34.0221 170.679 34.1426 171.043 34.2305C171.411 34.3184 171.753 34.3623 172.069 34.3623C172.531 34.3623 172.871 34.2744 173.089 34.0986C173.31 33.9229 173.421 33.6868 173.421 33.3906C173.421 33.1237 173.32 32.8975 173.118 32.7119C172.917 32.5264 172.5 32.3066 171.868 32.0527C171.217 31.7891 170.758 31.488 170.491 31.1494C170.224 30.8109 170.091 30.404 170.091 29.9287C170.091 29.333 170.303 28.8643 170.726 28.5225C171.149 28.1807 171.717 28.0098 172.43 28.0098C173.113 28.0098 173.794 28.1595 174.471 28.459L174.1 29.4111C173.465 29.1442 172.899 29.0107 172.401 29.0107C172.023 29.0107 171.737 29.0938 171.541 29.2598C171.346 29.4225 171.248 29.639 171.248 29.9092C171.248 30.0947 171.287 30.2542 171.365 30.3877C171.444 30.5179 171.572 30.6416 171.751 30.7588C171.93 30.876 172.252 31.0306 172.718 31.2227C173.242 31.4408 173.626 31.6442 173.87 31.833C174.114 32.0218 174.293 32.235 174.407 32.4727C174.521 32.7103 174.578 32.9902 174.578 33.3125Z" fill="#CCCCCC"/>
<path fill-rule="evenodd" clip-rule="evenodd" d="M15 68C15 70.7614 12.7614 73 10 73C7.23858 73 5 70.7614 5 68C5 65.2386 7.23858 63 10 63C12.7614 63 15 65.2386 15 68ZM14.1922 73.6064C13.0236 74.4816 11.5723 75 10 75C6.13401 75 3 71.866 3 68C3 64.134 6.13401 61 10 61C13.866 61 17 64.134 17 68C17 69.5723 16.4816 71.0236 15.6064 72.1922L19.7031 76.2889C20.0936 76.6795 20.0936 77.3126 19.7031 77.7031C19.3126 78.0937 18.6794 78.0937 18.2889 77.7031L14.1922 73.6064Z" fill="#333333"/>
<path d="M4 129H11V131H6V135H11V137H4V129Z" fill="#808080"/>
<path d="M20 137H13V135H18V131H13V129H20V137Z" fill="#808080"/>
<path d="M8 134H16V132H8V134Z" fill="#808080"/>
<path d="M5.99989 155H8.43238C8.85633 155 9.0879 154.506 8.81642 154.18L4.88404 149.461C4.68409 149.221 4.31568 149.221 4.11573 149.461L0.183237 154.18C-0.0881253 154.506 0.143442 155 0.567392 155H2.99989V162H9.99989V159H5.99989V155Z" fill="#808080"/>
</svg>
