<svg width="254" height="208" viewBox="0 0 254 208" fill="none" xmlns="http://www.w3.org/2000/svg">
<path d="M166.407 136.342C165.962 135.896 165.518 135.45 164.777 135.003C164.629 135.003 164.332 134.706 163.887 134.557C163.443 134.259 162.998 134.11 162.702 133.813C162.405 133.664 162.109 133.218 161.664 132.771C161.219 132.325 160.923 131.73 160.627 131.284C160.33 130.688 160.182 130.093 159.886 129.201C159.589 128.308 159.441 127.266 159.441 126.225C158.996 126.671 158.7 127.564 158.7 128.754C158.7 129.944 158.848 131.284 159.441 132.623C160.034 133.962 160.923 134.854 162.109 135.152C163.295 135.598 164.184 135.896 164.777 136.342C165.518 136.789 165.962 137.235 166.111 137.83C166.259 138.425 165.962 139.02 165.073 139.616C164.184 140.211 162.85 140.955 161.071 141.55C158.552 142.442 156.625 143.186 155.587 143.782C154.55 144.377 152.919 145.567 150.844 147.352C149.51 148.543 147.88 149.138 146.398 149.287C144.767 149.435 143.582 148.84 142.544 147.501C141.506 146.311 141.21 144.525 141.655 142.145C142.248 137.681 142.248 134.259 141.655 131.73C141.062 129.796 140.914 128.01 141.358 126.522C141.655 125.034 142.099 124.142 142.84 123.993C143.433 123.695 144.174 124.291 145.064 125.63C145.064 125.778 145.36 126.225 145.508 126.671C145.805 127.117 145.953 127.564 146.101 127.713C146.249 127.861 146.546 128.159 146.842 128.605C147.139 128.903 147.583 129.201 148.028 129.349C148.473 129.498 149.066 129.647 149.658 129.647C150.844 129.647 151.882 129.498 152.919 128.903C153.809 128.308 154.55 127.713 154.994 127.117C155.439 126.522 155.884 125.778 156.477 125.183C156.921 124.588 157.366 124.291 157.662 124.142C158.107 124.142 158.403 123.695 158.7 122.951C158.996 122.208 159.293 121.315 159.293 119.976C159.441 118.785 159.293 117.149 158.996 115.512C158.403 112.388 157.366 109.114 155.884 105.395C154.253 101.675 152.623 98.8481 150.696 96.7651C147.287 93.0454 144.915 89.177 143.73 85.1597C142.544 80.9937 141.951 77.1253 142.099 73.852C142.248 71.4714 141.803 68.7933 140.617 65.9663C139.135 63.1394 137.505 61.0564 135.43 59.5685C134.096 58.6758 132.613 57.9319 130.687 57.3367C128.908 56.7416 127.129 56.5928 125.202 56.5928C122.979 56.5928 121.052 56.8903 119.718 57.7831C116.902 59.2709 115.124 61.2051 114.086 63.2882C113.197 65.52 112.752 68.1981 112.752 71.3226C112.9 78.3156 113.197 83.8207 113.641 87.8379C113.197 89.6233 110.973 93.1942 107.12 98.2529C106.379 98.9969 105.786 99.8896 105.045 101.08C104.452 102.27 103.859 103.312 103.414 104.353C102.97 105.246 102.525 106.734 101.932 108.519C101.339 110.305 100.746 111.644 100.598 112.388C100.302 112.983 100.005 113.727 99.4124 114.619C98.8196 115.512 98.5231 116.256 98.0785 117.149C97.782 117.893 97.6338 118.934 97.4856 119.976C97.4856 120.72 97.4856 121.464 97.6338 122.059C97.782 122.951 98.0785 123.249 98.3749 122.803C100.005 121.612 101.932 122.356 104.304 124.886C105.934 126.671 108.898 130.986 113.197 137.681C113.493 138.276 113.938 138.872 114.234 139.616C114.531 140.359 114.975 141.252 115.272 142.442C115.568 143.633 115.716 144.674 115.716 145.567C115.716 146.46 115.272 147.352 114.531 148.096C113.79 148.84 112.604 149.435 111.122 149.584C110.381 149.733 109.343 149.584 108.157 149.435C106.972 149.138 105.638 148.84 103.859 148.245C102.08 147.65 100.746 147.352 100.005 147.055C98.8196 146.757 97.041 146.46 94.8177 146.013C92.5944 145.567 91.1122 145.269 90.3711 144.972C89.1854 144.674 88.5925 144.228 88.4443 143.633C88.4443 142.889 88.5925 141.996 89.3336 140.806C89.9265 139.616 90.2229 138.723 90.2229 138.276C90.2229 137.83 90.2229 137.533 90.2229 137.086C90.2229 136.64 90.0747 136.342 89.9265 136.193C89.7783 136.045 89.63 135.598 89.4818 135.301C89.3336 134.854 89.1854 134.557 89.0372 134.408C88.4443 132.92 88.2961 131.879 88.7407 131.432C89.0372 130.986 89.7783 130.837 90.964 130.837C92.7426 130.986 94.2248 130.688 95.2623 130.093C97.1892 128.903 97.6338 127.117 96.8927 124.439C96.8927 125.63 96.7445 126.522 96.2999 127.117C95.8552 127.713 95.1141 128.308 94.0766 129.052C93.4837 129.349 92.4462 129.647 90.964 129.647C89.4818 129.647 88.4443 129.944 87.9996 130.391C87.7032 130.688 87.4068 131.135 87.4068 131.879C87.4068 132.474 87.4068 133.218 87.7032 133.813C87.8514 134.408 87.9996 135.152 88.2961 136.045C88.4443 136.64 88.4443 137.384 88.4443 137.83C88.4443 138.276 88.1479 139.169 87.555 140.657C86.9621 142.145 86.8139 143.335 87.2585 144.228C87.4068 144.674 87.7032 144.972 88.1479 145.269C88.4443 145.716 89.0372 145.865 89.7783 146.162C90.5193 146.311 91.2604 146.609 91.8533 146.609C92.4462 146.757 93.3355 146.906 94.5212 147.055C95.707 147.204 96.5963 147.352 97.1892 147.501C99.4124 147.948 101.932 148.692 104.897 149.733C107.713 150.775 109.788 151.37 110.677 151.37C111.715 151.37 112.604 151.221 113.493 150.775C114.382 150.328 115.124 149.882 115.716 149.287C116.309 148.692 117.347 148.245 118.533 147.65C119.718 147.204 121.201 146.906 122.683 146.906C123.424 146.906 124.461 146.757 125.795 146.757C127.129 146.757 128.167 146.609 128.76 146.609C131.724 146.609 134.096 146.609 135.578 146.609C136.615 146.609 137.505 146.757 138.097 147.055C138.69 147.352 139.135 147.65 139.283 148.096C139.431 148.543 139.728 148.989 140.172 149.435C140.617 149.882 141.062 150.328 141.655 150.626C142.989 151.221 144.619 151.518 146.398 151.37C148.176 151.221 149.362 150.923 149.955 150.328C150.992 149.435 152.326 148.245 153.957 146.906C155.587 145.567 157.069 144.674 158.403 143.93C158.7 143.782 159.144 143.484 159.886 143.186C160.478 142.889 161.071 142.591 161.516 142.294C161.961 141.996 162.553 141.699 163.146 141.401C163.739 141.103 164.332 140.657 164.777 140.359C165.221 140.062 165.518 139.764 165.962 139.318C166.407 138.872 166.704 138.574 166.852 138.128C167 138.425 167 137.979 167 137.533C167 137.235 166.704 136.789 166.407 136.342ZM138.097 85.011C138.246 85.011 138.246 84.8622 138.246 84.8622L138.394 85.011C138.542 85.1597 138.542 85.3085 138.69 85.3085C138.839 85.4573 138.839 85.6061 138.987 85.7549C139.135 85.9037 139.283 86.0525 139.431 86.2013C139.58 86.35 139.876 86.4988 140.172 86.4988C140.469 86.4988 140.765 86.6476 140.914 86.7964C141.062 86.9452 141.21 87.094 141.21 87.3915C141.21 87.8379 141.21 88.1355 141.062 88.433C140.914 88.7306 140.617 88.8794 140.321 88.8794C139.728 88.7306 138.987 88.1355 138.246 87.2428C137.801 86.35 137.653 85.6061 138.097 85.011ZM131.576 64.3297C131.724 64.0321 131.872 63.8833 131.872 63.7345C131.872 63.5857 132.02 63.2882 131.872 63.1394C131.724 62.9906 131.872 62.693 131.872 62.3954C132.02 62.0979 132.169 62.0979 132.465 61.9491C132.762 61.9491 133.206 62.2467 133.799 62.693C133.947 62.693 134.096 62.8418 134.244 62.9906C134.54 63.1394 134.688 63.2882 134.688 63.2882C134.837 63.4369 134.837 63.4369 134.837 63.5857C134.837 63.7345 134.54 63.8833 134.392 64.0321C134.096 64.0321 133.947 64.1809 133.651 64.1809C133.354 64.1809 133.206 64.1809 133.206 64.1809C132.91 64.3297 132.613 64.4784 132.465 64.6272C132.169 64.776 132.02 65.0736 131.872 65.0736C131.724 65.2224 131.576 65.2224 131.428 65.0736C131.279 64.9248 131.279 64.776 131.279 64.6272C131.428 64.776 131.428 64.6272 131.576 64.3297ZM106.23 104.056C106.527 103.758 106.675 103.609 106.823 103.312C106.972 103.163 106.972 102.865 107.12 102.568C107.268 102.27 107.268 101.973 107.416 101.973C107.416 101.824 107.564 101.824 107.713 101.824C107.713 101.824 107.861 101.824 107.861 101.973C107.861 102.121 107.861 102.121 107.861 102.121V102.419C107.861 102.568 107.861 102.568 107.713 102.717C107.713 102.717 107.713 102.865 107.564 103.014C107.564 103.163 107.564 103.312 107.416 103.312C107.268 103.609 107.12 104.056 106.823 104.204C106.527 104.502 106.379 104.651 106.23 104.502C105.934 104.651 105.934 104.502 106.23 104.056ZM140.172 132.92C140.469 134.706 140.617 136.045 140.469 136.789C140.469 137.979 140.172 139.467 139.728 141.55C139.283 143.633 139.135 144.972 138.987 145.567C138.246 145.567 137.801 145.269 137.653 144.674C137.505 144.228 137.653 143.484 137.949 142.74C138.69 140.359 139.135 138.723 139.135 137.83C139.135 136.193 138.987 135.301 138.542 135.003C138.097 134.706 137.505 135.301 136.763 136.64C135.281 139.169 132.169 140.657 127.426 141.252C123.276 141.847 120.311 141.252 118.681 139.318C118.384 139.02 117.94 139.02 117.643 139.169C117.347 139.318 117.05 139.467 116.902 139.616C116.902 139.616 116.902 139.764 117.05 139.913C117.199 140.062 117.347 140.211 117.495 140.508C117.792 140.806 117.94 141.103 118.088 141.401C119.422 143.782 119.274 145.418 117.792 146.311C117.792 144.674 117.643 143.484 117.495 142.591C117.199 141.699 116.754 140.806 116.013 139.764C115.272 138.723 114.827 137.979 114.531 137.384C115.568 137.235 116.309 136.937 116.902 136.193C117.495 135.45 117.643 134.706 117.643 133.962C117.643 133.218 117.347 132.474 116.754 131.879C116.458 131.581 114.827 130.242 111.863 127.861C108.898 125.481 107.12 123.844 106.379 123.1C106.23 122.951 105.786 122.654 105.045 122.059C104.304 121.464 103.859 121.017 103.711 120.571C102.08 117 101.932 114.024 103.118 111.793L103.266 111.495C103.414 111.495 103.414 111.793 103.266 112.388C103.118 113.429 102.97 114.322 103.118 115.363C103.266 117.595 103.859 119.232 105.045 120.422C105.786 121.166 106.23 121.166 106.527 120.273C106.675 119.976 106.823 118.934 106.823 117.149C106.823 115.363 106.823 114.173 106.972 113.429C107.268 111.346 108.157 108.966 109.491 105.99C110.825 103.014 112.011 101.377 112.752 101.229C112.159 100.187 111.863 99.1457 112.159 97.8066C112.456 96.6163 112.752 95.5748 113.197 94.6821C113.641 93.7894 114.234 92.8966 114.679 91.7063C115.272 90.5161 115.42 89.6233 115.42 88.7306C115.42 88.433 115.42 88.2843 115.42 88.1355C115.568 87.8379 116.013 88.1355 116.754 89.3258C118.236 91.5576 119.274 92.7479 120.015 93.1942C120.756 93.6406 121.645 93.6406 122.535 93.1942C123.424 92.7479 124.61 92.0039 126.092 90.9624C127.426 89.9209 128.611 89.177 129.649 88.5818C129.797 88.5818 129.945 88.433 130.094 88.2843C130.39 88.1355 130.538 88.1355 130.687 87.9867C130.835 87.9867 130.983 87.8379 131.131 87.6891C131.279 87.5403 131.428 87.5403 131.576 87.3915C131.724 87.3915 131.724 87.2428 131.872 87.094C132.02 86.9452 132.02 86.9452 132.02 86.7964C132.02 86.6476 132.02 86.6476 132.02 86.4988C132.02 86.2013 131.872 86.0525 131.576 85.9037C131.279 85.9037 130.983 85.9037 130.687 86.0525C130.242 86.2013 129.797 86.4988 129.353 86.6476C128.908 86.9452 128.315 87.2428 127.722 87.5403C127.129 87.8379 126.536 88.1355 125.944 88.433C125.351 88.7306 124.758 89.0282 124.017 89.177C123.424 89.3258 122.683 89.4746 122.09 89.6233C120.608 89.6233 119.422 89.3258 118.533 88.433C117.94 87.8379 117.643 87.5403 117.643 87.3915C117.643 87.2428 117.792 87.2428 118.088 87.2428C120.015 87.5403 121.349 87.5403 122.238 87.3915C123.127 87.2428 124.313 86.7964 125.944 86.2013C126.24 86.0525 127.129 85.7549 128.315 85.1597C129.649 84.5646 130.538 84.267 131.279 83.9695C131.724 83.8207 132.02 83.6719 132.169 83.5231C132.317 83.2255 132.317 83.0767 132.317 82.928C132.317 82.7792 132.169 82.6304 132.02 82.4816C131.576 82.3328 131.279 82.4816 130.983 82.928C130.835 83.2255 130.39 83.5231 129.945 83.8207C129.353 84.1182 128.908 84.4158 128.463 84.5646C128.019 84.7134 127.426 84.8622 126.685 85.1597C125.944 85.3085 125.499 85.4573 125.499 85.6061C123.572 86.2013 121.793 86.4988 120.163 86.35C119.422 86.35 118.829 86.2013 118.236 86.0525C117.792 85.9037 117.495 85.6061 117.199 85.3085C117.05 85.011 116.754 84.7134 116.309 84.267C115.865 83.8207 115.42 83.5231 114.975 83.2255C114.679 83.0767 114.531 82.7792 114.531 82.3328C114.679 81.8865 114.827 81.4401 115.272 80.8449C115.272 80.8449 115.716 80.5474 116.309 80.2498C117.05 79.8034 117.495 79.3571 117.792 79.0595C118.088 78.6132 118.681 78.018 119.422 77.5716C119.422 77.4229 119.422 76.9765 119.57 76.3814C119.57 75.7862 119.422 75.0423 119.125 74.2983C118.829 73.5544 118.236 73.2568 117.643 73.2568C116.754 73.2568 116.161 73.4056 115.865 74.0008C115.568 74.5959 115.42 75.1911 115.42 75.935C115.42 76.6789 115.568 77.2741 115.865 77.7204C116.161 78.1668 116.458 78.4644 116.754 78.4644C117.199 78.4644 117.199 78.6132 117.05 78.9107C116.902 79.3571 116.606 79.5059 116.161 79.6547C115.865 79.6547 115.716 79.5059 115.272 78.9107C114.975 78.3156 114.679 77.7204 114.531 76.9765C114.382 76.2326 114.382 75.4886 114.382 75.0423C114.382 74.0008 114.679 72.9593 115.272 71.9178C115.716 70.8763 116.458 70.4299 117.495 70.4299C118.533 70.4299 119.274 71.025 119.867 72.2153C120.459 73.4056 120.756 75.0423 120.756 76.9765C120.904 77.2741 121.201 77.2741 121.645 77.2741C122.09 77.2741 122.683 77.1253 123.424 77.2741C124.165 77.2741 124.61 77.5716 124.906 77.8692C124.906 77.8692 124.906 77.5716 124.906 77.1253C124.313 72.6617 125.795 70.2811 129.649 69.9835C130.242 70.1323 130.687 70.2811 131.131 70.4299C131.576 70.5787 131.872 70.8763 132.317 71.1738C132.762 71.4714 133.058 72.0666 133.354 72.8105C133.651 73.5544 133.947 74.4471 134.096 75.4886V77.4229C134.096 78.6132 133.799 79.2083 133.354 79.3571C132.613 79.6547 132.02 79.6547 131.724 79.3571C131.428 79.0595 131.428 78.6132 131.872 78.018C132.169 77.1253 132.169 76.0838 131.724 74.8935C131.279 73.7032 130.39 73.2568 129.056 73.2568C128.167 73.2568 127.574 73.7032 127.129 74.7447C126.685 75.6374 126.536 76.5301 126.685 77.4229C126.833 78.3156 126.981 78.7619 127.277 78.7619C127.426 78.7619 128.167 79.0595 129.204 79.6547C130.242 80.2498 130.983 80.5474 131.576 80.5474C132.91 80.8449 133.651 81.2913 133.947 81.8865C134.096 82.4816 134.096 83.3743 133.651 84.5646C133.354 85.7549 133.206 86.6476 133.354 87.3915C133.503 88.1355 133.799 88.8794 134.096 89.4746C134.54 90.0697 134.837 90.6648 135.281 91.26C135.726 91.8551 136.171 92.7479 136.763 94.2357C137.356 95.7236 137.949 97.509 138.394 99.7408C138.394 99.7408 138.542 99.8896 138.839 100.187C139.135 100.336 139.283 100.634 139.58 100.931C139.876 101.229 140.024 101.675 140.469 102.27C140.765 102.865 141.062 103.609 141.506 104.651C141.803 105.692 142.248 106.883 142.544 108.37C142.989 110.007 143.137 111.941 143.137 114.024C143.137 116.256 143.285 117.595 143.582 118.488C143.878 119.232 144.471 119.678 145.657 119.529C146.991 119.529 147.88 118.785 148.324 117.298C149.51 113.132 148.473 108.222 145.508 102.568C144.323 100.336 143.285 98.8481 142.544 98.1042C143.73 98.8481 145.064 100.187 146.398 102.121C147.732 104.056 148.473 105.841 148.917 107.626C148.917 107.775 149.066 108.222 149.214 108.966C149.362 109.709 149.51 110.156 149.51 110.305C149.51 110.453 149.658 110.751 149.658 111.346C149.807 111.941 149.807 112.388 149.807 112.536C149.807 112.685 149.807 113.132 149.807 113.578C149.807 114.024 149.807 114.471 149.807 114.768C149.807 115.066 149.658 115.363 149.658 115.959C149.658 116.405 149.51 116.851 149.362 117.298C149.214 117.744 149.066 118.19 148.917 118.785C150.844 119.678 151.882 120.422 151.882 121.017C151.141 120.422 150.103 119.976 148.769 119.827C147.435 119.678 146.101 119.827 144.915 120.422C143.73 121.017 143.137 121.91 143.137 123.249C141.803 123.249 140.914 123.547 140.469 124.142C139.728 125.034 139.283 126.374 139.283 127.861C139.876 129.349 139.876 131.135 140.172 132.92ZM118.533 75.3399C118.384 75.3399 118.384 75.1911 118.236 75.0423C118.236 74.7447 118.384 74.5959 118.681 74.7447C118.829 74.7447 119.125 75.0423 119.274 75.4886C119.57 75.935 119.57 76.3814 119.57 76.9765C119.57 77.1253 119.57 77.1253 119.422 77.1253C118.977 77.1253 118.829 76.8277 118.977 76.0838C118.977 75.6374 118.829 75.3399 118.533 75.3399ZM132.169 76.0838L132.02 76.2326C131.724 76.3814 131.576 76.3814 131.576 76.3814C131.428 75.4886 131.131 74.8935 130.687 74.7447L130.538 74.5959C130.242 74.4471 130.39 74.2983 130.835 74.1496C130.983 74.1496 131.131 74.1496 131.279 74.2983C131.428 74.4471 131.724 74.5959 131.872 74.8935C132.02 75.3399 132.169 75.7862 132.169 76.0838Z" fill="#AAAAAA"/>
<path d="M119.87 79.2079C119.87 79.3567 120.018 79.5055 120.166 79.5055C120.315 79.5055 120.463 79.3567 120.611 79.0591C120.759 78.7616 121.056 78.464 121.352 78.464H120.759C120.315 78.464 119.87 78.7616 119.87 79.2079Z" fill="#AAAAAA"/>
<path d="M124.464 78.6135C124.761 78.4647 125.057 78.6135 125.354 78.9111C125.65 79.2087 125.798 79.3575 125.947 79.2087C126.095 79.0599 126.243 78.9111 126.095 78.7623C125.947 78.1672 125.354 78.1672 124.464 78.6135Z" fill="#AAAAAA"/>
</svg>
