<svg width="16" height="16" viewBox="0 0 16 16" fill="none" xmlns="http://www.w3.org/2000/svg">
<path d="M6.52002 12V14.49H9.51002V11L6.52002 12Z" stroke="#333333" stroke-opacity="0.8" stroke-linecap="round" stroke-linejoin="round"/>
<path d="M5 6.5H1.5V9.5H4L5 6.5Z" stroke="#333333" stroke-opacity="0.8" stroke-linecap="round" stroke-linejoin="round"/>
<path d="M14.5001 1.49995C14.5001 1.49995 14.5901 3.27 14.5001 4C14.1643 6.72398 12.9101 8.48 11.6901 9.5C10.2501 10.71 7.83009 11.93 6.40009 12.04L4.09009 9.72C4.21009 8.24 5.28009 5.93 6.71009 4.36C7.85009 3.11 9.45009 1.82998 12.0001 1.49998C12.7201 1.41998 14.5001 1.49995 14.5001 1.49995Z" stroke="#333333" stroke-opacity="0.8" stroke-linecap="round" stroke-linejoin="round"/>
<path d="M12 5C12.55 5 13 4.55 13 4C13 3.45 12.55 3 12 3C11.45 3 11 3.45 11 4C11 4.55 11.45 5 12 5Z" fill="#333333" fill-opacity="0.8"/>
<path d="M9.81012 10.74L5.37012 6.29999" stroke="#333333" stroke-opacity="0.8" stroke-linecap="round" stroke-linejoin="round"/>
</svg>
