<svg width="206" height="80" viewBox="0 0 206 80" fill="none" xmlns="http://www.w3.org/2000/svg">
<g clip-path="url(#clip0_26_409)">
<path d="M20.5 3C20.5 1.61929 21.6193 0.5 23 0.5H185C186.381 0.5 187.5 1.61929 187.5 3V77C187.5 78.3807 186.381 79.5 185 79.5H23C21.6193 79.5 20.5 78.3807 20.5 77V3Z" fill="white" stroke="#CCCCCC"/>
<path d="M21 16H187V9H21V16Z" fill="#F2F2F2"/>
<path d="M21 3C21 1.89543 21.8954 1 23 1H185C186.105 1 187 1.89543 187 3V9H21V3Z" fill="#40865C"/>
<path fill-rule="evenodd" clip-rule="evenodd" d="M187 33H21V32H187V33Z" fill="#CCCCCC"/>
<path fill-rule="evenodd" clip-rule="evenodd" d="M187 73H21V72H187V73Z" fill="#CCCCCC"/>
<path fill-rule="evenodd" clip-rule="evenodd" d="M187 49H21V48H187V49Z" fill="#CCCCCC"/>
<path fill-rule="evenodd" clip-rule="evenodd" d="M187 25H21V24H187V25Z" fill="#CCCCCC"/>
<path fill-rule="evenodd" clip-rule="evenodd" d="M187 65H21V64H187V65Z" fill="#CCCCCC"/>
<path fill-rule="evenodd" clip-rule="evenodd" d="M187 41H21V40H187V41Z" fill="#CCCCCC"/>
<path fill-rule="evenodd" clip-rule="evenodd" d="M187 57H21V56H187V57Z" fill="#CCCCCC"/>
<path fill-rule="evenodd" clip-rule="evenodd" d="M187 17H21V16H187V17Z" fill="#CCCCCC"/>
<path fill-rule="evenodd" clip-rule="evenodd" d="M144 80L144 16L145 16L145 80L144 80Z" fill="#CCCCCC"/>
<path fill-rule="evenodd" clip-rule="evenodd" d="M39 80L39 16L40 16L40 80L39 80Z" fill="#CCCCCC"/>
<path fill-rule="evenodd" clip-rule="evenodd" d="M102 80L102 16L103 16L103 80L102 80Z" fill="#CCCCCC"/>
<path fill-rule="evenodd" clip-rule="evenodd" d="M165 80L165 16L166 16L166 80L165 80Z" fill="#CCCCCC"/>
<path fill-rule="evenodd" clip-rule="evenodd" d="M60 80L60 16L61 16L61 80L60 80Z" fill="#CCCCCC"/>
<path fill-rule="evenodd" clip-rule="evenodd" d="M123 80L123 16L124 16L124 80L123 80Z" fill="#CCCCCC"/>
<path fill-rule="evenodd" clip-rule="evenodd" d="M81 80L81 16L82 16L82 80L81 80Z" fill="#CCCCCC"/>
<rect x="124" y="57" width="20" height="7" fill="#FF6F3D"/>
<rect x="82" y="49" width="20" height="7" fill="#FF6F3D"/>
<rect x="61" y="57" width="20" height="7" fill="#FF6F3D"/>
<g filter="url(#filter0_d_26_409)">
<path d="M145.436 51.2147H145.18L144.996 51.4L138.137 58.3377L138.131 58.343C137.709 58.7809 137.084 59.0158 136.459 58.9992C135.836 58.9827 135.274 58.7203 134.932 58.2476L134.914 58.2239L134.895 58.2021L128.993 51.4295L128.806 51.2147H128.526H116.722C115.068 51.2147 114 50.1006 114 48.8914V19.4884C114 18.2737 115.233 17 116.881 17H171.278C172.933 17 174 18.1139 174 19.3233V48.8238C173.717 50.1403 172.554 51.2147 170.959 51.2147H145.436Z" fill="white" stroke="#808080"/>
<path d="M120.524 26.3349C120.524 25.5483 121.152 24.7619 122.095 24.7619H133.564C134.35 24.7619 135.136 25.3911 135.136 26.3349V37.6608C135.136 38.4473 134.507 39.2339 133.564 39.2339H122.095C121.309 39.2339 120.524 38.6047 120.524 37.6608V26.3349Z" fill="#FF6F3D"/>
<path d="M163.236 28H140.764C140.306 28 140 27.6 140 27C140 26.4 140.306 26 140.764 26H163.236C163.694 26 164 26.4 164 27C164 27.6 163.694 28 163.236 28Z" fill="#808080"/>
<path d="M163.236 33H140.764C140.306 33 140 32.6 140 32C140 31.4 140.306 31 140.764 31H163.236C163.694 31 164 31.4 164 32C164 32.6 163.694 33 163.236 33Z" fill="#808080"/>
<path d="M163.236 38H140.764C140.306 38 140 37.6 140 37C140 36.4 140.306 36 140.764 36H163.236C163.694 36 164 36.4 164 37C164 37.6 163.694 38 163.236 38Z" fill="#808080"/>
<path d="M155.564 43H141.103C140.641 43 140.333 42.6 140.333 42C140.333 41.4 140.641 41 141.103 41H155.564C156.026 41 156.333 41.4 156.333 42C156.333 42.6 155.872 43 155.564 43Z" fill="#808080"/>
</g>
<rect x="9.5" y="27.5" width="62" height="31" fill="white"/>
<path d="M24.5156 49.5H17.9375V38.0781H24.5156V40.0625H20.3594V42.5703H24.2266V44.5547H20.3594V47.5H24.5156V49.5ZM31.2738 40.6016C31.5967 40.6016 31.8649 40.625 32.0784 40.6719L31.8988 42.9062C31.706 42.8542 31.4717 42.8281 31.1956 42.8281C30.4352 42.8281 29.8415 43.0234 29.4144 43.4141C28.9925 43.8047 28.7816 44.3516 28.7816 45.0547V49.5H26.3988V40.7656H28.2034L28.555 42.2344H28.6722C28.943 41.7448 29.3076 41.3516 29.7659 41.0547C30.2295 40.7526 30.7321 40.6016 31.2738 40.6016ZM38.2194 40.6016C38.5423 40.6016 38.8105 40.625 39.0241 40.6719L38.8444 42.9062C38.6517 42.8542 38.4173 42.8281 38.1412 42.8281C37.3808 42.8281 36.7871 43.0234 36.36 43.4141C35.9381 43.8047 35.7272 44.3516 35.7272 45.0547V49.5H33.3444V40.7656H35.1491L35.5006 42.2344H35.6178C35.8886 41.7448 36.2532 41.3516 36.7116 41.0547C37.1751 40.7526 37.6777 40.6016 38.2194 40.6016ZM42.1884 45.1172C42.1884 45.9818 42.3291 46.6354 42.6103 47.0781C42.8968 47.5208 43.3603 47.7422 44.0009 47.7422C44.6364 47.7422 45.0921 47.5234 45.3681 47.0859C45.6494 46.6432 45.79 45.987 45.79 45.1172C45.79 44.2526 45.6494 43.6042 45.3681 43.1719C45.0869 42.7396 44.6259 42.5234 43.9853 42.5234C43.3499 42.5234 42.8916 42.7396 42.6103 43.1719C42.3291 43.599 42.1884 44.2474 42.1884 45.1172ZM48.2275 45.1172C48.2275 46.5391 47.8525 47.651 47.1025 48.4531C46.3525 49.2552 45.3082 49.6562 43.9697 49.6562C43.1311 49.6562 42.3916 49.474 41.7509 49.1094C41.1103 48.7396 40.6181 48.2109 40.2744 47.5234C39.9306 46.8359 39.7588 46.0339 39.7588 45.1172C39.7588 43.6901 40.1311 42.5807 40.8759 41.7891C41.6207 40.9974 42.6676 40.6016 44.0166 40.6016C44.8551 40.6016 45.5947 40.7839 46.2353 41.1484C46.8759 41.513 47.3681 42.0365 47.7119 42.7188C48.0556 43.401 48.2275 44.2005 48.2275 45.1172ZM54.7513 40.6016C55.0742 40.6016 55.3424 40.625 55.5559 40.6719L55.3763 42.9062C55.1835 42.8542 54.9492 42.8281 54.6731 42.8281C53.9127 42.8281 53.319 43.0234 52.8919 43.4141C52.47 43.8047 52.2591 44.3516 52.2591 45.0547V49.5H49.8763V40.7656H51.6809L52.0325 42.2344H52.1497C52.4205 41.7448 52.7851 41.3516 53.2434 41.0547C53.707 40.7526 54.2096 40.6016 54.7513 40.6016ZM62.9156 46.9062C62.9156 47.8021 62.6031 48.4844 61.9781 48.9531C61.3583 49.4219 60.4286 49.6562 59.1891 49.6562C58.5536 49.6562 58.012 49.612 57.5641 49.5234C57.1161 49.4401 56.6969 49.3151 56.3063 49.1484V47.1797C56.749 47.388 57.2464 47.5625 57.7984 47.7031C58.3557 47.8438 58.8453 47.9141 59.2672 47.9141C60.1318 47.9141 60.5641 47.6641 60.5641 47.1641C60.5641 46.9766 60.5068 46.8255 60.3922 46.7109C60.2776 46.5911 60.0797 46.4583 59.7984 46.3125C59.5172 46.1615 59.1422 45.987 58.6734 45.7891C58.0016 45.5078 57.5068 45.2474 57.1891 45.0078C56.8766 44.7682 56.6474 44.4948 56.5016 44.1875C56.3609 43.875 56.2906 43.4922 56.2906 43.0391C56.2906 42.263 56.5901 41.6641 57.1891 41.2422C57.7932 40.8151 58.6474 40.6016 59.7516 40.6016C60.8036 40.6016 61.8271 40.8307 62.8219 41.2891L62.1031 43.0078C61.6656 42.8203 61.2568 42.6667 60.8766 42.5469C60.4964 42.4271 60.1083 42.3672 59.7125 42.3672C59.0094 42.3672 58.6578 42.5573 58.6578 42.9375C58.6578 43.151 58.7698 43.3359 58.9938 43.4922C59.2229 43.6484 59.7203 43.8802 60.4859 44.1875C61.1682 44.4635 61.6682 44.7214 61.9859 44.9609C62.3036 45.2005 62.538 45.4766 62.6891 45.7891C62.8401 46.1016 62.9156 46.474 62.9156 46.9062Z" fill="#333333"/>
<rect x="9.5" y="27.5" width="62" height="31" stroke="#444444"/>
<circle cx="9.5" cy="58.5" r="1.5" fill="#444444"/>
<circle cx="9.5" cy="27.5" r="1.5" fill="#444444"/>
<circle cx="71.5" cy="58.5" r="1.5" fill="#444444"/>
<circle cx="71.5" cy="27.5" r="1.5" fill="#444444"/>
</g>
<defs>
<filter id="filter0_d_26_409" x="98.5" y="8.5" width="91" height="73" filterUnits="userSpaceOnUse" color-interpolation-filters="sRGB">
<feFlood flood-opacity="0" result="BackgroundImageFix"/>
<feColorMatrix in="SourceAlpha" type="matrix" values="0 0 0 0 0 0 0 0 0 0 0 0 0 0 0 0 0 0 127 0" result="hardAlpha"/>
<feOffset dy="7"/>
<feGaussianBlur stdDeviation="7.5"/>
<feColorMatrix type="matrix" values="0 0 0 0 0.333333 0 0 0 0 0.333333 0 0 0 0 0.333333 0 0 0 0.1 0"/>
<feBlend mode="normal" in2="BackgroundImageFix" result="effect1_dropShadow_26_409"/>
<feBlend mode="normal" in="SourceGraphic" in2="effect1_dropShadow_26_409" result="shape"/>
</filter>
<clipPath id="clip0_26_409">
<rect width="206" height="80" fill="white"/>
</clipPath>
</defs>
</svg>
