<svg width="168" height="80" viewBox="0 0 168 80" fill="none" xmlns="http://www.w3.org/2000/svg">
<g clip-path="url(#clip0_3_40)">
<mask id="mask0_3_40" style="mask-type:luminance" maskUnits="userSpaceOnUse" x="0" y="0" width="168" height="80">
<path d="M168 0H0V80H168V0Z" fill="white"/>
</mask>
<g mask="url(#mask0_3_40)">
<path d="M168 0H0V80H168V0Z" fill="white"/>
<path d="M0.5 3C0.5 1.61929 1.61929 0.5 3 0.5H165C166.381 0.5 167.5 1.61929 167.5 3V77C167.5 78.3807 166.381 79.5 165 79.5H3C1.61929 79.5 0.5 78.3807 0.5 77V3Z" fill="white" stroke="#CCCCCC"/>
<path d="M1 16H167V9H1V16Z" fill="#F2F2F2"/>
<path d="M1 3C1 1.89543 1.89543 1 3 1H165C166.105 1 167 1.89543 167 3V9H1V3Z" fill="#51845F"/>
<path fill-rule="evenodd" clip-rule="evenodd" d="M167 33H1V32H167V33Z" fill="#CCCCCC"/>
<path fill-rule="evenodd" clip-rule="evenodd" d="M167 73H1V72H167V73Z" fill="#CCCCCC"/>
<path fill-rule="evenodd" clip-rule="evenodd" d="M167 49H1V48H167V49Z" fill="#CCCCCC"/>
<path fill-rule="evenodd" clip-rule="evenodd" d="M167 25H1V24H167V25Z" fill="#CCCCCC"/>
<path fill-rule="evenodd" clip-rule="evenodd" d="M167 65H1V64H167V65Z" fill="#CCCCCC"/>
<path fill-rule="evenodd" clip-rule="evenodd" d="M167 41H1V40H167V41Z" fill="#CCCCCC"/>
<path fill-rule="evenodd" clip-rule="evenodd" d="M167 57H1V56H167V57Z" fill="#CCCCCC"/>
<path fill-rule="evenodd" clip-rule="evenodd" d="M167 17H1V16H167V17Z" fill="#CCCCCC"/>
<path fill-rule="evenodd" clip-rule="evenodd" d="M124 80V16H125V80H124Z" fill="#CCCCCC"/>
<path fill-rule="evenodd" clip-rule="evenodd" d="M19 80V16H20V80H19Z" fill="#CCCCCC"/>
<path fill-rule="evenodd" clip-rule="evenodd" d="M82 80V16H83V80H82Z" fill="#CCCCCC"/>
<path fill-rule="evenodd" clip-rule="evenodd" d="M145 80V16H146V80H145Z" fill="#CCCCCC"/>
<path fill-rule="evenodd" clip-rule="evenodd" d="M40 80V16H41V80H40Z" fill="#CCCCCC"/>
<path fill-rule="evenodd" clip-rule="evenodd" d="M103 80V16H104V80H103Z" fill="#CCCCCC"/>
<path fill-rule="evenodd" clip-rule="evenodd" d="M61 80V16H62V80H61Z" fill="#CCCCCC"/>
<g filter="url(#filter0_d_3_40)">
<path d="M101.508 39.8165H101.304L101.158 39.959L95.7012 45.2952L95.697 45.2993C95.3607 45.6361 94.864 45.8168 94.3663 45.804C93.8706 45.7913 93.4239 45.5895 93.1514 45.2259L93.1378 45.2077L93.1227 45.1909L88.4272 39.9817L88.2783 39.8165H88.0558H78.665C77.3493 39.8165 76.5 38.9596 76.5 38.0295V15.414C76.5 14.4797 77.481 13.5 78.7919 13.5H122.066C123.382 13.5 124.231 14.3568 124.231 15.287V37.9775C124.006 38.9901 123.081 39.8165 121.812 39.8165H101.508Z" fill="white" stroke="#808080"/>
<path d="M82 21.2703C82 20.635 82.5076 19.9998 83.269 19.9998H92.533C93.1675 19.9998 93.802 20.508 93.802 21.2703V30.4181C93.802 31.0534 93.2944 31.6887 92.533 31.6887H83.269C82.6345 31.6887 82 31.1805 82 30.4181V21.2703Z" fill="#FF3D3D"/>
<path d="M117.363 21.9998H98.6369C98.2548 21.9998 98 21.7998 98 21.4998C98 21.1998 98.2548 20.9998 98.6369 20.9998H117.363C117.745 20.9998 118 21.1998 118 21.4998C118 21.7998 117.745 21.9998 117.363 21.9998Z" fill="#808080"/>
<path d="M117.363 24.9998H98.6369C98.2548 24.9998 98 24.7998 98 24.4998C98 24.1998 98.2548 23.9998 98.6369 23.9998H117.363C117.745 23.9998 118 24.1998 118 24.4998C118 24.7998 117.745 24.9998 117.363 24.9998Z" fill="#808080"/>
<path d="M117.363 27.9998H98.6369C98.2548 27.9998 98 27.7998 98 27.4998C98 27.1998 98.2548 26.9998 98.6369 26.9998H117.363C117.745 26.9998 118 27.1998 118 27.4998C118 27.7998 117.745 27.9998 117.363 27.9998Z" fill="#808080"/>
<path d="M110.563 30.9998H98.6345C98.2538 30.9998 98 30.7998 98 30.4998C98 30.1998 98.2538 29.9998 98.6345 29.9998H110.563C110.944 29.9998 111.198 30.1998 111.198 30.4998C111.198 30.7998 110.817 30.9998 110.563 30.9998Z" fill="#808080"/>
</g>
</g>
<rect x="19.5" y="35.5" width="53" height="17" rx="2.5" fill="white" stroke="#CCCCCC"/>
<path d="M31.5391 42.6504H30.3789L29.9453 44.7832H31.0586V45.6504H29.7637L29.2832 48H28.3984L28.8789 45.6504H27.0039L26.5234 48H25.6387L26.1133 45.6504H25.1348V44.7832H26.2949L26.7285 42.6504H25.6094V41.7832H26.9102L27.3906 39.4102H28.2754L27.7949 41.7832H29.6699L30.1504 39.4102H31.0352L30.5547 41.7832H31.5391V42.6504ZM29.4883 42.6504H27.6133L27.1855 44.7832H29.0547L29.4883 42.6504ZM32.6406 39.4102H35.3652C38.2832 39.4102 39.7422 40.8262 39.7422 43.6582C39.7422 46.5527 38.2832 48 35.3652 48H32.6406V39.4102ZM33.7773 46.9805H35.3418C36.5879 46.9805 37.4375 46.6914 37.8906 46.1133C38.3438 45.5312 38.5703 44.7129 38.5703 43.6582C38.5703 42.6309 38.3438 41.8359 37.8906 41.2734C37.4414 40.7109 36.5918 40.4297 35.3418 40.4297H33.7773V46.9805ZM42.5957 48H41.4531V39.4102H42.5957V48ZM51.6133 39.4102L48.2734 48H47.1016L43.7617 39.4102H44.9746L47.6875 46.7754L50.4004 39.4102H51.6133ZM55.0293 39.4102L52.5449 48H51.6953L54.1797 39.4102H55.0293ZM58.3691 39.2637C60.2363 39.2637 61.1699 40.748 61.1699 43.7168C61.1699 46.6699 60.2363 48.1465 58.3691 48.1465C56.5059 48.1465 55.5742 46.6699 55.5742 43.7168C55.5742 40.748 56.5059 39.2637 58.3691 39.2637ZM58.3691 47.2793C58.9121 47.2793 59.3242 47.0176 59.6055 46.4941C59.8867 45.9707 60.0273 45.0449 60.0273 43.7168C60.0273 42.3848 59.8867 41.4551 59.6055 40.9277C59.3242 40.3965 58.9121 40.1309 58.3691 40.1309C57.8301 40.1309 57.4199 40.3965 57.1387 40.9277C56.8574 41.4551 56.7168 42.3848 56.7168 43.7168C56.7168 45.0449 56.8574 45.9707 57.1387 46.4941C57.4199 47.0176 57.8301 47.2793 58.3691 47.2793ZM63.9824 48H62.7812V46.7988H63.9824V48ZM63.9824 41.2676L63.7539 45.8613H63.0098L62.7812 41.2676V39.4102H63.9824V41.2676Z" fill="black"/>
</g>
<defs>
<filter id="filter0_d_3_40" x="61" y="5" width="78.731" height="63.3046" filterUnits="userSpaceOnUse" color-interpolation-filters="sRGB">
<feFlood flood-opacity="0" result="BackgroundImageFix"/>
<feColorMatrix in="SourceAlpha" type="matrix" values="0 0 0 0 0 0 0 0 0 0 0 0 0 0 0 0 0 0 127 0" result="hardAlpha"/>
<feOffset dy="7"/>
<feGaussianBlur stdDeviation="7.5"/>
<feColorMatrix type="matrix" values="0 0 0 0 0.333333 0 0 0 0 0.333333 0 0 0 0 0.333333 0 0 0 0.1 0"/>
<feBlend mode="normal" in2="BackgroundImageFix" result="effect1_dropShadow_3_40"/>
<feBlend mode="normal" in="SourceGraphic" in2="effect1_dropShadow_3_40" result="shape"/>
</filter>
<clipPath id="clip0_3_40">
<rect width="168" height="80" fill="white"/>
</clipPath>
</defs>
</svg>
