<svg width="206" height="80" viewBox="0 0 206 80" fill="none" xmlns="http://www.w3.org/2000/svg">
<path d="M19.5 2.53165C19.5 1.40648 20.4052 0.5 21.515 0.5H184.485C185.595 0.5 186.5 1.40644 186.5 2.53165V77.4684C186.5 78.5936 185.595 79.5 184.485 79.5H21.515C20.4052 79.5 19.5 78.5935 19.5 77.4684V2.53165Z" fill="#EFEFEF" stroke="#CCCCCC"/>
<path d="M53.5 75.5V21.5H172.5V75.5H53.5Z" fill="white" stroke="#CCCCCC"/>
<path d="M20 17H53V79H24.4C21.9699 79 20 78.1046 20 77V17Z" fill="#F5F5F5"/>
<path d="M20 2C20 1.44772 20.4477 1 21 1H185C185.552 1 186 1.44772 186 2V9H20V2Z" fill="#BE664F"/>
<path fill-rule="evenodd" clip-rule="evenodd" d="M186 17H19V16H186V17Z" fill="#CCCCCC"/>
<path fill-rule="evenodd" clip-rule="evenodd" d="M54 16V79H53V16H54Z" fill="#CCCCCC"/>
<path d="M144.201 32.7422L143.445 30.75L142.725 32.7422H144.201ZM145.508 34.5H144.866L144.368 33.1934H142.569L142.095 34.5H141.494L143.144 30.2051H143.756L145.508 34.5Z" fill="white"/>
<path d="M22.5 33.5V19.5H50.5V33.5H22.5Z" fill="white" stroke="#CCCCCC"/>
<path d="M26 31L28.1786 26.7805C28.5376 26.0852 29.52 26.053 29.9238 26.7233L31.8403 29.9049C32.1756 30.4615 32.9445 30.5555 33.404 30.096L35.8543 27.6457C36.22 27.28 36.8042 27.2535 37.2016 27.5846L38.6194 28.7661C39.0851 29.1542 39.7862 29.042 40.1076 28.5279L41.3924 26.4721C41.7138 25.958 42.4149 25.8458 42.8806 26.2339L43.9834 27.1529C44.4933 27.5777 45.2679 27.3972 45.5374 26.7908L47 23.5" stroke="#CCCCCC" stroke-linecap="round"/>
<path d="M27 31C27 30.4481 26.5519 30 26 30C25.4466 30 25 30.4482 25 31C25 31.552 25.448 32 26 32C26.5519 32 27 31.552 27 31Z" fill="#AAAAAA"/>
<path d="M30 26C30 25.448 29.552 25 29 25C28.4466 25 28 25.4482 28 26C28 26.552 28.448 27 29 27C29.552 27 30 26.552 30 26Z" fill="#AAAAAA"/>
<path d="M37.6666 27.6667C37.6666 28.2187 37.2186 28.6667 36.6666 28.6667C36.1132 28.6667 35.6666 28.2185 35.6666 27.6667C35.6666 27.1147 36.1147 26.6667 36.6666 26.6667C37.2186 26.6667 37.6666 27.1147 37.6666 27.6667Z" fill="#AAAAAA"/>
<path d="M40.6666 29.3333C40.6666 29.8853 40.2186 30.3333 39.6666 30.3333C39.1132 30.3333 38.6666 29.8851 38.6666 29.3333C38.6666 28.7813 39.1147 28.3333 39.6666 28.3333C40.2186 28.3333 40.6666 28.7813 40.6666 29.3333Z" fill="#AAAAAA"/>
<path d="M43 26C43 26.552 42.552 27 42 27C41.4467 27 41 26.5518 41 26C41 25.448 41.448 25 42 25C42.552 25 43 25.448 43 26Z" fill="#AAAAAA"/>
<path d="M46 28C46 28.552 45.552 29 45 29C44.4467 29 44 28.5518 44 28C44 27.448 44.448 27 45 27C45.552 27 46 27.448 46 28Z" fill="#AAAAAA"/>
<path d="M48 23C48 23.552 47.552 24 47 24C46.4467 24 46 23.5518 46 23C46 22.448 46.448 22 47 22C47.552 22 48 22.448 48 23Z" fill="#AAAAAA"/>
<path d="M34 31C34 31.552 33.552 32 33 32C32.4466 32 32 31.5518 32 31C32 30.448 32.448 30 33 30C33.552 30 34 30.448 34 31Z" fill="#AAAAAA"/>
<path d="M60.5 32C60.5 31.7239 60.7239 31.5 61 31.5H87C87.2761 31.5 87.5 31.7239 87.5 32C87.5 32.2761 87.2761 32.5 87 32.5H61C60.7239 32.5 60.5 32.2761 60.5 32Z" stroke="#EFEFEF" stroke-width="3"/>
<mask id="path-19-inside-1_32_2" fill="white">
<path d="M59 40.5C59 39.9477 59.4477 39.5 60 39.5H88C88.5523 39.5 89 39.9477 89 40.5C89 41.0523 88.5523 41.5 88 41.5H60C59.4477 41.5 59 41.0523 59 40.5Z"/>
</mask>
<path d="M60 41.5H88V37.5H60V41.5ZM88 39.5H60V43.5H88V39.5ZM60 39.5C60.5523 39.5 61 39.9477 61 40.5H57C57 42.1569 58.3431 43.5 60 43.5V39.5ZM87 40.5C87 39.9477 87.4477 39.5 88 39.5V43.5C89.6569 43.5 91 42.1569 91 40.5H87ZM88 41.5C87.4477 41.5 87 41.0523 87 40.5H91C91 38.8431 89.6569 37.5 88 37.5V41.5ZM60 37.5C58.3431 37.5 57 38.8431 57 40.5H61C61 41.0523 60.5523 41.5 60 41.5V37.5Z" fill="#EFEFEF" mask="url(#path-19-inside-1_32_2)"/>
<mask id="path-21-inside-2_32_2" fill="white">
<path d="M59 47.5C59 46.9477 59.4477 46.5 60 46.5H88C88.5523 46.5 89 46.9477 89 47.5C89 48.0523 88.5523 48.5 88 48.5H60C59.4477 48.5 59 48.0523 59 47.5Z"/>
</mask>
<path d="M60 48.5H88V44.5H60V48.5ZM88 46.5H60V50.5H88V46.5ZM60 46.5C60.5523 46.5 61 46.9477 61 47.5H57C57 49.1569 58.3431 50.5 60 50.5V46.5ZM87 47.5C87 46.9477 87.4477 46.5 88 46.5V50.5C89.6569 50.5 91 49.1569 91 47.5H87ZM88 48.5C87.4477 48.5 87 48.0523 87 47.5H91C91 45.8431 89.6569 44.5 88 44.5V48.5ZM60 44.5C58.3431 44.5 57 45.8431 57 47.5H61C61 48.0523 60.5523 48.5 60 48.5V44.5Z" fill="#EFEFEF" mask="url(#path-21-inside-2_32_2)"/>
<mask id="path-23-inside-3_32_2" fill="white">
<path d="M59 54.5C59 53.9477 59.4477 53.5 60 53.5H88C88.5523 53.5 89 53.9477 89 54.5C89 55.0523 88.5523 55.5 88 55.5H60C59.4477 55.5 59 55.0523 59 54.5Z"/>
</mask>
<path d="M60 55.5H88V51.5H60V55.5ZM88 53.5H60V57.5H88V53.5ZM60 53.5C60.5523 53.5 61 53.9477 61 54.5H57C57 56.1569 58.3431 57.5 60 57.5V53.5ZM87 54.5C87 53.9477 87.4477 53.5 88 53.5V57.5C89.6569 57.5 91 56.1569 91 54.5H87ZM88 55.5C87.4477 55.5 87 55.0523 87 54.5H91C91 52.8431 89.6569 51.5 88 51.5V55.5ZM60 51.5C58.3431 51.5 57 52.8431 57 54.5H61C61 55.0523 60.5523 55.5 60 55.5V51.5Z" fill="#EFEFEF" mask="url(#path-23-inside-3_32_2)"/>
<mask id="path-25-inside-4_32_2" fill="white">
<path d="M59 61.5C59 60.9477 59.4477 60.5 60 60.5H88C88.5523 60.5 89 60.9477 89 61.5C89 62.0523 88.5523 62.5 88 62.5H60C59.4477 62.5 59 62.0523 59 61.5Z"/>
</mask>
<path d="M60 62.5H88V58.5H60V62.5ZM88 60.5H60V64.5H88V60.5ZM60 60.5C60.5523 60.5 61 60.9477 61 61.5H57C57 63.1569 58.3431 64.5 60 64.5V60.5ZM87 61.5C87 60.9477 87.4477 60.5 88 60.5V64.5C89.6569 64.5 91 63.1569 91 61.5H87ZM88 62.5C87.4477 62.5 87 62.0523 87 61.5H91C91 59.8431 89.6569 58.5 88 58.5V62.5ZM60 58.5C58.3431 58.5 57 59.8431 57 61.5H61C61 62.0523 60.5523 62.5 60 62.5V58.5Z" fill="#EFEFEF" mask="url(#path-25-inside-4_32_2)"/>
<mask id="path-27-inside-5_32_2" fill="white">
<path d="M178 17H186V78C186 78.5523 185.552 79 185 79H178V17Z"/>
</mask>
<path d="M178 17H186V78C186 78.5523 185.552 79 185 79H178V17Z" fill="#F5F5F5"/>
<path d="M178 17H186H178ZM186 79H178H186ZM177 79V17H179V79H177ZM186 17V79V17Z" fill="#CCCCCC" mask="url(#path-27-inside-5_32_2)"/>
<rect x="99.5" y="21.5" width="80" height="55" fill="white" stroke="#444444"/>
<path fill-rule="evenodd" clip-rule="evenodd" d="M109 64C109.552 64 110 64.316 110 64.7059V69.2941C110 69.684 109.552 70 109 70C108.448 70 108 69.684 108 69.2941V64.7059C108 64.316 108.448 64 109 64Z" fill="#AAAAAA"/>
<path fill-rule="evenodd" clip-rule="evenodd" d="M114 54C114.552 54 115 54.3332 115 54.7442V69.2558C115 69.6668 114.552 70 114 70C113.448 70 113 69.6668 113 69.2558V54.7442C113 54.3332 113.448 54 114 54Z" fill="#AAAAAA"/>
<path fill-rule="evenodd" clip-rule="evenodd" d="M119 62C119.552 62 120 62.3602 120 62.8045V69.1955C120 69.6398 119.552 70 119 70C118.448 70 118 69.6398 118 69.1955V62.8045C118 62.3602 118.448 62 119 62Z" fill="#AAAAAA"/>
<path fill-rule="evenodd" clip-rule="evenodd" d="M124 58C123.448 58 123 58.3417 123 58.7633V69.2368C123 69.6583 123.448 70 124 70C124.552 70 125 69.6583 125 69.2368V58.7633C125 58.3417 124.552 58 124 58Z" fill="#AAAAAA"/>
<path fill-rule="evenodd" clip-rule="evenodd" d="M129 62C128.448 62 128 62.3475 128 62.7763V69.2237C128 69.6525 128.448 70 129 70C129.552 70 130 69.6525 130 69.2237V62.7763C130 62.3475 129.552 62 129 62Z" fill="#AAAAAA"/>
<path fill-rule="evenodd" clip-rule="evenodd" d="M134 66C134.552 66 135 66.3411 135 66.7619V69.2381C135 69.6589 134.552 70 134 70C133.448 70 133 69.6589 133 69.2381V66.7619C133 66.3411 133.448 66 134 66Z" fill="#AAAAAA"/>
<path fill-rule="evenodd" clip-rule="evenodd" d="M139 64C139.552 64 140 64.316 140 64.7059V69.2941C140 69.684 139.552 70 139 70C138.448 70 138 69.684 138 69.2941V64.7059C138 64.316 138.448 64 139 64Z" fill="#AAAAAA"/>
<path fill-rule="evenodd" clip-rule="evenodd" d="M144 60C143.448 60 143 60.3393 143 60.7579V69.2421C143 69.6607 143.448 70 144 70C144.552 70 145 69.6607 145 69.2421V60.7579C145 60.3393 144.552 60 144 60Z" fill="#AAAAAA"/>
<path fill-rule="evenodd" clip-rule="evenodd" d="M149 62C148.448 62 148 62.3602 148 62.8045V69.1955C148 69.6398 148.448 70 149 70C149.552 70 150 69.6398 150 69.1955V62.8045C150 62.3602 149.552 62 149 62Z" fill="#AAAAAA"/>
<path fill-rule="evenodd" clip-rule="evenodd" d="M154 65C153.448 65 153 65.3173 153 65.7087V69.2913C153 69.6827 153.448 70 154 70C154.552 70 155 69.6827 155 69.2913V65.7087C155 65.3173 154.552 65 154 65Z" fill="#AAAAAA"/>
<path fill-rule="evenodd" clip-rule="evenodd" d="M159 61C159.552 61 160 61.3231 160 61.7216V69.2784C160 69.6769 159.552 70 159 70C158.448 70 158 69.6769 158 69.2784V61.7216C158 61.3231 158.448 61 159 61Z" fill="#AAAAAA"/>
<path fill-rule="evenodd" clip-rule="evenodd" d="M164 59C164.552 59 165 59.3283 165 59.7333V69.2667C165 69.6717 164.552 70 164 70C163.448 70 163 69.6717 163 69.2667V59.7333C163 59.3283 163.448 59 164 59Z" fill="#AAAAAA"/>
<path fill-rule="evenodd" clip-rule="evenodd" d="M169 63C169.552 63 170 63.3398 170 63.759V69.241C170 69.6602 169.552 70 169 70C168.448 70 168 69.6602 168 69.241V63.759C168 63.3398 168.448 63 169 63Z" fill="#AAAAAA"/>
<path fill-rule="evenodd" clip-rule="evenodd" d="M174 61C174.552 61 175 61.3231 175 61.7216V69.2784C175 69.6769 174.552 70 174 70C173.448 70 173 69.6769 173 69.2784V61.7216C173 61.3231 173.448 61 174 61Z" fill="#AAAAAA"/>
<circle cx="99.5" cy="76.5" r="1.5" fill="#444444"/>
<circle cx="179.5" cy="76.5" r="1.5" fill="#444444"/>
<circle cx="99.5" cy="21.5" r="1.5" fill="#444444"/>
<circle cx="179.5" cy="21.5" r="1.5" fill="#444444"/>
<path d="M109 50L118.324 35.1044C118.717 34.4773 119.631 34.4788 120.021 35.1073L127.427 47.0275C127.774 47.5859 128.556 47.6634 129.005 47.1841L137.266 38.3818C137.589 38.0378 138.108 37.9662 138.512 38.21L146.031 42.7489C146.451 43.002 146.992 42.9141 147.309 42.5413L154.55 34.0431C154.903 33.6281 155.524 33.5728 155.946 33.919L161.931 38.8362C162.41 39.23 163.129 39.0968 163.435 38.5574L170 27" stroke="url(#paint0_linear_32_2)" stroke-width="2" stroke-linecap="round"/>
<path d="M111 50C111 48.8961 110.104 48 109 48C107.893 48 107 48.8965 107 50C107 51.1039 107.896 52 109 52C110.104 52 111 51.1039 111 50Z" fill="#333333"/>
<path d="M121 34C121 32.8961 120.104 32 119 32C117.893 32 117 32.8965 117 34C117 35.1039 117.896 36 119 36C120.104 36 121 35.1039 121 34Z" fill="#333333"/>
<path d="M140 38C140 39.1039 139.104 40 138 40C136.893 40 136 39.1035 136 38C136 36.8961 136.896 36 138 36C139.104 36 140 36.8961 140 38Z" fill="#333333"/>
<path d="M149 43C149 44.1039 148.104 45 147 45C145.893 45 145 44.1035 145 43C145 41.8961 145.896 41 147 41C148.104 41 149 41.8961 149 43Z" fill="#333333"/>
<path d="M157 34C157 35.1039 156.104 36 155 36C153.893 36 153 35.1035 153 34C153 32.8961 153.896 32 155 32C156.104 32 157 32.8961 157 34Z" fill="#333333"/>
<path d="M165 39C165 40.1039 164.104 41 163 41C161.893 41 161 40.1035 161 39C161 37.8961 161.896 37 163 37C164.104 37 165 37.8961 165 39Z" fill="#333333"/>
<path d="M172 27C172 28.1039 171.104 29 170 29C168.893 29 168 28.1035 168 27C168 25.8961 168.896 25 170 25C171.104 25 172 25.8961 172 27Z" fill="#333333"/>
<path d="M130 48C130 49.1039 129.104 50 128 50C126.893 50 126 49.1035 126 48C126 46.8961 126.896 46 128 46C129.104 46 130 46.8961 130 48Z" fill="#333333"/>
<defs>
<linearGradient id="paint0_linear_32_2" x1="109" y1="26.1015" x2="123.761" y2="66.779" gradientUnits="userSpaceOnUse">
<stop stop-color="#FFC671"/>
<stop offset="0.59375" stop-color="#FF7541"/>
<stop offset="1" stop-color="#FF6F3D"/>
</linearGradient>
</defs>
</svg>
