<svg width="206" height="80" viewBox="0 0 206 80" fill="none" xmlns="http://www.w3.org/2000/svg">
<path d="M19.5 3C19.5 1.61929 20.6193 0.5 22 0.5H184C185.381 0.5 186.5 1.61929 186.5 3V77C186.5 78.3807 185.381 79.5 184 79.5H22C20.6193 79.5 19.5 78.3807 19.5 77V3Z" fill="#EFEFEF" stroke="#CCCCCC"/>
<path d="M39 19.5H38.5V20V79V79.5H39H168H168.5V79V20V19.5H168H39Z" fill="white" stroke="#CCCCCC"/>
<path d="M20 17H35V79H22C20.8954 79 20 78.1046 20 77V17Z" fill="#F5F5F5"/>
<path d="M186 17H171V79H184.015C185.111 79 186 77.8732 186 76.4832V17Z" fill="#F5F5F5"/>
<path d="M20 3C20 1.89543 20.8954 1 22 1H184C185.105 1 186 1.89543 186 3V9H20V3Z" fill="#446995"/>
<path fill-rule="evenodd" clip-rule="evenodd" d="M186 17H20V16H186V17Z" fill="#CCCCCC"/>
<path fill-rule="evenodd" clip-rule="evenodd" d="M36 16V79H35V16H36Z" fill="#CCCCCC"/>
<path fill-rule="evenodd" clip-rule="evenodd" d="M172 17V79H171V17H172Z" fill="#CCCCCC"/>
<path d="M89.1632 72.5H55.8368C52.9102 72.5 50.5 70.0969 50.5 67.1875V33.8125C50.5 30.9031 52.9102 28.5 55.8368 28.5H89.1632C92.0898 28.5 94.5 30.9031 94.5 33.8125V67C94.5 70.1073 92.0795 72.5 89.1632 72.5Z" fill="#D9F4FF" stroke="#9ADAF3" stroke-miterlimit="10" stroke-linecap="round" stroke-linejoin="round"/>
<path fill-rule="evenodd" clip-rule="evenodd" d="M69 45C69 46.1046 68.1046 47 67 47C65.8954 47 65 46.1046 65 45C65 43.8954 65.8954 43 67 43C68.1046 43 69 43.8954 69 45ZM68 45C68 45.5523 67.5523 46 67 46C66.4477 46 66 45.5523 66 45C66 44.4477 66.4477 44 67 44C67.5523 44 68 44.4477 68 45Z" fill="#444444"/>
<path fill-rule="evenodd" clip-rule="evenodd" d="M63 40C62.4477 40 62 40.4477 62 41V59C62 59.5523 62.4477 60 63 60H81C81.5523 60 82 59.5523 82 59V41C82 40.4477 81.5523 40 81 40H63ZM81 41H63V55.2929L66.5 51.7928L68.5 53.7928L74.5 47.7928L81 54.2928V41ZM63 59V56.7071L66.5 53.2071L68.5 55.2071L74.5 49.2071L81 55.7071V59H63Z" fill="#444444"/>
<rect x="105.5" y="29.5" width="34" height="7" rx="1.5" fill="#D9F4FF" stroke="#9ADAF3"/>
<rect x="105.5" y="41.5" width="34" height="7" rx="1.5" fill="#D9F4FF" stroke="#9ADAF3"/>
<rect x="105.5" y="53.5" width="34" height="7" rx="1.5" fill="#D9F4FF" stroke="#9ADAF3"/>
<rect x="105.5" y="65.5" width="34" height="7" rx="1.5" fill="#D9F4FF" stroke="#9ADAF3"/>
<rect x="155" y="37" width="44" height="37" fill="#EFEFEF"/>
<rect width="44" height="20" transform="matrix(1 0 0 -1 155 37)" fill="#CCE9FF"/>
<rect x="155.5" y="16.5" width="43" height="57" stroke="#444444"/>
<circle cx="155.5" cy="16.5" r="1.5" fill="#444444"/>
<circle cx="155.5" cy="73.5" r="1.5" fill="#444444"/>
<circle cx="198.5" cy="16.5" r="1.5" fill="#444444"/>
<circle cx="198.5" cy="73.5" r="1.5" fill="#444444"/>
<path fill-rule="evenodd" clip-rule="evenodd" d="M185.273 9.24113C185.51 9.52544 185.471 9.94798 185.187 10.1849L182.561 12.373C182.277 12.6099 181.854 12.5715 181.617 12.2872C181.381 12.0029 181.419 11.5803 181.703 11.3434L184.329 9.15533C184.613 8.91841 185.036 8.95682 185.273 9.24113Z" fill="#333333"/>
<path fill-rule="evenodd" clip-rule="evenodd" d="M170.665 9.25613C170.436 9.54713 170.487 9.9684 170.778 10.197L176.905 15.0108C177.196 15.2395 177.617 15.1889 177.845 14.8979C178.074 14.6069 178.024 14.1857 177.733 13.957L171.606 9.14322C171.315 8.91457 170.894 8.96512 170.665 9.25613Z" fill="#333333"/>
<path d="M168.402 27.0928C168.402 26.3527 169.002 25.7526 169.742 25.7526H185.155C185.895 25.7526 186.495 26.3527 186.495 27.0928V43.1753C186.495 43.9155 185.895 44.5155 185.155 44.5155H169.742C169.002 44.5155 168.402 43.9155 168.402 43.1753V27.0928Z" fill="white"/>
<path d="M189.51 51.8866H164.716C164.161 51.8866 163.711 52.3366 163.711 52.8918C163.711 53.4469 164.161 53.8969 164.716 53.8969H189.51C190.065 53.8969 190.515 53.4469 190.515 52.8918C190.515 52.3366 190.065 51.8866 189.51 51.8866Z" fill="#333333"/>
<path d="M190.18 57.9175H164.046C163.861 57.9175 163.711 58.0675 163.711 58.2526C163.711 58.4376 163.861 58.5876 164.046 58.5876H190.18C190.365 58.5876 190.515 58.4376 190.515 58.2526C190.515 58.0675 190.365 57.9175 190.18 57.9175Z" fill="#333333"/>
<path d="M185.49 61.9381H168.737C168.552 61.9381 168.402 62.0881 168.402 62.2732C168.402 62.4582 168.552 62.6082 168.737 62.6082H185.49C185.675 62.6082 185.825 62.4582 185.825 62.2732C185.825 62.0881 185.675 61.9381 185.49 61.9381Z" fill="#333333"/>
<path fill-rule="evenodd" clip-rule="evenodd" d="M185.155 26.4227H169.072C168.702 26.4227 168.402 26.7227 168.402 27.0928V43.1753C168.402 43.5454 168.702 43.8454 169.072 43.8454H185.155C185.525 43.8454 185.825 43.5454 185.825 43.1753V27.0928C185.825 26.7227 185.525 26.4227 185.155 26.4227ZM169.072 25.7526C168.332 25.7526 167.732 26.3527 167.732 27.0928V43.1753C167.732 43.9155 168.332 44.5155 169.072 44.5155H185.155C185.895 44.5155 186.495 43.9155 186.495 43.1753V27.0928C186.495 26.3527 185.895 25.7526 185.155 25.7526H169.072Z" fill="#333333"/>
<path d="M155.67 36.4742H165.052V37.1443H155.67V36.4742Z" fill="#333333"/>
<path d="M189.175 36.4742H198.557V37.1443H189.175V36.4742Z" fill="#333333"/>
<path d="M177.113 39.8248C170.765 39.8248 169.072 43.8454 169.072 43.8454H185.155C185.155 43.8454 183.462 39.8248 177.113 39.8248Z" fill="url(#paint0_linear_56_105)"/>
<path d="M175.8 37.9102H178.426V40.8277L177.113 42.2864L175.8 40.8277V37.9102Z" fill="white"/>
<path d="M181.052 34.1494C181.052 36.5663 179.288 38.5256 177.113 38.5256C174.938 38.5256 173.175 36.5663 173.175 34.1494C173.175 31.7325 174.938 29.7733 177.113 29.7733C179.288 29.7733 181.052 31.7325 181.052 34.1494Z" fill="white"/>
<path fill-rule="evenodd" clip-rule="evenodd" d="M177.11 37.8145C179.034 37.8145 180.636 36.1881 180.636 34.1289C180.636 32.0697 179.034 30.4434 177.11 30.4434C175.186 30.4434 173.584 32.0697 173.584 34.1289C173.584 36.1881 175.186 37.8145 177.11 37.8145ZM177.11 38.4846C179.428 38.4846 181.307 36.5345 181.307 34.1289C181.307 31.7234 179.428 29.7733 177.11 29.7733C174.792 29.7733 172.914 31.7234 172.914 34.1289C172.914 36.5345 174.792 38.4846 177.11 38.4846Z" fill="#333333"/>
<path fill-rule="evenodd" clip-rule="evenodd" d="M177.18 30.9561C177.858 32.1186 178.806 32.8987 180.464 33.1238C180.092 31.4485 178.602 30.4434 177.18 30.4434C175.252 30.4434 173.763 31.7836 173.763 33.7939C175.514 33.5001 176.741 32.4537 177.18 30.9561Z" fill="#AAAAAA"/>
<path fill-rule="evenodd" clip-rule="evenodd" d="M176.719 30.4695C175.242 30.64 174.099 31.6309 173.825 33.1008C173.784 33.3214 173.763 33.5528 173.763 33.7939C173.997 33.7546 174.222 33.7018 174.437 33.6364C175.54 33.3 176.38 32.6273 176.87 31.7162C176.972 31.5256 177.059 31.3245 177.13 31.1138C177.148 31.0618 177.165 31.0093 177.18 30.9561C177.212 31.01 177.244 31.0631 177.276 31.1154C177.392 31.3004 177.515 31.4749 177.648 31.6381C178.16 32.2651 178.817 32.7254 179.728 32.9757C179.957 33.0385 180.201 33.0881 180.464 33.1238C180.407 32.8677 180.324 32.6273 180.219 32.4038C179.714 31.3259 178.7 30.6398 177.651 30.4795C177.494 30.4556 177.337 30.4434 177.18 30.4434C177.023 30.4434 176.87 30.4522 176.719 30.4695ZM177.318 32.2796C177.541 32.5231 177.79 32.7453 178.072 32.9413C178.701 33.3794 179.456 33.6632 180.374 33.7878C180.591 33.8173 180.809 33.7387 180.957 33.5774C181.106 33.416 181.166 33.1924 181.118 32.9784C180.673 30.9761 178.895 29.7733 177.18 29.7733C174.911 29.7733 173.093 31.3854 173.093 33.7939C173.093 33.991 173.18 34.1781 173.33 34.3054C173.48 34.4327 173.679 34.4873 173.874 34.4547C175.391 34.2003 176.602 33.4285 177.318 32.2796Z" fill="#333333"/>
<path fill-rule="evenodd" clip-rule="evenodd" d="M178.761 40.5392C178.762 40.6108 178.74 40.6832 178.694 40.7449L177.495 42.3422C177.434 42.4228 177.341 42.4719 177.24 42.4759C177.14 42.4799 177.042 42.4384 176.976 42.3629L175.598 40.8032C175.517 40.742 175.465 40.6451 175.465 40.5359V40.5277C175.465 40.5266 175.465 40.5255 175.465 40.5244V38.0656C175.465 37.8806 175.615 37.7306 175.8 37.7306C175.985 37.7306 176.135 37.8806 176.135 38.0656V40.3991L177.206 41.6111L178.091 40.432V38.0656C178.091 37.8806 178.241 37.7306 178.426 37.7306C178.611 37.7306 178.761 37.8806 178.761 38.0656V40.5359C178.761 40.537 178.761 40.5381 178.761 40.5392Z" fill="#333333"/>
<defs>
<linearGradient id="paint0_linear_56_105" x1="177.113" y1="39.8248" x2="177.113" y2="43.8454" gradientUnits="userSpaceOnUse">
<stop stop-color="#FF8E3D"/>
<stop offset="1" stop-color="#FF6F3D"/>
</linearGradient>
</defs>
</svg>
