<svg width="206" height="80" viewBox="0 0 206 80" fill="none" xmlns="http://www.w3.org/2000/svg">
<path d="M19.5 3C19.5 1.61929 20.6193 0.5 22 0.5H184C185.381 0.5 186.5 1.61929 186.5 3V77C186.5 78.3807 185.381 79.5 184 79.5H22C20.6193 79.5 19.5 78.3807 19.5 77V3Z" fill="#EFEFEF" stroke="#CCCCCC"/>
<path d="M39 19.5H38.5V20V79V79.5H39H168H168.5V79V20V19.5H168H39Z" fill="white" stroke="#CCCCCC"/>
<path d="M20 17H35V79H22C20.8954 79 20 78.1046 20 77V17Z" fill="#F5F5F5"/>
<path d="M186 17H171V79H184.015C185.111 79 186 77.8732 186 76.4832V17Z" fill="#F5F5F5"/>
<path d="M20 3C20 1.89543 20.8954 1 22 1H184C185.105 1 186 1.89543 186 3V9H20V3Z" fill="#446995"/>
<path fill-rule="evenodd" clip-rule="evenodd" d="M186 17H20V16H186V17Z" fill="#CCCCCC"/>
<path fill-rule="evenodd" clip-rule="evenodd" d="M36 16V79H35V16H36Z" fill="#CCCCCC"/>
<path fill-rule="evenodd" clip-rule="evenodd" d="M172 17V79H171V17H172Z" fill="#CCCCCC"/>
<path d="M176.368 41.5H155.632C153.914 41.5 152.5 40.0886 152.5 38.3833V17.6167C152.5 15.9114 153.914 14.5 155.632 14.5H176.368C178.086 14.5 179.5 15.9114 179.5 17.6167V38.2667C179.5 40.099 178.075 41.5 176.368 41.5Z" fill="#F3FFFE" stroke="#27ABA3" stroke-miterlimit="10" stroke-linecap="round" stroke-linejoin="round"/>
<path fill-rule="evenodd" clip-rule="evenodd" d="M163 23C163 24.1046 162.105 25 161 25C159.895 25 159 24.1046 159 23C159 21.8954 159.895 21 161 21C162.105 21 163 21.8954 163 23ZM162 23C162 23.5523 161.552 24 161 24C160.448 24 160 23.5523 160 23C160 22.4477 160.448 22 161 22C161.552 22 162 22.4477 162 23Z" fill="#444444"/>
<path fill-rule="evenodd" clip-rule="evenodd" d="M157 18C156.448 18 156 18.4477 156 19V37C156 37.5523 156.448 38 157 38H175C175.552 38 176 37.5523 176 37V19C176 18.4477 175.552 18 175 18H157ZM175 19H157V33.2929L160.5 29.7928L162.5 31.7928L168.5 25.7928L175 32.2928V19ZM157 37V34.7071L160.5 31.2071L162.5 33.2071L168.5 27.2071L175 33.7071V37H157Z" fill="#444444"/>
<rect x="48.5" y="28.5" width="7" height="7" rx="3.5" fill="#D9F4FF" stroke="#9ADAF3"/>
<rect x="48.5" y="40.5" width="7" height="7" rx="3.5" fill="#D9F4FF" stroke="#9ADAF3"/>
<circle cx="52" cy="44" r="2" fill="#9ADAF3"/>
<rect x="48.5" y="52.5" width="7" height="7" rx="3.5" fill="#F9FEEF" stroke="#8BB825"/>
<rect x="48.5" y="64.5" width="7" height="7" rx="3.5" fill="#F9FEEF" stroke="#8BB825"/>
<circle cx="52" cy="68" r="2" fill="#8BB825"/>
<rect x="62.5" y="28.5" width="63" height="7" rx="1.5" fill="#D9F4FF" stroke="#9ADAF3"/>
<rect x="62.5" y="40.5" width="63" height="7" rx="1.5" fill="#D9F4FF" stroke="#9ADAF3"/>
<rect x="62.5" y="52.5" width="63" height="7" rx="1.5" fill="#F9FEEF" stroke="#8BB825"/>
<rect x="62.5" y="64.5" width="63" height="7" rx="1.5" fill="#F9FEEF" stroke="#8BB825"/>
<rect x="133.5" y="49.5" width="47" height="24" fill="#D9F4FF" stroke="#444444"/>
<circle cx="180.5" cy="49.5" r="1.5" fill="#444444"/>
<circle cx="133.5" cy="49.5" r="1.5" fill="#444444"/>
<circle cx="133.5" cy="73.5" r="1.5" fill="#444444"/>
<circle cx="180.5" cy="73.5" r="1.5" fill="#444444"/>
<path d="M146.17 55.4096L146.709 57.518C145.99 57.2545 143.583 57.9397 146.17 62.7892C149.403 68.8511 151.828 70.4325 149.672 69.9054C147.517 69.3782 145.361 68.5876 146.709 65.952C148.056 63.3164 148.595 61.4714 149.672 62.7892C150.75 64.107 154.792 74.1223 156.139 67.0062C157.486 59.8901 156.514 52.7364 155.436 58.0452C154.358 63.3539 157.592 68.0604 162.442 67.0062C167.292 65.952 170.689 60.1536 169.881 59.0994C169.073 58.0452 161.528 46.9756 163.953 57.518C166.378 68.0604 167.456 69.1147 169.881 68.0604" stroke="#333333"/>
</svg>
