<svg width="206" height="80" viewBox="0 0 206 80" fill="none" xmlns="http://www.w3.org/2000/svg">
<path d="M19.5 3C19.5 1.61929 20.6193 0.5 22 0.5H184C185.381 0.5 186.5 1.61929 186.5 3V77C186.5 78.3807 185.381 79.5 184 79.5H22C20.6193 79.5 19.5 78.3807 19.5 77V3Z" fill="#EFEFEF" stroke="#CCCCCC"/>
<path d="M39 19.5H38.5V20V79V79.5H39H168H168.5V79V20V19.5H168H39Z" fill="white" stroke="#CCCCCC"/>
<path d="M20 17H35V79H22C20.8954 79 20 78.1046 20 77V17Z" fill="#F5F5F5"/>
<path d="M186 17H171V79H184.015C185.111 79 186 77.8732 186 76.4832V17Z" fill="#F5F5F5"/>
<path d="M20 3C20 1.89543 20.8954 1 22 1H184C185.105 1 186 1.89543 186 3V9H20V3Z" fill="#446995"/>
<path fill-rule="evenodd" clip-rule="evenodd" d="M186 17H20V16H186V17Z" fill="#CCCCCC"/>
<path fill-rule="evenodd" clip-rule="evenodd" d="M36 16V79H35V16H36Z" fill="#CCCCCC"/>
<path fill-rule="evenodd" clip-rule="evenodd" d="M172 17V79H171V17H172Z" fill="#CCCCCC"/>
<path fill-rule="evenodd" clip-rule="evenodd" d="M159 42.5C159 42.2239 158.81 42 158.575 42H88.4252C88.1904 42 88 42.2239 88 42.5C88 42.7761 88.1904 43 88.4252 43H158.575C158.81 43 159 42.7761 159 42.5Z" fill="#333333"/>
<path fill-rule="evenodd" clip-rule="evenodd" d="M159 52.5C159 52.2239 158.81 52 158.575 52H88.4252C88.1904 52 88 52.2239 88 52.5C88 52.7761 88.1904 53 88.4252 53H158.575C158.81 53 159 52.7761 159 52.5Z" fill="#333333"/>
<path fill-rule="evenodd" clip-rule="evenodd" d="M159 72.5C159 72.2239 158.702 72 158.335 72H48.6647C48.2976 72 48 72.2239 48 72.5C48 72.7761 48.2976 73 48.6647 73H158.335C158.702 73 159 72.7761 159 72.5Z" fill="#333333"/>
<path fill-rule="evenodd" clip-rule="evenodd" d="M159 62.5C159 62.2239 158.81 62 158.575 62H88.4252C88.1904 62 88 62.2239 88 62.5C88 62.7761 88.1904 63 88.4252 63H158.575C158.81 63 159 62.7761 159 62.5Z" fill="#333333"/>
<path fill-rule="evenodd" clip-rule="evenodd" d="M55.8179 42C56.3702 42 56.8179 42.4477 56.8179 43C56.8179 43.5523 56.3702 44 55.8179 44H51C50.4477 44 50 44.4477 50 45V49.2494C50 49.8017 49.5523 50.2494 49 50.2494C48.4477 50.2494 48 49.8017 48 49.2494V45C48 43.3431 49.3431 42 51 42H55.8179ZM72.1807 42C71.6284 42 71.1807 42.4477 71.1807 43C71.1807 43.5523 71.6284 44 72.1807 44H76.9986C77.5509 44 77.9986 44.4477 77.9986 45V49.2494C77.9986 49.8017 78.4463 50.2494 78.9986 50.2494C79.5509 50.2494 79.9986 49.8017 79.9986 49.2494V45C79.9986 43.3431 78.6554 42 76.9986 42H72.1807ZM71.1807 62.9982C71.1807 63.5505 71.6284 63.9982 72.1807 63.9982H76.9986C78.6554 63.9982 79.9986 62.655 79.9986 60.9982V56.7488C79.9986 56.1965 79.5509 55.7488 78.9986 55.7488C78.4463 55.7488 77.9986 56.1965 77.9986 56.7488V60.9982C77.9986 61.5505 77.5509 61.9982 76.9986 61.9982H72.1807C71.6284 61.9982 71.1807 62.4459 71.1807 62.9982ZM55.8179 63.9982C56.3702 63.9982 56.8179 63.5505 56.8179 62.9982C56.8179 62.4459 56.3702 61.9982 55.8179 61.9982H51C50.4477 61.9982 50 61.5505 50 60.9982V56.7488C50 56.1965 49.5523 55.7488 49 55.7488C48.4477 55.7488 48 56.1965 48 56.7488V60.9982C48 62.655 49.3431 63.9982 51 63.9982H55.8179Z" fill="url(#paint0_linear_56_3)"/>
<path d="M162 25H155C153.895 25 153 25.8954 153 27V29C153 30.1046 153.895 31 155 31H162C163.104 31 164 30.1046 164 29V27C164 25.8954 163.104 25 162 25Z" fill="#EFEFEF"/>
<path d="M152.4 25H110.4C109.848 25 109.4 25.4477 109.4 26V30.0448C109.4 30.5971 109.848 31.0448 110.4 31.0448H152.4C152.952 31.0448 153.4 30.5971 153.4 30.0448V26C153.4 25.4477 152.952 25 152.4 25Z" fill="url(#paint1_linear_56_3)"/>
<line x1="153.35" y1="25" x2="153.35" y2="31" stroke="#333333" stroke-width="0.7"/>
<rect x="109.35" y="25.35" width="54.3" height="5.3" rx="0.65" stroke="#333333" stroke-width="0.7"/>
<rect x="14.5" y="25.5" width="67" height="43" fill="white"/>
<path fill-rule="evenodd" clip-rule="evenodd" d="M23.5 53C24.3284 53 25 53.4214 25 53.9412V60.0588C25 60.5786 24.3284 61 23.5 61C22.6716 61 22 60.5786 22 60.0588V53.9412C22 53.4214 22.6716 53 23.5 53Z" fill="url(#paint2_linear_56_3)"/>
<path fill-rule="evenodd" clip-rule="evenodd" d="M30.5 37C31.328 37 32 37.4998 32 38.1163V59.8837C32 60.5002 31.328 61 30.5 61C29.672 61 29 60.5002 29 59.8837V38.1163C29 37.4998 29.672 37 30.5 37Z" fill="url(#paint3_linear_56_3)"/>
<path fill-rule="evenodd" clip-rule="evenodd" d="M37.5 50C38.3284 50 39 50.4952 39 51.1062V59.8938C39 60.5048 38.3284 61 37.5 61C36.6716 61 36 60.5048 36 59.8938V51.1062C36 50.4952 36.6716 50 37.5 50Z" fill="url(#paint4_linear_56_3)"/>
<path fill-rule="evenodd" clip-rule="evenodd" d="M44.5 46C43.6716 46 43 46.6517 43 47.4556V59.5444C43 60.3483 43.6716 61 44.5 61C45.3284 61 46 60.3483 46 59.5444V47.4556C46 46.6517 45.3284 46 44.5 46Z" fill="url(#paint5_linear_56_3)"/>
<path fill-rule="evenodd" clip-rule="evenodd" d="M51.5 50C50.6716 50 50 50.3732 50 50.8337V60.1663C50 60.6268 50.6716 61 51.5 61C52.3284 61 53 60.6268 53 60.1663V50.8337C53 50.3732 52.3284 50 51.5 50Z" fill="url(#paint6_linear_56_3)"/>
<path fill-rule="evenodd" clip-rule="evenodd" d="M58.5 39C57.6716 39 57 39.6265 57 40.3993V59.6007C57 60.3736 57.6716 61 58.5 61C59.3284 61 60 60.3736 60 59.6007V40.3993C60 39.6265 59.3284 39 58.5 39Z" fill="url(#paint7_linear_56_3)"/>
<path fill-rule="evenodd" clip-rule="evenodd" d="M65.5 42C64.6716 42 64 42.6447 64 43.44V59.56C64 60.3553 64.6716 61 65.5 61C66.3284 61 67 60.3553 67 59.56V43.44C67 42.6447 66.3284 42 65.5 42Z" fill="url(#paint8_linear_56_3)"/>
<path fill-rule="evenodd" clip-rule="evenodd" d="M72.5 33C73.328 33 74 33.5831 74 34.3023V59.6977C74 60.4169 73.328 61 72.5 61C71.672 61 71 60.4169 71 59.6977V34.3023C71 33.5831 71.672 33 72.5 33Z" fill="url(#paint9_linear_56_3)"/>
<rect x="14.5" y="25.5" width="67" height="43" stroke="#444444"/>
<circle cx="81.5" cy="25.5" r="1.5" fill="#444444"/>
<circle cx="81.5" cy="68.5" r="1.5" fill="#444444"/>
<circle cx="14.5" cy="25.5" r="1.5" fill="#444444"/>
<circle cx="14.5" cy="68.5" r="1.5" fill="#444444"/>
<defs>
<linearGradient id="paint0_linear_56_3" x1="48.0001" y1="41.1407" x2="68.2613" y2="71.7639" gradientUnits="userSpaceOnUse">
<stop stop-color="#FF8E3D"/>
<stop offset="1" stop-color="#FF6F3D"/>
</linearGradient>
<linearGradient id="paint1_linear_56_3" x1="107.893" y1="20.8049" x2="111.5" y2="35.0501" gradientUnits="userSpaceOnUse">
<stop stop-color="#FFC671"/>
<stop offset="1" stop-color="#FF6F3D"/>
</linearGradient>
<linearGradient id="paint2_linear_56_3" x1="23.5" y1="49.8628" x2="23.5" y2="60.3987" gradientUnits="userSpaceOnUse">
<stop stop-color="#FFC671"/>
<stop offset="0.59375" stop-color="#FF7541"/>
<stop offset="1" stop-color="#FF6F3D"/>
</linearGradient>
<linearGradient id="paint3_linear_56_3" x1="30.5" y1="37.7442" x2="30.5" y2="60.2868" gradientUnits="userSpaceOnUse">
<stop stop-color="#FFC671"/>
<stop offset="0.619792" stop-color="#FF7541"/>
<stop offset="1" stop-color="#FF6F3D"/>
</linearGradient>
<linearGradient id="paint4_linear_56_3" x1="37.5" y1="43.9162" x2="37.5" y2="60.2933" gradientUnits="userSpaceOnUse">
<stop stop-color="#FFC671"/>
<stop offset="0.59375" stop-color="#FF7541"/>
<stop offset="1" stop-color="#FF6F3D"/>
</linearGradient>
<linearGradient id="paint5_linear_56_3" x1="44.5" y1="46.4043" x2="44.5" y2="60.0701" gradientUnits="userSpaceOnUse">
<stop stop-color="#FFC671"/>
<stop offset="0.59375" stop-color="#FF7541"/>
<stop offset="1" stop-color="#FF6F3D"/>
</linearGradient>
<linearGradient id="paint6_linear_56_3" x1="51.5" y1="52.64" x2="51.5" y2="60.4674" gradientUnits="userSpaceOnUse">
<stop stop-color="#FFC671"/>
<stop offset="0.59375" stop-color="#FF7541"/>
<stop offset="1" stop-color="#FF6F3D"/>
</linearGradient>
<linearGradient id="paint7_linear_56_3" x1="58.5" y1="45.4523" x2="58.5" y2="60.106" gradientUnits="userSpaceOnUse">
<stop stop-color="#FFC671"/>
<stop offset="0.59375" stop-color="#FF7541"/>
<stop offset="1" stop-color="#FF6F3D"/>
</linearGradient>
<linearGradient id="paint8_linear_56_3" x1="65.5" y1="46.56" x2="65.5" y2="60.08" gradientUnits="userSpaceOnUse">
<stop stop-color="#FFC671"/>
<stop offset="0.59375" stop-color="#FF7541"/>
<stop offset="1" stop-color="#FF6F3D"/>
</linearGradient>
<linearGradient id="paint9_linear_56_3" x1="72.5" y1="33.8683" x2="72.5" y2="60.168" gradientUnits="userSpaceOnUse">
<stop stop-color="#FFC671"/>
<stop offset="0.619792" stop-color="#FF7541"/>
<stop offset="1" stop-color="#FF6F3D"/>
</linearGradient>
</defs>
</svg>
