<svg width="206" height="80" viewBox="0 0 206 80" fill="none" xmlns="http://www.w3.org/2000/svg">
<path d="M19.5 3C19.5 1.61929 20.6193 0.5 22 0.5H184C185.381 0.5 186.5 1.61929 186.5 3V77C186.5 78.3807 185.381 79.5 184 79.5H22C20.6193 79.5 19.5 78.3807 19.5 77V3Z" fill="#EFEFEF" stroke="#CCCCCC"/>
<path d="M52.45 19H52V19.4833V76.5167V77H52.45H168.55H169V76.5167V19.4833V19H168.55H52.45Z" fill="white" stroke="#CCCCCC"/>
<path d="M20 17H54V79H24.5333C22.0296 79 20 78.1046 20 77V17Z" fill="#F5F5F5"/>
<path d="M186 17H179V79H185.074C185.585 79 186 77.8732 186 76.4832V17Z" fill="#F5F5F5"/>
<path d="M20 3C20 1.89543 20.8954 1 22 1H184C185.105 1 186 1.89543 186 3V9H20V3Z" fill="#BE664F"/>
<path fill-rule="evenodd" clip-rule="evenodd" d="M186 17H20V16H186V17Z" fill="#CCCCCC"/>
<path fill-rule="evenodd" clip-rule="evenodd" d="M55 16V79H54V16H55Z" fill="#CCCCCC"/>
<path fill-rule="evenodd" clip-rule="evenodd" d="M179 17V79H178V17H179Z" fill="#CCCCCC"/>
<path d="M144.701 33.2422L143.945 31.25L143.225 33.2422H144.701ZM146.008 35H145.366L144.868 33.6934H143.069L142.595 35H141.994L143.644 30.7051H144.256L146.008 35Z" fill="white"/>
<rect x="65.5" y="22.5" width="90" height="52" rx="3.5" fill="#F3FFFE"/>
<path d="M66.4325 70.4312L66.4324 70.4311L66.4235 70.4382C65.8971 70.8523 65.5702 71.341 65.5099 71.8804C65.4491 72.4243 65.6711 72.9128 66.022 73.2955C66.7068 74.0422 67.9673 74.5 69.3192 74.5H151.494C152.679 74.5 153.686 74.322 154.403 73.8115C155.158 73.2737 155.5 72.4383 155.5 71.3618V58.3387C155.5 57.9779 155.37 57.6292 155.134 57.3565L137.099 36.5422L136.722 36.8696L137.099 36.5422C136.503 35.8532 135.434 35.8516 134.835 36.5387L108.677 66.5421C108.501 66.7445 108.196 66.7714 107.987 66.603L91.3109 53.1767C90.7766 52.7465 90.0186 52.7336 89.47 53.1453L66.4325 70.4312Z" fill="#27ABA3" stroke="#333333"/>
<path d="M82 45.5C86.1496 45.5 89.5 42.146 89.5 37.9948C89.5 33.842 86.1371 30.5 82 30.5C77.8509 30.5 74.5 33.8535 74.5 37.9948C74.5 42.135 77.85 45.5 82 45.5Z" fill="url(#paint0_linear_172_8)" stroke="#333333"/>
<rect x="65.5" y="22.5" width="90" height="52" rx="3.5" stroke="#333333"/>
<rect x="22.5" y="19.5" width="29" height="17" fill="white"/>
<rect x="25" y="22" width="11" height="12" rx="2" fill="#BDECFF"/>
<rect x="32" y="26" width="15" height="2" rx="1" fill="#333333"/>
<rect x="30" y="30" width="19" height="2" rx="1" fill="#666666"/>
<rect x="22.5" y="19.5" width="29" height="17" stroke="#CCCCCC"/>
<rect x="22.5" y="39.5" width="29" height="17" fill="white"/>
<path fill-rule="evenodd" clip-rule="evenodd" d="M25 46.5C25 46.2239 25.1894 46 25.4231 46H35.5769C35.8106 46 36 46.2239 36 46.5C36 46.7761 35.8106 47 35.5769 47H25.4231C25.1894 47 25 46.7761 25 46.5Z" fill="#CCCCCC"/>
<path fill-rule="evenodd" clip-rule="evenodd" d="M25 48.5C25 48.2239 25.1894 48 25.4231 48H35.5769C35.8106 48 36 48.2239 36 48.5C36 48.7761 35.8106 49 35.5769 49H25.4231C25.1894 49 25 48.7761 25 48.5Z" fill="#CCCCCC"/>
<path fill-rule="evenodd" clip-rule="evenodd" d="M25 50.5C25 50.2239 25.1894 50 25.4231 50H35.5769C35.8106 50 36 50.2239 36 50.5C36 50.7761 35.8106 51 35.5769 51H25.4231C25.1894 51 25 50.7761 25 50.5Z" fill="#CCCCCC"/>
<path fill-rule="evenodd" clip-rule="evenodd" d="M25 52.5C25 52.2239 25.1894 52 25.4231 52H35.5769C35.8106 52 36 52.2239 36 52.5C36 52.7761 35.8106 53 35.5769 53H25.4231C25.1894 53 25 52.7761 25 52.5Z" fill="#CCCCCC"/>
<path fill-rule="evenodd" clip-rule="evenodd" d="M25 43.5C25 43.2239 25.1894 43 25.4231 43H35.5769C35.8106 43 36 43.2239 36 43.5C36 43.7761 35.8106 44 35.5769 44H25.4231C25.1894 44 25 43.7761 25 43.5Z" fill="#AAAAAA"/>
<path fill-rule="evenodd" clip-rule="evenodd" d="M38.5 50C38.7761 50 39 50.158 39 50.3529V52.6471C39 52.842 38.7761 53 38.5 53C38.2239 53 38 52.842 38 52.6471V50.3529C38 50.158 38.2239 50 38.5 50Z" fill="url(#paint1_linear_172_8)"/>
<path fill-rule="evenodd" clip-rule="evenodd" d="M40.5 44C40.776 44 41 44.1874 41 44.4186V52.5814C41 52.8126 40.776 53 40.5 53C40.224 53 40 52.8126 40 52.5814V44.4186C40 44.1874 40.224 44 40.5 44Z" fill="url(#paint2_linear_172_8)"/>
<path fill-rule="evenodd" clip-rule="evenodd" d="M42.5 49C42.7761 49 43 49.1801 43 49.4022V52.5978C43 52.8199 42.7761 53 42.5 53C42.2239 53 42 52.8199 42 52.5978V49.4022C42 49.1801 42.2239 49 42.5 49Z" fill="url(#paint3_linear_172_8)"/>
<path fill-rule="evenodd" clip-rule="evenodd" d="M44.5 45C44.2239 45 44 45.2278 44 45.5088V52.4912C44 52.7722 44.2239 53 44.5 53C44.7761 53 45 52.7722 45 52.4912V45.5088C45 45.2278 44.7761 45 44.5 45Z" fill="url(#paint4_linear_172_8)"/>
<path fill-rule="evenodd" clip-rule="evenodd" d="M46.5 46C46.2239 46 46 46.2375 46 46.5305V52.4695C46 52.7625 46.2239 53 46.5 53C46.7761 53 47 52.7625 47 52.4695V46.5305C47 46.2375 46.7761 46 46.5 46Z" fill="url(#paint5_linear_172_8)"/>
<path fill-rule="evenodd" clip-rule="evenodd" d="M48.5 43C48.776 43 49 43.2082 49 43.4651V52.5349C49 52.7918 48.776 53 48.5 53C48.224 53 48 52.7918 48 52.5349V43.4651C48 43.2082 48.224 43 48.5 43Z" fill="url(#paint6_linear_172_8)"/>
<rect x="22.5" y="39.5" width="29" height="17" stroke="#CCCCCC"/>
<g clip-path="url(#clip0_172_8)">
<rect x="23" y="60" width="28" height="16" fill="white"/>
<path d="M49.7921 58.4297H23.721C22.6663 58.4297 21.8478 59.3238 21.8478 60.371V75.5186C21.8478 76.5691 22.6629 77.4599 23.721 77.4599H49.7921C50.8468 77.4599 51.6653 76.5658 51.6653 75.5186V60.371C51.6653 59.3238 50.8468 58.4297 49.7921 58.4297Z" fill="#BDECFF" stroke="#333333"/>
<path fill-rule="evenodd" clip-rule="evenodd" d="M23.6801 76.9599C22.8769 76.9599 22.4871 75.9788 23.0718 75.4287L30.8326 68.127L36.3956 73.5629L44.8714 62.0081L51.1653 70.5316V75.6307C51.1653 76.3648 50.5695 76.9599 49.8345 76.9599H23.6801Z" fill="white"/>
<path fill-rule="evenodd" clip-rule="evenodd" d="M30.8392 67.7005L36.3406 72.9727L44.8703 61.5683L51.6086 70.5181V75.6616C51.6086 76.6215 50.8143 77.3997 49.8343 77.3997H23.6812C22.4764 77.3997 21.8917 75.9565 22.7688 75.1472L30.8392 67.7005ZM36.396 73.6337L30.8333 68.3028L23.0729 75.4635C22.4882 76.003 22.878 76.9652 23.6812 76.9652H49.8343C50.5693 76.9652 51.1651 76.3815 51.1651 75.6616V70.661L44.8715 62.3019L36.396 73.6337Z" fill="#333333"/>
<path d="M26.7812 65.6761C28.0895 65.6761 29.1479 64.6269 29.1479 63.3256C29.1479 62.024 28.0856 60.9785 26.7812 60.9785C25.473 60.9785 24.4145 62.0276 24.4145 63.3256C24.4145 64.6234 25.4727 65.6761 26.7812 65.6761Z" fill="url(#paint7_linear_172_8)" stroke="#333333" stroke-width="0.3"/>
</g>
<rect x="22.5" y="59.5" width="29" height="17" stroke="#CCCCCC"/>
<defs>
<linearGradient id="paint0_linear_172_8" x1="75" y1="30.4531" x2="89" y2="45" gradientUnits="userSpaceOnUse">
<stop stop-color="#FF8E3D"/>
<stop offset="1" stop-color="#FF6F3D"/>
</linearGradient>
<linearGradient id="paint1_linear_172_8" x1="38.5" y1="48.8235" x2="38.5" y2="52.7745" gradientUnits="userSpaceOnUse">
<stop stop-color="#FFC671"/>
<stop offset="0.59375" stop-color="#FF7541"/>
<stop offset="1" stop-color="#FF6F3D"/>
</linearGradient>
<linearGradient id="paint2_linear_172_8" x1="40.5" y1="44.2791" x2="40.5" y2="52.7326" gradientUnits="userSpaceOnUse">
<stop stop-color="#FFC671"/>
<stop offset="0.619792" stop-color="#FF7541"/>
<stop offset="1" stop-color="#FF6F3D"/>
</linearGradient>
<linearGradient id="paint3_linear_172_8" x1="42.5" y1="46.7877" x2="42.5" y2="52.743" gradientUnits="userSpaceOnUse">
<stop stop-color="#FFC671"/>
<stop offset="0.59375" stop-color="#FF7541"/>
<stop offset="1" stop-color="#FF6F3D"/>
</linearGradient>
<linearGradient id="paint4_linear_172_8" x1="44.5" y1="47.3463" x2="44.5" y2="52.6749" gradientUnits="userSpaceOnUse">
<stop stop-color="#FFC671"/>
<stop offset="0.59375" stop-color="#FF7541"/>
<stop offset="1" stop-color="#FF6F3D"/>
</linearGradient>
<linearGradient id="paint5_linear_172_8" x1="46.5" y1="47.68" x2="46.5" y2="52.6611" gradientUnits="userSpaceOnUse">
<stop stop-color="#FFC671"/>
<stop offset="0.59375" stop-color="#FF7541"/>
<stop offset="1" stop-color="#FF6F3D"/>
</linearGradient>
<linearGradient id="paint6_linear_172_8" x1="48.5" y1="43.3101" x2="48.5" y2="52.7028" gradientUnits="userSpaceOnUse">
<stop stop-color="#FFC671"/>
<stop offset="0.619792" stop-color="#FF7541"/>
<stop offset="1" stop-color="#FF6F3D"/>
</linearGradient>
<linearGradient id="paint7_linear_172_8" x1="24.5645" y1="60.9567" x2="28.9606" y2="65.5618" gradientUnits="userSpaceOnUse">
<stop stop-color="#FF8E3D"/>
<stop offset="1" stop-color="#FF6F3D"/>
</linearGradient>
<clipPath id="clip0_172_8">
<rect x="23" y="60" width="28" height="16" fill="white"/>
</clipPath>
</defs>
</svg>
