<svg width="168" height="80" viewBox="0 0 168 80" fill="none" xmlns="http://www.w3.org/2000/svg">
<g clip-path="url(#clip0_5_334)">
<path d="M0.5 3C0.5 1.61929 1.61929 0.5 3 0.5H165C166.381 0.5 167.5 1.61929 167.5 3V77C167.5 78.3807 166.381 79.5 165 79.5H3C1.61929 79.5 0.5 78.3807 0.5 77V3Z" fill="#EFEFEF" stroke="#CCCCCC"/>
<path d="M20 19.5H19.5V20V79V79.5H20H149H149.5V79V20V19.5H149H20Z" fill="white" stroke="#CCCCCC"/>
<path d="M1 17H16V79H3C1.89543 79 1 78.1046 1 77V17Z" fill="#F5F5F5"/>
<path d="M167 17H152V79H165.015C166.111 79 167 77.8732 167 76.4832V17Z" fill="#F5F5F5"/>
<path d="M1 3C1 1.89543 1.89543 1 3 1H165C166.105 1 167 1.89543 167 3V9H1V3Z" fill="#446995"/>
<path fill-rule="evenodd" clip-rule="evenodd" d="M167 17H1V16H167V17Z" fill="#CCCCCC"/>
<path fill-rule="evenodd" clip-rule="evenodd" d="M17 16V79H16V16H17Z" fill="#CCCCCC"/>
<path fill-rule="evenodd" clip-rule="evenodd" d="M153 17V79H152V17H153Z" fill="#CCCCCC"/>
<path d="M50.4845 51.8109L36.213 36L29.1103 42.982C29.1103 45.9685 27.9674 60.5 31 60.5H61.754C64.7866 60.5 63.9962 46.6892 63.9962 43.7027L61.1882 41.2702L50.4845 51.8109Z" fill="url(#paint0_linear_5_334)" fill-opacity="0.4"/>
<path d="M50.5 41C53.5375 41 56 38.5376 56 35.4999C56 32.4624 53.5375 30 50.5 30C47.4625 30 45 32.4624 45 35.4999C45 38.5376 47.4625 41 50.5 41Z" fill="url(#paint1_linear_5_334)" fill-opacity="0.4"/>
<path d="M59.4602 61H33.5397C31.0502 61 29 58.9583 29 56.4792V30.5208C29 28.0417 31.0502 26 33.5397 26H59.4602C61.9498 26 64 28.0417 64 30.5208V56.3333C64 58.9583 61.9498 61 59.4602 61Z" stroke="#333333" stroke-miterlimit="10" stroke-linecap="round" stroke-linejoin="round"/>
<rect x="29.5" y="65.5" width="34" height="6" rx="1.5" fill="#FF843E" fill-opacity="0.4" stroke="#333333"/>
</g>
<defs>
<linearGradient id="paint0_linear_5_334" x1="17.4817" y1="48.7364" x2="76.3518" y2="48.7364" gradientUnits="userSpaceOnUse">
<stop stop-color="#FF8E3D"/>
<stop offset="1" stop-color="#FF6F3D"/>
</linearGradient>
<linearGradient id="paint1_linear_5_334" x1="45" y1="35.4999" x2="56" y2="35.4999" gradientUnits="userSpaceOnUse">
<stop stop-color="#FF8E3D"/>
<stop offset="1" stop-color="#FF6F3D"/>
</linearGradient>
<clipPath id="clip0_5_334">
<rect width="168" height="80" fill="white"/>
</clipPath>
</defs>
</svg>
