<svg width="206" height="80" viewBox="0 0 206 80" fill="none" xmlns="http://www.w3.org/2000/svg">
<path d="M19.5 3C19.5 1.61929 20.6193 0.5 22 0.5H184C185.381 0.5 186.5 1.61929 186.5 3V77C186.5 78.3807 185.381 79.5 184 79.5H22C20.6193 79.5 19.5 78.3807 19.5 77V3Z" fill="#EFEFEF" stroke="#CCCCCC"/>
<path d="M39 19.5H38.5V20V79V79.5H39H168H168.5V79V20V19.5H168H39Z" fill="white" stroke="#CCCCCC"/>
<path d="M20 17H35V79H22C20.8954 79 20 78.1046 20 77V17Z" fill="#F5F5F5"/>
<path d="M186 17H171V79H184.015C185.111 79 186 77.8732 186 76.4832V17Z" fill="#F5F5F5"/>
<path d="M20 3C20 1.89543 20.8954 1 22 1H184C185.105 1 186 1.89543 186 3V9H20V3Z" fill="#446995"/>
<path fill-rule="evenodd" clip-rule="evenodd" d="M186 17H20V16H186V17Z" fill="#CCCCCC"/>
<path fill-rule="evenodd" clip-rule="evenodd" d="M36 16V79H35V16H36Z" fill="#CCCCCC"/>
<path fill-rule="evenodd" clip-rule="evenodd" d="M172 17V79H171V17H172Z" fill="#CCCCCC"/>
<path fill-rule="evenodd" clip-rule="evenodd" d="M159 42.5C159 42.2239 158.81 42 158.575 42H88.4252C88.1904 42 88 42.2239 88 42.5C88 42.7761 88.1904 43 88.4252 43H158.575C158.81 43 159 42.7761 159 42.5Z" fill="#333333"/>
<path fill-rule="evenodd" clip-rule="evenodd" d="M159 52.5C159 52.2239 158.81 52 158.575 52H88.4252C88.1904 52 88 52.2239 88 52.5C88 52.7761 88.1904 53 88.4252 53H158.575C158.81 53 159 52.7761 159 52.5Z" fill="#333333"/>
<path fill-rule="evenodd" clip-rule="evenodd" d="M159 72.5C159 72.2239 158.702 72 158.335 72H48.6647C48.2976 72 48 72.2239 48 72.5C48 72.7761 48.2976 73 48.6647 73H158.335C158.702 73 159 72.7761 159 72.5Z" fill="#333333"/>
<path fill-rule="evenodd" clip-rule="evenodd" d="M159 62.5C159 62.2239 158.81 62 158.575 62H88.4252C88.1904 62 88 62.2239 88 62.5C88 62.7761 88.1904 63 88.4252 63H158.575C158.81 63 159 62.7761 159 62.5Z" fill="#333333"/>
<path fill-rule="evenodd" clip-rule="evenodd" d="M55.8179 42C56.3702 42 56.8179 42.4477 56.8179 43C56.8179 43.5523 56.3702 44 55.8179 44H51C50.4477 44 50 44.4477 50 45V49.2494C50 49.8017 49.5523 50.2494 49 50.2494C48.4477 50.2494 48 49.8017 48 49.2494V45C48 43.3431 49.3431 42 51 42H55.8179ZM72.1807 42C71.6284 42 71.1807 42.4477 71.1807 43C71.1807 43.5523 71.6284 44 72.1807 44H76.9986C77.5509 44 77.9986 44.4477 77.9986 45V49.2494C77.9986 49.8017 78.4463 50.2494 78.9986 50.2494C79.5509 50.2494 79.9986 49.8017 79.9986 49.2494V45C79.9986 43.3431 78.6554 42 76.9986 42H72.1807ZM71.1807 62.9982C71.1807 63.5505 71.6284 63.9982 72.1807 63.9982H76.9986C78.6554 63.9982 79.9986 62.655 79.9986 60.9982V56.7488C79.9986 56.1965 79.5509 55.7488 78.9986 55.7488C78.4463 55.7488 77.9986 56.1965 77.9986 56.7488V60.9982C77.9986 61.5505 77.5509 61.9982 76.9986 61.9982H72.1807C71.6284 61.9982 71.1807 62.4459 71.1807 62.9982ZM55.8179 63.9982C56.3702 63.9982 56.8179 63.5505 56.8179 62.9982C56.8179 62.4459 56.3702 61.9982 55.8179 61.9982H51C50.4477 61.9982 50 61.5505 50 60.9982V56.7488C50 56.1965 49.5523 55.7488 49 55.7488C48.4477 55.7488 48 56.1965 48 56.7488V60.9982C48 62.655 49.3431 63.9982 51 63.9982H55.8179Z" fill="url(#paint0_linear_5_88)"/>
<path d="M162 25H155C153.895 25 153 25.8954 153 27V29C153 30.1046 153.895 31 155 31H162C163.104 31 164 30.1046 164 29V27C164 25.8954 163.104 25 162 25Z" fill="#EFEFEF"/>
<path d="M152.4 25H110.4C109.848 25 109.4 25.4477 109.4 26V30.0448C109.4 30.5971 109.848 31.0448 110.4 31.0448H152.4C152.952 31.0448 153.4 30.5971 153.4 30.0448V26C153.4 25.4477 152.952 25 152.4 25Z" fill="url(#paint1_linear_5_88)"/>
<line x1="153.35" y1="25" x2="153.35" y2="31" stroke="#333333" stroke-width="0.7"/>
<rect x="109.35" y="25.35" width="54.3" height="5.3" rx="0.65" stroke="#333333" stroke-width="0.7"/>
<defs>
<linearGradient id="paint0_linear_5_88" x1="48.0001" y1="41.1407" x2="68.2613" y2="71.7639" gradientUnits="userSpaceOnUse">
<stop stop-color="#FF8E3D"/>
<stop offset="1" stop-color="#FF6F3D"/>
</linearGradient>
<linearGradient id="paint1_linear_5_88" x1="107.893" y1="20.8049" x2="111.5" y2="35.0501" gradientUnits="userSpaceOnUse">
<stop stop-color="#FFC671"/>
<stop offset="1" stop-color="#FF6F3D"/>
</linearGradient>
</defs>
</svg>
