<svg width="168" height="80" viewBox="0 0 168 80" fill="none" xmlns="http://www.w3.org/2000/svg">
<g clip-path="url(#clip0_26_69)">
<path d="M0.5 3C0.5 1.61929 1.61929 0.5 3 0.5H165C166.381 0.5 167.5 1.61929 167.5 3V77C167.5 78.3807 166.381 79.5 165 79.5H3C1.61929 79.5 0.5 78.3807 0.5 77V3Z" fill="#EFEFEF" stroke="#CCCCCC"/>
<path d="M33.45 19H33V19.4833V76.5167V77H33.45H149.55H150V76.5167V19.4833V19H149.55H33.45Z" fill="white" stroke="#CCCCCC"/>
<path d="M1 17H35V79H5.53333C3.02964 79 1 78.1046 1 77V17Z" fill="#F5F5F5"/>
<path d="M167 17H160V79H166.074C166.585 79 167 77.8732 167 76.4832V17Z" fill="#F5F5F5"/>
<path d="M1 3C1 1.89543 1.89543 1 3 1H165C166.105 1 167 1.89543 167 3V9H1V3Z" fill="#BE664F"/>
<path fill-rule="evenodd" clip-rule="evenodd" d="M167 17H1V16H167V17Z" fill="#CCCCCC"/>
<path fill-rule="evenodd" clip-rule="evenodd" d="M36 16V79H35V16H36Z" fill="#CCCCCC"/>
<path fill-rule="evenodd" clip-rule="evenodd" d="M160 17V79H159V17H160Z" fill="#CCCCCC"/>
<path d="M125.701 33.2422L124.945 31.25L124.225 33.2422H125.701ZM127.008 35H126.366L125.868 33.6934H124.069L123.595 35H122.994L124.644 30.7051H125.256L127.008 35Z" fill="white"/>
<path d="M3.11538 19H3V19.125V33.875V34H3.11538H32.8846H33V33.875V19.125V19H32.8846H3.11538Z" fill="white" stroke="#CCCCCC"/>
<path d="M69.5 26.5H114.5C115.052 26.5 115.5 26.9477 115.5 27.5C115.5 28.0523 115.052 28.5 114.5 28.5H69.5C68.9477 28.5 68.5 28.0523 68.5 27.5C68.5 26.9477 68.9477 26.5 69.5 26.5Z" stroke="#333333" stroke-opacity="0.3" stroke-width="3"/>
<mask id="path-12-inside-1_26_69" fill="white">
<path d="M108 39C108 38.4477 108.448 38 109 38H139C139.552 38 140 38.4477 140 39V39C140 39.5523 139.552 40 139 40H109C108.448 40 108 39.5523 108 39V39Z"/>
</mask>
<path d="M109 40H139V36H109V40ZM139 38H109V42H139V38ZM109 38C109.552 38 110 38.4477 110 39H106C106 40.6569 107.343 42 109 42V38ZM138 39C138 38.4477 138.448 38 139 38V42C140.657 42 142 40.6569 142 39H138ZM139 40C138.448 40 138 39.5523 138 39H142C142 37.3431 140.657 36 139 36V40ZM109 36C107.343 36 106 37.3431 106 39H110C110 39.5523 109.552 40 109 40V36Z" fill="#333333" fill-opacity="0.3" mask="url(#path-12-inside-1_26_69)"/>
<mask id="path-14-inside-2_26_69" fill="white">
<path d="M108 46C108 45.4477 108.448 45 109 45H139C139.552 45 140 45.4477 140 46V46C140 46.5523 139.552 47 139 47H109C108.448 47 108 46.5523 108 46V46Z"/>
</mask>
<path d="M109 47H139V43H109V47ZM139 45H109V49H139V45ZM109 45C109.552 45 110 45.4477 110 46H106C106 47.6569 107.343 49 109 49V45ZM138 46C138 45.4477 138.448 45 139 45V49C140.657 49 142 47.6569 142 46H138ZM139 47C138.448 47 138 46.5523 138 46H142C142 44.3431 140.657 43 139 43V47ZM109 43C107.343 43 106 44.3431 106 46H110C110 46.5523 109.552 47 109 47V43Z" fill="#333333" fill-opacity="0.3" mask="url(#path-14-inside-2_26_69)"/>
<mask id="path-16-inside-3_26_69" fill="white">
<path d="M108 53C108 52.4477 108.448 52 109 52H139C139.552 52 140 52.4477 140 53V53C140 53.5523 139.552 54 139 54H109C108.448 54 108 53.5523 108 53V53Z"/>
</mask>
<path d="M109 54H139V50H109V54ZM139 52H109V56H139V52ZM109 52C109.552 52 110 52.4477 110 53H106C106 54.6569 107.343 56 109 56V52ZM138 53C138 52.4477 138.448 52 139 52V56C140.657 56 142 54.6569 142 53H138ZM139 54C138.448 54 138 53.5523 138 53H142C142 51.3431 140.657 50 139 50V54ZM109 50C107.343 50 106 51.3431 106 53H110C110 53.5523 109.552 54 109 54V50Z" fill="#333333" fill-opacity="0.3" mask="url(#path-16-inside-3_26_69)"/>
<mask id="path-18-inside-4_26_69" fill="white">
<path d="M108 60C108 59.4477 108.448 59 109 59H139C139.552 59 140 59.4477 140 60V60C140 60.5523 139.552 61 139 61H109C108.448 61 108 60.5523 108 60V60Z"/>
</mask>
<path d="M109 61H139V57H109V61ZM139 59H109V63H139V59ZM109 59C109.552 59 110 59.4477 110 60H106C106 61.6569 107.343 63 109 63V59ZM138 60C138 59.4477 138.448 59 139 59V63C140.657 63 142 61.6569 142 60H138ZM139 61C138.448 61 138 60.5523 138 60H142C142 58.3431 140.657 57 139 57V61ZM109 57C107.343 57 106 58.3431 106 60H110C110 60.5523 109.552 61 109 61V57Z" fill="#333333" fill-opacity="0.3" mask="url(#path-18-inside-4_26_69)"/>
<rect x="47.5" y="37.5" width="54" height="33" rx="2.5" stroke="#C2C2C2"/>
<path d="M53.2295 55L62.7295 56.5L73.7296 52.5L83.7296 54.5L96.5 50" stroke="#FFC93D" stroke-opacity="0.4" stroke-width="2" stroke-linecap="round"/>
<circle cx="62.5" cy="56.5" r="2.5" fill="#FFC93D"/>
<circle cx="73.5" cy="52.5" r="2.5" fill="#FFC93D"/>
<path d="M53.0995 45L62.6573 48.8177L73.7295 43.3177L83.5 48.8177L96.5 42" stroke="#FF6F3D" stroke-opacity="0.4" stroke-width="2" stroke-linecap="round"/>
<circle cx="62.5" cy="48.5" r="2.5" fill="#FF6F3D"/>
<circle cx="83.5" cy="48.5" r="2.5" fill="#FF6F3D"/>
<circle cx="83.5" cy="54.5" r="2.5" fill="#FFC93D"/>
<path d="M53.2295 63.1458L62.7295 64.6457L73.7296 60.6457L83.7296 62.6457L96.5 58.1458" stroke="#3DA2FF" stroke-opacity="0.4" stroke-width="2" stroke-linecap="round"/>
<circle cx="62.5" cy="64.6458" r="2.5" fill="#3DA2FF"/>
<circle cx="73.5" cy="60.6458" r="2.5" fill="#3DA2FF"/>
<circle cx="83.5" cy="62.6458" r="2.5" fill="#3DA2FF"/>
<circle cx="73.5" cy="43.5" r="2.5" fill="#FF6F3D"/>
</g>
<defs>
<clipPath id="clip0_26_69">
<rect width="168" height="80" fill="white"/>
</clipPath>
</defs>
</svg>
