<svg width="168" height="80" viewBox="0 0 168 80" fill="none" xmlns="http://www.w3.org/2000/svg">
<g clip-path="url(#clip0_26_2)">
<path d="M0.5 3C0.5 1.61929 1.61929 0.5 3 0.5H165C166.381 0.5 167.5 1.61929 167.5 3V77C167.5 78.3807 166.381 79.5 165 79.5H3C1.61929 79.5 0.5 78.3807 0.5 77V3Z" fill="#EFEFEF" stroke="#CCCCCC"/>
<path d="M20 19.5H19.5V20V79V79.5H20H149H149.5V79V20V19.5H149H20Z" fill="white" stroke="#CCCCCC"/>
<path d="M1 17H16V79H3C1.89543 79 1 78.1046 1 77V17Z" fill="#F5F5F5"/>
<path d="M167 17H152V79H165.015C166.111 79 167 77.8732 167 76.4832V17Z" fill="#F5F5F5"/>
<path d="M1 3C1 1.89543 1.89543 1 3 1H165C166.105 1 167 1.89543 167 3V9H1V3Z" fill="#446995"/>
<path fill-rule="evenodd" clip-rule="evenodd" d="M167 17H1V16H167V17Z" fill="#CCCCCC"/>
<path fill-rule="evenodd" clip-rule="evenodd" d="M17 16V79H16V16H17Z" fill="#CCCCCC"/>
<path fill-rule="evenodd" clip-rule="evenodd" d="M153 17V79H152V17H153Z" fill="#CCCCCC"/>
<rect x="52" y="35" width="81" height="9" rx="1" fill="#EFEFEF"/>
<rect x="29" y="35" width="20" height="9" rx="1" fill="#EFEFEF"/>
<rect x="52" y="46" width="81" height="9" rx="1" fill="#EFEFEF"/>
<rect x="29" y="46" width="20" height="9" rx="1" fill="#EFEFEF"/>
<rect x="52" y="57" width="81" height="9" rx="1" fill="#EFEFEF"/>
<rect x="29" y="57" width="20" height="9" rx="1" fill="#EFEFEF"/>
<rect x="52" y="68" width="81" height="9" rx="1" fill="#EFEFEF"/>
<rect x="29" y="68" width="20" height="9" rx="1" fill="#EFEFEF"/>
<rect x="29" y="24" width="104" height="9" rx="1" fill="#EFEFEF"/>
<rect x="55.75" y="71.75" width="70.5" height="1.5" rx="0.75" stroke="#FF6F3D" stroke-width="1.5"/>
<rect x="55.75" y="60.75" width="70.5" height="1.5" rx="0.75" stroke="#FF6F3D" stroke-width="1.5"/>
<rect x="55.75" y="38.75" width="70.5" height="1.5" rx="0.75" stroke="#FF6F3D" stroke-width="1.5"/>
<rect x="32.75" y="27.75" width="45.5" height="1.5" rx="0.75" stroke="#333333" stroke-opacity="0.3" stroke-width="1.5"/>
<rect x="32.75" y="38.75" width="12.5" height="1.5" rx="0.75" stroke="#B7B7B7" stroke-width="1.5"/>
<rect x="32.75" y="49.75" width="12.5" height="1.5" rx="0.75" stroke="#B7B7B7" stroke-width="1.5"/>
<rect x="32.75" y="60.75" width="12.5" height="1.5" rx="0.75" stroke="#B7B7B7" stroke-width="1.5"/>
<rect x="32.75" y="71.75" width="12.5" height="1.5" rx="0.75" stroke="#B7B7B7" stroke-width="1.5"/>
<rect x="55.75" y="49.75" width="70.5" height="1.5" rx="0.75" stroke="#FF6F3D" stroke-width="1.5"/>
</g>
<defs>
<clipPath id="clip0_26_2">
<rect width="168" height="80" fill="white"/>
</clipPath>
</defs>
</svg>
