<svg width="206" height="80" viewBox="0 0 206 80" fill="none" xmlns="http://www.w3.org/2000/svg">
<g clip-path="url(#clip0_172_83)">
<g clip-path="url(#clip1_172_83)">
<path d="M19.5 3C19.5 1.61929 20.6193 0.5 22 0.5H184C185.381 0.5 186.5 1.61929 186.5 3V77C186.5 78.3807 185.381 79.5 184 79.5H22C20.6193 79.5 19.5 78.3807 19.5 77V3Z" fill="#EFEFEF" stroke="#CCCCCC"/>
<path d="M39 19.5H38.5V20V79V79.5H39H168H168.5V79V20V19.5H168H39Z" fill="white" stroke="#CCCCCC"/>
<path d="M20 17H35V79H22C20.8954 79 20 78.1046 20 77V17Z" fill="#F5F5F5"/>
<path d="M186 17H171V79H184.015C185.111 79 186 77.8732 186 76.4832V17Z" fill="#F5F5F5"/>
<path d="M20 3C20 1.89543 20.8954 1 22 1H184C185.105 1 186 1.89543 186 3V9H20V3Z" fill="#446995"/>
<path fill-rule="evenodd" clip-rule="evenodd" d="M186 17H20V16H186V17Z" fill="#CCCCCC"/>
<path fill-rule="evenodd" clip-rule="evenodd" d="M36 16V79H35V16H36Z" fill="#CCCCCC"/>
<path fill-rule="evenodd" clip-rule="evenodd" d="M172 17V79H171V17H172Z" fill="#CCCCCC"/>
<rect x="50" y="33" width="31" height="2" rx="1" fill="#333333"/>
<rect x="50" y="26" width="38" height="4" rx="2" fill="url(#paint0_linear_172_83)"/>
<rect x="50.5" y="39.5" width="83" height="34" rx="0.5" fill="#F9F9F9" stroke="#333333"/>
<path d="M134.616 56H50V57H134.616V56Z" fill="#333333"/>
<path d="M98 40H97V73H98V40Z" fill="#333333"/>
<path d="M80 39H79V74H80V39Z" fill="#333333"/>
<path d="M116 40H115V73H116V40Z" fill="#333333"/>
<path fill-rule="evenodd" clip-rule="evenodd" d="M98 56H115V40H98V56Z" fill="#27ABA3"/>
<path fill-rule="evenodd" clip-rule="evenodd" d="M80 56H97V40H80V56Z" fill="#F2F2F2"/>
<path fill-rule="evenodd" clip-rule="evenodd" d="M116 56H133V40H116V56Z" fill="#F2F2F2"/>
<rect x="98" y="57" width="17" height="16" fill="#F2F2F2"/>
<rect x="80" y="57" width="17" height="16" fill="#FF783E"/>
<rect x="116" y="57" width="17" height="16" fill="#9ADAF3"/>
<rect x="101" y="47" width="11" height="1" rx="0.5" fill="#333333"/>
<rect x="83" y="47" width="11" height="1" rx="0.5" fill="#333333"/>
<rect x="119" y="47" width="11" height="1" rx="0.5" fill="#333333"/>
<rect x="101" y="65" width="11" height="1" rx="0.5" fill="#333333"/>
<rect x="83" y="65" width="11" height="1" rx="0.5" fill="#333333"/>
<rect x="119" y="65" width="11" height="1" rx="0.5" fill="#333333"/>
</g>
<circle cx="161.5" cy="43.5" r="32" transform="rotate(-180 161.5 43.5)" fill="#F5F5F5" stroke="#333333"/>
<mask id="path-29-inside-1_172_83" fill="white">
<path d="M180.388 72.7455C184.14 70.0909 187.332 66.7233 189.783 62.8349C192.234 58.9465 193.894 54.6134 194.671 50.0831L160.173 44.1732L180.388 72.7455Z"/>
</mask>
<path d="M180.388 72.7455C184.14 70.0909 187.332 66.7233 189.783 62.8349C192.234 58.9465 193.894 54.6134 194.671 50.0831L160.173 44.1732L180.388 72.7455Z" fill="url(#paint1_linear_172_83)" stroke="#333333" stroke-width="2" mask="url(#path-29-inside-1_172_83)"/>
<mask id="path-30-inside-2_172_83" fill="white">
<path d="M194.945 48.1617C195.826 40.4864 194.142 32.7356 190.156 26.1175L160.173 44.1732L194.945 48.1617Z"/>
</mask>
<path d="M194.945 48.1617C195.826 40.4864 194.142 32.7356 190.156 26.1175L160.173 44.1732L194.945 48.1617Z" fill="#27ABA3" stroke="#333333" stroke-width="2" mask="url(#path-30-inside-2_172_83)"/>
<mask id="path-31-inside-3_172_83" fill="white">
<path d="M189.45 24.9935C185.447 18.8824 179.631 14.1772 172.819 11.5376C166.006 8.89795 158.539 8.45624 151.463 10.2744L160.173 44.1732L189.45 24.9935Z"/>
</mask>
<path d="M189.45 24.9935C185.447 18.8824 179.631 14.1772 172.819 11.5376C166.006 8.89795 158.539 8.45624 151.463 10.2744L160.173 44.1732L189.45 24.9935Z" fill="#9ADAF3" stroke="#333333" stroke-width="2" mask="url(#path-31-inside-3_172_83)"/>
<circle cx="161.5" cy="44.5" r="2.5" fill="#444444"/>
</g>
<defs>
<linearGradient id="paint0_linear_172_83" x1="69" y1="26" x2="69" y2="30" gradientUnits="userSpaceOnUse">
<stop stop-color="#FF8E3D"/>
<stop offset="1" stop-color="#FF6F3D"/>
</linearGradient>
<linearGradient id="paint1_linear_172_83" x1="126.48" y1="5.26734" x2="193.959" y2="80.3464" gradientUnits="userSpaceOnUse">
<stop stop-color="#FF8E3D"/>
<stop offset="1" stop-color="#FF6F3D"/>
</linearGradient>
<clipPath id="clip0_172_83">
<rect width="206" height="80" fill="white"/>
</clipPath>
<clipPath id="clip1_172_83">
<rect width="168" height="80" fill="white" transform="translate(19)"/>
</clipPath>
</defs>
</svg>
