<svg width="168" height="80" viewBox="0 0 168 80" fill="none" xmlns="http://www.w3.org/2000/svg">
<g clip-path="url(#clip0_6_2)">
<path d="M0.5 3C0.5 1.61929 1.61929 0.5 3 0.5H165C166.381 0.5 167.5 1.61929 167.5 3V77C167.5 78.3807 166.381 79.5 165 79.5H3C1.61929 79.5 0.5 78.3807 0.5 77V3Z" fill="#EFEFEF" stroke="#CCCCCC"/>
<path d="M20 19.5H19.5V20V79V79.5H20H149H149.5V79V20V19.5H149H20Z" fill="white" stroke="#CCCCCC"/>
<path d="M1 17H16V79H3C1.89543 79 1 78.1046 1 77V17Z" fill="#F5F5F5"/>
<path d="M167 17H152V79H165.015C166.111 79 167 77.8732 167 76.4832V17Z" fill="#F5F5F5"/>
<path d="M1 3C1 1.89543 1.89543 1 3 1H165C166.105 1 167 1.89543 167 3V9H1V3Z" fill="#446995"/>
<path fill-rule="evenodd" clip-rule="evenodd" d="M167 17H1V16H167V17Z" fill="#CCCCCC"/>
<path fill-rule="evenodd" clip-rule="evenodd" d="M17 16V79H16V16H17Z" fill="#CCCCCC"/>
<path fill-rule="evenodd" clip-rule="evenodd" d="M153 17V79H152V17H153Z" fill="#CCCCCC"/>
<rect x="106" y="34" width="34" height="9" rx="1" fill="#BDECFF"/>
<rect x="70" y="24" width="70" height="8" rx="1" fill="#BDECFF"/>
<rect x="29" y="24" width="39" height="39" rx="1" fill="#BDECFF"/>
<rect x="29" y="64" width="39" height="9" rx="1" fill="#BDECFF"/>
<rect x="108.5" y="35.5" width="29" height="6" rx="1.5" fill="#FFCEB2" stroke="#333333"/>
<rect x="70" y="34" width="34" height="9" rx="1" fill="#BDECFF"/>
<rect x="72.5" y="35.5" width="29" height="6" rx="1.5" fill="#FFCEB2" stroke="#333333"/>
<rect x="106" y="44" width="34" height="9" rx="1" fill="#BDECFF"/>
<rect x="108.5" y="45.5" width="29" height="6" rx="1.5" fill="#FFCEB2" stroke="#333333"/>
<rect x="70" y="44" width="34" height="9" rx="1" fill="#BDECFF"/>
<rect x="72.5" y="45.5" width="29" height="6" rx="1.5" fill="#FFCEB2" stroke="#333333"/>
<rect x="106" y="54" width="34" height="9" rx="1" fill="#BDECFF"/>
<rect x="108.5" y="55.5" width="29" height="6" rx="1.5" fill="#FFCEB2" stroke="#333333"/>
<rect x="70" y="54" width="34" height="9" rx="1" fill="#BDECFF"/>
<rect x="72.5" y="55.5" width="29" height="6" rx="1.5" fill="#FFCEB2" stroke="#333333"/>
<rect x="106" y="64" width="34" height="9" rx="1" fill="#BDECFF"/>
<rect x="108.5" y="65.5" width="29" height="6" rx="1.5" fill="#FFCEB2" stroke="#333333"/>
<rect x="70" y="64" width="34" height="9" rx="1" fill="#BDECFF"/>
<rect x="72.5" y="65.5" width="29" height="6" rx="1.5" fill="#FFCEB2" stroke="#333333"/>
<path d="M61.5611 61H35.6406C33.151 61 31.1008 58.9583 31.1008 56.4792V30.5208C31.1008 28.0417 33.151 26 35.6406 26H61.5611C64.0506 26 66.1008 28.0417 66.1008 30.5208V56.3333C66.1008 58.9583 64.0506 61 61.5611 61Z" fill="white" stroke="#333333" stroke-miterlimit="10" stroke-linecap="round" stroke-linejoin="round"/>
<path d="M52.5853 51.8109L38.3139 36L31.2111 42.982C31.2111 45.9685 30.0682 60.5 33.1008 60.5H63.8549C66.8875 60.5 66.0971 46.6892 66.0971 43.7027L63.289 41.2702L52.5853 51.8109Z" fill="url(#paint0_linear_6_2)" fill-opacity="0.4"/>
<path d="M52.6008 41C55.6384 41 58.1008 38.5376 58.1008 35.4999C58.1008 32.4624 55.6384 30 52.6008 30C49.5633 30 47.1008 32.4624 47.1008 35.4999C47.1008 38.5376 49.5633 41 52.6008 41Z" fill="url(#paint1_linear_6_2)" fill-opacity="0.4"/>
<path d="M61.4602 61H35.5397C33.0502 61 31 58.9583 31 56.4792V30.5208C31 28.0417 33.0502 26 35.5397 26H61.4602C63.9498 26 66 28.0417 66 30.5208V56.3333C66 58.9583 63.9498 61 61.4602 61Z" stroke="#333333" stroke-miterlimit="10" stroke-linecap="round" stroke-linejoin="round"/>
<rect x="31.5" y="65.5" width="34" height="6" rx="1.5" fill="#FFCEB2" stroke="#333333"/>
</g>
<defs>
<linearGradient id="paint0_linear_6_2" x1="19.5825" y1="48.7364" x2="78.4526" y2="48.7364" gradientUnits="userSpaceOnUse">
<stop stop-color="#FF8E3D"/>
<stop offset="1" stop-color="#FF6F3D"/>
</linearGradient>
<linearGradient id="paint1_linear_6_2" x1="47.1008" y1="35.4999" x2="58.1008" y2="35.4999" gradientUnits="userSpaceOnUse">
<stop stop-color="#FF8E3D"/>
<stop offset="1" stop-color="#FF6F3D"/>
</linearGradient>
<clipPath id="clip0_6_2">
<rect width="168" height="80" fill="white"/>
</clipPath>
</defs>
</svg>
