<svg width="206" height="80" viewBox="0 0 206 80" fill="none" xmlns="http://www.w3.org/2000/svg">
<g clip-path="url(#clip0_34_272)">
<path d="M19.5 3C19.5 1.61929 20.6193 0.5 22 0.5H184C185.381 0.5 186.5 1.61929 186.5 3V77C186.5 78.3807 185.381 79.5 184 79.5H22C20.6193 79.5 19.5 78.3807 19.5 77V3Z" fill="#EFEFEF" stroke="#CCCCCC"/>
<path d="M39 19.5H38.5V20V79V79.5H39H168H168.5V79V20V19.5H168H39Z" fill="white" stroke="#CCCCCC"/>
<path d="M20 17H35V79H22C20.8954 79 20 78.1046 20 77V17Z" fill="#F5F5F5"/>
<path d="M186 17H171V79H184.015C185.111 79 186 77.8732 186 76.4832V17Z" fill="#F5F5F5"/>
<path d="M20 3C20 1.89543 20.8954 1 22 1H184C185.105 1 186 1.89543 186 3V9H20V3Z" fill="#446995"/>
<path fill-rule="evenodd" clip-rule="evenodd" d="M186 17H20V16H186V17Z" fill="#CCCCCC"/>
<path fill-rule="evenodd" clip-rule="evenodd" d="M36 16V79H35V16H36Z" fill="#CCCCCC"/>
<path fill-rule="evenodd" clip-rule="evenodd" d="M172 17V79H171V17H172Z" fill="#CCCCCC"/>
<path fill-rule="evenodd" clip-rule="evenodd" d="M97 26C97 25.4477 96.5523 25 96 25H56C55.4477 25 55 25.4477 55 26C55 26.5523 55.4477 27 56 27H96C96.5523 27 97 26.5523 97 26Z" fill="url(#paint0_linear_34_272)"/>
<path fill-rule="evenodd" clip-rule="evenodd" d="M84 33C84 32.4477 83.6909 32 83.3095 32H55.6905C55.3091 32 55 32.4477 55 33C55 33.5523 55.3091 34 55.6905 34H83.3095C83.6909 34 84 33.5523 84 33Z" fill="#444444"/>
<path fill-rule="evenodd" clip-rule="evenodd" d="M55.1919 71C55.1919 72.1045 56.259 73 57.5755 73H137.425C138.741 73 139.808 72.1046 139.808 71V42C139.808 40.8954 138.741 40 137.425 40L57.576 40C56.2596 40 55.1924 40.8954 55.1924 42L55.1919 71Z" fill="#BDECFF"/>
<path fill-rule="evenodd" clip-rule="evenodd" d="M101.671 73V56H55.1919V71.2969C55.1919 72.2305 56.0677 72.9897 57.1448 72.9897H101.671V73Z" fill="#FEFEFE"/>
<path fill-rule="evenodd" clip-rule="evenodd" d="M101.671 56H119.548V40H101.671V56Z" fill="#FEFEFE"/>
<path fill-rule="evenodd" clip-rule="evenodd" d="M120.74 73H137.808C138.913 73 139.808 72.1046 139.808 71V57H120.74V73Z" fill="#FEFEFE"/>
<path d="M139.808 56H55.1919V57H139.808V56Z" fill="#333333"/>
<path d="M101.671 40H100.479V73H101.671V40Z" fill="#333333"/>
<path d="M120.74 40H119.548V73H120.74V40Z" fill="#333333"/>
<path fill-rule="evenodd" clip-rule="evenodd" d="M135.041 47.4977C135.041 47.3721 134.957 47.2512 134.813 47.1674C134.645 47.0651 134.393 47 134.106 47H126.442C126.154 47 125.903 47.0651 125.735 47.1674C125.591 47.2558 125.507 47.3721 125.507 47.4977C125.507 47.6233 125.591 47.7442 125.735 47.8279C125.903 47.9349 126.154 48 126.442 48H134.106C134.393 48 134.645 47.9349 134.813 47.8279C134.957 47.7442 135.041 47.6279 135.041 47.4977Z" fill="#333333"/>
<path fill-rule="evenodd" clip-rule="evenodd" d="M93.3287 47.4977C93.3287 47.3721 93.2553 47.2512 93.1293 47.1674C92.9824 47.0651 92.7621 47 92.5102 47H64.3527C64.1008 47 63.8805 47.0651 63.7336 47.1674C63.6076 47.2558 63.5342 47.3721 63.5342 47.4977C63.5342 47.6233 63.6076 47.7442 63.7336 47.8279C63.8805 47.9349 64.1008 48 64.3527 48H92.5102C92.7621 48 92.9824 47.9349 93.1293 47.8279C93.2553 47.7442 93.3287 47.6279 93.3287 47.4977Z" fill="#333333"/>
<path fill-rule="evenodd" clip-rule="evenodd" d="M115.973 47.4977C115.973 47.3721 115.899 47.2512 115.773 47.1674C115.626 47.0651 115.406 47 115.154 47H106.065C105.813 47 105.593 47.0651 105.446 47.1674C105.32 47.2558 105.247 47.3721 105.247 47.4977C105.247 47.6233 105.32 47.7442 105.446 47.8279C105.593 47.9349 105.813 48 106.065 48H115.154C115.406 48 115.626 47.9349 115.773 47.8279C115.899 47.7442 115.973 47.6279 115.973 47.4977Z" fill="#333333"/>
<path fill-rule="evenodd" clip-rule="evenodd" d="M115.973 64.4977C115.973 64.3721 115.899 64.2512 115.773 64.1674C115.626 64.0651 115.406 64 115.154 64H106.065C105.813 64 105.593 64.0651 105.446 64.1674C105.32 64.2558 105.247 64.3721 105.247 64.4977C105.247 64.6233 105.32 64.7442 105.446 64.8279C105.593 64.9349 105.813 65 106.065 65H115.154C115.406 65 115.626 64.9349 115.773 64.8279C115.899 64.7442 115.973 64.6279 115.973 64.4977Z" fill="#333333"/>
<path fill-rule="evenodd" clip-rule="evenodd" d="M133.849 64.4977C133.849 64.3721 133.776 64.2512 133.65 64.1674C133.503 64.0651 133.283 64 133.031 64H125.134C124.882 64 124.661 64.0651 124.514 64.1674C124.389 64.2558 124.315 64.3721 124.315 64.4977C124.315 64.6233 124.389 64.7442 124.514 64.8279C124.661 64.9349 124.882 65 125.134 65H133.031C133.283 65 133.503 64.9349 133.65 64.8279C133.776 64.7442 133.849 64.6279 133.849 64.4977Z" fill="#333333"/>
<path fill-rule="evenodd" clip-rule="evenodd" d="M93.3287 64.4977C93.3287 64.3721 93.2553 64.2512 93.1293 64.1674C92.9824 64.0651 92.7621 64 92.5102 64H64.3527C64.1008 64 63.8805 64.0651 63.7336 64.1674C63.6076 64.2558 63.5342 64.3721 63.5342 64.4977C63.5342 64.6233 63.6076 64.7442 63.7336 64.8279C63.8805 64.9349 64.1008 65 64.3527 65H92.5102C92.7621 65 92.9824 64.9349 93.1293 64.8279C93.2553 64.7442 93.3287 64.6279 93.3287 64.4977Z" fill="#333333"/>
<path fill-rule="evenodd" clip-rule="evenodd" d="M137.425 74H57.5753C55.6007 74 54 72.6568 54 70.9999L54.0005 42C54.0005 40.3431 55.6013 39 57.5758 39L137.425 39C139.399 39 141 40.3431 141 42V71C141 72.6568 139.399 74 137.425 74ZM57.5753 73C56.2589 73 55.1918 72.1045 55.1918 71L55.1923 42C55.1923 40.8954 56.2595 40 57.5758 40L137.425 40C138.741 40 139.808 40.8954 139.808 42V71C139.808 72.1046 138.741 73 137.425 73H57.5753Z" fill="#333333"/>
</g>
<path d="M155.887 16.4339C155.887 14.4748 157.475 12.8867 159.434 12.8867H197.566C199.525 12.8867 201.113 14.4748 201.113 16.4339V73.1886C201.113 75.1476 199.525 76.7358 197.566 76.7358H159.434C157.475 76.7358 155.887 75.1476 155.887 73.1886V16.4339Z" fill="white"/>
<path fill-rule="evenodd" clip-rule="evenodd" d="M159.434 12H197.566C200.015 12 202 13.9852 202 16.434V73.1887C202 75.6375 200.015 77.6226 197.566 77.6226H159.434C156.985 77.6226 155 75.6375 155 73.1887V16.434C155 13.9852 156.985 12 159.434 12ZM159.434 12.8868C157.475 12.8868 155.887 14.4749 155.887 16.434V73.1887C155.887 75.1477 157.475 76.7358 159.434 76.7358H197.566C199.525 76.7358 201.113 75.1477 201.113 73.1887V16.434C201.113 14.4749 199.525 12.8868 197.566 12.8868H159.434Z" fill="#333333"/>
<path d="M155.887 16.4339C155.887 14.4748 157.475 12.8867 159.434 12.8867H197.566C199.525 12.8867 201.113 14.4748 201.113 16.4339V35.0565H155.887V16.4339Z" fill="#EFEFEF"/>
<path fill-rule="evenodd" clip-rule="evenodd" d="M202 35.9434H155V16.434C155 13.9852 156.985 12 159.434 12H197.566C200.015 12 202 13.9852 202 16.434V35.9434ZM159.434 12.8868C157.475 12.8868 155.887 14.4749 155.887 16.434V35.0566H201.113V16.434C201.113 14.4749 199.525 12.8868 197.566 12.8868H159.434Z" fill="#333333"/>
<path d="M161.208 19.9811C161.208 19.0016 162.002 18.2075 162.981 18.2075H194.019C194.998 18.2075 195.792 19.0016 195.792 19.9811V27.9622C195.792 28.9418 194.998 29.7358 194.019 29.7358H162.981C162.002 29.7358 161.208 28.9418 161.208 27.9622V19.9811Z" fill="#BDECFF"/>
<path fill-rule="evenodd" clip-rule="evenodd" d="M162.981 17.3208H194.019C195.488 17.3208 196.679 18.5119 196.679 19.9812V27.9623C196.679 29.4316 195.488 30.6227 194.019 30.6227H162.981C161.512 30.6227 160.321 29.4316 160.321 27.9623V19.9812C160.321 18.5119 161.512 17.3208 162.981 17.3208ZM162.981 18.2076C162.002 18.2076 161.208 19.0017 161.208 19.9812V27.9623C161.208 28.9418 162.002 29.7359 162.981 29.7359H194.019C194.998 29.7359 195.792 28.9418 195.792 27.9623V19.9812C195.792 19.0017 194.998 18.2076 194.019 18.2076H162.981Z" fill="#333333"/>
<path d="M160.321 42.151C160.321 41.6612 160.718 41.2642 161.208 41.2642H168.302C168.792 41.2642 169.189 41.6612 169.189 42.151V47.4717C169.189 47.9615 168.792 48.3585 168.302 48.3585H161.208C160.718 48.3585 160.321 47.9615 160.321 47.4717V42.151Z" fill="#EFEFEF"/>
<path fill-rule="evenodd" clip-rule="evenodd" d="M161.208 40.3773H168.302C169.281 40.3773 170.075 41.1714 170.075 42.1509V47.4717C170.075 48.4512 169.281 49.2452 168.302 49.2452H161.208C160.228 49.2452 159.434 48.4512 159.434 47.4717V42.1509C159.434 41.1714 160.228 40.3773 161.208 40.3773ZM161.208 41.2641C160.718 41.2641 160.321 41.6611 160.321 42.1509V47.4717C160.321 47.9614 160.718 48.3585 161.208 48.3585H168.302C168.792 48.3585 169.189 47.9614 169.189 47.4717V42.1509C169.189 41.6611 168.792 41.2641 168.302 41.2641H161.208Z" fill="#333333"/>
<path d="M160.321 53.6793C160.321 53.1895 160.718 52.7925 161.208 52.7925H168.302C168.792 52.7925 169.189 53.1895 169.189 53.6793V59C169.189 59.4898 168.792 59.8868 168.302 59.8868H161.208C160.718 59.8868 160.321 59.4898 160.321 59V53.6793Z" fill="#EFEFEF"/>
<path fill-rule="evenodd" clip-rule="evenodd" d="M161.208 51.9056H168.302C169.281 51.9056 170.075 52.6997 170.075 53.6792V59C170.075 59.9795 169.281 60.7736 168.302 60.7736H161.208C160.228 60.7736 159.434 59.9795 159.434 59V53.6792C159.434 52.6997 160.228 51.9056 161.208 51.9056ZM161.208 52.7924C160.718 52.7924 160.321 53.1895 160.321 53.6792V59C160.321 59.4897 160.718 59.8868 161.208 59.8868H168.302C168.792 59.8868 169.189 59.4897 169.189 59V53.6792C169.189 53.1895 168.792 52.7924 168.302 52.7924H161.208Z" fill="#333333"/>
<path d="M160.321 65.2076C160.321 64.7178 160.718 64.3208 161.208 64.3208H168.302C168.792 64.3208 169.189 64.7178 169.189 65.2076V70.5283C169.189 71.0181 168.792 71.4151 168.302 71.4151H161.208C160.718 71.4151 160.321 71.0181 160.321 70.5283V65.2076Z" fill="#EFEFEF"/>
<path fill-rule="evenodd" clip-rule="evenodd" d="M161.208 63.434H168.302C169.281 63.434 170.075 64.228 170.075 65.2075V70.5283C170.075 71.5078 169.281 72.3019 168.302 72.3019H161.208C160.228 72.3019 159.434 71.5078 159.434 70.5283V65.2075C159.434 64.228 160.228 63.434 161.208 63.434ZM161.208 64.3208C160.718 64.3208 160.321 64.7178 160.321 65.2075V70.5283C160.321 71.0181 160.718 71.4151 161.208 71.4151H168.302C168.792 71.4151 169.189 71.0181 169.189 70.5283V65.2075C169.189 64.7178 168.792 64.3208 168.302 64.3208H161.208Z" fill="#333333"/>
<path d="M173.623 42.151C173.623 41.6612 174.02 41.2642 174.509 41.2642H181.604C182.094 41.2642 182.491 41.6612 182.491 42.151V47.4717C182.491 47.9615 182.094 48.3585 181.604 48.3585H174.509C174.02 48.3585 173.623 47.9615 173.623 47.4717V42.151Z" fill="#EFEFEF"/>
<path fill-rule="evenodd" clip-rule="evenodd" d="M174.509 40.3773H181.604C182.583 40.3773 183.377 41.1714 183.377 42.1509V47.4717C183.377 48.4512 182.583 49.2452 181.604 49.2452H174.509C173.53 49.2452 172.736 48.4512 172.736 47.4717V42.1509C172.736 41.1714 173.53 40.3773 174.509 40.3773ZM174.509 41.2641C174.02 41.2641 173.623 41.6611 173.623 42.1509V47.4717C173.623 47.9614 174.02 48.3585 174.509 48.3585H181.604C182.094 48.3585 182.491 47.9614 182.491 47.4717V42.1509C182.491 41.6611 182.094 41.2641 181.604 41.2641H174.509Z" fill="#333333"/>
<path d="M173.623 53.6793C173.623 53.1895 174.02 52.7925 174.509 52.7925H181.604C182.094 52.7925 182.491 53.1895 182.491 53.6793V59C182.491 59.4898 182.094 59.8868 181.604 59.8868H174.509C174.02 59.8868 173.623 59.4898 173.623 59V53.6793Z" fill="#EFEFEF"/>
<path fill-rule="evenodd" clip-rule="evenodd" d="M174.509 51.9056H181.604C182.583 51.9056 183.377 52.6997 183.377 53.6792V59C183.377 59.9795 182.583 60.7736 181.604 60.7736H174.509C173.53 60.7736 172.736 59.9795 172.736 59V53.6792C172.736 52.6997 173.53 51.9056 174.509 51.9056ZM174.509 52.7924C174.02 52.7924 173.623 53.1895 173.623 53.6792V59C173.623 59.4897 174.02 59.8868 174.509 59.8868H181.604C182.094 59.8868 182.491 59.4897 182.491 59V53.6792C182.491 53.1895 182.094 52.7924 181.604 52.7924H174.509Z" fill="#333333"/>
<path d="M173.623 65.2076C173.623 64.7178 174.02 64.3208 174.509 64.3208H181.604C182.094 64.3208 182.491 64.7178 182.491 65.2076V70.5283C182.491 71.0181 182.094 71.4151 181.604 71.4151H174.509C174.02 71.4151 173.623 71.0181 173.623 70.5283V65.2076Z" fill="#EFEFEF"/>
<path fill-rule="evenodd" clip-rule="evenodd" d="M174.509 63.434H181.604C182.583 63.434 183.377 64.228 183.377 65.2075V70.5283C183.377 71.5078 182.583 72.3019 181.604 72.3019H174.509C173.53 72.3019 172.736 71.5078 172.736 70.5283V65.2075C172.736 64.228 173.53 63.434 174.509 63.434ZM174.509 64.3208C174.02 64.3208 173.623 64.7178 173.623 65.2075V70.5283C173.623 71.0181 174.02 71.4151 174.509 71.4151H181.604C182.094 71.4151 182.491 71.0181 182.491 70.5283V65.2075C182.491 64.7178 182.094 64.3208 181.604 64.3208H174.509Z" fill="#333333"/>
<path d="M186.925 42.151C186.925 41.6612 187.322 41.2642 187.811 41.2642H194.906C195.395 41.2642 195.792 41.6612 195.792 42.151V47.4717C195.792 47.9615 195.395 48.3585 194.906 48.3585H187.811C187.322 48.3585 186.925 47.9615 186.925 47.4717V42.151Z" fill="url(#paint1_linear_34_272)"/>
<path fill-rule="evenodd" clip-rule="evenodd" d="M187.811 40.3773H194.906C195.885 40.3773 196.679 41.1714 196.679 42.1509V47.4717C196.679 48.4512 195.885 49.2452 194.906 49.2452H187.811C186.832 49.2452 186.038 48.4512 186.038 47.4717V42.1509C186.038 41.1714 186.832 40.3773 187.811 40.3773ZM187.811 41.2641C187.322 41.2641 186.925 41.6611 186.925 42.1509V47.4717C186.925 47.9614 187.322 48.3585 187.811 48.3585H194.906C195.395 48.3585 195.792 47.9614 195.792 47.4717V42.1509C195.792 41.6611 195.395 41.2641 194.906 41.2641H187.811Z" fill="#333333"/>
<path d="M186.925 53.6793C186.925 53.1895 187.322 52.7925 187.811 52.7925H194.906C195.395 52.7925 195.792 53.1895 195.792 53.6793V59C195.792 59.4898 195.395 59.8868 194.906 59.8868H187.811C187.322 59.8868 186.925 59.4898 186.925 59V53.6793Z" fill="#EFEFEF"/>
<path fill-rule="evenodd" clip-rule="evenodd" d="M187.811 51.9056H194.906C195.885 51.9056 196.679 52.6997 196.679 53.6792V59C196.679 59.9795 195.885 60.7736 194.906 60.7736H187.811C186.832 60.7736 186.038 59.9795 186.038 59V53.6792C186.038 52.6997 186.832 51.9056 187.811 51.9056ZM187.811 52.7924C187.322 52.7924 186.925 53.1895 186.925 53.6792V59C186.925 59.4897 187.322 59.8868 187.811 59.8868H194.906C195.395 59.8868 195.792 59.4897 195.792 59V53.6792C195.792 53.1895 195.395 52.7924 194.906 52.7924H187.811Z" fill="#333333"/>
<path d="M186.925 65.2076C186.925 64.7178 187.322 64.3208 187.811 64.3208H194.906C195.395 64.3208 195.792 64.7178 195.792 65.2076V70.5283C195.792 71.0181 195.395 71.4151 194.906 71.4151H187.811C187.322 71.4151 186.925 71.0181 186.925 70.5283V65.2076Z" fill="#EFEFEF"/>
<path fill-rule="evenodd" clip-rule="evenodd" d="M187.811 63.434H194.906C195.885 63.434 196.679 64.228 196.679 65.2075V70.5283C196.679 71.5078 195.885 72.3019 194.906 72.3019H187.811C186.832 72.3019 186.038 71.5078 186.038 70.5283V65.2075C186.038 64.228 186.832 63.434 187.811 63.434ZM187.811 64.3208C187.322 64.3208 186.925 64.7178 186.925 65.2075V70.5283C186.925 71.0181 187.322 71.4151 187.811 71.4151H194.906C195.395 71.4151 195.792 71.0181 195.792 70.5283V65.2075C195.792 64.7178 195.395 64.3208 194.906 64.3208H187.811Z" fill="#333333"/>
<path d="M172.972 24.3334C173.191 24.4523 173.36 24.5984 173.478 24.7718C173.601 24.9452 173.663 25.1261 173.663 25.3143V25.6116C173.663 25.8989 173.585 26.154 173.43 26.377C173.274 26.5999 173.055 26.7733 172.771 26.8972C172.493 27.0161 172.169 27.0755 171.799 27.0755H171.02C170.447 27.0755 169.997 26.9244 169.671 26.6222C169.349 26.32 169.189 25.8989 169.189 25.3589H170.281C170.281 25.6165 170.345 25.8172 170.474 25.9608C170.602 26.0995 170.784 26.1689 171.02 26.1689H171.799C172.024 26.1689 172.206 26.1194 172.345 26.0203C172.485 25.9162 172.554 25.78 172.554 25.6116V25.3143C172.554 25.1607 172.482 25.0369 172.337 24.9428C172.193 24.8486 172.005 24.8016 171.775 24.8016H170.747V23.9098H171.775C171.979 23.9098 172.142 23.8652 172.265 23.7761C172.388 23.6819 172.45 23.5605 172.45 23.4119V23.1147C172.45 22.976 172.391 22.867 172.273 22.7877C172.155 22.7035 172.003 22.6614 171.815 22.6614H171.036C170.817 22.6614 170.645 22.7332 170.522 22.8769C170.404 23.0156 170.345 23.2138 170.345 23.4714H169.229C169.229 22.9314 169.387 22.5103 169.703 22.2081C170.024 21.9059 170.468 21.7548 171.036 21.7548H171.815C172.158 21.7548 172.461 21.8117 172.723 21.9257C172.991 22.0396 173.197 22.2006 173.341 22.4087C173.486 22.6118 173.558 22.8471 173.558 23.1147V23.4119C173.558 23.5952 173.507 23.7661 173.406 23.9247C173.304 24.0832 173.159 24.2194 172.972 24.3334Z" fill="#333333"/>
<path d="M176.379 27.0755C176.004 27.0755 175.672 27.0012 175.383 26.8526C175.094 26.699 174.869 26.4835 174.708 26.2061C174.548 25.9286 174.467 25.6091 174.467 25.2474V23.5828C174.467 23.2212 174.545 22.9016 174.7 22.6242C174.861 22.3468 175.086 22.1338 175.375 21.9851C175.664 21.8315 175.999 21.7548 176.379 21.7548H177.231C177.6 21.7548 177.927 21.8315 178.211 21.9851C178.494 22.1338 178.714 22.3468 178.869 22.6242C179.03 22.9016 179.11 23.2212 179.11 23.5828V25.2474C179.11 25.6091 179.033 25.9286 178.877 26.2061C178.722 26.4835 178.503 26.699 178.219 26.8526C177.935 27.0012 177.606 27.0755 177.231 27.0755H176.379ZM177.215 26.1689C177.45 26.1689 177.638 26.0872 177.777 25.9237C177.921 25.7552 177.994 25.5348 177.994 25.2623V23.568C177.994 23.2955 177.921 23.0775 177.777 22.914C177.638 22.7456 177.45 22.6614 177.215 22.6614H176.395C176.149 22.6614 175.951 22.7456 175.801 22.914C175.651 23.0775 175.576 23.2955 175.576 23.568V25.2623C175.576 25.5348 175.651 25.7552 175.801 25.9237C175.951 26.0872 176.149 26.1689 176.395 26.1689H177.215Z" fill="#333333"/>
<path d="M181.422 25.0468H179.96V24.1699H181.422V22.8174H182.515V24.1699H183.977V25.0468H182.515V26.3993H181.422V25.0468Z" fill="#333333"/>
<path d="M184.709 26.2729C184.709 25.9757 184.768 25.7181 184.886 25.5001C185.004 25.2821 185.204 25.0939 185.488 24.9353L187.48 23.8355C187.577 23.786 187.652 23.7166 187.705 23.6274C187.764 23.5383 187.793 23.4491 187.793 23.3599V23.1221C187.793 22.9834 187.737 22.8719 187.625 22.7877C187.518 22.7035 187.376 22.6614 187.199 22.6614H186.46C186.251 22.6614 186.088 22.7332 185.97 22.8769C185.852 23.0156 185.793 23.2138 185.793 23.4714H184.685C184.685 22.9314 184.84 22.5103 185.151 22.2081C185.461 21.9059 185.892 21.7548 186.444 21.7548H187.199C187.536 21.7548 187.834 21.8117 188.091 21.9257C188.348 22.0396 188.546 22.2006 188.685 22.4087C188.83 22.6168 188.902 22.8546 188.902 23.1221V23.3599C188.902 23.6274 188.84 23.8578 188.717 24.051C188.599 24.2393 188.412 24.4028 188.155 24.5415L186.219 25.5818C186.091 25.6512 185.992 25.728 185.922 25.8122C185.858 25.8964 185.826 26.0005 185.826 26.1243H188.934V27.0161H184.709V26.2729Z" fill="#333333"/>
<path d="M191.36 27.0755C190.803 27.0755 190.369 26.9294 190.059 26.6371C189.748 26.3448 189.593 25.9385 189.593 25.4184H190.685C190.685 25.6512 190.744 25.8345 190.862 25.9683C190.98 26.102 191.146 26.1689 191.36 26.1689H192.131C192.367 26.1689 192.554 26.1095 192.693 25.9906C192.838 25.8717 192.91 25.7131 192.91 25.515V25.1137C192.91 24.9403 192.835 24.7991 192.685 24.6901C192.541 24.5811 192.348 24.5266 192.107 24.5266H189.786V21.8142H193.81V22.7208H190.894V23.62H192.107C192.487 23.62 192.822 23.6819 193.111 23.8058C193.4 23.9296 193.623 24.1055 193.778 24.3334C193.938 24.5563 194.019 24.8164 194.019 25.1137V25.515C194.019 25.8221 193.938 26.0946 193.778 26.3324C193.623 26.5702 193.403 26.7535 193.119 26.8823C192.835 27.0111 192.506 27.0755 192.131 27.0755H191.36Z" fill="#333333"/>
<defs>
<linearGradient id="paint0_linear_34_272" x1="96.9999" y1="24.9219" x2="96.8169" y2="28.9164" gradientUnits="userSpaceOnUse">
<stop stop-color="#FF8E3D"/>
<stop offset="1" stop-color="#FF6F3D"/>
</linearGradient>
<linearGradient id="paint1_linear_34_272" x1="186.925" y1="40.987" x2="193.788" y2="49.9017" gradientUnits="userSpaceOnUse">
<stop stop-color="#FFC671"/>
<stop offset="0.59375" stop-color="#FF7541"/>
<stop offset="1" stop-color="#FF6F3D"/>
</linearGradient>
<clipPath id="clip0_34_272">
<rect width="168" height="80" fill="white" transform="translate(19)"/>
</clipPath>
</defs>
</svg>
