<svg width="168" height="80" viewBox="0 0 168 80" fill="none" xmlns="http://www.w3.org/2000/svg">
<g clip-path="url(#clip0_4_109)">
<path d="M0.5 3C0.5 1.61929 1.61929 0.5 3 0.5H165C166.381 0.5 167.5 1.61929 167.5 3V77C167.5 78.3807 166.381 79.5 165 79.5H3C1.61929 79.5 0.5 78.3807 0.5 77V3Z" fill="#EFEFEF" stroke="#CCCCCC"/>
<path d="M20 19.5H19.5V20V79V79.5H20H149H149.5V79V20V19.5H149H20Z" fill="white" stroke="#CCCCCC"/>
<path d="M1 17H16V79H3C1.89543 79 1 78.1046 1 77V17Z" fill="#F5F5F5"/>
<path d="M167 17H152V79H165.015C166.111 79 167 77.8732 167 76.4832V17Z" fill="#F5F5F5"/>
<path d="M1 3C1 1.89543 1.89543 1 3 1H165C166.105 1 167 1.89543 167 3V9H1V3Z" fill="#446995"/>
<path fill-rule="evenodd" clip-rule="evenodd" d="M167 17H1V16H167V17Z" fill="#CCCCCC"/>
<path fill-rule="evenodd" clip-rule="evenodd" d="M17 16V79H16V16H17Z" fill="#CCCCCC"/>
<path fill-rule="evenodd" clip-rule="evenodd" d="M153 17V79H152V17H153Z" fill="#CCCCCC"/>
<path d="M49.8 68H32.1C30.4 68 29 66.6 29 64.9V47.1C29 45.4 30.4 44 32.1 44H49.8C51.5 44 52.9 45.4 52.9 47.1V64.8C52.9 66.6 51.5 68 49.8 68Z" fill="white" stroke="#333333" stroke-miterlimit="10" stroke-linecap="round" stroke-linejoin="round"/>
<path d="M33.4 64.5C32.8 64.5 32.4 64.1 32.4 63.5V53.5C32.4 53 32.8 52.5 33.4 52.5C33.9 52.5 34.4 52.9 34.4 53.5V63.5C34.4 64.1 34 64.5 33.4 64.5Z" fill="#FF6F3D"/>
<path d="M38.7 64.5H38.2C37.8 64.5 37.5 64.2 37.5 63.8V58.3C37.5 57.9 37.8 57.6 38.2 57.6H38.7C39.1 57.6 39.4 57.9 39.4 58.3V63.8C39.4 64.2 39.1 64.5 38.7 64.5Z" fill="#FF6F3D"/>
<path d="M43.4 64.5C42.8 64.5 42.4 64.1 42.4 63.5V53.5C42.4 53 42.8 52.5 43.4 52.5C43.9 52.5 44.4 52.9 44.4 53.5V63.5C44.4 64.1 44 64.5 43.4 64.5Z" fill="#FF6F3D"/>
<path d="M48.4 64.5C47.8 64.5 47.4 64.1 47.4 63.5V49.5C47.4 48.9 47.8 48.5 48.4 48.5C49 48.5 49.4 48.9 49.4 49.5V63.5C49.4 64.1 49 64.5 48.4 64.5Z" fill="#FF6F3D"/>
<rect x="29.5" y="29.5" width="104" height="7" rx="2.5" stroke="#333333" stroke-opacity="0.3"/>
<path d="M62 44.5H132C132.276 44.5 132.5 44.7239 132.5 45C132.5 45.2761 132.276 45.5 132 45.5H62C61.7239 45.5 61.5 45.2761 61.5 45C61.5 44.7239 61.7239 44.5 62 44.5Z" stroke="#333333" stroke-opacity="0.3"/>
<rect x="61.5" y="51.5" width="71" height="1" rx="0.5" stroke="#333333" stroke-opacity="0.3"/>
<rect x="61.5" y="58.5" width="71" height="1" rx="0.5" stroke="#333333" stroke-opacity="0.3"/>
<rect x="61.5" y="65.5" width="71" height="1" rx="0.5" stroke="#333333" stroke-opacity="0.3"/>
<rect x="29.5" y="72.5" width="103" height="1" rx="0.5" stroke="#333333" stroke-opacity="0.3"/>
<rect x="118" y="30" width="15" height="6" fill="#C2C2C2"/>
<path d="M125.701 33.2422L124.945 31.25L124.225 33.2422H125.701ZM127.008 35H126.366L125.868 33.6934H124.069L123.595 35H122.994L124.644 30.7051H125.256L127.008 35Z" fill="white"/>
</g>
<defs>
<clipPath id="clip0_4_109">
<rect width="168" height="80" fill="white"/>
</clipPath>
</defs>
</svg>
