<svg width="206" height="80" viewBox="0 0 206 80" fill="none" xmlns="http://www.w3.org/2000/svg">
<path d="M19.5 3C19.5 1.61929 20.6193 0.5 22 0.5H184C185.381 0.5 186.5 1.61929 186.5 3V77C186.5 78.3807 185.381 79.5 184 79.5H22C20.6193 79.5 19.5 78.3807 19.5 77V3Z" fill="#EFEFEF" stroke="#CCCCCC"/>
<path d="M39 19.5H38.5V20V79V79.5H39H168H168.5V79V20V19.5H168H39Z" fill="white" stroke="#CCCCCC"/>
<path d="M20 17H35V79H22C20.8954 79 20 78.1046 20 77V17Z" fill="#F5F5F5"/>
<path d="M186 17H171V79H184.015C185.111 79 186 77.8732 186 76.4832V17Z" fill="#F5F5F5"/>
<path d="M20 3C20 1.89543 20.8954 1 22 1H184C185.105 1 186 1.89543 186 3V9H20V3Z" fill="#446995"/>
<path fill-rule="evenodd" clip-rule="evenodd" d="M186 17H20V16H186V17Z" fill="#CCCCCC"/>
<path fill-rule="evenodd" clip-rule="evenodd" d="M36 16V79H35V16H36Z" fill="#CCCCCC"/>
<path fill-rule="evenodd" clip-rule="evenodd" d="M172 17V79H171V17H172Z" fill="#CCCCCC"/>
<path d="M78.4602 61H52.5397C50.0502 61 48 58.9583 48 56.4792V30.5208C48 28.0417 50.0502 26 52.5397 26H78.4602C80.9498 26 83 28.0417 83 30.5208V56.3333C83 58.9583 80.9498 61 78.4602 61Z" stroke="#333333" stroke-miterlimit="10" stroke-linecap="round" stroke-linejoin="round"/>
<rect x="48.5" y="65.5" width="34" height="6" rx="1.5" fill="#9ADAF3" stroke="#333333"/>
<rect x="91.5" y="35.5" width="29" height="6" rx="1.5" fill="#9ADAF3" stroke="#333333"/>
<rect x="127.5" y="35.5" width="29" height="6" rx="1.5" fill="#9ADAF3" stroke="#333333"/>
<rect x="127.5" y="45.5" width="29" height="6" rx="1.5" fill="#9ADAF3" stroke="#333333"/>
<rect x="91.5" y="45.5" width="29" height="6" rx="1.5" fill="#9ADAF3" stroke="#333333"/>
<rect x="91.5" y="55.5" width="29" height="6" rx="1.5" fill="#9ADAF3" stroke="#333333"/>
<rect x="127.5" y="55.5" width="29" height="6" rx="1.5" fill="#9ADAF3" stroke="#333333"/>
<rect x="127.5" y="65.5" width="29" height="6" rx="1.5" fill="#9ADAF3" stroke="#333333"/>
<rect x="91.5" y="65.5" width="29" height="6" rx="1.5" fill="#9ADAF3" stroke="#333333"/>
<g clip-path="url(#clip0_5_150)">
<rect width="31" height="30.5" transform="translate(50 28.5)" fill="white"/>
<circle cx="65.4999" cy="43.6231" r="15.1364" fill="#9ADAF3"/>
<path d="M63.566 42.8582L68.8637 35.7746L81.7894 51.9576L75.5029 56.6563L63.566 42.8582Z" fill="#53CFFF"/>
<path d="M69.4242 38.017C69.4242 40.8035 66.8454 44.1837 65.4999 44.1837C64.1545 44.1837 61.5757 40.82 61.5757 38.017C61.5757 35.2305 63.3326 34.0927 65.4999 34.0927C67.6672 34.0927 69.4242 35.2305 69.4242 38.017Z" fill="white"/>
<path d="M55.9693 52.5785L71.6666 52.0321L76.712 57.0776L61.015 59.8806L55.9693 52.5785Z" fill="#53CFFF"/>
<path d="M63.2576 44.1837C64.3791 46.4836 66.6215 46.4836 67.7425 44.1837C74.4697 45.1036 75.0303 45.1037 75.0303 52.4634C68.3031 53.3833 62.697 53.3833 55.9697 52.4634C55.9697 45.1037 56.5303 45.1036 63.2576 44.1837Z" fill="white"/>
<path fill-rule="evenodd" clip-rule="evenodd" d="M84 25.123H47V61.0018H84V25.123ZM65.5 58.7594C73.8596 58.7594 80.6364 51.9826 80.6364 43.623C80.6364 35.2634 73.8596 28.4867 65.5 28.4867C57.1404 28.4867 50.3636 35.2634 50.3636 43.623C50.3636 51.9826 57.1404 58.7594 65.5 58.7594Z" fill="white"/>
</g>
<defs>
<clipPath id="clip0_5_150">
<rect width="31" height="30.5" fill="white" transform="translate(50 28.5)"/>
</clipPath>
</defs>
</svg>
