<svg width="206" height="80" viewBox="0 0 206 80" fill="none" xmlns="http://www.w3.org/2000/svg">
<path d="M19.5 3C19.5 1.61929 20.6193 0.5 22 0.5H184C185.381 0.5 186.5 1.61929 186.5 3V77C186.5 78.3807 185.381 79.5 184 79.5H22C20.6193 79.5 19.5 78.3807 19.5 77V3Z" fill="#EFEFEF" stroke="#CCCCCC"/>
<path d="M39 19.5H38.5V20V79V79.5H39H168H168.5V79V20V19.5H168H39Z" fill="white" stroke="#CCCCCC"/>
<path d="M20 17H35V79H22C20.8954 79 20 78.1046 20 77V17Z" fill="#F5F5F5"/>
<path d="M186 17H171V79H184.015C185.111 79 186 77.8732 186 76.4832V17Z" fill="#F5F5F5"/>
<path d="M20 3C20 1.89543 20.8954 1 22 1H184C185.105 1 186 1.89543 186 3V9H20V3Z" fill="#446995"/>
<path fill-rule="evenodd" clip-rule="evenodd" d="M186 17H20V16H186V17Z" fill="#CCCCCC"/>
<path fill-rule="evenodd" clip-rule="evenodd" d="M36 16V79H35V16H36Z" fill="#CCCCCC"/>
<path fill-rule="evenodd" clip-rule="evenodd" d="M172 17V79H171V17H172Z" fill="#CCCCCC"/>
<rect x="45.5" y="27.5" width="40" height="7" rx="1.5" fill="#D9F4FF" stroke="#9ADAF3"/>
<rect x="45.5" y="39.5" width="40" height="7" rx="1.5" fill="#D9F4FF" stroke="#9ADAF3"/>
<rect x="45.5" y="51.5" width="40" height="7" rx="1.5" fill="#F9FEEF" stroke="#8BB825"/>
<rect x="45.5" y="63.5" width="40" height="7" rx="1.5" fill="#F9FEEF" stroke="#8BB825"/>
<rect x="95.5" y="27.5" width="40" height="7" rx="1.5" fill="#D9F4FF" stroke="#9ADAF3"/>
<rect x="95.5" y="39.5" width="40" height="7" rx="1.5" fill="#D9F4FF" stroke="#9ADAF3"/>
<rect x="95.5" y="51.5" width="40" height="7" rx="1.5" fill="#F9FEEF" stroke="#8BB825"/>
<rect x="95.5" y="63.5" width="40" height="7" rx="1.5" fill="#F9FEEF" stroke="#8BB825"/>
<rect x="112.5" y="11.5" width="88" height="36" fill="white"/>
<rect x="115.5" y="14.5" width="19" height="6" fill="#D9F4FF" stroke="#9ADAF3"/>
<rect x="115.5" y="22.5" width="19" height="6" fill="#D9F4FF" stroke="#9ADAF3"/>
<rect x="115.5" y="30.5" width="19" height="6" fill="#F9FEEF" stroke="#8BB825"/>
<rect x="115.5" y="38.5" width="19" height="6" fill="#F9FEEF" stroke="#8BB825"/>
<rect x="136.5" y="14.5" width="19" height="6" fill="#D9F4FF" stroke="#9ADAF3"/>
<rect x="136.5" y="22.5" width="19" height="6" fill="#D9F4FF" stroke="#9ADAF3"/>
<rect x="136.5" y="30.5" width="19" height="6" fill="#F9FEEF" stroke="#8BB825"/>
<rect x="136.5" y="38.5" width="19" height="6" fill="#F9FEEF" stroke="#8BB825"/>
<rect x="157.5" y="14.5" width="19" height="6" fill="#D9F4FF" stroke="#9ADAF3"/>
<rect x="157.5" y="22.5" width="19" height="6" fill="#D9F4FF" stroke="#9ADAF3"/>
<rect x="157.5" y="30.5" width="19" height="6" fill="#F9FEEF" stroke="#8BB825"/>
<rect x="157.5" y="38.5" width="19" height="6" fill="#F9FEEF" stroke="#8BB825"/>
<rect x="178.5" y="14.5" width="19" height="6" fill="#D9F4FF" stroke="#9ADAF3"/>
<rect x="178.5" y="22.5" width="19" height="6" fill="#D9F4FF" stroke="#9ADAF3"/>
<rect x="178.5" y="30.5" width="19" height="6" fill="#F9FEEF" stroke="#8BB825"/>
<rect x="178.5" y="38.5" width="19" height="6" fill="#F9FEEF" stroke="#8BB825"/>
<rect x="112.5" y="11.5" width="88" height="36" stroke="#444444"/>
<circle cx="112.5" cy="47.5" r="1.5" fill="#444444"/>
<circle cx="200.5" cy="47.5" r="1.5" fill="#444444"/>
<circle cx="112.5" cy="11.5" r="1.5" fill="#444444"/>
<circle cx="200.5" cy="11.5" r="1.5" fill="#444444"/>
</svg>
