<svg width="206" height="80" viewBox="0 0 206 80" fill="none" xmlns="http://www.w3.org/2000/svg">
<mask id="mask0_5_2" style="mask-type:luminance" maskUnits="userSpaceOnUse" x="19" y="0" width="168" height="80">
<path d="M187 0H19V80H187V0Z" fill="white"/>
</mask>
<g mask="url(#mask0_5_2)">
<path d="M187 0H19V80H187V0Z" fill="white"/>
<path d="M19.5 3C19.5 1.61929 20.6193 0.5 22 0.5H184C185.381 0.5 186.5 1.61929 186.5 3V77C186.5 78.3807 185.381 79.5 184 79.5H22C20.6193 79.5 19.5 78.3807 19.5 77V3Z" fill="white" stroke="#CCCCCC"/>
<path d="M20 16H186V9H20V16Z" fill="#F2F2F2"/>
<path d="M20 3C20 1.89543 20.8954 1 22 1H184C185.105 1 186 1.89543 186 3V9H20V3Z" fill="#51845F"/>
<path fill-rule="evenodd" clip-rule="evenodd" d="M186 33H20V32H186V33Z" fill="#CCCCCC"/>
<path fill-rule="evenodd" clip-rule="evenodd" d="M186 73H20V72H186V73Z" fill="#CCCCCC"/>
<path fill-rule="evenodd" clip-rule="evenodd" d="M186 49H20V48H186V49Z" fill="#CCCCCC"/>
<path fill-rule="evenodd" clip-rule="evenodd" d="M186 25H20V24H186V25Z" fill="#CCCCCC"/>
<path fill-rule="evenodd" clip-rule="evenodd" d="M186 65H20V64H186V65Z" fill="#CCCCCC"/>
<path fill-rule="evenodd" clip-rule="evenodd" d="M186 41H20V40H186V41Z" fill="#CCCCCC"/>
<path fill-rule="evenodd" clip-rule="evenodd" d="M186 57H20V56H186V57Z" fill="#CCCCCC"/>
<path fill-rule="evenodd" clip-rule="evenodd" d="M186 17H20V16H186V17Z" fill="#CCCCCC"/>
<path fill-rule="evenodd" clip-rule="evenodd" d="M145 80V16H146V80H145Z" fill="#CCCCCC"/>
<path fill-rule="evenodd" clip-rule="evenodd" d="M40 80V16H41V80H40Z" fill="#CCCCCC"/>
<path fill-rule="evenodd" clip-rule="evenodd" d="M103 80V16H104V80H103Z" fill="#CCCCCC"/>
<path fill-rule="evenodd" clip-rule="evenodd" d="M166 80V16H167V80H166Z" fill="#CCCCCC"/>
<path fill-rule="evenodd" clip-rule="evenodd" d="M61 80V16H62V80H61Z" fill="#CCCCCC"/>
<path fill-rule="evenodd" clip-rule="evenodd" d="M124 80V16H125V80H124Z" fill="#CCCCCC"/>
<path fill-rule="evenodd" clip-rule="evenodd" d="M82 80V16H83V80H82Z" fill="#CCCCCC"/>
</g>
<rect x="20" y="17" width="20" height="7" fill="#FF6F3D"/>
<rect x="20" y="25" width="20" height="7" fill="#FF6F3D"/>
<rect x="20" y="33" width="20" height="7" fill="#FF6F3D"/>
<rect x="20" y="41" width="20" height="7" fill="#FF6F3D"/>
<rect x="41" y="17" width="20" height="7" fill="#FF6F3D"/>
<rect x="41" y="25" width="20" height="7" fill="#FF6F3D"/>
<rect x="41" y="33" width="20" height="7" fill="#FF6F3D"/>
<rect x="41" y="41" width="20" height="7" fill="#FF6F3D"/>
<rect x="62" y="17" width="20" height="7" fill="#FF6F3D"/>
<rect x="62" y="25" width="20" height="7" fill="#FF6F3D"/>
<rect x="62" y="33" width="20" height="7" fill="#FF6F3D"/>
<rect x="62" y="41" width="20" height="7" fill="#FF6F3D"/>
<rect x="83" y="17" width="20" height="7" fill="#FF6F3D"/>
<rect x="83" y="25" width="20" height="7" fill="#FF6F3D"/>
<rect x="83" y="33" width="20" height="7" fill="#FF6F3D"/>
<rect x="83" y="41" width="20" height="7" fill="#FF6F3D"/>
<rect x="19.5" y="16.5" width="84" height="31" stroke="#444444"/>
<circle cx="19.5" cy="47.5" r="1.5" fill="#444444"/>
<circle cx="19.5" cy="16.5" r="1.5" fill="#444444"/>
<circle cx="103.5" cy="16.5" r="1.5" fill="#444444"/>
<circle cx="103.5" cy="47.5" r="1.5" fill="#444444"/>
</svg>
