<svg width="168" height="80" viewBox="0 0 168 80" fill="none" xmlns="http://www.w3.org/2000/svg">
<g clip-path="url(#clip0_3_6)">
<mask id="mask0_3_6" style="mask-type:luminance" maskUnits="userSpaceOnUse" x="0" y="0" width="168" height="80">
<path d="M168 0H0V80H168V0Z" fill="white"/>
</mask>
<g mask="url(#mask0_3_6)">
<path d="M168 0H0V80H168V0Z" fill="white"/>
<path d="M0.5 3C0.5 1.61929 1.61929 0.5 3 0.5H165C166.381 0.5 167.5 1.61929 167.5 3V77C167.5 78.3807 166.381 79.5 165 79.5H3C1.61929 79.5 0.5 78.3807 0.5 77V3Z" fill="white" stroke="#CCCCCC"/>
<path d="M1 16H167V9H1V16Z" fill="#F2F2F2"/>
<path d="M1 3C1 1.89543 1.89543 1 3 1H165C166.105 1 167 1.89543 167 3V9H1V3Z" fill="#51845F"/>
<path fill-rule="evenodd" clip-rule="evenodd" d="M167 33H1V32H167V33Z" fill="#CCCCCC"/>
<path fill-rule="evenodd" clip-rule="evenodd" d="M167 73H1V72H167V73Z" fill="#CCCCCC"/>
<path fill-rule="evenodd" clip-rule="evenodd" d="M167 49H1V48H167V49Z" fill="#CCCCCC"/>
<path fill-rule="evenodd" clip-rule="evenodd" d="M167 25H1V24H167V25Z" fill="#CCCCCC"/>
<path fill-rule="evenodd" clip-rule="evenodd" d="M167 65H1V64H167V65Z" fill="#CCCCCC"/>
<path fill-rule="evenodd" clip-rule="evenodd" d="M167 41H1V40H167V41Z" fill="#CCCCCC"/>
<path fill-rule="evenodd" clip-rule="evenodd" d="M167 57H1V56H167V57Z" fill="#CCCCCC"/>
<path fill-rule="evenodd" clip-rule="evenodd" d="M167 17H1V16H167V17Z" fill="#CCCCCC"/>
<path fill-rule="evenodd" clip-rule="evenodd" d="M126 80V16H127V80H126Z" fill="#CCCCCC"/>
<path fill-rule="evenodd" clip-rule="evenodd" d="M21 80V16H22V80H21Z" fill="#CCCCCC"/>
<path fill-rule="evenodd" clip-rule="evenodd" d="M84 80V16H85V80H84Z" fill="#CCCCCC"/>
<path fill-rule="evenodd" clip-rule="evenodd" d="M147 80V16H148V80H147Z" fill="#CCCCCC"/>
<path fill-rule="evenodd" clip-rule="evenodd" d="M42 80V16H43V80H42Z" fill="#CCCCCC"/>
<path fill-rule="evenodd" clip-rule="evenodd" d="M105 80V16H106V80H105Z" fill="#CCCCCC"/>
<path fill-rule="evenodd" clip-rule="evenodd" d="M63 80V16H64V80H63Z" fill="#CCCCCC"/>
<path d="M17 18H5C3.89543 18 3 18.2798 3 18.625V22.375C3 22.7202 3.89543 23 5 23H17C18.1046 23 19 22.7202 19 22.375V18.625C19 18.2798 18.1046 18 17 18Z" fill="#FF6F3D"/>
<path d="M17 26H5C3.89543 26 3 26.2798 3 26.625V30.375C3 30.7202 3.89543 31 5 31H17C18.1046 31 19 30.7202 19 30.375V26.625C19 26.2798 18.1046 26 17 26Z" fill="#FF6F3D"/>
<path d="M38 26H26C24.8954 26 24 26.2798 24 26.625V30.375C24 30.7202 24.8954 31 26 31H38C39.1046 31 40 30.7202 40 30.375V26.625C40 26.2798 39.1046 26 38 26Z" fill="#FF6F3D"/>
<path d="M38 18H26C24.8954 18 24 18.2798 24 18.625V22.375C24 22.7202 24.8954 23 26 23H38C39.1046 23 40 22.7202 40 22.375V18.625C40 18.2798 39.1046 18 38 18Z" fill="#FF6F3D"/>
<path d="M17 34H5C3.89543 34 3 34.2798 3 34.625V38.375C3 38.7202 3.89543 39 5 39H17C18.1046 39 19 38.7202 19 38.375V34.625C19 34.2798 18.1046 34 17 34Z" fill="#FF6F3D"/>
<path d="M17 42H5C3.89543 42 3 42.2798 3 42.625V46.375C3 46.7202 3.89543 47 5 47H17C18.1046 47 19 46.7202 19 46.375V42.625C19 42.2798 18.1046 42 17 42Z" fill="#FF6F3D"/>
<path d="M38 42H26C24.8954 42 24 42.2798 24 42.625V46.375C24 46.7202 24.8954 47 26 47H38C39.1046 47 40 46.7202 40 46.375V42.625C40 42.2798 39.1046 42 38 42Z" fill="#FF6F3D"/>
<path d="M38 34H26C24.8954 34 24 34.2798 24 34.625V38.375C24 38.7202 24.8954 39 26 39H38C39.1046 39 40 38.7202 40 38.375V34.625C40 34.2798 39.1046 34 38 34Z" fill="#FF6F3D"/>
<path d="M59 18H47C45.8954 18 45 18.2798 45 18.625V22.375C45 22.7202 45.8954 23 47 23H59C60.1046 23 61 22.7202 61 22.375V18.625C61 18.2798 60.1046 18 59 18Z" fill="#FF6F3D"/>
<path d="M59 26H47C45.8954 26 45 26.2798 45 26.625V30.375C45 30.7202 45.8954 31 47 31H59C60.1046 31 61 30.7202 61 30.375V26.625C61 26.2798 60.1046 26 59 26Z" fill="#FF6F3D"/>
<path d="M80 26H68C66.8954 26 66 26.2798 66 26.625V30.375C66 30.7202 66.8954 31 68 31H80C81.1046 31 82 30.7202 82 30.375V26.625C82 26.2798 81.1046 26 80 26Z" fill="#FF6F3D"/>
<path d="M80 18H68C66.8954 18 66 18.2798 66 18.625V22.375C66 22.7202 66.8954 23 68 23H80C81.1046 23 82 22.7202 82 22.375V18.625C82 18.2798 81.1046 18 80 18Z" fill="#FF6F3D"/>
<path d="M59 34H47C45.8954 34 45 34.2798 45 34.625V38.375C45 38.7202 45.8954 39 47 39H59C60.1046 39 61 38.7202 61 38.375V34.625C61 34.2798 60.1046 34 59 34Z" fill="#FF6F3D"/>
<path d="M59 42H47C45.8954 42 45 42.2798 45 42.625V46.375C45 46.7202 45.8954 47 47 47H59C60.1046 47 61 46.7202 61 46.375V42.625C61 42.2798 60.1046 42 59 42Z" fill="#FF6F3D"/>
<path d="M80 42H68C66.8954 42 66 42.2798 66 42.625V46.375C66 46.7202 66.8954 47 68 47H80C81.1046 47 82 46.7202 82 46.375V42.625C82 42.2798 81.1046 42 80 42Z" fill="#FF6F3D"/>
<path d="M80 34H68C66.8954 34 66 34.2798 66 34.625V38.375C66 38.7202 66.8954 39 68 39H80C81.1046 39 82 38.7202 82 38.375V34.625C82 34.2798 81.1046 34 80 34Z" fill="#FF6F3D"/>
</g>
</g>
<defs>
<clipPath id="clip0_3_6">
<rect width="168" height="80" fill="white"/>
</clipPath>
</defs>
</svg>
