<svg width="206" height="80" viewBox="0 0 206 80" fill="none" xmlns="http://www.w3.org/2000/svg">
<mask id="mask0_56_38" style="mask-type:luminance" maskUnits="userSpaceOnUse" x="19" y="0" width="168" height="80">
<path d="M187 0H19V80H187V0Z" fill="white"/>
</mask>
<g mask="url(#mask0_56_38)">
<path d="M187 0H19V80H187V0Z" fill="white"/>
<path d="M19.5 3C19.5 1.61929 20.6193 0.5 22 0.5H184C185.381 0.5 186.5 1.61929 186.5 3V77C186.5 78.3807 185.381 79.5 184 79.5H22C20.6193 79.5 19.5 78.3807 19.5 77V3Z" fill="white" stroke="#CCCCCC"/>
<path d="M20 16H186V9H20V16Z" fill="#F2F2F2"/>
<path d="M20 3C20 1.89543 20.8954 1 22 1H184C185.105 1 186 1.89543 186 3V9H20V3Z" fill="#51845F"/>
<path fill-rule="evenodd" clip-rule="evenodd" d="M186 33H20V32H186V33Z" fill="#CCCCCC"/>
<path fill-rule="evenodd" clip-rule="evenodd" d="M186 73H20V72H186V73Z" fill="#CCCCCC"/>
<path fill-rule="evenodd" clip-rule="evenodd" d="M186 49H20V48H186V49Z" fill="#CCCCCC"/>
<path fill-rule="evenodd" clip-rule="evenodd" d="M186 25H20V24H186V25Z" fill="#CCCCCC"/>
<path fill-rule="evenodd" clip-rule="evenodd" d="M186 65H20V64H186V65Z" fill="#CCCCCC"/>
<path fill-rule="evenodd" clip-rule="evenodd" d="M186 41H20V40H186V41Z" fill="#CCCCCC"/>
<path fill-rule="evenodd" clip-rule="evenodd" d="M186 57H20V56H186V57Z" fill="#CCCCCC"/>
<path fill-rule="evenodd" clip-rule="evenodd" d="M186 17H20V16H186V17Z" fill="#CCCCCC"/>
<path fill-rule="evenodd" clip-rule="evenodd" d="M145 80V16H146V80H145Z" fill="#CCCCCC"/>
<path fill-rule="evenodd" clip-rule="evenodd" d="M40 80V16H41V80H40Z" fill="#CCCCCC"/>
<path fill-rule="evenodd" clip-rule="evenodd" d="M103 80V16H104V80H103Z" fill="#CCCCCC"/>
<path fill-rule="evenodd" clip-rule="evenodd" d="M166 80V16H167V80H166Z" fill="#CCCCCC"/>
<path fill-rule="evenodd" clip-rule="evenodd" d="M61 80V16H62V80H61Z" fill="#CCCCCC"/>
<path fill-rule="evenodd" clip-rule="evenodd" d="M124 80V16H125V80H124Z" fill="#CCCCCC"/>
<path fill-rule="evenodd" clip-rule="evenodd" d="M82 80V16H83V80H82Z" fill="#CCCCCC"/>
</g>
<rect x="41" y="25" width="20" height="7" fill="#FF6F3D"/>
<rect x="41" y="33" width="20" height="7" fill="#FF6F3D"/>
<rect x="41" y="41" width="20" height="7" fill="#FF6F3D"/>
<rect x="41" y="49" width="20" height="7" fill="#FF6F3D"/>
<rect x="62" y="25" width="20" height="7" fill="#FF6F3D"/>
<rect x="62" y="33" width="20" height="7" fill="#FF6F3D"/>
<rect x="62" y="41" width="20" height="7" fill="#FF6F3D"/>
<rect x="62" y="49" width="20" height="7" fill="#FF6F3D"/>
<rect x="83" y="25" width="20" height="7" fill="#FF6F3D"/>
<rect x="83" y="33" width="20" height="7" fill="#FF6F3D"/>
<rect x="83" y="41" width="20" height="7" fill="#FF6F3D"/>
<rect x="83" y="49" width="20" height="7" fill="#FF6F3D"/>
<rect x="104" y="25" width="20" height="7" fill="#FF6F3D"/>
<rect x="104" y="33" width="20" height="7" fill="#FF6F3D"/>
<rect x="104" y="41" width="20" height="7" fill="#FF6F3D"/>
<rect x="104" y="49" width="20" height="7" fill="#FF6F3D"/>
<rect x="40.5" y="24.5" width="84" height="31" stroke="#444444"/>
<circle cx="40.5" cy="55.5" r="1.5" fill="#444444"/>
<circle cx="40.5" cy="24.5" r="1.5" fill="#444444"/>
<circle cx="124.5" cy="24.5" r="1.5" fill="#444444"/>
<circle cx="124.5" cy="55.5" r="1.5" fill="#444444"/>
<rect x="130.5" y="36.5" width="63" height="31" fill="white" stroke="#444444"/>
<circle cx="130.5" cy="36.5" r="1.5" fill="#444444"/>
<circle cx="130.5" cy="67.5" r="1.5" fill="#444444"/>
<circle cx="193.5" cy="36.5" r="1.5" fill="#444444"/>
<circle cx="193.5" cy="67.5" r="1.5" fill="#444444"/>
<path d="M148.278 52.4521C148.278 54.5674 147.675 56.1875 146.468 57.3125C145.267 58.4375 143.529 59 141.256 59H137.617V46.1504H141.651C143.749 46.1504 145.378 46.7041 146.538 47.8115C147.698 48.9189 148.278 50.4658 148.278 52.4521ZM145.448 52.5225C145.448 49.7627 144.229 48.3828 141.792 48.3828H140.342V56.75H141.511C144.136 56.75 145.448 55.3408 145.448 52.5225ZM156.971 59L156.452 57.6641H156.382C155.931 58.2324 155.465 58.6279 154.984 58.8506C154.51 59.0674 153.889 59.1758 153.121 59.1758C152.178 59.1758 151.434 58.9062 150.889 58.3672C150.35 57.8281 150.08 57.0605 150.08 56.0645C150.08 55.0215 150.443 54.2539 151.17 53.7617C151.902 53.2637 153.004 52.9883 154.475 52.9355L156.18 52.8828V52.4521C156.18 51.4561 155.67 50.958 154.65 50.958C153.865 50.958 152.942 51.1953 151.882 51.6699L150.994 49.8594C152.125 49.2676 153.379 48.9717 154.756 48.9717C156.074 48.9717 157.085 49.2588 157.788 49.833C158.491 50.4072 158.843 51.2803 158.843 52.4521V59H156.971ZM156.18 54.4473L155.143 54.4824C154.363 54.5059 153.783 54.6465 153.402 54.9043C153.021 55.1621 152.831 55.5547 152.831 56.082C152.831 56.8379 153.265 57.2158 154.132 57.2158C154.753 57.2158 155.248 57.0371 155.617 56.6797C155.992 56.3223 156.18 55.8477 156.18 55.2559V54.4473ZM165.751 57.04C166.22 57.04 166.782 56.9375 167.438 56.7324V58.7275C166.771 59.0264 165.95 59.1758 164.978 59.1758C163.905 59.1758 163.123 58.9062 162.631 58.3672C162.145 57.8223 161.901 57.0078 161.901 55.9238V51.1865H160.618V50.0527L162.095 49.1562L162.868 47.082H164.582V49.1738H167.333V51.1865H164.582V55.9238C164.582 56.3047 164.688 56.5859 164.898 56.7676C165.115 56.9492 165.399 57.04 165.751 57.04ZM175.674 59L175.155 57.6641H175.085C174.634 58.2324 174.168 58.6279 173.688 58.8506C173.213 59.0674 172.592 59.1758 171.824 59.1758C170.881 59.1758 170.137 58.9062 169.592 58.3672C169.053 57.8281 168.783 57.0605 168.783 56.0645C168.783 55.0215 169.146 54.2539 169.873 53.7617C170.605 53.2637 171.707 52.9883 173.178 52.9355L174.883 52.8828V52.4521C174.883 51.4561 174.373 50.958 173.354 50.958C172.568 50.958 171.646 51.1953 170.585 51.6699L169.697 49.8594C170.828 49.2676 172.082 48.9717 173.459 48.9717C174.777 48.9717 175.788 49.2588 176.491 49.833C177.194 50.4072 177.546 51.2803 177.546 52.4521V59H175.674ZM174.883 54.4473L173.846 54.4824C173.066 54.5059 172.486 54.6465 172.105 54.9043C171.725 55.1621 171.534 55.5547 171.534 56.082C171.534 56.8379 171.968 57.2158 172.835 57.2158C173.456 57.2158 173.951 57.0371 174.32 56.6797C174.695 56.3223 174.883 55.8477 174.883 55.2559V54.4473Z" fill="url(#paint0_linear_56_38)"/>
<path d="M186.257 50.3433L197.775 36.1996C198.118 35.7786 198.063 35.1625 197.651 34.8083L194.67 32.244C194.24 31.8739 193.588 31.9315 193.23 32.3713L181.756 46.4612C181.639 46.6041 181.564 46.7762 181.54 46.9586L181.009 50.8609C180.907 51.6117 181.646 52.1999 182.359 51.9358L185.826 50.6516C185.995 50.5891 186.144 50.4826 186.257 50.3433Z" fill="url(#paint1_linear_56_38)"/>
<defs>
<linearGradient id="paint0_linear_56_38" x1="157.5" y1="40" x2="157.5" y2="65" gradientUnits="userSpaceOnUse">
<stop stop-color="#FF8E3D"/>
<stop offset="1" stop-color="#FF6F3D"/>
</linearGradient>
<linearGradient id="paint1_linear_56_38" x1="188.322" y1="31.6119" x2="190.22" y2="50.868" gradientUnits="userSpaceOnUse">
<stop stop-color="#FF8E3D"/>
<stop offset="1" stop-color="#FF6F3D"/>
</linearGradient>
</defs>
</svg>
