<svg width="168" height="80" viewBox="0 0 168 80" fill="none" xmlns="http://www.w3.org/2000/svg">
<g clip-path="url(#clip0_6_132)">
<path d="M0.5 3C0.5 1.61929 1.61929 0.5 3 0.5H165C166.381 0.5 167.5 1.61929 167.5 3V77C167.5 78.3807 166.381 79.5 165 79.5H3C1.61929 79.5 0.5 78.3807 0.5 77V3Z" fill="#EFEFEF" stroke="#CCCCCC"/>
<path d="M20 19.5H19.5V20V79V79.5H20H149H149.5V79V20V19.5H149H20Z" fill="white" stroke="#CCCCCC"/>
<path d="M1 17H16V79H3C1.89543 79 1 78.1046 1 77V17Z" fill="#F5F5F5"/>
<path d="M167 17H152V79H165.015C166.111 79 167 77.8732 167 76.4832V17Z" fill="#F5F5F5"/>
<path d="M1 3C1 1.89543 1.89543 1 3 1H165C166.105 1 167 1.89543 167 3V9H1V3Z" fill="#446995"/>
<path fill-rule="evenodd" clip-rule="evenodd" d="M167 17H1V16H167V17Z" fill="#CCCCCC"/>
<path fill-rule="evenodd" clip-rule="evenodd" d="M17 16V79H16V16H17Z" fill="#CCCCCC"/>
<path fill-rule="evenodd" clip-rule="evenodd" d="M153 17V79H152V17H153Z" fill="#CCCCCC"/>
<rect x="109.5" y="35.5" width="29" height="6" rx="1.5" fill="#FF843E" stroke="#333333"/>
<rect x="72.5" y="35.5" width="29" height="6" rx="1.5" fill="#FF843E" stroke="#333333"/>
<rect x="109.5" y="45.5" width="29" height="6" rx="1.5" fill="#FF843E" stroke="#333333"/>
<rect x="72.5" y="45.5" width="29" height="6" rx="1.5" fill="#FF843E" stroke="#333333"/>
<rect x="109.5" y="55.5" width="29" height="6" rx="1.5" fill="#FF843E" stroke="#333333"/>
<rect x="72.5" y="55.5" width="29" height="6" rx="1.5" fill="#FF843E" stroke="#333333"/>
<rect x="109.5" y="65.5" width="29" height="6" rx="1.5" fill="#FF843E" stroke="#333333"/>
<rect x="72.5" y="65.5" width="29" height="6" rx="1.5" fill="#FF843E" stroke="#333333"/>
<path d="M61.5611 61H35.6406C33.151 61 31.1008 58.9583 31.1008 56.4792V30.5208C31.1008 28.0417 33.151 26 35.6406 26H61.5611C64.0506 26 66.1008 28.0417 66.1008 30.5208V56.3333C66.1008 58.9583 64.0506 61 61.5611 61Z" fill="white" stroke="#333333" stroke-miterlimit="10" stroke-linecap="round" stroke-linejoin="round"/>
<rect x="31.5" y="65.5" width="34" height="6" rx="1.5" fill="#FF843E" stroke="#333333"/>
<path d="M61.4602 61H35.5397C33.0502 61 31 58.9583 31 56.4792V30.5208C31 28.0417 33.0502 26 35.5397 26H61.4602C63.9498 26 66 28.0417 66 30.5208V56.3333C66 58.9583 63.9498 61 61.4602 61Z" stroke="#333333" stroke-miterlimit="10" stroke-linecap="round" stroke-linejoin="round"/>
<g clip-path="url(#clip1_6_132)">
<rect width="31" height="30.5" transform="translate(33 28.5)" fill="white"/>
<circle cx="48.5" cy="43.6231" r="15.1364" fill="#FF853E" fill-opacity="0.7"/>
<path d="M46.5658 42.8582L51.8636 35.7746L64.7893 51.9576L58.5028 56.6563L46.5658 42.8582Z" fill="#FF853E"/>
<path d="M52.4243 38.017C52.4243 40.8035 49.8455 44.1837 48.5 44.1837C47.1546 44.1837 44.5758 40.82 44.5758 38.017C44.5758 35.2305 46.3327 34.0928 48.5 34.0928C50.6673 34.0928 52.4243 35.2305 52.4243 38.017Z" fill="white"/>
<path d="M38.9695 52.5785L54.6667 52.0321L59.7121 57.0776L44.0151 59.8806L38.9695 52.5785Z" fill="#FF853E"/>
<path d="M46.2576 44.1837C47.3791 46.4836 49.6215 46.4836 50.7425 44.1837C57.4697 45.1036 58.0303 45.1037 58.0303 52.4634C51.3031 53.3833 45.697 53.3833 38.9697 52.4634C38.9697 45.1037 39.5303 45.1036 46.2576 44.1837Z" fill="white"/>
<path fill-rule="evenodd" clip-rule="evenodd" d="M67 25.123H30V61.0018H67V25.123ZM48.5 58.7594C56.8596 58.7594 63.6364 51.9826 63.6364 43.623C63.6364 35.2634 56.8596 28.4867 48.5 28.4867C40.1404 28.4867 33.3636 35.2634 33.3636 43.623C33.3636 51.9826 40.1404 58.7594 48.5 58.7594Z" fill="white"/>
</g>
</g>
<defs>
<clipPath id="clip0_6_132">
<rect width="168" height="80" fill="white"/>
</clipPath>
<clipPath id="clip1_6_132">
<rect width="31" height="30.5" fill="white" transform="translate(33 28.5)"/>
</clipPath>
</defs>
</svg>
