<svg width="208" height="80" viewBox="0 0 208 80" fill="none" xmlns="http://www.w3.org/2000/svg">
<rect x="0.5" y="0.5" width="207" height="79" rx="0.5" fill="#F9F9F9"/>
<g clip-path="url(#clip0_2201_50365)">
<path d="M177 17.2667V71.2889C177 71.7427 176.817 72.1779 176.492 72.4988C176.167 72.8197 175.726 73 175.267 73H126.733C126.274 73 125.833 72.8197 125.508 72.4988C125.183 72.1779 125 71.7427 125 71.2889V8.71111C125 8.2573 125.183 7.82207 125.508 7.50117C125.833 7.18028 126.274 7 126.733 7H166.6L177 17.2667Z" fill="#188079"/>
<path d="M135 30H162.286H168V32.8571V46H135V30Z" stroke="white" stroke-width="2"/>
<rect x="138" y="33" width="2" height="1" fill="white"/>
<rect x="141" y="33" width="2" height="1" fill="white"/>
<rect x="138" y="42" width="2" height="1" fill="white"/>
<rect x="141" y="42" width="2" height="1" fill="white"/>
<rect width="8" height="1" transform="matrix(-7.39315e-08 1 1 2.5844e-08 140 34)" fill="white"/>
<path opacity="0.2" d="M176.5 17H167.667C167.225 17 166.801 16.8244 166.488 16.5118C166.176 16.1993 166 15.7754 166 15.3333V7H166.5L176.5 17Z" fill="black"/>
<path d="M140.157 61.4209C140.157 62.6025 139.864 63.5107 139.278 64.1455C138.692 64.7803 137.853 65.0977 136.759 65.0977C135.665 65.0977 134.825 64.7803 134.239 64.1455C133.653 63.5107 133.36 62.5993 133.36 61.4111C133.36 60.223 133.653 59.3164 134.239 58.6914C134.828 58.0632 135.672 57.749 136.769 57.749C137.866 57.749 138.704 58.0648 139.283 58.6963C139.866 59.3278 140.157 60.236 140.157 61.4209ZM134.947 61.4209C134.947 62.2184 135.099 62.819 135.401 63.2227C135.704 63.6263 136.157 63.8281 136.759 63.8281C137.966 63.8281 138.57 63.0257 138.57 61.4209C138.57 59.8128 137.97 59.0088 136.769 59.0088C136.166 59.0088 135.712 59.2122 135.406 59.6191C135.1 60.0228 134.947 60.6234 134.947 61.4209ZM143.126 65H141.637V57.8613H145.729V59.1016H143.126V60.9424H145.548V62.1777H143.126V65ZM153.604 61.4209C153.604 62.6025 153.312 63.5107 152.726 64.1455C152.14 64.7803 151.3 65.0977 150.206 65.0977C149.112 65.0977 148.272 64.7803 147.687 64.1455C147.101 63.5107 146.808 62.5993 146.808 61.4111C146.808 60.223 147.101 59.3164 147.687 58.6914C148.276 58.0632 149.119 57.749 150.216 57.749C151.313 57.749 152.151 58.0648 152.73 58.6963C153.313 59.3278 153.604 60.236 153.604 61.4209ZM148.395 61.4209C148.395 62.2184 148.546 62.819 148.849 63.2227C149.151 63.6263 149.604 63.8281 150.206 63.8281C151.414 63.8281 152.018 63.0257 152.018 61.4209C152.018 59.8128 151.417 59.0088 150.216 59.0088C149.614 59.0088 149.16 59.2122 148.854 59.6191C148.548 60.0228 148.395 60.6234 148.395 61.4209ZM156.598 61.0303H157.086C157.564 61.0303 157.918 60.9505 158.146 60.791C158.373 60.6315 158.487 60.3809 158.487 60.0391C158.487 59.7005 158.37 59.4596 158.136 59.3164C157.905 59.1732 157.545 59.1016 157.057 59.1016H156.598V61.0303ZM156.598 62.2607V65H155.084V57.8613H157.164C158.134 57.8613 158.852 58.0387 159.317 58.3936C159.783 58.7451 160.016 59.2806 160.016 60C160.016 60.4199 159.9 60.7943 159.669 61.123C159.438 61.4486 159.111 61.7041 158.688 61.8896C159.762 63.4945 160.462 64.5312 160.787 65H159.107L157.403 62.2607H156.598ZM164.708 65L162.989 59.3994H162.945C163.007 60.5387 163.038 61.2988 163.038 61.6797V65H161.686V57.8613H163.746L165.436 63.3203H165.465L167.257 57.8613H169.317V65H167.906V61.6211C167.906 61.4616 167.908 61.2777 167.911 61.0693C167.918 60.861 167.94 60.3076 167.979 59.4092H167.936L166.095 65H164.708Z" fill="white"/>
</g>
<rect x="21.5" y="21.5" width="108" height="31" fill="white" stroke="#444444"/>
<path d="M28.292 31.6338C28.292 30.7607 28.7783 30.3242 29.751 30.3242C30.7236 30.3242 31.21 30.7607 31.21 31.6338C31.21 32.0498 31.0869 32.375 30.8408 32.6094C30.6006 32.8379 30.2373 32.9521 29.751 32.9521C28.7783 32.9521 28.292 32.5127 28.292 31.6338ZM31.0869 44H28.4062V34.1738H31.0869V44ZM37.0195 44.1758C35.8652 44.1758 34.957 43.7275 34.2949 42.8311C33.6387 41.9346 33.3105 40.6924 33.3105 39.1045C33.3105 37.4932 33.6445 36.2393 34.3125 35.3428C34.9863 34.4404 35.9121 33.9893 37.0898 33.9893C38.3262 33.9893 39.2695 34.4697 39.9199 35.4307H40.0078C39.873 34.6982 39.8057 34.0449 39.8057 33.4707V30.3242H42.4951V44H40.4385L39.9199 42.7256H39.8057C39.1963 43.6924 38.2676 44.1758 37.0195 44.1758ZM37.96 42.04C38.6455 42.04 39.1465 41.8408 39.4629 41.4424C39.7852 41.0439 39.9609 40.3672 39.9902 39.4121V39.1221C39.9902 38.0674 39.8262 37.3115 39.498 36.8545C39.1758 36.3975 38.6484 36.1689 37.916 36.1689C37.3184 36.1689 36.8525 36.4238 36.5186 36.9336C36.1904 37.4375 36.0264 38.1729 36.0264 39.1396C36.0264 40.1064 36.1934 40.833 36.5273 41.3193C36.8613 41.7998 37.3389 42.04 37.96 42.04ZM49.3418 36.9248V35H58.0693V36.9248H49.3418ZM49.3418 40.3262V38.4014H58.0693V40.3262H49.3418Z" fill="#333333"/>
<path d="M75.5332 44H72.4219L69.4336 39.1396L66.4453 44H63.5273L67.79 37.373L63.7998 31.1504H66.8057L69.5742 35.7734L72.29 31.1504H75.2256L71.1914 37.5225L75.5332 44ZM87.5391 44H84.4277L81.4395 39.1396L78.4512 44H75.5332L79.7959 37.373L75.8057 31.1504H78.8115L81.5801 35.7734L84.2959 31.1504H87.2314L83.1973 37.5225L87.5391 44ZM99.5449 44H96.4336L93.4453 39.1396L90.457 44H87.5391L91.8018 37.373L87.8115 31.1504H90.8174L93.5859 35.7734L96.3018 31.1504H99.2373L95.2031 37.5225L99.5449 44ZM111.551 44H108.439L105.451 39.1396L102.463 44H99.5449L103.808 37.373L99.8174 31.1504H102.823L105.592 35.7734L108.308 31.1504H111.243L107.209 37.5225L111.551 44ZM123.557 44H120.445L117.457 39.1396L114.469 44H111.551L115.813 37.373L111.823 31.1504H114.829L117.598 35.7734L120.313 31.1504H123.249L119.215 37.5225L123.557 44Z" fill="url(#paint0_linear_2201_50365)"/>
<circle cx="21.5" cy="21.5" r="1.5" fill="#444444"/>
<circle cx="21.5" cy="52.5" r="1.5" fill="#444444"/>
<circle cx="129.5" cy="21.5" r="1.5" fill="#444444"/>
<circle cx="129.5" cy="52.5" r="1.5" fill="#444444"/>
<rect x="0.5" y="0.5" width="207" height="79" rx="0.5" stroke="#E2E2E2"/>
<defs>
<linearGradient id="paint0_linear_2201_50365" x1="75.5" y1="25" x2="75.5" y2="50" gradientUnits="userSpaceOnUse">
<stop stop-color="#FF8E3D"/>
<stop offset="1" stop-color="#FF6F3D"/>
</linearGradient>
<clipPath id="clip0_2201_50365">
<rect width="59" height="74" fill="white" transform="translate(122 3)"/>
</clipPath>
</defs>
</svg>
