<svg width="206" height="80" viewBox="0 0 206 80" fill="none" xmlns="http://www.w3.org/2000/svg">
<path d="M19.5 3C19.5 1.61929 20.6193 0.5 22 0.5H184C185.381 0.5 186.5 1.61929 186.5 3V77C186.5 78.3807 185.381 79.5 184 79.5H22C20.6193 79.5 19.5 78.3807 19.5 77V3Z" fill="#EFEFEF" stroke="#CCCCCC"/>
<path d="M39 19.5H38.5V20V79V79.5H39H168H168.5V79V20V19.5H168H39Z" fill="white" stroke="#CCCCCC"/>
<path d="M20 17H35V79H22C20.8954 79 20 78.1046 20 77V17Z" fill="#F5F5F5"/>
<path d="M186 17H171V79H184.015C185.111 79 186 77.8732 186 76.4832V17Z" fill="#F5F5F5"/>
<path d="M20 3C20 1.89543 20.8954 1 22 1H184C185.105 1 186 1.89543 186 3V9H20V3Z" fill="#446995"/>
<path fill-rule="evenodd" clip-rule="evenodd" d="M186 17H20V16H186V17Z" fill="#CCCCCC"/>
<path fill-rule="evenodd" clip-rule="evenodd" d="M36 16V79H35V16H36Z" fill="#CCCCCC"/>
<path fill-rule="evenodd" clip-rule="evenodd" d="M172 17V79H171V17H172Z" fill="#CCCCCC"/>
<rect x="52.25" y="36.25" width="95.5" height="2.5" rx="1.25" stroke="#333333" stroke-opacity="0.3" stroke-width="2.5"/>
<rect x="52.25" y="26.25" width="95.5" height="2.5" rx="1.25" stroke="#333333" stroke-opacity="0.3" stroke-width="2.5"/>
<circle cx="112.5" cy="67.5" r="1.5" fill="#444444"/>
<rect x="47.5" y="45.5" width="88" height="29" fill="white" stroke="#444444"/>
<circle cx="135.5" cy="74.5" r="1.5" fill="#444444"/>
<circle cx="135.5" cy="45.5" r="1.5" fill="#444444"/>
<circle cx="47.5" cy="74.5" r="1.5" fill="#444444"/>
<path d="M55.8574 57H51.9434V48.3633H56.1387C57.1973 48.3789 57.9473 48.6855 58.3887 49.2832C58.6543 49.6504 58.7871 50.0898 58.7871 50.6016C58.7871 51.1289 58.6543 51.5527 58.3887 51.873C58.2402 52.0527 58.0215 52.2168 57.7324 52.3652C58.1738 52.5254 58.5059 52.7793 58.7285 53.127C58.9551 53.4746 59.0684 53.8965 59.0684 54.3926C59.0684 54.9043 58.9395 55.3633 58.6816 55.7695C58.5176 56.0391 58.3125 56.2656 58.0664 56.4492C57.7891 56.6602 57.4609 56.8047 57.082 56.8828C56.707 56.9609 56.2988 57 55.8574 57ZM55.8164 53.1973H53.666V55.5H55.7871C56.166 55.5 56.4609 55.4492 56.6719 55.3477C57.0547 55.1602 57.2461 54.8008 57.2461 54.2695C57.2461 53.8203 57.0605 53.5117 56.6895 53.3438C56.4824 53.25 56.1914 53.2012 55.8164 53.1973ZM56.7129 51.5508C56.9473 51.4102 57.0645 51.1582 57.0645 50.7949C57.0645 50.3926 56.9082 50.127 56.5957 49.998C56.3262 49.9082 55.9824 49.8633 55.5645 49.8633H53.666V51.7676H55.7871C56.166 51.7676 56.4746 51.6953 56.7129 51.5508ZM65.918 55.125C65.875 55.5039 65.6777 55.8887 65.3262 56.2793C64.7793 56.9004 64.0137 57.2109 63.0293 57.2109C62.2168 57.2109 61.5 56.9492 60.8789 56.4258C60.2578 55.9023 59.9473 55.0508 59.9473 53.8711C59.9473 52.7656 60.2266 51.918 60.7852 51.3281C61.3477 50.7383 62.0762 50.4434 62.9707 50.4434C63.502 50.4434 63.9805 50.543 64.4062 50.7422C64.832 50.9414 65.1836 51.2559 65.4609 51.6855C65.7109 52.0645 65.873 52.5039 65.9473 53.0039C65.9902 53.2969 66.0078 53.7188 66 54.2695H61.6289C61.6523 54.9102 61.8535 55.3594 62.2324 55.6172C62.4629 55.7773 62.7402 55.8574 63.0645 55.8574C63.4082 55.8574 63.6875 55.7598 63.9023 55.5645C64.0195 55.459 64.123 55.3125 64.2129 55.125H65.918ZM64.2656 53.168C64.2383 52.7266 64.1035 52.3926 63.8613 52.166C63.623 51.9355 63.3262 51.8203 62.9707 51.8203C62.584 51.8203 62.2832 51.9414 62.0684 52.1836C61.8574 52.4258 61.7246 52.7539 61.6699 53.168H64.2656ZM71.5312 50.9062C72.0312 51.2266 72.3184 51.7773 72.3926 52.5586H70.7227C70.6992 52.3438 70.6387 52.1738 70.541 52.0488C70.3574 51.8223 70.0449 51.709 69.6035 51.709C69.2402 51.709 68.9805 51.7656 68.8242 51.8789C68.6719 51.9922 68.5957 52.125 68.5957 52.2773C68.5957 52.4688 68.6777 52.6074 68.8418 52.6934C69.0059 52.7832 69.5859 52.9375 70.582 53.1562C71.2461 53.3125 71.7441 53.5488 72.0762 53.8652C72.4043 54.1855 72.5684 54.5859 72.5684 55.0664C72.5684 55.6992 72.332 56.2168 71.8594 56.6191C71.3906 57.0176 70.6641 57.2168 69.6797 57.2168C68.6758 57.2168 67.9336 57.0059 67.4531 56.584C66.9766 56.1582 66.7383 55.6172 66.7383 54.9609H68.4316C68.4668 55.2578 68.543 55.4688 68.6602 55.5938C68.8672 55.8164 69.25 55.9277 69.8086 55.9277C70.1367 55.9277 70.3965 55.8789 70.5879 55.7812C70.7832 55.6836 70.8809 55.5371 70.8809 55.3418C70.8809 55.1543 70.8027 55.0117 70.6465 54.9141C70.4902 54.8164 69.9102 54.6484 68.9062 54.4102C68.1836 54.2305 67.6738 54.0059 67.377 53.7363C67.0801 53.4707 66.9316 53.0879 66.9316 52.5879C66.9316 51.998 67.1621 51.4922 67.623 51.0703C68.0879 50.6445 68.7402 50.4316 69.5801 50.4316C70.377 50.4316 71.0273 50.5898 71.5312 50.9062ZM76.7344 55.8105V57.0586L75.9434 57.0879C75.1543 57.1152 74.6152 56.9785 74.3262 56.6777C74.1387 56.4863 74.0449 56.1914 74.0449 55.793V51.8613H73.1543V50.6719H74.0449V48.8906H75.6973V50.6719H76.7344V51.8613H75.6973V55.2363C75.6973 55.498 75.7305 55.6621 75.7969 55.7285C75.8633 55.791 76.0664 55.8223 76.4062 55.8223C76.457 55.8223 76.5098 55.8223 76.5645 55.8223C76.623 55.8184 76.6797 55.8145 76.7344 55.8105ZM84.3574 52.1543C83.6855 52.1543 83.2344 52.373 83.0039 52.8105C82.875 53.0566 82.8105 53.4355 82.8105 53.9473V57H81.1289V50.6133H82.7227V51.7266C82.9805 51.3008 83.2051 51.0098 83.3965 50.8535C83.709 50.5918 84.1152 50.4609 84.6152 50.4609C84.6465 50.4609 84.6719 50.4629 84.6914 50.4668C84.7148 50.4668 84.7637 50.4688 84.8379 50.4727V52.1836C84.7324 52.1719 84.6387 52.1641 84.5566 52.1602C84.4746 52.1562 84.4082 52.1543 84.3574 52.1543ZM91.2891 55.125C91.2461 55.5039 91.0488 55.8887 90.6973 56.2793C90.1504 56.9004 89.3848 57.2109 88.4004 57.2109C87.5879 57.2109 86.8711 56.9492 86.25 56.4258C85.6289 55.9023 85.3184 55.0508 85.3184 53.8711C85.3184 52.7656 85.5977 51.918 86.1562 51.3281C86.7188 50.7383 87.4473 50.4434 88.3418 50.4434C88.873 50.4434 89.3516 50.543 89.7773 50.7422C90.2031 50.9414 90.5547 51.2559 90.832 51.6855C91.082 52.0645 91.2441 52.5039 91.3184 53.0039C91.3613 53.2969 91.3789 53.7188 91.3711 54.2695H87C87.0234 54.9102 87.2246 55.3594 87.6035 55.6172C87.834 55.7773 88.1113 55.8574 88.4355 55.8574C88.7793 55.8574 89.0586 55.7598 89.2734 55.5645C89.3906 55.459 89.4941 55.3125 89.584 55.125H91.2891ZM89.6367 53.168C89.6094 52.7266 89.4746 52.3926 89.2324 52.166C88.9941 51.9355 88.6973 51.8203 88.3418 51.8203C87.9551 51.8203 87.6543 51.9414 87.4395 52.1836C87.2285 52.4258 87.0957 52.7539 87.041 53.168H89.6367ZM94.3066 58.1191C94.4863 58.2715 94.7891 58.3477 95.2148 58.3477C95.8164 58.3477 96.2188 58.1465 96.4219 57.7441C96.5547 57.4863 96.6211 57.0527 96.6211 56.4434V56.0332C96.4609 56.3066 96.2891 56.5117 96.1055 56.6484C95.7734 56.9023 95.3418 57.0293 94.8105 57.0293C93.9902 57.0293 93.334 56.7422 92.8418 56.168C92.3535 55.5898 92.1094 54.8086 92.1094 53.8242C92.1094 52.875 92.3457 52.0781 92.8184 51.4336C93.291 50.7852 93.9609 50.4609 94.8281 50.4609C95.1484 50.4609 95.4277 50.5098 95.666 50.6074C96.0723 50.7754 96.4004 51.084 96.6504 51.5332V50.6133H98.2734V56.6719C98.2734 57.4961 98.1348 58.1172 97.8574 58.5352C97.3809 59.2539 96.4668 59.6133 95.1152 59.6133C94.2988 59.6133 93.6328 59.4531 93.1172 59.1328C92.6016 58.8125 92.3164 58.334 92.2617 57.6973H94.0781C94.125 57.8926 94.2012 58.0332 94.3066 58.1191ZM94.0254 54.8203C94.252 55.3594 94.6582 55.6289 95.2441 55.6289C95.6348 55.6289 95.9648 55.4824 96.2344 55.1895C96.5039 54.8926 96.6387 54.4219 96.6387 53.7773C96.6387 53.1719 96.5098 52.7109 96.252 52.3945C95.998 52.0781 95.6562 51.9199 95.2266 51.9199C94.6406 51.9199 94.2363 52.1953 94.0137 52.7461C93.8965 53.0391 93.8379 53.4004 93.8379 53.8301C93.8379 54.2012 93.9004 54.5312 94.0254 54.8203ZM100.078 51.3047C100.52 50.7422 101.277 50.4609 102.352 50.4609C103.051 50.4609 103.672 50.5996 104.215 50.877C104.758 51.1543 105.029 51.6777 105.029 52.4473V55.377C105.029 55.5801 105.033 55.8262 105.041 56.1152C105.053 56.334 105.086 56.4824 105.141 56.5605C105.195 56.6387 105.277 56.7031 105.387 56.7539V57H103.57C103.52 56.8711 103.484 56.75 103.465 56.6367C103.445 56.5234 103.43 56.3945 103.418 56.25C103.188 56.5 102.922 56.7129 102.621 56.8887C102.262 57.0957 101.855 57.1992 101.402 57.1992C100.824 57.1992 100.346 57.0352 99.9668 56.707C99.5918 56.375 99.4043 55.9062 99.4043 55.3008C99.4043 54.5156 99.707 53.9473 100.312 53.5957C100.645 53.4043 101.133 53.2676 101.777 53.1855L102.346 53.1152C102.654 53.0762 102.875 53.0273 103.008 52.9688C103.246 52.8672 103.365 52.709 103.365 52.4941C103.365 52.2324 103.273 52.0527 103.09 51.9551C102.91 51.8535 102.645 51.8027 102.293 51.8027C101.898 51.8027 101.619 51.9004 101.455 52.0957C101.338 52.2402 101.26 52.4355 101.221 52.6816H99.6094C99.6445 52.123 99.8008 51.6641 100.078 51.3047ZM101.32 55.793C101.477 55.9219 101.668 55.9863 101.895 55.9863C102.254 55.9863 102.584 55.8809 102.885 55.6699C103.189 55.459 103.348 55.0742 103.359 54.5156V53.8945C103.254 53.9609 103.146 54.0156 103.037 54.0586C102.932 54.0977 102.785 54.1348 102.598 54.1699L102.223 54.2402C101.871 54.3027 101.619 54.3789 101.467 54.4688C101.209 54.6211 101.08 54.8574 101.08 55.1777C101.08 55.4629 101.16 55.668 101.32 55.793ZM109.729 52.1543C109.057 52.1543 108.605 52.373 108.375 52.8105C108.246 53.0566 108.182 53.4355 108.182 53.9473V57H106.5V50.6133H108.094V51.7266C108.352 51.3008 108.576 51.0098 108.768 50.8535C109.08 50.5918 109.486 50.4609 109.986 50.4609C110.018 50.4609 110.043 50.4629 110.062 50.4668C110.086 50.4668 110.135 50.4688 110.209 50.4727V52.1836C110.104 52.1719 110.01 52.1641 109.928 52.1602C109.846 52.1562 109.779 52.1543 109.729 52.1543ZM117.006 48.375V57H115.383V56.1152C115.145 56.4941 114.873 56.7695 114.568 56.9414C114.264 57.1133 113.885 57.1992 113.432 57.1992C112.686 57.1992 112.057 56.8984 111.545 56.2969C111.037 55.6914 110.783 54.916 110.783 53.9707C110.783 52.8809 111.033 52.0234 111.533 51.3984C112.037 50.7734 112.709 50.4609 113.549 50.4609C113.936 50.4609 114.279 50.5469 114.58 50.7188C114.881 50.8867 115.125 51.1211 115.312 51.4219V48.375H117.006ZM112.506 53.8477C112.506 54.4375 112.623 54.9082 112.857 55.2598C113.088 55.6152 113.439 55.793 113.912 55.793C114.385 55.793 114.744 55.6172 114.99 55.2656C115.236 54.9141 115.359 54.459 115.359 53.9004C115.359 53.1191 115.162 52.5605 114.768 52.2246C114.525 52.0215 114.244 51.9199 113.924 51.9199C113.436 51.9199 113.076 52.1055 112.846 52.4766C112.619 52.8438 112.506 53.3008 112.506 53.8477ZM122.93 50.9062C123.43 51.2266 123.717 51.7773 123.791 52.5586H122.121C122.098 52.3438 122.037 52.1738 121.939 52.0488C121.756 51.8223 121.443 51.709 121.002 51.709C120.639 51.709 120.379 51.7656 120.223 51.8789C120.07 51.9922 119.994 52.125 119.994 52.2773C119.994 52.4688 120.076 52.6074 120.24 52.6934C120.404 52.7832 120.984 52.9375 121.98 53.1562C122.645 53.3125 123.143 53.5488 123.475 53.8652C123.803 54.1855 123.967 54.5859 123.967 55.0664C123.967 55.6992 123.73 56.2168 123.258 56.6191C122.789 57.0176 122.062 57.2168 121.078 57.2168C120.074 57.2168 119.332 57.0059 118.852 56.584C118.375 56.1582 118.137 55.6172 118.137 54.9609H119.83C119.865 55.2578 119.941 55.4688 120.059 55.5938C120.266 55.8164 120.648 55.9277 121.207 55.9277C121.535 55.9277 121.795 55.8789 121.986 55.7812C122.182 55.6836 122.279 55.5371 122.279 55.3418C122.279 55.1543 122.201 55.0117 122.045 54.9141C121.889 54.8164 121.309 54.6484 120.305 54.4102C119.582 54.2305 119.072 54.0059 118.775 53.7363C118.479 53.4707 118.33 53.0879 118.33 52.5879C118.33 51.998 118.561 51.4922 119.021 51.0703C119.486 50.6445 120.139 50.4316 120.979 50.4316C121.775 50.4316 122.426 50.5898 122.93 50.9062ZM126.82 57.5977C126.75 57.8867 126.619 58.1367 126.428 58.3477C126.221 58.5742 125.977 58.7441 125.695 58.8574C125.418 58.9746 125.227 59.0332 125.121 59.0332V58.3887C125.457 58.2949 125.703 58.1387 125.859 57.9199C126.02 57.7012 126.111 57.3945 126.135 57H125.121V55.2539H126.926V56.7656C126.926 57.0312 126.891 57.3086 126.82 57.5977Z" fill="#444444"/>
<path d="M54.9961 68.4043V62.3633H56.8008V68.375C56.8008 69.1094 56.6738 69.6914 56.4199 70.1211C55.9902 70.8477 55.2148 71.2109 54.0938 71.2109C52.9727 71.2109 52.2207 70.918 51.8379 70.332C51.4551 69.7422 51.2637 68.9395 51.2637 67.9238V67.7246H52.9688V67.9238C52.9844 68.5918 53.0566 69.0625 53.1855 69.3359C53.3184 69.6055 53.5996 69.7402 54.0293 69.7402C54.4551 69.7402 54.7363 69.5918 54.873 69.2949C54.9551 69.1191 54.9961 68.8223 54.9961 68.4043ZM63.7852 65.4219C64.3242 66.0977 64.5938 66.8965 64.5938 67.8184C64.5938 68.7559 64.3242 69.5586 63.7852 70.2266C63.2461 70.8906 62.4277 71.2227 61.3301 71.2227C60.2324 71.2227 59.4141 70.8906 58.875 70.2266C58.3359 69.5586 58.0664 68.7559 58.0664 67.8184C58.0664 66.8965 58.3359 66.0977 58.875 65.4219C59.4141 64.7461 60.2324 64.4082 61.3301 64.4082C62.4277 64.4082 63.2461 64.7461 63.7852 65.4219ZM61.3242 65.8203C60.8359 65.8203 60.459 65.9941 60.1934 66.3418C59.9316 66.6855 59.8008 67.1777 59.8008 67.8184C59.8008 68.459 59.9316 68.9531 60.1934 69.3008C60.459 69.6484 60.8359 69.8223 61.3242 69.8223C61.8125 69.8223 62.1875 69.6484 62.4492 69.3008C62.7109 68.9531 62.8418 68.459 62.8418 67.8184C62.8418 67.1777 62.7109 66.6855 62.4492 66.3418C62.1875 65.9941 61.8125 65.8203 61.3242 65.8203ZM71.5664 67.25V71H69.8613V67.1152C69.8613 66.7715 69.8027 66.4941 69.6855 66.2832C69.5332 65.9863 69.2441 65.8379 68.8184 65.8379C68.377 65.8379 68.041 65.9863 67.8105 66.2832C67.584 66.5762 67.4707 66.9961 67.4707 67.543V71H65.8066V62.3926H67.4707V65.4453C67.7129 65.0742 67.9922 64.8164 68.3086 64.6719C68.6289 64.5234 68.9648 64.4492 69.3164 64.4492C69.7109 64.4492 70.0684 64.5176 70.3887 64.6543C70.7129 64.791 70.9785 65 71.1855 65.2812C71.3613 65.5195 71.4688 65.7656 71.5078 66.0195C71.5469 66.2695 71.5664 66.6797 71.5664 67.25ZM76.1367 65.8496C75.5703 65.8496 75.1816 66.0898 74.9707 66.5703C74.8613 66.8242 74.8066 67.1484 74.8066 67.543V71H73.1426V64.625H74.7539V65.5566C74.9688 65.2285 75.1719 64.9922 75.3633 64.8477C75.707 64.5898 76.1426 64.4609 76.6699 64.4609C77.3301 64.4609 77.8691 64.6348 78.2871 64.9824C78.709 65.3262 78.9199 65.8984 78.9199 66.6992V71H77.209V67.1152C77.209 66.7793 77.1641 66.5215 77.0742 66.3418C76.9102 66.0137 76.5977 65.8496 76.1367 65.8496ZM87.0762 69.752C87.502 69.752 87.8477 69.7051 88.1133 69.6113C88.6172 69.4316 88.8691 69.0977 88.8691 68.6094C88.8691 68.3242 88.7441 68.1035 88.4941 67.9473C88.2441 67.7949 87.8516 67.6602 87.3164 67.543L86.4023 67.3379C85.5039 67.1348 84.8828 66.9141 84.5391 66.6758C83.957 66.2773 83.666 65.6543 83.666 64.8066C83.666 64.0332 83.9473 63.3906 84.5098 62.8789C85.0723 62.3672 85.8984 62.1113 86.9883 62.1113C87.8984 62.1113 88.6738 62.3535 89.3145 62.8379C89.959 63.3184 90.2969 64.0176 90.3281 64.9355H88.5938C88.5625 64.416 88.3359 64.0469 87.9141 63.8281C87.6328 63.6836 87.2832 63.6113 86.8652 63.6113C86.4004 63.6113 86.0293 63.7051 85.752 63.8926C85.4746 64.0801 85.3359 64.3418 85.3359 64.6777C85.3359 64.9863 85.4727 65.2168 85.7461 65.3691C85.9219 65.4707 86.2969 65.5898 86.8711 65.7266L88.3594 66.084C89.0117 66.2402 89.5039 66.4492 89.8359 66.7109C90.3516 67.1172 90.6094 67.7051 90.6094 68.4746C90.6094 69.2637 90.3066 69.9199 89.7012 70.4434C89.0996 70.9629 88.248 71.2227 87.1465 71.2227C86.0215 71.2227 85.1367 70.9668 84.4922 70.4551C83.8477 69.9395 83.5254 69.2324 83.5254 68.334H85.248C85.3027 68.7285 85.4102 69.0234 85.5703 69.2188C85.8633 69.5742 86.3652 69.752 87.0762 69.752ZM95.3965 66.3711C95.2559 66.0625 94.9805 65.9082 94.5703 65.9082C94.0938 65.9082 93.7734 66.0625 93.6094 66.3711C93.5195 66.5469 93.4746 66.8086 93.4746 67.1562V71H91.7812V64.625H93.4043V65.5566C93.6113 65.2246 93.8066 64.9883 93.9902 64.8477C94.3145 64.5977 94.7344 64.4727 95.25 64.4727C95.7383 64.4727 96.1328 64.5801 96.4336 64.7949C96.6758 64.9941 96.8594 65.25 96.9844 65.5625C97.2031 65.1875 97.4746 64.9121 97.7988 64.7363C98.1426 64.5605 98.5254 64.4727 98.9473 64.4727C99.2285 64.4727 99.5059 64.5273 99.7793 64.6367C100.053 64.7461 100.301 64.9375 100.523 65.2109C100.703 65.4336 100.824 65.707 100.887 66.0312C100.926 66.2461 100.945 66.5605 100.945 66.9746L100.934 71H99.2227V66.9336C99.2227 66.6914 99.1836 66.4922 99.1055 66.3359C98.957 66.0391 98.6836 65.8906 98.2852 65.8906C97.8242 65.8906 97.5059 66.082 97.3301 66.4648C97.2402 66.668 97.1953 66.9121 97.1953 67.1973V71H95.5137V67.1973C95.5137 66.8184 95.4746 66.543 95.3965 66.3711ZM104.203 64.6133V71H102.51V64.6133H104.203ZM104.203 62.3105V63.8516H102.51V62.3105H104.203ZM108.75 69.8105V71.0586L107.959 71.0879C107.17 71.1152 106.631 70.9785 106.342 70.6777C106.154 70.4863 106.061 70.1914 106.061 69.793V65.8613H105.17V64.6719H106.061V62.8906H107.713V64.6719H108.75V65.8613H107.713V69.2363C107.713 69.498 107.746 69.6621 107.812 69.7285C107.879 69.791 108.082 69.8223 108.422 69.8223C108.473 69.8223 108.525 69.8223 108.58 69.8223C108.639 69.8184 108.695 69.8145 108.75 69.8105ZM115.594 67.25V71H113.889V67.1152C113.889 66.7715 113.83 66.4941 113.713 66.2832C113.561 65.9863 113.271 65.8379 112.846 65.8379C112.404 65.8379 112.068 65.9863 111.838 66.2832C111.611 66.5762 111.498 66.9961 111.498 67.543V71H109.834V62.3926H111.498V65.4453C111.74 65.0742 112.02 64.8164 112.336 64.6719C112.656 64.5234 112.992 64.4492 113.344 64.4492C113.738 64.4492 114.096 64.5176 114.416 64.6543C114.74 64.791 115.006 65 115.213 65.2812C115.389 65.5195 115.496 65.7656 115.535 66.0195C115.574 66.2695 115.594 66.6797 115.594 67.25Z" fill="#FF6F3D"/>
<circle cx="47.5" cy="45.5" r="1.5" fill="#444444"/>
</svg>
