<svg width="206" height="80" viewBox="0 0 206 80" fill="none" xmlns="http://www.w3.org/2000/svg">
<path d="M19.5 3C19.5 1.61929 20.6193 0.5 22 0.5H184C185.381 0.5 186.5 1.61929 186.5 3V77C186.5 78.3807 185.381 79.5 184 79.5H22C20.6193 79.5 19.5 78.3807 19.5 77V3Z" fill="#EFEFEF" stroke="#CCCCCC"/>
<path d="M39 19.5H38.5V20V79V79.5H39H168H168.5V79V20V19.5H168H39Z" fill="white" stroke="#CCCCCC"/>
<path d="M20 17H35V79H22C20.8954 79 20 78.1046 20 77V17Z" fill="#F5F5F5"/>
<path d="M186 17H171V79H184.015C185.111 79 186 77.8732 186 76.4832V17Z" fill="#F5F5F5"/>
<path d="M20 3C20 1.89543 20.8954 1 22 1H184C185.105 1 186 1.89543 186 3V9H20V3Z" fill="#446995"/>
<path fill-rule="evenodd" clip-rule="evenodd" d="M186 17H20V16H186V17Z" fill="#CCCCCC"/>
<path fill-rule="evenodd" clip-rule="evenodd" d="M36 16V79H35V16H36Z" fill="#CCCCCC"/>
<path fill-rule="evenodd" clip-rule="evenodd" d="M172 17V79H171V17H172Z" fill="#CCCCCC"/>
<rect x="52.25" y="36.25" width="95.5" height="2.5" rx="1.25" stroke="#333333" stroke-opacity="0.3" stroke-width="2.5"/>
<rect x="52.25" y="26.25" width="95.5" height="2.5" rx="1.25" stroke="#333333" stroke-opacity="0.3" stroke-width="2.5"/>
<circle cx="112.5" cy="67.5" r="1.5" fill="#444444"/>
<rect x="29.5" y="44.5" width="88" height="29" fill="white" stroke="#444444"/>
<circle cx="117.5" cy="73.5" r="1.5" fill="#444444"/>
<circle cx="117.5" cy="44.5" r="1.5" fill="#444444"/>
<circle cx="29.5" cy="73.5" r="1.5" fill="#444444"/>
<path d="M37.8574 56H33.9434V47.3633H38.1387C39.1973 47.3789 39.9473 47.6855 40.3887 48.2832C40.6543 48.6504 40.7871 49.0898 40.7871 49.6016C40.7871 50.1289 40.6543 50.5527 40.3887 50.873C40.2402 51.0527 40.0215 51.2168 39.7324 51.3652C40.1738 51.5254 40.5059 51.7793 40.7285 52.127C40.9551 52.4746 41.0684 52.8965 41.0684 53.3926C41.0684 53.9043 40.9395 54.3633 40.6816 54.7695C40.5176 55.0391 40.3125 55.2656 40.0664 55.4492C39.7891 55.6602 39.4609 55.8047 39.082 55.8828C38.707 55.9609 38.2988 56 37.8574 56ZM37.8164 52.1973H35.666V54.5H37.7871C38.166 54.5 38.4609 54.4492 38.6719 54.3477C39.0547 54.1602 39.2461 53.8008 39.2461 53.2695C39.2461 52.8203 39.0605 52.5117 38.6895 52.3438C38.4824 52.25 38.1914 52.2012 37.8164 52.1973ZM38.7129 50.5508C38.9473 50.4102 39.0645 50.1582 39.0645 49.7949C39.0645 49.3926 38.9082 49.127 38.5957 48.998C38.3262 48.9082 37.9824 48.8633 37.5645 48.8633H35.666V50.7676H37.7871C38.166 50.7676 38.4746 50.6953 38.7129 50.5508ZM47.918 54.125C47.875 54.5039 47.6777 54.8887 47.3262 55.2793C46.7793 55.9004 46.0137 56.2109 45.0293 56.2109C44.2168 56.2109 43.5 55.9492 42.8789 55.4258C42.2578 54.9023 41.9473 54.0508 41.9473 52.8711C41.9473 51.7656 42.2266 50.918 42.7852 50.3281C43.3477 49.7383 44.0762 49.4434 44.9707 49.4434C45.502 49.4434 45.9805 49.543 46.4062 49.7422C46.832 49.9414 47.1836 50.2559 47.4609 50.6855C47.7109 51.0645 47.873 51.5039 47.9473 52.0039C47.9902 52.2969 48.0078 52.7188 48 53.2695H43.6289C43.6523 53.9102 43.8535 54.3594 44.2324 54.6172C44.4629 54.7773 44.7402 54.8574 45.0645 54.8574C45.4082 54.8574 45.6875 54.7598 45.9023 54.5645C46.0195 54.459 46.123 54.3125 46.2129 54.125H47.918ZM46.2656 52.168C46.2383 51.7266 46.1035 51.3926 45.8613 51.166C45.623 50.9355 45.3262 50.8203 44.9707 50.8203C44.584 50.8203 44.2832 50.9414 44.0684 51.1836C43.8574 51.4258 43.7246 51.7539 43.6699 52.168H46.2656ZM53.5312 49.9062C54.0312 50.2266 54.3184 50.7773 54.3926 51.5586H52.7227C52.6992 51.3438 52.6387 51.1738 52.541 51.0488C52.3574 50.8223 52.0449 50.709 51.6035 50.709C51.2402 50.709 50.9805 50.7656 50.8242 50.8789C50.6719 50.9922 50.5957 51.125 50.5957 51.2773C50.5957 51.4688 50.6777 51.6074 50.8418 51.6934C51.0059 51.7832 51.5859 51.9375 52.582 52.1562C53.2461 52.3125 53.7441 52.5488 54.0762 52.8652C54.4043 53.1855 54.5684 53.5859 54.5684 54.0664C54.5684 54.6992 54.332 55.2168 53.8594 55.6191C53.3906 56.0176 52.6641 56.2168 51.6797 56.2168C50.6758 56.2168 49.9336 56.0059 49.4531 55.584C48.9766 55.1582 48.7383 54.6172 48.7383 53.9609H50.4316C50.4668 54.2578 50.543 54.4688 50.6602 54.5938C50.8672 54.8164 51.25 54.9277 51.8086 54.9277C52.1367 54.9277 52.3965 54.8789 52.5879 54.7812C52.7832 54.6836 52.8809 54.5371 52.8809 54.3418C52.8809 54.1543 52.8027 54.0117 52.6465 53.9141C52.4902 53.8164 51.9102 53.6484 50.9062 53.4102C50.1836 53.2305 49.6738 53.0059 49.377 52.7363C49.0801 52.4707 48.9316 52.0879 48.9316 51.5879C48.9316 50.998 49.1621 50.4922 49.623 50.0703C50.0879 49.6445 50.7402 49.4316 51.5801 49.4316C52.377 49.4316 53.0273 49.5898 53.5312 49.9062ZM58.7344 54.8105V56.0586L57.9434 56.0879C57.1543 56.1152 56.6152 55.9785 56.3262 55.6777C56.1387 55.4863 56.0449 55.1914 56.0449 54.793V50.8613H55.1543V49.6719H56.0449V47.8906H57.6973V49.6719H58.7344V50.8613H57.6973V54.2363C57.6973 54.498 57.7305 54.6621 57.7969 54.7285C57.8633 54.791 58.0664 54.8223 58.4062 54.8223C58.457 54.8223 58.5098 54.8223 58.5645 54.8223C58.623 54.8184 58.6797 54.8145 58.7344 54.8105ZM66.3574 51.1543C65.6855 51.1543 65.2344 51.373 65.0039 51.8105C64.875 52.0566 64.8105 52.4355 64.8105 52.9473V56H63.1289V49.6133H64.7227V50.7266C64.9805 50.3008 65.2051 50.0098 65.3965 49.8535C65.709 49.5918 66.1152 49.4609 66.6152 49.4609C66.6465 49.4609 66.6719 49.4629 66.6914 49.4668C66.7148 49.4668 66.7637 49.4688 66.8379 49.4727V51.1836C66.7324 51.1719 66.6387 51.1641 66.5566 51.1602C66.4746 51.1562 66.4082 51.1543 66.3574 51.1543ZM73.2891 54.125C73.2461 54.5039 73.0488 54.8887 72.6973 55.2793C72.1504 55.9004 71.3848 56.2109 70.4004 56.2109C69.5879 56.2109 68.8711 55.9492 68.25 55.4258C67.6289 54.9023 67.3184 54.0508 67.3184 52.8711C67.3184 51.7656 67.5977 50.918 68.1562 50.3281C68.7188 49.7383 69.4473 49.4434 70.3418 49.4434C70.873 49.4434 71.3516 49.543 71.7773 49.7422C72.2031 49.9414 72.5547 50.2559 72.832 50.6855C73.082 51.0645 73.2441 51.5039 73.3184 52.0039C73.3613 52.2969 73.3789 52.7188 73.3711 53.2695H69C69.0234 53.9102 69.2246 54.3594 69.6035 54.6172C69.834 54.7773 70.1113 54.8574 70.4355 54.8574C70.7793 54.8574 71.0586 54.7598 71.2734 54.5645C71.3906 54.459 71.4941 54.3125 71.584 54.125H73.2891ZM71.6367 52.168C71.6094 51.7266 71.4746 51.3926 71.2324 51.166C70.9941 50.9355 70.6973 50.8203 70.3418 50.8203C69.9551 50.8203 69.6543 50.9414 69.4395 51.1836C69.2285 51.4258 69.0957 51.7539 69.041 52.168H71.6367ZM76.3066 57.1191C76.4863 57.2715 76.7891 57.3477 77.2148 57.3477C77.8164 57.3477 78.2188 57.1465 78.4219 56.7441C78.5547 56.4863 78.6211 56.0527 78.6211 55.4434V55.0332C78.4609 55.3066 78.2891 55.5117 78.1055 55.6484C77.7734 55.9023 77.3418 56.0293 76.8105 56.0293C75.9902 56.0293 75.334 55.7422 74.8418 55.168C74.3535 54.5898 74.1094 53.8086 74.1094 52.8242C74.1094 51.875 74.3457 51.0781 74.8184 50.4336C75.291 49.7852 75.9609 49.4609 76.8281 49.4609C77.1484 49.4609 77.4277 49.5098 77.666 49.6074C78.0723 49.7754 78.4004 50.084 78.6504 50.5332V49.6133H80.2734V55.6719C80.2734 56.4961 80.1348 57.1172 79.8574 57.5352C79.3809 58.2539 78.4668 58.6133 77.1152 58.6133C76.2988 58.6133 75.6328 58.4531 75.1172 58.1328C74.6016 57.8125 74.3164 57.334 74.2617 56.6973H76.0781C76.125 56.8926 76.2012 57.0332 76.3066 57.1191ZM76.0254 53.8203C76.252 54.3594 76.6582 54.6289 77.2441 54.6289C77.6348 54.6289 77.9648 54.4824 78.2344 54.1895C78.5039 53.8926 78.6387 53.4219 78.6387 52.7773C78.6387 52.1719 78.5098 51.7109 78.252 51.3945C77.998 51.0781 77.6562 50.9199 77.2266 50.9199C76.6406 50.9199 76.2363 51.1953 76.0137 51.7461C75.8965 52.0391 75.8379 52.4004 75.8379 52.8301C75.8379 53.2012 75.9004 53.5312 76.0254 53.8203ZM82.0781 50.3047C82.5195 49.7422 83.2773 49.4609 84.3516 49.4609C85.0508 49.4609 85.6719 49.5996 86.2148 49.877C86.7578 50.1543 87.0293 50.6777 87.0293 51.4473V54.377C87.0293 54.5801 87.0332 54.8262 87.041 55.1152C87.0527 55.334 87.0859 55.4824 87.1406 55.5605C87.1953 55.6387 87.2773 55.7031 87.3867 55.7539V56H85.5703C85.5195 55.8711 85.4844 55.75 85.4648 55.6367C85.4453 55.5234 85.4297 55.3945 85.418 55.25C85.1875 55.5 84.9219 55.7129 84.6211 55.8887C84.2617 56.0957 83.8555 56.1992 83.4023 56.1992C82.8242 56.1992 82.3457 56.0352 81.9668 55.707C81.5918 55.375 81.4043 54.9062 81.4043 54.3008C81.4043 53.5156 81.707 52.9473 82.3125 52.5957C82.6445 52.4043 83.1328 52.2676 83.7773 52.1855L84.3457 52.1152C84.6543 52.0762 84.875 52.0273 85.0078 51.9688C85.2461 51.8672 85.3652 51.709 85.3652 51.4941C85.3652 51.2324 85.2734 51.0527 85.0898 50.9551C84.9102 50.8535 84.6445 50.8027 84.293 50.8027C83.8984 50.8027 83.6191 50.9004 83.4551 51.0957C83.3379 51.2402 83.2598 51.4355 83.2207 51.6816H81.6094C81.6445 51.123 81.8008 50.6641 82.0781 50.3047ZM83.3203 54.793C83.4766 54.9219 83.668 54.9863 83.8945 54.9863C84.2539 54.9863 84.584 54.8809 84.8848 54.6699C85.1895 54.459 85.3477 54.0742 85.3594 53.5156V52.8945C85.2539 52.9609 85.1465 53.0156 85.0371 53.0586C84.9316 53.0977 84.7852 53.1348 84.5977 53.1699L84.2227 53.2402C83.8711 53.3027 83.6191 53.3789 83.4668 53.4688C83.209 53.6211 83.0801 53.8574 83.0801 54.1777C83.0801 54.4629 83.1602 54.668 83.3203 54.793ZM91.7285 51.1543C91.0566 51.1543 90.6055 51.373 90.375 51.8105C90.2461 52.0566 90.1816 52.4355 90.1816 52.9473V56H88.5V49.6133H90.0938V50.7266C90.3516 50.3008 90.5762 50.0098 90.7676 49.8535C91.0801 49.5918 91.4863 49.4609 91.9863 49.4609C92.0176 49.4609 92.043 49.4629 92.0625 49.4668C92.0859 49.4668 92.1348 49.4688 92.209 49.4727V51.1836C92.1035 51.1719 92.0098 51.1641 91.9277 51.1602C91.8457 51.1562 91.7793 51.1543 91.7285 51.1543ZM99.0059 47.375V56H97.3828V55.1152C97.1445 55.4941 96.873 55.7695 96.5684 55.9414C96.2637 56.1133 95.8848 56.1992 95.4316 56.1992C94.6855 56.1992 94.0566 55.8984 93.5449 55.2969C93.0371 54.6914 92.7832 53.916 92.7832 52.9707C92.7832 51.8809 93.0332 51.0234 93.5332 50.3984C94.0371 49.7734 94.709 49.4609 95.5488 49.4609C95.9355 49.4609 96.2793 49.5469 96.5801 49.7188C96.8809 49.8867 97.125 50.1211 97.3125 50.4219V47.375H99.0059ZM94.5059 52.8477C94.5059 53.4375 94.623 53.9082 94.8574 54.2598C95.0879 54.6152 95.4395 54.793 95.9121 54.793C96.3848 54.793 96.7441 54.6172 96.9902 54.2656C97.2363 53.9141 97.3594 53.459 97.3594 52.9004C97.3594 52.1191 97.1621 51.5605 96.7676 51.2246C96.5254 51.0215 96.2441 50.9199 95.9238 50.9199C95.4355 50.9199 95.0762 51.1055 94.8457 51.4766C94.6191 51.8438 94.5059 52.3008 94.5059 52.8477ZM104.93 49.9062C105.43 50.2266 105.717 50.7773 105.791 51.5586H104.121C104.098 51.3438 104.037 51.1738 103.939 51.0488C103.756 50.8223 103.443 50.709 103.002 50.709C102.639 50.709 102.379 50.7656 102.223 50.8789C102.07 50.9922 101.994 51.125 101.994 51.2773C101.994 51.4688 102.076 51.6074 102.24 51.6934C102.404 51.7832 102.984 51.9375 103.98 52.1562C104.645 52.3125 105.143 52.5488 105.475 52.8652C105.803 53.1855 105.967 53.5859 105.967 54.0664C105.967 54.6992 105.73 55.2168 105.258 55.6191C104.789 56.0176 104.062 56.2168 103.078 56.2168C102.074 56.2168 101.332 56.0059 100.852 55.584C100.375 55.1582 100.137 54.6172 100.137 53.9609H101.83C101.865 54.2578 101.941 54.4688 102.059 54.5938C102.266 54.8164 102.648 54.9277 103.207 54.9277C103.535 54.9277 103.795 54.8789 103.986 54.7812C104.182 54.6836 104.279 54.5371 104.279 54.3418C104.279 54.1543 104.201 54.0117 104.045 53.9141C103.889 53.8164 103.309 53.6484 102.305 53.4102C101.582 53.2305 101.072 53.0059 100.775 52.7363C100.479 52.4707 100.33 52.0879 100.33 51.5879C100.33 50.998 100.561 50.4922 101.021 50.0703C101.486 49.6445 102.139 49.4316 102.979 49.4316C103.775 49.4316 104.426 49.5898 104.93 49.9062ZM108.82 56.5977C108.75 56.8867 108.619 57.1367 108.428 57.3477C108.221 57.5742 107.977 57.7441 107.695 57.8574C107.418 57.9746 107.227 58.0332 107.121 58.0332V57.3887C107.457 57.2949 107.703 57.1387 107.859 56.9199C108.02 56.7012 108.111 56.3945 108.135 56H107.121V54.2539H108.926V55.7656C108.926 56.0312 108.891 56.3086 108.82 56.5977Z" fill="#444444"/>
<path d="M36.9961 67.4043V61.3633H38.8008V67.375C38.8008 68.1094 38.6738 68.6914 38.4199 69.1211C37.9902 69.8477 37.2148 70.2109 36.0938 70.2109C34.9727 70.2109 34.2207 69.918 33.8379 69.332C33.4551 68.7422 33.2637 67.9395 33.2637 66.9238V66.7246H34.9688V66.9238C34.9844 67.5918 35.0566 68.0625 35.1855 68.3359C35.3184 68.6055 35.5996 68.7402 36.0293 68.7402C36.4551 68.7402 36.7363 68.5918 36.873 68.2949C36.9551 68.1191 36.9961 67.8223 36.9961 67.4043ZM45.7852 64.4219C46.3242 65.0977 46.5938 65.8965 46.5938 66.8184C46.5938 67.7559 46.3242 68.5586 45.7852 69.2266C45.2461 69.8906 44.4277 70.2227 43.3301 70.2227C42.2324 70.2227 41.4141 69.8906 40.875 69.2266C40.3359 68.5586 40.0664 67.7559 40.0664 66.8184C40.0664 65.8965 40.3359 65.0977 40.875 64.4219C41.4141 63.7461 42.2324 63.4082 43.3301 63.4082C44.4277 63.4082 45.2461 63.7461 45.7852 64.4219ZM43.3242 64.8203C42.8359 64.8203 42.459 64.9941 42.1934 65.3418C41.9316 65.6855 41.8008 66.1777 41.8008 66.8184C41.8008 67.459 41.9316 67.9531 42.1934 68.3008C42.459 68.6484 42.8359 68.8223 43.3242 68.8223C43.8125 68.8223 44.1875 68.6484 44.4492 68.3008C44.7109 67.9531 44.8418 67.459 44.8418 66.8184C44.8418 66.1777 44.7109 65.6855 44.4492 65.3418C44.1875 64.9941 43.8125 64.8203 43.3242 64.8203ZM53.5664 66.25V70H51.8613V66.1152C51.8613 65.7715 51.8027 65.4941 51.6855 65.2832C51.5332 64.9863 51.2441 64.8379 50.8184 64.8379C50.377 64.8379 50.041 64.9863 49.8105 65.2832C49.584 65.5762 49.4707 65.9961 49.4707 66.543V70H47.8066V61.3926H49.4707V64.4453C49.7129 64.0742 49.9922 63.8164 50.3086 63.6719C50.6289 63.5234 50.9648 63.4492 51.3164 63.4492C51.7109 63.4492 52.0684 63.5176 52.3887 63.6543C52.7129 63.791 52.9785 64 53.1855 64.2812C53.3613 64.5195 53.4688 64.7656 53.5078 65.0195C53.5469 65.2695 53.5664 65.6797 53.5664 66.25ZM58.1367 64.8496C57.5703 64.8496 57.1816 65.0898 56.9707 65.5703C56.8613 65.8242 56.8066 66.1484 56.8066 66.543V70H55.1426V63.625H56.7539V64.5566C56.9688 64.2285 57.1719 63.9922 57.3633 63.8477C57.707 63.5898 58.1426 63.4609 58.6699 63.4609C59.3301 63.4609 59.8691 63.6348 60.2871 63.9824C60.709 64.3262 60.9199 64.8984 60.9199 65.6992V70H59.209V66.1152C59.209 65.7793 59.1641 65.5215 59.0742 65.3418C58.9102 65.0137 58.5977 64.8496 58.1367 64.8496ZM69.0762 68.752C69.502 68.752 69.8477 68.7051 70.1133 68.6113C70.6172 68.4316 70.8691 68.0977 70.8691 67.6094C70.8691 67.3242 70.7441 67.1035 70.4941 66.9473C70.2441 66.7949 69.8516 66.6602 69.3164 66.543L68.4023 66.3379C67.5039 66.1348 66.8828 65.9141 66.5391 65.6758C65.957 65.2773 65.666 64.6543 65.666 63.8066C65.666 63.0332 65.9473 62.3906 66.5098 61.8789C67.0723 61.3672 67.8984 61.1113 68.9883 61.1113C69.8984 61.1113 70.6738 61.3535 71.3145 61.8379C71.959 62.3184 72.2969 63.0176 72.3281 63.9355H70.5938C70.5625 63.416 70.3359 63.0469 69.9141 62.8281C69.6328 62.6836 69.2832 62.6113 68.8652 62.6113C68.4004 62.6113 68.0293 62.7051 67.752 62.8926C67.4746 63.0801 67.3359 63.3418 67.3359 63.6777C67.3359 63.9863 67.4727 64.2168 67.7461 64.3691C67.9219 64.4707 68.2969 64.5898 68.8711 64.7266L70.3594 65.084C71.0117 65.2402 71.5039 65.4492 71.8359 65.7109C72.3516 66.1172 72.6094 66.7051 72.6094 67.4746C72.6094 68.2637 72.3066 68.9199 71.7012 69.4434C71.0996 69.9629 70.248 70.2227 69.1465 70.2227C68.0215 70.2227 67.1367 69.9668 66.4922 69.4551C65.8477 68.9395 65.5254 68.2324 65.5254 67.334H67.248C67.3027 67.7285 67.4102 68.0234 67.5703 68.2188C67.8633 68.5742 68.3652 68.752 69.0762 68.752ZM77.3965 65.3711C77.2559 65.0625 76.9805 64.9082 76.5703 64.9082C76.0938 64.9082 75.7734 65.0625 75.6094 65.3711C75.5195 65.5469 75.4746 65.8086 75.4746 66.1562V70H73.7812V63.625H75.4043V64.5566C75.6113 64.2246 75.8066 63.9883 75.9902 63.8477C76.3145 63.5977 76.7344 63.4727 77.25 63.4727C77.7383 63.4727 78.1328 63.5801 78.4336 63.7949C78.6758 63.9941 78.8594 64.25 78.9844 64.5625C79.2031 64.1875 79.4746 63.9121 79.7988 63.7363C80.1426 63.5605 80.5254 63.4727 80.9473 63.4727C81.2285 63.4727 81.5059 63.5273 81.7793 63.6367C82.0527 63.7461 82.3008 63.9375 82.5234 64.2109C82.7031 64.4336 82.8242 64.707 82.8867 65.0312C82.9258 65.2461 82.9453 65.5605 82.9453 65.9746L82.9336 70H81.2227V65.9336C81.2227 65.6914 81.1836 65.4922 81.1055 65.3359C80.957 65.0391 80.6836 64.8906 80.2852 64.8906C79.8242 64.8906 79.5059 65.082 79.3301 65.4648C79.2402 65.668 79.1953 65.9121 79.1953 66.1973V70H77.5137V66.1973C77.5137 65.8184 77.4746 65.543 77.3965 65.3711ZM86.2031 63.6133V70H84.5098V63.6133H86.2031ZM86.2031 61.3105V62.8516H84.5098V61.3105H86.2031ZM90.75 68.8105V70.0586L89.959 70.0879C89.1699 70.1152 88.6309 69.9785 88.3418 69.6777C88.1543 69.4863 88.0605 69.1914 88.0605 68.793V64.8613H87.1699V63.6719H88.0605V61.8906H89.7129V63.6719H90.75V64.8613H89.7129V68.2363C89.7129 68.498 89.7461 68.6621 89.8125 68.7285C89.8789 68.791 90.082 68.8223 90.4219 68.8223C90.4727 68.8223 90.5254 68.8223 90.5801 68.8223C90.6387 68.8184 90.6953 68.8145 90.75 68.8105ZM97.5938 66.25V70H95.8887V66.1152C95.8887 65.7715 95.8301 65.4941 95.7129 65.2832C95.5605 64.9863 95.2715 64.8379 94.8457 64.8379C94.4043 64.8379 94.0684 64.9863 93.8379 65.2832C93.6113 65.5762 93.498 65.9961 93.498 66.543V70H91.834V61.3926H93.498V64.4453C93.7402 64.0742 94.0195 63.8164 94.3359 63.6719C94.6562 63.5234 94.9922 63.4492 95.3438 63.4492C95.7383 63.4492 96.0957 63.5176 96.416 63.6543C96.7402 63.791 97.0059 64 97.2129 64.2812C97.3887 64.5195 97.4961 64.7656 97.5352 65.0195C97.5742 65.2695 97.5938 65.6797 97.5938 66.25Z" fill="#FF6F3D"/>
<circle cx="29.5" cy="44.5" r="1.5" fill="#444444"/>
<path d="M123.5 41.6774C123.5 40.4017 123.833 39.786 124.224 39.4661C124.636 39.1289 125.236 39.0153 125.997 39.0153H173.592C174.901 39.0153 175.944 40.0533 175.944 41.3101V68.5054C175.944 69.7621 174.901 70.8002 173.592 70.8002H125.992C125.458 70.8002 125.044 70.7994 124.702 70.7575C124.364 70.7162 124.156 70.6404 124.014 70.5319C123.741 70.3236 123.5 69.8254 123.5 68.335V41.6774Z" fill="white" stroke="#333333"/>
<path fill-rule="evenodd" clip-rule="evenodd" d="M154.797 54.0509C147.948 58.6284 148.542 57.6453 143.165 54.0509L124.051 70.051C124.284 70.5375 124.691 70.551 125.715 70.5498H172.138C174.02 70.5647 174.326 70.2211 175.051 69.5509L154.797 54.0509Z" fill="#EFEFEF"/>
<path d="M154.657 53.7849L157.204 55.9099L175.051 69.5509M143.293 53.9649L123.897 70.851" stroke="#333333" stroke-linecap="round" stroke-linejoin="round"/>
<path fill-rule="evenodd" clip-rule="evenodd" d="M166.5 33L166.551 46.0242L175.5 40L166.5 33Z" fill="#BDECFF"/>
<path fill-rule="evenodd" clip-rule="evenodd" d="M146.485 21.8545C145.968 22.1628 147.102 22.2455 147.702 22.2455H151.773C152.373 22.2455 153.473 22.0827 152.956 21.7743L151.238 20.4645C150.515 19.9566 149.275 19.7429 148.242 20.4645L146.485 21.8545Z" fill="#BDECFF"/>
<path fill-rule="evenodd" clip-rule="evenodd" d="M132.982 32.5509V46.4733L123.551 39.4956L132.982 32.5509Z" fill="#BDECFF"/>
<path d="M155.5 53.5L175.5 39.766M143.551 54.0509L123.551 40.0509" stroke="#333333" stroke-linecap="round" stroke-linejoin="round"/>
<path d="M150.858 56.9231L150.868 56.9164L150.878 56.9093L166.29 45.9361L166.5 45.7865V45.5288V22.5818C166.5 22.0073 166.053 21.5 165.452 21.5H140H139.793L139.646 21.6464L132.646 28.6464L132.5 28.7929V29V45.5049V45.755L132.7 45.905L147.181 56.7594L147.181 56.7595L147.19 56.7659C147.685 57.12 148.226 57.4177 148.853 57.4855C149.493 57.5549 150.148 57.3772 150.858 56.9231Z" fill="white" stroke="#333333"/>
<path fill-rule="evenodd" clip-rule="evenodd" d="M140 29V22H141V29C141 29.5523 140.552 30 140 30H133V29H140Z" fill="#333333"/>
<path fill-rule="evenodd" clip-rule="evenodd" d="M155.785 37.7345C155.785 38.57 155.66 39.3369 155.41 40.0309C155.16 40.7202 154.808 41.2589 154.348 41.6424C153.897 42.0259 153.375 42.2222 152.777 42.2222C152.335 42.2222 151.956 42.0989 151.634 41.8524C151.313 41.6059 151.094 41.2726 150.983 40.8526H150.885C150.612 41.3091 150.278 41.6515 149.876 41.8798C149.474 42.1081 149.024 42.2222 148.524 42.2222C147.618 42.2222 146.899 41.9163 146.377 41.3C145.86 40.6883 145.601 39.8574 145.601 38.8119C145.601 37.6067 145.944 36.6343 146.636 35.8856C147.328 35.1323 148.252 34.7534 149.416 34.7534C149.84 34.7534 150.309 34.7945 150.818 34.8767C151.335 34.9543 151.795 35.0593 152.197 35.2008L152.014 39.2776V39.4876C152.014 40.4235 152.304 40.8891 152.884 40.8891C153.326 40.8891 153.674 40.5924 153.928 39.9943C154.192 39.3963 154.321 38.6385 154.321 37.7163C154.321 36.7165 154.125 35.84 153.736 35.0867C153.348 34.3288 152.795 33.7445 152.076 33.3336C151.358 32.9273 150.532 32.7219 149.604 32.7219C148.417 32.7219 147.386 32.9775 146.507 33.4934C145.632 34.0093 144.963 34.7443 144.503 35.703C144.039 36.6571 143.811 37.7619 143.811 39.0219C143.811 40.7157 144.244 42.0213 145.105 42.9298C145.967 43.8429 147.207 44.2994 148.823 44.2994C150.055 44.2994 151.335 44.0346 152.674 43.5096V44.9477C151.505 45.4498 150.233 45.7009 148.859 45.7009C146.797 45.7009 145.195 45.1211 144.039 43.957C142.887 42.7883 142.312 41.1631 142.312 39.0767C142.312 37.5519 142.624 36.196 143.249 35.0091C143.874 33.8175 144.735 32.9045 145.837 32.2745C146.944 31.6445 148.198 31.3295 149.595 31.3295C150.804 31.3295 151.875 31.5943 152.817 32.1193C153.763 32.6443 154.495 33.3975 155.013 34.3699C155.526 35.3378 155.785 36.4608 155.785 37.7345ZM147.198 38.8439C147.198 40.2044 147.707 40.8846 148.725 40.8846C149.8 40.8846 150.385 40.0309 150.488 38.3189L150.586 36.2234C150.233 36.123 149.858 36.0728 149.457 36.0728C148.743 36.0728 148.189 36.3193 147.788 36.8169C147.399 37.3191 147.198 37.9902 147.198 38.8439Z" fill="url(#paint0_linear_80_3)"/>
<path d="M130 35L123.5 40" stroke="#333333" stroke-linecap="round" stroke-linejoin="round"/>
<path d="M169 35L175.5 40" stroke="#333333" stroke-linecap="round" stroke-linejoin="round"/>
<path fill-rule="evenodd" clip-rule="evenodd" d="M140 22V29H133L140 22Z" fill="url(#paint1_linear_80_3)"/>
<defs>
<linearGradient id="paint0_linear_80_3" x1="144.41" y1="31.2035" x2="150.597" y2="40.5369" gradientUnits="userSpaceOnUse">
<stop stop-color="#FFC671"/>
<stop offset="1" stop-color="#FF6F3D"/>
</linearGradient>
<linearGradient id="paint1_linear_80_3" x1="134.769" y1="23.6371" x2="138.283" y2="27.4878" gradientUnits="userSpaceOnUse">
<stop stop-color="#FFC671"/>
<stop offset="1" stop-color="#FF6F3D"/>
</linearGradient>
</defs>
</svg>
