<svg width="168" height="80" viewBox="0 0 168 80" fill="none" xmlns="http://www.w3.org/2000/svg">
<g clip-path="url(#clip0_4_109)">
<path d="M0.5 3C0.5 1.61929 1.61929 0.5 3 0.5H165C166.381 0.5 167.5 1.61929 167.5 3V77C167.5 78.3807 166.381 79.5 165 79.5H3C1.61929 79.5 0.5 78.3807 0.5 77V3Z" fill="#EFEFEF" stroke="#CCCCCC"/>
<path d="M20 19.5H19.5V20V79V79.5H20H149H149.5V79V20V19.5H149H20Z" fill="white" stroke="#CCCCCC"/>
<path d="M1 17H16V79H3C1.89543 79 1 78.1046 1 77V17Z" fill="#F5F5F5"/>
<path d="M167 17H152V79H165.015C166.111 79 167 77.8732 167 76.4832V17Z" fill="#F5F5F5"/>
<path d="M1 3C1 1.89543 1.89543 1 3 1H165C166.105 1 167 1.89543 167 3V9H1V3Z" fill="#446995"/>
<path fill-rule="evenodd" clip-rule="evenodd" d="M167 17H1V16H167V17Z" fill="#CCCCCC"/>
<path fill-rule="evenodd" clip-rule="evenodd" d="M17 16V79H16V16H17Z" fill="#CCCCCC"/>
<path fill-rule="evenodd" clip-rule="evenodd" d="M153 17V79H152V17H153Z" fill="#CCCCCC"/>
<rect x="33.25" y="39.25" width="95.5" height="2.5" rx="1.25" stroke="#333333" stroke-opacity="0.3" stroke-width="2.5"/>
<rect x="33.25" y="27.25" width="95.5" height="2.5" rx="1.25" stroke="#333333" stroke-opacity="0.3" stroke-width="2.5"/>
<path d="M36.8574 59H32.9434V50.3633H37.1387C38.1973 50.3789 38.9473 50.6855 39.3887 51.2832C39.6543 51.6504 39.7871 52.0898 39.7871 52.6016C39.7871 53.1289 39.6543 53.5527 39.3887 53.873C39.2402 54.0527 39.0215 54.2168 38.7324 54.3652C39.1738 54.5254 39.5059 54.7793 39.7285 55.127C39.9551 55.4746 40.0684 55.8965 40.0684 56.3926C40.0684 56.9043 39.9395 57.3633 39.6816 57.7695C39.5176 58.0391 39.3125 58.2656 39.0664 58.4492C38.7891 58.6602 38.4609 58.8047 38.082 58.8828C37.707 58.9609 37.2988 59 36.8574 59ZM36.8164 55.1973H34.666V57.5H36.7871C37.166 57.5 37.4609 57.4492 37.6719 57.3477C38.0547 57.1602 38.2461 56.8008 38.2461 56.2695C38.2461 55.8203 38.0605 55.5117 37.6895 55.3438C37.4824 55.25 37.1914 55.2012 36.8164 55.1973ZM37.7129 53.5508C37.9473 53.4102 38.0645 53.1582 38.0645 52.7949C38.0645 52.3926 37.9082 52.127 37.5957 51.998C37.3262 51.9082 36.9824 51.8633 36.5645 51.8633H34.666V53.7676H36.7871C37.166 53.7676 37.4746 53.6953 37.7129 53.5508ZM46.918 57.125C46.875 57.5039 46.6777 57.8887 46.3262 58.2793C45.7793 58.9004 45.0137 59.2109 44.0293 59.2109C43.2168 59.2109 42.5 58.9492 41.8789 58.4258C41.2578 57.9023 40.9473 57.0508 40.9473 55.8711C40.9473 54.7656 41.2266 53.918 41.7852 53.3281C42.3477 52.7383 43.0762 52.4434 43.9707 52.4434C44.502 52.4434 44.9805 52.543 45.4062 52.7422C45.832 52.9414 46.1836 53.2559 46.4609 53.6855C46.7109 54.0645 46.873 54.5039 46.9473 55.0039C46.9902 55.2969 47.0078 55.7188 47 56.2695H42.6289C42.6523 56.9102 42.8535 57.3594 43.2324 57.6172C43.4629 57.7773 43.7402 57.8574 44.0645 57.8574C44.4082 57.8574 44.6875 57.7598 44.9023 57.5645C45.0195 57.459 45.123 57.3125 45.2129 57.125H46.918ZM45.2656 55.168C45.2383 54.7266 45.1035 54.3926 44.8613 54.166C44.623 53.9355 44.3262 53.8203 43.9707 53.8203C43.584 53.8203 43.2832 53.9414 43.0684 54.1836C42.8574 54.4258 42.7246 54.7539 42.6699 55.168H45.2656ZM52.5312 52.9062C53.0312 53.2266 53.3184 53.7773 53.3926 54.5586H51.7227C51.6992 54.3438 51.6387 54.1738 51.541 54.0488C51.3574 53.8223 51.0449 53.709 50.6035 53.709C50.2402 53.709 49.9805 53.7656 49.8242 53.8789C49.6719 53.9922 49.5957 54.125 49.5957 54.2773C49.5957 54.4688 49.6777 54.6074 49.8418 54.6934C50.0059 54.7832 50.5859 54.9375 51.582 55.1562C52.2461 55.3125 52.7441 55.5488 53.0762 55.8652C53.4043 56.1855 53.5684 56.5859 53.5684 57.0664C53.5684 57.6992 53.332 58.2168 52.8594 58.6191C52.3906 59.0176 51.6641 59.2168 50.6797 59.2168C49.6758 59.2168 48.9336 59.0059 48.4531 58.584C47.9766 58.1582 47.7383 57.6172 47.7383 56.9609H49.4316C49.4668 57.2578 49.543 57.4688 49.6602 57.5938C49.8672 57.8164 50.25 57.9277 50.8086 57.9277C51.1367 57.9277 51.3965 57.8789 51.5879 57.7812C51.7832 57.6836 51.8809 57.5371 51.8809 57.3418C51.8809 57.1543 51.8027 57.0117 51.6465 56.9141C51.4902 56.8164 50.9102 56.6484 49.9062 56.4102C49.1836 56.2305 48.6738 56.0059 48.377 55.7363C48.0801 55.4707 47.9316 55.0879 47.9316 54.5879C47.9316 53.998 48.1621 53.4922 48.623 53.0703C49.0879 52.6445 49.7402 52.4316 50.5801 52.4316C51.377 52.4316 52.0273 52.5898 52.5312 52.9062ZM57.7344 57.8105V59.0586L56.9434 59.0879C56.1543 59.1152 55.6152 58.9785 55.3262 58.6777C55.1387 58.4863 55.0449 58.1914 55.0449 57.793V53.8613H54.1543V52.6719H55.0449V50.8906H56.6973V52.6719H57.7344V53.8613H56.6973V57.2363C56.6973 57.498 56.7305 57.6621 56.7969 57.7285C56.8633 57.791 57.0664 57.8223 57.4062 57.8223C57.457 57.8223 57.5098 57.8223 57.5645 57.8223C57.623 57.8184 57.6797 57.8145 57.7344 57.8105ZM65.3574 54.1543C64.6855 54.1543 64.2344 54.373 64.0039 54.8105C63.875 55.0566 63.8105 55.4355 63.8105 55.9473V59H62.1289V52.6133H63.7227V53.7266C63.9805 53.3008 64.2051 53.0098 64.3965 52.8535C64.709 52.5918 65.1152 52.4609 65.6152 52.4609C65.6465 52.4609 65.6719 52.4629 65.6914 52.4668C65.7148 52.4668 65.7637 52.4688 65.8379 52.4727V54.1836C65.7324 54.1719 65.6387 54.1641 65.5566 54.1602C65.4746 54.1562 65.4082 54.1543 65.3574 54.1543ZM72.2891 57.125C72.2461 57.5039 72.0488 57.8887 71.6973 58.2793C71.1504 58.9004 70.3848 59.2109 69.4004 59.2109C68.5879 59.2109 67.8711 58.9492 67.25 58.4258C66.6289 57.9023 66.3184 57.0508 66.3184 55.8711C66.3184 54.7656 66.5977 53.918 67.1562 53.3281C67.7188 52.7383 68.4473 52.4434 69.3418 52.4434C69.873 52.4434 70.3516 52.543 70.7773 52.7422C71.2031 52.9414 71.5547 53.2559 71.832 53.6855C72.082 54.0645 72.2441 54.5039 72.3184 55.0039C72.3613 55.2969 72.3789 55.7188 72.3711 56.2695H68C68.0234 56.9102 68.2246 57.3594 68.6035 57.6172C68.834 57.7773 69.1113 57.8574 69.4355 57.8574C69.7793 57.8574 70.0586 57.7598 70.2734 57.5645C70.3906 57.459 70.4941 57.3125 70.584 57.125H72.2891ZM70.6367 55.168C70.6094 54.7266 70.4746 54.3926 70.2324 54.166C69.9941 53.9355 69.6973 53.8203 69.3418 53.8203C68.9551 53.8203 68.6543 53.9414 68.4395 54.1836C68.2285 54.4258 68.0957 54.7539 68.041 55.168H70.6367ZM75.3066 60.1191C75.4863 60.2715 75.7891 60.3477 76.2148 60.3477C76.8164 60.3477 77.2188 60.1465 77.4219 59.7441C77.5547 59.4863 77.6211 59.0527 77.6211 58.4434V58.0332C77.4609 58.3066 77.2891 58.5117 77.1055 58.6484C76.7734 58.9023 76.3418 59.0293 75.8105 59.0293C74.9902 59.0293 74.334 58.7422 73.8418 58.168C73.3535 57.5898 73.1094 56.8086 73.1094 55.8242C73.1094 54.875 73.3457 54.0781 73.8184 53.4336C74.291 52.7852 74.9609 52.4609 75.8281 52.4609C76.1484 52.4609 76.4277 52.5098 76.666 52.6074C77.0723 52.7754 77.4004 53.084 77.6504 53.5332V52.6133H79.2734V58.6719C79.2734 59.4961 79.1348 60.1172 78.8574 60.5352C78.3809 61.2539 77.4668 61.6133 76.1152 61.6133C75.2988 61.6133 74.6328 61.4531 74.1172 61.1328C73.6016 60.8125 73.3164 60.334 73.2617 59.6973H75.0781C75.125 59.8926 75.2012 60.0332 75.3066 60.1191ZM75.0254 56.8203C75.252 57.3594 75.6582 57.6289 76.2441 57.6289C76.6348 57.6289 76.9648 57.4824 77.2344 57.1895C77.5039 56.8926 77.6387 56.4219 77.6387 55.7773C77.6387 55.1719 77.5098 54.7109 77.252 54.3945C76.998 54.0781 76.6562 53.9199 76.2266 53.9199C75.6406 53.9199 75.2363 54.1953 75.0137 54.7461C74.8965 55.0391 74.8379 55.4004 74.8379 55.8301C74.8379 56.2012 74.9004 56.5312 75.0254 56.8203ZM81.0781 53.3047C81.5195 52.7422 82.2773 52.4609 83.3516 52.4609C84.0508 52.4609 84.6719 52.5996 85.2148 52.877C85.7578 53.1543 86.0293 53.6777 86.0293 54.4473V57.377C86.0293 57.5801 86.0332 57.8262 86.041 58.1152C86.0527 58.334 86.0859 58.4824 86.1406 58.5605C86.1953 58.6387 86.2773 58.7031 86.3867 58.7539V59H84.5703C84.5195 58.8711 84.4844 58.75 84.4648 58.6367C84.4453 58.5234 84.4297 58.3945 84.418 58.25C84.1875 58.5 83.9219 58.7129 83.6211 58.8887C83.2617 59.0957 82.8555 59.1992 82.4023 59.1992C81.8242 59.1992 81.3457 59.0352 80.9668 58.707C80.5918 58.375 80.4043 57.9062 80.4043 57.3008C80.4043 56.5156 80.707 55.9473 81.3125 55.5957C81.6445 55.4043 82.1328 55.2676 82.7773 55.1855L83.3457 55.1152C83.6543 55.0762 83.875 55.0273 84.0078 54.9688C84.2461 54.8672 84.3652 54.709 84.3652 54.4941C84.3652 54.2324 84.2734 54.0527 84.0898 53.9551C83.9102 53.8535 83.6445 53.8027 83.293 53.8027C82.8984 53.8027 82.6191 53.9004 82.4551 54.0957C82.3379 54.2402 82.2598 54.4355 82.2207 54.6816H80.6094C80.6445 54.123 80.8008 53.6641 81.0781 53.3047ZM82.3203 57.793C82.4766 57.9219 82.668 57.9863 82.8945 57.9863C83.2539 57.9863 83.584 57.8809 83.8848 57.6699C84.1895 57.459 84.3477 57.0742 84.3594 56.5156V55.8945C84.2539 55.9609 84.1465 56.0156 84.0371 56.0586C83.9316 56.0977 83.7852 56.1348 83.5977 56.1699L83.2227 56.2402C82.8711 56.3027 82.6191 56.3789 82.4668 56.4688C82.209 56.6211 82.0801 56.8574 82.0801 57.1777C82.0801 57.4629 82.1602 57.668 82.3203 57.793ZM90.7285 54.1543C90.0566 54.1543 89.6055 54.373 89.375 54.8105C89.2461 55.0566 89.1816 55.4355 89.1816 55.9473V59H87.5V52.6133H89.0938V53.7266C89.3516 53.3008 89.5762 53.0098 89.7676 52.8535C90.0801 52.5918 90.4863 52.4609 90.9863 52.4609C91.0176 52.4609 91.043 52.4629 91.0625 52.4668C91.0859 52.4668 91.1348 52.4688 91.209 52.4727V54.1836C91.1035 54.1719 91.0098 54.1641 90.9277 54.1602C90.8457 54.1562 90.7793 54.1543 90.7285 54.1543ZM98.0059 50.375V59H96.3828V58.1152C96.1445 58.4941 95.873 58.7695 95.5684 58.9414C95.2637 59.1133 94.8848 59.1992 94.4316 59.1992C93.6855 59.1992 93.0566 58.8984 92.5449 58.2969C92.0371 57.6914 91.7832 56.916 91.7832 55.9707C91.7832 54.8809 92.0332 54.0234 92.5332 53.3984C93.0371 52.7734 93.709 52.4609 94.5488 52.4609C94.9355 52.4609 95.2793 52.5469 95.5801 52.7188C95.8809 52.8867 96.125 53.1211 96.3125 53.4219V50.375H98.0059ZM93.5059 55.8477C93.5059 56.4375 93.623 56.9082 93.8574 57.2598C94.0879 57.6152 94.4395 57.793 94.9121 57.793C95.3848 57.793 95.7441 57.6172 95.9902 57.2656C96.2363 56.9141 96.3594 56.459 96.3594 55.9004C96.3594 55.1191 96.1621 54.5605 95.7676 54.2246C95.5254 54.0215 95.2441 53.9199 94.9238 53.9199C94.4355 53.9199 94.0762 54.1055 93.8457 54.4766C93.6191 54.8438 93.5059 55.3008 93.5059 55.8477ZM103.93 52.9062C104.43 53.2266 104.717 53.7773 104.791 54.5586H103.121C103.098 54.3438 103.037 54.1738 102.939 54.0488C102.756 53.8223 102.443 53.709 102.002 53.709C101.639 53.709 101.379 53.7656 101.223 53.8789C101.07 53.9922 100.994 54.125 100.994 54.2773C100.994 54.4688 101.076 54.6074 101.24 54.6934C101.404 54.7832 101.984 54.9375 102.98 55.1562C103.645 55.3125 104.143 55.5488 104.475 55.8652C104.803 56.1855 104.967 56.5859 104.967 57.0664C104.967 57.6992 104.73 58.2168 104.258 58.6191C103.789 59.0176 103.062 59.2168 102.078 59.2168C101.074 59.2168 100.332 59.0059 99.8516 58.584C99.375 58.1582 99.1367 57.6172 99.1367 56.9609H100.83C100.865 57.2578 100.941 57.4688 101.059 57.5938C101.266 57.8164 101.648 57.9277 102.207 57.9277C102.535 57.9277 102.795 57.8789 102.986 57.7812C103.182 57.6836 103.279 57.5371 103.279 57.3418C103.279 57.1543 103.201 57.0117 103.045 56.9141C102.889 56.8164 102.309 56.6484 101.305 56.4102C100.582 56.2305 100.072 56.0059 99.7754 55.7363C99.4785 55.4707 99.3301 55.0879 99.3301 54.5879C99.3301 53.998 99.5605 53.4922 100.021 53.0703C100.486 52.6445 101.139 52.4316 101.979 52.4316C102.775 52.4316 103.426 52.5898 103.93 52.9062ZM107.82 59.5977C107.75 59.8867 107.619 60.1367 107.428 60.3477C107.221 60.5742 106.977 60.7441 106.695 60.8574C106.418 60.9746 106.227 61.0332 106.121 61.0332V60.3887C106.457 60.2949 106.703 60.1387 106.859 59.9199C107.02 59.7012 107.111 59.3945 107.135 59H106.121V57.2539H107.926V58.7656C107.926 59.0312 107.891 59.3086 107.82 59.5977ZM35.9961 70.4043V64.3633H37.8008V70.375C37.8008 71.1094 37.6738 71.6914 37.4199 72.1211C36.9902 72.8477 36.2148 73.2109 35.0938 73.2109C33.9727 73.2109 33.2207 72.918 32.8379 72.332C32.4551 71.7422 32.2637 70.9395 32.2637 69.9238V69.7246H33.9688V69.9238C33.9844 70.5918 34.0566 71.0625 34.1855 71.3359C34.3184 71.6055 34.5996 71.7402 35.0293 71.7402C35.4551 71.7402 35.7363 71.5918 35.873 71.2949C35.9551 71.1191 35.9961 70.8223 35.9961 70.4043ZM44.7852 67.4219C45.3242 68.0977 45.5938 68.8965 45.5938 69.8184C45.5938 70.7559 45.3242 71.5586 44.7852 72.2266C44.2461 72.8906 43.4277 73.2227 42.3301 73.2227C41.2324 73.2227 40.4141 72.8906 39.875 72.2266C39.3359 71.5586 39.0664 70.7559 39.0664 69.8184C39.0664 68.8965 39.3359 68.0977 39.875 67.4219C40.4141 66.7461 41.2324 66.4082 42.3301 66.4082C43.4277 66.4082 44.2461 66.7461 44.7852 67.4219ZM42.3242 67.8203C41.8359 67.8203 41.459 67.9941 41.1934 68.3418C40.9316 68.6855 40.8008 69.1777 40.8008 69.8184C40.8008 70.459 40.9316 70.9531 41.1934 71.3008C41.459 71.6484 41.8359 71.8223 42.3242 71.8223C42.8125 71.8223 43.1875 71.6484 43.4492 71.3008C43.7109 70.9531 43.8418 70.459 43.8418 69.8184C43.8418 69.1777 43.7109 68.6855 43.4492 68.3418C43.1875 67.9941 42.8125 67.8203 42.3242 67.8203ZM52.5664 69.25V73H50.8613V69.1152C50.8613 68.7715 50.8027 68.4941 50.6855 68.2832C50.5332 67.9863 50.2441 67.8379 49.8184 67.8379C49.377 67.8379 49.041 67.9863 48.8105 68.2832C48.584 68.5762 48.4707 68.9961 48.4707 69.543V73H46.8066V64.3926H48.4707V67.4453C48.7129 67.0742 48.9922 66.8164 49.3086 66.6719C49.6289 66.5234 49.9648 66.4492 50.3164 66.4492C50.7109 66.4492 51.0684 66.5176 51.3887 66.6543C51.7129 66.791 51.9785 67 52.1855 67.2812C52.3613 67.5195 52.4688 67.7656 52.5078 68.0195C52.5469 68.2695 52.5664 68.6797 52.5664 69.25ZM57.1367 67.8496C56.5703 67.8496 56.1816 68.0898 55.9707 68.5703C55.8613 68.8242 55.8066 69.1484 55.8066 69.543V73H54.1426V66.625H55.7539V67.5566C55.9688 67.2285 56.1719 66.9922 56.3633 66.8477C56.707 66.5898 57.1426 66.4609 57.6699 66.4609C58.3301 66.4609 58.8691 66.6348 59.2871 66.9824C59.709 67.3262 59.9199 67.8984 59.9199 68.6992V73H58.209V69.1152C58.209 68.7793 58.1641 68.5215 58.0742 68.3418C57.9102 68.0137 57.5977 67.8496 57.1367 67.8496ZM68.0762 71.752C68.502 71.752 68.8477 71.7051 69.1133 71.6113C69.6172 71.4316 69.8691 71.0977 69.8691 70.6094C69.8691 70.3242 69.7441 70.1035 69.4941 69.9473C69.2441 69.7949 68.8516 69.6602 68.3164 69.543L67.4023 69.3379C66.5039 69.1348 65.8828 68.9141 65.5391 68.6758C64.957 68.2773 64.666 67.6543 64.666 66.8066C64.666 66.0332 64.9473 65.3906 65.5098 64.8789C66.0723 64.3672 66.8984 64.1113 67.9883 64.1113C68.8984 64.1113 69.6738 64.3535 70.3145 64.8379C70.959 65.3184 71.2969 66.0176 71.3281 66.9355H69.5938C69.5625 66.416 69.3359 66.0469 68.9141 65.8281C68.6328 65.6836 68.2832 65.6113 67.8652 65.6113C67.4004 65.6113 67.0293 65.7051 66.752 65.8926C66.4746 66.0801 66.3359 66.3418 66.3359 66.6777C66.3359 66.9863 66.4727 67.2168 66.7461 67.3691C66.9219 67.4707 67.2969 67.5898 67.8711 67.7266L69.3594 68.084C70.0117 68.2402 70.5039 68.4492 70.8359 68.7109C71.3516 69.1172 71.6094 69.7051 71.6094 70.4746C71.6094 71.2637 71.3066 71.9199 70.7012 72.4434C70.0996 72.9629 69.248 73.2227 68.1465 73.2227C67.0215 73.2227 66.1367 72.9668 65.4922 72.4551C64.8477 71.9395 64.5254 71.2324 64.5254 70.334H66.248C66.3027 70.7285 66.4102 71.0234 66.5703 71.2188C66.8633 71.5742 67.3652 71.752 68.0762 71.752ZM76.3965 68.3711C76.2559 68.0625 75.9805 67.9082 75.5703 67.9082C75.0938 67.9082 74.7734 68.0625 74.6094 68.3711C74.5195 68.5469 74.4746 68.8086 74.4746 69.1562V73H72.7812V66.625H74.4043V67.5566C74.6113 67.2246 74.8066 66.9883 74.9902 66.8477C75.3145 66.5977 75.7344 66.4727 76.25 66.4727C76.7383 66.4727 77.1328 66.5801 77.4336 66.7949C77.6758 66.9941 77.8594 67.25 77.9844 67.5625C78.2031 67.1875 78.4746 66.9121 78.7988 66.7363C79.1426 66.5605 79.5254 66.4727 79.9473 66.4727C80.2285 66.4727 80.5059 66.5273 80.7793 66.6367C81.0527 66.7461 81.3008 66.9375 81.5234 67.2109C81.7031 67.4336 81.8242 67.707 81.8867 68.0312C81.9258 68.2461 81.9453 68.5605 81.9453 68.9746L81.9336 73H80.2227V68.9336C80.2227 68.6914 80.1836 68.4922 80.1055 68.3359C79.957 68.0391 79.6836 67.8906 79.2852 67.8906C78.8242 67.8906 78.5059 68.082 78.3301 68.4648C78.2402 68.668 78.1953 68.9121 78.1953 69.1973V73H76.5137V69.1973C76.5137 68.8184 76.4746 68.543 76.3965 68.3711ZM85.2031 66.6133V73H83.5098V66.6133H85.2031ZM85.2031 64.3105V65.8516H83.5098V64.3105H85.2031ZM89.75 71.8105V73.0586L88.959 73.0879C88.1699 73.1152 87.6309 72.9785 87.3418 72.6777C87.1543 72.4863 87.0605 72.1914 87.0605 71.793V67.8613H86.1699V66.6719H87.0605V64.8906H88.7129V66.6719H89.75V67.8613H88.7129V71.2363C88.7129 71.498 88.7461 71.6621 88.8125 71.7285C88.8789 71.791 89.082 71.8223 89.4219 71.8223C89.4727 71.8223 89.5254 71.8223 89.5801 71.8223C89.6387 71.8184 89.6953 71.8145 89.75 71.8105ZM96.5938 69.25V73H94.8887V69.1152C94.8887 68.7715 94.8301 68.4941 94.7129 68.2832C94.5605 67.9863 94.2715 67.8379 93.8457 67.8379C93.4043 67.8379 93.0684 67.9863 92.8379 68.2832C92.6113 68.5762 92.498 68.9961 92.498 69.543V73H90.834V64.3926H92.498V67.4453C92.7402 67.0742 93.0195 66.8164 93.3359 66.6719C93.6562 66.5234 93.9922 66.4492 94.3438 66.4492C94.7383 66.4492 95.0957 66.5176 95.416 66.6543C95.7402 66.791 96.0059 67 96.2129 67.2812C96.3887 67.5195 96.4961 67.7656 96.5352 68.0195C96.5742 68.2695 96.5938 68.6797 96.5938 69.25Z" fill="#FF6F3D"/>
</g>
<defs>
<clipPath id="clip0_4_109">
<rect width="168" height="80" fill="white"/>
</clipPath>
</defs>
</svg>
